<svg width="24" height="24" viewBox="0 0 24 24" fill="none" xmlns="http://www.w3.org/2000/svg">
<circle cx="12" cy="12" r="12" fill="#A7D22D"/>
<path d="M9.26847 15.9828L8.44236 17.635C7.39011 17.1965 6.30048 16.7581 5.14208 16.0034C4.73812 15.7402 4.49318 15.293 4.48347 14.811C4.43308 12.3364 5.01362 9.84856 6.48357 7.21825C6.67595 6.87397 6.99648 6.6216 7.36822 6.48963C8.25504 6.17488 8.85707 5.9316 9.88804 5.75977L10.5076 6.89566C10.5076 6.89566 11.1272 6.68913 12.1598 6.68913C13.1925 6.68913 13.812 6.89566 13.812 6.89566L14.4316 5.75977C15.4626 5.9316 16.0646 6.17488 16.9514 6.48963C17.3232 6.6216 17.6437 6.87397 17.8361 7.21825C19.306 9.84856 19.8866 12.3364 19.8363 14.811C19.8265 15.293 19.5815 15.7402 19.1776 16.0034C18.0192 16.7581 16.9296 17.1965 15.8773 17.635L15.0512 15.9828M8.02931 15.1567C8.02931 15.1567 10.0946 16.1893 12.1598 16.1893C14.2251 16.1893 16.2903 15.1567 16.2903 15.1567" stroke="#212A09" stroke-width="1.2" stroke-linecap="round" stroke-linejoin="round"/>
<path d="M10.3192 12.1622C10.3192 12.7698 9.90909 13.1112 9.57679 13.1112C9.2445 13.1112 8.83438 12.7698 8.83438 12.1622C8.83438 11.5547 9.2445 11.2133 9.57679 11.2133C9.90909 11.2133 10.3192 11.5547 10.3192 12.1622Z" fill="#212A09" stroke="#212A09" stroke-width="1.2"/>
<path d="M15.4833 12.1622C15.4833 12.7698 15.0731 13.1112 14.7409 13.1112C14.4086 13.1112 13.9984 12.7698 13.9984 12.1622C13.9984 11.5547 14.4086 11.2133 14.7409 11.2133C15.0731 11.2133 15.4833 11.5547 15.4833 12.1622Z" fill="#212A09" stroke="#212A09" stroke-width="1.2"/>
</svg>
