<svg width="24" height="24" viewBox="0 0 24 24" fill="none" xmlns="http://www.w3.org/2000/svg">
<circle cx="12" cy="12" r="12" fill="#A7D22D"/>
<path d="M11.1013 16.8378C11.1706 16.8379 11.2391 16.8517 11.3031 16.8783C11.367 16.905 11.4251 16.944 11.474 16.9932C11.5228 17.0423 11.5616 17.1006 11.588 17.1648C11.6144 17.2289 11.6279 17.2977 11.6278 17.3671C11.6278 17.4365 11.614 17.5052 11.5874 17.5693C11.5608 17.6334 11.5219 17.6916 11.4729 17.7406C11.4239 17.7896 11.3657 17.8284 11.3017 17.8549C11.2377 17.8814 11.1691 17.895 11.0998 17.8949C10.96 17.8947 10.826 17.8388 10.7272 17.7395C10.6285 17.6403 10.5731 17.5058 10.5733 17.3656C10.5735 17.2254 10.6293 17.0911 10.7283 16.9921C10.8273 16.8931 10.9615 16.8376 11.1013 16.8378ZM19.3695 13.5697C19.3002 13.5697 19.2317 13.556 19.1677 13.5294C19.1038 13.5028 19.0457 13.4638 18.9968 13.4147C18.9478 13.3656 18.909 13.3073 18.8826 13.2431C18.8561 13.179 18.8425 13.1103 18.8426 13.0409C18.8426 12.9714 18.8563 12.9027 18.8829 12.8386C18.9094 12.7745 18.9483 12.7163 18.9973 12.6672C19.0463 12.6182 19.1044 12.5793 19.1684 12.5528C19.2324 12.5263 19.301 12.5127 19.3702 12.5127C19.5101 12.5128 19.6441 12.5686 19.7429 12.6678C19.8418 12.767 19.8972 12.9014 19.8971 13.0416C19.897 13.1818 19.8414 13.3162 19.7424 13.4152C19.6435 13.5143 19.5093 13.5698 19.3695 13.5697ZM19.3695 11.4076C18.9372 11.408 18.5227 11.5803 18.217 11.8867C17.9113 12.1931 17.7393 12.6086 17.7389 13.042C17.7389 13.2171 17.7682 13.3916 17.8252 13.5615L12.4394 16.4356C12.29 16.2183 12.0902 16.0406 11.8571 15.9178C11.624 15.7951 11.3646 15.7311 11.1013 15.7312C10.4796 15.7312 9.91332 16.0883 9.63882 16.6454L4.80049 14.0877C4.28898 13.8186 3.90648 12.9751 3.94698 12.2067C3.96798 11.806 4.10598 11.4948 4.31673 11.3745C4.45023 11.2993 4.61074 11.3053 4.78174 11.3948L4.81324 11.4121C6.09576 12.0887 10.2913 14.3043 10.4683 14.3862C10.7406 14.5133 10.8921 14.5644 11.3571 14.3433L20.0302 9.82202C20.1577 9.7739 20.3062 9.65136 20.3062 9.46566C20.3062 9.20855 20.04 9.10705 20.04 9.10705C19.5465 8.87024 18.7882 8.51464 18.0487 8.1673C16.4677 7.42528 14.6759 6.58476 13.8891 6.17127C13.2096 5.81492 12.6629 6.11564 12.5654 6.17578L12.3764 6.26976C8.83481 8.02521 4.09473 10.3783 3.82472 10.543C3.34247 10.8377 3.04321 11.4249 3.00421 12.1534C2.94421 13.3089 3.53147 14.514 4.37223 14.9553L9.48882 17.6001C9.54518 17.9887 9.73911 18.3439 10.0352 18.6009C10.3312 18.8579 10.7097 18.9996 11.1013 19C11.5291 18.9993 11.9395 18.8303 12.2443 18.5295C12.549 18.2286 12.7238 17.8199 12.7311 17.3911L18.3667 14.3291C18.6517 14.5531 19.0065 14.6756 19.3695 14.6756C19.8018 14.6752 20.2163 14.5029 20.522 14.1965C20.8277 13.8901 20.9996 13.4746 21 13.0412C20.9996 12.6079 20.8277 12.1924 20.522 11.886C20.2163 11.5795 19.8018 11.4072 19.3695 11.4068" fill="black"/>
</svg>
