<svg width="24" height="24" viewBox="0 0 24 24" fill="none" xmlns="http://www.w3.org/2000/svg">
<circle cx="12" cy="12" r="12" fill="#A7D22D"/>
<path fill-rule="evenodd" clip-rule="evenodd" d="M12 4C7.58 4 4 7.58 4 12C4 15.54 6.29 18.53 9.47 19.59C9.87 19.66 10.02 19.42 10.02 19.21C10.02 19.02 10.01 18.39 10.01 17.72C8 18.09 7.48 17.23 7.32 16.78C7.23 16.55 6.84 15.84 6.5 15.65C6.22 15.5 5.82 15.13 6.49 15.12C7.12 15.11 7.57 15.7 7.72 15.94C8.44 17.15 9.59 16.81 10.05 16.6C10.12 16.08 10.33 15.73 10.56 15.53C8.78 15.33 6.92 14.64 6.92 11.58C6.92 10.71 7.23 9.99 7.74 9.43C7.66 9.23 7.38 8.41 7.82 7.31C7.82 7.31 8.49 7.1 10.02 8.13C10.66 7.95 11.34 7.86 12.02 7.86C12.7 7.86 13.38 7.95 14.02 8.13C15.55 7.09 16.22 7.31 16.22 7.31C16.66 8.41 16.38 9.23 16.3 9.43C16.81 9.99 17.12 10.7 17.12 11.58C17.12 14.65 15.25 15.33 13.47 15.53C13.76 15.78 14.01 16.26 14.01 17.01C14.01 18.08 14 18.94 14 19.21C14 19.42 14.15 19.67 14.55 19.59C16.1382 19.0538 17.5182 18.0332 18.4958 16.6716C19.4735 15.3101 19.9996 13.6762 20 12C20 7.58 16.42 4 12 4Z" stroke="black" stroke-linejoin="round"/>
</svg>
