<svg width="24" height="24" viewBox="0 0 24 24" fill="none" xmlns="http://www.w3.org/2000/svg">
<circle cx="12" cy="12" r="12" fill="#A7D22D"/>
<path fill-rule="evenodd" clip-rule="evenodd" d="M4 8.90323C4 6.19525 6.19525 4 8.90323 4H15.0968C17.8047 4 20 6.19524 20 8.90323V15.0968C20 17.8047 17.8047 20 15.0968 20H8.90323C6.19524 20 4 17.8047 4 15.0968V8.90323ZM8.90323 5.54839C7.0504 5.54839 5.54839 7.0504 5.54839 8.90323V15.0968C5.54839 16.9496 7.0504 18.4516 8.90323 18.4516H15.0968C16.9496 18.4516 18.4516 16.9496 18.4516 15.0968V8.90323C18.4516 7.0504 16.9496 5.54839 15.0968 5.54839H8.90323Z" fill="#212A09"/>
<path fill-rule="evenodd" clip-rule="evenodd" d="M12.0016 9.65961C10.7092 9.65961 9.66156 10.7072 9.66156 11.9996C9.66156 13.292 10.7092 14.3396 12.0016 14.3396C12.6221 14.3396 13.2173 14.0931 13.6562 13.6542C14.095 13.2154 14.3416 12.6202 14.3416 11.9996C14.3416 10.7072 13.294 9.65961 12.0016 9.65961ZM8.10156 11.9996C8.10156 9.84565 9.8476 8.09961 12.0016 8.09961C14.1555 8.09961 15.9016 9.84565 15.9016 11.9996C15.9016 13.0339 15.4906 14.0259 14.7593 14.7573C14.0279 15.4887 13.0359 15.8996 12.0016 15.8996C9.8476 15.8996 8.10156 14.1536 8.10156 11.9996Z" fill="#212A09"/>
<path d="M16.1516 6.80039C15.5717 6.80039 15.1016 7.27049 15.1016 7.85039C15.1016 8.43029 15.5717 8.90039 16.1516 8.90039C16.7315 8.90039 17.2016 8.43029 17.2016 7.85039C17.2016 7.27049 16.7315 6.80039 16.1516 6.80039Z" fill="#212A09"/>
<path fill-rule="evenodd" clip-rule="evenodd" d="M16.1516 8.90039C15.5717 8.90039 15.1016 8.43029 15.1016 7.85039C15.1016 7.27049 15.5717 6.80039 16.1516 6.80039C16.7315 6.80039 17.2016 7.27049 17.2016 7.85039C17.2016 8.43029 16.7315 8.90039 16.1516 8.90039Z" fill="#212A09"/>
</svg>
