<svg width="24" height="24" viewBox="0 0 24 24" fill="none" xmlns="http://www.w3.org/2000/svg">
<circle cx="12" cy="12" r="12" fill="#A7D22D"/>
<path fill-rule="evenodd" clip-rule="evenodd" d="M18.0152 8.30852C18.2102 7.53458 17.2766 6.89143 16.3715 7.17616L5.27679 10.6664C4.26602 10.9844 4.22099 12.1352 5.20483 12.5049L7.62095 13.4129L8.77033 16.6883C8.83003 16.8584 8.99584 16.9902 9.20621 17.0346C9.41658 17.0789 9.64009 17.0294 9.79375 16.9042L11.5642 15.4626L14.0444 16.9772C14.7643 17.4168 15.8012 17.0966 15.982 16.3788L18.0152 8.30852ZM5.71888 11.598L16.8136 8.10782L14.7804 16.1782L11.8747 14.4037C11.6306 14.2546 11.2889 14.2744 11.073 14.4501L10.3147 15.0676L10.5426 14.0473L15.0071 10.4122C15.2244 10.2353 15.2473 9.95478 15.0608 9.75596C14.8743 9.55713 14.5359 9.50137 14.2691 9.6255L8.10348 12.4941L5.71888 11.598ZM8.85525 13.2947L9.22716 14.3546L9.36995 13.7151C9.39227 13.6152 9.45149 13.5232 9.5397 13.4514L10.9012 12.3428L8.85525 13.2947Z" fill="#212A09"/>
</svg>
