<svg width="24" height="24" viewBox="0 0 24 24" fill="none" xmlns="http://www.w3.org/2000/svg">
<circle cx="12" cy="12" r="12" fill="#A7D22D"/>
<path d="M19.361 16.2895C19.0685 16.947 18.3139 17.5425 17.6054 17.674C17.5329 17.6875 15.8014 18 12.0048 18H11.9947C8.19863 18 6.46558 17.6875 6.39357 17.6745C5.68505 17.5425 4.93003 16.947 4.63702 16.289C4.61102 16.2305 4 14.8235 4 12C4 9.1765 4.61102 7.769 4.63702 7.7105C4.93003 7.0525 5.68505 6.4575 6.39357 6.326C6.46558 6.3125 8.19863 6 11.9947 6C15.8014 6 17.5329 6.3125 17.6049 6.3255C18.3139 6.4575 19.0685 7.0525 19.3615 7.71C19.3875 7.769 20 9.1765 20 12C20 14.8235 19.3875 16.2305 19.361 16.2895ZM18.4465 8.115C18.2904 7.7645 17.8014 7.3795 17.4224 7.309C17.4064 7.306 15.6929 7 12.0048 7C8.30713 7 6.59208 7.306 6.57558 7.309C6.19657 7.3795 5.70805 7.7645 5.55155 8.117C5.54655 8.1275 5.00053 9.4145 5.00053 12C5.00053 14.585 5.54655 15.872 5.55255 15.885C5.70805 16.2355 6.19657 16.6205 6.57608 16.691C6.59208 16.694 8.30713 17 11.9947 17H12.0048C15.6929 17 17.4064 16.694 17.4229 16.691C17.8019 16.6205 18.2904 16.2355 18.447 15.883C18.452 15.872 18.999 14.585 18.999 12C18.999 9.415 18.452 8.1275 18.4465 8.115ZM10.7702 14.923C10.6892 14.9745 10.5962 15 10.5037 15C10.4207 15 10.3377 14.9795 10.2622 14.9375C10.1027 14.8495 10.0037 14.682 10.0037 14.5V9.5C10.0037 9.3185 10.1017 9.1515 10.2602 9.0635C10.4187 8.975 10.6132 8.979 10.7667 9.0745L14.7763 11.5525C14.9228 11.643 15.0128 11.803 15.0133 11.9755C15.0138 12.148 14.9258 12.309 14.7798 12.4005L10.7702 14.923ZM11.0042 10.397V13.5945L13.5683 11.9815L11.0042 10.397Z" fill="#212A09" stroke="#212A09" stroke-width="0.4"/>
</svg>
