<svg width="71" height="71" viewBox="0 0 71 71" fill="none" xmlns="http://www.w3.org/2000/svg">
<circle cx="35.3832" cy="35.3832" r="35.3832" fill="#A7D22D"/>
<path d="M35.8564 34.9113L50.4522 31.0549C51.3913 34.6093 51.0012 38.3839 49.3552 41.6711C47.7091 44.9581 44.9202 47.5316 41.5117 48.9088L35.8564 34.9113ZM35.8564 34.9113L35.6983 19.8154C39.0484 19.7803 42.3151 20.8607 44.9838 22.8863C47.6525 24.912 49.5716 27.7678 50.4387 31.004L35.8564 34.9113ZM20.7596 34.9113C20.7596 43.249 27.5186 50.0081 35.8564 50.0081C44.1941 50.0081 50.9531 43.249 50.9531 34.9113C50.9531 26.5736 44.1941 19.8146 35.8564 19.8146C27.5186 19.8146 20.7596 26.5736 20.7596 34.9113Z" stroke="#212A09" stroke-width="3" stroke-linecap="round" stroke-linejoin="round"/>
</svg>
