<svg width="49" height="48" viewBox="0 0 49 48" fill="none" xmlns="http://www.w3.org/2000/svg">
<path d="M29.2908 2.18933e-06C33.6836 -0.00209454 37.9443 1.5019 41.3624 4.26115C44.7805 7.0204 47.1493 10.8681 48.0737 15.1625C48.9981 19.457 48.4223 23.9385 46.4423 27.8598C44.4623 31.781 41.1977 34.9049 37.1931 36.7105C35.9131 39.5404 33.9657 42.0177 31.5181 43.9297C29.0704 45.8418 26.1955 47.1317 23.1399 47.6887C20.0843 48.2457 16.9391 48.0532 13.9742 47.1278C11.0093 46.2024 8.31311 44.5716 6.11685 42.3753C3.9206 40.1791 2.28983 37.4829 1.3644 34.518C0.438973 31.5531 0.246509 28.4079 0.803515 25.3523C1.36052 22.2967 2.65037 19.4218 4.56245 16.9741C6.47452 14.5264 8.95176 12.5791 11.7817 11.299C13.304 7.93091 15.7655 5.07341 18.8711 3.06927C21.9768 1.06513 25.5946 -0.000569068 29.2908 2.18933e-06ZM19.6889 14.4029C17.7975 14.4029 15.9246 14.7754 14.1771 15.4992C12.4297 16.223 10.8419 17.2839 9.50452 18.6214C8.16709 19.9588 7.10618 21.5465 6.38237 23.294C5.65856 25.0414 5.28602 26.9143 5.28602 28.8057C5.28602 30.6971 5.65856 32.57 6.38237 34.3174C7.10618 36.0649 8.16709 37.6526 9.50452 38.9901C10.8419 40.3275 12.4297 41.3884 14.1771 42.1122C15.9246 42.836 17.7975 43.2086 19.6889 43.2086C23.5087 43.2086 27.1722 41.6911 29.8732 38.9901C32.5743 36.289 34.0917 32.6256 34.0917 28.8057C34.0917 24.9858 32.5743 21.3224 29.8732 18.6214C27.1722 15.9203 23.5087 14.4029 19.6889 14.4029ZM22.0893 16.8033V19.2038H26.8903V24.0048H17.2884C16.9885 24.0042 16.6992 24.116 16.4776 24.318C16.2559 24.5201 16.118 24.7978 16.0909 25.0966C16.0638 25.3953 16.1495 25.6933 16.3311 25.9319C16.5128 26.1706 16.7772 26.3326 17.0724 26.386L17.2884 26.4052H22.0893C23.681 26.4052 25.2074 27.0375 26.3328 28.1629C27.4583 29.2884 28.0905 30.8148 28.0905 32.4064C28.0905 33.998 27.4583 35.5245 26.3328 36.6499C25.2074 37.7754 23.681 38.4076 22.0893 38.4076V40.8081H17.2884V38.4076H12.4874V33.6067H22.0893C22.3893 33.6072 22.6785 33.4955 22.9002 33.2934C23.1218 33.0913 23.2598 32.8136 23.2869 32.5149C23.314 32.2162 23.2283 31.9181 23.0466 31.6795C22.865 31.4408 22.6005 31.2788 22.3054 31.2254L22.0893 31.2062H17.2884C15.6968 31.2062 14.1704 30.5739 13.0449 29.4485C11.9195 28.323 11.2872 26.7966 11.2872 25.205C11.2872 23.6134 11.9195 22.087 13.0449 20.9615C14.1704 19.8361 15.6968 19.2038 17.2884 19.2038V16.8033H22.0893ZM29.2908 4.80095C27.2568 4.79857 25.2455 5.2281 23.39 6.06111C21.5344 6.89412 19.8769 8.11164 18.527 9.63311C21.2402 9.46841 23.9574 9.88155 26.499 10.8452C29.0406 11.8089 31.3487 13.3011 33.2706 15.2233C35.1926 17.1454 36.6845 19.4537 37.6479 21.9954C38.6113 24.5371 39.0241 27.2544 38.8591 29.9675C41.0416 28.0271 42.5827 25.4689 43.2779 22.6324C43.9731 19.7959 43.7896 16.8151 42.7518 14.0853C41.7139 11.3555 39.8707 9.00572 37.4666 7.34758C35.0626 5.68943 32.2112 4.80129 29.2908 4.80095Z" fill="#CAFC40"/>
</svg>
