<svg width="50" height="48" viewBox="0 0 50 48" fill="none" xmlns="http://www.w3.org/2000/svg">
<path d="M43.4008 9.74999C42.0084 9.74999 40.8508 8.53529 40.8508 6.99999C40.8508 5.4647 42.0084 4.25 43.4008 4.25C44.7932 4.25 45.9508 5.4647 45.9508 6.99999C45.9508 8.53529 44.7932 9.74999 43.4008 9.74999ZM37.5508 6.99999C37.5508 10.4352 40.1539 13.25 43.4008 13.25C46.6477 13.25 49.2508 10.4352 49.2508 6.99999C49.2508 3.56474 46.6477 0.75 43.4008 0.75C40.1539 0.75 37.5508 3.56474 37.5508 6.99999Z" fill="#CAFC40" stroke="#CAFC40" stroke-width="0.5"/>
<path d="M33.3243 19.2764L37.5629 15.0088L37.5629 15.0087C38.2123 14.3548 38.2123 13.2952 37.5629 12.6412L37.5629 12.6412C36.9123 11.9862 35.8569 11.9862 35.2063 12.6412L35.3798 12.8136L35.2062 12.6412L30.9696 16.9065C29.305 15.7065 27.2651 15 25.0615 15C22.4957 15 20.1519 15.9579 18.3642 17.5371L13.7055 12.8468C14.7658 11.5675 15.4038 9.92089 15.4038 8.12499C15.4038 4.0535 12.125 0.75 8.07691 0.75C4.02878 0.75 0.75 4.0535 0.75 8.12499C0.75 12.1965 4.02878 15.5 8.07691 15.5C9.12618 15.5 10.1245 15.2778 11.0274 14.8775C11.0639 14.9229 11.1031 14.9667 11.1449 15.0088C11.1449 15.0088 11.1449 15.0088 11.1449 15.0088L16.245 20.1435C15.3916 21.6408 14.9038 23.3759 14.9038 25.225C14.9038 30.8705 19.45 35.45 25.0615 35.45C26.1027 35.45 27.1079 35.2922 28.0542 34.9988L28.6127 36.1235C27.165 37.2078 26.2269 38.944 26.2269 40.8999C26.2269 44.1845 28.8719 46.8499 32.1384 46.8499C35.4049 46.8499 38.05 44.1845 38.05 40.8999C38.05 37.6154 35.4049 34.95 32.1384 34.95C32.011 34.95 31.8845 34.954 31.759 34.962L31.0319 33.498C33.5696 31.6393 35.2192 28.6257 35.2192 25.225C35.2192 23.0064 34.517 20.9524 33.3243 19.2764ZM8.07691 12.15C5.87149 12.15 4.08077 10.3495 4.08077 8.12499C4.08077 5.90044 5.87149 4.1 8.07691 4.1C10.2823 4.1 12.0731 5.90044 12.0731 8.12499C12.0731 10.3495 10.2823 12.15 8.07691 12.15ZM32.1384 43.4999C30.7147 43.4999 29.5577 42.3375 29.5577 40.8999C29.5577 39.4624 30.7147 38.2999 32.1384 38.2999C33.5622 38.2999 34.7192 39.4624 34.7192 40.8999C34.7192 42.3375 33.5622 43.4999 32.1384 43.4999ZM25.0615 32.1C21.2927 32.1 18.2346 29.0235 18.2346 25.225C18.2346 21.4265 21.2927 18.35 25.0615 18.35C28.8303 18.35 31.8884 21.4265 31.8884 25.225C31.8884 29.0235 28.8303 32.1 25.0615 32.1Z" fill="#CAFC40" stroke="#CAFC40" stroke-width="0.5"/>
</svg>
