<svg width="44" height="44" viewBox="0 0 44 44" fill="none" xmlns="http://www.w3.org/2000/svg">
<circle cx="22.0486" cy="21.9512" r="21.9512" fill="#B0D93B"/>
<path d="M17.0513 29.2373L15.5401 32.2596C13.6152 31.4576 11.622 30.6555 9.50299 29.2751C8.76403 28.7936 8.31597 27.9755 8.29822 27.0937C8.20604 22.567 9.26801 18.0161 11.9569 13.2046C12.3088 12.5748 12.8952 12.1131 13.5752 11.8717C15.1974 11.296 16.2987 10.8509 18.1846 10.5366L19.318 12.6145C19.318 12.6145 20.4514 12.2367 22.3403 12.2367C24.2293 12.2367 25.3627 12.6145 25.3627 12.6145L26.496 10.5366C28.382 10.8509 29.4832 11.296 31.1055 11.8717C31.7855 12.1131 32.3718 12.5748 32.7237 13.2046C35.4127 18.0161 36.4746 22.567 36.3826 27.0937C36.3647 27.9755 35.9166 28.7936 35.1777 29.2751C33.0586 30.6555 31.0656 31.4576 29.1406 32.2596L27.6294 29.2373M14.7845 27.7261C14.7845 27.7261 18.5624 29.6151 22.3403 29.6151C26.1182 29.6151 29.8961 27.7261 29.8961 27.7261" stroke="black" stroke-width="3" stroke-linecap="round" stroke-linejoin="round"/>
<path d="M17.6178 25.0815C18.974 25.0815 20.0734 23.813 20.0734 22.2481C20.0734 20.6832 18.974 19.4147 17.6178 19.4147C16.2615 19.4147 15.1621 20.6832 15.1621 22.2481C15.1621 23.813 16.2615 25.0815 17.6178 25.0815Z" fill="black"/>
<path d="M27.0626 25.0815C28.4188 25.0815 29.5182 23.813 29.5182 22.2481C29.5182 20.6832 28.4188 19.4147 27.0626 19.4147C25.7064 19.4147 24.6069 20.6832 24.6069 22.2481C24.6069 23.813 25.7064 25.0815 27.0626 25.0815Z" fill="black"/>
</svg>
