<svg width="71" height="72" viewBox="0 0 71 72" fill="none" xmlns="http://www.w3.org/2000/svg">
<circle cx="35.3832" cy="35.6661" r="35.3832" fill="#B0D93B"/>
<path d="M35.8549 35.1943L50.4508 31.3379C51.3899 34.8922 50.9998 38.6669 49.3537 41.954C47.7076 45.241 44.9187 47.8146 41.5102 49.1917L35.8549 35.1943ZM35.8549 35.1943L35.6968 20.0984C39.047 20.0633 42.3137 21.1436 44.9824 23.1693C47.6511 25.1949 49.5701 28.0507 50.4372 31.287L35.8549 35.1943ZM20.7581 35.1943C20.7581 43.5319 27.5171 50.2911 35.8549 50.2911C44.1926 50.2911 50.9516 43.5319 50.9516 35.1943C50.9516 26.8566 44.1926 20.0975 35.8549 20.0975C27.5171 20.0975 20.7581 26.8566 20.7581 35.1943Z" stroke="black" stroke-width="3" stroke-linecap="round" stroke-linejoin="round"/>
</svg>
