<svg width="71" height="72" viewBox="0 0 71 72" fill="none" xmlns="http://www.w3.org/2000/svg">
<circle cx="35.3832" cy="35.8085" r="35.3832" fill="#A7D22D"/>
<path d="M19.8164 51.3771H50.0097M19.8164 46.3448H50.0097M24.5523 21.184C25.2484 21.7987 25.6873 22.6979 25.6873 23.6995C25.6873 25.5524 24.1853 27.0544 22.3325 27.0544C21.3309 27.0544 20.4317 26.6154 19.817 25.9193M24.5523 21.184C24.7504 21.1834 24.9606 21.1834 25.1841 21.1834H44.642C44.8655 21.1834 45.0758 21.1834 45.2739 21.184M24.5523 21.184C23.0849 21.1886 22.2804 21.2269 21.6482 21.5491C21.0169 21.8707 20.5037 22.3839 20.1821 23.0152C19.8599 23.6475 19.8216 24.4519 19.817 25.9193M19.817 25.9193C19.8164 26.1175 19.8164 26.3277 19.8164 26.5512V35.9447C19.8164 36.1682 19.8164 36.3785 19.817 36.5766M45.2739 21.184C44.5778 21.7987 44.1388 22.6979 44.1388 23.6995C44.1388 25.5524 45.6408 27.0544 47.4936 27.0544C48.4952 27.0544 49.3945 26.6154 50.0091 25.9193M45.2739 21.184C46.7413 21.1886 47.5458 21.2269 48.178 21.5491C48.8092 21.8707 49.3225 22.3839 49.6441 23.0152C49.9663 23.6475 50.0045 24.4519 50.0091 25.9193M19.817 36.5766C20.4317 35.8805 21.3309 35.4415 22.3325 35.4415C24.1853 35.4415 25.6873 36.9435 25.6873 38.7964C25.6873 39.798 25.2484 40.6972 24.5523 41.3118M19.817 36.5766C19.8216 38.044 19.8599 38.8484 20.1821 39.4808C20.5037 40.112 21.0169 40.6253 21.6482 40.9468C22.2804 41.2691 23.0849 41.3073 24.5523 41.3118M24.5523 41.3118C24.7504 41.3125 24.9606 41.3125 25.1841 41.3125H44.642C44.8655 41.3125 45.0758 41.3125 45.2739 41.3118M45.2739 41.3118C44.5778 40.6972 44.1388 39.798 44.1388 38.7964C44.1388 36.9435 45.6408 35.4415 47.4936 35.4415C48.4956 35.4415 49.395 35.8808 50.0097 36.5773M45.2739 41.3118C46.7413 41.3073 47.5458 41.2691 48.178 40.9468C48.8092 40.6253 49.3225 40.112 49.6441 39.4808C49.9661 38.8485 50.0052 38.0442 50.0097 36.5773M50.0097 36.5773C50.0104 36.379 50.0097 36.1685 50.0097 35.9447V26.5512C50.0097 26.3277 50.0097 26.1175 50.0091 25.9193M38.2679 31.248C38.2679 33.1008 36.7659 34.6028 34.9131 34.6028C33.0602 34.6028 31.5583 33.1008 31.5583 31.248C31.5583 29.3951 33.0602 27.8931 34.9131 27.8931C36.7659 27.8931 38.2679 29.3951 38.2679 31.248Z" stroke="#212A09" stroke-width="3" stroke-linecap="round" stroke-linejoin="round"/>
</svg>
