<svg width="71" height="72" viewBox="0 0 71 72" fill="none" xmlns="http://www.w3.org/2000/svg">
<circle cx="35.3832" cy="36.0942" r="35.3832" fill="#A7D22D"/>
<path d="M35.8456 44.7897C35.6548 44.3706 35.2598 44.0648 34.7817 44.0105C34.3768 43.9642 33.9804 43.8775 33.6035 43.7524C33.4345 43.6956 33.2759 43.6335 33.1291 43.567L33.373 42.902C33.5453 42.9789 33.7228 43.0493 33.9045 43.1129L33.912 43.1155L33.9197 43.1181C34.5028 43.3108 35.0767 43.4085 35.6249 43.4085C36.1755 43.4085 36.5746 43.3346 36.8812 43.1764L36.8995 43.167L36.9174 43.1566C37.3818 42.8901 37.6483 42.432 37.6483 41.8996C37.6483 41.3088 37.3296 40.8183 36.7736 40.5534C36.494 40.4173 36.0969 40.2874 35.5247 40.1452C34.9379 39.9969 34.445 39.8394 34.0627 39.6781C33.7833 39.5517 33.5409 39.35 33.3223 39.0615C33.1343 38.804 33.0391 38.4169 33.0391 37.9103C33.0391 37.299 33.2111 36.7945 33.5653 36.3679C33.8806 35.994 34.3282 35.7401 34.9291 35.5977C35.3748 35.4921 35.7224 35.1739 35.8787 34.7631C36.0554 35.1795 36.4314 35.4892 36.8993 35.5637C37.2901 35.626 37.6489 35.7252 37.9715 35.8595L37.747 36.5113C37.1378 36.2667 36.5383 36.1432 35.9585 36.1432C34.0328 36.1432 33.9353 37.4717 33.9353 37.738C33.9353 38.3153 34.2471 38.7994 34.7907 39.0663L34.8059 39.0738L34.8214 39.0807C35.096 39.2033 35.4856 39.3214 36.0479 39.4525C36.6293 39.5839 37.1141 39.7344 37.4951 39.9013L37.503 39.9047L37.5109 39.908C37.7938 40.0258 38.0364 40.2223 38.2526 40.5091L38.2561 40.5135L38.2596 40.5181C38.4486 40.7625 38.5446 41.1403 38.5446 41.6414C38.5446 42.2197 38.3771 42.7091 38.0326 43.1379C37.7337 43.5098 37.3165 43.7673 36.7567 43.9249C36.3244 44.0467 35.9891 44.3772 35.8456 44.7897Z" fill="#212A09"/>
<path d="M36.335 46.5204H35.4072C35.1996 46.5204 35.0314 46.3479 35.0314 46.135V45.3613C35.0314 45.1578 34.8771 44.9905 34.6797 44.968C34.2099 44.9146 33.7555 44.815 33.3164 44.6693C32.8897 44.5256 32.5201 44.3552 32.2075 44.1577C32.0638 44.0669 32.0116 43.8827 32.071 43.7208L32.7074 41.9854C32.7932 41.7518 33.0697 41.6624 33.2826 41.7832C33.5701 41.946 33.8792 42.0854 34.2095 42.201C34.7019 42.3636 35.1744 42.4449 35.6269 42.4449C36.0159 42.4449 36.294 42.402 36.4607 42.3158C36.6274 42.2201 36.7108 42.0813 36.7108 41.8996C36.7108 41.6892 36.5996 41.5313 36.3772 41.4261C36.163 41.3209 35.8055 41.2061 35.3054 41.0818C34.6622 40.9191 34.1263 40.7469 33.6975 40.5651C33.2688 40.3738 32.8955 40.0676 32.5779 39.6467C32.2603 39.2162 32.1015 38.6373 32.1015 37.9103C32.1015 37.0684 32.3516 36.3461 32.8518 35.7433C33.3027 35.2088 33.9251 34.8473 34.7194 34.659C34.8983 34.6166 35.0314 34.4574 35.0314 34.2694V33.4167C35.0314 33.2037 35.1996 33.0312 35.4072 33.0312H36.335C36.5426 33.0312 36.7108 33.2037 36.7108 33.4167V34.2206C36.7108 34.4175 36.8557 34.5815 37.0453 34.6118C37.7412 34.7226 38.3526 34.9325 38.8795 35.2414C39.029 35.329 39.0884 35.5156 39.0309 35.6821L38.4353 37.4104C38.3565 37.6395 38.0934 37.7365 37.8819 37.627C37.2109 37.2801 36.5705 37.1067 35.9604 37.1067C35.2378 37.1067 34.8765 37.3171 34.8765 37.738C34.8765 37.939 34.9838 38.092 35.1981 38.1974C35.4126 38.293 35.7658 38.3982 36.2582 38.5131C36.8933 38.6566 37.4294 38.8239 37.8661 39.0152C38.3027 39.197 38.6798 39.4983 38.9976 39.9194C39.3231 40.3403 39.4859 40.9143 39.4859 41.6414C39.4859 42.4449 39.2437 43.1481 38.7592 43.7509C38.3374 44.2762 37.7533 44.6439 37.0074 44.8541C36.8359 44.9025 36.7108 45.0582 36.7108 45.2405V46.135C36.7108 46.3479 36.5426 46.5204 36.335 46.5204Z" fill="#212A09"/>
<path fill-rule="evenodd" clip-rule="evenodd" d="M31.735 21.4691H39.8704C41.9541 21.4691 40.8098 24.6757 39.9661 26.6316L39.0061 28.8747L38.8764 29.1772C39.7858 29.1319 40.6851 29.3902 41.4392 29.9133C44.2601 32.5607 46.5496 35.748 48.1787 39.296C48.8135 40.6079 49.0654 42.0802 48.9039 43.5355C48.71 47.2448 45.8085 50.2006 42.1907 50.3745H29.4146C25.7958 50.2058 22.89 47.2531 22.6921 43.5432C22.5306 42.0879 22.7824 40.6156 23.4173 39.3037C25.0483 35.7522 27.341 32.562 30.1661 29.9133C30.9203 29.3902 31.8195 29.1319 32.7288 29.1772L32.5785 28.8284L31.6392 26.6316C30.7993 24.6757 29.6494 21.4691 31.735 21.4691Z" stroke="#212A09" stroke-width="3" stroke-linecap="round" stroke-linejoin="round"/>
<path d="M38.8745 30.6225C39.6727 30.6225 40.3198 29.9754 40.3198 29.1772C40.3198 28.379 39.6727 27.7319 38.8745 27.7319V30.6225ZM32.7269 27.7319C31.9288 27.7319 31.2817 28.379 31.2817 29.1772C31.2817 29.9754 31.9288 30.6225 32.7269 30.6225V27.7319ZM44.0376 28.5025C44.7292 28.1041 44.967 27.2204 44.5685 26.5287C44.17 25.8371 43.2864 25.5994 42.5948 25.9978L44.0376 28.5025ZM39.0042 28.8746L39.283 30.2928L39.2873 30.2919L39.0042 28.8746ZM32.5766 28.8284L32.8759 27.4144L32.8628 27.4117L32.5766 28.8284ZM28.9845 25.9852C28.2858 25.5991 27.4065 25.8525 27.0204 26.5511C26.6343 27.2497 26.8877 28.129 27.5863 28.5151L28.9845 25.9852ZM38.8745 27.7319H32.7269V30.6225H38.8745V27.7319ZM42.5948 25.9978C41.3866 26.6938 40.0789 27.1862 38.7211 27.4574L39.2873 30.2919C40.9547 29.9589 42.5586 29.3545 44.0376 28.5025L42.5948 25.9978ZM38.7254 27.4565C36.7918 27.8368 34.8043 27.8224 32.8759 27.4144L32.2775 30.2423C34.5867 30.731 36.9673 30.7481 39.283 30.2928L38.7254 27.4565ZM32.8628 27.4117C31.5086 27.1383 30.2013 26.6577 28.9845 25.9852L27.5863 28.5151C29.0601 29.3296 30.6459 29.913 32.2906 30.2451L32.8628 27.4117Z" fill="#212A09"/>
</svg>
