<svg width="49" height="48" viewBox="0 0 49 48" fill="none" xmlns="http://www.w3.org/2000/svg">
<path fill-rule="evenodd" clip-rule="evenodd" d="M6.44376 16.2587L14.221 13.5138C12.6153 15.6757 11.2358 17.9974 10.1047 20.4427L6.44376 16.2587ZM1.03988 16.7094L8.24522 24.944L7.20155 27.5533C6.87742 28.3636 7.06739 29.2891 7.68454 29.9063L8.3688 30.5906C4.65297 34.7805 2.60049 39.1627 0.612027 45.1282C0.350687 45.9121 0.554733 46.7766 1.13909 47.3609C1.72347 47.9451 2.58781 48.1494 3.37183 47.888C9.33722 45.8995 13.7194 43.847 17.9094 40.1312L18.5936 40.8154C19.2108 41.4326 20.1363 41.6225 20.9467 41.2985L23.556 40.2547L31.7906 47.4601C32.3351 47.9366 33.0805 48.1121 33.7804 47.9286C34.4805 47.7451 35.0439 47.2267 35.2847 46.5442L41.7999 28.0847C46.095 23.0024 48.5 16.5268 48.5 9.77623V2.18181C48.5 0.976842 47.5232 0 46.3182 0H38.7237C31.9732 0 25.4976 2.4049 20.4152 6.70013L1.95572 13.2153C1.27338 13.4561 0.754806 14.0196 0.571359 14.7195C0.387888 15.4195 0.563395 16.1649 1.03988 16.7094ZM6.35882 42.1411C7.72791 38.8345 9.26441 36.2026 11.4605 33.6824L14.8176 37.0393C12.2974 39.2356 9.66549 40.772 6.35882 42.1411ZM20.6618 36.7125L19.4974 35.5481L12.9519 29.0026L11.7874 27.8382L13.3363 23.9659C14.7575 20.4131 16.7532 17.1178 19.2436 14.2124L20.5016 12.7446C25.0612 7.42513 31.7175 4.36363 38.7237 4.36363H44.1364V9.77623C44.1364 16.7824 41.0748 23.4388 35.7554 27.9983L34.2877 29.2564C31.3821 31.7467 28.0869 33.7424 24.5341 35.1636L20.6618 36.7125ZM32.2413 42.0562L28.0573 38.3953C30.5026 37.2643 32.8243 35.8847 34.9863 34.2789L32.2413 42.0562ZM31.0455 15.2727C31.0455 14.0677 32.0223 13.0909 33.2273 13.0909C34.4323 13.0909 35.4091 14.0677 35.4091 15.2727C35.4091 16.4777 34.4323 17.4545 33.2273 17.4545C32.0223 17.4545 31.0455 16.4777 31.0455 15.2727ZM33.2273 8.72726C29.6122 8.72726 26.6818 11.6578 26.6818 15.2727C26.6818 18.8876 29.6122 21.8181 33.2273 21.8181C36.8423 21.8181 39.7727 18.8876 39.7727 15.2727C39.7727 11.6578 36.8423 8.72726 33.2273 8.72726Z" fill="#CAFC40"/>
</svg>
