<svg width="71" height="72" viewBox="0 0 71 72" fill="none" xmlns="http://www.w3.org/2000/svg">
<circle cx="35.3832" cy="36.0449" r="35.3832" fill="#B0D93B"/>
<path d="M35.8463 44.7404C35.6555 44.3213 35.2605 44.0155 34.7824 43.9611C34.3775 43.9149 33.9811 43.8282 33.6042 43.7031C33.4352 43.6463 33.2766 43.5842 33.1298 43.5177L33.3737 42.8527C33.546 42.9296 33.7235 42.9999 33.9052 43.0635L33.9127 43.0662L33.9204 43.0687C34.5036 43.2614 35.0774 43.3591 35.6257 43.3591C36.1762 43.3591 36.5753 43.2853 36.8819 43.1271L36.9002 43.1177L36.9181 43.1073C37.3825 42.8408 37.649 42.3827 37.649 41.8503C37.649 41.2595 37.3303 40.769 36.7744 40.5041C36.4948 40.368 36.0976 40.2381 35.5255 40.0959C34.9387 39.9475 34.4457 39.7901 34.0634 39.6288C33.784 39.5024 33.5416 39.3006 33.3231 39.0122C33.135 38.7547 33.0398 38.3676 33.0398 37.861C33.0398 37.2497 33.2119 36.7452 33.5661 36.3186C33.8813 35.9447 34.329 35.6907 34.9298 35.5483C35.3755 35.4427 35.7232 35.1246 35.8795 34.7137C36.0562 35.1302 36.4321 35.4398 36.9 35.5144C37.2908 35.5767 37.6496 35.6759 37.9722 35.8102L37.7477 36.4619C37.1386 36.2174 36.5391 36.0939 35.9592 36.0939C34.0336 36.0939 33.9361 37.4224 33.9361 37.6887C33.9361 38.266 34.2478 38.7501 34.7915 39.017L34.8067 39.0245L34.8221 39.0314C35.0967 39.154 35.4863 39.2721 36.0486 39.4032C36.63 39.5346 37.1149 39.6851 37.4958 39.852L37.5037 39.8554L37.5116 39.8587C37.7945 39.9764 38.0371 40.173 38.2534 40.4597L38.2568 40.4642L38.2603 40.4688C38.4493 40.7131 38.5453 41.091 38.5453 41.5921C38.5453 42.1704 38.3778 42.6598 38.0333 43.0886C37.7344 43.4605 37.3172 43.7179 36.7574 43.8756C36.3252 43.9974 35.9899 44.3279 35.8463 44.7404Z" fill="#191B1D"/>
<path d="M36.3338 46.4711H35.406C35.1984 46.4711 35.0302 46.2986 35.0302 46.0857V45.312C35.0302 45.1085 34.8758 44.9412 34.6785 44.9187C34.2087 44.8653 33.7543 44.7657 33.3151 44.62C32.8885 44.4762 32.5189 44.3059 32.2063 44.1084C32.0626 44.0176 32.0104 43.8334 32.0697 43.6715L32.7062 41.936C32.792 41.7025 33.0685 41.6131 33.2814 41.7339C33.5689 41.8967 33.878 42.036 34.2083 42.1517C34.7007 42.3143 35.1732 42.3956 35.6256 42.3956C36.0147 42.3956 36.2928 42.3527 36.4595 42.2665C36.6261 42.1707 36.7096 42.032 36.7096 41.8503C36.7096 41.6399 36.5984 41.482 36.376 41.3768C36.1617 41.2716 35.8043 41.1567 35.3042 41.0325C34.661 40.8698 34.1251 40.6975 33.6963 40.5158C33.2675 40.3245 32.8943 40.0183 32.5767 39.5974C32.2591 39.1669 32.1003 38.588 32.1003 37.861C32.1003 37.019 32.3504 36.2968 32.8505 35.694C33.3015 35.1595 33.9239 34.798 34.7182 34.6097C34.897 34.5673 35.0302 34.4081 35.0302 34.22V33.3673C35.0302 33.1544 35.1984 32.9819 35.406 32.9819H36.3338C36.5414 32.9819 36.7096 33.1544 36.7096 33.3673V34.1713C36.7096 34.3682 36.8545 34.5322 37.0441 34.5625C37.74 34.6733 38.3514 34.8831 38.8783 35.192C39.0278 35.2797 39.0871 35.4663 39.0297 35.6327L38.4341 37.3611C38.3553 37.5902 38.0922 37.6871 37.8806 37.5777C37.2097 37.2308 36.5693 37.0574 35.9592 37.0574C35.2366 37.0574 34.8753 37.2678 34.8753 37.6887C34.8753 37.8897 34.9826 38.0427 35.1969 38.1481C35.4114 38.2437 35.7646 38.3489 36.2569 38.4637C36.8921 38.6073 37.4282 38.7746 37.8648 38.9659C38.3015 39.1476 38.6786 39.449 38.9964 39.8701C39.3219 40.2909 39.4847 40.865 39.4847 41.5921C39.4847 42.3956 39.2425 43.0988 38.758 43.7016C38.3362 44.2269 37.7521 44.5946 37.0062 44.8048C36.8347 44.8532 36.7096 45.0089 36.7096 45.1912V46.0857C36.7096 46.2986 36.5414 46.4711 36.3338 46.4711Z" fill="#191B1D"/>
<path fill-rule="evenodd" clip-rule="evenodd" d="M31.7357 21.4198H39.8711C41.9548 21.4198 40.8105 24.6264 39.9669 26.5823L39.0068 28.8253L38.8771 29.1279C39.7865 29.0826 40.6859 29.3409 41.4399 29.864C44.2609 32.5114 46.5504 35.6987 48.1795 39.2467C48.8142 40.5586 49.0661 42.0308 48.9046 43.4861C48.7107 47.1955 45.8092 50.1513 42.1914 50.3251H29.4153C25.7966 50.1565 22.8908 47.2037 22.6928 43.4938C22.5313 42.0386 22.7832 40.5663 23.4181 39.2544C25.0491 35.7029 27.3417 32.5127 30.1669 29.864C30.9211 29.3409 31.8202 29.0826 32.7296 29.1279L32.5793 28.7791L31.6399 26.5823C30.8 24.6264 29.6502 21.4198 31.7357 21.4198Z" stroke="#191B1D" stroke-width="3" stroke-linecap="round" stroke-linejoin="round"/>
<path d="M38.877 30.5731C39.6751 30.5731 40.3222 29.9261 40.3222 29.1279C40.3222 28.3297 39.6751 27.6826 38.877 27.6826V30.5731ZM32.7294 27.6826C31.9312 27.6826 31.2841 28.3297 31.2841 29.1279C31.2841 29.9261 31.9312 30.5731 32.7294 30.5731V27.6826ZM44.04 28.4532C44.7316 28.0547 44.9694 27.1711 44.5709 26.4794C44.1724 25.7878 43.2889 25.5501 42.5973 25.9485L44.04 28.4532ZM39.0066 28.8253L39.2855 30.2434L39.2897 30.2426L39.0066 28.8253ZM32.5791 28.7791L32.8783 27.365L32.8652 27.3624L32.5791 28.7791ZM28.9869 25.9359C28.2883 25.5498 27.409 25.8032 27.0229 26.5018C26.6368 27.2004 26.8901 28.0797 27.5887 28.4658L28.9869 25.9359ZM38.877 27.6826H32.7294V30.5731H38.877V27.6826ZM42.5973 25.9485C41.389 26.6445 40.0813 27.1369 38.7236 27.408L39.2897 30.2426C40.9572 29.9096 42.561 29.3052 44.04 28.4532L42.5973 25.9485ZM38.7278 27.4072C36.7942 27.7875 34.8067 27.7731 32.8783 27.365L32.2799 30.193C34.5891 30.6816 36.9698 30.6988 39.2855 30.2434L38.7278 27.4072ZM32.8652 27.3624C31.511 27.089 30.2037 26.6084 28.9869 25.9359L27.5887 28.4658C29.0626 29.2803 30.6483 29.8637 32.2931 30.1958L32.8652 27.3624Z" fill="#191B1D"/>
</svg>
