<svg width="44" height="44" viewBox="0 0 44 44" fill="none" xmlns="http://www.w3.org/2000/svg">
<circle cx="22" cy="21.9512" r="21.9512" fill="#B0D93B"/>
<path fill-rule="evenodd" clip-rule="evenodd" d="M33.0034 15.1971C33.3601 13.7814 31.6522 12.6049 29.9966 13.1257L9.70135 19.5103C7.8524 20.0919 7.77001 22.1971 9.56973 22.8734L13.9895 24.5343L16.092 30.526C16.2012 30.8372 16.5045 31.0782 16.8893 31.1594C17.2741 31.2405 17.683 31.1499 17.9641 30.921L21.2028 28.2839L25.7396 31.0544C27.0566 31.8586 28.9534 31.2729 29.2841 29.9599L33.0034 15.1971ZM10.5101 21.2145L30.8053 14.83L27.086 29.5928L21.7707 26.3469C21.3241 26.0742 20.6991 26.1103 20.3042 26.4318L18.9171 27.5613L19.3339 25.6949L27.5007 19.0453C27.8982 18.7217 27.9401 18.2086 27.5989 17.8449C27.2578 17.4812 26.6388 17.3792 26.1507 17.6062L14.8721 22.8537L10.5101 21.2145ZM16.2473 24.3182L16.9277 26.257L17.1889 25.0873C17.2297 24.9045 17.338 24.7361 17.4994 24.6048L19.99 22.577L16.2473 24.3182Z" fill="#0F0F0F"/>
</svg>
