<svg width="71" height="71" viewBox="0 0 71 71" fill="none" xmlns="http://www.w3.org/2000/svg">
<circle cx="35.3832" cy="35.3832" r="35.3832" fill="#B0D93B"/>
<path d="M19.8147 50.9518H50.008M19.8147 45.9195H50.008M24.5506 20.7587C25.2466 21.3734 25.6856 22.2726 25.6856 23.2743C25.6856 25.1271 24.1836 26.6291 22.3308 26.6291C21.3291 26.6291 20.43 26.1901 19.8153 25.494M24.5506 20.7587C24.7487 20.7581 24.9589 20.7581 25.1824 20.7581H44.6403C44.8638 20.7581 45.0741 20.7581 45.2722 20.7587M24.5506 20.7587C23.0832 20.7633 22.2787 20.8016 21.6465 21.1238C21.0152 21.4454 20.502 21.9586 20.1804 22.5899C19.8582 23.2222 19.8199 24.0266 19.8153 25.494M19.8153 25.494C19.8147 25.6922 19.8147 25.9024 19.8147 26.1259V35.5195C19.8147 35.7429 19.8147 35.9532 19.8153 36.1513M45.2722 20.7587C44.5761 21.3734 44.1371 22.2726 44.1371 23.2743C44.1371 25.1271 45.6391 26.6291 47.4919 26.6291C48.4935 26.6291 49.3928 26.1901 50.0074 25.494M45.2722 20.7587C46.7396 20.7633 47.5441 20.8016 48.1763 21.1238C48.8075 21.4454 49.3208 21.9586 49.6424 22.5899C49.9646 23.2222 50.0028 24.0266 50.0074 25.494M19.8153 36.1513C20.43 35.4552 21.3291 35.0162 22.3308 35.0162C24.1836 35.0162 25.6856 36.5182 25.6856 38.3711C25.6856 39.3727 25.2466 40.2719 24.5506 40.8865M19.8153 36.1513C19.8199 37.6187 19.8582 38.4231 20.1804 39.0555C20.502 39.6867 21.0152 40.2 21.6465 40.5215C22.2787 40.8438 23.0832 40.882 24.5506 40.8865M24.5506 40.8865C24.7487 40.8872 24.9589 40.8872 25.1824 40.8872H44.6403C44.8638 40.8872 45.0741 40.8872 45.2722 40.8865M45.2722 40.8865C44.5761 40.2719 44.1371 39.3727 44.1371 38.3711C44.1371 36.5182 45.6391 35.0162 47.4919 35.0162C48.4938 35.0162 49.3933 35.4555 50.008 36.152M45.2722 40.8865C46.7396 40.882 47.5441 40.8438 48.1763 40.5215C48.8075 40.2 49.3208 39.6867 49.6424 39.0555C49.9644 38.4232 50.0035 37.6189 50.008 36.152M50.008 36.152C50.0087 35.9537 50.008 35.7432 50.008 35.5195V26.1259C50.008 25.9024 50.008 25.6922 50.0074 25.494M38.2662 30.8227C38.2662 32.6755 36.7642 34.1775 34.9114 34.1775C33.0585 34.1775 31.5566 32.6755 31.5566 30.8227C31.5566 28.9698 33.0585 27.4678 34.9114 27.4678C36.7642 27.4678 38.2662 28.9698 38.2662 30.8227Z" stroke="#191B1D" stroke-width="3" stroke-linecap="round" stroke-linejoin="round"/>
</svg>
