<svg width="600" height="80" viewBox="0 0 600 80" fill="none" xmlns="http://www.w3.org/2000/svg">
<path d="M244.142 51.2983C243.02 51.2912 241.937 51.103 240.893 50.7337C239.856 50.3643 238.925 49.7642 238.102 48.9332C237.278 48.1023 236.624 47.0014 236.141 45.6307C235.665 44.2599 235.428 42.5767 235.428 40.581C235.435 38.7486 235.644 37.1115 236.056 35.6697C236.475 34.2209 237.072 32.9922 237.846 31.9837C238.627 30.9751 239.561 30.2081 240.648 29.6825C241.734 29.1499 242.952 28.8835 244.302 28.8835C245.758 28.8835 247.043 29.1676 248.158 29.7358C249.273 30.2969 250.168 31.0604 250.843 32.0263C251.525 32.9922 251.937 34.0753 252.079 35.2756H247.53C247.352 34.5156 246.979 33.919 246.411 33.4858C245.843 33.0526 245.14 32.8359 244.302 32.8359C242.881 32.8359 241.802 33.4538 241.063 34.6896C240.332 35.9254 239.959 37.6051 239.945 39.7287H240.094C240.42 39.0824 240.861 38.532 241.415 38.0774C241.976 37.6158 242.612 37.2642 243.322 37.0227C244.039 36.7741 244.795 36.6499 245.591 36.6499C246.884 36.6499 248.034 36.9553 249.043 37.5661C250.051 38.1697 250.847 39.0007 251.429 40.0589C252.011 41.1172 252.303 42.3281 252.303 43.6918C252.303 45.169 251.958 46.483 251.269 47.6335C250.587 48.7841 249.632 49.6861 248.403 50.3395C247.182 50.9858 245.761 51.3054 244.142 51.2983ZM244.121 47.6761C244.831 47.6761 245.467 47.5057 246.028 47.1648C246.589 46.8239 247.029 46.3622 247.349 45.7798C247.668 45.1974 247.828 44.544 247.828 43.8196C247.828 43.0952 247.668 42.4453 247.349 41.87C247.036 41.2947 246.603 40.8366 246.049 40.4957C245.495 40.1548 244.863 39.9844 244.153 39.9844C243.62 39.9844 243.126 40.0838 242.672 40.2827C242.224 40.4815 241.83 40.7585 241.489 41.1136C241.156 41.4687 240.893 41.8807 240.701 42.3494C240.509 42.8111 240.413 43.3047 240.413 43.8303C240.413 44.5334 240.573 45.1761 240.893 45.7585C241.219 46.3409 241.66 46.8061 242.214 47.1541C242.775 47.5021 243.411 47.6761 244.121 47.6761ZM264.128 51.4794C262.295 51.4723 260.719 51.0213 259.398 50.1264C258.084 49.2315 257.072 47.9354 256.362 46.2379C255.658 44.5405 255.31 42.4986 255.317 40.1122C255.317 37.733 255.669 35.7053 256.372 34.0291C257.082 32.353 258.094 31.0781 259.408 30.2045C260.729 29.3239 262.303 28.8835 264.128 28.8835C265.953 28.8835 267.523 29.3239 268.837 30.2045C270.158 31.0852 271.173 32.3636 271.884 34.0398C272.594 35.7088 272.945 37.733 272.938 40.1122C272.938 42.5057 272.583 44.5511 271.873 46.2486C271.17 47.946 270.161 49.2422 268.847 50.1371C267.533 51.032 265.96 51.4794 264.128 51.4794ZM264.128 47.6548C265.378 47.6548 266.376 47.0263 267.121 45.7692C267.867 44.5121 268.237 42.6264 268.229 40.1122C268.229 38.4574 268.059 37.0795 267.718 35.9787C267.384 34.8778 266.908 34.0504 266.29 33.4964C265.68 32.9425 264.959 32.6655 264.128 32.6655C262.885 32.6655 261.891 33.2869 261.145 34.5298C260.399 35.7727 260.023 37.6335 260.016 40.1122C260.016 41.7884 260.183 43.1875 260.516 44.3097C260.857 45.4247 261.337 46.2628 261.955 46.8239C262.572 47.3778 263.297 47.6548 264.128 47.6548ZM284.782 51.4794C282.95 51.4723 281.373 51.0213 280.052 50.1264C278.738 49.2315 277.726 47.9354 277.016 46.2379C276.313 44.5405 275.965 42.4986 275.972 40.1122C275.972 37.733 276.323 35.7053 277.026 34.0291C277.737 32.353 278.749 31.0781 280.063 30.2045C281.384 29.3239 282.957 28.8835 284.782 28.8835C286.607 28.8835 288.177 29.3239 289.491 30.2045C290.812 31.0852 291.828 32.3636 292.538 34.0398C293.248 35.7088 293.6 37.733 293.593 40.1122C293.593 42.5057 293.237 44.5511 292.527 46.2486C291.824 47.946 290.816 49.2422 289.502 50.1371C288.188 51.032 286.615 51.4794 284.782 51.4794ZM284.782 47.6548C286.032 47.6548 287.03 47.0263 287.776 45.7692C288.521 44.5121 288.891 42.6264 288.884 40.1122C288.884 38.4574 288.713 37.0795 288.372 35.9787C288.039 34.8778 287.563 34.0504 286.945 33.4964C286.334 32.9425 285.613 32.6655 284.782 32.6655C283.539 32.6655 282.545 33.2869 281.799 34.5298C281.053 35.7727 280.677 37.6335 280.67 40.1122C280.67 41.7884 280.837 43.1875 281.171 44.3097C281.512 45.4247 281.991 46.2628 282.609 46.8239C283.227 47.3778 283.951 47.6548 284.782 47.6548ZM317.216 47.9744L304.486 35.2649L307.277 32.4418L320.018 45.1832L317.216 47.9744ZM307.277 47.9744L304.486 45.1832L317.216 32.4418L320.018 35.2649L307.277 47.9744ZM339.298 51.2983C337.658 51.2983 336.198 51.032 334.92 50.4993C333.648 49.9595 332.651 49.2244 331.926 48.294C331.202 47.3636 330.839 46.3089 330.839 45.13C330.839 44.2209 331.045 43.3864 331.457 42.6264C331.876 41.8594 332.445 41.2237 333.162 40.7195C333.879 40.2081 334.682 39.8814 335.57 39.7393V39.5902C334.405 39.3558 333.46 38.7912 332.736 37.8963C332.011 36.9943 331.649 35.9467 331.649 34.7536C331.649 33.6243 331.979 32.6193 332.64 31.7386C333.3 30.8509 334.206 30.1548 335.357 29.6506C336.514 29.1392 337.828 28.8835 339.298 28.8835C340.768 28.8835 342.079 29.1392 343.229 29.6506C344.387 30.1619 345.296 30.8615 345.957 31.7493C346.617 32.63 346.951 33.6314 346.958 34.7536C346.951 35.9538 346.582 37.0014 345.85 37.8963C345.119 38.7912 344.181 39.3558 343.038 39.5902V39.7393C343.911 39.8814 344.703 40.2081 345.413 40.7195C346.131 41.2237 346.699 41.8594 347.118 42.6264C347.544 43.3864 347.761 44.2209 347.768 45.13C347.761 46.3089 347.395 47.3636 346.67 48.294C345.946 49.2244 344.945 49.9595 343.666 50.4993C342.395 51.032 340.939 51.2983 339.298 51.2983ZM339.298 47.9105C340.03 47.9105 340.669 47.7791 341.216 47.5163C341.763 47.2464 342.189 46.8771 342.494 46.4084C342.807 45.9325 342.963 45.3857 342.963 44.7678C342.963 44.1357 342.803 43.5781 342.484 43.0952C342.164 42.6051 341.731 42.2216 341.184 41.9446C340.637 41.6605 340.009 41.5185 339.298 41.5185C338.595 41.5185 337.967 41.6605 337.413 41.9446C336.859 42.2216 336.422 42.6051 336.102 43.0952C335.79 43.5781 335.634 44.1357 335.634 44.7678C335.634 45.3857 335.786 45.9325 336.092 46.4084C336.397 46.8771 336.827 47.2464 337.381 47.5163C337.935 47.7791 338.574 47.9105 339.298 47.9105ZM339.298 38.1626C339.909 38.1626 340.452 38.0384 340.928 37.7898C341.404 37.5412 341.777 37.1967 342.047 36.7564C342.317 36.3161 342.452 35.8082 342.452 35.233C342.452 34.6648 342.317 34.1676 342.047 33.7415C341.777 33.3082 341.408 32.9709 340.939 32.7294C340.47 32.4808 339.923 32.3565 339.298 32.3565C338.68 32.3565 338.134 32.4808 337.658 32.7294C337.182 32.9709 336.809 33.3082 336.539 33.7415C336.276 34.1676 336.145 34.6648 336.145 35.233C336.145 35.8082 336.28 36.3161 336.55 36.7564C336.82 37.1967 337.192 37.5412 337.668 37.7898C338.144 38.0384 338.688 38.1626 339.298 38.1626ZM359.548 51.4794C357.715 51.4723 356.139 51.0213 354.818 50.1264C353.504 49.2315 352.492 47.9354 351.781 46.2379C351.078 44.5405 350.73 42.4986 350.737 40.1122C350.737 37.733 351.089 35.7053 351.792 34.0291C352.502 32.353 353.514 31.0781 354.828 30.2045C356.149 29.3239 357.722 28.8835 359.548 28.8835C361.373 28.8835 362.943 29.3239 364.257 30.2045C365.578 31.0852 366.593 32.3636 367.303 34.0398C368.014 35.7088 368.365 37.733 368.358 40.1122C368.358 42.5057 368.003 44.5511 367.293 46.2486C366.59 47.946 365.581 49.2422 364.267 50.1371C362.953 51.032 361.38 51.4794 359.548 51.4794ZM359.548 47.6548C360.798 47.6548 361.796 47.0263 362.541 45.7692C363.287 44.5121 363.656 42.6264 363.649 40.1122C363.649 38.4574 363.479 37.0795 363.138 35.9787C362.804 34.8778 362.328 34.0504 361.71 33.4964C361.1 32.9425 360.379 32.6655 359.548 32.6655C358.305 32.6655 357.311 33.2869 356.565 34.5298C355.819 35.7727 355.443 37.6335 355.436 40.1122C355.436 41.7884 355.602 43.1875 355.936 44.3097C356.277 45.4247 356.757 46.2628 357.374 46.8239C357.992 47.3778 358.717 47.6548 359.548 47.6548Z" fill="black" fill-opacity="0.8"/>
</svg>
