<svg width="600" height="200" viewBox="0 0 600 200" fill="none" xmlns="http://www.w3.org/2000/svg">
<path d="M232.142 111.298C231.02 111.291 229.937 111.103 228.893 110.734C227.856 110.364 226.925 109.764 226.102 108.933C225.278 108.102 224.624 107.001 224.141 105.631C223.665 104.26 223.428 102.577 223.428 100.581C223.435 98.7486 223.644 97.1115 224.056 95.6697C224.475 94.2209 225.072 92.9922 225.846 91.9837C226.627 90.9751 227.561 90.2081 228.648 89.6825C229.734 89.1499 230.952 88.8835 232.302 88.8835C233.758 88.8835 235.043 89.1676 236.158 89.7358C237.273 90.2969 238.168 91.0604 238.843 92.0263C239.525 92.9922 239.937 94.0753 240.079 95.2756H235.53C235.352 94.5156 234.979 93.919 234.411 93.4858C233.843 93.0526 233.14 92.8359 232.302 92.8359C230.881 92.8359 229.802 93.4538 229.063 94.6896C228.332 95.9254 227.959 97.6051 227.945 99.7287H228.094C228.42 99.0824 228.861 98.532 229.415 98.0774C229.976 97.6158 230.612 97.2642 231.322 97.0227C232.039 96.7741 232.795 96.6499 233.591 96.6499C234.884 96.6499 236.034 96.9553 237.043 97.5661C238.051 98.1697 238.847 99.0007 239.429 100.059C240.011 101.117 240.303 102.328 240.303 103.692C240.303 105.169 239.958 106.483 239.269 107.634C238.587 108.784 237.632 109.686 236.403 110.339C235.182 110.986 233.761 111.305 232.142 111.298ZM232.121 107.676C232.831 107.676 233.467 107.506 234.028 107.165C234.589 106.824 235.029 106.362 235.349 105.78C235.668 105.197 235.828 104.544 235.828 103.82C235.828 103.095 235.668 102.445 235.349 101.87C235.036 101.295 234.603 100.837 234.049 100.496C233.495 100.155 232.863 99.9844 232.153 99.9844C231.62 99.9844 231.126 100.084 230.672 100.283C230.224 100.482 229.83 100.759 229.489 101.114C229.156 101.469 228.893 101.881 228.701 102.349C228.509 102.811 228.413 103.305 228.413 103.83C228.413 104.533 228.573 105.176 228.893 105.759C229.219 106.341 229.66 106.806 230.214 107.154C230.775 107.502 231.411 107.676 232.121 107.676ZM252.128 111.479C250.295 111.472 248.719 111.021 247.398 110.126C246.084 109.232 245.072 107.935 244.362 106.238C243.658 104.54 243.31 102.499 243.317 100.112C243.317 97.733 243.669 95.7053 244.372 94.0291C245.082 92.353 246.094 91.0781 247.408 90.2045C248.729 89.3239 250.303 88.8835 252.128 88.8835C253.953 88.8835 255.523 89.3239 256.837 90.2045C258.158 91.0852 259.173 92.3636 259.884 94.0398C260.594 95.7088 260.945 97.733 260.938 100.112C260.938 102.506 260.583 104.551 259.873 106.249C259.17 107.946 258.161 109.242 256.847 110.137C255.533 111.032 253.96 111.479 252.128 111.479ZM252.128 107.655C253.378 107.655 254.376 107.026 255.121 105.769C255.867 104.512 256.237 102.626 256.229 100.112C256.229 98.4574 256.059 97.0795 255.718 95.9787C255.384 94.8778 254.908 94.0504 254.29 93.4964C253.68 92.9425 252.959 92.6655 252.128 92.6655C250.885 92.6655 249.891 93.2869 249.145 94.5298C248.399 95.7727 248.023 97.6335 248.016 100.112C248.016 101.788 248.183 103.188 248.516 104.31C248.857 105.425 249.337 106.263 249.955 106.824C250.572 107.378 251.297 107.655 252.128 107.655ZM272.782 111.479C270.95 111.472 269.373 111.021 268.052 110.126C266.738 109.232 265.726 107.935 265.016 106.238C264.313 104.54 263.965 102.499 263.972 100.112C263.972 97.733 264.323 95.7053 265.026 94.0291C265.737 92.353 266.749 91.0781 268.063 90.2045C269.384 89.3239 270.957 88.8835 272.782 88.8835C274.607 88.8835 276.177 89.3239 277.491 90.2045C278.812 91.0852 279.828 92.3636 280.538 94.0398C281.248 95.7088 281.6 97.733 281.593 100.112C281.593 102.506 281.237 104.551 280.527 106.249C279.824 107.946 278.816 109.242 277.502 110.137C276.188 111.032 274.615 111.479 272.782 111.479ZM272.782 107.655C274.032 107.655 275.03 107.026 275.776 105.769C276.521 104.512 276.891 102.626 276.884 100.112C276.884 98.4574 276.713 97.0795 276.372 95.9787C276.039 94.8778 275.563 94.0504 274.945 93.4964C274.334 92.9425 273.613 92.6655 272.782 92.6655C271.539 92.6655 270.545 93.2869 269.799 94.5298C269.053 95.7727 268.677 97.6335 268.67 100.112C268.67 101.788 268.837 103.188 269.171 104.31C269.512 105.425 269.991 106.263 270.609 106.824C271.227 107.378 271.951 107.655 272.782 107.655ZM305.216 107.974L292.486 95.2649L295.277 92.4418L308.018 105.183L305.216 107.974ZM295.277 107.974L292.486 105.183L305.216 92.4418L308.018 95.2649L295.277 107.974ZM319.159 111V107.676L326.925 100.485C327.586 99.8459 328.14 99.2706 328.587 98.7592C329.042 98.2479 329.386 97.7472 329.621 97.2571C329.855 96.7599 329.972 96.2237 329.972 95.6484C329.972 95.0092 329.827 94.4588 329.536 93.9972C329.244 93.5284 328.847 93.1697 328.342 92.9212C327.838 92.6655 327.266 92.5376 326.627 92.5376C325.96 92.5376 325.377 92.6726 324.88 92.9425C324.383 93.2124 323.999 93.5994 323.729 94.1037C323.46 94.608 323.325 95.2081 323.325 95.9041H318.946C318.946 94.4766 319.269 93.2372 319.915 92.1861C320.562 91.1349 321.467 90.3217 322.632 89.7464C323.797 89.1712 325.139 88.8835 326.659 88.8835C328.222 88.8835 329.582 89.1605 330.739 89.7145C331.904 90.2614 332.81 91.0213 333.456 91.9943C334.102 92.9673 334.425 94.0824 334.425 95.3395C334.425 96.1634 334.262 96.9766 333.935 97.7791C333.616 98.5817 333.044 99.473 332.22 100.453C331.396 101.426 330.235 102.594 328.737 103.958L325.551 107.08V107.229H334.713V111H319.159ZM346.61 111.479C344.778 111.472 343.201 111.021 341.88 110.126C340.566 109.232 339.554 107.935 338.844 106.238C338.141 104.54 337.793 102.499 337.8 100.112C337.8 97.733 338.151 95.7053 338.855 94.0291C339.565 92.353 340.577 91.0781 341.891 90.2045C343.212 89.3239 344.785 88.8835 346.61 88.8835C348.436 88.8835 350.005 89.3239 351.319 90.2045C352.64 91.0852 353.656 92.3636 354.366 94.0398C355.076 95.7088 355.428 97.733 355.421 100.112C355.421 102.506 355.066 104.551 354.355 106.249C353.652 107.946 352.644 109.242 351.33 110.137C350.016 111.032 348.443 111.479 346.61 111.479ZM346.61 107.655C347.86 107.655 348.858 107.026 349.604 105.769C350.35 104.512 350.719 102.626 350.712 100.112C350.712 98.4574 350.541 97.0795 350.2 95.9787C349.867 94.8778 349.391 94.0504 348.773 93.4964C348.162 92.9425 347.441 92.6655 346.61 92.6655C345.367 92.6655 344.373 93.2869 343.627 94.5298C342.882 95.7727 342.505 97.6335 342.498 100.112C342.498 101.788 342.665 103.188 342.999 104.31C343.34 105.425 343.819 106.263 344.437 106.824C345.055 107.378 345.779 107.655 346.61 107.655ZM367.265 111.479C365.432 111.472 363.855 111.021 362.534 110.126C361.221 109.232 360.208 107.935 359.498 106.238C358.795 104.54 358.447 102.499 358.454 100.112C358.454 97.733 358.806 95.7053 359.509 94.0291C360.219 92.353 361.231 91.0781 362.545 90.2045C363.866 89.3239 365.439 88.8835 367.265 88.8835C369.09 88.8835 370.659 89.3239 371.973 90.2045C373.294 91.0852 374.31 92.3636 375.02 94.0398C375.73 95.7088 376.082 97.733 376.075 100.112C376.075 102.506 375.72 104.551 375.01 106.249C374.306 107.946 373.298 109.242 371.984 110.137C370.67 111.032 369.097 111.479 367.265 111.479ZM367.265 107.655C368.515 107.655 369.512 107.026 370.258 105.769C371.004 104.512 371.373 102.626 371.366 100.112C371.366 98.4574 371.196 97.0795 370.855 95.9787C370.521 94.8778 370.045 94.0504 369.427 93.4964C368.816 92.9425 368.096 92.6655 367.265 92.6655C366.022 92.6655 365.027 93.2869 364.282 94.5298C363.536 95.7727 363.159 97.6335 363.152 100.112C363.152 101.788 363.319 103.188 363.653 104.31C363.994 105.425 364.473 106.263 365.091 106.824C365.709 107.378 366.434 107.655 367.265 107.655Z" fill="black" fill-opacity="0.8"/>
</svg>
