<svg width="24" height="24" viewBox="0 0 24 24" fill="none" xmlns="http://www.w3.org/2000/svg">
<g id="_placeholderIcon">
<path id="Vector" fill-rule="evenodd" clip-rule="evenodd" d="M3 0C3.39782 0 3.77935 0.158035 4.06066 0.43934C4.34196 0.720644 4.5 1.10218 4.5 1.5V4.6515C5.74806 3.37841 7.29964 2.44396 9.00861 1.93617C10.7176 1.42839 12.5277 1.36398 14.2684 1.74901C16.0092 2.13404 17.6232 2.95584 18.9586 4.137C20.294 5.31816 21.3068 6.81981 21.9015 8.5005C21.9736 8.68763 22.0075 8.88734 22.0012 9.0878C21.9948 9.28827 21.9483 9.48541 21.8644 9.66759C21.7805 9.84976 21.6609 10.0133 21.5127 10.1484C21.3645 10.2836 21.1907 10.3876 21.0016 10.4544C20.8125 10.5213 20.6119 10.5495 20.4117 10.5374C20.2115 10.5253 20.0158 10.4733 19.8361 10.3842C19.6563 10.2952 19.4963 10.171 19.3654 10.0191C19.2345 9.8671 19.1354 9.69043 19.074 9.4995C18.6212 8.21972 17.8297 7.08677 16.7838 6.22136C15.7379 5.35596 14.4768 4.79053 13.1348 4.58532C11.7929 4.38012 10.4205 4.54283 9.16374 5.05611C7.907 5.5694 6.81306 6.41403 5.9985 7.5H10.5C10.8978 7.5 11.2794 7.65803 11.5607 7.93934C11.842 8.22064 12 8.60217 12 9C12 9.39782 11.842 9.77935 11.5607 10.0607C11.2794 10.342 10.8978 10.5 10.5 10.5H3C2.60217 10.5 2.22064 10.342 1.93934 10.0607C1.65804 9.77935 1.5 9.39782 1.5 9V1.5C1.5 1.10218 1.65804 0.720644 1.93934 0.43934C2.22064 0.158035 2.60217 0 3 0ZM3.012 13.5855C3.19775 13.5199 3.39461 13.4915 3.59133 13.502C3.78805 13.5125 3.98079 13.5616 4.15852 13.6466C4.33626 13.7315 4.49551 13.8507 4.6272 13.9972C4.75888 14.1437 4.86042 14.3147 4.926 14.5005C5.37879 15.7803 6.17032 16.9132 7.21623 17.7786C8.26214 18.644 9.52324 19.2095 10.8652 19.4147C12.2071 19.6199 13.5795 19.4572 14.8363 18.9439C16.093 18.4306 17.1869 17.586 18.0015 16.5H13.5C13.1022 16.5 12.7206 16.342 12.4393 16.0607C12.158 15.7794 12 15.3978 12 15C12 14.6022 12.158 14.2206 12.4393 13.9393C12.7206 13.658 13.1022 13.5 13.5 13.5H21C21.3978 13.5 21.7794 13.658 22.0607 13.9393C22.342 14.2206 22.5 14.6022 22.5 15V22.5C22.5 22.8978 22.342 23.2794 22.0607 23.5607C21.7794 23.842 21.3978 24 21 24C20.6022 24 20.2206 23.842 19.9393 23.5607C19.658 23.2794 19.5 22.8978 19.5 22.5V19.3485C18.2519 20.6216 16.7003 21.556 14.9914 22.0638C13.2824 22.5716 11.4723 22.636 9.73158 22.251C7.99084 21.866 6.37676 21.0442 5.04136 19.863C3.70597 18.6818 2.69322 17.1802 2.0985 15.4995C2.03289 15.3137 2.00451 15.1169 2.01499 14.9202C2.02547 14.7234 2.07459 14.5307 2.15956 14.353C2.24453 14.1752 2.36367 14.016 2.51019 13.8843C2.65671 13.7526 2.82774 13.6511 3.0135 13.5855H3.012Z" fill="#F6F6F7"/>
</g>
</svg>
