<svg width="114" height="23" viewBox="0 0 114 23" fill="none" xmlns="http://www.w3.org/2000/svg">
<path fill-rule="evenodd" clip-rule="evenodd" d="M7.97974 11.6312L0 5.29355L3.07604 0.506319L17.0703 11.6209L3.62624 22.3447L0.541383 17.5645L7.97974 11.6312Z" fill="#A7D22D"/>
<path fill-rule="evenodd" clip-rule="evenodd" d="M25.185 5.28021L18.3976 10.3107L14.1031 6.87895L22.1001 0.5L25.185 5.28021Z" fill="#A7D22D"/>
<path fill-rule="evenodd" clip-rule="evenodd" d="M18.3976 12.9437L24.7355 17.7282L21.6667 22.5211L14.1087 16.5397L18.3976 12.9437Z" fill="#A7D22D"/>
<path d="M34.4844 6.85352H37.8418C38.8223 6.85352 39.6738 6.95898 40.3965 7.16992C41.1191 7.38086 41.7168 7.68359 42.1895 8.07812C42.666 8.46875 43.0195 8.94531 43.25 9.50781C43.4844 10.0664 43.6016 10.6953 43.6016 11.3945C43.6016 12.0586 43.4863 12.6738 43.2559 13.2402C43.0254 13.8027 42.6738 14.291 42.2012 14.7051C41.7285 15.1152 41.1309 15.4375 40.4082 15.6719C39.6855 15.9023 38.834 16.0176 37.8535 16.0176L34.4844 16.0117V6.85352ZM38.2988 14.4062C38.8535 14.4062 39.3398 14.3359 39.7578 14.1953C40.1758 14.0508 40.5234 13.8477 40.8008 13.5859C41.082 13.3242 41.293 13.0078 41.4336 12.6367C41.5742 12.2656 41.6445 11.8516 41.6445 11.3945C41.6445 10.9453 41.5742 10.541 41.4336 10.1816C41.293 9.81836 41.082 9.51172 40.8008 9.26172C40.5234 9.00781 40.1758 8.8125 39.7578 8.67578C39.3398 8.53906 38.8535 8.4707 38.2988 8.4707H36.3418V14.4062H38.2988ZM49.0648 6.85352H56.8637V8.48242H50.9223V10.3105H56.184V11.8398H50.9223V14.3887H56.9867V16.0117H49.0648V6.85352ZM65.2508 11.3594L61.7293 6.85352H64.0027L66.4344 10.0059L68.8777 6.85352H71.116L67.5301 11.3418L71.2391 16.0117H68.9598L66.3523 12.7188L63.6863 16.0117H61.4422L65.2508 11.3594ZM78.9934 8.48242H75.6125V6.85352H84.2316V8.48242H80.8508V16.0117H78.9934V8.48242ZM89.818 6.85352H97.6168V8.48242H91.6754V10.3105H96.9371V11.8398H91.6754V14.3887H97.7398V16.0117H89.818V6.85352ZM103.402 6.85352H108.061C108.764 6.85352 109.373 6.92773 109.889 7.07617C110.404 7.2207 110.832 7.43164 111.172 7.70898C111.512 7.98633 111.764 8.32422 111.928 8.72266C112.096 9.12109 112.18 9.57227 112.18 10.0762C112.18 10.416 112.139 10.7402 112.057 11.0488C111.975 11.3535 111.848 11.6348 111.676 11.8926C111.508 12.1504 111.295 12.3809 111.037 12.584C110.779 12.7832 110.477 12.9492 110.129 13.082L112.121 16.0117H109.848L108.125 13.4102H108.072L105.26 13.4043V16.0117H103.402V6.85352ZM108.107 11.7988C108.459 11.7988 108.766 11.7578 109.027 11.6758C109.293 11.5938 109.514 11.4785 109.689 11.3301C109.869 11.1816 110.002 11.002 110.088 10.791C110.178 10.5762 110.223 10.3379 110.223 10.0762C110.223 9.56445 110.047 9.16992 109.695 8.89258C109.344 8.61133 108.814 8.4707 108.107 8.4707H105.26V11.7988H108.107Z" fill="#A7D22D"/>
</svg>
