<svg width="78" height="10" viewBox="0 0 78 10" fill="none" xmlns="http://www.w3.org/2000/svg">
<path d="M0 0H3.3574C4.3379 0 5.1894 0.10546 5.9121 0.3164C6.6347 0.52734 7.2324 0.83007 7.7051 1.2246C8.1816 1.61523 8.5351 2.09179 8.7656 2.65429C9 3.21288 9.1172 3.84178 9.1172 4.54098C9.1172 5.20508 9.0019 5.82028 8.7715 6.38668C8.541 6.94918 8.1894 7.43748 7.7168 7.85158C7.2441 8.26168 6.6465 8.58398 5.9238 8.81838C5.2011 9.04878 4.3496 9.16408 3.3691 9.16408L0 9.15818V0ZM3.8144 7.55268C4.3691 7.55268 4.8554 7.48238 5.2734 7.34178C5.6914 7.19728 6.039 6.99418 6.3164 6.73238C6.5976 6.47068 6.8086 6.15428 6.9492 5.78318C7.0898 5.41208 7.1601 4.99808 7.1601 4.54098C7.1601 4.09178 7.0898 3.68748 6.9492 3.32808C6.8086 2.96484 6.5976 2.6582 6.3164 2.4082C6.039 2.15429 5.6914 1.95898 5.2734 1.82226C4.8554 1.68554 4.3691 1.61718 3.8144 1.61718H1.8574V7.55268H3.8144ZM14.5804 0H22.3793V1.6289H16.4379V3.45698H21.6996V4.98628H16.4379V7.53518H22.5023V9.15818H14.5804V0ZM30.7664 4.50588L27.2449 0H29.5183L31.95 3.15238L34.3933 0H36.6316L33.0457 4.48828L36.7547 9.15818H34.4754L31.8679 5.86528L29.2019 9.15818H26.9578L30.7664 4.50588ZM44.509 1.6289H41.1281V0H49.7472V1.6289H46.3664V9.15818H44.509V1.6289ZM55.3336 0H63.1324V1.6289H57.191V3.45698H62.4527V4.98628H57.191V7.53518H63.2554V9.15818H55.3336V0ZM68.9176 0H73.5766C74.2796 0 74.8886 0.07421 75.4046 0.22265C75.9196 0.36718 76.3476 0.57812 76.6876 0.85546C77.0276 1.13281 77.2796 1.4707 77.4436 1.86914C77.6116 2.26757 77.6956 2.71875 77.6956 3.22268C77.6956 3.56248 77.6546 3.88668 77.5726 4.19528C77.4906 4.49998 77.3636 4.78128 77.1916 5.03908C77.0236 5.29688 76.8106 5.52738 76.5526 5.73048C76.2946 5.92968 75.9926 6.09568 75.6446 6.22848L77.6366 9.15818H75.3636L73.6406 6.55668H73.5876L70.7756 6.55078V9.15818H68.9176V0ZM73.6226 4.94528C73.9746 4.94528 74.2816 4.90428 74.5426 4.82228C74.8086 4.74028 75.0296 4.62498 75.2046 4.47658C75.3846 4.32808 75.5176 4.14848 75.6036 3.93748C75.6936 3.72268 75.7386 3.48438 75.7386 3.22268C75.7386 2.71093 75.5626 2.3164 75.2106 2.03906C74.8596 1.75781 74.3296 1.61718 73.6226 1.61718H70.7756V4.94528H73.6226Z" fill="#CAFC40"/>
</svg>
