<svg width="78" height="11" viewBox="0 0 78 11" fill="none" xmlns="http://www.w3.org/2000/svg">
<path d="M0.300781 0.841797H3.6582C4.63867 0.841797 5.49023 0.947266 6.21289 1.1582C6.93555 1.36914 7.5332 1.67188 8.00586 2.06641C8.48242 2.45703 8.83594 2.93359 9.06641 3.49609C9.30078 4.05469 9.41797 4.68359 9.41797 5.38281C9.41797 6.04688 9.30273 6.66211 9.07227 7.22852C8.8418 7.79102 8.49023 8.2793 8.01758 8.69336C7.54492 9.10352 6.94727 9.42578 6.22461 9.66016C5.50195 9.89062 4.65039 10.0059 3.66992 10.0059L0.300781 10V0.841797ZM4.11523 8.39453C4.66992 8.39453 5.15625 8.32422 5.57422 8.18359C5.99219 8.03906 6.33984 7.83594 6.61719 7.57422C6.89844 7.3125 7.10938 6.99609 7.25 6.625C7.39062 6.25391 7.46094 5.83984 7.46094 5.38281C7.46094 4.93359 7.39062 4.5293 7.25 4.16992C7.10938 3.80664 6.89844 3.5 6.61719 3.25C6.33984 2.99609 5.99219 2.80078 5.57422 2.66406C5.15625 2.52734 4.66992 2.45898 4.11523 2.45898H2.1582V8.39453H4.11523ZM14.8813 0.841797H22.6801V2.4707H16.7387V4.29883H22.0004V5.82812H16.7387V8.37695H22.8031V10H14.8813V0.841797ZM31.0672 5.34766L27.5457 0.841797H29.8191L32.2508 3.99414L34.6941 0.841797H36.9324L33.3465 5.33008L37.0555 10H34.7762L32.1688 6.70703L29.5027 10H27.2586L31.0672 5.34766ZM44.8098 2.4707H41.4289V0.841797H50.048V2.4707H46.6672V10H44.8098V2.4707ZM55.6344 0.841797H63.4332V2.4707H57.4918V4.29883H62.7535V5.82812H57.4918V8.37695H63.5563V10H55.6344V0.841797ZM69.2188 0.841797H73.877C74.5801 0.841797 75.1895 0.916016 75.7051 1.06445C76.2207 1.20898 76.6484 1.41992 76.9883 1.69727C77.3281 1.97461 77.5801 2.3125 77.7441 2.71094C77.9121 3.10938 77.9961 3.56055 77.9961 4.06445C77.9961 4.4043 77.9551 4.72852 77.873 5.03711C77.791 5.3418 77.6641 5.62305 77.4922 5.88086C77.3242 6.13867 77.1113 6.36914 76.8535 6.57227C76.5957 6.77148 76.293 6.9375 75.9453 7.07031L77.9375 10H75.6641L73.9414 7.39844H73.8887L71.0762 7.39258V10H69.2188V0.841797ZM73.9238 5.78711C74.2754 5.78711 74.582 5.74609 74.8438 5.66406C75.1094 5.58203 75.3301 5.4668 75.5059 5.31836C75.6855 5.16992 75.8184 4.99023 75.9043 4.7793C75.9941 4.56445 76.0391 4.32617 76.0391 4.06445C76.0391 3.55273 75.8633 3.1582 75.5117 2.88086C75.1602 2.59961 74.6309 2.45898 73.9238 2.45898H71.0762V5.78711H73.9238Z" fill="white"/>
</svg>
