<svg width="100" height="100" viewBox="0 0 24 24" fill="none" xmlns="http://www.w3.org/2000/svg">
  <rect width="24" height="24" fill="white"/>
  <path d="M12 2C10.8954 2 10 2.89543 10 4C10 5.10457 10.8954 6 12 6C13.1046 6 14 5.10457 14 4C14 2.89543 13.1046 2 12 2Z" fill="#4CAF50"/>
  <path d="M4 11C2.89543 11 2 11.8954 2 13C2 14.1046 2.89543 15 4 15C5.10457 15 6 14.1046 6 13C6 11.8954 5.10457 11 4 11Z" fill="#4CAF50"/>
  <path d="M20 11C18.8954 11 18 11.8954 18 13C18 14.1046 18.8954 15 20 15C21.1046 15 22 14.1046 22 13C22 11.8954 21.1046 11 20 11Z" fill="#4CAF50"/>
  <path d="M12 18C10.8954 18 10 18.8954 10 20C10 21.1046 10.8954 22 12 22C13.1046 22 14 21.1046 14 20C14 18.8954 13.1046 18 12 18Z" fill="#4CAF50"/>
  <path d="M6 6.34315L8.34315 8.34315L12 4L15.6569 8.34315L18 6.34315L12 0L6 6.34315Z" fill="#4CAF50"/>
  <path d="M6 17.6569L8.34315 15.6569L12 20L15.6569 15.6569L18 17.6569L12 24L6 17.6569Z" fill="#4CAF50"/>
  <path d="M4.34315 13.6569L6.34315 12L4.34315 10.3431L0 12L4.34315 13.6569Z" fill="#4CAF50"/>
  <path d="M19.6569 10.3431L21.6569 12L19.6569 13.6569L24 12L19.6569 10.3431Z" fill="#4CAF50"/>
</svg>