<svg width="155" height="28" viewBox="0 0 155 28" fill="none" xmlns="http://www.w3.org/2000/svg">
<rect x="0.5" y="0.5" width="154" height="27" rx="7.5" fill="#383c3e" stroke="#383c3e"/>
<rect x="40.5" y="7.5" width="10" height="13" rx="2.5" stroke="rgba(255, 255, 255, 0.8)"/>
<line x1="47.4569" y1="10.2031" x2="43.4569" y2="19.2031" stroke="rgba(255, 255, 255, 0.8)"/>
<path d="M8.57955 10.2102V9.27273H15.125V10.2102H12.3807V18H11.3239V10.2102H8.57955ZM16.6374 20.4545C16.4669 20.4545 16.315 20.4403 16.1814 20.4119C16.0479 20.3864 15.9556 20.3608 15.9044 20.3352L16.1601 19.4489C16.4044 19.5114 16.6204 19.5341 16.8079 19.517C16.9954 19.5 17.1615 19.4162 17.3064 19.2656C17.4542 19.1179 17.5891 18.8778 17.7113 18.5455L17.8988 18.0341L15.4783 11.4545H16.5692L18.376 16.6705H18.4442L20.251 11.4545H21.3419L18.5635 18.9545C18.4385 19.2926 18.2837 19.5724 18.099 19.794C17.9144 20.0185 17.6999 20.1847 17.4556 20.2926C17.2141 20.4006 16.9414 20.4545 16.6374 20.4545ZM22.7894 20.4545V11.4545H23.761V12.4943H23.8803C23.9541 12.3807 24.0564 12.2358 24.1871 12.0597C24.3206 11.8807 24.511 11.7216 24.7581 11.5824C25.0081 11.4403 25.3462 11.3693 25.7723 11.3693C26.3235 11.3693 26.8092 11.5071 27.2297 11.7827C27.6502 12.0582 27.9783 12.4489 28.2141 12.9545C28.4499 13.4602 28.5678 14.0568 28.5678 14.7443C28.5678 15.4375 28.4499 16.0384 28.2141 16.5469C27.9783 17.0526 27.6516 17.4446 27.234 17.723C26.8163 17.9986 26.3348 18.1364 25.7894 18.1364C25.3689 18.1364 25.0323 18.0668 24.7794 17.9276C24.5266 17.7855 24.332 17.625 24.1956 17.446C24.0592 17.2642 23.9541 17.1136 23.8803 16.9943H23.795V20.4545H22.7894ZM23.778 14.7273C23.778 15.2216 23.8504 15.6577 23.9953 16.0355C24.1402 16.4105 24.3519 16.7045 24.6303 16.9176C24.9087 17.1278 25.2496 17.233 25.653 17.233C26.0735 17.233 26.4243 17.1222 26.7056 16.9006C26.9896 16.6761 27.2027 16.375 27.3448 15.9972C27.4896 15.6165 27.5621 15.1932 27.5621 14.7273C27.5621 14.267 27.4911 13.8523 27.349 13.483C27.2098 13.1108 26.9982 12.8168 26.7141 12.6009C26.4328 12.3821 26.0791 12.2727 25.653 12.2727C25.2439 12.2727 24.9002 12.3764 24.6217 12.5838C24.3433 12.7884 24.1331 13.0753 23.9911 13.4446C23.849 13.8111 23.778 14.2386 23.778 14.7273ZM32.9662 18.1364C32.3355 18.1364 31.7915 17.9972 31.3341 17.7188C30.8795 17.4375 30.5287 17.0455 30.2815 16.5426C30.0372 16.0369 29.915 15.4489 29.915 14.7784C29.915 14.108 30.0372 13.517 30.2815 13.0057C30.5287 12.4915 30.8724 12.0909 31.3128 11.804C31.756 11.5142 32.273 11.3693 32.8639 11.3693C33.2048 11.3693 33.5415 11.4261 33.8739 11.5398C34.2062 11.6534 34.5088 11.8381 34.7815 12.0938C35.0542 12.3466 35.2716 12.6818 35.4335 13.0994C35.5954 13.517 35.6764 14.0312 35.6764 14.642V15.0682H30.631V14.1989H34.6537C34.6537 13.8295 34.5798 13.5 34.4321 13.2102C34.2872 12.9205 34.0798 12.6918 33.8099 12.5241C33.5429 12.3565 33.2275 12.2727 32.8639 12.2727C32.4633 12.2727 32.1167 12.3722 31.8241 12.571C31.5344 12.767 31.3114 13.0227 31.1551 13.3381C30.9989 13.6534 30.9207 13.9915 30.9207 14.3523V14.9318C30.9207 15.4261 31.006 15.8452 31.1764 16.1889C31.3497 16.5298 31.5898 16.7898 31.8966 16.9688C32.2034 17.1449 32.5599 17.233 32.9662 17.233C33.2304 17.233 33.469 17.196 33.6821 17.1222C33.898 17.0455 34.0841 16.9318 34.2403 16.7812C34.3966 16.6278 34.5173 16.4375 34.6025 16.2102L35.5741 16.483C35.4719 16.8125 35.3 17.1023 35.0585 17.3523C34.817 17.5994 34.5187 17.7926 34.1636 17.9318C33.8085 18.0682 33.4094 18.1364 32.9662 18.1364ZM57.6478 11.4545V12.3068H54.2558V11.4545H57.6478ZM55.2444 9.88636H56.2501V16.125C56.2501 16.4091 56.2913 16.6222 56.3737 16.7642C56.4589 16.9034 56.5669 16.9972 56.6975 17.0455C56.8311 17.0909 56.9717 17.1136 57.1194 17.1136C57.2302 17.1136 57.3211 17.108 57.3921 17.0966C57.4632 17.0824 57.52 17.071 57.5626 17.0625L57.7671 17.9659C57.699 17.9915 57.6038 18.017 57.4816 18.0426C57.3595 18.071 57.2046 18.0852 57.0171 18.0852C56.7331 18.0852 56.4546 18.0241 56.1819 17.902C55.912 17.7798 55.6876 17.5938 55.5086 17.3438C55.3325 17.0938 55.2444 16.7784 55.2444 16.3977V9.88636ZM61.8694 18.1364C61.2785 18.1364 60.76 17.9957 60.314 17.7145C59.8708 17.4332 59.5242 17.0398 59.2742 16.5341C59.0271 16.0284 58.9035 15.4375 58.9035 14.7614C58.9035 14.0795 59.0271 13.4844 59.2742 12.9759C59.5242 12.4673 59.8708 12.0724 60.314 11.7912C60.76 11.5099 61.2785 11.3693 61.8694 11.3693C62.4603 11.3693 62.9773 11.5099 63.4205 11.7912C63.8665 12.0724 64.2131 12.4673 64.4603 12.9759C64.7103 13.4844 64.8353 14.0795 64.8353 14.7614C64.8353 15.4375 64.7103 16.0284 64.4603 16.5341C64.2131 17.0398 63.8665 17.4332 63.4205 17.7145C62.9773 17.9957 62.4603 18.1364 61.8694 18.1364ZM61.8694 17.233C62.3183 17.233 62.6876 17.1179 62.9773 16.8878C63.2671 16.6577 63.4816 16.3551 63.6208 15.9801C63.76 15.6051 63.8296 15.1989 63.8296 14.7614C63.8296 14.3239 63.76 13.9162 63.6208 13.5384C63.4816 13.1605 63.2671 12.8551 62.9773 12.6222C62.6876 12.3892 62.3183 12.2727 61.8694 12.2727C61.4205 12.2727 61.0512 12.3892 60.7614 12.6222C60.4717 12.8551 60.2572 13.1605 60.118 13.5384C59.9788 13.9162 59.9092 14.3239 59.9092 14.7614C59.9092 15.1989 59.9788 15.6051 60.118 15.9801C60.2572 16.3551 60.4717 16.6577 60.7614 16.8878C61.0512 17.1179 61.4205 17.233 61.8694 17.233ZM74.6218 12.9205L73.7184 13.1761C73.6616 13.0256 73.5778 12.8793 73.467 12.7372C73.359 12.5923 73.2113 12.473 73.0238 12.3793C72.8363 12.2855 72.5962 12.2386 72.3036 12.2386C71.9031 12.2386 71.5693 12.331 71.3022 12.5156C71.038 12.6974 70.9059 12.929 70.9059 13.2102C70.9059 13.4602 70.9968 13.6577 71.1786 13.8026C71.3605 13.9474 71.6445 14.0682 72.0309 14.1648L73.0025 14.4034C73.5877 14.5455 74.0238 14.7628 74.3107 15.0554C74.5977 15.3452 74.7411 15.7187 74.7411 16.1761C74.7411 16.5511 74.6332 16.8864 74.4173 17.1818C74.2042 17.4773 73.9059 17.7102 73.5224 17.8807C73.1389 18.0511 72.6928 18.1364 72.1843 18.1364C71.5167 18.1364 70.9641 17.9915 70.5266 17.7017C70.0891 17.4119 69.8122 16.9886 69.6957 16.4318L70.6502 16.1932C70.7411 16.5455 70.913 16.8097 71.1659 16.9858C71.4215 17.1619 71.7553 17.25 72.1673 17.25C72.636 17.25 73.0082 17.1506 73.2837 16.9517C73.5622 16.75 73.7014 16.5085 73.7014 16.2273C73.7014 16 73.6218 15.8097 73.4627 15.6562C73.3036 15.5 73.0593 15.3835 72.7298 15.3068L71.6389 15.0511C71.0394 14.9091 70.5991 14.6889 70.3178 14.3906C70.0394 14.0895 69.9002 13.7131 69.9002 13.2614C69.9002 12.892 70.0039 12.5653 70.2113 12.2812C70.4215 11.9972 70.707 11.7741 71.0678 11.6122C71.4315 11.4503 71.8434 11.3693 72.3036 11.3693C72.9514 11.3693 73.4599 11.5114 73.8292 11.7955C74.2014 12.0795 74.4656 12.4545 74.6218 12.9205ZM79.1193 18.1364C78.4886 18.1364 77.9446 17.9972 77.4872 17.7188C77.0327 17.4375 76.6818 17.0455 76.4346 16.5426C76.1903 16.0369 76.0682 15.4489 76.0682 14.7784C76.0682 14.108 76.1903 13.517 76.4346 13.0057C76.6818 12.4915 77.0256 12.0909 77.4659 11.804C77.9091 11.5142 78.4261 11.3693 79.017 11.3693C79.3579 11.3693 79.6946 11.4261 80.027 11.5398C80.3594 11.6534 80.6619 11.8381 80.9346 12.0938C81.2074 12.3466 81.4247 12.6818 81.5866 13.0994C81.7486 13.517 81.8295 14.0312 81.8295 14.642V15.0682H76.7841V14.1989H80.8068C80.8068 13.8295 80.7329 13.5 80.5852 13.2102C80.4403 12.9205 80.2329 12.6918 79.9631 12.5241C79.696 12.3565 79.3807 12.2727 79.017 12.2727C78.6165 12.2727 78.2699 12.3722 77.9773 12.571C77.6875 12.767 77.4645 13.0227 77.3082 13.3381C77.152 13.6534 77.0738 13.9915 77.0738 14.3523V14.9318C77.0738 15.4261 77.1591 15.8452 77.3295 16.1889C77.5028 16.5298 77.7429 16.7898 78.0497 16.9688C78.3565 17.1449 78.7131 17.233 79.1193 17.233C79.3835 17.233 79.6221 17.196 79.8352 17.1222C80.0511 17.0455 80.2372 16.9318 80.3934 16.7812C80.5497 16.6278 80.6704 16.4375 80.7557 16.2102L81.7273 16.483C81.625 16.8125 81.4531 17.1023 81.2116 17.3523C80.9702 17.5994 80.6719 17.7926 80.3167 17.9318C79.9616 18.0682 79.5625 18.1364 79.1193 18.1364ZM85.4055 18.1534C84.9907 18.1534 84.6143 18.0753 84.2762 17.919C83.9382 17.7599 83.6697 17.5312 83.4708 17.233C83.272 16.9318 83.1725 16.5682 83.1725 16.142C83.1725 15.767 83.2464 15.4631 83.3941 15.2301C83.5419 14.9943 83.7393 14.8097 83.9865 14.6761C84.2336 14.5426 84.5063 14.4432 84.8046 14.3778C85.1058 14.3097 85.4083 14.2557 85.7123 14.2159C86.11 14.1648 86.4325 14.1264 86.6796 14.1009C86.9296 14.0724 87.1115 14.0256 87.2251 13.9602C87.3416 13.8949 87.3998 13.7812 87.3998 13.6193V13.5852C87.3998 13.1648 87.2848 12.8381 87.0546 12.6051C86.8274 12.3722 86.4822 12.2557 86.0191 12.2557C85.539 12.2557 85.1626 12.3608 84.8899 12.571C84.6171 12.7812 84.4254 13.0057 84.3146 13.2443L83.36 12.9034C83.5305 12.5057 83.7578 12.196 84.0419 11.9744C84.3288 11.75 84.6413 11.5937 84.9794 11.5057C85.3203 11.4148 85.6555 11.3693 85.985 11.3693C86.1953 11.3693 86.4367 11.3949 86.7095 11.446C86.985 11.4943 87.2507 11.5952 87.5063 11.7486C87.7649 11.902 87.9794 12.1335 88.1498 12.4432C88.3203 12.7528 88.4055 13.1676 88.4055 13.6875V18H87.3998V17.1136H87.3487C87.2805 17.2557 87.1669 17.4077 87.0078 17.5696C86.8487 17.7315 86.637 17.8693 86.3728 17.983C86.1086 18.0966 85.7862 18.1534 85.4055 18.1534ZM85.5589 17.25C85.9566 17.25 86.2919 17.1719 86.5646 17.0156C86.8402 16.8594 87.0475 16.6577 87.1867 16.4105C87.3288 16.1634 87.3998 15.9034 87.3998 15.6307V14.7102C87.3572 14.7614 87.2635 14.8082 87.1186 14.8509C86.9765 14.8906 86.8117 14.9261 86.6242 14.9574C86.4396 14.9858 86.2592 15.0114 86.0831 15.0341C85.9098 15.054 85.7691 15.071 85.6612 15.0852C85.3998 15.1193 85.1555 15.1747 84.9282 15.2514C84.7038 15.3253 84.522 15.4375 84.3828 15.5881C84.2464 15.7358 84.1782 15.9375 84.1782 16.1932C84.1782 16.5426 84.3075 16.8068 84.566 16.9858C84.8274 17.1619 85.1583 17.25 85.5589 17.25ZM90.3611 18V11.4545H91.3327V12.4432H91.4009C91.5202 12.1193 91.7361 11.8565 92.0486 11.6548C92.3611 11.4531 92.7134 11.3523 93.1054 11.3523C93.1793 11.3523 93.2716 11.3537 93.3824 11.3565C93.4932 11.3594 93.577 11.3636 93.6338 11.3693V12.392C93.5997 12.3835 93.5216 12.3707 93.3994 12.3537C93.2801 12.3338 93.1537 12.3239 93.0202 12.3239C92.702 12.3239 92.4179 12.3906 92.1679 12.5241C91.9207 12.6548 91.7247 12.8366 91.5798 13.0696C91.4378 13.2997 91.3668 13.5625 91.3668 13.858V18H90.3611ZM97.4058 18.1364C96.7922 18.1364 96.2637 17.9915 95.8206 17.7017C95.3774 17.4119 95.0365 17.0128 94.7978 16.5043C94.5592 15.9957 94.4399 15.4148 94.4399 14.7614C94.4399 14.0966 94.562 13.5099 94.8064 13.0014C95.0535 12.4901 95.3973 12.0909 95.8376 11.804C96.2808 11.5142 96.7978 11.3693 97.3887 11.3693C97.849 11.3693 98.2637 11.4545 98.6331 11.625C99.0024 11.7955 99.3049 12.0341 99.5407 12.3409C99.7765 12.6477 99.9228 13.0057 99.9797 13.4148H98.974C98.8973 13.1165 98.7268 12.8523 98.4626 12.6222C98.2012 12.3892 97.849 12.2727 97.4058 12.2727C97.0137 12.2727 96.67 12.375 96.3745 12.5795C96.0819 12.7812 95.8532 13.0668 95.6885 13.4361C95.5265 13.8026 95.4456 14.233 95.4456 14.7273C95.4456 15.233 95.5251 15.6733 95.6842 16.0483C95.8461 16.4233 96.0734 16.7145 96.366 16.9219C96.6615 17.1293 97.0081 17.233 97.4058 17.233C97.6672 17.233 97.9044 17.1875 98.1174 17.0966C98.3305 17.0057 98.5109 16.875 98.6586 16.7045C98.8064 16.5341 98.9115 16.3295 98.974 16.0909H99.9797C99.9228 16.4773 99.7822 16.8253 99.5578 17.1349C99.3362 17.4418 99.0422 17.6861 98.6757 17.8679C98.312 18.0469 97.8887 18.1364 97.4058 18.1364ZM102.576 14.0625V18H101.57V9.27273H102.576V12.4773H102.661C102.814 12.1392 103.044 11.8707 103.351 11.6719C103.661 11.4702 104.073 11.3693 104.587 11.3693C105.033 11.3693 105.424 11.4588 105.759 11.6378C106.094 11.8139 106.354 12.0852 106.539 12.4517C106.726 12.8153 106.82 13.2784 106.82 13.8409V18H105.814V13.9091C105.814 13.3892 105.679 12.9872 105.409 12.7031C105.142 12.4162 104.772 12.2727 104.297 12.2727C103.968 12.2727 103.672 12.3423 103.411 12.4815C103.152 12.6207 102.948 12.8239 102.797 13.0909C102.649 13.358 102.576 13.6818 102.576 14.0625ZM114.934 18.1364C114.32 18.1364 113.792 17.9915 113.349 17.7017C112.905 17.4119 112.564 17.0128 112.326 16.5043C112.087 15.9957 111.968 15.4148 111.968 14.7614C111.968 14.0966 112.09 13.5099 112.334 13.0014C112.581 12.4901 112.925 12.0909 113.366 11.804C113.809 11.5142 114.326 11.3693 114.917 11.3693C115.377 11.3693 115.792 11.4545 116.161 11.625C116.53 11.7955 116.833 12.0341 117.069 12.3409C117.305 12.6477 117.451 13.0057 117.508 13.4148H116.502C116.425 13.1165 116.255 12.8523 115.991 12.6222C115.729 12.3892 115.377 12.2727 114.934 12.2727C114.542 12.2727 114.198 12.375 113.903 12.5795C113.61 12.7812 113.381 13.0668 113.216 13.4361C113.055 13.8026 112.974 14.233 112.974 14.7273C112.974 15.233 113.053 15.6733 113.212 16.0483C113.374 16.4233 113.601 16.7145 113.894 16.9219C114.189 17.1293 114.536 17.233 114.934 17.233C115.195 17.233 115.432 17.1875 115.645 17.0966C115.858 17.0057 116.039 16.875 116.187 16.7045C116.334 16.5341 116.439 16.3295 116.502 16.0909H117.508C117.451 16.4773 117.31 16.8253 117.086 17.1349C116.864 17.4418 116.57 17.6861 116.204 17.8679C115.84 18.0469 115.417 18.1364 114.934 18.1364ZM121.757 18.1364C121.166 18.1364 120.648 17.9957 120.201 17.7145C119.758 17.4332 119.412 17.0398 119.162 16.5341C118.915 16.0284 118.791 15.4375 118.791 14.7614C118.791 14.0795 118.915 13.4844 119.162 12.9759C119.412 12.4673 119.758 12.0724 120.201 11.7912C120.648 11.5099 121.166 11.3693 121.757 11.3693C122.348 11.3693 122.865 11.5099 123.308 11.7912C123.754 12.0724 124.101 12.4673 124.348 12.9759C124.598 13.4844 124.723 14.0795 124.723 14.7614C124.723 15.4375 124.598 16.0284 124.348 16.5341C124.101 17.0398 123.754 17.4332 123.308 17.7145C122.865 17.9957 122.348 18.1364 121.757 18.1364ZM121.757 17.233C122.206 17.233 122.575 17.1179 122.865 16.8878C123.155 16.6577 123.369 16.3551 123.508 15.9801C123.648 15.6051 123.717 15.1989 123.717 14.7614C123.717 14.3239 123.648 13.9162 123.508 13.5384C123.369 13.1605 123.155 12.8551 122.865 12.6222C122.575 12.3892 122.206 12.2727 121.757 12.2727C121.308 12.2727 120.939 12.3892 120.649 12.6222C120.359 12.8551 120.145 13.1605 120.005 13.5384C119.866 13.9162 119.797 14.3239 119.797 14.7614C119.797 15.1989 119.866 15.6051 120.005 15.9801C120.145 16.3551 120.359 16.6577 120.649 16.8878C120.939 17.1179 121.308 17.233 121.757 17.233ZM126.378 18V11.4545H127.384V18H126.378ZM126.889 10.3636C126.693 10.3636 126.524 10.2969 126.382 10.1634C126.243 10.0298 126.173 9.86932 126.173 9.68182C126.173 9.49432 126.243 9.33381 126.382 9.20028C126.524 9.06676 126.693 9 126.889 9C127.085 9 127.253 9.06676 127.392 9.20028C127.534 9.33381 127.605 9.49432 127.605 9.68182C127.605 9.86932 127.534 10.0298 127.392 10.1634C127.253 10.2969 127.085 10.3636 126.889 10.3636ZM130.351 14.0625V18H129.346V11.4545H130.317V12.4773H130.402C130.556 12.1449 130.789 11.8778 131.101 11.6761C131.414 11.4716 131.817 11.3693 132.312 11.3693C132.755 11.3693 133.142 11.4602 133.475 11.642C133.807 11.821 134.066 12.0938 134.25 12.4602C134.435 12.8239 134.527 13.2841 134.527 13.8409V18H133.522V13.9091C133.522 13.3949 133.388 12.9943 133.121 12.7074C132.854 12.4176 132.488 12.2727 132.022 12.2727C131.701 12.2727 131.414 12.3423 131.161 12.4815C130.911 12.6207 130.714 12.8239 130.569 13.0909C130.424 13.358 130.351 13.6818 130.351 14.0625ZM141.122 12.9205L140.218 13.1761C140.161 13.0256 140.077 12.8793 139.967 12.7372C139.859 12.5923 139.711 12.473 139.523 12.3793C139.336 12.2855 139.096 12.2386 138.803 12.2386C138.403 12.2386 138.069 12.331 137.802 12.5156C137.538 12.6974 137.406 12.929 137.406 13.2102C137.406 13.4602 137.497 13.6577 137.678 13.8026C137.86 13.9474 138.144 14.0682 138.531 14.1648L139.502 14.4034C140.087 14.5455 140.523 14.7628 140.81 15.0554C141.097 15.3452 141.241 15.7187 141.241 16.1761C141.241 16.5511 141.133 16.8864 140.917 17.1818C140.704 17.4773 140.406 17.7102 140.022 17.8807C139.639 18.0511 139.193 18.1364 138.684 18.1364C138.016 18.1364 137.464 17.9915 137.026 17.7017C136.589 17.4119 136.312 16.9886 136.195 16.4318L137.15 16.1932C137.241 16.5455 137.413 16.8097 137.666 16.9858C137.921 17.1619 138.255 17.25 138.667 17.25C139.136 17.25 139.508 17.1506 139.783 16.9517C140.062 16.75 140.201 16.5085 140.201 16.2273C140.201 16 140.122 15.8097 139.962 15.6562C139.803 15.5 139.559 15.3835 139.229 15.3068L138.139 15.0511C137.539 14.9091 137.099 14.6889 136.818 14.3906C136.539 14.0895 136.4 13.7131 136.4 13.2614C136.4 12.892 136.504 12.5653 136.711 12.2812C136.921 11.9972 137.207 11.7741 137.568 11.6122C137.931 11.4503 138.343 11.3693 138.803 11.3693C139.451 11.3693 139.96 11.5114 140.329 11.7955C140.701 12.0795 140.965 12.4545 141.122 12.9205Z" fill="rgba(255, 255, 255, 0.8)"/>
</svg>
