<svg width="600" height="80" viewBox="0 0 600 80" fill="none" xmlns="http://www.w3.org/2000/svg">
<g clip-path="url(#clip0_3096_3093)">
<path d="M600 0H0V80H600V0Z" fill="url(#paint0_radial_3096_3093)"/>
<path d="M230.149 65.1995C229.029 63.6395 227.939 62.1095 226.809 60.5295C229.479 58.6095 232.119 56.7095 234.809 54.7695C231.929 52.7095 229.109 50.6795 226.219 48.6195C227.329 47.0595 228.429 45.5195 229.549 43.9395C234.589 47.5495 239.589 51.1295 244.659 54.7595C239.799 58.2595 234.999 61.7095 230.149 65.2095V65.1995Z" fill="white"/>
<path d="M259.125 49.4499C260.085 49.4499 261.015 49.4399 261.945 49.4499C262.825 49.4599 263.715 49.3599 264.585 49.5599C266.815 50.0599 268.295 51.8599 268.395 54.1899C268.425 54.9899 268.365 55.7799 268.105 56.5499C267.455 58.4999 265.725 59.7799 263.665 59.7999C262.265 59.8199 260.875 59.7999 259.475 59.7999C259.365 59.7999 259.255 59.7799 259.125 59.7699V49.4399V49.4499ZM261.415 57.7699C262.205 57.7499 262.955 57.8299 263.695 57.7199C264.905 57.5499 265.705 56.8199 265.985 55.6499C266.095 55.1699 266.125 54.6799 266.075 54.1899C265.975 53.0999 265.535 52.1999 264.475 51.7399C263.495 51.3199 262.455 51.5299 261.415 51.4899V57.7599V57.7699Z" fill="white"/>
<path d="M333.357 59.8001C332.657 58.5601 331.977 57.3501 331.287 56.1401H329.737V59.7801H327.547V49.5101C327.687 49.4201 327.837 49.4501 327.987 49.4501C329.357 49.4501 330.737 49.4501 332.107 49.4501C333.717 49.4501 335.027 50.3901 335.437 51.8401C335.857 53.3401 335.267 54.8101 333.887 55.6601C333.827 55.7001 333.767 55.7401 333.687 55.8001C334.447 57.1201 335.207 58.4301 335.997 59.8001H333.367H333.357ZM329.757 54.2401C330.527 54.2401 331.257 54.2401 331.987 54.2401C332.647 54.2401 333.107 53.8701 333.237 53.2701C333.397 52.5201 333.157 51.8701 332.547 51.6101C331.647 51.2301 330.697 51.4701 329.757 51.4101V54.2401Z" fill="white"/>
<path d="M246.058 53.4999C244.508 52.3799 242.988 51.2899 241.398 50.1399C244.288 48.0599 247.138 46.0099 250.048 43.9199C251.158 45.4799 252.258 47.0099 253.388 48.5899C250.928 50.2299 248.508 51.8499 246.058 53.4999Z" fill="white"/>
<path d="M246.058 56.0195C248.338 57.5695 250.598 59.1195 252.908 60.6895C251.798 62.2495 250.708 63.7895 249.578 65.3695C246.858 63.4295 244.168 61.5095 241.398 59.5395C242.968 58.3495 244.498 57.1995 246.048 56.0195H246.058Z" fill="white"/>
<path d="M276.381 57.7905H281.221C281.271 58.4805 281.271 59.1205 281.221 59.7805H274.141V49.4805H281.091V51.4505H276.371V53.5105H280.401C280.461 54.1905 280.441 54.8105 280.411 55.4905H276.371V57.7805L276.381 57.7905Z" fill="white"/>
<path d="M314.377 49.4707H321.337V51.4407H316.617V53.5307H320.637V55.5107H316.607V57.7907H321.447C321.497 58.4907 321.497 59.1307 321.447 59.7907H314.367V49.4807L314.377 49.4707Z" fill="white"/>
<path d="M288.671 59.7905H286.031C287.291 57.9905 288.501 56.2605 289.731 54.5005C288.531 52.8305 287.351 51.1905 286.121 49.4805H288.911C289.641 50.5505 290.401 51.6505 291.201 52.8205C291.961 51.6605 292.691 50.5605 293.401 49.4805H296.041C294.831 51.2405 293.671 52.9505 292.491 54.6705C293.711 56.3605 294.931 58.0305 296.181 59.7705H293.391C292.641 58.6805 291.851 57.5505 291.031 56.3605C290.231 57.5305 289.461 58.6505 288.681 59.7905H288.671Z" fill="white"/>
<path d="M303.467 51.4905H300.477V49.4805H308.797V51.4805H305.757V59.7805H303.467V51.4905Z" fill="white"/>
<path d="M145.559 35.3602C144.249 35.3602 143.119 35.1602 142.169 34.7502C141.219 34.3402 140.399 33.7502 139.719 32.9802L141.319 30.3802C142.069 31.1502 142.789 31.7002 143.499 32.0202C144.209 32.3402 144.949 32.5002 145.719 32.5002C146.079 32.5002 146.409 32.4502 146.699 32.3602C146.989 32.2702 147.219 32.1302 147.379 31.9502C147.539 31.7702 147.619 31.5502 147.619 31.2802C147.619 31.0802 147.569 30.9002 147.469 30.7402C147.369 30.5802 147.229 30.4402 147.059 30.3202C146.889 30.2002 146.679 30.0902 146.439 29.9902C146.199 29.8902 145.949 29.8002 145.679 29.7302C145.409 29.6602 145.139 29.5902 144.859 29.5402C143.819 29.3102 142.959 29.0102 142.289 28.6202C141.619 28.2302 141.109 27.7502 140.779 27.1702C140.449 26.5902 140.279 25.9102 140.279 25.1202C140.279 24.4902 140.419 23.9202 140.709 23.3902C140.999 22.8602 141.379 22.4102 141.869 22.0302C142.359 21.6502 142.919 21.3602 143.559 21.1502C144.199 20.9402 144.869 20.8402 145.559 20.8402C146.689 20.8402 147.709 21.0102 148.599 21.3602C149.489 21.7102 150.289 22.2502 150.999 22.9802L149.559 25.3402C149.029 24.7902 148.429 24.3902 147.759 24.1202C147.089 23.8502 146.389 23.7202 145.659 23.7202C145.259 23.7202 144.919 23.7702 144.629 23.8702C144.339 23.9702 144.119 24.1102 143.959 24.2902C143.799 24.4702 143.719 24.6902 143.719 24.9402C143.719 25.1702 143.789 25.3602 143.919 25.5202C144.049 25.6802 144.229 25.8202 144.459 25.9502C144.689 26.0802 144.949 26.1802 145.239 26.2702C145.529 26.3602 145.839 26.4302 146.159 26.4802C146.889 26.6302 147.559 26.8202 148.149 27.0602C148.739 27.3002 149.259 27.5902 149.689 27.9402C150.119 28.2902 150.459 28.7002 150.689 29.1702C150.919 29.6402 151.039 30.1902 151.039 30.8202C151.039 31.7902 150.799 32.6202 150.329 33.2902C149.859 33.9602 149.209 34.4802 148.389 34.8302C147.569 35.1802 146.629 35.3602 145.559 35.3602ZM144.359 36.9802L144.579 27.6802L146.199 28.3402L146.419 36.9802H144.359ZM146.699 28.3702L145.079 27.7102L144.859 19.4102H146.919L146.699 28.3702Z" fill="white"/>
<path d="M151.82 35.1602L157.36 21.1602H160.24L165.74 35.1602H162.3L159.66 28.0602C159.55 27.7802 159.45 27.4802 159.34 27.1602C159.23 26.8402 159.13 26.5102 159.02 26.1702C158.91 25.8302 158.81 25.5002 158.71 25.1702C158.61 24.8402 158.53 24.5402 158.46 24.2602L159.06 24.2402C158.98 24.5702 158.89 24.9002 158.79 25.2202C158.69 25.5402 158.59 25.8602 158.49 26.1702C158.39 26.4802 158.28 26.8002 158.16 27.1102C158.04 27.4202 157.93 27.7502 157.82 28.0802L155.18 35.1602H151.82ZM154.46 32.4902L155.52 29.9302H161.96L163 32.4902H154.46Z" fill="white"/>
<path d="M172.117 35.3598C171.197 35.3598 170.367 35.2498 169.627 35.0298C168.887 34.8098 168.227 34.4898 167.657 34.0698C167.087 33.6498 166.567 33.1498 166.117 32.5798L168.177 30.2398C168.847 31.1298 169.517 31.7298 170.187 32.0398C170.857 32.3498 171.557 32.4998 172.277 32.4998C172.637 32.4998 172.967 32.4498 173.257 32.3598C173.547 32.2698 173.777 32.1298 173.937 31.9498C174.097 31.7698 174.177 31.5498 174.177 31.2798C174.177 31.0798 174.127 30.8998 174.027 30.7398C173.927 30.5798 173.787 30.4398 173.617 30.3198C173.447 30.1998 173.237 30.0898 172.997 29.9898C172.757 29.8898 172.507 29.7998 172.237 29.7298C171.967 29.6598 171.697 29.5898 171.417 29.5398C170.647 29.3698 169.967 29.1498 169.397 28.8998C168.827 28.6498 168.347 28.3398 167.967 27.9698C167.587 27.5998 167.307 27.1798 167.117 26.7098C166.927 26.2398 166.837 25.7098 166.837 25.1198C166.837 24.4898 166.977 23.9198 167.267 23.3898C167.557 22.8598 167.937 22.4098 168.427 22.0298C168.917 21.6498 169.477 21.3598 170.117 21.1498C170.757 20.9398 171.427 20.8398 172.117 20.8398C173.037 20.8398 173.827 20.9398 174.487 21.1298C175.147 21.3198 175.717 21.5998 176.187 21.9598C176.657 22.3198 177.067 22.7498 177.397 23.2598L175.297 25.2798C175.017 24.9298 174.717 24.6498 174.387 24.4198C174.057 24.1898 173.717 24.0198 173.347 23.8998C172.977 23.7798 172.607 23.7198 172.217 23.7198C171.827 23.7198 171.477 23.7698 171.187 23.8698C170.897 23.9698 170.677 24.1098 170.517 24.2898C170.357 24.4698 170.277 24.6898 170.277 24.9398C170.277 25.1698 170.347 25.3598 170.477 25.5198C170.607 25.6798 170.787 25.8198 171.017 25.9498C171.247 26.0798 171.507 26.1798 171.797 26.2698C172.087 26.3598 172.397 26.4298 172.717 26.4798C173.447 26.6298 174.117 26.8198 174.707 27.0598C175.297 27.2998 175.817 27.5898 176.247 27.9398C176.677 28.2898 177.017 28.6998 177.247 29.1698C177.477 29.6398 177.597 30.1898 177.597 30.8198C177.597 31.7898 177.357 32.6198 176.887 33.2898C176.417 33.9598 175.767 34.4798 174.947 34.8298C174.127 35.1798 173.187 35.3598 172.117 35.3598Z" fill="white"/>
<path d="M183.191 35.1602V24.1602H179.031V21.1602H190.851V24.1602H186.591V35.1602H183.191Z" fill="white"/>
<path d="M193.25 35.1602V21.1602H199.55C200.44 21.1602 201.25 21.3502 201.98 21.7402C202.71 22.1302 203.28 22.6602 203.69 23.3302C204.1 24.0002 204.31 24.7702 204.31 25.6202C204.31 26.4702 204.1 27.2902 203.69 27.9902C203.28 28.6902 202.71 29.2402 201.99 29.6402C201.27 30.0402 200.46 30.2402 199.55 30.2402H196.49V35.1602H193.25ZM196.49 27.6502H199.25C199.6 27.6502 199.9 27.5702 200.16 27.4202C200.42 27.2702 200.62 27.0502 200.76 26.7702C200.9 26.4902 200.97 26.1702 200.97 25.8102C200.97 25.4502 200.89 25.1302 200.73 24.8602C200.57 24.5902 200.34 24.3802 200.04 24.2302C199.74 24.0802 199.38 24.0102 198.95 24.0102H196.49V27.6502ZM201.01 35.1602L197.45 28.8402L200.93 28.3402L204.89 35.1602H201.01Z" fill="white"/>
<path d="M207.289 35.1602V21.1602H210.689V32.1602H216.929V35.1602H207.289Z" fill="white"/>
<path d="M225.578 35.1594V20.3594H227.638V35.1594H225.578Z" fill="white"/>
<path d="M231.896 22.35C231.456 22.35 231.116 22.24 230.876 22.01C230.636 21.78 230.516 21.46 230.516 21.05C230.516 20.66 230.636 20.35 230.886 20.11C231.136 19.87 231.466 19.75 231.896 19.75C232.326 19.75 232.676 19.86 232.916 20.09C233.156 20.32 233.276 20.64 233.276 21.05C233.276 21.44 233.156 21.75 232.906 21.99C232.656 22.23 232.326 22.35 231.896 22.35ZM230.896 35.16V24.66H232.956V35.16H230.896Z" fill="white"/>
<path d="M243.777 39.5595V32.6595H244.177C244.177 32.9795 244.067 33.2995 243.857 33.6095C243.647 33.9195 243.357 34.2095 242.997 34.4795C242.637 34.7495 242.237 34.9595 241.797 35.1195C241.357 35.2795 240.907 35.3595 240.437 35.3595C239.487 35.3595 238.647 35.1195 237.897 34.6495C237.147 34.1795 236.557 33.5295 236.127 32.7095C235.697 31.8895 235.477 30.9495 235.477 29.8995C235.477 28.8495 235.687 27.9095 236.117 27.0895C236.547 26.2695 237.127 25.6195 237.867 25.1495C238.607 24.6795 239.447 24.4395 240.377 24.4395C240.897 24.4395 241.397 24.5295 241.867 24.6995C242.337 24.8695 242.767 25.0995 243.147 25.3795C243.527 25.6595 243.827 25.9695 244.047 26.3095C244.267 26.6495 244.377 26.9895 244.377 27.3395L243.777 27.3795V24.6395H245.837V39.5595H243.777ZM240.657 33.4595C241.287 33.4595 241.837 33.3095 242.317 32.9995C242.797 32.6895 243.177 32.2695 243.447 31.7395C243.717 31.2095 243.857 30.5895 243.857 29.8995C243.857 29.2095 243.717 28.5895 243.447 28.0495C243.177 27.5095 242.797 27.0895 242.317 26.7795C241.837 26.4695 241.287 26.3195 240.657 26.3195C240.027 26.3195 239.477 26.4795 238.997 26.7895C238.517 27.0995 238.137 27.5295 237.867 28.0695C237.597 28.6095 237.457 29.2195 237.457 29.8995C237.457 30.5795 237.597 31.1895 237.867 31.7295C238.137 32.2695 238.517 32.6895 238.997 32.9995C239.477 33.3095 240.027 33.4595 240.657 33.4595Z" fill="white"/>
<path d="M252.399 35.3602C251.649 35.3602 250.999 35.1902 250.449 34.8402C249.899 34.4902 249.469 34.0102 249.169 33.3802C248.869 32.7502 248.719 32.0102 248.719 31.1402V24.6602H250.779V30.5802C250.779 31.1902 250.879 31.7202 251.069 32.1702C251.259 32.6202 251.539 32.9602 251.909 33.2002C252.279 33.4402 252.719 33.5602 253.239 33.5602C253.629 33.5602 253.979 33.5002 254.299 33.3702C254.619 33.2402 254.899 33.0702 255.129 32.8402C255.359 32.6102 255.549 32.3402 255.679 32.0202C255.809 31.7002 255.879 31.3502 255.879 30.9802V24.6602H257.939V35.1602H255.879V32.9602L256.239 32.7202C256.079 33.2102 255.809 33.6602 255.429 34.0602C255.049 34.4602 254.599 34.7802 254.079 35.0102C253.559 35.2402 252.999 35.3602 252.399 35.3602Z" fill="white"/>
<path d="M262.161 22.35C261.721 22.35 261.381 22.24 261.141 22.01C260.901 21.78 260.781 21.46 260.781 21.05C260.781 20.66 260.901 20.35 261.151 20.11C261.401 19.87 261.731 19.75 262.161 19.75C262.591 19.75 262.941 19.86 263.181 20.09C263.421 20.32 263.541 20.64 263.541 21.05C263.541 21.44 263.421 21.75 263.171 21.99C262.921 22.23 262.591 22.35 262.161 22.35ZM261.161 35.16V24.66H263.221V35.16H261.161Z" fill="white"/>
<path d="M270.747 35.3594C269.787 35.3594 268.927 35.1194 268.177 34.6494C267.427 34.1794 266.827 33.5294 266.387 32.7094C265.947 31.8894 265.727 30.9494 265.727 29.8994C265.727 28.8494 265.947 27.9094 266.377 27.0894C266.807 26.2694 267.397 25.6194 268.147 25.1494C268.897 24.6794 269.737 24.4394 270.687 24.4394C271.207 24.4394 271.707 24.5194 272.197 24.6894C272.687 24.8594 273.117 25.0794 273.507 25.3694C273.897 25.6594 274.197 25.9694 274.417 26.3094C274.637 26.6494 274.747 26.9894 274.747 27.3394L274.147 27.3794V20.3594H276.207V35.1594H274.147V32.6594H274.547C274.547 32.9794 274.437 33.2994 274.227 33.6094C274.017 33.9194 273.727 34.2094 273.377 34.4794C273.027 34.7494 272.617 34.9594 272.157 35.1194C271.697 35.2794 271.227 35.3594 270.747 35.3594ZM271.027 33.5794C271.657 33.5794 272.207 33.4194 272.687 33.0994C273.167 32.7794 273.547 32.3394 273.817 31.7894C274.087 31.2394 274.227 30.6094 274.227 29.8994C274.227 29.1894 274.087 28.5594 273.817 28.0094C273.547 27.4594 273.167 27.0194 272.687 26.6994C272.207 26.3794 271.657 26.2194 271.027 26.2194C270.397 26.2194 269.847 26.3794 269.367 26.6994C268.887 27.0194 268.507 27.4594 268.237 28.0094C267.967 28.5594 267.827 29.1894 267.827 29.8994C267.827 30.6094 267.967 31.2394 268.237 31.7894C268.507 32.3394 268.887 32.7794 269.367 33.0994C269.847 33.4194 270.397 33.5794 271.027 33.5794Z" fill="white"/>
<path d="M280.388 22.35C279.948 22.35 279.608 22.24 279.368 22.01C279.128 21.78 279.008 21.46 279.008 21.05C279.008 20.66 279.128 20.35 279.378 20.11C279.628 19.87 279.958 19.75 280.388 19.75C280.818 19.75 281.168 19.86 281.408 20.09C281.648 20.32 281.768 20.64 281.768 21.05C281.768 21.44 281.648 21.75 281.398 21.99C281.148 22.23 280.818 22.35 280.388 22.35ZM279.388 35.16V24.66H281.448V35.16H279.388Z" fill="white"/>
<path d="M283.727 26.6705V24.6705H290.407V26.6705H283.727ZM285.907 35.1605V21.9805H287.967V35.1605H285.907Z" fill="white"/>
<path d="M294.045 39.7602L296.165 34.8602L296.185 36.5002L290.945 24.6602H293.345L296.625 32.3802C296.695 32.5102 296.775 32.7202 296.865 32.9902C296.955 33.2602 297.035 33.5302 297.105 33.8002L296.585 33.9202C296.695 33.6402 296.795 33.3602 296.895 33.0802C296.995 32.8002 297.095 32.5202 297.185 32.2402L299.925 24.6602H302.365L298.045 35.1602L296.265 39.7602H294.045Z" fill="white"/>
<path d="M104.781 64.7988V49.8988H106.861V52.2987L106.541 52.1187C106.621 51.7187 106.851 51.3388 107.221 50.9688C107.591 50.5987 108.051 50.2987 108.591 50.0687C109.131 49.8387 109.691 49.7188 110.261 49.7188C111.211 49.7188 112.051 49.9487 112.781 50.4187C113.511 50.8887 114.091 51.5287 114.521 52.3387C114.951 53.1487 115.161 54.0887 115.161 55.1387C115.161 56.1887 114.951 57.1087 114.531 57.9287C114.111 58.7487 113.531 59.3987 112.801 59.8687C112.071 60.3387 111.241 60.5788 110.321 60.5788C109.711 60.5788 109.111 60.4587 108.541 60.2087C107.971 59.9587 107.481 59.6487 107.081 59.2587C106.681 58.8687 106.431 58.4688 106.341 58.0588L106.861 57.7787V64.7988H104.781ZM109.981 58.6887C110.591 58.6887 111.141 58.5387 111.621 58.2287C112.101 57.9187 112.481 57.4987 112.761 56.9688C113.041 56.4388 113.181 55.8288 113.181 55.1488C113.181 54.4688 113.041 53.8687 112.771 53.3387C112.501 52.8087 112.121 52.3987 111.641 52.0887C111.161 51.7787 110.611 51.6287 109.981 51.6287C109.351 51.6287 108.801 51.7788 108.321 52.0788C107.841 52.3788 107.461 52.7988 107.181 53.3288C106.901 53.8588 106.761 54.4688 106.761 55.1488C106.761 55.8288 106.901 56.4388 107.181 56.9688C107.461 57.4987 107.841 57.9187 108.321 58.2287C108.801 58.5387 109.351 58.6887 109.981 58.6887Z" fill="white"/>
<path d="M117.398 60.4095V49.9095H119.478V53.2095L119.278 52.4095C119.428 51.8995 119.678 51.4395 120.028 51.0295C120.378 50.6195 120.788 50.2895 121.248 50.0495C121.708 49.8095 122.188 49.6895 122.678 49.6895C122.908 49.6895 123.118 49.7095 123.328 49.7495C123.538 49.7895 123.698 49.8395 123.818 49.8895L123.278 52.1295C123.118 52.0595 122.938 52.0095 122.748 51.9595C122.558 51.9095 122.368 51.8895 122.178 51.8895C121.818 51.8895 121.478 51.9595 121.148 52.0995C120.818 52.2395 120.538 52.4295 120.288 52.6795C120.038 52.9295 119.848 53.2095 119.698 53.5395C119.548 53.8695 119.478 54.2195 119.478 54.6095V60.4095H117.398Z" fill="white"/>
<path d="M129.735 60.6095C128.705 60.6095 127.795 60.3695 126.985 59.8995C126.175 59.4295 125.545 58.7795 125.075 57.9595C124.605 57.1395 124.375 56.1995 124.375 55.1495C124.375 54.0995 124.605 53.1595 125.075 52.3395C125.545 51.5195 126.175 50.8695 126.985 50.3995C127.795 49.9295 128.705 49.6895 129.735 49.6895C130.765 49.6895 131.655 49.9295 132.465 50.3995C133.275 50.8695 133.905 51.5195 134.375 52.3395C134.845 53.1595 135.075 54.0995 135.075 55.1495C135.075 56.1995 134.845 57.1395 134.375 57.9595C133.905 58.7795 133.275 59.4295 132.465 59.8995C131.655 60.3695 130.745 60.6095 129.735 60.6095ZM129.735 58.7295C130.365 58.7295 130.925 58.5695 131.415 58.2595C131.905 57.9495 132.295 57.5195 132.575 56.9795C132.855 56.4395 132.985 55.8295 132.975 55.1495C132.985 54.4595 132.855 53.8395 132.575 53.2995C132.295 52.7595 131.905 52.3395 131.415 52.0295C130.925 51.7195 130.365 51.5695 129.735 51.5695C129.105 51.5695 128.545 51.7295 128.045 52.0395C127.545 52.3495 127.155 52.7795 126.875 53.3195C126.595 53.8595 126.465 54.4695 126.475 55.1495C126.465 55.8295 126.595 56.4395 126.875 56.9795C127.155 57.5195 127.545 57.9495 128.045 58.2595C128.545 58.5695 129.105 58.7295 129.735 58.7295Z" fill="white"/>
<path d="M142.012 64.9997C141.262 64.9997 140.522 64.8797 139.782 64.6497C139.042 64.4197 138.442 64.1097 137.992 63.7397L138.752 62.1397C139.022 62.3397 139.332 62.5197 139.692 62.6697C140.052 62.8197 140.432 62.9397 140.832 63.0297C141.232 63.1197 141.622 63.1597 142.012 63.1597C142.742 63.1597 143.362 63.0397 143.852 62.7997C144.342 62.5597 144.722 62.2097 144.972 61.7397C145.222 61.2697 145.352 60.6897 145.352 59.9997V57.9797L145.572 58.1197C145.502 58.5297 145.292 58.9297 144.922 59.3097C144.552 59.6897 144.102 59.9997 143.552 60.2397C143.002 60.4797 142.442 60.5997 141.872 60.5997C140.872 60.5997 139.982 60.3597 139.202 59.8897C138.422 59.4197 137.802 58.7697 137.352 57.9497C136.902 57.1297 136.672 56.1897 136.672 55.1397C136.672 54.0897 136.892 53.1497 137.342 52.3297C137.792 51.5097 138.402 50.8597 139.182 50.3897C139.962 49.9197 140.842 49.6797 141.812 49.6797C142.212 49.6797 142.602 49.7297 142.972 49.8297C143.342 49.9297 143.692 50.0697 144.012 50.2497C144.332 50.4297 144.622 50.6297 144.872 50.8397C145.122 51.0497 145.332 51.2797 145.492 51.5197C145.652 51.7597 145.752 51.9897 145.792 52.1997L145.352 52.3597V49.8997H147.412V59.7597C147.412 60.5997 147.292 61.3397 147.042 61.9897C146.792 62.6397 146.442 63.1797 145.972 63.6297C145.502 64.0797 144.942 64.4197 144.272 64.6497C143.602 64.8797 142.852 64.9997 142.012 64.9997ZM142.092 58.7097C142.742 58.7097 143.322 58.5597 143.832 58.2497C144.342 57.9397 144.732 57.5197 145.012 56.9897C145.292 56.4597 145.432 55.8397 145.432 55.1497C145.432 54.4597 145.292 53.8397 145.002 53.2997C144.712 52.7597 144.322 52.3397 143.822 52.0297C143.322 51.7197 142.742 51.5697 142.092 51.5697C141.442 51.5697 140.882 51.7297 140.382 52.0397C139.882 52.3497 139.492 52.7797 139.202 53.3197C138.912 53.8597 138.772 54.4697 138.772 55.1497C138.772 55.8297 138.912 56.4397 139.202 56.9797C139.492 57.5197 139.882 57.9397 140.382 58.2497C140.882 58.5597 141.452 58.7097 142.092 58.7097Z" fill="white"/>
<path d="M150.289 60.4095V49.9095H152.369V53.2095L152.169 52.4095C152.319 51.8995 152.569 51.4395 152.919 51.0295C153.269 50.6195 153.679 50.2895 154.139 50.0495C154.599 49.8095 155.079 49.6895 155.569 49.6895C155.799 49.6895 156.009 49.7095 156.219 49.7495C156.429 49.7895 156.589 49.8395 156.709 49.8895L156.169 52.1295C156.009 52.0595 155.829 52.0095 155.639 51.9595C155.449 51.9095 155.259 51.8895 155.069 51.8895C154.709 51.8895 154.369 51.9595 154.039 52.0995C153.709 52.2395 153.429 52.4295 153.179 52.6795C152.929 52.9295 152.739 53.2095 152.589 53.5395C152.439 53.8695 152.369 54.2195 152.369 54.6095V60.4095H150.289Z" fill="white"/>
<path d="M161.954 60.6095C161.084 60.6095 160.294 60.3695 159.584 59.8895C158.874 59.4095 158.304 58.7595 157.874 57.9295C157.444 57.0995 157.234 56.1695 157.234 55.1295C157.234 54.0895 157.454 53.1395 157.884 52.3195C158.314 51.4995 158.904 50.8595 159.644 50.3895C160.384 49.9195 161.214 49.6895 162.134 49.6895C162.684 49.6895 163.184 49.7695 163.634 49.9295C164.084 50.0895 164.484 50.3095 164.824 50.5995C165.164 50.8895 165.444 51.2195 165.664 51.5895C165.884 51.9595 166.024 52.3595 166.074 52.7895L165.614 52.6295V49.9095H167.694V60.4095H165.614V57.9095L166.094 57.7695C166.014 58.1295 165.854 58.4795 165.604 58.8195C165.354 59.1595 165.044 59.4595 164.664 59.7295C164.284 59.9995 163.864 60.2095 163.404 60.3695C162.944 60.5295 162.464 60.6095 161.954 60.6095ZM162.494 58.7095C163.124 58.7095 163.674 58.5595 164.154 58.2495C164.634 57.9395 165.014 57.5195 165.284 56.9795C165.554 56.4395 165.694 55.8195 165.694 55.1295C165.694 54.4395 165.554 53.8395 165.284 53.3095C165.014 52.7795 164.634 52.3595 164.154 52.0495C163.674 51.7395 163.124 51.5895 162.494 51.5895C161.864 51.5895 161.334 51.7395 160.864 52.0495C160.394 52.3595 160.014 52.7795 159.744 53.3095C159.474 53.8395 159.334 54.4495 159.334 55.1295C159.334 55.8095 159.474 56.4395 159.744 56.9795C160.014 57.5195 160.394 57.9395 160.864 58.2495C161.334 58.5595 161.884 58.7095 162.494 58.7095Z" fill="white"/>
<path d="M170.523 60.4105V49.9105H172.603V52.1505L172.223 52.3905C172.333 52.0405 172.503 51.7105 172.733 51.3905C172.963 51.0705 173.253 50.7905 173.593 50.5405C173.933 50.2905 174.303 50.1005 174.693 49.9505C175.083 49.8005 175.493 49.7305 175.903 49.7305C176.503 49.7305 177.033 49.8305 177.483 50.0305C177.933 50.2305 178.313 50.5305 178.603 50.9305C178.893 51.3305 179.113 51.8305 179.243 52.4305L178.923 52.3505L179.063 52.0105C179.213 51.7005 179.413 51.4105 179.673 51.1405C179.933 50.8705 180.233 50.6205 180.563 50.4105C180.893 50.2005 181.253 50.0305 181.623 49.9105C181.993 49.7905 182.363 49.7305 182.723 49.7305C183.513 49.7305 184.163 49.8905 184.673 50.2105C185.183 50.5305 185.573 51.0205 185.833 51.6705C186.093 52.3205 186.223 53.1405 186.223 54.1105V60.4105H184.143V54.2305C184.143 53.6305 184.063 53.1405 183.913 52.7605C183.763 52.3805 183.533 52.1005 183.223 51.9105C182.913 51.7205 182.523 51.6305 182.043 51.6305C181.673 51.6305 181.323 51.6905 180.993 51.8205C180.663 51.9505 180.383 52.1205 180.143 52.3505C179.903 52.5805 179.713 52.8405 179.583 53.1405C179.453 53.4405 179.383 53.7705 179.383 54.1305V60.4105H177.303V54.1905C177.303 53.6405 177.223 53.1805 177.063 52.8005C176.903 52.4205 176.673 52.1305 176.363 51.9305C176.053 51.7305 175.683 51.6305 175.243 51.6305C174.873 51.6305 174.523 51.6905 174.203 51.8205C173.883 51.9505 173.603 52.1205 173.363 52.3405C173.123 52.5605 172.933 52.8205 172.803 53.1205C172.673 53.4205 172.603 53.7405 172.603 54.0905V60.4105H170.523Z" fill="white"/>
<path d="M199.298 60.6095C198.268 60.6095 197.358 60.3695 196.548 59.8995C195.738 59.4295 195.107 58.7795 194.637 57.9595C194.167 57.1395 193.938 56.1995 193.938 55.1495C193.938 54.0995 194.167 53.1595 194.637 52.3395C195.107 51.5195 195.738 50.8695 196.548 50.3995C197.358 49.9295 198.268 49.6895 199.298 49.6895C200.328 49.6895 201.217 49.9295 202.027 50.3995C202.837 50.8695 203.468 51.5195 203.938 52.3395C204.407 53.1595 204.637 54.0995 204.637 55.1495C204.637 56.1995 204.407 57.1395 203.938 57.9595C203.468 58.7795 202.837 59.4295 202.027 59.8995C201.217 60.3695 200.308 60.6095 199.298 60.6095ZM199.298 58.7295C199.928 58.7295 200.487 58.5695 200.977 58.2595C201.467 57.9495 201.857 57.5195 202.137 56.9795C202.417 56.4395 202.547 55.8295 202.537 55.1495C202.547 54.4595 202.417 53.8395 202.137 53.2995C201.857 52.7595 201.467 52.3395 200.977 52.0295C200.487 51.7195 199.928 51.5695 199.298 51.5695C198.668 51.5695 198.107 51.7295 197.607 52.0395C197.107 52.3495 196.718 52.7795 196.438 53.3195C196.157 53.8595 196.027 54.4695 196.037 55.1495C196.027 55.8295 196.157 56.4395 196.438 56.9795C196.718 57.5195 197.107 57.9495 197.607 58.2595C198.107 58.5695 198.668 58.7295 199.298 58.7295Z" fill="white"/>
<path d="M206.875 60.4095V49.9095H208.935V52.0695L208.575 52.3095C208.705 51.8395 208.965 51.4095 209.355 51.0195C209.745 50.6295 210.205 50.3095 210.735 50.0595C211.265 49.8095 211.815 49.6895 212.375 49.6895C213.175 49.6895 213.845 49.8495 214.375 50.1595C214.905 50.4695 215.305 50.9495 215.575 51.5895C215.845 52.2295 215.975 53.0395 215.975 54.0095V60.4095H213.915V54.1495C213.915 53.5495 213.835 53.0495 213.675 52.6595C213.515 52.2695 213.265 51.9795 212.935 51.7995C212.605 51.6195 212.185 51.5395 211.695 51.5695C211.295 51.5695 210.925 51.6295 210.595 51.7595C210.265 51.8895 209.975 52.0595 209.725 52.2895C209.475 52.5195 209.285 52.7795 209.145 53.0795C209.005 53.3795 208.935 53.6995 208.935 54.0495V60.4095H206.875Z" fill="white"/>
<path d="M498.647 24.0898H370.537C361.883 24.0898 354.867 31.1055 354.867 39.7598C354.867 48.4141 361.883 55.4298 370.537 55.4298H498.647C507.302 55.4298 514.317 48.4141 514.317 39.7598C514.317 31.1055 507.302 24.0898 498.647 24.0898Z" fill="white"/>
<path d="M368.947 45.5006V36.4706H365.977V34.8906H373.647V36.4706H370.587V45.5006H368.947Z" fill="black"/>
<path d="M374.369 45.5011V37.5411H375.949V40.0411L375.799 39.4311C375.909 39.0511 376.099 38.7011 376.369 38.3811C376.639 38.0711 376.949 37.8211 377.289 37.6411C377.639 37.4611 377.999 37.3711 378.369 37.3711C378.539 37.3711 378.699 37.3911 378.859 37.4211C379.019 37.4511 379.139 37.4911 379.229 37.5311L378.819 39.2311C378.699 39.1811 378.569 39.1411 378.419 39.1011C378.269 39.0611 378.129 39.0511 377.989 39.0511C377.719 39.0511 377.459 39.1011 377.209 39.2111C376.959 39.3211 376.749 39.4611 376.559 39.6511C376.369 39.8411 376.219 40.0511 376.109 40.3011C375.999 40.5511 375.939 40.8211 375.939 41.1111V45.5111H374.359L374.369 45.5011Z" fill="black"/>
<path d="M383.199 45.6509C382.539 45.6509 381.939 45.4709 381.399 45.1109C380.859 44.7509 380.429 44.2509 380.099 43.6209C379.779 42.9909 379.609 42.2909 379.609 41.5009C379.609 40.7109 379.769 39.9909 380.099 39.3709C380.429 38.7509 380.869 38.2609 381.429 37.9109C381.989 37.5609 382.619 37.3809 383.319 37.3809C383.729 37.3809 384.109 37.4409 384.459 37.5609C384.799 37.6809 385.099 37.8509 385.359 38.0709C385.619 38.2909 385.829 38.5409 385.999 38.8209C386.169 39.1009 386.269 39.4109 386.309 39.7309L385.959 39.6109V37.5509H387.539V45.5109H385.959V43.6209L386.319 43.5109C386.259 43.7809 386.139 44.0509 385.949 44.3109C385.759 44.5709 385.529 44.8009 385.239 45.0009C384.949 45.2009 384.629 45.3609 384.289 45.4909C383.949 45.6209 383.569 45.6709 383.189 45.6709L383.199 45.6509ZM383.609 44.2109C384.089 44.2109 384.499 44.0909 384.869 43.8609C385.229 43.6309 385.519 43.3109 385.729 42.9009C385.939 42.4909 386.039 42.0209 386.039 41.5009C386.039 40.9809 385.939 40.5209 385.729 40.1209C385.519 39.7209 385.239 39.4009 384.869 39.1609C384.509 38.9309 384.089 38.8109 383.609 38.8109C383.129 38.8109 382.729 38.9309 382.369 39.1609C382.009 39.3909 381.729 39.7109 381.519 40.1209C381.309 40.5209 381.209 40.9809 381.209 41.5009C381.209 42.0209 381.309 42.4909 381.519 42.9009C381.729 43.3109 382.009 43.6309 382.369 43.8609C382.729 44.0909 383.139 44.2109 383.609 44.2109Z" fill="black"/>
<path d="M393.06 45.6513C392.33 45.6513 391.68 45.4713 391.11 45.1113C390.54 44.7513 390.09 44.2613 389.75 43.6413C389.42 43.0213 389.25 42.3112 389.25 41.5112C389.25 40.7112 389.41 40.0013 389.74 39.3813C390.07 38.7613 390.52 38.2713 391.08 37.9113C391.65 37.5513 392.29 37.3713 393 37.3713C393.39 37.3713 393.78 37.4313 394.14 37.5613C394.51 37.6913 394.84 37.8613 395.13 38.0813C395.42 38.3013 395.65 38.5313 395.82 38.7913C395.99 39.0513 396.07 39.3113 396.07 39.5713L395.61 39.6012V34.2812H397.17V45.5013H395.61V43.6113H395.91C395.91 43.8513 395.83 44.0913 395.67 44.3313C395.51 44.5713 395.29 44.7913 395.03 44.9913C394.76 45.1913 394.45 45.3513 394.11 45.4813C393.77 45.6113 393.41 45.6613 393.04 45.6613L393.06 45.6513ZM393.27 44.3113C393.75 44.3113 394.16 44.1913 394.53 43.9513C394.89 43.7113 395.18 43.3813 395.39 42.9613C395.6 42.5413 395.7 42.0612 395.7 41.5312C395.7 41.0013 395.6 40.5212 395.39 40.1012C395.18 39.6812 394.9 39.3513 394.53 39.1113C394.17 38.8713 393.75 38.7513 393.27 38.7513C392.79 38.7513 392.38 38.8713 392.01 39.1113C391.64 39.3513 391.36 39.6812 391.15 40.1012C390.94 40.5212 390.84 41.0013 390.84 41.5312C390.84 42.0612 390.94 42.5413 391.15 42.9613C391.36 43.3813 391.64 43.7113 392.01 43.9513C392.37 44.1913 392.79 44.3113 393.27 44.3113Z" fill="black"/>
<path d="M403.054 45.6511C402.234 45.6511 401.514 45.4811 400.874 45.1311C400.244 44.7811 399.744 44.3011 399.384 43.7011C399.024 43.1011 398.844 42.4011 398.844 41.6111C398.844 40.9811 398.944 40.4111 399.144 39.9011C399.344 39.3811 399.624 38.9411 399.984 38.5611C400.344 38.1811 400.774 37.8911 401.274 37.6811C401.774 37.4711 402.314 37.3711 402.904 37.3711C403.424 37.3711 403.904 37.4711 404.344 37.6711C404.784 37.8711 405.174 38.1411 405.504 38.4811C405.834 38.8211 406.084 39.2311 406.264 39.7011C406.444 40.1711 406.524 40.6811 406.514 41.2411V41.9111H399.994L399.644 40.6711H405.144L404.914 40.9311V40.5711C404.884 40.2411 404.774 39.9411 404.584 39.6811C404.394 39.4211 404.154 39.2111 403.854 39.0611C403.564 38.9111 403.244 38.8311 402.894 38.8311C402.344 38.8311 401.884 38.9311 401.514 39.1411C401.144 39.3511 400.854 39.6511 400.664 40.0511C400.474 40.4511 400.374 40.9411 400.374 41.5311C400.374 42.1211 400.494 42.5711 400.724 42.9811C400.954 43.3911 401.284 43.7011 401.714 43.9311C402.134 44.1511 402.634 44.2611 403.184 44.2611C403.574 44.2611 403.944 44.1911 404.284 44.0611C404.624 43.9311 404.994 43.6911 405.384 43.3511L406.174 44.4611C405.934 44.7011 405.634 44.9211 405.284 45.1011C404.934 45.2811 404.564 45.4311 404.174 45.5311C403.784 45.6411 403.404 45.6911 403.034 45.6911L403.054 45.6511Z" fill="black"/>
<path d="M416.135 45.6504C415.265 45.6504 414.505 45.4804 413.835 45.1304C413.175 44.7904 412.605 44.2704 412.125 43.5804L413.245 42.2904C413.745 43.0004 414.215 43.4904 414.665 43.7604C415.125 44.0304 415.665 44.1704 416.285 44.1704C416.665 44.1704 417.015 44.1104 417.335 43.9904C417.645 43.8704 417.895 43.7004 418.075 43.4904C418.255 43.2804 418.345 43.0404 418.345 42.7604C418.345 42.5804 418.315 42.4104 418.255 42.2404C418.195 42.0804 418.105 41.9304 417.975 41.8004C417.845 41.6704 417.685 41.5504 417.485 41.4404C417.285 41.3304 417.055 41.2304 416.795 41.1404C416.535 41.0504 416.225 40.9804 415.885 40.9204C415.155 40.7804 414.555 40.5704 414.075 40.2804C413.595 40.0004 413.235 39.6404 412.995 39.2004C412.755 38.7704 412.635 38.2604 412.635 37.6804C412.635 37.2604 412.725 36.8604 412.915 36.5004C413.105 36.1404 413.355 35.8204 413.685 35.5504C414.015 35.2804 414.395 35.0804 414.845 34.9304C415.285 34.7804 415.765 34.7104 416.285 34.7104C417.105 34.7104 417.815 34.8704 418.435 35.1904C419.055 35.5104 419.525 35.9704 419.885 36.5804L418.735 37.7204C418.435 37.2204 418.075 36.8504 417.655 36.5804C417.235 36.3204 416.765 36.1904 416.255 36.1904C415.865 36.1904 415.515 36.2504 415.225 36.3704C414.935 36.4904 414.705 36.6604 414.535 36.8804C414.365 37.1004 414.285 37.3504 414.285 37.6504C414.285 37.8604 414.325 38.0604 414.405 38.2304C414.485 38.4004 414.615 38.5604 414.775 38.7004C414.945 38.8404 415.165 38.9604 415.445 39.0604C415.725 39.1704 416.065 39.2604 416.465 39.3404C417.025 39.4604 417.515 39.6204 417.955 39.8004C418.395 39.9804 418.755 40.2104 419.065 40.4604C419.365 40.7104 419.595 41.0004 419.755 41.3104C419.915 41.6204 419.985 41.9604 419.985 42.3304C419.985 43.0104 419.825 43.5904 419.515 44.0904C419.205 44.5904 418.755 44.9704 418.185 45.2304C417.615 45.4904 416.925 45.6304 416.125 45.6304L416.135 45.6504ZM415.225 46.8804V40.0004L416.695 40.5004V46.8804H415.225ZM417.305 40.5004L415.835 40.0004V33.6504H417.305V40.5004Z" fill="black"/>
<path d="M421.219 45.5006L425.329 34.8906H426.999L431.079 45.5006H429.339L426.909 39.1006C426.879 39.0306 426.819 38.8606 426.739 38.5806C426.649 38.3106 426.559 38.0006 426.449 37.6706C426.339 37.3406 426.239 37.0306 426.149 36.7506C426.059 36.4706 425.999 36.2906 425.969 36.2106L426.319 36.1906C426.259 36.3606 426.189 36.5806 426.099 36.8406C426.009 37.1006 425.919 37.3806 425.829 37.6706C425.729 37.9606 425.639 38.2406 425.549 38.5006C425.459 38.7606 425.379 38.9706 425.319 39.1406L422.909 45.4806H421.239L421.219 45.5006ZM423.039 42.8706L423.649 41.2906H428.469L429.169 42.8706H423.049H423.039Z" fill="black"/>
<path d="M436.203 45.6502C435.623 45.6502 435.093 45.5702 434.603 45.4202C434.113 45.2702 433.673 45.0402 433.273 44.7302C432.873 44.4202 432.523 44.0402 432.203 43.5902L433.323 42.3002C433.823 43.0102 434.293 43.5002 434.743 43.7702C435.203 44.0402 435.743 44.1802 436.363 44.1802C436.743 44.1802 437.093 44.1202 437.413 44.0002C437.723 43.8802 437.973 43.7102 438.153 43.5002C438.333 43.2902 438.423 43.0502 438.423 42.7702C438.423 42.5902 438.393 42.4202 438.333 42.2502C438.273 42.0902 438.183 41.9402 438.053 41.8102C437.923 41.6802 437.763 41.5602 437.563 41.4502C437.363 41.3402 437.133 41.2402 436.873 41.1502C436.613 41.0602 436.303 40.9902 435.963 40.9302C435.413 40.8202 434.943 40.6702 434.543 40.4902C434.143 40.3102 433.803 40.0802 433.523 39.8102C433.253 39.5402 433.053 39.2302 432.913 38.8802C432.783 38.5302 432.713 38.1402 432.713 37.7102C432.713 37.2802 432.803 36.8902 432.993 36.5302C433.183 36.1702 433.433 35.8502 433.763 35.5802C434.093 35.3102 434.473 35.1102 434.923 34.9602C435.363 34.8102 435.843 34.7402 436.363 34.7402C436.913 34.7402 437.413 34.8102 437.863 34.9502C438.313 35.0902 438.723 35.3002 439.073 35.5802C439.423 35.8602 439.723 36.2002 439.953 36.6002L438.803 37.7402C438.603 37.4102 438.373 37.1302 438.123 36.9002C437.873 36.6702 437.593 36.5002 437.293 36.3802C436.993 36.2602 436.663 36.2102 436.323 36.2102C435.933 36.2102 435.583 36.2702 435.293 36.3902C435.003 36.5102 434.773 36.6802 434.603 36.9002C434.433 37.1202 434.353 37.3702 434.353 37.6702C434.353 37.8802 434.393 38.0802 434.473 38.2502C434.553 38.4202 434.683 38.5802 434.843 38.7202C435.013 38.8602 435.233 38.9802 435.513 39.0802C435.793 39.1902 436.133 39.2802 436.533 39.3602C437.093 39.4802 437.583 39.6402 438.023 39.8202C438.463 40.0002 438.823 40.2302 439.133 40.4802C439.433 40.7302 439.663 41.0202 439.823 41.3302C439.983 41.6402 440.053 41.9802 440.053 42.3502C440.053 43.0302 439.893 43.6102 439.583 44.1102C439.273 44.6102 438.823 44.9902 438.253 45.2502C437.683 45.5102 436.993 45.6502 436.193 45.6502H436.203Z" fill="black"/>
<path d="M444.408 45.5006V36.4706H441.438V34.8906H449.107V36.4706H446.047V45.5006H444.408Z" fill="black"/>
<path d="M451.125 45.5006V34.8906H455.645C456.255 34.8906 456.805 35.0406 457.315 35.3406C457.825 35.6406 458.235 36.0406 458.535 36.5506C458.835 37.0606 458.985 37.6306 458.985 38.2706C458.985 38.8506 458.835 39.3806 458.535 39.8806C458.235 40.3806 457.825 40.7706 457.325 41.0706C456.815 41.3706 456.255 41.5206 455.645 41.5206H452.765V45.5106H451.125V45.5006ZM452.765 39.9406H455.795C456.085 39.9406 456.355 39.8706 456.585 39.7206C456.815 39.5706 456.995 39.3706 457.135 39.1106C457.265 38.8506 457.335 38.5706 457.335 38.2506C457.335 37.9006 457.255 37.5906 457.085 37.3206C456.915 37.0506 456.685 36.8406 456.385 36.6906C456.085 36.5406 455.755 36.4606 455.375 36.4606H452.765V39.9306V39.9406ZM457.425 45.5006L454.725 40.7106L456.405 40.3306L459.405 45.5106L457.415 45.4906L457.425 45.5006Z" fill="black"/>
<path d="M461.656 45.5006V34.8906H463.296V43.9206H468.266V45.5006H461.656Z" fill="black"/>
<path d="M474.984 45.5009V34.8909H476.454L482.944 43.5809L482.704 43.7209C482.664 43.4709 482.624 43.1909 482.594 42.8909C482.564 42.5909 482.534 42.2709 482.514 41.9309C482.494 41.5909 482.474 41.2309 482.454 40.8509C482.434 40.4709 482.424 40.0709 482.414 39.6609C482.404 39.2509 482.404 38.8209 482.404 38.3709V34.8809H484.044V45.4909H482.544L476.164 37.1209L476.334 36.9109C476.384 37.5309 476.424 38.0509 476.464 38.4809C476.504 38.9109 476.534 39.2709 476.554 39.5709C476.584 39.8709 476.594 40.1109 476.604 40.3009C476.604 40.4909 476.624 40.6409 476.624 40.7609C476.624 40.8809 476.624 40.9909 476.624 41.0809V45.4909H474.984V45.5009Z" fill="black"/>
<path d="M490.185 45.6511C489.405 45.6511 488.715 45.4711 488.105 45.1111C487.495 44.7511 487.015 44.2611 486.655 43.6411C486.305 43.0211 486.125 42.3111 486.125 41.5111C486.125 40.7111 486.305 40.0011 486.655 39.3811C487.005 38.7611 487.495 38.2711 488.105 37.9111C488.715 37.5511 489.415 37.3711 490.185 37.3711C490.955 37.3711 491.645 37.5511 492.255 37.9111C492.865 38.2711 493.345 38.7611 493.705 39.3811C494.055 40.0011 494.235 40.7111 494.235 41.5111C494.235 42.3111 494.055 43.0211 493.705 43.6411C493.355 44.2611 492.865 44.7511 492.255 45.1111C491.645 45.4711 490.955 45.6511 490.185 45.6511ZM490.185 44.2311C490.655 44.2311 491.085 44.1111 491.455 43.8711C491.825 43.6311 492.125 43.3111 492.335 42.9011C492.545 42.4911 492.645 42.0311 492.635 41.5111C492.635 40.9811 492.545 40.5211 492.335 40.1111C492.125 39.7011 491.835 39.3811 491.455 39.1511C491.085 38.9211 490.655 38.8011 490.185 38.8011C489.715 38.8011 489.285 38.9211 488.905 39.1611C488.525 39.4011 488.235 39.7211 488.015 40.1311C487.805 40.5411 487.705 41.0011 487.715 41.5211C487.705 42.0411 487.805 42.5011 488.015 42.9111C488.225 43.3211 488.525 43.6411 488.905 43.8811C489.285 44.1211 489.715 44.2411 490.185 44.2411V44.2311Z" fill="black"/>
<path d="M497.585 45.4995L494.875 37.5395L496.455 37.5195L498.395 43.4795L498.045 43.4495L500.155 38.7995H501.095L503.215 43.4695L502.805 43.4995L504.765 37.5395H506.345L503.665 45.4995H502.585L500.375 40.4395L500.725 40.4895L498.665 45.5095H497.605L497.585 45.4995Z" fill="black"/>
</g>
<defs>
<radialGradient id="paint0_radial_3096_3093" cx="0" cy="0" r="1" gradientUnits="userSpaceOnUse" gradientTransform="translate(287.61 32.845) rotate(-0.88997) scale(569.459 569.459)">
<stop stop-color="#13EBEE"/>
<stop offset="0.427551" stop-color="#3C1F8C"/>
</radialGradient>
<clipPath id="clip0_3096_3093">
<rect width="600" height="80" fill="white"/>
</clipPath>
</defs>
</svg>
