<svg width="600" height="200" viewBox="0 0 600 200" fill="none" xmlns="http://www.w3.org/2000/svg">
<g clip-path="url(#clip0_3096_3034)">
<path d="M0 200.039L600 200.039V-0.0509338L0 -0.0509338V200.039Z" fill="url(#paint0_radial_3096_3034)"/>
<path d="M314.331 99.7C312.681 97.39 311.061 95.13 309.391 92.79C313.331 89.95 317.231 87.14 321.221 84.27C316.961 81.22 312.791 78.23 308.531 75.17C310.171 72.86 311.791 70.59 313.461 68.25C320.911 73.58 328.301 78.88 335.801 84.25C328.621 89.42 321.511 94.53 314.341 99.69L314.331 99.7Z" fill="white"/>
<path d="M357.18 76.4197C358.6 76.4197 359.98 76.3997 361.35 76.4197C362.65 76.4397 363.96 76.2897 365.25 76.5797C368.54 77.3097 370.74 79.9797 370.89 83.4297C370.94 84.6197 370.84 85.7797 370.46 86.9097C369.5 89.7997 366.93 91.6897 363.89 91.7197C361.82 91.7397 359.76 91.7197 357.7 91.7197C357.54 91.7197 357.38 91.6997 357.18 91.6797V76.3997V76.4197ZM360.57 88.7197C361.74 88.6997 362.84 88.8097 363.94 88.6497C365.74 88.3997 366.92 87.3197 367.33 85.5897C367.5 84.8797 367.53 84.1497 367.46 83.4297C367.31 81.8097 366.67 80.4797 365.1 79.8097C363.65 79.1797 362.12 79.4997 360.57 79.4497V88.7297V88.7197Z" fill="white"/>
<path d="M466.908 91.7208C465.868 89.8908 464.868 88.1008 463.858 86.3108H461.568V91.6908H458.328V76.5108C458.538 76.3708 458.768 76.4208 458.968 76.4208C460.998 76.4208 463.028 76.4208 465.058 76.4208C467.438 76.4208 469.378 77.8208 469.978 79.9508C470.598 82.1708 469.728 84.3308 467.688 85.6008C467.598 85.6508 467.518 85.7208 467.388 85.8108C468.518 87.7608 469.628 89.7008 470.798 91.7208H466.908ZM461.598 83.5008C462.728 83.5008 463.808 83.5008 464.888 83.5008C465.858 83.5008 466.548 82.9508 466.738 82.0608C466.978 80.9408 466.618 79.9908 465.718 79.6108C464.388 79.0508 462.988 79.4108 461.598 79.3208V83.5008Z" fill="white"/>
<path d="M337.864 82.41C335.574 80.76 333.334 79.14 330.984 77.45C335.264 74.37 339.474 71.34 343.764 68.25C345.414 70.55 347.034 72.82 348.704 75.16C345.074 77.59 341.494 79.98 337.864 82.41Z" fill="white"/>
<path d="M337.864 86.1309C341.234 88.4309 344.584 90.7109 347.994 93.0309C346.354 95.3409 344.744 97.6109 343.074 99.9609C339.054 97.0909 335.074 94.2509 330.984 91.3409C333.304 89.5809 335.564 87.8809 337.854 86.1409L337.864 86.1309Z" fill="white"/>
<path d="M382.679 88.7505H389.829C389.909 89.7705 389.899 90.7205 389.829 91.7005H379.359V76.4805H389.639V79.3905H382.659V82.4405H388.609C388.699 83.4505 388.679 84.3605 388.629 85.3705H382.659V88.7605L382.679 88.7505Z" fill="white"/>
<path d="M438.854 76.4492H449.144V79.3592H442.174V82.4392H448.114V85.3692H442.154V88.7392H449.314C449.384 89.7792 449.384 90.7192 449.314 91.6992H438.844V76.4492H438.854Z" fill="white"/>
<path d="M400.848 91.6992H396.938C398.798 89.0392 400.588 86.4792 402.408 83.8792C400.638 81.4192 398.888 78.9792 397.068 76.4592H401.198C402.278 78.0392 403.398 79.6692 404.578 81.3892C405.708 79.6692 406.778 78.0392 407.828 76.4492H411.738C409.958 79.0592 408.238 81.5792 406.488 84.1292C408.298 86.6192 410.088 89.0992 411.948 91.6692H407.818C406.698 90.0592 405.538 88.3792 404.328 86.6292C403.148 88.3492 402.008 90.0192 400.848 91.6992Z" fill="white"/>
<path d="M422.733 79.4407H418.312V76.4707H430.613V79.4307H426.113V91.6907H422.723V79.4407H422.733Z" fill="white"/>
<path d="M189.302 55.6C187.372 55.6 185.702 55.3 184.292 54.7C182.882 54.1 181.672 53.23 180.672 52.08L183.032 48.24C184.132 49.38 185.212 50.19 186.252 50.66C187.292 51.13 188.392 51.37 189.532 51.37C190.062 51.37 190.542 51.3 190.982 51.16C191.412 51.02 191.752 50.82 191.982 50.55C192.222 50.28 192.332 49.95 192.332 49.56C192.332 49.26 192.262 49 192.112 48.76C191.962 48.52 191.762 48.32 191.502 48.14C191.242 47.96 190.942 47.8 190.582 47.65C190.232 47.5 189.852 47.37 189.462 47.27C189.072 47.16 188.662 47.07 188.252 46.99C186.712 46.66 185.452 46.2 184.452 45.63C183.452 45.06 182.712 44.34 182.222 43.49C181.732 42.64 181.482 41.62 181.482 40.46C181.482 39.53 181.692 38.68 182.122 37.9C182.542 37.12 183.112 36.45 183.832 35.89C184.552 35.33 185.382 34.89 186.332 34.59C187.282 34.29 188.262 34.13 189.292 34.13C190.962 34.13 192.462 34.39 193.782 34.9C195.102 35.41 196.282 36.21 197.332 37.29L195.202 40.78C194.412 39.97 193.522 39.37 192.542 38.98C191.552 38.59 190.522 38.39 189.442 38.39C188.852 38.39 188.342 38.46 187.922 38.61C187.502 38.76 187.172 38.96 186.932 39.23C186.692 39.5 186.582 39.82 186.582 40.19C186.582 40.52 186.682 40.81 186.882 41.05C187.082 41.29 187.342 41.5 187.682 41.69C188.012 41.88 188.402 42.03 188.832 42.16C189.262 42.29 189.722 42.39 190.192 42.47C191.272 42.69 192.252 42.97 193.132 43.33C194.012 43.69 194.772 44.12 195.412 44.63C196.052 45.14 196.542 45.75 196.892 46.45C197.242 47.15 197.412 47.96 197.412 48.89C197.412 50.33 197.062 51.55 196.362 52.54C195.662 53.54 194.702 54.29 193.492 54.82C192.282 55.34 190.882 55.6 189.312 55.6H189.302ZM187.522 57.99L187.852 44.25L190.242 45.23L190.572 58H187.532L187.522 57.99ZM190.982 45.25L188.592 44.27L188.262 32H191.302L190.972 45.24L190.982 45.25Z" fill="white"/>
<path d="M198.555 55.2994L206.745 34.6094H211.005L219.135 55.2994H214.055L210.155 44.8094C209.995 44.3994 209.835 43.9494 209.685 43.4794C209.525 43.0094 209.365 42.5194 209.215 42.0194C209.055 41.5194 208.905 41.0294 208.755 40.5394C208.605 40.0594 208.485 39.6094 208.385 39.1994L209.275 39.1694C209.155 39.6594 209.025 40.1394 208.875 40.6194C208.725 41.0894 208.575 41.5594 208.435 42.0194C208.285 42.4794 208.125 42.9494 207.945 43.4094C207.765 43.8694 207.605 44.3494 207.445 44.8394L203.545 55.2994H198.575H198.555ZM202.455 51.3394L204.025 47.5594H213.545L215.085 51.3394H202.465H202.455Z" fill="white"/>
<path d="M228.55 55.6009C227.19 55.6009 225.96 55.4409 224.87 55.1109C223.78 54.7809 222.81 54.3109 221.96 53.6909C221.11 53.0709 220.35 52.3409 219.68 51.4909L222.72 48.0309C223.71 49.3509 224.7 50.2409 225.69 50.6909C226.68 51.1409 227.71 51.3709 228.78 51.3709C229.31 51.3709 229.79 51.3009 230.23 51.1609C230.66 51.0209 231 50.8209 231.23 50.5509C231.47 50.2809 231.58 49.9509 231.58 49.5609C231.58 49.2609 231.51 49.0009 231.36 48.7609C231.21 48.5209 231.01 48.3209 230.75 48.1409C230.49 47.9609 230.19 47.8009 229.83 47.6509C229.48 47.5009 229.1 47.3709 228.71 47.2709C228.32 47.1609 227.91 47.0709 227.5 46.9909C226.36 46.7309 225.36 46.4209 224.51 46.0409C223.66 45.6709 222.96 45.2109 222.4 44.6709C221.84 44.1309 221.42 43.5109 221.14 42.8109C220.86 42.1109 220.73 41.3309 220.73 40.4609C220.73 39.5309 220.94 38.6809 221.37 37.9009C221.79 37.1209 222.36 36.4509 223.08 35.8909C223.8 35.3309 224.63 34.8909 225.58 34.5909C226.53 34.2909 227.51 34.1309 228.54 34.1309C229.9 34.1309 231.07 34.2709 232.04 34.5609C233.02 34.8509 233.85 35.2509 234.55 35.7909C235.25 36.3209 235.85 36.9609 236.34 37.7109L233.24 40.7009C232.83 40.1909 232.38 39.7609 231.89 39.4309C231.4 39.1009 230.89 38.8409 230.35 38.6609C229.81 38.4809 229.25 38.3909 228.68 38.3909C228.11 38.3909 227.58 38.4609 227.16 38.6109C226.74 38.7609 226.41 38.9609 226.17 39.2309C225.93 39.5009 225.82 39.8209 225.82 40.1909C225.82 40.5209 225.92 40.8109 226.12 41.0509C226.32 41.2909 226.58 41.5009 226.92 41.6909C227.25 41.8809 227.64 42.0309 228.07 42.1609C228.5 42.2909 228.96 42.3909 229.43 42.4709C230.51 42.6909 231.49 42.9709 232.37 43.3309C233.25 43.6909 234.01 44.1209 234.65 44.6309C235.29 45.1409 235.78 45.7509 236.13 46.4509C236.48 47.1509 236.65 47.9609 236.65 48.8909C236.65 50.3309 236.3 51.5509 235.6 52.5409C234.9 53.5409 233.94 54.2909 232.73 54.8209C231.52 55.3409 230.12 55.6009 228.55 55.6009Z" fill="white"/>
<path d="M244.931 55.2994V39.0394H238.781V34.6094H256.251V39.0394H249.951V55.2994H244.931Z" fill="white"/>
<path d="M259.789 55.2994V34.6094H269.099C270.419 34.6094 271.619 34.8994 272.689 35.4694C273.759 36.0394 274.609 36.8294 275.219 37.8194C275.829 38.8194 276.139 39.9394 276.139 41.1994C276.139 42.4594 275.829 43.6694 275.219 44.6994C274.609 45.7294 273.769 46.5494 272.709 47.1394C271.649 47.7294 270.439 48.0294 269.099 48.0294H264.579V55.2994H259.789ZM264.579 44.1894H268.659C269.169 44.1894 269.619 44.0794 269.999 43.8494C270.379 43.6194 270.679 43.2994 270.889 42.8894C271.099 42.4794 271.199 41.9994 271.199 41.4694C271.199 40.9394 271.079 40.4694 270.849 40.0694C270.609 39.6694 270.269 39.3594 269.829 39.1394C269.389 38.9194 268.849 38.8094 268.219 38.8094H264.579V44.1894ZM271.259 55.2994L265.999 45.9594L271.139 45.2194L276.989 55.2994H271.259Z" fill="white"/>
<path d="M280.539 55.2994V34.6094H285.569V50.8694H294.789V55.2994H280.539Z" fill="white"/>
<path d="M307.594 55.2997V33.4297H310.634V55.2997H307.594Z" fill="white"/>
<path d="M316.931 36.3595C316.281 36.3595 315.781 36.1895 315.421 35.8595C315.061 35.5295 314.891 35.0495 314.891 34.4395C314.891 33.8695 315.071 33.3995 315.441 33.0495C315.801 32.6995 316.301 32.5195 316.931 32.5195C317.561 32.5195 318.081 32.6895 318.441 33.0195C318.801 33.3495 318.971 33.8295 318.971 34.4395C318.971 35.0095 318.791 35.4695 318.421 35.8295C318.051 36.1895 317.561 36.3595 316.931 36.3595ZM315.451 55.2995V39.7795H318.491V55.2995H315.451Z" fill="white"/>
<path d="M334.494 61.8107V51.6107H335.084C335.084 52.0807 334.924 52.5507 334.614 53.0107C334.294 53.4707 333.874 53.9007 333.344 54.3007C332.814 54.6907 332.224 55.0107 331.574 55.2507C330.924 55.4907 330.254 55.6107 329.564 55.6107C328.164 55.6107 326.914 55.2607 325.814 54.5607C324.714 53.8607 323.834 52.9007 323.194 51.6907C322.554 50.4807 322.234 49.0907 322.234 47.5407C322.234 45.9907 322.544 44.6007 323.184 43.3907C323.824 42.1807 324.674 41.2207 325.774 40.5207C326.874 39.8207 328.104 39.4707 329.484 39.4707C330.254 39.4707 330.984 39.6007 331.684 39.8507C332.384 40.1007 333.014 40.4407 333.574 40.8507C334.134 41.2607 334.574 41.7207 334.904 42.2207C335.234 42.7207 335.394 43.2307 335.394 43.7407L334.504 43.8007V39.7507H337.544V61.8007H334.504L334.494 61.8107ZM329.884 52.7907C330.814 52.7907 331.624 52.5607 332.334 52.1107C333.044 51.6607 333.604 51.0407 334.004 50.2507C334.404 49.4607 334.614 48.5607 334.614 47.5307C334.614 46.5007 334.414 45.5907 334.004 44.8007C333.604 44.0007 333.044 43.3807 332.334 42.9207C331.624 42.4707 330.804 42.2407 329.884 42.2407C328.964 42.2407 328.144 42.4707 327.434 42.9407C326.724 43.4007 326.164 44.0307 325.764 44.8307C325.364 45.6307 325.154 46.5307 325.154 47.5307C325.154 48.5307 325.354 49.4407 325.764 50.2407C326.164 51.0407 326.724 51.6607 327.434 52.1207C328.144 52.5707 328.964 52.8007 329.884 52.8007V52.7907Z" fill="white"/>
<path d="M347.229 55.5993C346.129 55.5993 345.169 55.3393 344.349 54.8293C343.529 54.3193 342.899 53.5993 342.459 52.6693C342.019 51.7393 341.789 50.6393 341.789 49.3593V39.7793H344.829V48.5293C344.829 49.4393 344.969 50.2193 345.259 50.8793C345.549 51.5393 345.959 52.0493 346.499 52.3993C347.039 52.7493 347.699 52.9293 348.469 52.9293C349.039 52.9293 349.559 52.8393 350.039 52.6493C350.519 52.4593 350.919 52.1993 351.269 51.8693C351.619 51.5393 351.889 51.1293 352.079 50.6593C352.279 50.1893 352.369 49.6693 352.369 49.1193V39.7793H355.409V55.2993H352.369V52.0493L352.899 51.6893C352.659 52.4193 352.259 53.0793 351.699 53.6693C351.139 54.2593 350.469 54.7293 349.699 55.0693C348.929 55.4093 348.099 55.5893 347.219 55.5893L347.229 55.5993Z" fill="white"/>
<path d="M361.649 36.3595C360.999 36.3595 360.499 36.1895 360.139 35.8595C359.779 35.5295 359.609 35.0495 359.609 34.4395C359.609 33.8695 359.789 33.3995 360.159 33.0495C360.519 32.6995 361.019 32.5195 361.649 32.5195C362.279 32.5195 362.799 32.6895 363.159 33.0195C363.519 33.3495 363.689 33.8295 363.689 34.4395C363.689 35.0095 363.509 35.4695 363.139 35.8295C362.769 36.1895 362.279 36.3595 361.649 36.3595ZM360.179 55.2995V39.7795H363.219V55.2995H360.179Z" fill="white"/>
<path d="M374.36 55.5999C372.94 55.5999 371.67 55.2499 370.56 54.5499C369.45 53.8499 368.56 52.8899 367.91 51.6799C367.26 50.4699 366.93 49.0799 366.93 47.5299C366.93 45.9799 367.25 44.5899 367.89 43.3799C368.53 42.1699 369.4 41.2099 370.51 40.5099C371.62 39.8099 372.86 39.4599 374.26 39.4599C375.03 39.4599 375.77 39.5799 376.49 39.8299C377.21 40.0799 377.86 40.4099 378.43 40.8299C379 41.2499 379.45 41.7199 379.77 42.2199C380.1 42.7199 380.26 43.2299 380.26 43.7399L379.37 43.7999V33.4199H382.41V55.2899H379.37V51.5899H379.96C379.96 52.0599 379.8 52.5299 379.49 52.9899C379.17 53.4499 378.76 53.8799 378.23 54.2799C377.7 54.6799 377.11 54.9899 376.43 55.2299C375.75 55.4699 375.05 55.5899 374.35 55.5899L374.36 55.5999ZM374.78 52.9699C375.71 52.9699 376.52 52.7299 377.23 52.2599C377.94 51.7899 378.5 51.1399 378.9 50.3199C379.3 49.4999 379.51 48.5699 379.51 47.5299C379.51 46.4899 379.31 45.5599 378.9 44.7399C378.5 43.9199 377.94 43.2799 377.23 42.7999C376.52 42.3299 375.7 42.0899 374.78 42.0899C373.86 42.0899 373.04 42.3299 372.33 42.7999C371.62 43.2699 371.06 43.9199 370.66 44.7399C370.26 45.5599 370.05 46.4899 370.05 47.5299C370.05 48.5699 370.25 49.5099 370.66 50.3199C371.06 51.1399 371.62 51.7799 372.33 52.2599C373.04 52.7299 373.86 52.9699 374.78 52.9699Z" fill="white"/>
<path d="M388.61 36.3595C387.96 36.3595 387.46 36.1895 387.1 35.8595C386.74 35.5295 386.57 35.0495 386.57 34.4395C386.57 33.8695 386.75 33.3995 387.12 33.0495C387.48 32.6995 387.98 32.5195 388.61 32.5195C389.24 32.5195 389.76 32.6895 390.12 33.0195C390.48 33.3495 390.65 33.8295 390.65 34.4395C390.65 35.0095 390.47 35.4695 390.1 35.8295C389.73 36.1895 389.24 36.3595 388.61 36.3595ZM387.13 55.2995V39.7795H390.17V55.2995H387.13Z" fill="white"/>
<path d="M393.555 42.7403V39.7803H403.425V42.7403H393.555ZM396.775 55.3003V35.8203H399.815V55.3003H396.775Z" fill="white"/>
<path d="M408.801 62.0993L411.931 54.8593L411.961 57.2793L404.211 39.7793H407.761L412.611 51.1893C412.711 51.3893 412.831 51.6893 412.971 52.0893C413.111 52.4893 413.231 52.8893 413.321 53.2893L412.551 53.4693C412.711 53.0593 412.861 52.6393 413.011 52.2293C413.161 51.8193 413.301 51.3993 413.441 50.9893L417.491 39.7893H421.101L414.721 55.3093L412.091 62.1093H408.811L408.801 62.0993Z" fill="white"/>
<path d="M129.01 99.1201V77.1001H132.08V80.6501L131.61 80.3801C131.73 79.7901 132.06 79.2201 132.61 78.6801C133.16 78.1401 133.84 77.6901 134.63 77.3501C135.43 77.0101 136.25 76.8301 137.1 76.8301C138.5 76.8301 139.74 77.1701 140.82 77.8601C141.9 78.5501 142.76 79.5001 143.39 80.7001C144.02 81.9001 144.34 83.2801 144.34 84.8401C144.34 86.4001 144.03 87.7501 143.41 88.9601C142.79 90.1701 141.94 91.1301 140.85 91.8301C139.77 92.5301 138.54 92.8801 137.18 92.8801C136.27 92.8801 135.4 92.7001 134.55 92.3301C133.7 91.9701 132.98 91.5001 132.39 90.9301C131.8 90.3601 131.43 89.7701 131.3 89.1601L132.07 88.7501V99.1301H129L129.01 99.1201ZM136.69 90.0801C137.6 90.0801 138.4 89.8501 139.11 89.4001C139.82 88.9501 140.38 88.3301 140.8 87.5401C141.21 86.7501 141.42 85.8601 141.42 84.8501C141.42 83.8401 141.22 82.9501 140.81 82.1801C140.41 81.4001 139.85 80.7901 139.14 80.3301C138.43 79.8801 137.61 79.6501 136.69 79.6501C135.77 79.6501 134.95 79.8701 134.24 80.3201C133.53 80.7601 132.97 81.3801 132.55 82.1701C132.14 82.9601 131.93 83.8501 131.93 84.8601C131.93 85.8701 132.14 86.7601 132.55 87.5501C132.96 88.3401 133.53 88.9601 134.24 89.4101C134.95 89.8601 135.77 90.0901 136.69 90.0901V90.0801Z" fill="white"/>
<path d="M147.658 92.6193V77.0993H150.728V81.9793L150.428 80.7993C150.648 80.0493 151.018 79.3693 151.538 78.7593C152.058 78.1493 152.658 77.6693 153.338 77.3093C154.018 76.9493 154.718 76.7793 155.448 76.7793C155.778 76.7793 156.098 76.8093 156.408 76.8693C156.718 76.9293 156.958 76.9993 157.128 77.0793L156.328 80.3893C156.088 80.2893 155.828 80.2093 155.548 80.1393C155.268 80.0693 154.978 80.0393 154.708 80.0393C154.178 80.0393 153.668 80.1393 153.188 80.3493C152.708 80.5593 152.278 80.8393 151.918 81.2093C151.558 81.5793 151.258 81.9993 151.048 82.4793C150.828 82.9593 150.718 83.4893 150.718 84.0593V92.6293H147.648L147.658 92.6193Z" fill="white"/>
<path d="M165.902 92.9095C164.382 92.9095 163.032 92.5595 161.842 91.8595C160.652 91.1595 159.712 90.1995 159.022 88.9895C158.332 87.7795 157.992 86.3895 157.992 84.8395C157.992 83.2895 158.332 81.8995 159.022 80.6895C159.712 79.4795 160.652 78.5195 161.842 77.8195C163.032 77.1195 164.392 76.7695 165.902 76.7695C167.412 76.7695 168.742 77.1195 169.932 77.8195C171.122 78.5195 172.062 79.4795 172.752 80.6895C173.442 81.8995 173.782 83.2895 173.782 84.8395C173.782 86.3895 173.442 87.7795 172.752 88.9895C172.062 90.1995 171.122 91.1595 169.932 91.8595C168.742 92.5595 167.392 92.9095 165.902 92.9095ZM165.902 90.1295C166.832 90.1295 167.652 89.8995 168.382 89.4395C169.112 88.9795 169.682 88.3495 170.092 87.5495C170.502 86.7495 170.702 85.8495 170.682 84.8395C170.702 83.8195 170.502 82.8995 170.092 82.1095C169.682 81.3095 169.102 80.6895 168.382 80.2295C167.662 79.7695 166.822 79.5495 165.902 79.5495C164.982 79.5495 164.142 79.7795 163.402 80.2495C162.662 80.7095 162.082 81.3395 161.672 82.1395C161.262 82.9395 161.062 83.8395 161.082 84.8395C161.062 85.8495 161.262 86.7495 161.672 87.5495C162.082 88.3495 162.662 88.9795 163.402 89.4395C164.142 89.8995 164.972 90.1295 165.902 90.1295Z" fill="white"/>
<path d="M184.038 99.4195C182.938 99.4195 181.838 99.2495 180.738 98.8995C179.638 98.5495 178.758 98.1095 178.088 97.5595L179.208 95.1895C179.598 95.4895 180.068 95.7495 180.598 95.9695C181.128 96.1995 181.688 96.3695 182.288 96.4995C182.888 96.6295 183.458 96.6895 184.028 96.6895C185.108 96.6895 186.018 96.5095 186.748 96.1595C187.478 95.8095 188.028 95.2795 188.408 94.5895C188.778 93.8995 188.968 93.0395 188.968 92.0195V89.0295L189.298 89.2395C189.198 89.8495 188.878 90.4395 188.338 90.9995C187.798 91.5595 187.118 92.0195 186.318 92.3795C185.508 92.7295 184.678 92.9095 183.838 92.9095C182.358 92.9095 181.048 92.5595 179.888 91.8595C178.738 91.1595 177.828 90.1995 177.158 88.9895C176.488 87.7795 176.148 86.3895 176.148 84.8395C176.148 83.2895 176.478 81.8995 177.138 80.6895C177.798 79.4795 178.708 78.5195 179.858 77.8195C181.008 77.1195 182.308 76.7695 183.748 76.7695C184.338 76.7695 184.908 76.8395 185.458 76.9895C186.008 77.1395 186.518 77.3495 186.998 77.6095C187.468 77.8795 187.898 78.1695 188.268 78.4795C188.638 78.7995 188.948 79.1295 189.188 79.4795C189.428 79.8295 189.568 80.1695 189.628 80.4795L188.978 80.7195V77.0795H192.018V91.6495C192.018 92.8895 191.838 93.9895 191.468 94.9495C191.098 95.9095 190.578 96.7095 189.888 97.3695C189.198 98.0295 188.358 98.5295 187.378 98.8795C186.398 99.2295 185.278 99.3995 184.038 99.3995V99.4195ZM184.158 90.0995C185.128 90.0995 185.978 89.8695 186.728 89.4195C187.478 88.9695 188.058 88.3495 188.468 87.5595C188.878 86.7695 189.088 85.8695 189.088 84.8395C189.088 83.8095 188.878 82.8995 188.448 82.1095C188.028 81.3095 187.448 80.6895 186.708 80.2295C185.968 79.7795 185.118 79.5495 184.148 79.5495C183.178 79.5495 182.358 79.7795 181.618 80.2495C180.878 80.7195 180.298 81.3395 179.878 82.1395C179.458 82.9395 179.238 83.8395 179.238 84.8395C179.238 85.8395 179.448 86.7495 179.878 87.5495C180.308 88.3495 180.888 88.9695 181.618 89.4295C182.348 89.8895 183.198 90.1095 184.148 90.1095L184.158 90.0995Z" fill="white"/>
<path d="M196.283 92.6193V77.0993H199.353V81.9793L199.053 80.7993C199.273 80.0493 199.643 79.3693 200.163 78.7593C200.683 78.1493 201.283 77.6693 201.963 77.3093C202.643 76.9493 203.343 76.7793 204.073 76.7793C204.403 76.7793 204.723 76.8093 205.033 76.8693C205.343 76.9293 205.583 76.9993 205.753 77.0793L204.953 80.3893C204.713 80.2893 204.453 80.2093 204.173 80.1393C203.893 80.0693 203.603 80.0393 203.333 80.0393C202.803 80.0393 202.293 80.1393 201.813 80.3493C201.333 80.5593 200.903 80.8393 200.543 81.2093C200.183 81.5793 199.883 81.9993 199.673 82.4793C199.453 82.9593 199.343 83.4893 199.343 84.0593V92.6293H196.273L196.283 92.6193Z" fill="white"/>
<path d="M213.511 92.9095C212.231 92.9095 211.061 92.5495 210.011 91.8495C208.961 91.1495 208.111 90.1795 207.481 88.9495C206.851 87.7295 206.531 86.3495 206.531 84.8095C206.531 83.2695 206.851 81.8695 207.491 80.6595C208.131 79.4495 209.001 78.4995 210.091 77.8095C211.181 77.1195 212.411 76.7695 213.771 76.7695C214.581 76.7695 215.321 76.8895 215.991 77.1295C216.661 77.3695 217.251 77.6995 217.751 78.1195C218.251 78.5395 218.671 79.0295 218.991 79.5795C219.321 80.1295 219.521 80.7195 219.601 81.3495L218.921 81.1095V77.0895H221.991V92.6095H218.921V88.9095L219.631 88.6995C219.511 89.2295 219.271 89.7495 218.911 90.2495C218.551 90.7495 218.081 91.1995 217.521 91.5895C216.961 91.9795 216.341 92.2995 215.661 92.5395C214.981 92.7795 214.271 92.8995 213.521 92.8995L213.511 92.9095ZM214.311 90.0995C215.241 90.0995 216.051 89.8695 216.761 89.4195C217.471 88.9695 218.031 88.3395 218.431 87.5395C218.831 86.7395 219.041 85.8295 219.041 84.8095C219.041 83.7895 218.841 82.9095 218.431 82.1195C218.021 81.3295 217.471 80.7095 216.761 80.2595C216.051 79.8095 215.231 79.5795 214.311 79.5795C213.391 79.5795 212.601 79.8095 211.901 80.2595C211.201 80.7095 210.651 81.3295 210.241 82.1195C209.841 82.9095 209.631 83.7995 209.631 84.8095C209.631 85.8195 209.831 86.7495 210.241 87.5395C210.641 88.3395 211.201 88.9595 211.901 89.4195C212.601 89.8695 213.401 90.0995 214.311 90.0995Z" fill="white"/>
<path d="M226.203 92.6205V77.1005H229.273V80.4105L228.713 80.7605C228.873 80.2505 229.123 79.7605 229.463 79.2805C229.803 78.8105 230.233 78.3905 230.733 78.0205C231.233 77.6505 231.773 77.3605 232.363 77.1505C232.943 76.9305 233.543 76.8205 234.153 76.8205C235.043 76.8205 235.823 76.9705 236.483 77.2605C237.143 77.5505 237.703 78.0005 238.143 78.5905C238.573 79.1805 238.893 79.9205 239.093 80.8105L238.623 80.6905L238.833 80.1905C239.053 79.7405 239.353 79.3105 239.733 78.9005C240.113 78.4905 240.553 78.1405 241.053 77.8205C241.543 77.5005 242.063 77.2605 242.623 77.0805C243.173 76.9005 243.713 76.8105 244.253 76.8105C245.413 76.8105 246.373 77.0505 247.133 77.5205C247.893 77.9905 248.463 78.7105 248.843 79.6805C249.223 80.6505 249.423 81.8505 249.423 83.2905V92.6005H246.353V83.4705C246.353 82.5805 246.243 81.8605 246.013 81.3005C245.783 80.7405 245.443 80.3205 244.993 80.0405C244.543 79.7605 243.963 79.6305 243.253 79.6305C242.703 79.6305 242.183 79.7205 241.703 79.9105C241.223 80.1005 240.803 80.3605 240.443 80.6905C240.093 81.0205 239.813 81.4105 239.613 81.8605C239.413 82.3105 239.313 82.7905 239.313 83.3205V92.6005H236.243V83.4105C236.243 82.6005 236.123 81.9205 235.893 81.3605C235.663 80.8005 235.313 80.3705 234.863 80.0705C234.413 79.7805 233.863 79.6305 233.203 79.6305C232.653 79.6305 232.143 79.7205 231.663 79.9105C231.193 80.1005 230.773 80.3505 230.423 80.6805C230.073 81.0105 229.793 81.3905 229.593 81.8305C229.393 82.2705 229.293 82.7505 229.293 83.2605V92.6005H226.223L226.203 92.6205Z" fill="white"/>
<path d="M268.733 92.9095C267.213 92.9095 265.863 92.5595 264.673 91.8595C263.483 91.1595 262.543 90.1995 261.853 88.9895C261.163 87.7795 260.812 86.3895 260.812 84.8395C260.812 83.2895 261.153 81.8995 261.853 80.6895C262.543 79.4795 263.483 78.5195 264.673 77.8195C265.863 77.1195 267.223 76.7695 268.733 76.7695C270.243 76.7695 271.573 77.1195 272.773 77.8195C273.973 78.5195 274.903 79.4795 275.593 80.6895C276.283 81.8995 276.623 83.2895 276.623 84.8395C276.623 86.3895 276.283 87.7795 275.593 88.9895C274.903 90.1995 273.963 91.1595 272.773 91.8595C271.583 92.5595 270.233 92.9095 268.733 92.9095ZM268.733 90.1295C269.663 90.1295 270.483 89.8995 271.213 89.4395C271.943 88.9795 272.513 88.3495 272.923 87.5495C273.333 86.7495 273.533 85.8495 273.513 84.8395C273.533 83.8195 273.333 82.8995 272.923 82.1095C272.513 81.3095 271.933 80.6895 271.213 80.2295C270.483 79.7795 269.653 79.5495 268.733 79.5495C267.813 79.5495 266.973 79.7795 266.233 80.2495C265.493 80.7095 264.913 81.3395 264.503 82.1395C264.093 82.9395 263.893 83.8395 263.913 84.8395C263.893 85.8495 264.093 86.7495 264.503 87.5495C264.913 88.3495 265.493 88.9795 266.233 89.4395C266.973 89.8995 267.803 90.1295 268.733 90.1295Z" fill="white"/>
<path d="M279.93 92.6198V77.0998H282.97V80.2898L282.44 80.6398C282.64 79.9498 283.02 79.3198 283.59 78.7298C284.16 78.1498 284.84 77.6798 285.63 77.3098C286.42 76.9498 287.23 76.7598 288.05 76.7598C289.23 76.7598 290.22 76.9898 291.01 77.4598C291.8 77.9298 292.39 78.6298 292.78 79.5698C293.17 80.5198 293.37 81.7098 293.37 83.1498V92.6098H290.33V83.3598C290.33 82.4698 290.21 81.7398 289.98 81.1598C289.74 80.5798 289.38 80.1598 288.89 79.8898C288.4 79.6198 287.79 79.5098 287.06 79.5498C286.47 79.5498 285.93 79.6398 285.43 79.8298C284.94 80.0198 284.51 80.2798 284.14 80.6098C283.77 80.9398 283.49 81.3298 283.28 81.7798C283.07 82.2298 282.97 82.6998 282.97 83.2098V92.6098H279.93V92.6198Z" fill="white"/>
<path d="M370.72 130.41H216.82C206.426 130.41 198 138.836 198 149.23C198 159.624 206.426 168.05 216.82 168.05H370.72C381.114 168.05 389.54 159.624 389.54 149.23C389.54 138.836 381.114 130.41 370.72 130.41Z" fill="white"/>
<path d="M214.117 156.131V145.281H210.547V143.391H219.757V145.281H216.077V156.131H214.107H214.117Z" fill="black"/>
<path d="M220.617 156.131V146.571H222.507V149.571L222.327 148.841C222.457 148.381 222.687 147.961 223.007 147.581C223.327 147.201 223.697 146.911 224.117 146.691C224.537 146.471 224.967 146.361 225.417 146.361C225.627 146.361 225.817 146.381 226.007 146.411C226.197 146.451 226.347 146.491 226.457 146.541L225.967 148.581C225.817 148.521 225.657 148.471 225.487 148.431C225.307 148.391 225.137 148.371 224.967 148.371C224.637 148.371 224.327 148.431 224.027 148.561C223.727 148.691 223.467 148.861 223.247 149.091C223.027 149.321 222.847 149.581 222.707 149.871C222.577 150.171 222.507 150.491 222.507 150.841V156.121H220.617V156.131Z" fill="black"/>
<path d="M231.238 156.311C230.448 156.311 229.727 156.091 229.077 155.651C228.427 155.211 227.908 154.621 227.518 153.871C227.128 153.121 226.938 152.271 226.938 151.321C226.938 150.371 227.137 149.511 227.527 148.761C227.917 148.011 228.458 147.431 229.128 147.001C229.798 146.571 230.557 146.361 231.397 146.361C231.897 146.361 232.348 146.431 232.768 146.581C233.178 146.731 233.538 146.931 233.848 147.191C234.158 147.451 234.407 147.751 234.607 148.091C234.807 148.431 234.927 148.791 234.977 149.181L234.557 149.031V146.551H236.447V156.111H234.557V153.831L234.997 153.701C234.927 154.031 234.778 154.351 234.548 154.661C234.318 154.971 234.037 155.251 233.688 155.491C233.338 155.731 232.957 155.931 232.537 156.071C232.117 156.211 231.677 156.291 231.217 156.291L231.238 156.311ZM231.727 154.581C232.297 154.581 232.798 154.441 233.238 154.161C233.678 153.881 234.018 153.501 234.268 153.001C234.518 152.511 234.637 151.951 234.637 151.321C234.637 150.691 234.518 150.151 234.268 149.661C234.018 149.171 233.678 148.791 233.238 148.511C232.798 148.231 232.297 148.091 231.727 148.091C231.157 148.091 230.677 148.231 230.247 148.511C229.817 148.791 229.477 149.171 229.227 149.661C228.977 150.151 228.857 150.701 228.857 151.321C228.857 151.941 228.977 152.511 229.227 153.001C229.477 153.491 229.817 153.881 230.247 154.161C230.677 154.441 231.177 154.581 231.727 154.581Z" fill="black"/>
<path d="M243.07 156.31C242.2 156.31 241.42 156.1 240.73 155.66C240.04 155.23 239.5 154.64 239.1 153.89C238.7 153.14 238.5 152.29 238.5 151.33C238.5 150.37 238.7 149.52 239.09 148.77C239.48 148.02 240.02 147.44 240.7 147C241.38 146.57 242.15 146.35 243.01 146.35C243.48 146.35 243.94 146.43 244.39 146.58C244.83 146.73 245.23 146.94 245.58 147.2C245.93 147.46 246.21 147.75 246.41 148.06C246.61 148.37 246.71 148.68 246.71 149L246.16 149.04V142.65H248.04V156.12H246.16V153.84H246.52C246.52 154.13 246.42 154.42 246.23 154.71C246.04 155 245.78 155.26 245.46 155.5C245.14 155.74 244.77 155.94 244.35 156.08C243.93 156.23 243.5 156.3 243.07 156.3V156.31ZM243.33 154.69C243.9 154.69 244.4 154.54 244.84 154.25C245.28 153.96 245.62 153.56 245.87 153.06C246.12 152.56 246.24 151.98 246.24 151.34C246.24 150.7 246.12 150.12 245.87 149.62C245.62 149.12 245.28 148.72 244.84 148.43C244.4 148.14 243.9 147.99 243.33 147.99C242.76 147.99 242.26 148.14 241.82 148.43C241.38 148.72 241.04 149.12 240.79 149.62C240.54 150.12 240.42 150.7 240.42 151.34C240.42 151.98 240.54 152.56 240.79 153.06C241.04 153.56 241.38 153.96 241.82 154.25C242.26 154.54 242.76 154.69 243.33 154.69Z" fill="black"/>
<path d="M255.087 156.312C254.107 156.312 253.237 156.102 252.477 155.682C251.717 155.262 251.127 154.692 250.697 153.962C250.267 153.232 250.047 152.392 250.047 151.452C250.047 150.702 250.167 150.012 250.407 149.392C250.647 148.772 250.987 148.232 251.417 147.782C251.847 147.322 252.367 146.972 252.967 146.722C253.567 146.472 254.217 146.352 254.927 146.352C255.547 146.352 256.127 146.472 256.657 146.712C257.187 146.952 257.657 147.272 258.047 147.682C258.437 148.092 258.747 148.582 258.957 149.152C259.167 149.712 259.267 150.332 259.257 151.002L259.237 151.802H251.427L251.007 150.312H257.617L257.347 150.622V150.182C257.307 149.782 257.177 149.422 256.947 149.102C256.717 148.782 256.427 148.542 256.077 148.352C255.727 148.172 255.347 148.082 254.927 148.082C254.267 148.082 253.717 148.202 253.267 148.452C252.817 148.702 252.477 149.062 252.247 149.542C252.017 150.022 251.897 150.612 251.897 151.322C251.897 152.032 252.037 152.572 252.317 153.062C252.597 153.552 252.987 153.932 253.497 154.202C254.007 154.472 254.597 154.602 255.267 154.602C255.737 154.602 256.177 154.522 256.587 154.362C256.997 154.202 257.437 153.922 257.907 153.502L258.857 154.832C258.567 155.122 258.207 155.382 257.797 155.592C257.387 155.802 256.937 155.982 256.467 156.112C255.997 156.242 255.537 156.302 255.097 156.302L255.087 156.312Z" fill="black"/>
<path d="M270.81 156.311C269.77 156.311 268.85 156.101 268.05 155.691C267.25 155.281 266.57 154.661 266 153.831L267.35 152.281C267.94 153.131 268.52 153.721 269.06 154.051C269.61 154.381 270.26 154.541 271.01 154.541C271.47 154.541 271.89 154.471 272.27 154.321C272.65 154.171 272.94 153.971 273.16 153.721C273.38 153.471 273.49 153.171 273.49 152.851C273.49 152.631 273.45 152.431 273.38 152.231C273.31 152.031 273.19 151.861 273.04 151.701C272.89 151.541 272.69 151.401 272.46 151.261C272.22 151.131 271.95 151.011 271.63 150.911C271.31 150.811 270.95 150.721 270.54 150.651C269.67 150.481 268.94 150.231 268.36 149.891C267.78 149.551 267.35 149.121 267.07 148.601C266.78 148.081 266.64 147.471 266.64 146.781C266.64 146.271 266.75 145.801 266.98 145.361C267.2 144.921 267.51 144.541 267.91 144.221C268.3 143.901 268.77 143.651 269.3 143.471C269.83 143.291 270.41 143.211 271.03 143.211C272.01 143.211 272.87 143.401 273.61 143.781C274.34 144.161 274.92 144.721 275.35 145.451L273.97 146.821C273.61 146.231 273.17 145.771 272.67 145.451C272.17 145.131 271.61 144.981 270.99 144.981C270.52 144.981 270.1 145.051 269.75 145.201C269.4 145.351 269.12 145.551 268.92 145.811C268.72 146.071 268.62 146.381 268.62 146.731C268.62 146.981 268.67 147.221 268.77 147.431C268.87 147.641 269.02 147.831 269.22 147.991C269.42 148.151 269.69 148.301 270.03 148.431C270.37 148.561 270.78 148.671 271.25 148.771C271.92 148.921 272.51 149.101 273.03 149.331C273.55 149.561 274 149.821 274.36 150.121C274.72 150.421 275 150.761 275.19 151.141C275.38 151.521 275.47 151.921 275.47 152.361C275.47 153.171 275.28 153.881 274.91 154.471C274.53 155.061 274 155.521 273.31 155.841C272.62 156.161 271.79 156.321 270.83 156.321L270.81 156.311ZM269.71 157.781V149.511L271.48 150.111V157.781H269.71ZM272.21 150.121L270.44 149.521V141.891H272.21V150.121Z" fill="black"/>
<path d="M276.906 156.131L281.846 143.381H283.846L288.746 156.131H286.656L283.746 148.451C283.706 148.371 283.636 148.161 283.536 147.831C283.436 147.501 283.316 147.141 283.186 146.741C283.056 146.341 282.936 145.971 282.826 145.641C282.716 145.311 282.646 145.091 282.606 144.991L283.026 144.971C282.956 145.181 282.866 145.441 282.766 145.751C282.666 146.071 282.556 146.401 282.436 146.751C282.316 147.101 282.206 147.431 282.096 147.741C281.986 148.051 281.896 148.311 281.826 148.511L278.926 156.121H276.926L276.906 156.131ZM279.086 152.961L279.816 151.071H285.606L286.446 152.961H279.086Z" fill="black"/>
<path d="M294.917 156.311C294.227 156.311 293.587 156.221 292.997 156.041C292.407 155.861 291.877 155.581 291.397 155.211C290.917 154.841 290.487 154.381 290.117 153.841L291.467 152.291C292.057 153.141 292.637 153.731 293.177 154.061C293.727 154.391 294.377 154.551 295.127 154.551C295.587 154.551 296.007 154.481 296.387 154.331C296.767 154.181 297.057 153.981 297.277 153.731C297.497 153.481 297.607 153.181 297.607 152.861C297.607 152.641 297.567 152.441 297.497 152.241C297.427 152.051 297.317 151.871 297.157 151.711C297.007 151.551 296.807 151.411 296.577 151.271C296.337 151.141 296.067 151.021 295.747 150.921C295.427 150.821 295.067 150.731 294.657 150.661C293.997 150.531 293.427 150.351 292.947 150.131C292.457 149.911 292.057 149.641 291.727 149.311C291.397 148.981 291.157 148.611 290.997 148.191C290.837 147.771 290.757 147.301 290.757 146.781C290.757 146.261 290.867 145.801 291.097 145.361C291.317 144.921 291.627 144.541 292.027 144.221C292.427 143.901 292.887 143.651 293.417 143.471C293.947 143.291 294.527 143.211 295.147 143.211C295.807 143.211 296.407 143.291 296.947 143.461C297.487 143.631 297.977 143.881 298.407 144.221C298.827 144.551 299.187 144.961 299.467 145.451L298.087 146.821C297.847 146.421 297.567 146.081 297.267 145.811C296.967 145.541 296.627 145.331 296.267 145.191C295.907 145.051 295.517 144.981 295.097 144.981C294.627 144.981 294.207 145.051 293.857 145.201C293.507 145.351 293.227 145.551 293.027 145.811C292.827 146.071 292.727 146.381 292.727 146.731C292.727 146.981 292.777 147.221 292.877 147.431C292.977 147.641 293.127 147.831 293.327 147.991C293.527 148.151 293.797 148.301 294.137 148.431C294.477 148.561 294.887 148.671 295.357 148.771C296.027 148.921 296.617 149.101 297.137 149.331C297.657 149.551 298.107 149.821 298.467 150.121C298.827 150.421 299.107 150.761 299.297 151.141C299.487 151.521 299.577 151.921 299.577 152.361C299.577 153.171 299.387 153.881 299.017 154.471C298.637 155.061 298.107 155.521 297.417 155.841C296.727 156.161 295.897 156.321 294.937 156.321L294.917 156.311Z" fill="black"/>
<path d="M304.765 156.131V145.281H301.195V143.391H310.405V145.281H306.725V156.131H304.755H304.765Z" fill="black"/>
<path d="M312.828 156.131V143.381H318.258C318.988 143.381 319.658 143.561 320.268 143.921C320.878 144.281 321.368 144.761 321.738 145.381C322.098 145.991 322.288 146.681 322.288 147.451C322.288 148.141 322.108 148.781 321.738 149.381C321.368 149.981 320.888 150.451 320.278 150.811C319.668 151.171 318.998 151.351 318.258 151.351H314.798V156.141H312.828V156.131ZM314.798 149.441H318.438C318.788 149.441 319.108 149.351 319.388 149.181C319.668 149.001 319.888 148.761 320.048 148.451C320.208 148.141 320.288 147.801 320.288 147.421C320.288 147.001 320.188 146.621 319.988 146.301C319.788 145.981 319.508 145.731 319.148 145.541C318.788 145.361 318.388 145.271 317.938 145.271H314.808V149.441H314.798ZM320.408 156.131L317.168 150.381L319.188 149.921L322.798 156.151L320.408 156.131Z" fill="black"/>
<path d="M325.484 156.131V143.381H327.454V154.231H333.424V156.121H325.484V156.131Z" fill="black"/>
<path d="M341.494 156.131V143.381H343.264L351.054 153.811L350.764 153.971C350.714 153.671 350.674 153.341 350.634 152.981C350.594 152.621 350.564 152.241 350.534 151.831C350.504 151.421 350.484 150.991 350.464 150.541C350.444 150.081 350.434 149.611 350.414 149.111C350.404 148.611 350.394 148.101 350.394 147.561V143.371H352.364V156.121H350.564L342.894 146.071L343.094 145.821C343.154 146.561 343.204 147.191 343.254 147.701C343.294 148.221 343.334 148.651 343.364 149.011C343.394 149.371 343.414 149.661 343.424 149.881C343.434 150.101 343.444 150.291 343.454 150.431C343.454 150.581 343.454 150.701 343.454 150.811V156.111H341.484L341.494 156.131Z" fill="black"/>
<path d="M359.755 156.312C358.825 156.312 357.985 156.102 357.255 155.662C356.525 155.232 355.945 154.642 355.515 153.892C355.095 153.142 354.875 152.292 354.875 151.332C354.875 150.372 355.085 149.522 355.515 148.772C355.935 148.022 356.515 147.442 357.255 147.002C357.985 146.572 358.825 146.352 359.755 146.352C360.685 146.352 361.505 146.562 362.245 147.002C362.975 147.432 363.555 148.022 363.985 148.772C364.405 149.522 364.625 150.372 364.625 151.332C364.625 152.292 364.415 153.142 363.985 153.892C363.565 154.642 362.985 155.222 362.245 155.662C361.515 156.092 360.685 156.312 359.755 156.312ZM359.755 154.602C360.325 154.602 360.835 154.462 361.285 154.172C361.735 153.882 362.085 153.502 362.345 153.002C362.595 152.512 362.725 151.952 362.705 151.332C362.715 150.702 362.595 150.142 362.345 149.652C362.095 149.162 361.735 148.772 361.285 148.492C360.835 148.212 360.325 148.072 359.755 148.072C359.185 148.072 358.675 148.212 358.215 148.502C357.755 148.792 357.405 149.172 357.155 149.672C356.905 150.162 356.775 150.722 356.795 151.342C356.785 151.962 356.905 152.512 357.155 153.012C357.405 153.502 357.765 153.892 358.215 154.182C358.675 154.472 359.185 154.612 359.755 154.612V154.602Z" fill="black"/>
<path d="M368.651 156.131L365.391 146.571L367.281 146.551L369.611 153.711L369.191 153.671L371.721 148.081H372.851L375.401 153.691L374.911 153.731L377.261 146.571H379.151L375.931 156.131H374.641L371.981 150.051L372.401 150.101L369.921 156.131H368.651Z" fill="black"/>
</g>
<defs>
<radialGradient id="paint0_radial_3096_3034" cx="0" cy="0" r="1" gradientUnits="userSpaceOnUse" gradientTransform="translate(315.86 109.154) rotate(17.7302) scale(298.309 298.309)">
<stop stop-color="#13EBEE"/>
<stop offset="1" stop-color="#3C1F8C"/>
</radialGradient>
<clipPath id="clip0_3096_3034">
<rect width="600" height="200" fill="white"/>
</clipPath>
</defs>
</svg>
