<svg width="600" height="200" viewBox="0 0 600 200" fill="none" xmlns="http://www.w3.org/2000/svg">
<path d="M385.36 126H215.05C202.872 126 193 135.872 193 148.05V148.06C193 160.238 202.872 170.11 215.05 170.11H385.36C397.538 170.11 407.41 160.238 407.41 148.06V148.05C407.41 135.872 397.538 126 385.36 126Z" fill="#1D2638"/>
<path d="M214.29 156.789V144.412H210.022V141.851H221.461V144.412H217.065V156.789H214.29ZM222.462 156.789V145.543H225.044L225.087 149.128L224.724 148.317C224.881 147.748 225.151 147.236 225.535 146.781C225.919 146.325 226.36 145.97 226.858 145.714C227.37 145.443 227.904 145.308 228.459 145.308C228.7 145.308 228.928 145.329 229.141 145.372C229.369 145.415 229.554 145.465 229.696 145.522L228.992 148.402C228.836 148.317 228.643 148.246 228.416 148.189C228.188 148.132 227.961 148.104 227.733 148.104C227.377 148.104 227.036 148.175 226.709 148.317C226.396 148.445 226.118 148.63 225.876 148.872C225.635 149.114 225.442 149.398 225.3 149.726C225.172 150.039 225.108 150.394 225.108 150.793V156.789H222.462ZM235.211 157.002C234.287 157.002 233.447 156.746 232.693 156.234C231.939 155.722 231.335 155.025 230.879 154.143C230.424 153.261 230.196 152.258 230.196 151.134C230.196 150.01 230.424 149.007 230.879 148.125C231.335 147.243 231.953 146.553 232.736 146.055C233.518 145.557 234.4 145.308 235.382 145.308C235.951 145.308 236.47 145.394 236.94 145.564C237.409 145.721 237.822 145.948 238.178 146.247C238.533 146.546 238.825 146.887 239.053 147.271C239.294 147.656 239.458 148.068 239.543 148.509L238.967 148.36V145.543H241.613V156.789H238.946V154.1L239.565 153.994C239.465 154.378 239.28 154.755 239.01 155.125C238.754 155.48 238.427 155.8 238.028 156.085C237.644 156.355 237.21 156.576 236.726 156.746C236.257 156.917 235.752 157.002 235.211 157.002ZM235.937 154.676C236.549 154.676 237.089 154.527 237.559 154.228C238.028 153.93 238.391 153.517 238.647 152.991C238.917 152.45 239.053 151.831 239.053 151.134C239.053 150.451 238.917 149.846 238.647 149.32C238.391 148.794 238.028 148.381 237.559 148.082C237.089 147.784 236.549 147.634 235.937 147.634C235.325 147.634 234.785 147.784 234.315 148.082C233.86 148.381 233.504 148.794 233.248 149.32C232.992 149.846 232.864 150.451 232.864 151.134C232.864 151.831 232.992 152.45 233.248 152.991C233.504 153.517 233.86 153.93 234.315 154.228C234.785 154.527 235.325 154.676 235.937 154.676ZM249.181 157.002C248.185 157.002 247.288 156.753 246.492 156.256C245.709 155.743 245.083 155.053 244.614 154.186C244.158 153.304 243.931 152.293 243.931 151.155C243.931 150.031 244.158 149.028 244.614 148.146C245.069 147.264 245.688 146.574 246.47 146.076C247.267 145.564 248.163 145.308 249.159 145.308C249.7 145.308 250.219 145.394 250.717 145.564C251.229 145.735 251.684 145.97 252.083 146.268C252.481 146.553 252.794 146.873 253.022 147.229C253.264 147.584 253.399 147.954 253.427 148.338L252.723 148.424V140.997H255.348V156.789H252.808L252.744 154.143L253.256 154.186C253.242 154.541 253.114 154.883 252.872 155.21C252.645 155.537 252.346 155.836 251.976 156.106C251.606 156.376 251.172 156.597 250.674 156.768C250.191 156.924 249.693 157.002 249.181 157.002ZM249.693 154.783C250.304 154.783 250.845 154.627 251.315 154.314C251.784 154.001 252.147 153.574 252.403 153.033C252.673 152.493 252.808 151.867 252.808 151.155C252.808 150.458 252.673 149.839 252.403 149.299C252.147 148.744 251.784 148.317 251.315 148.018C250.845 147.705 250.304 147.549 249.693 147.549C249.081 147.549 248.54 147.705 248.071 148.018C247.601 148.317 247.231 148.744 246.961 149.299C246.705 149.839 246.577 150.458 246.577 151.155C246.577 151.867 246.705 152.493 246.961 153.033C247.231 153.574 247.601 154.001 248.071 154.314C248.54 154.627 249.081 154.783 249.693 154.783ZM263.598 157.002C262.418 157.002 261.372 156.753 260.461 156.256C259.565 155.758 258.861 155.082 258.349 154.228C257.851 153.36 257.602 152.372 257.602 151.262C257.602 150.38 257.744 149.576 258.029 148.851C258.313 148.125 258.704 147.499 259.202 146.973C259.714 146.432 260.319 146.019 261.016 145.735C261.728 145.436 262.503 145.287 263.342 145.287C264.082 145.287 264.772 145.429 265.412 145.714C266.052 145.998 266.607 146.389 267.077 146.887C267.546 147.371 267.902 147.954 268.144 148.637C268.4 149.306 268.521 150.039 268.507 150.835L268.485 151.753H259.373L258.882 149.96H266.287L265.946 150.323V149.854C265.903 149.413 265.761 149.028 265.519 148.701C265.277 148.36 264.964 148.097 264.58 147.912C264.21 147.712 263.798 147.613 263.342 147.613C262.645 147.613 262.055 147.748 261.571 148.018C261.102 148.289 260.746 148.68 260.504 149.192C260.262 149.69 260.141 150.316 260.141 151.07C260.141 151.796 260.291 152.429 260.589 152.969C260.902 153.51 261.336 153.93 261.891 154.228C262.46 154.513 263.122 154.655 263.876 154.655C264.402 154.655 264.886 154.57 265.327 154.399C265.768 154.228 266.244 153.922 266.757 153.481L268.058 155.295C267.674 155.651 267.233 155.957 266.735 156.213C266.252 156.455 265.739 156.647 265.199 156.789C264.658 156.931 264.125 157.002 263.598 157.002ZM282.311 157.002C281.031 157.002 279.907 156.768 278.939 156.298C277.972 155.829 277.147 155.139 276.464 154.228L278.107 152.073C278.833 153.012 279.537 153.666 280.22 154.036C280.903 154.406 281.671 154.591 282.524 154.591C283.008 154.591 283.449 154.52 283.848 154.378C284.246 154.221 284.559 154.015 284.786 153.759C285.014 153.488 285.128 153.183 285.128 152.841C285.128 152.599 285.078 152.379 284.979 152.18C284.893 151.966 284.758 151.781 284.573 151.625C284.388 151.454 284.16 151.298 283.89 151.155C283.62 151.013 283.314 150.892 282.973 150.793C282.631 150.693 282.254 150.6 281.842 150.515C280.789 150.302 279.914 149.996 279.217 149.597C278.534 149.185 278.022 148.673 277.68 148.061C277.339 147.449 277.168 146.731 277.168 145.906C277.168 145.28 277.303 144.704 277.574 144.177C277.858 143.651 278.242 143.195 278.726 142.811C279.21 142.427 279.772 142.128 280.412 141.915C281.052 141.702 281.742 141.595 282.482 141.595C283.648 141.595 284.68 141.808 285.576 142.235C286.472 142.648 287.212 143.267 287.795 144.092L286.216 146.012C285.733 145.358 285.171 144.867 284.53 144.54C283.904 144.198 283.222 144.028 282.482 144.028C281.97 144.028 281.521 144.099 281.137 144.241C280.767 144.383 280.476 144.59 280.262 144.86C280.049 145.116 279.942 145.429 279.942 145.799C279.942 146.083 280.006 146.34 280.134 146.567C280.262 146.781 280.44 146.973 280.668 147.143C280.91 147.314 281.216 147.463 281.585 147.592C281.955 147.72 282.375 147.833 282.845 147.933C283.627 148.089 284.331 148.303 284.957 148.573C285.583 148.829 286.117 149.142 286.558 149.512C286.999 149.868 287.333 150.28 287.561 150.75C287.788 151.205 287.902 151.717 287.902 152.286C287.902 153.268 287.667 154.114 287.198 154.826C286.743 155.523 286.095 156.064 285.256 156.448C284.417 156.818 283.435 157.002 282.311 157.002ZM281.031 158.731L281.116 148.957L283.058 149.662L283.143 158.731H281.031ZM283.805 149.662L281.863 148.957L281.778 140.059H283.89L283.805 149.662ZM300.555 156.789V141.851H303.329V156.789H300.555ZM290.974 156.789V141.851H293.748V156.789H290.974ZM292.126 150.643V148.04H301.9V150.643H292.126ZM307.354 156.789V141.851H309.85L318.514 153.524L318.045 153.609C317.988 153.211 317.938 152.806 317.896 152.393C317.853 151.966 317.81 151.525 317.768 151.07C317.739 150.615 317.711 150.138 317.682 149.64C317.668 149.142 317.654 148.623 317.64 148.082C317.625 147.528 317.618 146.944 317.618 146.332V141.851H320.371V156.789H317.832L309.125 145.287L309.68 145.137C309.751 145.934 309.808 146.617 309.85 147.186C309.907 147.741 309.95 148.225 309.978 148.637C310.007 149.036 310.028 149.37 310.043 149.64C310.071 149.91 310.085 150.159 310.085 150.387C310.099 150.6 310.107 150.807 310.107 151.006V156.789H307.354ZM328.349 156.789V149.341L328.498 150.387L322.459 141.851H325.703L330.312 148.466L329.309 148.402L333.471 141.851H336.586L330.803 150.622L331.123 149.171V156.789H328.349ZM344.949 156.789V141.851H347.446L356.11 153.524L355.64 153.609C355.583 153.211 355.533 152.806 355.491 152.393C355.448 151.966 355.405 151.525 355.363 151.07C355.334 150.615 355.306 150.138 355.277 149.64C355.263 149.142 355.249 148.623 355.235 148.082C355.22 147.528 355.213 146.944 355.213 146.332V141.851H357.966V156.789H355.427L346.72 145.287L347.275 145.137C347.346 145.934 347.403 146.617 347.446 147.186C347.502 147.741 347.545 148.225 347.574 148.637C347.602 149.036 347.623 149.37 347.638 149.64C347.666 149.91 347.68 150.159 347.68 150.387C347.695 150.6 347.702 150.807 347.702 151.006V156.789H344.949ZM366.648 157.002C365.524 157.002 364.521 156.753 363.639 156.256C362.757 155.743 362.06 155.046 361.548 154.164C361.036 153.282 360.78 152.279 360.78 151.155C360.78 150.031 361.036 149.028 361.548 148.146C362.06 147.264 362.757 146.574 363.639 146.076C364.521 145.564 365.524 145.308 366.648 145.308C367.758 145.308 368.754 145.564 369.636 146.076C370.518 146.574 371.208 147.264 371.706 148.146C372.218 149.028 372.474 150.031 372.474 151.155C372.474 152.279 372.218 153.282 371.706 154.164C371.208 155.046 370.518 155.743 369.636 156.256C368.754 156.753 367.758 157.002 366.648 157.002ZM366.648 154.676C367.26 154.676 367.801 154.52 368.27 154.207C368.754 153.894 369.131 153.474 369.401 152.948C369.686 152.421 369.821 151.824 369.807 151.155C369.821 150.472 369.686 149.868 369.401 149.341C369.131 148.815 368.754 148.402 368.27 148.104C367.801 147.791 367.26 147.634 366.648 147.634C366.037 147.634 365.482 147.791 364.984 148.104C364.5 148.402 364.123 148.822 363.853 149.363C363.583 149.889 363.447 150.487 363.447 151.155C363.447 151.824 363.583 152.421 363.853 152.948C364.123 153.474 364.5 153.894 364.984 154.207C365.482 154.52 366.037 154.676 366.648 154.676ZM377.051 156.789L373.274 145.543L375.963 145.522L378.481 153.545L378.012 153.503L380.743 147.229H382.322L385.118 153.503L384.563 153.567L387.103 145.543H389.791L385.993 156.789H384.115L381.234 150.046L381.64 150.088L378.908 156.789H377.051Z" fill="white"/>
<path d="M130.838 100.26C130.249 100.26 129.694 100.182 129.174 100.026C128.654 99.8873 128.169 99.6793 127.718 99.402C127.267 99.1073 126.86 98.752 126.496 98.336C126.132 97.92 125.811 97.4607 125.534 96.958L126.886 95.554C127.198 96.074 127.51 96.5073 127.822 96.854C128.151 97.2007 128.472 97.478 128.784 97.686C129.113 97.894 129.443 98.0413 129.772 98.128C130.119 98.2147 130.474 98.258 130.838 98.258C131.549 98.258 132.173 98.0933 132.71 97.764C133.265 97.4173 133.689 96.9493 133.984 96.36C134.296 95.7533 134.452 95.0687 134.452 94.306V83.724H131.15V81.8H139.21V83.724H136.532V94.462C136.532 95.294 136.393 96.0653 136.116 96.776C135.839 97.4867 135.449 98.102 134.946 98.622C134.443 99.142 133.845 99.5493 133.152 99.844C132.459 100.121 131.687 100.26 130.838 100.26ZM147.037 100.26C145.685 100.26 144.48 99.9567 143.423 99.35C142.383 98.7433 141.559 97.9027 140.953 96.828C140.363 95.7533 140.069 94.5313 140.069 93.162C140.069 91.81 140.363 90.6053 140.953 89.548C141.559 88.4907 142.383 87.6587 143.423 87.052C144.48 86.4453 145.685 86.142 147.037 86.142C148.371 86.142 149.559 86.4453 150.599 87.052C151.656 87.6587 152.479 88.4907 153.069 89.548C153.675 90.6053 153.979 91.81 153.979 93.162C153.979 94.5313 153.675 95.7533 153.069 96.828C152.479 97.9027 151.656 98.7433 150.599 99.35C149.559 99.9567 148.371 100.26 147.037 100.26ZM147.037 98.414C147.99 98.414 148.839 98.1887 149.585 97.738C150.33 97.27 150.911 96.646 151.327 95.866C151.743 95.0687 151.951 94.1673 151.951 93.162C151.951 92.1567 151.743 91.264 151.327 90.484C150.911 89.704 150.33 89.0973 149.585 88.664C148.839 88.2133 147.99 87.988 147.037 87.988C146.083 87.988 145.225 88.2133 144.463 88.664C143.717 89.0973 143.128 89.7127 142.695 90.51C142.279 91.29 142.079 92.174 142.097 93.162C142.079 94.1673 142.279 95.0687 142.695 95.866C143.128 96.646 143.717 97.27 144.463 97.738C145.225 98.1887 146.083 98.414 147.037 98.414ZM157.344 100V86.428H159.294V100H157.344ZM158.306 83.49C157.82 83.49 157.448 83.3687 157.188 83.126C156.945 82.866 156.824 82.5193 156.824 82.086C156.824 81.6527 156.954 81.306 157.214 81.046C157.474 80.786 157.838 80.656 158.306 80.656C158.774 80.656 159.138 80.786 159.398 81.046C159.658 81.2887 159.788 81.6353 159.788 82.086C159.788 82.502 159.658 82.84 159.398 83.1C159.138 83.36 158.774 83.49 158.306 83.49ZM163.552 100V86.428H165.476L165.554 89.262L165.242 89.392C165.416 88.8027 165.754 88.2653 166.256 87.78C166.759 87.2947 167.357 86.9047 168.05 86.61C168.761 86.298 169.489 86.142 170.234 86.142C171.24 86.142 172.08 86.3413 172.756 86.74C173.432 87.1387 173.944 87.754 174.29 88.586C174.637 89.418 174.81 90.4753 174.81 91.758V100H172.834V91.862C172.834 90.9607 172.713 90.224 172.47 89.652C172.245 89.0627 171.89 88.6293 171.404 88.352C170.919 88.0747 170.321 87.9447 169.61 87.962C169.021 87.962 168.475 88.066 167.972 88.274C167.47 88.4647 167.036 88.7333 166.672 89.08C166.308 89.4267 166.022 89.8253 165.814 90.276C165.606 90.7267 165.502 91.212 165.502 91.732V100H164.54C164.419 100 164.28 100 164.124 100C163.968 100 163.778 100 163.552 100ZM191.904 100.26C190.517 100.26 189.252 99.974 188.108 99.402C186.964 98.83 186.019 98.0413 185.274 97.036L186.678 95.476C187.458 96.464 188.264 97.192 189.096 97.66C189.945 98.128 190.942 98.362 192.086 98.362C192.866 98.362 193.577 98.232 194.218 97.972C194.859 97.712 195.362 97.348 195.726 96.88C196.09 96.412 196.272 95.8747 196.272 95.268C196.272 94.8867 196.211 94.54 196.09 94.228C195.969 93.916 195.778 93.6387 195.518 93.396C195.275 93.1533 194.963 92.9367 194.582 92.746C194.218 92.5553 193.785 92.382 193.282 92.226C192.779 92.07 192.207 91.914 191.566 91.758C190.387 91.498 189.391 91.1513 188.576 90.718C187.779 90.2673 187.172 89.704 186.756 89.028C186.357 88.3347 186.158 87.5113 186.158 86.558C186.158 85.8473 186.305 85.1887 186.6 84.582C186.912 83.9753 187.337 83.4553 187.874 83.022C188.411 82.5713 189.044 82.2247 189.772 81.982C190.5 81.7393 191.28 81.618 192.112 81.618C193.516 81.618 194.712 81.8867 195.7 82.424C196.688 82.944 197.477 83.6547 198.066 84.556L196.636 85.986C196.116 85.2233 195.475 84.6167 194.712 84.166C193.949 83.7153 193.074 83.49 192.086 83.49C191.323 83.49 190.647 83.62 190.058 83.88C189.486 84.14 189.035 84.504 188.706 84.972C188.377 85.4227 188.212 85.9427 188.212 86.532C188.212 86.9653 188.29 87.3467 188.446 87.676C188.602 87.988 188.836 88.2653 189.148 88.508C189.477 88.7507 189.919 88.976 190.474 89.184C191.029 89.392 191.696 89.5913 192.476 89.782C193.395 89.99 194.209 90.25 194.92 90.562C195.648 90.874 196.263 91.238 196.766 91.654C197.286 92.0527 197.676 92.5207 197.936 93.058C198.196 93.5953 198.326 94.202 198.326 94.878C198.326 95.9527 198.057 96.8973 197.52 97.712C196.983 98.5093 196.229 99.1333 195.258 99.584C194.305 100.035 193.187 100.26 191.904 100.26ZM190.812 102.366V90.562L192.71 91.42V102.366H190.812ZM193.256 91.42L191.384 90.562V79.668H193.256V91.42ZM214.586 100V81.8H216.614V100H214.586ZM202.418 100V81.8H204.446V100H202.418ZM203.406 91.914V89.938H215.444V91.914H203.406ZM221.969 100V81.8H223.815L235.723 97.556L235.359 98.024C235.307 97.7467 235.264 97.3307 235.229 96.776C235.212 96.2213 235.186 95.5973 235.151 94.904C235.134 94.1933 235.116 93.4567 235.099 92.694C235.082 91.9313 235.064 91.186 235.047 90.458C235.047 89.73 235.047 89.0713 235.047 88.482V81.8H237.075V100H235.177L223.321 84.452L223.633 83.906C223.685 84.5993 223.728 85.284 223.763 85.96C223.815 86.636 223.85 87.286 223.867 87.91C223.902 88.534 223.928 89.106 223.945 89.626C223.962 90.146 223.971 90.588 223.971 90.952C223.988 91.316 223.997 91.576 223.997 91.732V100H221.969ZM247.4 100V90.926L247.582 92.2L240.224 81.8H242.694L248.726 90.432L248.18 90.38L253.718 81.8H256.058L249.012 92.486L249.402 90.718V100H247.4ZM265.751 100V80.76H267.701V100H265.751ZM272.059 100V86.428H274.009V100H272.059ZM273.021 83.49C272.535 83.49 272.163 83.3687 271.903 83.126C271.66 82.866 271.539 82.5193 271.539 82.086C271.539 81.6527 271.669 81.306 271.929 81.046C272.189 80.786 272.553 80.656 273.021 80.656C273.489 80.656 273.853 80.786 274.113 81.046C274.373 81.2887 274.503 81.6353 274.503 82.086C274.503 82.502 274.373 82.84 274.113 83.1C273.853 83.36 273.489 83.49 273.021 83.49ZM288.641 105.72V96.672L289.057 96.438C288.988 96.9233 288.788 97.4 288.459 97.868C288.147 98.3187 287.748 98.726 287.263 99.09C286.778 99.454 286.232 99.74 285.625 99.948C285.018 100.156 284.394 100.26 283.753 100.26C282.522 100.26 281.422 99.9567 280.451 99.35C279.48 98.7433 278.709 97.9113 278.137 96.854C277.582 95.7793 277.305 94.566 277.305 93.214C277.305 91.8447 277.582 90.6313 278.137 89.574C278.709 88.4993 279.48 87.6587 280.451 87.052C281.422 86.4453 282.505 86.142 283.701 86.142C284.394 86.142 285.044 86.2547 285.651 86.48C286.275 86.688 286.838 86.974 287.341 87.338C287.844 87.702 288.26 88.1267 288.589 88.612C288.918 89.08 289.118 89.574 289.187 90.094L288.563 89.938L288.641 86.402H290.591V105.72H288.641ZM283.987 98.388C284.888 98.388 285.694 98.1713 286.405 97.738C287.133 97.2873 287.705 96.672 288.121 95.892C288.537 95.112 288.745 94.2107 288.745 93.188C288.745 92.1827 288.537 91.29 288.121 90.51C287.705 89.73 287.142 89.1147 286.431 88.664C285.72 88.2133 284.906 87.988 283.987 87.988C283.068 87.988 282.254 88.2133 281.543 88.664C280.832 89.1147 280.269 89.73 279.853 90.51C279.454 91.29 279.255 92.1827 279.255 93.188C279.255 94.176 279.454 95.0687 279.853 95.866C280.252 96.646 280.806 97.2613 281.517 97.712C282.228 98.1627 283.051 98.388 283.987 98.388ZM299.2 100.26C298.16 100.26 297.276 100.052 296.548 99.636C295.838 99.2027 295.292 98.5787 294.91 97.764C294.546 96.9493 294.364 95.9353 294.364 94.722V86.428H296.34V94.332C296.34 95.2507 296.462 96.022 296.704 96.646C296.964 97.2527 297.346 97.712 297.848 98.024C298.368 98.336 299.001 98.492 299.746 98.492C300.318 98.492 300.847 98.3967 301.332 98.206C301.818 97.998 302.242 97.7207 302.606 97.374C302.97 97.0273 303.256 96.62 303.464 96.152C303.672 95.684 303.776 95.19 303.776 94.67V86.428H305.726V100H303.802L303.724 97.14L304.036 96.984C303.828 97.5907 303.482 98.1453 302.996 98.648C302.511 99.1333 301.93 99.5233 301.254 99.818C300.596 100.113 299.911 100.26 299.2 100.26ZM310.043 100V86.428H311.993V100H310.043ZM311.005 83.49C310.52 83.49 310.147 83.3687 309.887 83.126C309.644 82.866 309.523 82.5193 309.523 82.086C309.523 81.6527 309.653 81.306 309.913 81.046C310.173 80.786 310.537 80.656 311.005 80.656C311.473 80.656 311.837 80.786 312.097 81.046C312.357 81.2887 312.487 81.6353 312.487 82.086C312.487 82.502 312.357 82.84 312.097 83.1C311.837 83.36 311.473 83.49 311.005 83.49ZM321.764 100.26C320.533 100.26 319.424 99.9567 318.436 99.35C317.465 98.7433 316.694 97.9113 316.122 96.854C315.567 95.7793 315.29 94.566 315.29 93.214C315.29 91.8447 315.576 90.6313 316.148 89.574C316.72 88.4993 317.491 87.6587 318.462 87.052C319.432 86.4453 320.524 86.142 321.738 86.142C322.414 86.142 323.064 86.246 323.688 86.454C324.329 86.662 324.901 86.9567 325.404 87.338C325.906 87.702 326.322 88.1267 326.652 88.612C326.981 89.08 327.18 89.574 327.25 90.094L326.652 89.886V80.76H328.602V100H326.678L326.626 96.62L327.12 96.438C327.05 96.9233 326.851 97.4 326.522 97.868C326.21 98.3187 325.811 98.726 325.326 99.09C324.84 99.454 324.286 99.74 323.662 99.948C323.055 100.156 322.422 100.26 321.764 100.26ZM322.05 98.466C322.951 98.466 323.757 98.2407 324.468 97.79C325.178 97.3393 325.733 96.7153 326.132 95.918C326.548 95.1207 326.756 94.2107 326.756 93.188C326.756 92.1653 326.548 91.264 326.132 90.484C325.733 89.6867 325.178 89.0627 324.468 88.612C323.757 88.144 322.951 87.91 322.05 87.91C321.114 87.91 320.29 88.144 319.58 88.612C318.886 89.0627 318.332 89.6867 317.916 90.484C317.517 91.264 317.318 92.1653 317.318 93.188C317.318 94.1933 317.517 95.0947 317.916 95.892C318.314 96.6893 318.869 97.322 319.58 97.79C320.29 98.2407 321.114 98.466 322.05 98.466ZM332.92 100V86.428H334.87V100H332.92ZM333.882 83.49C333.397 83.49 333.024 83.3687 332.764 83.126C332.521 82.866 332.4 82.5193 332.4 82.086C332.4 81.6527 332.53 81.306 332.79 81.046C333.05 80.786 333.414 80.656 333.882 80.656C334.35 80.656 334.714 80.786 334.974 81.046C335.234 81.2887 335.364 81.6353 335.364 82.086C335.364 82.502 335.234 82.84 334.974 83.1C334.714 83.36 334.35 83.49 333.882 83.49ZM341 100V82.866H342.95V100H341ZM337.932 88.3V86.428H346.382V88.3H337.932ZM351.065 105.98L353.691 99.584L353.873 101.43L347.061 86.428H349.271L353.925 96.828C354.064 97.1053 354.202 97.4347 354.341 97.816C354.48 98.18 354.61 98.544 354.731 98.908L354.003 98.83C354.124 98.5353 354.237 98.232 354.341 97.92C354.462 97.608 354.575 97.3047 354.679 97.01L358.761 86.428H360.997L355.511 100L353.171 105.98H351.065ZM370.334 105.72V86.428H372.284L372.336 89.73L371.972 89.782C372.128 89.1233 372.466 88.5253 372.986 87.988C373.506 87.4333 374.138 86.9913 374.884 86.662C375.629 86.3327 376.418 86.168 377.25 86.168C378.463 86.168 379.546 86.4713 380.5 87.078C381.47 87.6847 382.242 88.5167 382.814 89.574C383.386 90.6313 383.672 91.8447 383.672 93.214C383.672 94.566 383.394 95.7707 382.84 96.828C382.285 97.8853 381.522 98.726 380.552 99.35C379.581 99.9567 378.489 100.26 377.276 100.26C376.426 100.26 375.62 100.087 374.858 99.74C374.095 99.3933 373.445 98.9427 372.908 98.388C372.37 97.816 372.015 97.2007 371.842 96.542H372.31V105.72H370.334ZM376.964 98.388C377.882 98.388 378.697 98.1627 379.408 97.712C380.118 97.2613 380.682 96.646 381.098 95.866C381.514 95.086 381.722 94.202 381.722 93.214C381.722 92.2087 381.514 91.316 381.098 90.536C380.682 89.756 380.118 89.1407 379.408 88.69C378.697 88.2393 377.882 88.014 376.964 88.014C376.045 88.014 375.222 88.2393 374.494 88.69C373.783 89.1233 373.22 89.73 372.804 90.51C372.388 91.29 372.18 92.1827 372.18 93.188C372.18 94.1933 372.388 95.086 372.804 95.866C373.22 96.646 373.783 97.2613 374.494 97.712C375.222 98.1627 376.045 98.388 376.964 98.388ZM386.507 100V86.428H388.457L388.509 90.042L388.301 89.548C388.492 88.9413 388.795 88.378 389.211 87.858C389.645 87.338 390.156 86.922 390.745 86.61C391.335 86.298 391.985 86.142 392.695 86.142C392.99 86.142 393.267 86.168 393.527 86.22C393.787 86.2547 394.004 86.3067 394.177 86.376L393.631 88.56C393.406 88.456 393.172 88.3867 392.929 88.352C392.704 88.3 392.487 88.274 392.279 88.274C391.69 88.274 391.161 88.378 390.693 88.586C390.225 88.794 389.827 89.0887 389.497 89.47C389.168 89.834 388.917 90.2587 388.743 90.744C388.57 91.2293 388.483 91.7493 388.483 92.304V100H386.507ZM401.629 100.26C400.277 100.26 399.072 99.9567 398.015 99.35C396.975 98.7433 396.151 97.9027 395.545 96.828C394.955 95.7533 394.661 94.5313 394.661 93.162C394.661 91.81 394.955 90.6053 395.545 89.548C396.151 88.4907 396.975 87.6587 398.015 87.052C399.072 86.4453 400.277 86.142 401.629 86.142C402.963 86.142 404.151 86.4453 405.191 87.052C406.248 87.6587 407.071 88.4907 407.661 89.548C408.267 90.6053 408.571 91.81 408.571 93.162C408.571 94.5313 408.267 95.7533 407.661 96.828C407.071 97.9027 406.248 98.7433 405.191 99.35C404.151 99.9567 402.963 100.26 401.629 100.26ZM401.629 98.414C402.582 98.414 403.431 98.1887 404.177 97.738C404.922 97.27 405.503 96.646 405.919 95.866C406.335 95.0687 406.543 94.1673 406.543 93.162C406.543 92.1567 406.335 91.264 405.919 90.484C405.503 89.704 404.922 89.0973 404.177 88.664C403.431 88.2133 402.582 87.988 401.629 87.988C400.675 87.988 399.817 88.2133 399.055 88.664C398.309 89.0973 397.72 89.7127 397.287 90.51C396.871 91.29 396.671 92.174 396.689 93.162C396.671 94.1673 396.871 95.0687 397.287 95.866C397.72 96.646 398.309 97.27 399.055 97.738C399.817 98.1887 400.675 98.414 401.629 98.414ZM417.266 105.98C416.26 105.98 415.307 105.824 414.406 105.512C413.504 105.2 412.759 104.81 412.17 104.342L412.95 102.704C413.296 102.981 413.695 103.224 414.146 103.432C414.614 103.657 415.116 103.831 415.654 103.952C416.191 104.091 416.737 104.16 417.292 104.16C418.297 104.16 419.146 103.969 419.84 103.588C420.55 103.224 421.088 102.678 421.452 101.95C421.833 101.222 422.024 100.321 422.024 99.246V96.646L422.336 96.568C422.18 97.2267 421.842 97.842 421.322 98.414C420.802 98.9687 420.169 99.4193 419.424 99.766C418.678 100.095 417.89 100.26 417.058 100.26C415.792 100.26 414.657 99.9567 413.652 99.35C412.664 98.7433 411.884 97.9113 411.312 96.854C410.74 95.7793 410.454 94.566 410.454 93.214C410.454 91.8447 410.74 90.6313 411.312 89.574C411.901 88.4993 412.69 87.6587 413.678 87.052C414.666 86.4453 415.775 86.142 417.006 86.142C417.543 86.142 418.063 86.2113 418.566 86.35C419.068 86.4713 419.528 86.6533 419.944 86.896C420.377 87.1387 420.767 87.416 421.114 87.728C421.46 88.04 421.746 88.378 421.972 88.742C422.214 89.106 422.388 89.4787 422.492 89.86L421.946 89.782L422.024 86.428H423.974V99.168C423.974 100.26 423.818 101.222 423.506 102.054C423.194 102.903 422.734 103.614 422.128 104.186C421.538 104.775 420.828 105.217 419.996 105.512C419.181 105.824 418.271 105.98 417.266 105.98ZM417.292 98.388C418.21 98.388 419.025 98.1713 419.736 97.738C420.464 97.2873 421.036 96.672 421.452 95.892C421.868 95.112 422.076 94.2107 422.076 93.188C422.076 92.1827 421.868 91.29 421.452 90.51C421.053 89.73 420.49 89.1147 419.762 88.664C419.034 88.2133 418.21 87.988 417.292 87.988C416.356 87.988 415.524 88.2133 414.796 88.664C414.085 89.1147 413.522 89.73 413.106 90.51C412.69 91.29 412.482 92.1827 412.482 93.188C412.482 94.176 412.681 95.0687 413.08 95.866C413.496 96.646 414.059 97.2613 414.77 97.712C415.498 98.1627 416.338 98.388 417.292 98.388ZM427.767 100V86.428H429.717L429.769 90.042L429.561 89.548C429.752 88.9413 430.055 88.378 430.471 87.858C430.904 87.338 431.416 86.922 432.005 86.61C432.594 86.298 433.244 86.142 433.955 86.142C434.25 86.142 434.527 86.168 434.787 86.22C435.047 86.2547 435.264 86.3067 435.437 86.376L434.891 88.56C434.666 88.456 434.432 88.3867 434.189 88.352C433.964 88.3 433.747 88.274 433.539 88.274C432.95 88.274 432.421 88.378 431.953 88.586C431.485 88.794 431.086 89.0887 430.757 89.47C430.428 89.834 430.176 90.2587 430.003 90.744C429.83 91.2293 429.743 91.7493 429.743 92.304V100H427.767ZM442.186 100.26C441.008 100.26 439.942 99.9567 438.988 99.35C438.035 98.726 437.281 97.8853 436.726 96.828C436.172 95.7533 435.894 94.54 435.894 93.188C435.894 91.8187 436.18 90.6053 436.752 89.548C437.324 88.4907 438.087 87.6587 439.04 87.052C440.011 86.4453 441.094 86.142 442.29 86.142C443.001 86.142 443.66 86.246 444.266 86.454C444.873 86.662 445.41 86.9567 445.878 87.338C446.364 87.702 446.762 88.1353 447.074 88.638C447.404 89.1233 447.629 89.652 447.75 90.224L447.178 89.938L447.256 86.428H449.206V100H447.23V96.672L447.75 96.334C447.629 96.854 447.395 97.3567 447.048 97.842C446.702 98.31 446.277 98.726 445.774 99.09C445.289 99.454 444.734 99.74 444.11 99.948C443.504 100.156 442.862 100.26 442.186 100.26ZM442.628 98.388C443.53 98.388 444.336 98.1713 445.046 97.738C445.757 97.2873 446.312 96.672 446.71 95.892C447.126 95.0947 447.334 94.1933 447.334 93.188C447.334 92.1827 447.126 91.29 446.71 90.51C446.312 89.73 445.757 89.1147 445.046 88.664C444.336 88.2133 443.53 87.988 442.628 87.988C441.71 87.988 440.895 88.2133 440.184 88.664C439.491 89.1147 438.936 89.73 438.52 90.51C438.122 91.29 437.922 92.1827 437.922 93.188C437.922 94.176 438.122 95.0687 438.52 95.866C438.919 96.646 439.474 97.2613 440.184 97.712C440.895 98.1627 441.71 98.388 442.628 98.388ZM452.979 100V86.428H454.929L454.981 89.522L454.591 89.652C454.73 89.132 454.955 88.664 455.267 88.248C455.597 87.8147 455.987 87.442 456.437 87.13C456.888 86.818 457.382 86.584 457.919 86.428C458.457 86.2547 459.02 86.168 459.609 86.168C460.32 86.168 460.953 86.2893 461.507 86.532C462.079 86.7573 462.556 87.156 462.937 87.728C463.336 88.2827 463.639 89.0193 463.847 89.938L463.379 89.704L463.561 89.262C463.735 88.8633 463.986 88.482 464.315 88.118C464.662 87.7367 465.052 87.3987 465.485 87.104C465.936 86.8093 466.421 86.584 466.941 86.428C467.479 86.2547 468.025 86.168 468.579 86.168C469.533 86.168 470.339 86.376 470.997 86.792C471.656 87.1907 472.15 87.806 472.479 88.638C472.826 89.47 472.999 90.5273 472.999 91.81V100H470.997V91.914C470.997 91.0127 470.885 90.276 470.659 89.704C470.434 89.132 470.096 88.7073 469.645 88.43C469.212 88.1353 468.657 87.988 467.981 87.988C467.392 87.988 466.846 88.092 466.343 88.3C465.858 88.4907 465.433 88.768 465.069 89.132C464.723 89.4787 464.445 89.8773 464.237 90.328C464.047 90.7787 463.951 91.264 463.951 91.784V100H461.975V91.888C461.975 91.0213 461.854 90.302 461.611 89.73C461.386 89.158 461.048 88.7247 460.597 88.43C460.147 88.1353 459.592 87.988 458.933 87.988C458.361 87.988 457.833 88.092 457.347 88.3C456.862 88.4907 456.437 88.7593 456.073 89.106C455.727 89.4527 455.449 89.8513 455.241 90.302C455.051 90.7527 454.955 91.238 454.955 91.758V100H452.979Z" fill="#1D2638"/>
<path d="M381.476 65.5794C379.636 63.0094 377.836 60.4894 375.976 57.8994C380.356 54.7394 384.706 51.6194 389.136 48.4194C384.406 45.0294 379.756 41.6894 375.016 38.2994C376.846 35.7394 378.646 33.1994 380.496 30.6094C388.776 36.5394 397.006 42.4294 405.346 48.4094C397.356 54.1594 389.446 59.8494 381.476 65.5894V65.5794Z" fill="#1D2638"/>
<path d="M429.148 39.6789C430.728 39.6789 432.258 39.6589 433.788 39.6789C435.238 39.6989 436.688 39.5389 438.128 39.8589C441.788 40.6789 444.228 43.6389 444.398 47.4789C444.458 48.7989 444.348 50.0989 443.928 51.3589C442.858 54.5689 440.008 56.6689 436.618 56.7089C434.318 56.7289 432.018 56.7189 429.728 56.7189C429.548 56.7189 429.378 56.6989 429.148 56.6789V39.6889V39.6789ZM432.908 53.3589C434.208 53.3389 435.438 53.4589 436.658 53.2789C438.658 52.9989 439.968 51.7989 440.428 49.8789C440.618 49.0889 440.658 48.2789 440.578 47.4789C440.408 45.6789 439.698 44.1989 437.948 43.4489C436.338 42.7489 434.628 43.1089 432.908 43.0489V53.3689V53.3589Z" fill="#1D2638"/>
<path d="M551.224 56.709C550.074 54.669 548.954 52.689 547.824 50.689H545.274V56.669H541.664V39.779C541.904 39.619 542.144 39.679 542.384 39.679C544.644 39.679 546.904 39.679 549.154 39.679C551.804 39.679 553.954 41.229 554.624 43.599C555.314 46.069 554.344 48.479 552.074 49.889C551.974 49.949 551.884 50.019 551.744 50.129C552.994 52.299 554.244 54.449 555.544 56.709H551.214H551.224ZM545.314 47.559C546.574 47.559 547.774 47.559 548.974 47.559C550.054 47.549 550.814 46.939 551.034 45.959C551.304 44.719 550.904 43.659 549.904 43.239C548.414 42.619 546.864 43.009 545.314 42.919V47.569V47.559Z" fill="#1D2638"/>
<path d="M407.652 46.3496C405.102 44.5096 402.602 42.7096 399.992 40.8296C404.752 37.4096 409.432 34.0296 414.212 30.5996C416.042 33.1596 417.852 35.6896 419.712 38.2796C415.672 40.9796 411.692 43.6496 407.652 46.3496Z" fill="#1D2638"/>
<path d="M407.658 50.4805C411.408 53.0305 415.128 55.5705 418.928 58.1505C417.098 60.7205 415.318 63.2405 413.458 65.8505C408.988 62.6605 404.558 59.5005 400.008 56.2605C402.598 54.3005 405.098 52.4105 407.658 50.4805Z" fill="#1D2638"/>
<path d="M457.518 53.4002H465.478C465.568 54.5402 465.558 55.5902 465.478 56.6802H453.828V39.7402H465.268V42.9802H457.508V46.3702H464.128C464.238 47.5002 464.198 48.5102 464.148 49.6302H457.508V53.4002H457.518Z" fill="#1D2638"/>
<path d="M520.008 39.7188H531.458V42.9587H523.708V46.3887H530.318V49.6488H523.688V53.3988H531.658C531.738 54.5588 531.738 55.6087 531.658 56.6887H520.008V39.7287V39.7188Z" fill="#1D2638"/>
<path d="M477.725 56.6887H473.375C475.445 53.7287 477.445 50.8788 479.455 47.9888C477.485 45.2488 475.535 42.5387 473.515 39.7287H478.105C479.305 41.4887 480.555 43.3088 481.865 45.2188C483.115 43.3088 484.305 41.4987 485.475 39.7188H489.825C487.845 42.6188 485.925 45.4187 483.985 48.2587C485.995 51.0287 487.995 53.7887 490.055 56.6387H485.465C484.225 54.8487 482.935 52.9787 481.585 51.0387C480.265 52.9587 478.995 54.8087 477.715 56.6787L477.725 56.6887Z" fill="#1D2638"/>
<path d="M502.074 43.0402H497.164V39.7402H510.844V43.0302H505.844V56.6702H502.074V43.0402Z" fill="#1D2638"/>
<path d="M56.5969 58.1973C54.6893 58.1973 52.9899 57.8136 51.4989 57.0462C50.0079 56.2568 48.8348 55.1824 47.9797 53.823C47.1465 52.4635 46.7299 50.9067 46.7299 49.1526V34.977H52.387V48.8566C52.387 49.6898 52.5733 50.4463 52.9461 51.126C53.3188 51.7838 53.8231 52.31 54.459 52.7047C55.0949 53.0775 55.8075 53.2638 56.5969 53.2638C57.4301 53.2638 58.1646 53.0775 58.8005 52.7047C59.4583 52.31 59.9845 51.7838 60.3792 51.126C60.7739 50.4463 60.9712 49.6898 60.9712 48.8566V34.977H66.431V49.1526C66.431 50.9067 66.0034 52.4635 65.1483 53.823C64.3151 55.1824 63.1529 56.2568 61.6619 57.0462C60.1709 57.8136 58.4826 58.1973 56.5969 58.1973ZM71.4845 58V40.5354H76.4838L76.6482 44.0875L75.5957 44.4822C75.8369 43.6928 76.2645 42.9802 76.8784 42.3444C77.5143 41.6866 78.2708 41.1603 79.1478 40.7656C80.0249 40.371 80.9458 40.1736 81.9106 40.1736C83.2262 40.1736 84.3335 40.4477 85.2325 40.9959C86.1315 41.5221 86.8112 42.3224 87.2717 43.3968C87.7321 44.4493 87.9624 45.743 87.9624 47.2779V58H82.6671V47.7054C82.6671 47.0038 82.5684 46.4227 82.3711 45.9623C82.1737 45.5018 81.8668 45.1619 81.4501 44.9427C81.0555 44.7015 80.5621 44.5918 79.9701 44.6138C79.5096 44.6138 79.0821 44.6905 78.6874 44.844C78.2927 44.9756 77.9528 45.1839 77.6678 45.4689C77.3827 45.732 77.1525 46.039 76.9771 46.3898C76.8236 46.7407 76.7469 47.1244 76.7469 47.541V58H74.1486C73.5346 58 73.0084 58 72.5698 58C72.1313 58 71.7695 58 71.4845 58ZM92.3948 58V33.6614H97.6572V58H92.3948ZM110.252 58.3289C108.432 58.3289 106.81 57.9342 105.385 57.1449C103.981 56.3555 102.863 55.2811 102.03 53.9216C101.218 52.5622 100.813 51.0054 100.813 49.2513C100.813 47.4971 101.218 45.9403 102.03 44.5809C102.863 43.2214 103.981 42.147 105.385 41.3577C106.81 40.5683 108.432 40.1736 110.252 40.1736C112.072 40.1736 113.684 40.5683 115.087 41.3577C116.512 42.147 117.631 43.2214 118.442 44.5809C119.253 45.9403 119.659 47.4971 119.659 49.2513C119.659 51.0054 119.253 52.5622 118.442 53.9216C117.631 55.2811 116.512 56.3555 115.087 57.1449C113.684 57.9342 112.072 58.3289 110.252 58.3289ZM110.252 53.7901C111.042 53.7901 111.743 53.5927 112.357 53.1981C112.971 52.8034 113.454 52.2662 113.804 51.5864C114.155 50.9067 114.32 50.1283 114.298 49.2513C114.32 48.3742 114.155 47.5958 113.804 46.9161C113.454 46.2144 112.971 45.6662 112.357 45.2716C111.743 44.8769 111.042 44.6795 110.252 44.6795C109.463 44.6795 108.75 44.8769 108.114 45.2716C107.5 45.6662 107.018 46.2144 106.667 46.9161C106.316 47.5958 106.152 48.3742 106.174 49.2513C106.152 50.1283 106.316 50.9067 106.667 51.5864C107.018 52.2662 107.5 52.8034 108.114 53.1981C108.75 53.5927 109.463 53.7901 110.252 53.7901ZM130.763 58.3289C129.075 58.3289 127.562 57.9342 126.224 57.1449C124.887 56.3555 123.824 55.2811 123.034 53.9216C122.267 52.5403 121.883 50.9835 121.883 49.2513C121.883 47.5191 122.267 45.9732 123.034 44.6138C123.824 43.2324 124.887 42.147 126.224 41.3577C127.562 40.5683 129.075 40.1736 130.763 40.1736C132.32 40.1736 133.745 40.4477 135.039 40.9959C136.355 41.544 137.396 42.3115 138.164 43.2982L135.302 46.7187C134.995 46.3679 134.633 46.039 134.217 45.732C133.8 45.4251 133.34 45.1839 132.835 45.0084C132.331 44.833 131.805 44.7453 131.257 44.7453C130.423 44.7453 129.689 44.9427 129.053 45.3373C128.417 45.7101 127.924 46.2363 127.573 46.9161C127.222 47.5958 127.047 48.3742 127.047 49.2513C127.047 50.0845 127.222 50.8409 127.573 51.5207C127.946 52.2004 128.45 52.7376 129.086 53.1323C129.722 53.527 130.445 53.7243 131.257 53.7243C131.827 53.7243 132.353 53.6585 132.835 53.527C133.318 53.3735 133.756 53.1542 134.151 52.8692C134.568 52.5841 134.951 52.2333 135.302 51.8167L138.131 55.2701C137.385 56.213 136.344 56.9585 135.006 57.5066C133.691 58.0548 132.276 58.3289 130.763 58.3289ZM146.087 52.8692L144.147 48.9224L152.304 40.5354H159.243L146.087 52.8692ZM141.022 58V33.6614H146.285V58H141.022ZM152.863 58L146.712 50.0406L150.429 47.1463L159.079 58H152.863ZM172.705 58V34.977H183.065C184.534 34.977 185.861 35.2949 187.045 35.9308C188.251 36.5667 189.194 37.4437 189.874 38.562C190.553 39.6583 190.893 40.9082 190.893 42.3115C190.893 43.7586 190.553 45.0633 189.874 46.2254C189.194 47.3656 188.262 48.2646 187.078 48.9224C185.894 49.5802 184.556 49.9091 183.065 49.9091H178.033V58H172.705ZM185.466 58L179.612 47.6068L185.335 46.7845L191.847 58H185.466ZM178.033 45.6334H182.572C183.142 45.6334 183.635 45.5128 184.052 45.2716C184.491 45.0084 184.819 44.6467 185.039 44.1862C185.28 43.7257 185.401 43.1995 185.401 42.6075C185.401 42.0155 185.269 41.5002 185.006 41.0616C184.743 40.6012 184.359 40.2504 183.855 40.0092C183.372 39.768 182.78 39.6474 182.079 39.6474H178.033V45.6334ZM202.918 58.3289C200.989 58.3289 199.311 57.9452 197.886 57.1778C196.461 56.3884 195.354 55.3249 194.564 53.9874C193.775 52.628 193.38 51.0821 193.38 49.3499C193.38 48.0124 193.599 46.7845 194.038 45.6662C194.477 44.548 195.09 43.5832 195.88 42.7719C196.669 41.9387 197.601 41.3028 198.675 40.8643C199.772 40.4038 200.967 40.1736 202.261 40.1736C203.488 40.1736 204.607 40.3929 205.615 40.8314C206.646 41.27 207.534 41.8839 208.279 42.6733C209.025 43.4626 209.595 44.3945 209.99 45.4689C210.384 46.5433 210.56 47.7164 210.516 48.9881L210.483 50.4024H196.571L195.814 47.4423H206.207L205.648 48.0672V47.4094C205.604 46.8613 205.429 46.3789 205.122 45.9623C204.837 45.5237 204.453 45.1839 203.971 44.9427C203.488 44.7015 202.94 44.5809 202.326 44.5809C201.471 44.5809 200.737 44.7563 200.123 45.1071C199.531 45.436 199.081 45.9294 198.774 46.5872C198.467 47.223 198.314 48.0124 198.314 48.9552C198.314 49.92 198.511 50.7642 198.906 51.4878C199.322 52.1894 199.914 52.7376 200.682 53.1323C201.471 53.527 202.403 53.7243 203.477 53.7243C204.223 53.7243 204.881 53.6147 205.451 53.3954C206.043 53.1761 206.679 52.8034 207.358 52.2771L209.825 55.7635C209.145 56.3555 208.422 56.8379 207.654 57.2106C206.887 57.5834 206.098 57.8575 205.286 58.0329C204.497 58.2302 203.708 58.3289 202.918 58.3289ZM217.363 58L211.607 40.5354H217.165L220.389 51.8825L219.698 51.7509L223.316 42.9364H226.407L230.223 51.7838L229.466 51.8496L232.689 40.5354H238.248L232.295 58H228.414L224.631 48.6263L225.026 48.6921L221.244 58H217.363ZM246.942 58.296C245.473 58.296 244.157 57.9123 242.995 57.1449C241.855 56.3555 240.945 55.2811 240.265 53.9216C239.585 52.5403 239.246 50.9835 239.246 49.2513C239.246 47.4752 239.585 45.9074 240.265 44.548C240.945 43.1885 241.877 42.1251 243.061 41.3577C244.245 40.5683 245.593 40.1736 247.106 40.1736C247.939 40.1736 248.696 40.2942 249.376 40.5354C250.077 40.7766 250.691 41.1165 251.218 41.555C251.744 41.9716 252.193 42.465 252.566 43.035C252.939 43.5832 253.213 44.1752 253.388 44.8111L252.303 44.6795V40.5354H257.532V58H252.204V53.7901L253.388 53.7572C253.213 54.3711 252.928 54.9522 252.533 55.5004C252.138 56.0485 251.656 56.5309 251.086 56.9475C250.516 57.3641 249.88 57.693 249.178 57.9342C248.477 58.1754 247.731 58.296 246.942 58.296ZM248.389 53.8559C249.2 53.8559 249.902 53.6695 250.494 53.2967C251.086 52.924 251.546 52.3977 251.875 51.718C252.204 51.0164 252.369 50.1941 252.369 49.2513C252.369 48.3084 252.204 47.4971 251.875 46.8174C251.546 46.1157 251.086 45.5785 250.494 45.2058C249.902 44.8111 249.2 44.6138 248.389 44.6138C247.6 44.6138 246.909 44.8111 246.317 45.2058C245.747 45.5785 245.297 46.1157 244.968 46.8174C244.64 47.4971 244.475 48.3084 244.475 49.2513C244.475 50.1941 244.64 51.0164 244.968 51.718C245.297 52.3977 245.747 52.924 246.317 53.2967C246.909 53.6695 247.6 53.8559 248.389 53.8559ZM262.176 58V40.5354H267.175L267.405 46.2254L266.419 45.14C266.682 44.1972 267.109 43.353 267.701 42.6075C268.315 41.862 269.028 41.27 269.839 40.8314C270.65 40.3929 271.517 40.1736 272.437 40.1736C272.832 40.1736 273.194 40.2065 273.523 40.2723C273.874 40.3381 274.192 40.4148 274.477 40.5025L273.03 46.324C272.788 46.1706 272.459 46.05 272.043 45.9623C271.648 45.8526 271.232 45.7978 270.793 45.7978C270.311 45.7978 269.861 45.8855 269.445 46.0609C269.028 46.2144 268.677 46.4446 268.392 46.7516C268.107 47.0586 267.877 47.4204 267.701 47.837C267.548 48.2536 267.471 48.725 267.471 49.2513V58H262.176ZM283.015 58.3618C281.503 58.3618 280.154 57.9781 278.97 57.2106C277.808 56.4213 276.887 55.3469 276.207 53.9874C275.528 52.606 275.188 51.0383 275.188 49.2841C275.188 47.53 275.528 45.9732 276.207 44.6138C276.887 43.2324 277.819 42.147 279.003 41.3577C280.187 40.5683 281.546 40.1736 283.081 40.1736C283.871 40.1736 284.627 40.2942 285.351 40.5354C286.074 40.7766 286.732 41.1055 287.324 41.5221C287.916 41.9387 288.398 42.4211 288.771 42.9693C289.144 43.4955 289.363 44.0437 289.429 44.6138L288.179 44.9098V33.6614H293.474V58H288.574L288.278 54.0203L289.33 54.1848C289.265 54.7329 289.045 55.2592 288.673 55.7635C288.322 56.2678 287.861 56.7173 287.291 57.112C286.721 57.4847 286.063 57.7807 285.318 58C284.594 58.2412 283.827 58.3618 283.015 58.3618ZM284.364 53.9874C285.175 53.9874 285.877 53.7901 286.469 53.3954C287.061 53.0007 287.51 52.4526 287.817 51.7509C288.146 51.0492 288.311 50.227 288.311 49.2841C288.311 48.3194 288.146 47.4862 287.817 46.7845C287.51 46.0829 287.061 45.5347 286.469 45.14C285.877 44.7453 285.175 44.548 284.364 44.548C283.553 44.548 282.851 44.7453 282.259 45.14C281.689 45.5347 281.239 46.0829 280.911 46.7845C280.582 47.4862 280.417 48.3194 280.417 49.2841C280.417 50.227 280.582 51.0492 280.911 51.7509C281.239 52.4526 281.689 53.0007 282.259 53.3954C282.851 53.7901 283.553 53.9874 284.364 53.9874ZM303.812 58.3289C302.101 58.3289 300.588 58.0548 299.273 57.5066C297.979 56.9585 296.949 56.2239 296.181 55.303L299.372 52.5403C300.051 53.22 300.819 53.7243 301.674 54.0532C302.529 54.3602 303.34 54.5137 304.108 54.5137C304.415 54.5137 304.689 54.4808 304.93 54.415C305.171 54.3492 305.369 54.2615 305.522 54.1519C305.697 54.0203 305.829 53.8778 305.917 53.7243C306.004 53.5489 306.048 53.3515 306.048 53.1323C306.048 52.6937 305.851 52.3539 305.456 52.1127C305.259 52.0031 304.93 51.8715 304.47 51.718C304.009 51.5645 303.417 51.3891 302.693 51.1918C301.663 50.9286 300.764 50.6217 299.996 50.2708C299.251 49.8981 298.637 49.4705 298.155 48.9881C297.716 48.5277 297.376 48.0234 297.135 47.4752C296.894 46.9051 296.773 46.2692 296.773 45.5676C296.773 44.7563 296.96 44.0217 297.332 43.3639C297.727 42.7061 298.242 42.1361 298.878 41.6537C299.536 41.1713 300.282 40.8095 301.115 40.5683C301.97 40.3052 302.847 40.1736 303.746 40.1736C304.711 40.1736 305.632 40.2833 306.509 40.5025C307.386 40.7218 308.197 41.0288 308.943 41.4234C309.71 41.8181 310.39 42.2895 310.982 42.8377L308.219 45.9294C307.824 45.5566 307.375 45.2277 306.87 44.9427C306.388 44.6357 305.884 44.3945 305.358 44.2191C304.831 44.0437 304.349 43.956 303.91 43.956C303.581 43.956 303.285 43.9889 303.022 44.0546C302.781 44.0985 302.573 44.1862 302.397 44.3178C302.222 44.4274 302.09 44.5699 302.003 44.7453C301.915 44.8988 301.871 45.0852 301.871 45.3045C301.871 45.5237 301.926 45.732 302.036 45.9294C302.167 46.1267 302.343 46.2912 302.562 46.4227C302.781 46.5543 303.132 46.7078 303.614 46.8832C304.097 47.0367 304.755 47.234 305.588 47.4752C306.618 47.7602 307.506 48.0782 308.252 48.429C308.997 48.7798 309.589 49.1964 310.028 49.6788C310.379 50.0516 310.642 50.4901 310.817 50.9944C310.993 51.4768 311.08 52.0031 311.08 52.5731C311.08 53.6914 310.762 54.6891 310.127 55.5661C309.513 56.4213 308.658 57.101 307.561 57.6053C306.465 58.0877 305.215 58.3289 303.812 58.3289ZM332.966 58.3289C331.146 58.3289 329.524 57.9342 328.099 57.1449C326.695 56.3555 325.577 55.2811 324.744 53.9216C323.933 52.5622 323.527 51.0054 323.527 49.2513C323.527 47.4971 323.933 45.9403 324.744 44.5809C325.577 43.2214 326.695 42.147 328.099 41.3577C329.524 40.5683 331.146 40.1736 332.966 40.1736C334.786 40.1736 336.398 40.5683 337.801 41.3577C339.226 42.147 340.345 43.2214 341.156 44.5809C341.967 45.9403 342.373 47.4971 342.373 49.2513C342.373 51.0054 341.967 52.5622 341.156 53.9216C340.345 55.2811 339.226 56.3555 337.801 57.1449C336.398 57.9342 334.786 58.3289 332.966 58.3289ZM332.966 53.7901C333.756 53.7901 334.457 53.5927 335.071 53.1981C335.685 52.8034 336.168 52.2662 336.519 51.5864C336.869 50.9067 337.034 50.1283 337.012 49.2513C337.034 48.3742 336.869 47.5958 336.519 46.9161C336.168 46.2144 335.685 45.6662 335.071 45.2716C334.457 44.8769 333.756 44.6795 332.966 44.6795C332.177 44.6795 331.464 44.8769 330.829 45.2716C330.215 45.6662 329.732 46.2144 329.381 46.9161C329.031 47.5958 328.866 48.3742 328.888 49.2513C328.866 50.1283 329.031 50.9067 329.381 51.5864C329.732 52.2662 330.215 52.8034 330.829 53.1981C331.464 53.5927 332.177 53.7901 332.966 53.7901ZM345.814 58V40.5354H350.813L350.978 44.0875L349.925 44.4822C350.166 43.6928 350.594 42.9802 351.208 42.3444C351.844 41.6866 352.6 41.1603 353.477 40.7656C354.354 40.371 355.275 40.1736 356.24 40.1736C357.556 40.1736 358.663 40.4477 359.562 40.9959C360.461 41.5221 361.141 42.3224 361.601 43.3968C362.062 44.4493 362.292 45.743 362.292 47.2779V58H356.997V47.7054C356.997 47.0038 356.898 46.4227 356.701 45.9623C356.503 45.5018 356.196 45.1619 355.78 44.9427C355.385 44.7015 354.892 44.5918 354.3 44.6138C353.839 44.6138 353.412 44.6905 353.017 44.844C352.622 44.9756 352.282 45.1839 351.997 45.4689C351.712 45.732 351.482 46.039 351.307 46.3898C351.153 46.7407 351.076 47.1244 351.076 47.541V58H348.478C347.864 58 347.338 58 346.899 58C346.461 58 346.099 58 345.814 58Z" fill="#1D2638"/>
</svg>
