<svg width="600" height="80" viewBox="0 0 600 80" fill="none" xmlns="http://www.w3.org/2000/svg">
<path d="M556.14 22H417.9C408.014 22 400 30.0141 400 39.9C400 49.7859 408.014 57.8 417.9 57.8H556.14C566.026 57.8 574.04 49.7859 574.04 39.9C574.04 30.0141 566.026 22 556.14 22Z" fill="#1D2638"/>
<path d="M417.279 46.1406V36.095H413.815V34.0166H423.099V36.095H419.531V46.1406H417.279ZM423.912 46.1406V37.013H426.007L426.042 39.9227L425.748 39.2646C425.875 38.8027 426.094 38.387 426.406 38.0175C426.717 37.6481 427.075 37.3594 427.48 37.1515C427.895 36.9322 428.328 36.8225 428.779 36.8225C428.975 36.8225 429.16 36.8398 429.333 36.8744C429.518 36.9091 429.668 36.9495 429.783 36.9957L429.212 39.3339C429.085 39.2646 428.929 39.2069 428.744 39.1607C428.559 39.1145 428.374 39.0914 428.19 39.0914C427.901 39.0914 427.624 39.1491 427.358 39.2646C427.104 39.3685 426.879 39.5186 426.683 39.7149C426.487 39.9112 426.331 40.1421 426.215 40.4077C426.111 40.6617 426.059 40.9504 426.059 41.2737V46.1406H423.912ZM434.259 46.3138C433.509 46.3138 432.827 46.106 432.216 45.6903C431.604 45.2746 431.113 44.7088 430.743 43.9929C430.374 43.2771 430.189 42.463 430.189 41.5508C430.189 40.6386 430.374 39.8246 430.743 39.1087C431.113 38.3928 431.615 37.8328 432.25 37.4287C432.885 37.0245 433.601 36.8225 434.398 36.8225C434.86 36.8225 435.281 36.8917 435.662 37.0303C436.043 37.1573 436.378 37.3421 436.667 37.5845C436.955 37.827 437.192 38.1041 437.377 38.4159C437.573 38.7277 437.706 39.0625 437.775 39.4205L437.308 39.2992V37.013H439.455V46.1406H437.29V43.9583L437.793 43.8717C437.712 44.1835 437.562 44.4895 437.342 44.7897C437.134 45.0783 436.869 45.3381 436.546 45.5691C436.234 45.7885 435.882 45.9674 435.489 46.106C435.108 46.2445 434.698 46.3138 434.259 46.3138ZM434.848 44.4259C435.345 44.4259 435.783 44.3047 436.164 44.0622C436.546 43.8197 436.84 43.4849 437.048 43.0577C437.267 42.6189 437.377 42.1166 437.377 41.5508C437.377 40.9966 437.267 40.5059 437.048 40.0786C436.84 39.6514 436.546 39.3165 436.164 39.0741C435.783 38.8316 435.345 38.7103 434.848 38.7103C434.352 38.7103 433.913 38.8316 433.532 39.0741C433.162 39.3165 432.874 39.6514 432.666 40.0786C432.458 40.5059 432.354 40.9966 432.354 41.5508C432.354 42.1166 432.458 42.6189 432.666 43.0577C432.874 43.4849 433.162 43.8197 433.532 44.0622C433.913 44.3047 434.352 44.4259 434.848 44.4259ZM445.597 46.3138C444.789 46.3138 444.061 46.1118 443.415 45.7076C442.78 45.2919 442.272 44.7319 441.89 44.0276C441.521 43.3117 441.336 42.4919 441.336 41.5681C441.336 40.656 441.521 39.8419 441.89 39.126C442.26 38.4101 442.762 37.8501 443.397 37.446C444.044 37.0303 444.771 36.8225 445.58 36.8225C446.018 36.8225 446.44 36.8917 446.844 37.0303C447.26 37.1689 447.629 37.3594 447.952 37.6019C448.276 37.8328 448.53 38.0926 448.715 38.3813C448.911 38.6699 449.021 38.9701 449.044 39.2819L448.472 39.3512V33.3238H450.602V46.1406H448.541L448.489 43.9929L448.905 44.0276C448.894 44.3163 448.79 44.5934 448.593 44.8589C448.409 45.1245 448.166 45.367 447.866 45.5864C447.566 45.8058 447.213 45.9847 446.809 46.1233C446.417 46.2503 446.013 46.3138 445.597 46.3138ZM446.013 44.5125C446.509 44.5125 446.948 44.3855 447.329 44.1315C447.71 43.8775 448.004 43.5311 448.212 43.0923C448.432 42.6535 448.541 42.1455 448.541 41.5681C448.541 41.0024 448.432 40.5001 448.212 40.0613C448.004 39.611 447.71 39.2646 447.329 39.0221C446.948 38.7681 446.509 38.6411 446.013 38.6411C445.516 38.6411 445.077 38.7681 444.696 39.0221C444.315 39.2646 444.015 39.611 443.796 40.0613C443.588 40.5001 443.484 41.0024 443.484 41.5681C443.484 42.1455 443.588 42.6535 443.796 43.0923C444.015 43.5311 444.315 43.8775 444.696 44.1315C445.077 44.3855 445.516 44.5125 446.013 44.5125ZM457.299 46.3138C456.34 46.3138 455.492 46.1118 454.753 45.7076C454.025 45.3035 453.454 44.755 453.038 44.0622C452.634 43.3579 452.432 42.5554 452.432 41.6547C452.432 40.9389 452.547 40.2865 452.778 39.6976C453.009 39.1087 453.327 38.6007 453.731 38.1734C454.147 37.7347 454.637 37.3998 455.203 37.1689C455.78 36.9264 456.41 36.8051 457.091 36.8051C457.691 36.8051 458.251 36.9206 458.771 37.1515C459.291 37.3825 459.741 37.7 460.122 38.1041C460.503 38.4967 460.792 38.9701 460.988 39.5244C461.196 40.0671 461.294 40.6617 461.282 41.3083L461.265 42.0531H453.869L453.471 40.5982H459.481L459.204 40.8927V40.5116C459.169 40.1537 459.054 39.8419 458.858 39.5763C458.661 39.2992 458.407 39.0856 458.096 38.9355C457.795 38.7739 457.46 38.693 457.091 38.693C456.525 38.693 456.046 38.8027 455.653 39.0221C455.272 39.2415 454.984 39.559 454.787 39.9747C454.591 40.3788 454.493 40.8869 454.493 41.4989C454.493 42.0877 454.614 42.6016 454.857 43.0403C455.111 43.4791 455.463 43.8197 455.913 44.0622C456.375 44.2932 456.912 44.4086 457.524 44.4086C457.951 44.4086 458.344 44.3393 458.702 44.2008C459.06 44.0622 459.446 43.814 459.862 43.456L460.919 44.9282C460.607 45.2169 460.249 45.4651 459.845 45.673C459.452 45.8693 459.037 46.0252 458.598 46.1406C458.159 46.2561 457.726 46.3138 457.299 46.3138ZM472.486 46.3138C471.447 46.3138 470.535 46.1233 469.75 45.7423C468.965 45.3612 468.295 44.8012 467.741 44.0622L469.074 42.3129C469.663 43.075 470.235 43.6061 470.789 43.9063C471.343 44.2066 471.967 44.3567 472.66 44.3567C473.052 44.3567 473.41 44.2989 473.733 44.1835C474.057 44.0565 474.311 43.889 474.496 43.6812C474.68 43.4618 474.773 43.2135 474.773 42.9364C474.773 42.7401 474.732 42.5612 474.651 42.3995C474.582 42.2263 474.472 42.0762 474.322 41.9492C474.172 41.8106 473.987 41.6836 473.768 41.5681C473.549 41.4527 473.3 41.3545 473.023 41.2737C472.746 41.1929 472.44 41.1178 472.105 41.0485C471.251 40.8753 470.541 40.6271 469.975 40.3038C469.421 39.9689 469.005 39.5533 468.728 39.0567C468.451 38.5602 468.312 37.9771 468.312 37.3074C468.312 36.7994 468.422 36.3317 468.641 35.9045C468.872 35.4773 469.184 35.1078 469.577 34.796C469.969 34.4843 470.425 34.2418 470.945 34.0686C471.465 33.8954 472.025 33.8088 472.625 33.8088C473.572 33.8088 474.409 33.982 475.136 34.3284C475.864 34.6632 476.464 35.1655 476.938 35.8352L475.656 37.394C475.263 36.8629 474.807 36.4645 474.288 36.1989C473.78 35.9218 473.225 35.7833 472.625 35.7833C472.209 35.7833 471.846 35.841 471.534 35.9565C471.234 36.0719 470.997 36.2394 470.824 36.4587C470.65 36.6666 470.564 36.9206 470.564 37.2208C470.564 37.4518 470.616 37.6596 470.72 37.8443C470.824 38.0175 470.968 38.1734 471.153 38.312C471.349 38.4505 471.597 38.5718 471.898 38.6757C472.198 38.7796 472.538 38.872 472.919 38.9528C473.554 39.0798 474.126 39.253 474.634 39.4724C475.142 39.6803 475.575 39.9343 475.933 40.2345C476.291 40.5232 476.562 40.858 476.747 41.2391C476.932 41.6086 477.024 42.0242 477.024 42.4861C477.024 43.2828 476.834 43.9699 476.453 44.5472C476.083 45.113 475.558 45.5517 474.877 45.8635C474.195 46.1637 473.399 46.3138 472.486 46.3138ZM471.447 47.7167L471.516 39.7842L473.093 40.3557L473.162 47.7167H471.447ZM473.699 40.3557L472.123 39.7842L472.053 32.5617H473.768L473.699 40.3557ZM487.294 46.1406V34.0166H489.545V46.1406H487.294ZM479.517 46.1406V34.0166H481.769V46.1406H479.517ZM480.452 41.1525V39.0394H488.385V41.1525H480.452ZM492.812 46.1406V34.0166H494.838L501.87 43.4907L501.489 43.5599C501.443 43.2366 501.402 42.9076 501.368 42.5727C501.333 42.2263 501.298 41.8684 501.264 41.4989C501.241 41.1294 501.218 40.7426 501.194 40.3384C501.183 39.9343 501.171 39.5128 501.16 39.0741C501.148 38.6237 501.142 38.1503 501.142 37.6538V34.0166H503.377V46.1406H501.316L494.249 36.8051L494.699 36.6839C494.757 37.3305 494.803 37.8848 494.838 38.3466C494.884 38.7969 494.919 39.1895 494.942 39.5244C494.965 39.8477 494.982 40.119 494.994 40.3384C495.017 40.5578 495.029 40.7599 495.029 40.9446C495.04 41.1178 495.046 41.2853 495.046 41.4469V46.1406H492.812ZM509.852 46.1406V40.0959L509.973 40.9446L505.072 34.0166H507.704L511.445 39.3858L510.631 39.3339L514.009 34.0166H516.537L511.844 41.1351L512.103 39.9574V46.1406H509.852ZM523.325 46.1406V34.0166H525.351L532.383 43.4907L532.002 43.5599C531.956 43.2366 531.915 42.9076 531.881 42.5727C531.846 42.2263 531.811 41.8684 531.777 41.4989C531.754 41.1294 531.73 40.7426 531.707 40.3384C531.696 39.9343 531.684 39.5128 531.673 39.0741C531.661 38.6237 531.655 38.1503 531.655 37.6538V34.0166H533.89V46.1406H531.829L524.762 36.8051L525.212 36.6839C525.27 37.3305 525.316 37.8848 525.351 38.3466C525.397 38.7969 525.432 39.1895 525.455 39.5244C525.478 39.8477 525.495 40.119 525.507 40.3384C525.53 40.5578 525.541 40.7599 525.541 40.9446C525.553 41.1178 525.559 41.2853 525.559 41.4469V46.1406H523.325ZM540.936 46.3138C540.024 46.3138 539.21 46.1118 538.494 45.7076C537.778 45.2919 537.213 44.7262 536.797 44.0103C536.381 43.2944 536.173 42.4803 536.173 41.5681C536.173 40.656 536.381 39.8419 536.797 39.126C537.213 38.4101 537.778 37.8501 538.494 37.446C539.21 37.0303 540.024 36.8225 540.936 36.8225C541.837 36.8225 542.645 37.0303 543.361 37.446C544.077 37.8501 544.637 38.4101 545.041 39.126C545.457 39.8419 545.665 40.656 545.665 41.5681C545.665 42.4803 545.457 43.2944 545.041 44.0103C544.637 44.7262 544.077 45.2919 543.361 45.7076C542.645 46.1118 541.837 46.3138 540.936 46.3138ZM540.936 44.4259C541.433 44.4259 541.872 44.2989 542.253 44.0449C542.645 43.7909 542.951 43.4503 543.171 43.023C543.402 42.5958 543.511 42.1108 543.5 41.5681C543.511 41.0139 543.402 40.5232 543.171 40.0959C542.951 39.6687 542.645 39.3339 542.253 39.0914C541.872 38.8374 541.433 38.7103 540.936 38.7103C540.44 38.7103 539.99 38.8374 539.585 39.0914C539.193 39.3339 538.887 39.6745 538.667 40.1133C538.448 40.5405 538.338 41.0255 538.338 41.5681C538.338 42.1108 538.448 42.5958 538.667 43.023C538.887 43.4503 539.193 43.7909 539.585 44.0449C539.99 44.2989 540.44 44.4259 540.936 44.4259ZM549.38 46.1406L546.314 37.013L548.496 36.9957L550.54 43.508L550.159 43.4733L552.376 38.3813H553.658L555.927 43.4733L555.476 43.5253L557.537 37.013H559.72L556.637 46.1406H555.113L552.774 40.6675L553.104 40.7021L550.887 46.1406H549.38Z" fill="white"/>
<path d="M253.019 41.0109C251.739 39.2309 250.489 37.4809 249.199 35.6709C252.249 33.4809 255.259 31.3109 258.349 29.0909C255.059 26.7309 251.829 24.4209 248.539 22.0609C249.809 20.2809 251.059 18.5209 252.349 16.7109C258.109 20.8309 263.819 24.9209 269.609 29.0809C264.059 33.0709 258.569 37.0309 253.029 41.0109H253.019Z" fill="#1D2638"/>
<path d="M286.143 23.02C287.243 23.02 288.303 23.01 289.363 23.02C290.363 23.03 291.383 22.92 292.373 23.14C294.923 23.71 296.613 25.77 296.733 28.43C296.773 29.35 296.693 30.25 296.403 31.12C295.663 33.35 293.683 34.81 291.323 34.84C289.723 34.86 288.133 34.84 286.533 34.84C286.413 34.84 286.283 34.82 286.133 34.81V23L286.143 23.02ZM288.753 32.52C289.663 32.5 290.513 32.59 291.353 32.47C292.743 32.27 293.653 31.44 293.973 30.11C294.103 29.56 294.133 29 294.073 28.44C293.953 27.19 293.463 26.16 292.243 25.64C291.123 25.16 289.943 25.4 288.743 25.36V32.53L288.753 32.52Z" fill="#1D2638"/>
<path d="M370.952 34.8508C370.152 33.4308 369.372 32.0608 368.592 30.6708H366.822V34.8308H364.312V23.0908C364.472 22.9808 364.653 23.0208 364.812 23.0208C366.383 23.0208 367.952 23.0208 369.512 23.0208C371.352 23.0208 372.852 24.1008 373.312 25.7508C373.792 27.4708 373.112 29.1408 371.542 30.1208C371.472 30.1608 371.413 30.2108 371.312 30.2808C372.183 31.7908 373.042 33.2808 373.952 34.8508H370.942H370.952ZM366.842 28.4908C367.712 28.4908 368.552 28.4908 369.392 28.4908C370.142 28.4908 370.672 28.0608 370.822 27.3808C371.012 26.5208 370.732 25.7808 370.032 25.4908C369.002 25.0608 367.922 25.3308 366.842 25.2708V28.5008V28.4908Z" fill="#1D2638"/>
<path d="M271.203 27.6509C269.433 26.3709 267.693 25.1209 265.883 23.8209C269.193 21.4409 272.443 19.1009 275.763 16.7109C277.033 18.4909 278.293 20.2409 279.583 22.0509C276.773 23.9309 274.013 25.7809 271.203 27.6609V27.6509Z" fill="#1D2638"/>
<path d="M271.201 30.5217C273.811 32.2917 276.391 34.0617 279.031 35.8517C277.761 37.6417 276.521 39.3917 275.231 41.2017C272.131 38.9817 269.051 36.7917 265.891 34.5317C267.691 33.1717 269.431 31.8517 271.201 30.5117V30.5217Z" fill="#1D2638"/>
<path d="M305.841 32.5505H311.371C311.431 33.3405 311.431 34.0705 311.371 34.8305H303.281V23.0605H311.231V25.3105H305.841V27.6605H310.441C310.511 28.4405 310.491 29.1405 310.461 29.9205H305.841V32.5405V32.5505Z" fill="#1D2638"/>
<path d="M349.247 23.041H357.197V25.291H351.807V27.671H356.397V29.931H351.787V32.531H357.317C357.367 33.331 357.377 34.061 357.317 34.821H349.227V23.041H349.247Z" fill="#1D2638"/>
<path d="M319.879 34.831H316.859C318.299 32.781 319.679 30.791 321.089 28.791C319.719 26.891 318.369 25.001 316.969 23.051H320.159C320.989 24.271 321.859 25.531 322.769 26.861C323.639 25.531 324.469 24.271 325.279 23.041H328.299C326.919 25.061 325.589 27.001 324.239 28.971C325.639 30.901 327.019 32.811 328.459 34.791H325.269C324.409 33.551 323.509 32.251 322.579 30.901C321.669 32.231 320.779 33.521 319.889 34.821L319.879 34.831Z" fill="#1D2638"/>
<path d="M336.801 25.3505H333.391V23.0605H342.901V25.3505H339.421V34.8305H336.801V25.3605V25.3505Z" fill="#1D2638"/>
<path d="M25.7516 36.1371C24.4263 36.1371 23.2457 35.8705 22.2098 35.3373C21.1739 34.7889 20.359 34.0425 19.7649 33.098C19.186 32.1536 18.8966 31.072 18.8966 29.8533V20.005H22.8268V29.6477C22.8268 30.2266 22.9562 30.7521 23.2152 31.2243C23.4742 31.6813 23.8245 32.0469 24.2663 32.3211C24.7081 32.5801 25.2032 32.7096 25.7516 32.7096C26.3304 32.7096 26.8407 32.5801 27.2825 32.3211C27.7395 32.0469 28.1051 31.6813 28.3793 31.2243C28.6535 30.7521 28.7906 30.2266 28.7906 29.6477V20.005H32.5837V29.8533C32.5837 31.072 32.2867 32.1536 31.6926 33.098C31.1137 34.0425 30.3063 34.7889 29.2705 35.3373C28.2346 35.8705 27.0616 36.1371 25.7516 36.1371ZM36.0946 36V23.8666H39.5678L39.682 26.3344L38.9508 26.6086C39.1184 26.0602 39.4154 25.5652 39.842 25.1234C40.2837 24.6664 40.8093 24.3008 41.4186 24.0266C42.028 23.7524 42.6678 23.6153 43.338 23.6153C44.252 23.6153 45.0213 23.8057 45.6459 24.1865C46.2704 24.5521 46.7427 25.1082 47.0626 25.8546C47.3825 26.5858 47.5424 27.4846 47.5424 28.5509V36H43.8636V28.8479C43.8636 28.3605 43.795 27.9568 43.6579 27.6369C43.5208 27.317 43.3076 27.0809 43.0181 26.9285C42.7439 26.761 42.4012 26.6848 41.9899 26.7C41.67 26.7 41.3729 26.7534 41.0987 26.86C40.8245 26.9514 40.5884 27.0961 40.3904 27.2941C40.1923 27.4769 40.0324 27.6902 39.9105 27.9339C39.8039 28.1777 39.7506 28.4443 39.7506 28.7337V36H37.9454C37.5189 36 37.1533 36 36.8486 36C36.544 36 36.2926 36 36.0946 36ZM50.6218 36V19.091H54.2778V36H50.6218ZM63.0281 36.2285C61.7637 36.2285 60.6365 35.9543 59.6463 35.4059C58.6714 34.8575 57.8945 34.1111 57.3156 33.1666C56.752 32.2221 56.4702 31.1406 56.4702 29.9219C56.4702 28.7032 56.752 27.6217 57.3156 26.6772C57.8945 25.7327 58.6714 24.9863 59.6463 24.4379C60.6365 23.8895 61.7637 23.6153 63.0281 23.6153C64.2925 23.6153 65.4121 23.8895 66.3871 24.4379C67.3772 24.9863 68.1541 25.7327 68.7178 26.6772C69.2814 27.6217 69.5632 28.7032 69.5632 29.9219C69.5632 31.1406 69.2814 32.2221 68.7178 33.1666C68.1541 34.1111 67.3772 34.8575 66.3871 35.4059C65.4121 35.9543 64.2925 36.2285 63.0281 36.2285ZM63.0281 33.0752C63.5765 33.0752 64.064 32.9381 64.4905 32.6639C64.917 32.3897 65.2522 32.0165 65.4959 31.5442C65.7396 31.072 65.8539 30.5312 65.8387 29.9219C65.8539 29.3126 65.7396 28.7718 65.4959 28.2995C65.2522 27.8121 64.917 27.4312 64.4905 27.157C64.064 26.8828 63.5765 26.7457 63.0281 26.7457C62.4797 26.7457 61.9846 26.8828 61.5429 27.157C61.1163 27.4312 60.7812 27.8121 60.5375 28.2995C60.2937 28.7718 60.1795 29.3126 60.1947 29.9219C60.1795 30.5312 60.2937 31.072 60.5375 31.5442C60.7812 32.0165 61.1163 32.3897 61.5429 32.6639C61.9846 32.9381 62.4797 33.0752 63.0281 33.0752ZM77.2779 36.2285C76.105 36.2285 75.0539 35.9543 74.1246 35.4059C73.1954 34.8575 72.4566 34.1111 71.9082 33.1666C71.375 32.2069 71.1084 31.1253 71.1084 29.9219C71.1084 28.7185 71.375 27.6445 71.9082 26.7C72.4566 25.7403 73.1954 24.9863 74.1246 24.4379C75.0539 23.8895 76.105 23.6153 77.2779 23.6153C78.3595 23.6153 79.3497 23.8057 80.2484 24.1865C81.1624 24.5674 81.886 25.1005 82.4192 25.786L80.4312 28.1624C80.218 27.9187 79.9666 27.6902 79.6772 27.4769C79.3878 27.2637 79.0679 27.0961 78.7175 26.9742C78.3671 26.8524 78.0015 26.7914 77.6207 26.7914C77.0418 26.7914 76.5315 26.9285 76.0897 27.2027C75.648 27.4617 75.3052 27.8273 75.0615 28.2995C74.8178 28.7718 74.6959 29.3126 74.6959 29.9219C74.6959 30.5008 74.8178 31.0263 75.0615 31.4985C75.3205 31.9708 75.6708 32.344 76.1126 32.6182C76.5544 32.8924 77.0571 33.0295 77.6207 33.0295C78.0168 33.0295 78.3824 32.9838 78.7175 32.8924C79.0526 32.7858 79.3573 32.6334 79.6315 32.4354C79.9209 32.2374 80.1875 31.9936 80.4312 31.7042L82.3963 34.1034C81.8784 34.7585 81.1548 35.2764 80.2256 35.6572C79.3116 36.0381 78.329 36.2285 77.2779 36.2285ZM87.9243 32.4354L86.5761 29.6934L92.2429 23.8666H97.0643L87.9243 32.4354ZM84.4054 36V19.091H88.0614V36H84.4054ZM92.6314 36L88.3584 30.4703L90.9405 28.4595L96.95 36H92.6314ZM106.417 36V20.005H113.614C114.635 20.005 115.557 20.2259 116.379 20.6676C117.217 21.1094 117.872 21.7187 118.344 22.4956C118.816 23.2573 119.053 24.1256 119.053 25.1005C119.053 26.1059 118.816 27.0123 118.344 27.8197C117.872 28.6118 117.225 29.2364 116.402 29.6934C115.579 30.1504 114.65 30.3789 113.614 30.3789H110.118V36H106.417ZM115.282 36L111.215 28.7794L115.191 28.2081L119.715 36H115.282ZM110.118 27.4084H113.272C113.668 27.4084 114.01 27.3246 114.3 27.157C114.604 26.9742 114.833 26.7229 114.985 26.403C115.153 26.0831 115.237 25.7175 115.237 25.3062C115.237 24.8949 115.145 24.5369 114.962 24.2322C114.78 23.9123 114.513 23.6686 114.163 23.501C113.828 23.3335 113.416 23.2497 112.929 23.2497H110.118V27.4084ZM127.407 36.2285C126.066 36.2285 124.901 35.9619 123.911 35.4287C122.921 34.8803 122.151 34.1415 121.603 33.2123C121.055 32.2678 120.78 31.1939 120.78 29.9904C120.78 29.0612 120.933 28.2081 121.237 27.4312C121.542 26.6543 121.969 25.9841 122.517 25.4204C123.065 24.8416 123.713 24.3998 124.459 24.0951C125.221 23.7752 126.051 23.6153 126.95 23.6153C127.803 23.6153 128.58 23.7676 129.281 24.0723C129.997 24.377 130.614 24.8035 131.131 25.3519C131.649 25.9003 132.045 26.5477 132.32 27.2941C132.594 28.0406 132.716 28.8556 132.685 29.7391L132.662 30.7216H122.997L122.471 28.6651H129.692L129.303 29.0993V28.6423C129.273 28.2615 129.151 27.9263 128.938 27.6369C128.74 27.3322 128.473 27.0961 128.138 26.9285C127.803 26.761 127.422 26.6772 126.996 26.6772C126.402 26.6772 125.891 26.7991 125.465 27.0428C125.053 27.2713 124.741 27.614 124.528 28.071C124.315 28.5128 124.208 29.0612 124.208 29.7162C124.208 30.3865 124.345 30.973 124.619 31.4757C124.909 31.9632 125.32 32.344 125.853 32.6182C126.402 32.8924 127.049 33.0295 127.795 33.0295C128.313 33.0295 128.77 32.9533 129.166 32.801C129.578 32.6487 130.019 32.3897 130.492 32.0241L132.205 34.4462C131.733 34.8575 131.23 35.1926 130.697 35.4516C130.164 35.7106 129.616 35.901 129.052 36.0229C128.504 36.16 127.955 36.2285 127.407 36.2285ZM137.442 36L133.443 23.8666H137.305L139.544 31.7499L139.064 31.6585L141.578 25.5347H143.726L146.376 31.6813L145.851 31.727L148.09 23.8666H151.952L147.816 36H145.12L142.492 29.4877L142.766 29.5334L140.138 36H137.442ZM157.992 36.2057C156.971 36.2057 156.057 35.9391 155.25 35.4059C154.458 34.8575 153.826 34.1111 153.353 33.1666C152.881 32.2069 152.645 31.1253 152.645 29.9219C152.645 28.688 152.881 27.5988 153.353 26.6543C153.826 25.7099 154.473 24.9711 155.296 24.4379C156.118 23.8895 157.055 23.6153 158.106 23.6153C158.685 23.6153 159.21 23.6991 159.683 23.8666C160.17 24.0342 160.597 24.2703 160.962 24.575C161.328 24.8644 161.64 25.2072 161.899 25.6032C162.158 25.9841 162.349 26.3954 162.47 26.8371L161.716 26.7457V23.8666H165.35V36H161.648V33.0752L162.47 33.0523C162.349 33.4789 162.151 33.8826 161.876 34.2634C161.602 34.6442 161.267 34.9794 160.871 35.2688C160.475 35.5582 160.033 35.7867 159.546 35.9543C159.058 36.1219 158.54 36.2057 157.992 36.2057ZM158.997 33.1209C159.561 33.1209 160.048 32.9914 160.46 32.7324C160.871 32.4735 161.191 32.1079 161.419 31.6356C161.648 31.1482 161.762 30.5769 161.762 29.9219C161.762 29.2669 161.648 28.7032 161.419 28.231C161.191 27.7435 160.871 27.3703 160.46 27.1113C160.048 26.8371 159.561 26.7 158.997 26.7C158.449 26.7 157.969 26.8371 157.558 27.1113C157.162 27.3703 156.849 27.7435 156.621 28.231C156.392 28.7032 156.278 29.2669 156.278 29.9219C156.278 30.5769 156.392 31.1482 156.621 31.6356C156.849 32.1079 157.162 32.4735 157.558 32.7324C157.969 32.9914 158.449 33.1209 158.997 33.1209ZM168.575 36V23.8666H172.049L172.209 27.8197L171.523 27.0656C171.706 26.4106 172.003 25.8241 172.414 25.3062C172.841 24.7883 173.336 24.377 173.9 24.0723C174.463 23.7676 175.065 23.6153 175.705 23.6153C175.979 23.6153 176.23 23.6381 176.459 23.6838C176.702 23.7295 176.923 23.7829 177.121 23.8438L176.116 27.8882C175.948 27.7816 175.72 27.6978 175.43 27.6369C175.156 27.5607 174.867 27.5226 174.562 27.5226C174.227 27.5226 173.915 27.5836 173.625 27.7054C173.336 27.8121 173.092 27.972 172.894 28.1853C172.696 28.3986 172.536 28.6499 172.414 28.9393C172.308 29.2288 172.254 29.5563 172.254 29.9219V36H168.575ZM183.054 36.2514C182.003 36.2514 181.066 35.9848 180.243 35.4516C179.436 34.9032 178.796 34.1568 178.324 33.2123C177.851 32.2526 177.615 31.1634 177.615 29.9447C177.615 28.7261 177.851 27.6445 178.324 26.7C178.796 25.7403 179.443 24.9863 180.266 24.4379C181.089 23.8895 182.033 23.6153 183.099 23.6153C183.648 23.6153 184.173 23.6991 184.676 23.8666C185.179 24.0342 185.636 24.2627 186.047 24.5521C186.458 24.8416 186.793 25.1767 187.052 25.5575C187.311 25.9231 187.464 26.304 187.509 26.7L186.641 26.9057V19.091H190.32V36H186.915L186.71 33.2351L187.441 33.3494C187.395 33.7302 187.243 34.0958 186.984 34.4462C186.74 34.7966 186.42 35.1088 186.024 35.383C185.628 35.642 185.171 35.8477 184.653 36C184.15 36.1676 183.617 36.2514 183.054 36.2514ZM183.99 33.2123C184.554 33.2123 185.042 33.0752 185.453 32.801C185.864 32.5268 186.176 32.146 186.39 31.6585C186.618 31.171 186.732 30.5998 186.732 29.9447C186.732 29.2745 186.618 28.6956 186.39 28.2081C186.176 27.7207 185.864 27.3398 185.453 27.0656C185.042 26.7914 184.554 26.6543 183.99 26.6543C183.427 26.6543 182.939 26.7914 182.528 27.0656C182.132 27.3398 181.82 27.7207 181.591 28.2081C181.363 28.6956 181.248 29.2745 181.248 29.9447C181.248 30.5998 181.363 31.171 181.591 31.6585C181.82 32.146 182.132 32.5268 182.528 32.801C182.939 33.0752 183.427 33.2123 183.99 33.2123ZM197.502 36.2285C196.313 36.2285 195.262 36.0381 194.348 35.6572C193.45 35.2764 192.734 34.7661 192.2 34.1263L194.417 32.2069C194.889 32.6791 195.422 33.0295 196.016 33.258C196.61 33.4713 197.174 33.5779 197.707 33.5779C197.921 33.5779 198.111 33.555 198.279 33.5093C198.446 33.4636 198.583 33.4027 198.69 33.3265C198.812 33.2351 198.903 33.1361 198.964 33.0295C199.025 32.9076 199.055 32.7705 199.055 32.6182C199.055 32.3135 198.918 32.0774 198.644 31.9098C198.507 31.8337 198.279 31.7423 197.959 31.6356C197.639 31.529 197.227 31.4071 196.725 31.27C196.009 31.0872 195.384 30.874 194.851 30.6302C194.333 30.3713 193.907 30.0742 193.571 29.7391C193.267 29.4192 193.031 29.0688 192.863 28.688C192.695 28.2919 192.612 27.8502 192.612 27.3627C192.612 26.7991 192.741 26.2887 193 25.8317C193.274 25.3747 193.632 24.9787 194.074 24.6435C194.531 24.3084 195.049 24.0571 195.628 23.8895C196.222 23.7067 196.831 23.6153 197.456 23.6153C198.126 23.6153 198.766 23.6915 199.375 23.8438C199.985 23.9961 200.548 24.2094 201.066 24.4836C201.599 24.7578 202.072 25.0853 202.483 25.4661L200.564 27.614C200.289 27.3551 199.977 27.1266 199.627 26.9285C199.292 26.7153 198.941 26.5477 198.576 26.4258C198.21 26.304 197.875 26.243 197.57 26.243C197.342 26.243 197.136 26.2659 196.953 26.3116C196.786 26.3421 196.641 26.403 196.519 26.4944C196.397 26.5706 196.306 26.6696 196.245 26.7914C196.184 26.8981 196.153 27.0276 196.153 27.1799C196.153 27.3322 196.192 27.4769 196.268 27.614C196.359 27.7511 196.481 27.8654 196.633 27.9568C196.786 28.0482 197.029 28.1548 197.365 28.2767C197.7 28.3833 198.157 28.5204 198.736 28.688C199.451 28.886 200.068 29.1069 200.586 29.3506C201.104 29.5944 201.516 29.8838 201.82 30.2189C202.064 30.4779 202.247 30.7826 202.369 31.1329C202.491 31.4681 202.551 31.8337 202.551 32.2297C202.551 33.0066 202.331 33.6998 201.889 34.3091C201.462 34.9032 200.868 35.3754 200.107 35.7258C199.345 36.0609 198.477 36.2285 197.502 36.2285ZM217.757 36.2285C216.492 36.2285 215.365 35.9543 214.375 35.4059C213.4 34.8575 212.623 34.1111 212.044 33.1666C211.48 32.2221 211.199 31.1406 211.199 29.9219C211.199 28.7032 211.48 27.6217 212.044 26.6772C212.623 25.7327 213.4 24.9863 214.375 24.4379C215.365 23.8895 216.492 23.6153 217.757 23.6153C219.021 23.6153 220.141 23.8895 221.115 24.4379C222.106 24.9863 222.883 25.7327 223.446 26.6772C224.01 27.6217 224.292 28.7032 224.292 29.9219C224.292 31.1406 224.01 32.2221 223.446 33.1666C222.883 34.1111 222.106 34.8575 221.115 35.4059C220.141 35.9543 219.021 36.2285 217.757 36.2285ZM217.757 33.0752C218.305 33.0752 218.792 32.9381 219.219 32.6639C219.645 32.3897 219.981 32.0165 220.224 31.5442C220.468 31.072 220.582 30.5312 220.567 29.9219C220.582 29.3126 220.468 28.7718 220.224 28.2995C219.981 27.8121 219.645 27.4312 219.219 27.157C218.792 26.8828 218.305 26.7457 217.757 26.7457C217.208 26.7457 216.713 26.8828 216.271 27.157C215.845 27.4312 215.51 27.8121 215.266 28.2995C215.022 28.7718 214.908 29.3126 214.923 29.9219C214.908 30.5312 215.022 31.072 215.266 31.5442C215.51 32.0165 215.845 32.3897 216.271 32.6639C216.713 32.9381 217.208 33.0752 217.757 33.0752ZM226.682 36V23.8666H230.156L230.27 26.3344L229.539 26.6086C229.706 26.0602 230.003 25.5652 230.43 25.1234C230.871 24.6664 231.397 24.3008 232.006 24.0266C232.616 23.7524 233.256 23.6153 233.926 23.6153C234.84 23.6153 235.609 23.8057 236.234 24.1865C236.858 24.5521 237.33 25.1082 237.65 25.8546C237.97 26.5858 238.13 27.4846 238.13 28.5509V36H234.451V28.8479C234.451 28.3605 234.383 27.9568 234.246 27.6369C234.109 27.317 233.895 27.0809 233.606 26.9285C233.332 26.761 232.989 26.6848 232.578 26.7C232.258 26.7 231.961 26.7534 231.686 26.86C231.412 26.9514 231.176 27.0961 230.978 27.2941C230.78 27.4769 230.62 27.6902 230.498 27.9339C230.392 28.1777 230.338 28.4443 230.338 28.7337V36H228.533C228.107 36 227.741 36 227.436 36C227.132 36 226.88 36 226.682 36Z" fill="#1D2638"/>
<path d="M77.734 62.18C77.326 62.18 76.942 62.126 76.582 62.018C76.222 61.922 75.886 61.778 75.574 61.586C75.262 61.382 74.98 61.136 74.728 60.848C74.476 60.56 74.254 60.242 74.062 59.894L74.998 58.922C75.214 59.282 75.43 59.582 75.646 59.822C75.874 60.062 76.096 60.254 76.312 60.398C76.54 60.542 76.768 60.644 76.996 60.704C77.236 60.764 77.482 60.794 77.734 60.794C78.226 60.794 78.658 60.68 79.03 60.452C79.414 60.212 79.708 59.888 79.912 59.48C80.128 59.06 80.236 58.586 80.236 58.058V50.732H77.95V49.4H83.53V50.732H81.676V58.166C81.676 58.742 81.58 59.276 81.388 59.768C81.196 60.26 80.926 60.686 80.578 61.046C80.23 61.406 79.816 61.688 79.336 61.892C78.856 62.084 78.322 62.18 77.734 62.18ZM88.9486 62.18C88.0126 62.18 87.1786 61.97 86.4466 61.55C85.7266 61.13 85.1566 60.548 84.7366 59.804C84.3286 59.06 84.1246 58.214 84.1246 57.266C84.1246 56.33 84.3286 55.496 84.7366 54.764C85.1566 54.032 85.7266 53.456 86.4466 53.036C87.1786 52.616 88.0126 52.406 88.9486 52.406C89.8726 52.406 90.6946 52.616 91.4146 53.036C92.1466 53.456 92.7166 54.032 93.1246 54.764C93.5446 55.496 93.7546 56.33 93.7546 57.266C93.7546 58.214 93.5446 59.06 93.1246 59.804C92.7166 60.548 92.1466 61.13 91.4146 61.55C90.6946 61.97 89.8726 62.18 88.9486 62.18ZM88.9486 60.902C89.6086 60.902 90.1966 60.746 90.7126 60.434C91.2286 60.11 91.6306 59.678 91.9186 59.138C92.2066 58.586 92.3506 57.962 92.3506 57.266C92.3506 56.57 92.2066 55.952 91.9186 55.412C91.6306 54.872 91.2286 54.452 90.7126 54.152C90.1966 53.84 89.6086 53.684 88.9486 53.684C88.2886 53.684 87.6946 53.84 87.1666 54.152C86.6506 54.452 86.2426 54.878 85.9426 55.43C85.6546 55.97 85.5166 56.582 85.5286 57.266C85.5166 57.962 85.6546 58.586 85.9426 59.138C86.2426 59.678 86.6506 60.11 87.1666 60.434C87.6946 60.746 88.2886 60.902 88.9486 60.902ZM96.0842 62V52.604H97.4342V62H96.0842ZM96.7502 50.57C96.4142 50.57 96.1562 50.486 95.9762 50.318C95.8082 50.138 95.7242 49.898 95.7242 49.598C95.7242 49.298 95.8142 49.058 95.9942 48.878C96.1742 48.698 96.4262 48.608 96.7502 48.608C97.0742 48.608 97.3262 48.698 97.5062 48.878C97.6862 49.046 97.7762 49.286 97.7762 49.598C97.7762 49.886 97.6862 50.12 97.5062 50.3C97.3262 50.48 97.0742 50.57 96.7502 50.57ZM100.382 62V52.604H101.714L101.768 54.566L101.552 54.656C101.672 54.248 101.906 53.876 102.254 53.54C102.602 53.204 103.016 52.934 103.496 52.73C103.988 52.514 104.492 52.406 105.008 52.406C105.704 52.406 106.286 52.544 106.754 52.82C107.222 53.096 107.576 53.522 107.816 54.098C108.056 54.674 108.176 55.406 108.176 56.294V62H106.808V56.366C106.808 55.742 106.724 55.232 106.556 54.836C106.4 54.428 106.154 54.128 105.818 53.936C105.482 53.744 105.068 53.654 104.576 53.666C104.168 53.666 103.79 53.738 103.442 53.882C103.094 54.014 102.794 54.2 102.542 54.44C102.29 54.68 102.092 54.956 101.948 55.268C101.804 55.58 101.732 55.916 101.732 56.276V62H101.066C100.982 62 100.886 62 100.778 62C100.67 62 100.538 62 100.382 62ZM120.01 62.18C119.05 62.18 118.174 61.982 117.382 61.586C116.59 61.19 115.936 60.644 115.42 59.948L116.392 58.868C116.932 59.552 117.49 60.056 118.066 60.38C118.654 60.704 119.344 60.866 120.136 60.866C120.676 60.866 121.168 60.776 121.612 60.596C122.056 60.416 122.404 60.164 122.656 59.84C122.908 59.516 123.034 59.144 123.034 58.724C123.034 58.46 122.992 58.22 122.908 58.004C122.824 57.788 122.692 57.596 122.512 57.428C122.344 57.26 122.128 57.11 121.864 56.978C121.612 56.846 121.312 56.726 120.964 56.618C120.616 56.51 120.22 56.402 119.776 56.294C118.96 56.114 118.27 55.874 117.706 55.574C117.154 55.262 116.734 54.872 116.446 54.404C116.17 53.924 116.032 53.354 116.032 52.694C116.032 52.202 116.134 51.746 116.338 51.326C116.554 50.906 116.848 50.546 117.22 50.246C117.592 49.934 118.03 49.694 118.534 49.526C119.038 49.358 119.578 49.274 120.154 49.274C121.126 49.274 121.954 49.46 122.638 49.832C123.322 50.192 123.868 50.684 124.276 51.308L123.286 52.298C122.926 51.77 122.482 51.35 121.954 51.038C121.426 50.726 120.82 50.57 120.136 50.57C119.608 50.57 119.14 50.66 118.732 50.84C118.336 51.02 118.024 51.272 117.796 51.596C117.568 51.908 117.454 52.268 117.454 52.676C117.454 52.976 117.508 53.24 117.616 53.468C117.724 53.684 117.886 53.876 118.102 54.044C118.33 54.212 118.636 54.368 119.02 54.512C119.404 54.656 119.866 54.794 120.406 54.926C121.042 55.07 121.606 55.25 122.098 55.466C122.602 55.682 123.028 55.934 123.376 56.222C123.736 56.498 124.006 56.822 124.186 57.194C124.366 57.566 124.456 57.986 124.456 58.454C124.456 59.198 124.27 59.852 123.898 60.416C123.526 60.968 123.004 61.4 122.332 61.712C121.672 62.024 120.898 62.18 120.01 62.18ZM119.254 63.638V55.466L120.568 56.06V63.638H119.254ZM120.946 56.06L119.65 55.466V47.924H120.946V56.06ZM135.714 62V49.4H137.118V62H135.714ZM127.29 62V49.4H128.694V62H127.29ZM127.974 56.402V55.034H136.308V56.402H127.974ZM140.825 62V49.4H142.103L150.347 60.308L150.095 60.632C150.059 60.44 150.029 60.152 150.005 59.768C149.993 59.384 149.975 58.952 149.951 58.472C149.939 57.98 149.927 57.47 149.915 56.942C149.903 56.414 149.891 55.898 149.879 55.394C149.879 54.89 149.879 54.434 149.879 54.026V49.4H151.283V62H149.969L141.761 51.236L141.977 50.858C142.013 51.338 142.043 51.812 142.067 52.28C142.103 52.748 142.127 53.198 142.139 53.63C142.163 54.062 142.181 54.458 142.193 54.818C142.205 55.178 142.211 55.484 142.211 55.736C142.223 55.988 142.229 56.168 142.229 56.276V62H140.825ZM158.431 62V55.718L158.557 56.6L153.463 49.4H155.173L159.349 55.376L158.971 55.34L162.805 49.4H164.425L159.547 56.798L159.817 55.574V62H158.431ZM171.135 62V48.68H172.485V62H171.135ZM175.502 62V52.604H176.852V62H175.502ZM176.168 50.57C175.832 50.57 175.574 50.486 175.394 50.318C175.226 50.138 175.142 49.898 175.142 49.598C175.142 49.298 175.232 49.058 175.412 48.878C175.592 48.698 175.844 48.608 176.168 48.608C176.492 48.608 176.744 48.698 176.924 48.878C177.104 49.046 177.194 49.286 177.194 49.598C177.194 49.886 177.104 50.12 176.924 50.3C176.744 50.48 176.492 50.57 176.168 50.57ZM186.982 65.96V59.696L187.27 59.534C187.222 59.87 187.084 60.2 186.856 60.524C186.64 60.836 186.364 61.118 186.028 61.37C185.692 61.622 185.314 61.82 184.894 61.964C184.474 62.108 184.042 62.18 183.598 62.18C182.746 62.18 181.984 61.97 181.312 61.55C180.64 61.13 180.106 60.554 179.71 59.822C179.326 59.078 179.134 58.238 179.134 57.302C179.134 56.354 179.326 55.514 179.71 54.782C180.106 54.038 180.64 53.456 181.312 53.036C181.984 52.616 182.734 52.406 183.562 52.406C184.042 52.406 184.492 52.484 184.912 52.64C185.344 52.784 185.734 52.982 186.082 53.234C186.43 53.486 186.718 53.78 186.946 54.116C187.174 54.44 187.312 54.782 187.36 55.142L186.928 55.034L186.982 52.586H188.332V65.96H186.982ZM183.76 60.884C184.384 60.884 184.942 60.734 185.434 60.434C185.938 60.122 186.334 59.696 186.622 59.156C186.91 58.616 187.054 57.992 187.054 57.284C187.054 56.588 186.91 55.97 186.622 55.43C186.334 54.89 185.944 54.464 185.452 54.152C184.96 53.84 184.396 53.684 183.76 53.684C183.124 53.684 182.56 53.84 182.068 54.152C181.576 54.464 181.186 54.89 180.898 55.43C180.622 55.97 180.484 56.588 180.484 57.284C180.484 57.968 180.622 58.586 180.898 59.138C181.174 59.678 181.558 60.104 182.05 60.416C182.542 60.728 183.112 60.884 183.76 60.884ZM194.292 62.18C193.572 62.18 192.96 62.036 192.456 61.748C191.964 61.448 191.586 61.016 191.322 60.452C191.07 59.888 190.944 59.186 190.944 58.346V52.604H192.312V58.076C192.312 58.712 192.396 59.246 192.564 59.678C192.744 60.098 193.008 60.416 193.356 60.632C193.716 60.848 194.154 60.956 194.67 60.956C195.066 60.956 195.432 60.89 195.768 60.758C196.104 60.614 196.398 60.422 196.65 60.182C196.902 59.942 197.1 59.66 197.244 59.336C197.388 59.012 197.46 58.67 197.46 58.31V52.604H198.81V62H197.478L197.424 60.02L197.64 59.912C197.496 60.332 197.256 60.716 196.92 61.064C196.584 61.4 196.182 61.67 195.714 61.874C195.258 62.078 194.784 62.18 194.292 62.18ZM201.799 62V52.604H203.149V62H201.799ZM202.465 50.57C202.129 50.57 201.871 50.486 201.691 50.318C201.523 50.138 201.439 49.898 201.439 49.598C201.439 49.298 201.529 49.058 201.709 48.878C201.889 48.698 202.141 48.608 202.465 48.608C202.789 48.608 203.041 48.698 203.221 48.878C203.401 49.046 203.491 49.286 203.491 49.598C203.491 49.886 203.401 50.12 203.221 50.3C203.041 50.48 202.789 50.57 202.465 50.57ZM209.913 62.18C209.061 62.18 208.293 61.97 207.609 61.55C206.937 61.13 206.403 60.554 206.007 59.822C205.623 59.078 205.431 58.238 205.431 57.302C205.431 56.354 205.629 55.514 206.025 54.782C206.421 54.038 206.955 53.456 207.627 53.036C208.299 52.616 209.055 52.406 209.895 52.406C210.363 52.406 210.813 52.478 211.245 52.622C211.689 52.766 212.085 52.97 212.433 53.234C212.781 53.486 213.069 53.78 213.297 54.116C213.525 54.44 213.663 54.782 213.711 55.142L213.297 54.998V48.68H214.647V62H213.315L213.279 59.66L213.621 59.534C213.573 59.87 213.435 60.2 213.207 60.524C212.991 60.836 212.715 61.118 212.379 61.37C212.043 61.622 211.659 61.82 211.227 61.964C210.807 62.108 210.369 62.18 209.913 62.18ZM210.111 60.938C210.735 60.938 211.293 60.782 211.785 60.47C212.277 60.158 212.661 59.726 212.937 59.174C213.225 58.622 213.369 57.992 213.369 57.284C213.369 56.576 213.225 55.952 212.937 55.412C212.661 54.86 212.277 54.428 211.785 54.116C211.293 53.792 210.735 53.63 210.111 53.63C209.463 53.63 208.893 53.792 208.401 54.116C207.921 54.428 207.537 54.86 207.249 55.412C206.973 55.952 206.835 56.576 206.835 57.284C206.835 57.98 206.973 58.604 207.249 59.156C207.525 59.708 207.909 60.146 208.401 60.47C208.893 60.782 209.463 60.938 210.111 60.938ZM217.637 62V52.604H218.987V62H217.637ZM218.303 50.57C217.967 50.57 217.709 50.486 217.529 50.318C217.361 50.138 217.277 49.898 217.277 49.598C217.277 49.298 217.367 49.058 217.547 48.878C217.727 48.698 217.979 48.608 218.303 48.608C218.627 48.608 218.879 48.698 219.059 48.878C219.239 49.046 219.329 49.286 219.329 49.598C219.329 49.886 219.239 50.12 219.059 50.3C218.879 50.48 218.627 50.57 218.303 50.57ZM223.231 62V50.138H224.581V62H223.231ZM221.107 53.9V52.604H226.957V53.9H221.107ZM230.199 66.14L232.017 61.712L232.143 62.99L227.427 52.604H228.957L232.179 59.804C232.275 59.996 232.371 60.224 232.467 60.488C232.563 60.74 232.653 60.992 232.737 61.244L232.233 61.19C232.317 60.986 232.395 60.776 232.467 60.56C232.551 60.344 232.629 60.134 232.701 59.93L235.527 52.604H237.075L233.277 62L231.657 66.14H230.199ZM243.539 65.96V52.604H244.889L244.925 54.89L244.673 54.926C244.781 54.47 245.015 54.056 245.375 53.684C245.735 53.3 246.173 52.994 246.689 52.766C247.205 52.538 247.751 52.424 248.327 52.424C249.167 52.424 249.917 52.634 250.577 53.054C251.249 53.474 251.783 54.05 252.179 54.782C252.575 55.514 252.773 56.354 252.773 57.302C252.773 58.238 252.581 59.072 252.197 59.804C251.813 60.536 251.285 61.118 250.613 61.55C249.941 61.97 249.185 62.18 248.345 62.18C247.757 62.18 247.199 62.06 246.671 61.82C246.143 61.58 245.693 61.268 245.321 60.884C244.949 60.488 244.703 60.062 244.583 59.606H244.907V65.96H243.539ZM248.129 60.884C248.765 60.884 249.329 60.728 249.821 60.416C250.313 60.104 250.703 59.678 250.991 59.138C251.279 58.598 251.423 57.986 251.423 57.302C251.423 56.606 251.279 55.988 250.991 55.448C250.703 54.908 250.313 54.482 249.821 54.17C249.329 53.858 248.765 53.702 248.129 53.702C247.493 53.702 246.923 53.858 246.419 54.17C245.927 54.47 245.537 54.89 245.249 55.43C244.961 55.97 244.817 56.588 244.817 57.284C244.817 57.98 244.961 58.598 245.249 59.138C245.537 59.678 245.927 60.104 246.419 60.416C246.923 60.728 247.493 60.884 248.129 60.884ZM254.736 62V52.604H256.086L256.122 55.106L255.978 54.764C256.11 54.344 256.32 53.954 256.608 53.594C256.908 53.234 257.262 52.946 257.67 52.73C258.078 52.514 258.528 52.406 259.02 52.406C259.224 52.406 259.416 52.424 259.596 52.46C259.776 52.484 259.926 52.52 260.046 52.568L259.668 54.08C259.512 54.008 259.35 53.96 259.182 53.936C259.026 53.9 258.876 53.882 258.732 53.882C258.324 53.882 257.958 53.954 257.634 54.098C257.31 54.242 257.034 54.446 256.806 54.71C256.578 54.962 256.404 55.256 256.284 55.592C256.164 55.928 256.104 56.288 256.104 56.672V62H254.736ZM265.204 62.18C264.268 62.18 263.434 61.97 262.702 61.55C261.982 61.13 261.412 60.548 260.992 59.804C260.584 59.06 260.38 58.214 260.38 57.266C260.38 56.33 260.584 55.496 260.992 54.764C261.412 54.032 261.982 53.456 262.702 53.036C263.434 52.616 264.268 52.406 265.204 52.406C266.128 52.406 266.95 52.616 267.67 53.036C268.402 53.456 268.972 54.032 269.38 54.764C269.8 55.496 270.01 56.33 270.01 57.266C270.01 58.214 269.8 59.06 269.38 59.804C268.972 60.548 268.402 61.13 267.67 61.55C266.95 61.97 266.128 62.18 265.204 62.18ZM265.204 60.902C265.864 60.902 266.452 60.746 266.968 60.434C267.484 60.11 267.886 59.678 268.174 59.138C268.462 58.586 268.606 57.962 268.606 57.266C268.606 56.57 268.462 55.952 268.174 55.412C267.886 54.872 267.484 54.452 266.968 54.152C266.452 53.84 265.864 53.684 265.204 53.684C264.544 53.684 263.95 53.84 263.422 54.152C262.906 54.452 262.498 54.878 262.198 55.43C261.91 55.97 261.772 56.582 261.784 57.266C261.772 57.962 261.91 58.586 262.198 59.138C262.498 59.678 262.906 60.11 263.422 60.434C263.95 60.746 264.544 60.902 265.204 60.902ZM276.03 66.14C275.334 66.14 274.674 66.032 274.05 65.816C273.426 65.6 272.91 65.33 272.502 65.006L273.042 63.872C273.282 64.064 273.558 64.232 273.87 64.376C274.194 64.532 274.542 64.652 274.914 64.736C275.286 64.832 275.664 64.88 276.048 64.88C276.744 64.88 277.332 64.748 277.812 64.484C278.304 64.232 278.676 63.854 278.928 63.35C279.192 62.846 279.324 62.222 279.324 61.478V59.678L279.54 59.624C279.432 60.08 279.198 60.506 278.838 60.902C278.478 61.286 278.04 61.598 277.524 61.838C277.008 62.066 276.462 62.18 275.886 62.18C275.01 62.18 274.224 61.97 273.528 61.55C272.844 61.13 272.304 60.554 271.908 59.822C271.512 59.078 271.314 58.238 271.314 57.302C271.314 56.354 271.512 55.514 271.908 54.782C272.316 54.038 272.862 53.456 273.546 53.036C274.23 52.616 274.998 52.406 275.85 52.406C276.222 52.406 276.582 52.454 276.93 52.55C277.278 52.634 277.596 52.76 277.884 52.928C278.184 53.096 278.454 53.288 278.694 53.504C278.934 53.72 279.132 53.954 279.288 54.206C279.456 54.458 279.576 54.716 279.648 54.98L279.27 54.926L279.324 52.604H280.674V61.424C280.674 62.18 280.566 62.846 280.35 63.422C280.134 64.01 279.816 64.502 279.396 64.898C278.988 65.306 278.496 65.612 277.92 65.816C277.356 66.032 276.726 66.14 276.03 66.14ZM276.048 60.884C276.684 60.884 277.248 60.734 277.74 60.434C278.244 60.122 278.64 59.696 278.928 59.156C279.216 58.616 279.36 57.992 279.36 57.284C279.36 56.588 279.216 55.97 278.928 55.43C278.652 54.89 278.262 54.464 277.758 54.152C277.254 53.84 276.684 53.684 276.048 53.684C275.4 53.684 274.824 53.84 274.32 54.152C273.828 54.464 273.438 54.89 273.15 55.43C272.862 55.97 272.718 56.588 272.718 57.284C272.718 57.968 272.856 58.586 273.132 59.138C273.42 59.678 273.81 60.104 274.302 60.416C274.806 60.728 275.388 60.884 276.048 60.884ZM283.3 62V52.604H284.65L284.686 55.106L284.542 54.764C284.674 54.344 284.884 53.954 285.172 53.594C285.472 53.234 285.826 52.946 286.234 52.73C286.642 52.514 287.092 52.406 287.584 52.406C287.788 52.406 287.98 52.424 288.16 52.46C288.34 52.484 288.49 52.52 288.61 52.568L288.232 54.08C288.076 54.008 287.914 53.96 287.746 53.936C287.59 53.9 287.44 53.882 287.296 53.882C286.888 53.882 286.522 53.954 286.198 54.098C285.874 54.242 285.598 54.446 285.37 54.71C285.142 54.962 284.968 55.256 284.848 55.592C284.728 55.928 284.668 56.288 284.668 56.672V62H283.3ZM293.283 62.18C292.467 62.18 291.729 61.97 291.069 61.55C290.409 61.118 289.887 60.536 289.503 59.804C289.119 59.06 288.927 58.22 288.927 57.284C288.927 56.336 289.125 55.496 289.521 54.764C289.917 54.032 290.445 53.456 291.105 53.036C291.777 52.616 292.527 52.406 293.355 52.406C293.847 52.406 294.303 52.478 294.723 52.622C295.143 52.766 295.515 52.97 295.839 53.234C296.175 53.486 296.451 53.786 296.667 54.134C296.895 54.47 297.051 54.836 297.135 55.232L296.739 55.034L296.793 52.604H298.143V62H296.775V59.696L297.135 59.462C297.051 59.822 296.889 60.17 296.649 60.506C296.409 60.83 296.115 61.118 295.767 61.37C295.431 61.622 295.047 61.82 294.615 61.964C294.195 62.108 293.751 62.18 293.283 62.18ZM293.589 60.884C294.213 60.884 294.771 60.734 295.263 60.434C295.755 60.122 296.139 59.696 296.415 59.156C296.703 58.604 296.847 57.98 296.847 57.284C296.847 56.588 296.703 55.97 296.415 55.43C296.139 54.89 295.755 54.464 295.263 54.152C294.771 53.84 294.213 53.684 293.589 53.684C292.953 53.684 292.389 53.84 291.897 54.152C291.417 54.464 291.033 54.89 290.745 55.43C290.469 55.97 290.331 56.588 290.331 57.284C290.331 57.968 290.469 58.586 290.745 59.138C291.021 59.678 291.405 60.104 291.897 60.416C292.389 60.728 292.953 60.884 293.589 60.884ZM300.755 62V52.604H302.105L302.141 54.746L301.871 54.836C301.967 54.476 302.123 54.152 302.339 53.864C302.567 53.564 302.837 53.306 303.149 53.09C303.461 52.874 303.803 52.712 304.175 52.604C304.547 52.484 304.937 52.424 305.345 52.424C305.837 52.424 306.275 52.508 306.659 52.676C307.055 52.832 307.385 53.108 307.649 53.504C307.925 53.888 308.135 54.398 308.279 55.034L307.955 54.872L308.081 54.566C308.201 54.29 308.375 54.026 308.603 53.774C308.843 53.51 309.113 53.276 309.413 53.072C309.725 52.868 310.061 52.712 310.421 52.604C310.793 52.484 311.171 52.424 311.555 52.424C312.215 52.424 312.773 52.568 313.229 52.856C313.685 53.132 314.027 53.558 314.255 54.134C314.495 54.71 314.615 55.442 314.615 56.33V62H313.229V56.402C313.229 55.778 313.151 55.268 312.995 54.872C312.839 54.476 312.605 54.182 312.293 53.99C311.993 53.786 311.609 53.684 311.141 53.684C310.733 53.684 310.355 53.756 310.007 53.9C309.671 54.032 309.377 54.224 309.125 54.476C308.885 54.716 308.693 54.992 308.549 55.304C308.417 55.616 308.351 55.952 308.351 56.312V62H306.983V56.384C306.983 55.784 306.899 55.286 306.731 54.89C306.575 54.494 306.341 54.194 306.029 53.99C305.717 53.786 305.333 53.684 304.877 53.684C304.481 53.684 304.115 53.756 303.779 53.9C303.443 54.032 303.149 54.218 302.897 54.458C302.657 54.698 302.465 54.974 302.321 55.286C302.189 55.598 302.123 55.934 302.123 56.294V62H300.755Z" fill="#1D2638"/>
</svg>
