<svg width="600" height="80" viewBox="0 0 600 80" fill="none" xmlns="http://www.w3.org/2000/svg">
<path d="M252.347 36.9309C251.067 35.1509 249.817 33.4009 248.527 31.5909C251.577 29.4009 254.587 27.2309 257.677 25.0109C254.387 22.6509 251.157 20.3409 247.867 17.9809C249.137 16.2009 250.387 14.4409 251.677 12.6309C257.437 16.7509 263.147 20.8409 268.937 25.0009C263.387 28.9909 257.897 32.9509 252.357 36.9309H252.347Z" fill="#1D2638"/>
<path d="M285.471 18.9399C286.571 18.9399 287.631 18.9299 288.691 18.9399C289.691 18.9499 290.711 18.8399 291.701 19.0599C294.251 19.6299 295.941 21.6899 296.061 24.3499C296.101 25.2699 296.021 26.1699 295.731 27.0399C294.991 29.2699 293.011 30.7299 290.651 30.7599C289.051 30.7799 287.461 30.7599 285.861 30.7599C285.741 30.7599 285.611 30.7399 285.461 30.7299V18.9199L285.471 18.9399ZM288.081 28.4399C288.991 28.4199 289.841 28.5099 290.681 28.3899C292.071 28.1899 292.981 27.3599 293.301 26.0299C293.431 25.4799 293.461 24.9199 293.401 24.3599C293.281 23.1099 292.791 22.0799 291.571 21.5599C290.451 21.0799 289.271 21.3199 288.071 21.2799V28.4499L288.081 28.4399Z" fill="#1D2638"/>
<path d="M370.281 30.7707C369.481 29.3507 368.701 27.9807 367.921 26.5907H366.151V30.7507H363.641V19.0107C363.801 18.9007 363.981 18.9407 364.141 18.9407C365.711 18.9407 367.281 18.9407 368.841 18.9407C370.681 18.9407 372.181 20.0207 372.641 21.6707C373.121 23.3907 372.441 25.0607 370.871 26.0407C370.801 26.0807 370.741 26.1307 370.641 26.2007C371.511 27.7107 372.371 29.2007 373.281 30.7707H370.271H370.281ZM366.171 24.4107C367.041 24.4107 367.881 24.4107 368.721 24.4107C369.471 24.4107 370.001 23.9807 370.151 23.3007C370.341 22.4407 370.061 21.7007 369.361 21.4107C368.331 20.9807 367.251 21.2507 366.171 21.1907V24.4207V24.4107Z" fill="#1D2638"/>
<path d="M270.531 23.5709C268.761 22.2909 267.021 21.0409 265.211 19.7409C268.521 17.3609 271.771 15.0209 275.091 12.6309C276.361 14.4109 277.621 16.1609 278.911 17.9709C276.101 19.8509 273.341 21.7009 270.531 23.5809V23.5709Z" fill="#1D2638"/>
<path d="M270.529 26.4416C273.139 28.2116 275.719 29.9816 278.359 31.7716C277.089 33.5616 275.849 35.3116 274.559 37.1216C271.459 34.9016 268.379 32.7116 265.219 30.4516C267.019 29.0916 268.759 27.7716 270.529 26.4316V26.4416Z" fill="#1D2638"/>
<path d="M305.169 28.4705H310.699C310.759 29.2605 310.759 29.9905 310.699 30.7505H302.609V18.9805H310.559V21.2305H305.169V23.5805H309.769C309.839 24.3605 309.819 25.0605 309.789 25.8405H305.169V28.4605V28.4705Z" fill="#1D2638"/>
<path d="M348.575 18.9609H356.525V21.2109H351.135V23.5909H355.725V25.8509H351.115V28.4509H356.645C356.695 29.2509 356.705 29.9809 356.645 30.7409H348.555V18.9609H348.575Z" fill="#1D2638"/>
<path d="M319.207 30.7509H316.188C317.628 28.7009 319.008 26.7109 320.418 24.7109C319.048 22.8109 317.697 20.9209 316.297 18.9709H319.487C320.317 20.1909 321.188 21.4509 322.098 22.7809C322.968 21.4509 323.797 20.1909 324.607 18.9609H327.628C326.248 20.9809 324.918 22.9209 323.568 24.8909C324.968 26.8209 326.348 28.7309 327.788 30.7109H324.598C323.738 29.4709 322.838 28.1709 321.908 26.8209C320.998 28.1509 320.107 29.4409 319.217 30.7409L319.207 30.7509Z" fill="#1D2638"/>
<path d="M336.129 21.2705H332.719V18.9805H342.229V21.2705H338.749V30.7505H336.129V21.2805V21.2705Z" fill="#1D2638"/>
<path d="M37.7826 32.057C36.5487 32.057 35.4443 31.7904 34.4694 31.2573C33.4944 30.7089 32.7252 29.9624 32.1615 29.018C31.6131 28.0583 31.3389 26.9767 31.3389 25.7733V15.9021H33.8067V25.5676C33.8067 26.3445 33.9895 27.0453 34.3551 27.6698C34.7207 28.2792 35.2006 28.7666 35.7947 29.1322C36.404 29.4978 37.0667 29.6806 37.7826 29.6806C38.5443 29.6806 39.2298 29.4978 39.8391 29.1322C40.4637 28.7666 40.9588 28.2792 41.3244 27.6698C41.69 27.0453 41.8728 26.3445 41.8728 25.5676V15.9021H44.2263V25.7733C44.2263 26.9767 43.9445 28.0583 43.3809 29.018C42.8325 29.9624 42.0708 30.7089 41.0959 31.2573C40.1209 31.7904 39.0165 32.057 37.7826 32.057ZM47.8877 31.9199V19.9237H50.2412V22.3915L49.8299 22.6657C49.9823 22.1325 50.2793 21.645 50.7211 21.2033C51.1628 20.7463 51.6884 20.3807 52.2977 20.1065C52.9071 19.817 53.5316 19.6723 54.1714 19.6723C55.0854 19.6723 55.8471 19.8551 56.4564 20.2207C57.0658 20.5711 57.5228 21.1119 57.8274 21.8431C58.1321 22.5743 58.2844 23.4959 58.2844 24.6079V31.9199H55.9309V24.7679C55.9309 24.0824 55.8395 23.5187 55.6567 23.077C55.4739 22.62 55.1921 22.2925 54.8112 22.0944C54.4304 21.8812 53.9582 21.7898 53.3945 21.8202C52.9375 21.8202 52.5186 21.8964 52.1378 22.0487C51.7569 22.1858 51.4218 22.3839 51.1324 22.6428C50.8582 22.9018 50.6373 23.2065 50.4697 23.5568C50.3174 23.892 50.2412 24.2576 50.2412 24.6536V31.9199H49.0759C48.8778 31.9199 48.6798 31.9199 48.4818 31.9199C48.2837 31.9199 48.0857 31.9199 47.8877 31.9199ZM61.5229 31.9199V15.0109H63.8764V31.9199H61.5229ZM72.3815 32.1484C71.2085 32.1484 70.1574 31.8818 69.2282 31.3487C68.3142 30.8003 67.5906 30.0615 67.0574 29.1322C66.5242 28.1878 66.2577 27.1138 66.2577 25.9104C66.2577 24.7069 66.5242 23.6406 67.0574 22.7114C67.5906 21.7669 68.3142 21.0281 69.2282 20.4949C70.1574 19.9465 71.2085 19.6723 72.3815 19.6723C73.5392 19.6723 74.5751 19.9465 75.4891 20.4949C76.4183 21.0281 77.1495 21.7669 77.6827 22.7114C78.2158 23.6406 78.4824 24.7069 78.4824 25.9104C78.4824 27.1138 78.2158 28.1878 77.6827 29.1322C77.1495 30.0615 76.4183 30.8003 75.4891 31.3487C74.5751 31.8818 73.5392 32.1484 72.3815 32.1484ZM72.3815 30.0005C73.0974 30.0005 73.7372 29.8253 74.3009 29.475C74.8645 29.1094 75.3063 28.6219 75.6262 28.0126C75.9461 27.388 76.0984 26.6873 76.0832 25.9104C76.0984 25.1182 75.9461 24.4175 75.6262 23.8082C75.3063 23.1836 74.8645 22.6961 74.3009 22.3458C73.7372 21.9954 73.0974 21.8202 72.3815 21.8202C71.6655 21.8202 71.0181 22.003 70.4392 22.3686C69.8756 22.719 69.4338 23.2065 69.1139 23.831C68.794 24.4404 68.6417 25.1335 68.6569 25.9104C68.6417 26.6873 68.794 27.388 69.1139 28.0126C69.4338 28.6219 69.8756 29.1094 70.4392 29.475C71.0181 29.8253 71.6655 30.0005 72.3815 30.0005ZM86.1425 32.1484C85.0305 32.1484 84.0327 31.8742 83.1492 31.3258C82.2809 30.7774 81.5877 30.031 81.0698 29.0865C80.5671 28.1421 80.3158 27.0833 80.3158 25.9104C80.3158 24.7374 80.5671 23.6787 81.0698 22.7342C81.5877 21.7898 82.2809 21.0433 83.1492 20.4949C84.0327 19.9465 85.0305 19.6723 86.1425 19.6723C87.2088 19.6723 88.1762 19.8932 89.0445 20.335C89.928 20.7615 90.5983 21.348 91.0553 22.0944L89.7528 23.6939C89.5091 23.3436 89.1968 23.0237 88.816 22.7342C88.4351 22.4448 88.0314 22.2163 87.6049 22.0487C87.1784 21.8812 86.7671 21.7974 86.371 21.7974C85.6398 21.7974 84.9848 21.9802 84.4059 22.3458C83.8423 22.6961 83.3929 23.1836 83.0578 23.8082C82.7226 24.4327 82.5551 25.1335 82.5551 25.9104C82.5551 26.6873 82.7302 27.388 83.0806 28.0126C83.431 28.6219 83.8956 29.1094 84.4745 29.475C85.0533 29.8406 85.6931 30.0234 86.3939 30.0234C86.8052 30.0234 87.2012 29.9548 87.5821 29.8177C87.9781 29.6806 88.359 29.475 88.7246 29.2008C89.0902 28.9266 89.4329 28.5914 89.7528 28.1954L91.0553 29.7949C90.5678 30.4804 89.8671 31.044 88.9531 31.4858C88.0543 31.9275 87.1174 32.1484 86.1425 32.1484ZM95.4232 28.1725L95.3089 25.6133L101.044 19.9237H104.22L95.4232 28.1725ZM93.2753 31.9199V15.0109H95.6288V31.9199H93.2753ZM101.364 31.9199L96.8399 26.6416L98.5079 25.1106L104.38 31.9199H101.364ZM113.261 31.9199V15.9249H120.07C120.984 15.9249 121.822 16.1534 122.583 16.6104C123.36 17.0522 123.977 17.6615 124.434 18.4384C124.891 19.2001 125.12 20.0608 125.12 21.0205C125.12 21.8888 124.891 22.6961 124.434 23.4426C123.977 24.189 123.368 24.7907 122.606 25.2477C121.845 25.6895 120.999 25.9104 120.07 25.9104H115.728V31.9199H113.261ZM122.766 31.9199L118.699 24.6993L121.235 24.1281L125.76 31.9428L122.766 31.9199ZM115.728 23.534H120.298C120.74 23.534 121.136 23.4273 121.487 23.2141C121.837 22.9856 122.111 22.6809 122.309 22.3001C122.507 21.904 122.606 21.4699 122.606 20.9976C122.606 20.4645 122.477 19.9998 122.218 19.6038C121.974 19.1925 121.624 18.8726 121.167 18.6441C120.725 18.4156 120.222 18.3013 119.659 18.3013H115.728V23.534ZM133.706 32.1484C132.472 32.1484 131.376 31.8895 130.416 31.3715C129.472 30.8384 128.725 30.1148 128.177 29.2008C127.644 28.2868 127.377 27.2357 127.377 26.0475C127.377 25.103 127.529 24.2423 127.834 23.4654C128.139 22.6885 128.558 22.0183 129.091 21.4546C129.639 20.8758 130.287 20.434 131.033 20.1293C131.795 19.8094 132.617 19.6495 133.501 19.6495C134.278 19.6495 135.001 19.8018 135.671 20.1065C136.342 20.3959 136.921 20.7996 137.408 21.3175C137.911 21.8355 138.292 22.4524 138.551 23.1684C138.825 23.8691 138.954 24.6384 138.939 25.4762L138.916 26.4816H129.114L128.588 24.6079H136.883L136.54 24.9964V24.448C136.494 23.9453 136.327 23.4959 136.037 23.0998C135.748 22.7038 135.382 22.3915 134.94 22.163C134.499 21.9345 134.019 21.8202 133.501 21.8202C132.678 21.8202 131.985 21.9802 131.421 22.3001C130.858 22.6047 130.431 23.0617 130.142 23.6711C129.852 24.2652 129.708 25.004 129.708 25.8875C129.708 26.7254 129.883 27.4566 130.233 28.0811C130.584 28.6905 131.079 29.1627 131.718 29.4978C132.358 29.833 133.097 30.0005 133.935 30.0005C134.529 30.0005 135.077 29.9015 135.58 29.7035C136.098 29.5054 136.654 29.1475 137.248 28.6295L138.436 30.2976C138.071 30.6632 137.621 30.9831 137.088 31.2573C136.57 31.5315 136.014 31.7524 135.42 31.9199C134.841 32.0723 134.27 32.1484 133.706 32.1484ZM144.221 31.9199L140.131 19.9237L142.508 19.9008L145.432 28.8809L144.907 28.8352L148.083 21.8202H149.5L152.699 28.858L152.082 28.9037L155.029 19.9237H157.406L153.361 31.9199H151.739L148.403 24.288L148.928 24.3566L145.821 31.9199H144.221ZM163.83 32.1484C162.84 32.1484 161.934 31.8742 161.111 31.3258C160.304 30.7774 159.656 30.031 159.169 29.0865C158.681 28.1421 158.438 27.0757 158.438 25.8875C158.438 24.6841 158.681 23.6178 159.169 22.6885C159.671 21.7441 160.342 21.0052 161.18 20.4721C162.033 19.9389 162.985 19.6723 164.036 19.6723C164.66 19.6723 165.232 19.7637 165.75 19.9465C166.268 20.1293 166.717 20.3883 167.098 20.7234C167.494 21.0433 167.814 21.4165 168.057 21.8431C168.316 22.2696 168.476 22.7266 168.537 23.2141L168.012 23.0313V19.9237H170.388V31.9199H168.012V29.0637L168.56 28.9037C168.469 29.315 168.278 29.7187 167.989 30.1148C167.715 30.4956 167.357 30.8384 166.915 31.143C166.488 31.4477 166.009 31.6914 165.475 31.8742C164.957 32.057 164.409 32.1484 163.83 32.1484ZM164.447 29.9777C165.163 29.9777 165.795 29.8025 166.344 29.4521C166.892 29.1018 167.319 28.6219 167.623 28.0126C167.943 27.388 168.103 26.6797 168.103 25.8875C168.103 25.1106 167.943 24.4175 167.623 23.8082C167.319 23.1988 166.892 22.719 166.344 22.3686C165.795 22.0183 165.163 21.8431 164.447 21.8431C163.746 21.8431 163.122 22.0183 162.573 22.3686C162.04 22.719 161.614 23.1988 161.294 23.8082C160.989 24.4175 160.837 25.1106 160.837 25.8875C160.837 26.6797 160.989 27.388 161.294 28.0126C161.614 28.6219 162.04 29.1018 162.573 29.4521C163.122 29.8025 163.746 29.9777 164.447 29.9777ZM173.674 31.9199V19.9237H176.051V23.6939L175.822 22.7799C175.99 22.2011 176.272 21.6755 176.668 21.2033C177.079 20.731 177.544 20.3578 178.061 20.0836C178.595 19.8094 179.143 19.6723 179.707 19.6723C179.966 19.6723 180.209 19.6952 180.438 19.7409C180.682 19.7866 180.872 19.8399 181.009 19.9008L180.392 22.46C180.209 22.3839 180.004 22.3229 179.775 22.2772C179.562 22.2163 179.349 22.1858 179.135 22.1858C178.724 22.1858 178.328 22.2696 177.947 22.4372C177.582 22.5895 177.254 22.8104 176.965 23.0998C176.69 23.374 176.47 23.7015 176.302 24.0824C176.134 24.448 176.051 24.8517 176.051 25.2934V31.9199H173.674ZM187.381 32.1484C186.284 32.1484 185.302 31.8818 184.433 31.3487C183.58 30.8003 182.902 30.0615 182.4 29.1322C181.897 28.1878 181.646 27.1138 181.646 25.9104C181.646 24.7069 181.889 23.6406 182.377 22.7114C182.88 21.7669 183.557 21.0281 184.411 20.4949C185.264 19.9465 186.231 19.6723 187.312 19.6723C187.907 19.6723 188.478 19.7713 189.026 19.9694C189.59 20.1522 190.093 20.4111 190.534 20.7463C190.976 21.0662 191.319 21.4242 191.563 21.8202C191.822 22.2011 191.951 22.5895 191.951 22.9856L191.266 23.0313V15.0109H193.619V31.9199H191.266V29.0637H191.723C191.723 29.4293 191.601 29.7949 191.357 30.1605C191.113 30.5108 190.786 30.8384 190.374 31.143C189.978 31.4477 189.514 31.6914 188.981 31.8742C188.463 32.057 187.929 32.1484 187.381 32.1484ZM187.701 30.1148C188.417 30.1148 189.049 29.932 189.597 29.5664C190.146 29.2008 190.572 28.7057 190.877 28.0811C191.197 27.4413 191.357 26.7177 191.357 25.9104C191.357 25.103 191.197 24.387 190.877 23.7625C190.572 23.1227 190.146 22.62 189.597 22.2544C189.049 21.8888 188.417 21.706 187.701 21.706C186.985 21.706 186.353 21.8888 185.804 22.2544C185.256 22.62 184.822 23.1227 184.502 23.7625C184.197 24.387 184.045 25.103 184.045 25.9104C184.045 26.7177 184.197 27.4413 184.502 28.0811C184.822 28.7057 185.256 29.2008 185.804 29.5664C186.353 29.932 186.985 30.1148 187.701 30.1148ZM200.858 32.1484C199.852 32.1484 198.946 31.9732 198.139 31.6229C197.331 31.2725 196.661 30.7546 196.128 30.0691L197.727 28.6981C198.184 29.2312 198.679 29.6197 199.213 29.8634C199.761 30.0919 200.378 30.2062 201.063 30.2062C201.338 30.2062 201.589 30.1757 201.817 30.1148C202.061 30.0386 202.267 29.932 202.434 29.7949C202.617 29.6578 202.754 29.4978 202.846 29.315C202.937 29.117 202.983 28.9037 202.983 28.6752C202.983 28.2792 202.838 27.9593 202.549 27.7155C202.396 27.6089 202.153 27.4946 201.817 27.3728C201.498 27.2357 201.079 27.0986 200.561 26.9615C199.677 26.733 198.954 26.474 198.39 26.1846C197.826 25.8951 197.392 25.5676 197.087 25.202C196.859 24.9126 196.691 24.6003 196.585 24.2652C196.478 23.9148 196.425 23.534 196.425 23.1227C196.425 22.62 196.531 22.163 196.745 21.7517C196.973 21.3251 197.278 20.9595 197.659 20.6549C198.055 20.335 198.512 20.0912 199.03 19.9237C199.563 19.7561 200.127 19.6723 200.721 19.6723C201.284 19.6723 201.84 19.7485 202.389 19.9008C202.952 20.0532 203.47 20.274 203.942 20.5635C204.415 20.8529 204.811 21.1957 205.131 21.5917L203.783 23.077C203.493 22.7875 203.173 22.5362 202.823 22.3229C202.488 22.0944 202.145 21.9192 201.795 21.7974C201.444 21.6755 201.124 21.6146 200.835 21.6146C200.515 21.6146 200.226 21.645 199.967 21.706C199.708 21.7669 199.487 21.8583 199.304 21.9802C199.136 22.102 199.007 22.2544 198.915 22.4372C198.824 22.62 198.778 22.8256 198.778 23.0541C198.794 23.2522 198.839 23.4426 198.915 23.6254C199.007 23.7929 199.129 23.9377 199.281 24.0595C199.449 24.1814 199.7 24.3109 200.035 24.448C200.37 24.5851 200.797 24.7146 201.315 24.8364C202.076 25.0345 202.701 25.2553 203.188 25.4991C203.691 25.7276 204.087 25.9942 204.377 26.2988C204.681 26.5883 204.895 26.9234 205.016 27.3042C205.138 27.6851 205.199 28.1116 205.199 28.5838C205.199 29.2693 205.001 29.8863 204.605 30.4347C204.224 30.9678 203.706 31.3868 203.051 31.6914C202.396 31.9961 201.665 32.1484 200.858 32.1484ZM219.59 32.1484C218.417 32.1484 217.366 31.8818 216.437 31.3487C215.523 30.8003 214.799 30.0615 214.266 29.1322C213.733 28.1878 213.466 27.1138 213.466 25.9104C213.466 24.7069 213.733 23.6406 214.266 22.7114C214.799 21.7669 215.523 21.0281 216.437 20.4949C217.366 19.9465 218.417 19.6723 219.59 19.6723C220.748 19.6723 221.784 19.9465 222.698 20.4949C223.627 21.0281 224.358 21.7669 224.891 22.7114C225.424 23.6406 225.691 24.7069 225.691 25.9104C225.691 27.1138 225.424 28.1878 224.891 29.1322C224.358 30.0615 223.627 30.8003 222.698 31.3487C221.784 31.8818 220.748 32.1484 219.59 32.1484ZM219.59 30.0005C220.306 30.0005 220.946 29.8253 221.509 29.475C222.073 29.1094 222.515 28.6219 222.835 28.0126C223.155 27.388 223.307 26.6873 223.292 25.9104C223.307 25.1182 223.155 24.4175 222.835 23.8082C222.515 23.1836 222.073 22.6961 221.509 22.3458C220.946 21.9954 220.306 21.8202 219.59 21.8202C218.874 21.8202 218.227 22.003 217.648 22.3686C217.084 22.719 216.642 23.2065 216.322 23.831C216.002 24.4404 215.85 25.1335 215.865 25.9104C215.85 26.6873 216.002 27.388 216.322 28.0126C216.642 28.6219 217.084 29.1094 217.648 29.475C218.227 29.8253 218.874 30.0005 219.59 30.0005ZM228.255 31.9199V19.9237H230.609V22.3915L230.198 22.6657C230.35 22.1325 230.647 21.645 231.089 21.2033C231.531 20.7463 232.056 20.3807 232.665 20.1065C233.275 19.817 233.899 19.6723 234.539 19.6723C235.453 19.6723 236.215 19.8551 236.824 20.2207C237.433 20.5711 237.89 21.1119 238.195 21.8431C238.5 22.5743 238.652 23.4959 238.652 24.6079V31.9199H236.299V24.7679C236.299 24.0824 236.207 23.5187 236.024 23.077C235.842 22.62 235.56 22.2925 235.179 22.0944C234.798 21.8812 234.326 21.7898 233.762 21.8202C233.305 21.8202 232.886 21.8964 232.506 22.0487C232.125 22.1858 231.79 22.3839 231.5 22.6428C231.226 22.9018 231.005 23.2065 230.837 23.5568C230.685 23.892 230.609 24.2576 230.609 24.6536V31.9199H229.444C229.246 31.9199 229.048 31.9199 228.85 31.9199C228.651 31.9199 228.453 31.9199 228.255 31.9199Z" fill="#1D2638"/>
<path d="M45.8496 63.2285C45.3317 63.2285 44.8366 63.16 44.3644 63.0229C43.8921 62.8857 43.4504 62.6877 43.0391 62.4287C42.643 62.1698 42.285 61.8651 41.9651 61.5147C41.6452 61.1491 41.371 60.7531 41.1425 60.3265L42.6963 58.7042C43.0162 59.1612 43.3056 59.5268 43.5646 59.801C43.8388 60.0752 44.0978 60.2885 44.3415 60.4408C44.5852 60.5931 44.829 60.6998 45.0727 60.7607C45.3164 60.8064 45.5754 60.8292 45.8496 60.8292C46.398 60.8292 46.8779 60.7074 47.2892 60.4636C47.7005 60.2047 48.0204 59.8543 48.2489 59.4125C48.4774 58.9708 48.5916 58.4681 48.5916 57.9044V49.29H45.6668V47.005H53.5272V49.29H51.0594V58.1329C51.0594 58.8641 50.9299 59.542 50.671 60.1666C50.4272 60.7759 50.0692 61.3091 49.597 61.7661C49.14 62.2231 48.5916 62.5811 47.9518 62.84C47.3272 63.099 46.6265 63.2285 45.8496 63.2285ZM60.5604 63.2285C59.3874 63.2285 58.3363 62.9619 57.4071 62.4287C56.4931 61.8803 55.7695 61.1415 55.2363 60.2123C54.7031 59.2678 54.4366 58.1939 54.4366 56.9904C54.4366 55.787 54.7031 54.7207 55.2363 53.7914C55.7695 52.847 56.4931 52.1082 57.4071 51.575C58.3363 51.0266 59.3874 50.7524 60.5604 50.7524C61.7181 50.7524 62.754 51.0266 63.668 51.575C64.5972 52.1082 65.3284 52.847 65.8616 53.7914C66.3947 54.7207 66.6613 55.787 66.6613 56.9904C66.6613 58.1939 66.3947 59.2678 65.8616 60.2123C65.3284 61.1415 64.5972 61.8803 63.668 62.4287C62.754 62.9619 61.7181 63.2285 60.5604 63.2285ZM60.5604 61.0806C61.2763 61.0806 61.9161 60.9054 62.4798 60.555C63.0434 60.1894 63.4852 59.702 63.8051 59.0926C64.125 58.4681 64.2773 57.7673 64.2621 56.9904C64.2773 56.1983 64.125 55.4976 63.8051 54.8882C63.4852 54.2637 63.0434 53.7762 62.4798 53.4258C61.9161 53.0755 61.2763 52.9003 60.5604 52.9003C59.8444 52.9003 59.197 53.0831 58.6181 53.4487C58.0545 53.7991 57.6127 54.2865 57.2928 54.9111C56.9729 55.5204 56.8206 56.2135 56.8358 56.9904C56.8206 57.7673 56.9729 58.4681 57.2928 59.0926C57.6127 59.702 58.0545 60.1894 58.6181 60.555C59.197 60.9054 59.8444 61.0806 60.5604 61.0806ZM69.6143 63V51.0037H71.9679V63H69.6143ZM70.7568 48.3531C70.2541 48.3531 69.8657 48.2237 69.5915 47.9647C69.3173 47.7057 69.1802 47.3401 69.1802 46.8679C69.1802 46.4261 69.3173 46.0681 69.5915 45.7939C69.8809 45.5197 70.2693 45.3826 70.7568 45.3826C71.2595 45.3826 71.648 45.5121 71.9222 45.7711C72.1964 46.0301 72.3335 46.3957 72.3335 46.8679C72.3335 47.3097 72.1887 47.6676 71.8993 47.9418C71.6251 48.216 71.2443 48.3531 70.7568 48.3531ZM75.5855 63V51.0037H77.939V53.4715L77.5277 53.7457C77.6801 53.2126 77.9771 52.7251 78.4189 52.2833C78.8607 51.8263 79.3862 51.4607 79.9955 51.1865C80.6049 50.8971 81.2294 50.7524 81.8692 50.7524C82.7832 50.7524 83.5449 50.9352 84.1542 51.3008C84.7636 51.6512 85.2206 52.1919 85.5252 52.9231C85.8299 53.6543 85.9822 54.576 85.9822 55.688V63H83.6287V55.8479C83.6287 55.1624 83.5373 54.5988 83.3545 54.157C83.1717 53.7 82.8899 53.3725 82.509 53.1745C82.1282 52.9612 81.656 52.8698 81.0923 52.9003C80.6353 52.9003 80.2164 52.9765 79.8356 53.1288C79.4548 53.2659 79.1196 53.4639 78.8302 53.7229C78.556 53.9819 78.3351 54.2865 78.1675 54.6369C78.0152 54.972 77.939 55.3376 77.939 55.7337V63H76.7737C76.5757 63 76.3776 63 76.1796 63C75.9816 63 75.7835 63 75.5855 63ZM101.109 63.2285C99.7989 63.2285 98.6411 62.9695 97.6357 62.4516C96.6456 61.9337 95.7925 61.1568 95.0765 60.1209L96.7674 58.1786C97.5139 59.245 98.2298 59.9838 98.9153 60.3951C99.6008 60.8064 100.416 61.012 101.36 61.012C101.939 61.012 102.465 60.9206 102.937 60.7378C103.409 60.555 103.782 60.3037 104.057 59.9838C104.331 59.6639 104.468 59.2983 104.468 58.887C104.468 58.6128 104.422 58.3538 104.331 58.1101C104.239 57.8664 104.095 57.6455 103.897 57.4474C103.714 57.2494 103.47 57.0666 103.165 56.899C102.876 56.7315 102.533 56.5868 102.137 56.4649C101.741 56.3278 101.284 56.2135 100.766 56.1221C99.6694 55.9089 98.7554 55.589 98.0242 55.1624C97.3082 54.7359 96.7674 54.1951 96.4018 53.5401C96.0515 52.8851 95.8763 52.1234 95.8763 51.2551C95.8763 50.6153 96.0134 50.0212 96.2876 49.4728C96.577 48.9244 96.9655 48.4522 97.4529 48.0561C97.9556 47.6448 98.5421 47.3325 99.2124 47.1192C99.8827 46.8907 100.606 46.7765 101.383 46.7765C102.617 46.7765 103.691 47.0202 104.605 47.5077C105.534 47.9799 106.265 48.673 106.799 49.587L105.062 51.3008C104.605 50.5544 104.057 49.9831 103.417 49.587C102.792 49.191 102.091 48.9929 101.315 48.9929C100.72 48.9929 100.203 49.0843 99.7608 49.2671C99.319 49.4499 98.9687 49.7089 98.7097 50.044C98.466 50.3639 98.3441 50.7448 98.3441 51.1865C98.3441 51.5064 98.405 51.8035 98.5269 52.0777C98.6488 52.3367 98.8316 52.5728 99.0753 52.786C99.3343 52.9841 99.677 53.1669 100.104 53.3344C100.53 53.4868 101.04 53.6239 101.634 53.7457C102.472 53.9285 103.219 54.1647 103.874 54.4541C104.529 54.7283 105.085 55.0558 105.542 55.4366C105.999 55.8175 106.342 56.244 106.57 56.7162C106.814 57.1885 106.936 57.6988 106.936 58.2472C106.936 59.2678 106.7 60.1514 106.227 60.8978C105.755 61.6442 105.085 62.2231 104.217 62.6344C103.348 63.0305 102.312 63.2285 101.109 63.2285ZM99.7379 65.0794V54.7054L101.954 55.4595V65.0794H99.7379ZM102.868 55.4595L100.652 54.7054V45.1313H102.868V55.4595ZM120.875 63V47.005H123.343V63H120.875ZM110.432 63V47.005H112.9V63H110.432ZM111.506 56.2135V53.8371H121.972V56.2135H111.506ZM127.815 63V47.005H130.032L139.811 60.098L139.446 60.3037C139.385 59.9229 139.332 59.5116 139.286 59.0698C139.24 58.6128 139.195 58.1329 139.149 57.6302C139.118 57.1123 139.088 56.5715 139.057 56.0079C139.042 55.429 139.027 54.8273 139.012 54.2027C138.996 53.5782 138.989 52.9308 138.989 52.2605V47.005H141.457V63H139.195L129.575 50.3868L129.826 50.0669C129.902 50.9961 129.963 51.7883 130.009 52.4433C130.07 53.0831 130.115 53.6315 130.146 54.0885C130.192 54.5303 130.222 54.8959 130.237 55.1853C130.253 55.4595 130.26 55.688 130.26 55.8708C130.275 56.0536 130.283 56.2135 130.283 56.3506V63H127.815ZM150.23 63V55.0253L150.39 56.145L143.924 47.005H146.894L151.83 54.0885L151.259 54.0199L155.714 47.005H158.548L152.355 56.3963L152.698 54.8425V63H150.23ZM166.875 63V46.091H169.229V63H166.875ZM172.953 63V51.0037H175.306V63H172.953ZM174.095 48.3531C173.592 48.3531 173.204 48.2237 172.93 47.9647C172.655 47.7057 172.518 47.3401 172.518 46.8679C172.518 46.4261 172.655 46.0681 172.93 45.7939C173.219 45.5197 173.608 45.3826 174.095 45.3826C174.598 45.3826 174.986 45.5121 175.26 45.7711C175.535 46.0301 175.672 46.3957 175.672 46.8679C175.672 47.3097 175.527 47.6676 175.238 47.9418C174.963 48.216 174.583 48.3531 174.095 48.3531ZM187.675 68.027V60.1437H188.132C188.132 60.5093 188.01 60.8749 187.767 61.2405C187.523 61.5909 187.195 61.9184 186.784 62.2231C186.373 62.5278 185.916 62.7715 185.413 62.9543C184.91 63.1371 184.392 63.2285 183.859 63.2285C182.778 63.2285 181.81 62.9619 180.957 62.4287C180.104 61.8803 179.426 61.1415 178.924 60.2123C178.436 59.2678 178.193 58.1939 178.193 56.9904C178.193 55.787 178.436 54.7207 178.924 53.7914C179.411 52.847 180.074 52.1082 180.912 51.575C181.765 51.0266 182.724 50.7524 183.791 50.7524C184.385 50.7524 184.949 50.8514 185.482 51.0494C186.03 51.2475 186.518 51.5064 186.944 51.8263C187.386 52.1462 187.729 52.5042 187.972 52.9003C188.231 53.2811 188.361 53.6696 188.361 54.0656L187.675 54.1113V50.9809H190.029V68.027H187.675ZM184.111 61.0577C184.827 61.0577 185.459 60.8826 186.007 60.5322C186.556 60.1818 186.982 59.702 187.287 59.0926C187.607 58.4833 187.767 57.7826 187.767 56.9904C187.767 56.1983 187.607 55.4976 187.287 54.8882C186.982 54.2637 186.556 53.7762 186.007 53.4258C185.459 53.0755 184.827 52.9003 184.111 52.9003C183.395 52.9003 182.763 53.0831 182.214 53.4487C181.666 53.7991 181.232 54.2865 180.912 54.9111C180.607 55.5204 180.455 56.2135 180.455 56.9904C180.455 57.7673 180.607 58.4681 180.912 59.0926C181.232 59.702 181.666 60.1818 182.214 60.5322C182.763 60.8826 183.395 61.0577 184.111 61.0577ZM197.521 63.2285C196.668 63.2285 195.921 63.0305 195.282 62.6344C194.657 62.2383 194.17 61.6823 193.819 60.9663C193.484 60.2504 193.317 59.3973 193.317 58.4071V51.0037H195.67V57.7673C195.67 58.4681 195.777 59.0774 195.99 59.5953C196.218 60.098 196.538 60.4865 196.95 60.7607C197.376 61.0349 197.887 61.172 198.481 61.172C198.922 61.172 199.326 61.1034 199.692 60.9663C200.057 60.814 200.37 60.6084 200.629 60.3494C200.903 60.0904 201.116 59.7781 201.268 59.4125C201.421 59.0469 201.497 58.6509 201.497 58.2243V51.0037H203.85V63H201.497V60.4865L201.908 60.2123C201.725 60.7759 201.413 61.2862 200.971 61.7432C200.545 62.2002 200.034 62.5658 199.44 62.84C198.846 63.099 198.206 63.2285 197.521 63.2285ZM207.54 63V51.0037H209.894V63H207.54ZM208.682 48.3531C208.18 48.3531 207.791 48.2237 207.517 47.9647C207.243 47.7057 207.106 47.3401 207.106 46.8679C207.106 46.4261 207.243 46.0681 207.517 45.7939C207.807 45.5197 208.195 45.3826 208.682 45.3826C209.185 45.3826 209.574 45.5121 209.848 45.7711C210.122 46.0301 210.259 46.3957 210.259 46.8679C210.259 47.3097 210.114 47.6676 209.825 47.9418C209.551 48.216 209.17 48.3531 208.682 48.3531ZM218.515 63.2285C217.418 63.2285 216.436 62.9619 215.568 62.4287C214.715 61.8803 214.037 61.1415 213.534 60.2123C213.031 59.2678 212.78 58.1939 212.78 56.9904C212.78 55.787 213.024 54.7207 213.511 53.7914C214.014 52.847 214.692 52.1082 215.545 51.575C216.398 51.0266 217.365 50.7524 218.447 50.7524C219.041 50.7524 219.612 50.8514 220.16 51.0494C220.724 51.2322 221.227 51.4912 221.669 51.8263C222.11 52.1462 222.453 52.5042 222.697 52.9003C222.956 53.2811 223.085 53.6696 223.085 54.0656L222.4 54.1113V46.091H224.753V63H222.4V60.1437H222.857C222.857 60.5093 222.735 60.8749 222.491 61.2405C222.247 61.5909 221.92 61.9184 221.509 62.2231C221.113 62.5278 220.648 62.7715 220.115 62.9543C219.597 63.1371 219.064 63.2285 218.515 63.2285ZM218.835 61.1948C219.551 61.1948 220.183 61.012 220.732 60.6464C221.28 60.2808 221.707 59.7858 222.011 59.1612C222.331 58.5214 222.491 57.7978 222.491 56.9904C222.491 56.1831 222.331 55.4671 222.011 54.8425C221.707 54.2027 221.28 53.7 220.732 53.3344C220.183 52.9688 219.551 52.786 218.835 52.786C218.119 52.786 217.487 52.9688 216.939 53.3344C216.39 53.7 215.956 54.2027 215.636 54.8425C215.332 55.4671 215.179 56.1831 215.179 56.9904C215.179 57.7978 215.332 58.5214 215.636 59.1612C215.956 59.7858 216.39 60.2808 216.939 60.6464C217.487 61.012 218.119 61.1948 218.835 61.1948ZM228.382 63V51.0037H230.735V63H228.382ZM229.524 48.3531C229.021 48.3531 228.633 48.2237 228.359 47.9647C228.085 47.7057 227.948 47.3401 227.948 46.8679C227.948 46.4261 228.085 46.0681 228.359 45.7939C228.648 45.5197 229.037 45.3826 229.524 45.3826C230.027 45.3826 230.415 45.5121 230.69 45.7711C230.964 46.0301 231.101 46.3957 231.101 46.8679C231.101 47.3097 230.956 47.6676 230.667 47.9418C230.392 48.216 230.012 48.3531 229.524 48.3531ZM235.838 63V47.9418H238.192V63H235.838ZM233.347 53.2887V51.0037H240.979V53.2887H233.347ZM245.133 68.2555L247.555 62.6572L247.578 64.531L241.591 51.0037H244.333L248.081 59.8238C248.157 59.9762 248.248 60.2123 248.355 60.5322C248.462 60.8369 248.553 61.1415 248.629 61.4462L248.035 61.5833C248.157 61.2634 248.271 60.9435 248.378 60.6236C248.5 60.3037 248.614 59.9838 248.721 59.6639L251.851 51.0037H254.639L249.703 63L247.67 68.2555H245.133ZM262.804 68.027V51.0037H265.18V53.7457L264.815 53.5401C264.906 53.0831 265.165 52.6489 265.591 52.2376C266.018 51.8111 266.536 51.4684 267.145 51.2094C267.77 50.9352 268.41 50.7981 269.065 50.7981C270.146 50.7981 271.106 51.0647 271.944 51.5978C272.782 52.131 273.444 52.8622 273.932 53.7914C274.419 54.7207 274.663 55.787 274.663 56.9904C274.663 58.1786 274.419 59.245 273.932 60.1894C273.459 61.1187 272.804 61.8575 271.967 62.4059C271.129 62.9391 270.184 63.2057 269.133 63.2057C268.432 63.2057 267.755 63.0686 267.1 62.7943C266.445 62.5049 265.889 62.1393 265.432 61.6975C264.975 61.2558 264.693 60.7988 264.586 60.3265L265.18 60.0066V68.027H262.804ZM268.745 61.0349C269.445 61.0349 270.07 60.8597 270.618 60.5093C271.167 60.159 271.601 59.6791 271.921 59.0698C272.241 58.4605 272.401 57.7673 272.401 56.9904C272.401 56.2135 272.241 55.528 271.921 54.9339C271.616 54.3246 271.19 53.8448 270.641 53.4944C270.093 53.144 269.461 52.9688 268.745 52.9688C268.029 52.9688 267.397 53.144 266.848 53.4944C266.3 53.8295 265.866 54.3018 265.546 54.9111C265.226 55.5204 265.066 56.2135 265.066 56.9904C265.066 57.7673 265.226 58.4605 265.546 59.0698C265.866 59.6791 266.3 60.159 266.848 60.5093C267.397 60.8597 268.029 61.0349 268.745 61.0349ZM277.219 63V51.0037H279.595V54.774L279.367 53.86C279.534 53.2811 279.816 52.7556 280.212 52.2833C280.624 51.8111 281.088 51.4379 281.606 51.1637C282.139 50.8895 282.688 50.7524 283.251 50.7524C283.51 50.7524 283.754 50.7752 283.982 50.8209C284.226 50.8666 284.417 50.92 284.554 50.9809L283.937 53.5401C283.754 53.4639 283.548 53.403 283.32 53.3573C283.107 53.2964 282.893 53.2659 282.68 53.2659C282.269 53.2659 281.873 53.3497 281.492 53.5172C281.126 53.6696 280.799 53.8905 280.509 54.1799C280.235 54.4541 280.014 54.7816 279.847 55.1624C279.679 55.528 279.595 55.9317 279.595 56.3735V63H277.219ZM291.314 63.2285C290.141 63.2285 289.09 62.9619 288.161 62.4287C287.247 61.8803 286.523 61.1415 285.99 60.2123C285.457 59.2678 285.19 58.1939 285.19 56.9904C285.19 55.787 285.457 54.7207 285.99 53.7914C286.523 52.847 287.247 52.1082 288.161 51.575C289.09 51.0266 290.141 50.7524 291.314 50.7524C292.472 50.7524 293.508 51.0266 294.422 51.575C295.351 52.1082 296.082 52.847 296.615 53.7914C297.148 54.7207 297.415 55.787 297.415 56.9904C297.415 58.1939 297.148 59.2678 296.615 60.2123C296.082 61.1415 295.351 61.8803 294.422 62.4287C293.508 62.9619 292.472 63.2285 291.314 63.2285ZM291.314 61.0806C292.03 61.0806 292.67 60.9054 293.234 60.555C293.797 60.1894 294.239 59.702 294.559 59.0926C294.879 58.4681 295.031 57.7673 295.016 56.9904C295.031 56.1983 294.879 55.4976 294.559 54.8882C294.239 54.2637 293.797 53.7762 293.234 53.4258C292.67 53.0755 292.03 52.9003 291.314 52.9003C290.598 52.9003 289.951 53.0831 289.372 53.4487C288.808 53.7991 288.366 54.2865 288.047 54.9111C287.727 55.5204 287.574 56.2135 287.59 56.9904C287.574 57.7673 287.727 58.4681 288.047 59.0926C288.366 59.702 288.808 60.1894 289.372 60.555C289.951 60.9054 290.598 61.0806 291.314 61.0806ZM305.349 68.2555C304.496 68.2555 303.643 68.1184 302.79 67.8442C301.952 67.5852 301.274 67.2425 300.757 66.816L301.625 64.988C301.93 65.2165 302.287 65.4145 302.699 65.5821C303.11 65.7649 303.544 65.902 304.001 65.9934C304.458 66.1 304.908 66.1533 305.349 66.1533C306.187 66.1533 306.888 66.0162 307.452 65.742C308.015 65.4678 308.442 65.0641 308.731 64.531C309.021 63.9978 309.165 63.3351 309.165 62.543V60.2351L309.417 60.3951C309.341 60.8673 309.089 61.3243 308.663 61.7661C308.251 62.1926 307.733 62.543 307.109 62.8172C306.484 63.0914 305.844 63.2285 305.189 63.2285C304.047 63.2285 303.026 62.9619 302.128 62.4287C301.244 61.8803 300.543 61.1415 300.025 60.2123C299.507 59.2678 299.248 58.1939 299.248 56.9904C299.248 55.787 299.5 54.7207 300.002 53.7914C300.52 52.847 301.221 52.1082 302.105 51.575C303.003 51.0266 304.009 50.7524 305.121 50.7524C305.578 50.7524 306.02 50.8133 306.446 50.9352C306.873 51.0418 307.269 51.2018 307.634 51.415C308 51.6131 308.328 51.834 308.617 52.0777C308.906 52.3214 309.142 52.5804 309.325 52.8546C309.508 53.1288 309.622 53.3878 309.668 53.6315L309.165 53.8143V51.0037H311.519V62.2688C311.519 63.2285 311.374 64.074 311.085 64.8052C310.811 65.5516 310.407 66.1762 309.874 66.6789C309.341 67.1968 308.693 67.5852 307.931 67.8442C307.17 68.1184 306.309 68.2555 305.349 68.2555ZM305.441 61.0577C306.187 61.0577 306.85 60.8826 307.429 60.5322C308.008 60.1818 308.457 59.702 308.777 59.0926C309.097 58.4833 309.257 57.7826 309.257 56.9904C309.257 56.1983 309.089 55.4976 308.754 54.8882C308.434 54.2637 307.985 53.7762 307.406 53.4258C306.842 53.0755 306.187 52.9003 305.441 52.9003C304.71 52.9003 304.055 53.0831 303.476 53.4487C302.912 53.7991 302.463 54.2865 302.128 54.9111C301.808 55.5204 301.648 56.2135 301.648 56.9904C301.648 57.7673 301.808 58.4681 302.128 59.0926C302.463 59.702 302.912 60.1818 303.476 60.5322C304.055 60.8826 304.71 61.0577 305.441 61.0577ZM314.819 63V51.0037H317.195V54.774L316.967 53.86C317.134 53.2811 317.416 52.7556 317.812 52.2833C318.223 51.8111 318.688 51.4379 319.206 51.1637C319.739 50.8895 320.288 50.7524 320.851 50.7524C321.11 50.7524 321.354 50.7752 321.582 50.8209C321.826 50.8666 322.017 50.92 322.154 50.9809L321.537 53.5401C321.354 53.4639 321.148 53.403 320.92 53.3573C320.706 53.2964 320.493 53.2659 320.28 53.2659C319.869 53.2659 319.473 53.3497 319.092 53.5172C318.726 53.6696 318.399 53.8905 318.109 54.1799C317.835 54.4541 317.614 54.7816 317.447 55.1624C317.279 55.528 317.195 55.9317 317.195 56.3735V63H314.819ZM328.137 63.2285C327.147 63.2285 326.241 62.9543 325.418 62.4059C324.611 61.8575 323.963 61.1111 323.476 60.1666C322.988 59.2221 322.744 58.1558 322.744 56.9676C322.744 55.7642 322.988 54.6978 323.476 53.7686C323.978 52.8241 324.649 52.0853 325.486 51.5521C326.34 51.019 327.292 50.7524 328.343 50.7524C328.967 50.7524 329.539 50.8438 330.056 51.0266C330.574 51.2094 331.024 51.4684 331.405 51.8035C331.801 52.1234 332.121 52.4966 332.364 52.9231C332.623 53.3497 332.783 53.8067 332.844 54.2941L332.319 54.1113V51.0037H334.695V63H332.319V60.1437L332.867 59.9838C332.776 60.3951 332.585 60.7988 332.296 61.1948C332.022 61.5757 331.664 61.9184 331.222 62.2231C330.795 62.5278 330.315 62.7715 329.782 62.9543C329.264 63.1371 328.716 63.2285 328.137 63.2285ZM328.754 61.0577C329.47 61.0577 330.102 60.8826 330.651 60.5322C331.199 60.1818 331.626 59.702 331.93 59.0926C332.25 58.4681 332.41 57.7597 332.41 56.9676C332.41 56.1907 332.25 55.4976 331.93 54.8882C331.626 54.2789 331.199 53.7991 330.651 53.4487C330.102 53.0983 329.47 52.9231 328.754 52.9231C328.053 52.9231 327.429 53.0983 326.88 53.4487C326.347 53.7991 325.921 54.2789 325.601 54.8882C325.296 55.4976 325.144 56.1907 325.144 56.9676C325.144 57.7597 325.296 58.4681 325.601 59.0926C325.921 59.702 326.347 60.1818 326.88 60.5322C327.429 60.8826 328.053 61.0577 328.754 61.0577ZM337.935 63V51.0037H340.312V53.5629L339.878 53.8371C340 53.4411 340.19 53.0602 340.449 52.6946C340.723 52.329 341.051 52.0091 341.431 51.7349C341.828 51.4455 342.246 51.217 342.688 51.0494C343.145 50.8819 343.61 50.7981 344.082 50.7981C344.768 50.7981 345.369 50.9123 345.887 51.1408C346.405 51.3693 346.832 51.7121 347.167 52.1691C347.502 52.6261 347.746 53.1973 347.898 53.8828L347.532 53.7914L347.692 53.403C347.86 53.0526 348.088 52.7251 348.378 52.4204C348.683 52.1005 349.025 51.8187 349.406 51.575C349.787 51.3313 350.191 51.1408 350.617 51.0037C351.044 50.8666 351.463 50.7981 351.874 50.7981C352.773 50.7981 353.512 50.9809 354.09 51.3465C354.684 51.7121 355.126 52.2681 355.416 53.0145C355.72 53.761 355.873 54.6902 355.873 55.8022V63H353.496V55.9393C353.496 55.2538 353.405 54.6978 353.222 54.2713C353.055 53.8295 352.796 53.502 352.445 53.2887C352.095 53.0755 351.645 52.9688 351.097 52.9688C350.671 52.9688 350.267 53.045 349.886 53.1973C349.52 53.3344 349.2 53.5325 348.926 53.7914C348.652 54.0504 348.439 54.3551 348.286 54.7054C348.134 55.0406 348.058 55.4138 348.058 55.8251V63H345.682V55.8936C345.682 55.2691 345.59 54.7435 345.407 54.317C345.225 53.8752 344.958 53.5401 344.608 53.3116C344.257 53.0831 343.831 52.9688 343.328 52.9688C342.902 52.9688 342.505 53.045 342.14 53.1973C341.774 53.3344 341.454 53.5325 341.18 53.7914C340.906 54.0352 340.693 54.3322 340.54 54.6826C340.388 55.0177 340.312 55.3833 340.312 55.7794V63H337.935Z" fill="#1D2638"/>
<path d="M556.078 22.1191H417.837C407.952 22.1191 399.938 30.1332 399.938 40.0191C399.938 49.905 407.952 57.9191 417.837 57.9191H556.078C565.963 57.9191 573.977 49.905 573.977 40.0191C573.977 30.1332 565.963 22.1191 556.078 22.1191Z" fill="#1D2638"/>
<path d="M417.217 46.2598V36.2142H413.753V34.1358H423.036V36.2142H419.469V46.2598H417.217ZM423.849 46.2598V37.1321H425.945L425.98 40.0419L425.685 39.3837C425.812 38.9219 426.031 38.5062 426.343 38.1367C426.655 37.7672 427.013 37.4785 427.417 37.2707C427.833 37.0513 428.266 36.9416 428.716 36.9416C428.912 36.9416 429.097 36.9589 429.27 36.9936C429.455 37.0282 429.605 37.0686 429.721 37.1148L429.149 39.453C429.022 39.3837 428.866 39.326 428.681 39.2798C428.497 39.2336 428.312 39.2105 428.127 39.2105C427.839 39.2105 427.561 39.2683 427.296 39.3837C427.042 39.4876 426.817 39.6378 426.62 39.834C426.424 40.0303 426.268 40.2613 426.153 40.5268C426.049 40.7809 425.997 41.0695 425.997 41.3928V46.2598H423.849ZM434.197 46.433C433.446 46.433 432.765 46.2251 432.153 45.8094C431.541 45.3938 431.05 44.828 430.681 44.1121C430.311 43.3962 430.127 42.5822 430.127 41.67C430.127 40.7578 430.311 39.9437 430.681 39.2278C431.05 38.512 431.553 37.9519 432.188 37.5478C432.823 37.1437 433.539 36.9416 434.335 36.9416C434.797 36.9416 435.219 37.0109 435.6 37.1494C435.981 37.2765 436.316 37.4612 436.604 37.7037C436.893 37.9462 437.13 38.2233 437.314 38.535C437.511 38.8468 437.643 39.1817 437.713 39.5396L437.245 39.4184V37.1321H439.393V46.2598H437.228V44.0774L437.73 43.9908C437.649 44.3026 437.499 44.6086 437.28 44.9088C437.072 45.1975 436.806 45.4573 436.483 45.6882C436.171 45.9076 435.819 46.0866 435.426 46.2251C435.045 46.3637 434.636 46.433 434.197 46.433ZM434.786 44.5451C435.282 44.5451 435.721 44.4238 436.102 44.1814C436.483 43.9389 436.777 43.604 436.985 43.1768C437.205 42.738 437.314 42.2358 437.314 41.67C437.314 41.1157 437.205 40.625 436.985 40.1978C436.777 39.7705 436.483 39.4357 436.102 39.1932C435.721 38.9507 435.282 38.8295 434.786 38.8295C434.289 38.8295 433.85 38.9507 433.469 39.1932C433.1 39.4357 432.811 39.7705 432.603 40.1978C432.395 40.625 432.292 41.1157 432.292 41.67C432.292 42.2358 432.395 42.738 432.603 43.1768C432.811 43.604 433.1 43.9389 433.469 44.1814C433.85 44.4238 434.289 44.5451 434.786 44.5451ZM445.534 46.433C444.726 46.433 443.999 46.2309 443.352 45.8268C442.717 45.4111 442.209 44.8511 441.828 44.1467C441.458 43.4308 441.274 42.611 441.274 41.6873C441.274 40.7751 441.458 39.9611 441.828 39.2452C442.197 38.5293 442.7 37.9693 443.335 37.5651C443.981 37.1494 444.709 36.9416 445.517 36.9416C445.956 36.9416 446.377 37.0109 446.782 37.1494C447.197 37.288 447.567 37.4785 447.89 37.721C448.213 37.9519 448.467 38.2117 448.652 38.5004C448.848 38.7891 448.958 39.0893 448.981 39.401L448.41 39.4703V33.443H450.54V46.2598H448.479L448.427 44.1121L448.843 44.1467C448.831 44.4354 448.727 44.7125 448.531 44.9781C448.346 45.2437 448.104 45.4861 447.803 45.7055C447.503 45.9249 447.151 46.1039 446.747 46.2424C446.354 46.3695 445.95 46.433 445.534 46.433ZM445.95 44.6317C446.447 44.6317 446.885 44.5047 447.266 44.2506C447.648 43.9966 447.942 43.6502 448.15 43.2114C448.369 42.7727 448.479 42.2646 448.479 41.6873C448.479 41.1215 448.369 40.6192 448.15 40.1804C447.942 39.7301 447.648 39.3837 447.266 39.1412C446.885 38.8872 446.447 38.7602 445.95 38.7602C445.454 38.7602 445.015 38.8872 444.634 39.1412C444.253 39.3837 443.953 39.7301 443.733 40.1804C443.525 40.6192 443.421 41.1215 443.421 41.6873C443.421 42.2646 443.525 42.7727 443.733 43.2114C443.953 43.6502 444.253 43.9966 444.634 44.2506C445.015 44.5047 445.454 44.6317 445.95 44.6317ZM457.236 46.433C456.278 46.433 455.429 46.2309 454.69 45.8268C453.963 45.4226 453.391 44.8742 452.976 44.1814C452.571 43.477 452.369 42.6745 452.369 41.7739C452.369 41.058 452.485 40.4056 452.716 39.8167C452.947 39.2278 453.264 38.7198 453.668 38.2926C454.084 37.8538 454.575 37.5189 455.141 37.288C455.718 37.0455 456.347 36.9243 457.028 36.9243C457.629 36.9243 458.189 37.0398 458.708 37.2707C459.228 37.5016 459.678 37.8192 460.059 38.2233C460.44 38.6159 460.729 39.0893 460.925 39.6435C461.133 40.1862 461.231 40.7809 461.22 41.4275L461.203 42.1722H453.807L453.409 40.7174H459.419L459.141 41.0118V40.6308C459.107 40.2728 458.991 39.9611 458.795 39.6955C458.599 39.4184 458.345 39.2048 458.033 39.0546C457.733 38.893 457.398 38.8122 457.028 38.8122C456.463 38.8122 455.983 38.9219 455.591 39.1412C455.21 39.3606 454.921 39.6782 454.725 40.0938C454.529 40.498 454.43 41.006 454.43 41.618C454.43 42.2069 454.552 42.7207 454.794 43.1595C455.048 43.5983 455.4 43.9389 455.851 44.1814C456.313 44.4123 456.849 44.5278 457.461 44.5278C457.889 44.5278 458.281 44.4585 458.639 44.3199C458.997 44.1814 459.384 43.9331 459.8 43.5752L460.856 45.0474C460.544 45.336 460.186 45.5843 459.782 45.7921C459.39 45.9884 458.974 46.1443 458.535 46.2598C458.097 46.3752 457.664 46.433 457.236 46.433ZM472.424 46.433C471.385 46.433 470.473 46.2424 469.687 45.8614C468.902 45.4804 468.232 44.9204 467.678 44.1814L469.012 42.432C469.601 43.1941 470.172 43.7253 470.727 44.0255C471.281 44.3257 471.904 44.4758 472.597 44.4758C472.99 44.4758 473.348 44.4181 473.671 44.3026C473.994 44.1756 474.248 44.0082 474.433 43.8003C474.618 43.5809 474.71 43.3327 474.71 43.0556C474.71 42.8593 474.67 42.6803 474.589 42.5186C474.52 42.3454 474.41 42.1953 474.26 42.0683C474.11 41.9298 473.925 41.8028 473.706 41.6873C473.486 41.5718 473.238 41.4737 472.961 41.3928C472.684 41.312 472.378 41.237 472.043 41.1677C471.188 40.9945 470.478 40.7462 469.913 40.4229C469.358 40.0881 468.943 39.6724 468.665 39.1759C468.388 38.6794 468.25 38.0963 468.25 37.4266C468.25 36.9185 468.359 36.4509 468.579 36.0236C468.81 35.5964 469.122 35.2269 469.514 34.9152C469.907 34.6034 470.363 34.3609 470.882 34.1877C471.402 34.0145 471.962 33.9279 472.562 33.9279C473.509 33.9279 474.346 34.1011 475.074 34.4475C475.801 34.7824 476.402 35.2847 476.875 35.9544L475.593 37.5132C475.201 36.982 474.745 36.5837 474.225 36.3181C473.717 36.041 473.163 35.9024 472.562 35.9024C472.147 35.9024 471.783 35.9601 471.471 36.0756C471.171 36.1911 470.934 36.3585 470.761 36.5779C470.588 36.7857 470.501 37.0398 470.501 37.34C470.501 37.5709 470.553 37.7787 470.657 37.9635C470.761 38.1367 470.906 38.2926 471.09 38.4311C471.287 38.5697 471.535 38.6909 471.835 38.7948C472.135 38.8988 472.476 38.9911 472.857 39.072C473.492 39.199 474.064 39.3722 474.572 39.5916C475.08 39.7994 475.513 40.0534 475.871 40.3536C476.229 40.6423 476.5 40.9772 476.685 41.3582C476.869 41.7277 476.962 42.1434 476.962 42.6052C476.962 43.402 476.771 44.089 476.39 44.6663C476.021 45.2321 475.495 45.6709 474.814 45.9826C474.133 46.2829 473.336 46.433 472.424 46.433ZM471.385 47.8359L471.454 39.9033L473.03 40.4749L473.099 47.8359H471.385ZM473.636 40.4749L472.06 39.9033L471.991 32.6809H473.706L473.636 40.4749ZM487.231 46.2598V34.1358H489.483V46.2598H487.231ZM479.455 46.2598V34.1358H481.706V46.2598H479.455ZM480.39 41.2716V39.1586H488.322V41.2716H480.39ZM492.749 46.2598V34.1358H494.775L501.807 43.6098L501.426 43.6791C501.38 43.3558 501.34 43.0267 501.305 42.6918C501.27 42.3454 501.236 41.9875 501.201 41.618C501.178 41.2485 501.155 40.8617 501.132 40.4576C501.12 40.0534 501.109 39.632 501.097 39.1932C501.086 38.7429 501.08 38.2695 501.08 37.773V34.1358H503.314V46.2598H501.253L494.187 36.9243L494.637 36.803C494.695 37.4497 494.741 38.0039 494.775 38.4658C494.822 38.9161 494.856 39.3087 494.879 39.6435C494.903 39.9668 494.92 40.2382 494.931 40.4576C494.954 40.677 494.966 40.879 494.966 41.0638C494.978 41.237 494.983 41.4044 494.983 41.566V46.2598H492.749ZM509.789 46.2598V40.2151L509.911 41.0638L505.009 34.1358H507.642L511.383 39.505L510.569 39.453L513.946 34.1358H516.475L511.781 41.2543L512.041 40.0765V46.2598H509.789ZM523.262 46.2598V34.1358H525.288L532.32 43.6098L531.939 43.6791C531.893 43.3558 531.853 43.0267 531.818 42.6918C531.783 42.3454 531.749 41.9875 531.714 41.618C531.691 41.2485 531.668 40.8617 531.645 40.4576C531.633 40.0534 531.622 39.632 531.61 39.1932C531.599 38.7429 531.593 38.2695 531.593 37.773V34.1358H533.827V46.2598H531.766L524.7 36.9243L525.15 36.803C525.208 37.4497 525.254 38.0039 525.288 38.4658C525.335 38.9161 525.369 39.3087 525.392 39.6435C525.415 39.9668 525.433 40.2382 525.444 40.4576C525.467 40.677 525.479 40.879 525.479 41.0638C525.491 41.237 525.496 41.4044 525.496 41.566V46.2598H523.262ZM540.874 46.433C539.962 46.433 539.148 46.2309 538.432 45.8268C537.716 45.4111 537.15 44.8453 536.734 44.1294C536.319 43.4135 536.111 42.5995 536.111 41.6873C536.111 40.7751 536.319 39.9611 536.734 39.2452C537.15 38.5293 537.716 37.9693 538.432 37.5651C539.148 37.1494 539.962 36.9416 540.874 36.9416C541.775 36.9416 542.583 37.1494 543.299 37.5651C544.015 37.9693 544.575 38.5293 544.979 39.2452C545.394 39.9611 545.602 40.7751 545.602 41.6873C545.602 42.5995 545.394 43.4135 544.979 44.1294C544.575 44.8453 544.015 45.4111 543.299 45.8268C542.583 46.2309 541.775 46.433 540.874 46.433ZM540.874 44.5451C541.37 44.5451 541.809 44.4181 542.19 44.164C542.583 43.91 542.889 43.5694 543.108 43.1422C543.339 42.7149 543.449 42.23 543.437 41.6873C543.449 41.133 543.339 40.6423 543.108 40.2151C542.889 39.7879 542.583 39.453 542.19 39.2105C541.809 38.9565 541.37 38.8295 540.874 38.8295C540.377 38.8295 539.927 38.9565 539.523 39.2105C539.13 39.453 538.824 39.7936 538.605 40.2324C538.386 40.6596 538.276 41.1446 538.276 41.6873C538.276 42.23 538.386 42.7149 538.605 43.1422C538.824 43.5694 539.13 43.91 539.523 44.164C539.927 44.4181 540.377 44.5451 540.874 44.5451ZM549.317 46.2598L546.252 37.1321L548.434 37.1148L550.478 43.6271L550.097 43.5925L552.314 38.5004H553.595L555.864 43.5925L555.414 43.6444L557.475 37.1321H559.657L556.574 46.2598H555.05L552.712 40.7866L553.041 40.8213L550.824 46.2598H549.317Z" fill="white"/>
</svg>
