<svg width="600" height="200" viewBox="0 0 600 200" fill="none" xmlns="http://www.w3.org/2000/svg">
<path d="M78.9042 104.069C78.1587 104.069 77.4461 103.97 76.7664 103.773C76.0866 103.576 75.4508 103.291 74.8587 102.918C74.2887 102.545 73.7734 102.107 73.3129 101.602C72.8525 101.076 72.4578 100.506 72.1289 99.8921L74.3654 97.5569C74.8259 98.2147 75.2425 98.741 75.6152 99.1356C76.0099 99.5303 76.3826 99.8373 76.7335 100.057C77.0843 100.276 77.4351 100.429 77.786 100.517C78.1368 100.583 78.5095 100.616 78.9042 100.616C79.6936 100.616 80.3843 100.44 80.9763 100.089C81.5683 99.7167 82.0288 99.2124 82.3577 98.5765C82.6866 97.9406 82.851 97.2171 82.851 96.4058V84.0062H78.6411V80.7172H89.9553V84.0062H86.4031V96.7347C86.4031 97.7871 86.2168 98.7629 85.844 99.6619C85.4932 100.539 84.9779 101.306 84.2982 101.964C83.6404 102.622 82.851 103.137 81.9301 103.51C81.0311 103.883 80.0225 104.069 78.9042 104.069ZM100.079 104.069C98.3903 104.069 96.8774 103.685 95.5399 102.918C94.2243 102.129 93.1828 101.065 92.4153 99.7277C91.6479 98.3682 91.2642 96.8224 91.2642 95.0902C91.2642 93.358 91.6479 91.8231 92.4153 90.4856C93.1828 89.1261 94.2243 88.0627 95.5399 87.2952C96.8774 86.5059 98.3903 86.1112 100.079 86.1112C101.745 86.1112 103.236 86.5059 104.552 87.2952C105.889 88.0627 106.942 89.1261 107.709 90.4856C108.477 91.8231 108.86 93.358 108.86 95.0902C108.86 96.8224 108.477 98.3682 107.709 99.7277C106.942 101.065 105.889 102.129 104.552 102.918C103.236 103.685 101.745 104.069 100.079 104.069ZM100.079 100.977C101.109 100.977 102.03 100.725 102.841 100.221C103.653 99.6948 104.289 98.9931 104.749 98.116C105.21 97.2171 105.429 96.2084 105.407 95.0902C105.429 93.95 105.21 92.9414 104.749 92.0643C104.289 91.1653 103.653 90.4636 102.841 89.9593C102.03 89.455 101.109 89.2029 100.079 89.2029C99.0481 89.2029 98.1163 89.466 97.283 89.9922C96.4718 90.4965 95.8359 91.1982 95.3754 92.0972C94.915 92.9742 94.6957 93.9719 94.7176 95.0902C94.6957 96.2084 94.915 97.2171 95.3754 98.116C95.8359 98.9931 96.4718 99.6948 97.283 100.221C98.1163 100.725 99.0481 100.977 100.079 100.977ZM113.111 103.74V86.473H116.499V103.74H113.111ZM114.755 82.6577C114.032 82.6577 113.473 82.4714 113.078 82.0986C112.683 81.7259 112.486 81.1996 112.486 80.5199C112.486 79.884 112.683 79.3687 113.078 78.9741C113.495 78.5794 114.054 78.382 114.755 78.382C115.479 78.382 116.038 78.5684 116.433 78.9412C116.827 79.3139 117.025 79.8402 117.025 80.5199C117.025 81.1558 116.816 81.671 116.4 82.0657C116.005 82.4604 115.457 82.6577 114.755 82.6577ZM121.706 103.74V86.473H125.093V90.0251L124.501 90.4198C124.721 89.6524 125.148 88.9507 125.784 88.3148C126.42 87.657 127.176 87.1308 128.053 86.7361C128.931 86.3195 129.829 86.1112 130.75 86.1112C132.066 86.1112 133.162 86.3743 134.039 86.9006C134.916 87.4049 135.574 88.1833 136.013 89.2357C136.451 90.2882 136.671 91.6148 136.671 93.2154V103.74H133.283V93.4457C133.283 92.459 133.151 91.6477 132.888 91.0118C132.625 90.354 132.22 89.8826 131.671 89.5975C131.123 89.2906 130.443 89.159 129.632 89.2029C128.974 89.2029 128.371 89.3125 127.823 89.5318C127.275 89.7291 126.793 90.0141 126.376 90.3869C125.981 90.7596 125.663 91.1982 125.422 91.7025C125.203 92.1849 125.093 92.7111 125.093 93.2812V103.74H123.416C123.131 103.74 122.846 103.74 122.561 103.74C122.276 103.74 121.991 103.74 121.706 103.74ZM158.444 104.069C156.558 104.069 154.892 103.696 153.445 102.951C152.019 102.205 150.791 101.087 149.761 99.5961L152.195 96.8004C153.269 98.3353 154.3 99.3988 155.286 99.9908C156.273 100.583 157.446 100.879 158.806 100.879C159.639 100.879 160.395 100.747 161.075 100.484C161.755 100.221 162.292 99.8592 162.687 99.3988C163.081 98.9383 163.279 98.4121 163.279 97.82C163.279 97.4254 163.213 97.0526 163.081 96.7018C162.95 96.3509 162.741 96.033 162.456 95.748C162.193 95.4629 161.842 95.1998 161.404 94.9586C160.987 94.7174 160.494 94.5091 159.924 94.3337C159.354 94.1364 158.696 93.9719 157.95 93.8403C156.372 93.5334 155.056 93.0729 154.004 92.459C152.973 91.845 152.195 91.0666 151.668 90.1238C151.164 89.1809 150.912 88.0846 150.912 86.8348C150.912 85.9139 151.109 85.0587 151.504 84.2694C151.921 83.48 152.48 82.8003 153.181 82.2302C153.905 81.6382 154.749 81.1887 155.714 80.8817C156.679 80.5528 157.72 80.3883 158.838 80.3883C160.615 80.3883 162.16 80.7392 163.476 81.4408C164.813 82.1205 165.866 83.1182 166.633 84.4338L164.134 86.9006C163.476 85.8261 162.687 85.0039 161.766 84.4338C160.867 83.8637 159.858 83.5787 158.74 83.5787C157.885 83.5787 157.139 83.7102 156.503 83.9733C155.867 84.2365 155.363 84.6092 154.99 85.0916C154.64 85.5521 154.464 86.1002 154.464 86.7361C154.464 87.1966 154.552 87.6241 154.727 88.0188C154.903 88.3916 155.166 88.7314 155.517 89.0384C155.889 89.3235 156.383 89.5866 156.997 89.8278C157.611 90.047 158.345 90.2444 159.2 90.4198C160.406 90.6829 161.481 91.0228 162.423 91.4394C163.366 91.8341 164.167 92.3055 164.824 92.8536C165.482 93.4018 165.976 94.0158 166.305 94.6955C166.655 95.3752 166.831 96.1098 166.831 96.8991C166.831 98.3682 166.491 99.6399 165.811 100.714C165.131 101.789 164.167 102.622 162.917 103.214C161.667 103.784 160.176 104.069 158.444 104.069ZM156.47 106.733V91.8012L159.661 92.8865V106.733H156.47ZM160.976 92.8865L157.786 91.8012V78.0203H160.976V92.8865ZM186.894 103.74V80.7172H190.447V103.74H186.894ZM171.864 103.74V80.7172H175.416V103.74H171.864ZM173.41 93.9719V90.5513H188.473V93.9719H173.41ZM196.884 103.74V80.7172H200.075L214.152 99.5632L213.626 99.8592C213.538 99.311 213.461 98.719 213.395 98.0832C213.329 97.4254 213.264 96.7347 213.198 96.0111C213.154 95.2656 213.11 94.4872 213.066 93.6759C213.044 92.8427 213.023 91.9766 213.001 91.0776C212.979 90.1786 212.968 89.2467 212.968 88.2819V80.7172H216.52V103.74H213.264L199.417 85.585L199.779 85.1245C199.888 86.462 199.976 87.6022 200.042 88.5451C200.13 89.466 200.195 90.2553 200.239 90.9131C200.305 91.549 200.349 92.0752 200.371 92.4919C200.393 92.8865 200.404 93.2154 200.404 93.4786C200.426 93.7417 200.437 93.9719 200.437 94.1692V103.74H196.884ZM229.149 103.74V92.2616L229.379 93.8732L220.071 80.7172H224.347L231.451 90.9131L230.629 90.8145L237.042 80.7172H241.121L232.207 94.235L232.701 91.9985V103.74H229.149ZM253.107 103.74V79.4016H256.494V103.74H253.107ZM261.855 103.74V86.473H265.242V103.74H261.855ZM263.499 82.6577C262.775 82.6577 262.216 82.4714 261.822 82.0986C261.427 81.7259 261.23 81.1996 261.23 80.5199C261.23 79.884 261.427 79.3687 261.822 78.9741C262.238 78.5794 262.797 78.382 263.499 78.382C264.223 78.382 264.782 78.5684 265.176 78.9412C265.571 79.3139 265.768 79.8402 265.768 80.5199C265.768 81.1558 265.56 81.671 265.144 82.0657C264.749 82.4604 264.201 82.6577 263.499 82.6577ZM283.046 110.976V99.629H283.704C283.704 100.155 283.529 100.681 283.178 101.208C282.827 101.712 282.356 102.183 281.764 102.622C281.172 103.061 280.514 103.411 279.79 103.674C279.067 103.938 278.321 104.069 277.554 104.069C275.997 104.069 274.604 103.685 273.377 102.918C272.149 102.129 271.173 101.065 270.449 99.7277C269.748 98.3682 269.397 96.8224 269.397 95.0902C269.397 93.358 269.748 91.8231 270.449 90.4856C271.151 89.1261 272.105 88.0627 273.311 87.2952C274.539 86.5059 275.92 86.1112 277.455 86.1112C278.31 86.1112 279.121 86.2537 279.889 86.5388C280.678 86.8238 281.38 87.1966 281.994 87.657C282.63 88.1175 283.123 88.6328 283.474 89.2029C283.847 89.751 284.033 90.3102 284.033 90.8802L283.046 90.946V86.4401H286.434V110.976H283.046ZM277.915 100.945C278.946 100.945 279.856 100.692 280.645 100.188C281.435 99.6838 282.049 98.9931 282.487 98.116C282.948 97.239 283.178 96.2304 283.178 95.0902C283.178 93.95 282.948 92.9414 282.487 92.0643C282.049 91.1653 281.435 90.4636 280.645 89.9593C279.856 89.455 278.946 89.2029 277.915 89.2029C276.885 89.2029 275.975 89.466 275.186 89.9922C274.396 90.4965 273.771 91.1982 273.311 92.0972C272.872 92.9742 272.653 93.9719 272.653 95.0902C272.653 96.2084 272.872 97.2171 273.311 98.116C273.771 98.9931 274.396 99.6838 275.186 100.188C275.975 100.692 276.885 100.945 277.915 100.945ZM297.218 104.069C295.99 104.069 294.916 103.784 293.995 103.214C293.096 102.644 292.394 101.844 291.89 100.813C291.407 99.7825 291.166 98.5546 291.166 97.1293V86.473H294.554V96.2084C294.554 97.2171 294.707 98.0941 295.014 98.8396C295.343 99.5632 295.804 100.122 296.396 100.517C297.01 100.912 297.744 101.109 298.599 101.109C299.235 101.109 299.816 101.01 300.343 100.813C300.869 100.594 301.318 100.298 301.691 99.925C302.086 99.5522 302.393 99.1027 302.612 98.5765C302.831 98.0503 302.941 97.4802 302.941 96.8662V86.473H306.329V103.74H302.941V100.122L303.533 99.7277C303.27 100.539 302.82 101.273 302.184 101.931C301.57 102.589 300.836 103.115 299.981 103.51C299.126 103.883 298.205 104.069 297.218 104.069ZM311.639 103.74V86.473H315.027V103.74H311.639ZM313.284 82.6577C312.56 82.6577 312.001 82.4714 311.606 82.0986C311.212 81.7259 311.014 81.1996 311.014 80.5199C311.014 79.884 311.212 79.3687 311.606 78.9741C312.023 78.5794 312.582 78.382 313.284 78.382C314.007 78.382 314.566 78.5684 314.961 78.9412C315.356 79.3139 315.553 79.8402 315.553 80.5199C315.553 81.1558 315.345 81.671 314.928 82.0657C314.534 82.4604 313.985 82.6577 313.284 82.6577ZM327.437 104.069C325.858 104.069 324.444 103.685 323.194 102.918C321.966 102.129 320.991 101.065 320.267 99.7277C319.543 98.3682 319.182 96.8224 319.182 95.0902C319.182 93.358 319.532 91.8231 320.234 90.4856C320.958 89.1261 321.933 88.0627 323.161 87.2952C324.389 86.5059 325.782 86.1112 327.338 86.1112C328.193 86.1112 329.016 86.2537 329.805 86.5388C330.616 86.8019 331.34 87.1746 331.976 87.657C332.612 88.1175 333.105 88.6328 333.456 89.2029C333.829 89.751 334.015 90.3102 334.015 90.8802L333.028 90.946V79.4016H336.416V103.74H333.028V99.629H333.686C333.686 100.155 333.511 100.681 333.16 101.208C332.809 101.712 332.338 102.183 331.746 102.622C331.175 103.061 330.507 103.411 329.739 103.674C328.994 103.938 328.226 104.069 327.437 104.069ZM327.897 101.142C328.928 101.142 329.838 100.879 330.627 100.353C331.417 99.8263 332.031 99.1137 332.469 98.2147C332.93 97.2938 333.16 96.2523 333.16 95.0902C333.16 93.9281 332.93 92.8975 332.469 91.9985C332.031 91.0776 331.417 90.354 330.627 89.8278C329.838 89.3015 328.928 89.0384 327.897 89.0384C326.867 89.0384 325.957 89.3015 325.168 89.8278C324.378 90.354 323.753 91.0776 323.293 91.9985C322.854 92.8975 322.635 93.9281 322.635 95.0902C322.635 96.2523 322.854 97.2938 323.293 98.2147C323.753 99.1137 324.378 99.8263 325.168 100.353C325.957 100.879 326.867 101.142 327.897 101.142ZM341.639 103.74V86.473H345.026V103.74H341.639ZM343.283 82.6577C342.559 82.6577 342 82.4714 341.606 82.0986C341.211 81.7259 341.014 81.1996 341.014 80.5199C341.014 79.884 341.211 79.3687 341.606 78.9741C342.022 78.5794 342.581 78.382 343.283 78.382C344.007 78.382 344.566 78.5684 344.96 78.9412C345.355 79.3139 345.552 79.8402 345.552 80.5199C345.552 81.1558 345.344 81.671 344.928 82.0657C344.533 82.4604 343.985 82.6577 343.283 82.6577ZM352.371 103.74V82.0657H355.759V103.74H352.371ZM348.786 89.762V86.473H359.771V89.762H348.786ZM365.75 111.305L369.237 103.247L369.27 105.944L360.653 86.473H364.599L369.993 99.1685C370.103 99.3878 370.235 99.7277 370.388 100.188C370.541 100.627 370.673 101.065 370.783 101.504L369.928 101.701C370.103 101.241 370.267 100.78 370.421 100.32C370.596 99.8592 370.761 99.3988 370.914 98.9383L375.42 86.473H379.433L372.328 103.74L369.401 111.305H365.75ZM391.185 110.976V86.473H394.606V90.4198L394.08 90.1238C394.211 89.466 394.584 88.8411 395.198 88.249C395.812 87.6351 396.557 87.1417 397.434 86.769C398.333 86.3743 399.254 86.177 400.197 86.177C401.754 86.177 403.135 86.5607 404.341 87.3281C405.547 88.0956 406.501 89.148 407.203 90.4856C407.904 91.8231 408.255 93.358 408.255 95.0902C408.255 96.8004 407.904 98.3353 407.203 99.6948C406.523 101.032 405.58 102.096 404.374 102.885C403.168 103.653 401.809 104.036 400.296 104.036C399.287 104.036 398.311 103.839 397.369 103.444C396.426 103.028 395.625 102.501 394.968 101.866C394.31 101.23 393.904 100.572 393.751 99.8921L394.606 99.4316V110.976H391.185ZM399.737 100.912C400.745 100.912 401.644 100.66 402.434 100.155C403.223 99.6509 403.848 98.9602 404.308 98.0832C404.769 97.2061 404.999 96.2084 404.999 95.0902C404.999 93.9719 404.769 92.9852 404.308 92.1301C403.87 91.253 403.256 90.5623 402.467 90.058C401.677 89.5537 400.767 89.3015 399.737 89.3015C398.706 89.3015 397.796 89.5537 397.007 90.058C396.217 90.5404 395.593 91.2201 395.132 92.0972C394.672 92.9742 394.441 93.9719 394.441 95.0902C394.441 96.2084 394.672 97.2061 395.132 98.0832C395.593 98.9602 396.217 99.6509 397.007 100.155C397.796 100.66 398.706 100.912 399.737 100.912ZM411.934 103.74V86.473H415.355V91.8998L415.026 90.5842C415.267 89.751 415.673 88.9946 416.243 88.3148C416.835 87.6351 417.504 87.0979 418.249 86.7032C419.017 86.3085 419.806 86.1112 420.617 86.1112C420.99 86.1112 421.341 86.1441 421.67 86.2099C422.02 86.2756 422.295 86.3524 422.492 86.4401L421.604 90.1238C421.341 90.0141 421.045 89.9264 420.716 89.8607C420.409 89.7729 420.102 89.7291 419.795 89.7291C419.203 89.7291 418.633 89.8497 418.085 90.0909C417.558 90.3102 417.087 90.6281 416.67 91.0447C416.276 91.4394 415.958 91.9108 415.717 92.459C415.475 92.9852 415.355 93.5663 415.355 94.2021V103.74H411.934ZM432.223 104.069C430.534 104.069 429.021 103.685 427.684 102.918C426.368 102.129 425.327 101.065 424.559 99.7277C423.792 98.3682 423.408 96.8224 423.408 95.0902C423.408 93.358 423.792 91.8231 424.559 90.4856C425.327 89.1261 426.368 88.0627 427.684 87.2952C429.021 86.5059 430.534 86.1112 432.223 86.1112C433.889 86.1112 435.38 86.5059 436.696 87.2952C438.033 88.0627 439.086 89.1261 439.853 90.4856C440.621 91.8231 441.004 93.358 441.004 95.0902C441.004 96.8224 440.621 98.3682 439.853 99.7277C439.086 101.065 438.033 102.129 436.696 102.918C435.38 103.685 433.889 104.069 432.223 104.069ZM432.223 100.977C433.253 100.977 434.174 100.725 434.985 100.221C435.797 99.6948 436.433 98.9931 436.893 98.116C437.354 97.2171 437.573 96.2084 437.551 95.0902C437.573 93.95 437.354 92.9414 436.893 92.0643C436.433 91.1653 435.797 90.4636 434.985 89.9593C434.174 89.455 433.253 89.2029 432.223 89.2029C431.192 89.2029 430.26 89.466 429.427 89.9922C428.616 90.4965 427.98 91.1982 427.519 92.0972C427.059 92.9742 426.84 93.9719 426.862 95.0902C426.84 96.2084 427.059 97.2171 427.519 98.116C427.98 98.9931 428.616 99.6948 429.427 100.221C430.26 100.725 431.192 100.977 432.223 100.977ZM452.425 111.305C451.197 111.305 449.969 111.108 448.741 110.713C447.535 110.34 446.559 109.847 445.814 109.233L447.064 106.602C447.502 106.931 448.018 107.216 448.61 107.457C449.202 107.72 449.827 107.917 450.484 108.049C451.142 108.202 451.789 108.279 452.425 108.279C453.631 108.279 454.639 108.082 455.451 107.687C456.262 107.292 456.876 106.711 457.293 105.944C457.709 105.176 457.917 104.223 457.917 103.082V99.7605L458.279 99.9908C458.17 100.671 457.808 101.328 457.194 101.964C456.602 102.578 455.856 103.082 454.957 103.477C454.058 103.872 453.137 104.069 452.195 104.069C450.55 104.069 449.081 103.685 447.787 102.918C446.516 102.129 445.507 101.065 444.761 99.7277C444.016 98.3682 443.643 96.8224 443.643 95.0902C443.643 93.358 444.005 91.8231 444.729 90.4856C445.474 89.1261 446.483 88.0627 447.754 87.2952C449.048 86.5059 450.495 86.1112 452.096 86.1112C452.754 86.1112 453.39 86.1989 454.004 86.3743C454.618 86.5278 455.188 86.758 455.714 87.065C456.24 87.3501 456.712 87.668 457.128 88.0188C457.545 88.3696 457.885 88.7424 458.148 89.1371C458.411 89.5318 458.575 89.9045 458.641 90.2553L457.917 90.5185V86.473H461.305V102.688C461.305 104.069 461.097 105.286 460.68 106.339C460.286 107.413 459.705 108.312 458.937 109.036C458.17 109.781 457.238 110.34 456.141 110.713C455.045 111.108 453.806 111.305 452.425 111.305ZM452.556 100.945C453.631 100.945 454.585 100.692 455.418 100.188C456.251 99.6838 456.898 98.9931 457.358 98.116C457.819 97.239 458.049 96.2304 458.049 95.0902C458.049 93.95 457.808 92.9414 457.325 92.0643C456.865 91.1653 456.218 90.4636 455.385 89.9593C454.574 89.455 453.631 89.2029 452.556 89.2029C451.504 89.2029 450.561 89.466 449.728 89.9922C448.917 90.4965 448.27 91.1982 447.787 92.0972C447.327 92.9742 447.097 93.9719 447.097 95.0902C447.097 96.2084 447.327 97.2171 447.787 98.116C448.27 98.9931 448.917 99.6838 449.728 100.188C450.561 100.692 451.504 100.945 452.556 100.945ZM466.055 103.74V86.473H469.476V91.8998L469.147 90.5842C469.388 89.751 469.793 88.9946 470.364 88.3148C470.956 87.6351 471.624 87.0979 472.37 86.7032C473.137 86.3085 473.927 86.1112 474.738 86.1112C475.111 86.1112 475.462 86.1441 475.79 86.2099C476.141 86.2756 476.415 86.3524 476.613 86.4401L475.725 90.1238C475.462 90.0141 475.165 89.9264 474.837 89.8607C474.53 89.7729 474.223 89.7291 473.916 89.7291C473.324 89.7291 472.754 89.8497 472.205 90.0909C471.679 90.3102 471.208 90.6281 470.791 91.0447C470.396 91.4394 470.079 91.9108 469.837 92.459C469.596 92.9852 469.476 93.5663 469.476 94.2021V103.74H466.055ZM485.225 104.069C483.8 104.069 482.495 103.674 481.311 102.885C480.149 102.096 479.217 101.021 478.516 99.6619C477.814 98.3024 477.463 96.7676 477.463 95.0573C477.463 93.3251 477.814 91.7902 478.516 90.4527C479.239 89.0932 480.204 88.0298 481.41 87.2623C482.638 86.4949 484.008 86.1112 485.521 86.1112C486.42 86.1112 487.242 86.2428 487.988 86.5059C488.733 86.769 489.38 87.1417 489.928 87.6241C490.499 88.0846 490.959 88.6218 491.31 89.2357C491.683 89.8497 491.913 90.5075 492.001 91.2091L491.244 90.946V86.473H494.665V103.74H491.244V99.629L492.033 99.3988C491.902 99.9908 491.628 100.572 491.211 101.142C490.817 101.69 490.301 102.183 489.665 102.622C489.051 103.061 488.361 103.411 487.593 103.674C486.848 103.938 486.058 104.069 485.225 104.069ZM486.113 100.945C487.144 100.945 488.054 100.692 488.843 100.188C489.632 99.6838 490.246 98.9931 490.685 98.116C491.145 97.2171 491.376 96.1975 491.376 95.0573C491.376 93.939 491.145 92.9414 490.685 92.0643C490.246 91.1872 489.632 90.4965 488.843 89.9922C488.054 89.4879 487.144 89.2357 486.113 89.2357C485.105 89.2357 484.206 89.4879 483.416 89.9922C482.649 90.4965 482.035 91.1872 481.574 92.0643C481.136 92.9414 480.917 93.939 480.917 95.0573C480.917 96.1975 481.136 97.2171 481.574 98.116C482.035 98.9931 482.649 99.6838 483.416 100.188C484.206 100.692 485.105 100.945 486.113 100.945ZM499.329 103.74V86.473H502.749V90.1567L502.125 90.5513C502.3 89.9813 502.574 89.4331 502.947 88.9068C503.341 88.3806 503.813 87.9201 504.361 87.5255C504.931 87.1089 505.534 86.78 506.17 86.5388C506.828 86.2976 507.497 86.177 508.176 86.177C509.163 86.177 510.029 86.3414 510.775 86.6703C511.52 86.9992 512.134 87.4926 512.616 88.1504C513.099 88.8082 513.45 89.6304 513.669 90.6171L513.143 90.4856L513.373 89.9264C513.614 89.4221 513.943 88.9507 514.36 88.5122C514.798 88.0517 515.291 87.6461 515.84 87.2952C516.388 86.9444 516.969 86.6703 517.583 86.473C518.197 86.2756 518.8 86.177 519.392 86.177C520.685 86.177 521.749 86.4401 522.582 86.9663C523.437 87.4926 524.073 88.2929 524.49 89.3673C524.928 90.4417 525.148 91.7792 525.148 93.3799V103.74H521.727V93.5772C521.727 92.5905 521.595 91.7902 521.332 91.1763C521.091 90.5404 520.718 90.069 520.214 89.762C519.71 89.455 519.063 89.3015 518.273 89.3015C517.66 89.3015 517.078 89.4112 516.53 89.6304C516.004 89.8278 515.544 90.1128 515.149 90.4856C514.754 90.8583 514.447 91.2969 514.228 91.8012C514.009 92.2836 513.899 92.8208 513.899 93.4128V103.74H510.479V93.5114C510.479 92.6125 510.347 91.856 510.084 91.242C509.821 90.6062 509.437 90.1238 508.933 89.7949C508.428 89.466 507.814 89.3015 507.091 89.3015C506.477 89.3015 505.907 89.4112 505.381 89.6304C504.854 89.8278 504.394 90.1128 503.999 90.4856C503.605 90.8364 503.298 91.264 503.078 91.7683C502.859 92.2507 502.749 92.7769 502.749 93.347V103.74H499.329Z" fill="#1D2638"/>
<path d="M373.476 66.5794C371.636 64.0094 369.836 61.4894 367.976 58.8994C372.356 55.7394 376.706 52.6194 381.136 49.4194C376.406 46.0294 371.756 42.6894 367.016 39.2994C368.846 36.7394 370.646 34.1994 372.496 31.6094C380.776 37.5394 389.006 43.4294 397.346 49.4094C389.356 55.1594 381.446 60.8494 373.476 66.5894V66.5794Z" fill="#1D2638"/>
<path d="M421.148 40.6789C422.728 40.6789 424.258 40.6589 425.788 40.6789C427.238 40.6989 428.688 40.5389 430.128 40.8589C433.788 41.6789 436.228 44.6389 436.398 48.4789C436.458 49.7989 436.348 51.0989 435.928 52.3589C434.858 55.5689 432.008 57.6689 428.618 57.7089C426.318 57.7289 424.018 57.7189 421.728 57.7189C421.548 57.7189 421.378 57.6989 421.148 57.6789V40.6889V40.6789ZM424.908 54.3589C426.208 54.3389 427.438 54.4589 428.658 54.2789C430.658 53.9989 431.968 52.7989 432.428 50.8789C432.618 50.0889 432.658 49.2789 432.578 48.4789C432.408 46.6789 431.698 45.1989 429.948 44.4489C428.338 43.7489 426.628 44.1089 424.908 44.0489V54.3689V54.3589Z" fill="#1D2638"/>
<path d="M543.224 57.709C542.074 55.669 540.954 53.689 539.824 51.689H537.274V57.669H533.664V40.779C533.904 40.619 534.144 40.679 534.384 40.679C536.644 40.679 538.904 40.679 541.154 40.679C543.804 40.679 545.954 42.229 546.624 44.599C547.314 47.069 546.344 49.479 544.074 50.889C543.974 50.949 543.884 51.019 543.744 51.129C544.994 53.299 546.244 55.449 547.544 57.709H543.214H543.224ZM537.314 48.559C538.574 48.559 539.774 48.559 540.974 48.559C542.054 48.549 542.814 47.939 543.034 46.959C543.304 45.719 542.904 44.659 541.904 44.239C540.414 43.619 538.864 44.009 537.314 43.919V48.569V48.559Z" fill="#1D2638"/>
<path d="M399.652 47.3496C397.102 45.5096 394.602 43.7096 391.992 41.8296C396.752 38.4096 401.432 35.0296 406.212 31.5996C408.042 34.1596 409.852 36.6896 411.712 39.2796C407.672 41.9796 403.692 44.6496 399.652 47.3496Z" fill="#1D2638"/>
<path d="M399.658 51.4805C403.408 54.0305 407.128 56.5705 410.928 59.1505C409.098 61.7205 407.318 64.2405 405.458 66.8505C400.988 63.6605 396.558 60.5005 392.008 57.2605C394.598 55.3005 397.098 53.4105 399.658 51.4805Z" fill="#1D2638"/>
<path d="M449.518 54.4002H457.478C457.568 55.5402 457.558 56.5902 457.478 57.6802H445.828V40.7402H457.268V43.9802H449.508V47.3702H456.128C456.238 48.5002 456.198 49.5102 456.148 50.6302H449.508V54.4002H449.518Z" fill="#1D2638"/>
<path d="M512.008 40.7188H523.458V43.9587H515.708V47.3887H522.318V50.6488H515.688V54.3988H523.658C523.738 55.5588 523.738 56.6087 523.658 57.6887H512.008V40.7287V40.7188Z" fill="#1D2638"/>
<path d="M469.725 57.6887H465.375C467.445 54.7287 469.445 51.8788 471.455 48.9888C469.485 46.2488 467.535 43.5387 465.515 40.7287H470.105C471.305 42.4887 472.555 44.3088 473.865 46.2188C475.115 44.3088 476.305 42.4987 477.475 40.7188H481.825C479.845 43.6188 477.925 46.4187 475.985 49.2587C477.995 52.0287 479.995 54.7887 482.055 57.6387H477.465C476.225 55.8487 474.935 53.9787 473.585 52.0387C472.265 53.9587 470.995 55.8087 469.715 57.6787L469.725 57.6887Z" fill="#1D2638"/>
<path d="M494.074 44.0402H489.164V40.7402H502.844V44.0302H497.844V57.6702H494.074V44.0402Z" fill="#1D2638"/>
<path d="M64.6224 59.4669C62.8464 59.4669 61.2567 59.0832 59.8534 58.3157C58.4501 57.5264 57.3428 56.452 56.5315 55.0925C55.7421 53.7111 55.3474 52.1543 55.3474 50.4221V36.2136H58.8996V50.1261C58.8996 51.2444 59.1627 52.253 59.6889 53.152C60.2152 54.0291 60.9059 54.7307 61.761 55.257C62.6381 55.7832 63.5919 56.0463 64.6224 56.0463C65.7188 56.0463 66.7055 55.7832 67.5825 55.257C68.4815 54.7307 69.1941 54.0291 69.7204 53.152C70.2466 52.253 70.5097 51.2444 70.5097 50.1261V36.2136H73.8974V50.4221C73.8974 52.1543 73.4918 53.7111 72.6805 55.0925C71.8911 56.452 70.7948 57.5264 69.3915 58.3157C67.9882 59.0832 66.3985 59.4669 64.6224 59.4669ZM79.1675 59.2695V42.0023H82.5552V45.5544L81.9632 45.9491C82.1824 45.1816 82.61 44.48 83.2459 43.8441C83.8817 43.1863 84.6382 42.6601 85.5153 42.2654C86.3923 41.8488 87.2913 41.6405 88.2123 41.6405C89.5279 41.6405 90.6242 41.9036 91.5013 42.4299C92.3783 42.9342 93.0361 43.7126 93.4747 44.765C93.9132 45.8175 94.1325 47.1441 94.1325 48.7447V59.2695H90.7448V48.975C90.7448 47.9883 90.6132 47.177 90.3501 46.5411C90.087 45.8833 89.6813 45.4119 89.1332 45.1268C88.585 44.8199 87.9053 44.6883 87.094 44.7322C86.4362 44.7322 85.8332 44.8418 85.2851 45.0611C84.7369 45.2584 84.2545 45.5434 83.8379 45.9162C83.4432 46.2889 83.1253 46.7275 82.8841 47.2318C82.6648 47.7142 82.5552 48.2404 82.5552 48.8105V59.2695H80.8778C80.5927 59.2695 80.3077 59.2695 80.0227 59.2695C79.7376 59.2695 79.4526 59.2695 79.1675 59.2695ZM98.7938 59.2695V34.9309H102.182V59.2695H98.7938ZM114.424 59.5984C112.735 59.5984 111.222 59.2147 109.885 58.4473C108.569 57.6579 107.528 56.5945 106.76 55.257C105.993 53.8975 105.609 52.3517 105.609 50.6195C105.609 48.8873 105.993 47.3524 106.76 46.0149C107.528 44.6554 108.569 43.592 109.885 42.8245C111.222 42.0352 112.735 41.6405 114.424 41.6405C116.09 41.6405 117.581 42.0352 118.897 42.8245C120.234 43.592 121.287 44.6554 122.054 46.0149C122.821 47.3524 123.205 48.8873 123.205 50.6195C123.205 52.3517 122.821 53.8975 122.054 55.257C121.287 56.5945 120.234 57.6579 118.897 58.4473C117.581 59.2147 116.09 59.5984 114.424 59.5984ZM114.424 56.5068C115.454 56.5068 116.375 56.2546 117.186 55.7503C117.998 55.2241 118.633 54.5224 119.094 53.6453C119.554 52.7463 119.774 51.7377 119.752 50.6195C119.774 49.4793 119.554 48.4706 119.094 47.5936C118.633 46.6946 117.998 45.9929 117.186 45.4886C116.375 44.9843 115.454 44.7322 114.424 44.7322C113.393 44.7322 112.461 44.9953 111.628 45.5215C110.817 46.0258 110.181 46.7275 109.72 47.6265C109.26 48.5035 109.041 49.5012 109.062 50.6195C109.041 51.7377 109.26 52.7463 109.72 53.6453C110.181 54.5224 110.817 55.2241 111.628 55.7503C112.461 56.2546 113.393 56.5068 114.424 56.5068ZM134.231 59.5984C132.63 59.5984 131.194 59.2038 129.922 58.4144C128.673 57.625 127.675 56.5506 126.929 55.1912C126.206 53.8317 125.844 52.3078 125.844 50.6195C125.844 48.9311 126.206 47.4072 126.929 46.0478C127.675 44.6883 128.673 43.6139 129.922 42.8245C131.194 42.0352 132.63 41.6405 134.231 41.6405C135.766 41.6405 137.158 41.9584 138.408 42.5943C139.68 43.2082 140.645 44.0524 141.302 45.1268L139.428 47.4291C139.077 46.9248 138.627 46.4644 138.079 46.0478C137.531 45.6311 136.95 45.3022 136.336 45.0611C135.722 44.8199 135.13 44.6993 134.56 44.6993C133.507 44.6993 132.565 44.9624 131.731 45.4886C130.92 45.9929 130.273 46.6946 129.791 47.5936C129.308 48.4926 129.067 49.5012 129.067 50.6195C129.067 51.7377 129.319 52.7463 129.824 53.6453C130.328 54.5224 130.997 55.2241 131.83 55.7503C132.663 56.2765 133.584 56.5397 134.593 56.5397C135.185 56.5397 135.755 56.441 136.303 56.2437C136.873 56.0463 137.421 55.7503 137.948 55.3556C138.474 54.9609 138.967 54.4786 139.428 53.9085L141.302 56.2108C140.601 57.1975 139.592 58.0087 138.276 58.6446C136.983 59.2805 135.634 59.5984 134.231 59.5984ZM147.59 53.8756L147.425 50.1919L155.68 42.0023H160.252L147.59 53.8756ZM144.498 59.2695V34.9309H147.886V59.2695H144.498ZM156.141 59.2695L149.629 51.6719L152.03 49.4683L160.482 59.2695H156.141ZM173.265 59.2695V36.2465H183.066C184.381 36.2465 185.587 36.5754 186.684 37.2332C187.802 37.8691 188.69 38.7462 189.348 39.8644C190.006 40.9608 190.334 42.1996 190.334 43.581C190.334 44.8308 190.006 45.9929 189.348 47.0673C188.69 48.1417 187.813 49.0079 186.717 49.6657C185.62 50.3015 184.403 50.6195 183.066 50.6195H176.817V59.2695H173.265ZM186.947 59.2695L181.092 48.8763L184.743 48.054L191.255 59.3024L186.947 59.2695ZM176.817 47.1989H183.395C184.031 47.1989 184.601 47.0454 185.105 46.7384C185.609 46.4095 186.004 45.971 186.289 45.4228C186.574 44.8527 186.717 44.2278 186.717 43.5481C186.717 42.7807 186.53 42.1119 186.157 41.5418C185.807 40.9498 185.302 40.4893 184.644 40.1604C184.009 39.8315 183.285 39.6671 182.474 39.6671H176.817V47.1989ZM202.694 59.5984C200.918 59.5984 199.339 59.2257 197.958 58.4802C196.598 57.7127 195.524 56.6712 194.734 55.3556C193.967 54.04 193.583 52.5271 193.583 50.8168C193.583 49.4573 193.803 48.2185 194.241 47.1002C194.68 45.982 195.283 45.0172 196.05 44.2059C196.839 43.3727 197.771 42.7368 198.846 42.2983C199.942 41.8378 201.126 41.6076 202.398 41.6076C203.516 41.6076 204.558 41.8269 205.522 42.2654C206.487 42.682 207.32 43.2631 208.022 44.0086C208.746 44.7541 209.294 45.6421 209.667 46.6727C210.061 47.6813 210.248 48.7886 210.226 49.9946L210.193 51.4417H196.083L195.327 48.7447H207.266L206.772 49.3039V48.5145C206.706 47.7909 206.465 47.1441 206.049 46.574C205.632 46.0039 205.106 45.5544 204.47 45.2255C203.834 44.8966 203.143 44.7322 202.398 44.7322C201.214 44.7322 200.216 44.9624 199.405 45.4228C198.594 45.8614 197.98 46.5192 197.563 47.3962C197.146 48.2514 196.938 49.3148 196.938 50.5866C196.938 51.7925 197.19 52.845 197.695 53.744C198.199 54.6211 198.912 55.3008 199.832 55.7832C200.753 56.2656 201.817 56.5068 203.023 56.5068C203.878 56.5068 204.667 56.3642 205.391 56.0792C206.136 55.7942 206.937 55.2789 207.792 54.5334L209.502 56.9343C208.976 57.4606 208.329 57.921 207.562 58.3157C206.816 58.7104 206.016 59.0283 205.161 59.2695C204.327 59.4888 203.505 59.5984 202.694 59.5984ZM217.829 59.2695L211.942 42.0023L215.362 41.9694L219.572 54.8952L218.816 54.8294L223.387 44.7322H225.427L230.031 54.8623L229.143 54.9281L233.386 42.0023H236.806L230.985 59.2695H228.65L223.848 48.2843L224.604 48.3829L220.131 59.2695H217.829ZM246.054 59.5984C244.628 59.5984 243.324 59.2038 242.14 58.4144C240.978 57.625 240.046 56.5506 239.344 55.1912C238.642 53.8317 238.292 52.2969 238.292 50.5866C238.292 48.8544 238.642 47.3195 239.344 45.982C240.068 44.6225 241.032 43.5591 242.238 42.7916C243.466 42.0242 244.837 41.6405 246.35 41.6405C247.249 41.6405 248.071 41.7721 248.816 42.0352C249.562 42.2983 250.209 42.671 250.757 43.1534C251.327 43.6139 251.788 44.1511 252.138 44.765C252.511 45.379 252.741 46.0368 252.829 46.7384L252.073 46.4753V42.0023H255.493V59.2695H252.073V55.1583L252.862 54.9281C252.73 55.5201 252.456 56.1011 252.04 56.6712C251.645 57.2194 251.13 57.7127 250.494 58.1513C249.88 58.5898 249.189 58.9406 248.422 59.2038C247.676 59.4669 246.887 59.5984 246.054 59.5984ZM246.942 56.4739C247.972 56.4739 248.882 56.2217 249.672 55.7174C250.461 55.2131 251.075 54.5224 251.513 53.6453C251.974 52.7463 252.204 51.7268 252.204 50.5866C252.204 49.4683 251.974 48.4706 251.513 47.5936C251.075 46.7165 250.461 46.0258 249.672 45.5215C248.882 45.0172 247.972 44.765 246.942 44.765C245.933 44.765 245.034 45.0172 244.245 45.5215C243.477 46.0258 242.863 46.7165 242.403 47.5936C241.964 48.4706 241.745 49.4683 241.745 50.5866C241.745 51.7268 241.964 52.7463 242.403 53.6453C242.863 54.5224 243.477 55.2131 244.245 55.7174C245.034 56.2217 245.933 56.4739 246.942 56.4739ZM260.223 59.2695V42.0023H263.644V47.4291L263.315 46.1135C263.556 45.2803 263.962 44.5238 264.532 43.8441C265.124 43.1644 265.792 42.6272 266.538 42.2325C267.305 41.8378 268.095 41.6405 268.906 41.6405C269.279 41.6405 269.63 41.6734 269.959 41.7392C270.309 41.8049 270.583 41.8817 270.781 41.9694L269.893 45.6531C269.63 45.5434 269.334 45.4557 269.005 45.39C268.698 45.3022 268.391 45.2584 268.084 45.2584C267.492 45.2584 266.922 45.379 266.374 45.6202C265.847 45.8394 265.376 46.1574 264.959 46.574C264.565 46.9687 264.247 47.4401 264.005 47.9883C263.764 48.5145 263.644 49.0956 263.644 49.7314V59.2695H260.223ZM279.952 59.5984C278.374 59.5984 276.959 59.2147 275.71 58.4473C274.482 57.6579 273.506 56.5945 272.782 55.257C272.059 53.8975 271.697 52.3517 271.697 50.6195C271.697 48.8873 272.048 47.3524 272.75 46.0149C273.473 44.6554 274.449 43.592 275.677 42.8245C276.905 42.0352 278.297 41.6405 279.854 41.6405C280.709 41.6405 281.531 41.783 282.321 42.0681C283.132 42.3312 283.855 42.7039 284.491 43.1863C285.127 43.6468 285.621 44.1621 285.971 44.7322C286.344 45.2803 286.53 45.8394 286.53 46.4095L285.544 46.4753V34.9309H288.931V59.2695H285.544V55.1583H286.202C286.202 55.6845 286.026 56.2108 285.675 56.737C285.325 57.2413 284.853 57.7127 284.261 58.1513C283.691 58.5898 283.022 58.9406 282.255 59.2038C281.509 59.4669 280.742 59.5984 279.952 59.5984ZM280.413 56.6712C281.443 56.6712 282.353 56.4081 283.143 55.8819C283.932 55.3556 284.546 54.643 284.985 53.744C285.445 52.8231 285.675 51.7816 285.675 50.6195C285.675 49.4573 285.445 48.4268 284.985 47.5278C284.546 46.6069 283.932 45.8833 283.143 45.3571C282.353 44.8308 281.443 44.5677 280.413 44.5677C279.382 44.5677 278.472 44.8308 277.683 45.3571C276.894 45.8833 276.269 46.6069 275.808 47.5278C275.37 48.4268 275.151 49.4573 275.151 50.6195C275.151 51.7816 275.37 52.8231 275.808 53.744C276.269 54.643 276.894 55.3556 277.683 55.8819C278.472 56.4081 279.382 56.6712 280.413 56.6712ZM299.351 59.5984C297.903 59.5984 296.599 59.3463 295.437 58.842C294.275 58.3376 293.31 57.5921 292.542 56.6054L294.845 54.632C295.503 55.3995 296.215 55.9586 296.983 56.3094C297.772 56.6383 298.66 56.8028 299.647 56.8028C300.041 56.8028 300.403 56.7589 300.732 56.6712C301.083 56.5616 301.379 56.4081 301.62 56.2108C301.883 56.0134 302.081 55.7832 302.212 55.5201C302.344 55.235 302.409 54.9281 302.409 54.5992C302.409 54.0291 302.201 53.5686 301.784 53.2178C301.565 53.0643 301.214 52.8998 300.732 52.7244C300.272 52.5271 299.669 52.3297 298.923 52.1324C297.651 51.8035 296.61 51.4307 295.799 51.0141C294.987 50.5975 294.362 50.1261 293.924 49.5999C293.595 49.1833 293.354 48.7338 293.2 48.2514C293.047 47.7471 292.97 47.1989 292.97 46.6069C292.97 45.8833 293.123 45.2255 293.43 44.6335C293.759 44.0195 294.198 43.4933 294.746 43.0548C295.316 42.5943 295.974 42.2435 296.719 42.0023C297.487 41.7611 298.298 41.6405 299.153 41.6405C299.965 41.6405 300.765 41.7501 301.554 41.9694C302.366 42.1887 303.111 42.5066 303.791 42.9232C304.471 43.3398 305.041 43.8332 305.501 44.4033L303.561 46.5411C303.144 46.1245 302.683 45.7627 302.179 45.4557C301.697 45.1268 301.203 44.8747 300.699 44.6993C300.195 44.5238 299.734 44.4361 299.318 44.4361C298.857 44.4361 298.441 44.48 298.068 44.5677C297.695 44.6554 297.377 44.787 297.114 44.9624C296.873 45.1378 296.687 45.3571 296.555 45.6202C296.423 45.8833 296.358 46.1793 296.358 46.5082C296.38 46.7933 296.445 47.0673 296.555 47.3305C296.687 47.5717 296.862 47.78 297.081 47.9554C297.322 48.1308 297.684 48.3172 298.167 48.5145C298.649 48.7118 299.263 48.8982 300.008 49.0736C301.105 49.3587 302.004 49.6766 302.705 50.0274C303.429 50.3563 303.999 50.7401 304.416 51.1786C304.854 51.5952 305.161 52.0776 305.337 52.6258C305.512 53.1739 305.6 53.7879 305.6 54.4676C305.6 55.4543 305.315 56.3423 304.745 57.1317C304.196 57.8991 303.451 58.5021 302.508 58.9406C301.565 59.3792 300.513 59.5984 299.351 59.5984ZM326.314 59.5984C324.625 59.5984 323.112 59.2147 321.775 58.4473C320.459 57.6579 319.418 56.5945 318.65 55.257C317.883 53.8975 317.499 52.3517 317.499 50.6195C317.499 48.8873 317.883 47.3524 318.65 46.0149C319.418 44.6554 320.459 43.592 321.775 42.8245C323.112 42.0352 324.625 41.6405 326.314 41.6405C327.98 41.6405 329.471 42.0352 330.787 42.8245C332.124 43.592 333.177 44.6554 333.944 46.0149C334.711 47.3524 335.095 48.8873 335.095 50.6195C335.095 52.3517 334.711 53.8975 333.944 55.257C333.177 56.5945 332.124 57.6579 330.787 58.4473C329.471 59.2147 327.98 59.5984 326.314 59.5984ZM326.314 56.5068C327.344 56.5068 328.265 56.2546 329.076 55.7503C329.888 55.2241 330.523 54.5224 330.984 53.6453C331.444 52.7463 331.664 51.7377 331.642 50.6195C331.664 49.4793 331.444 48.4706 330.984 47.5936C330.523 46.6946 329.888 45.9929 329.076 45.4886C328.265 44.9843 327.344 44.7322 326.314 44.7322C325.283 44.7322 324.351 44.9953 323.518 45.5215C322.707 46.0258 322.071 46.7275 321.61 47.6265C321.15 48.5035 320.931 49.5012 320.952 50.6195C320.931 51.7377 321.15 52.7463 321.61 53.6453C322.071 54.5224 322.707 55.2241 323.518 55.7503C324.351 56.2546 325.283 56.5068 326.314 56.5068ZM338.787 59.2695V42.0023H342.174V45.5544L341.582 45.9491C341.801 45.1816 342.229 44.48 342.865 43.8441C343.501 43.1863 344.257 42.6601 345.134 42.2654C346.011 41.8488 346.91 41.6405 347.831 41.6405C349.147 41.6405 350.243 41.9036 351.12 42.4299C351.997 42.9342 352.655 43.7126 353.094 44.765C353.532 45.8175 353.751 47.1441 353.751 48.7447V59.2695H350.364V48.975C350.364 47.9883 350.232 47.177 349.969 46.5411C349.706 45.8833 349.3 45.4119 348.752 45.1268C348.204 44.8199 347.524 44.6883 346.713 44.7322C346.055 44.7322 345.452 44.8418 344.904 45.0611C344.356 45.2584 343.873 45.5434 343.457 45.9162C343.062 46.2889 342.744 46.7275 342.503 47.2318C342.284 47.7142 342.174 48.2404 342.174 48.8105V59.2695H340.497C340.212 59.2695 339.927 59.2695 339.642 59.2695C339.357 59.2695 339.072 59.2695 338.787 59.2695Z" fill="#1D2638"/>
<path d="M379.704 130.131H209.394C197.216 130.131 187.344 140.003 187.344 152.181V152.191C187.344 164.369 197.216 174.241 209.394 174.241H379.704C391.882 174.241 401.754 164.369 401.754 152.191V152.181C401.754 140.003 391.882 130.131 379.704 130.131Z" fill="#1D2638"/>
<path d="M208.634 160.92V148.543H204.366V145.982H215.804V148.543H211.408V160.92H208.634ZM216.806 160.92V149.674H219.388L219.431 153.259L219.068 152.448C219.224 151.879 219.495 151.367 219.879 150.911C220.263 150.456 220.704 150.101 221.202 149.844C221.714 149.574 222.247 149.439 222.802 149.439C223.044 149.439 223.272 149.46 223.485 149.503C223.713 149.546 223.898 149.595 224.04 149.652L223.336 152.533C223.179 152.448 222.987 152.377 222.76 152.32C222.532 152.263 222.304 152.235 222.077 152.235C221.721 152.235 221.38 152.306 221.052 152.448C220.739 152.576 220.462 152.761 220.22 153.003C219.978 153.245 219.786 153.529 219.644 153.856C219.516 154.169 219.452 154.525 219.452 154.923V160.92H216.806ZM229.555 161.133C228.63 161.133 227.791 160.877 227.037 160.365C226.283 159.853 225.678 159.156 225.223 158.274C224.768 157.392 224.54 156.389 224.54 155.265C224.54 154.141 224.768 153.138 225.223 152.256C225.678 151.374 226.297 150.684 227.08 150.186C227.862 149.688 228.744 149.439 229.726 149.439C230.295 149.439 230.814 149.524 231.284 149.695C231.753 149.852 232.166 150.079 232.521 150.378C232.877 150.677 233.169 151.018 233.396 151.402C233.638 151.786 233.802 152.199 233.887 152.64L233.311 152.491V149.674H235.957V160.92H233.29V158.231L233.908 158.124C233.809 158.509 233.624 158.886 233.354 159.255C233.097 159.611 232.77 159.931 232.372 160.216C231.988 160.486 231.554 160.707 231.07 160.877C230.601 161.048 230.096 161.133 229.555 161.133ZM230.281 158.807C230.892 158.807 231.433 158.658 231.902 158.359C232.372 158.06 232.735 157.648 232.991 157.121C233.261 156.581 233.396 155.962 233.396 155.265C233.396 154.582 233.261 153.977 232.991 153.451C232.735 152.925 232.372 152.512 231.902 152.213C231.433 151.914 230.892 151.765 230.281 151.765C229.669 151.765 229.128 151.914 228.659 152.213C228.204 152.512 227.848 152.925 227.592 153.451C227.336 153.977 227.208 154.582 227.208 155.265C227.208 155.962 227.336 156.581 227.592 157.121C227.848 157.648 228.204 158.06 228.659 158.359C229.128 158.658 229.669 158.807 230.281 158.807ZM243.524 161.133C242.528 161.133 241.632 160.884 240.835 160.386C240.053 159.874 239.427 159.184 238.957 158.316C238.502 157.434 238.275 156.424 238.275 155.286C238.275 154.162 238.502 153.159 238.957 152.277C239.413 151.395 240.032 150.705 240.814 150.207C241.611 149.695 242.507 149.439 243.503 149.439C244.044 149.439 244.563 149.524 245.061 149.695C245.573 149.866 246.028 150.101 246.426 150.399C246.825 150.684 247.138 151.004 247.365 151.36C247.607 151.715 247.742 152.085 247.771 152.469L247.067 152.555V145.128H249.692V160.92H247.152L247.088 158.274L247.6 158.316C247.586 158.672 247.458 159.014 247.216 159.341C246.988 159.668 246.69 159.967 246.32 160.237C245.95 160.507 245.516 160.728 245.018 160.899C244.534 161.055 244.036 161.133 243.524 161.133ZM244.036 158.914C244.648 158.914 245.189 158.757 245.658 158.444C246.128 158.131 246.491 157.705 246.747 157.164C247.017 156.623 247.152 155.997 247.152 155.286C247.152 154.589 247.017 153.97 246.747 153.43C246.491 152.875 246.128 152.448 245.658 152.149C245.189 151.836 244.648 151.68 244.036 151.68C243.425 151.68 242.884 151.836 242.415 152.149C241.945 152.448 241.575 152.875 241.305 153.43C241.049 153.97 240.921 154.589 240.921 155.286C240.921 155.997 241.049 156.623 241.305 157.164C241.575 157.705 241.945 158.131 242.415 158.444C242.884 158.757 243.425 158.914 244.036 158.914ZM257.942 161.133C256.761 161.133 255.716 160.884 254.805 160.386C253.909 159.888 253.205 159.213 252.692 158.359C252.195 157.491 251.946 156.503 251.946 155.393C251.946 154.511 252.088 153.707 252.372 152.981C252.657 152.256 253.048 151.63 253.546 151.104C254.058 150.563 254.663 150.15 255.36 149.866C256.071 149.567 256.847 149.418 257.686 149.418C258.426 149.418 259.116 149.56 259.756 149.844C260.396 150.129 260.951 150.52 261.421 151.018C261.89 151.502 262.246 152.085 262.488 152.768C262.744 153.437 262.865 154.169 262.85 154.966L262.829 155.884H253.717L253.226 154.091H260.631L260.289 154.454V153.984C260.247 153.543 260.105 153.159 259.863 152.832C259.621 152.491 259.308 152.227 258.924 152.042C258.554 151.843 258.141 151.744 257.686 151.744C256.989 151.744 256.398 151.879 255.915 152.149C255.445 152.419 255.09 152.811 254.848 153.323C254.606 153.821 254.485 154.447 254.485 155.201C254.485 155.926 254.634 156.559 254.933 157.1C255.246 157.641 255.68 158.06 256.235 158.359C256.804 158.644 257.465 158.786 258.22 158.786C258.746 158.786 259.23 158.701 259.671 158.53C260.112 158.359 260.588 158.053 261.1 157.612L262.402 159.426C262.018 159.782 261.577 160.088 261.079 160.344C260.595 160.586 260.083 160.778 259.543 160.92C259.002 161.062 258.468 161.133 257.942 161.133ZM276.655 161.133C275.374 161.133 274.25 160.899 273.283 160.429C272.316 159.96 271.49 159.27 270.808 158.359L272.451 156.204C273.176 157.143 273.881 157.797 274.563 158.167C275.246 158.537 276.015 158.722 276.868 158.722C277.352 158.722 277.793 158.651 278.191 158.509C278.59 158.352 278.903 158.146 279.13 157.89C279.358 157.619 279.472 157.313 279.472 156.972C279.472 156.73 279.422 156.51 279.322 156.31C279.237 156.097 279.102 155.912 278.917 155.756C278.732 155.585 278.504 155.428 278.234 155.286C277.964 155.144 277.658 155.023 277.316 154.923C276.975 154.824 276.598 154.731 276.185 154.646C275.133 154.433 274.258 154.127 273.56 153.728C272.878 153.316 272.365 152.804 272.024 152.192C271.683 151.58 271.512 150.862 271.512 150.037C271.512 149.411 271.647 148.834 271.917 148.308C272.202 147.782 272.586 147.326 273.07 146.942C273.553 146.558 274.115 146.259 274.756 146.046C275.396 145.833 276.086 145.726 276.825 145.726C277.992 145.726 279.024 145.939 279.92 146.366C280.816 146.779 281.556 147.397 282.139 148.223L280.56 150.143C280.076 149.489 279.514 148.998 278.874 148.671C278.248 148.329 277.565 148.159 276.825 148.159C276.313 148.159 275.865 148.23 275.481 148.372C275.111 148.514 274.82 148.721 274.606 148.991C274.393 149.247 274.286 149.56 274.286 149.93C274.286 150.214 274.35 150.47 274.478 150.698C274.606 150.911 274.784 151.104 275.012 151.274C275.253 151.445 275.559 151.594 275.929 151.722C276.299 151.85 276.719 151.964 277.188 152.064C277.971 152.22 278.675 152.434 279.301 152.704C279.927 152.96 280.46 153.273 280.901 153.643C281.342 153.999 281.677 154.411 281.904 154.881C282.132 155.336 282.246 155.848 282.246 156.417C282.246 157.399 282.011 158.245 281.542 158.957C281.086 159.654 280.439 160.194 279.6 160.578C278.76 160.948 277.779 161.133 276.655 161.133ZM275.374 162.862L275.46 153.088L277.402 153.792L277.487 162.862H275.374ZM278.149 153.792L276.207 153.088L276.121 144.189H278.234L278.149 153.792ZM294.899 160.92V145.982H297.673V160.92H294.899ZM285.317 160.92V145.982H288.092V160.92H285.317ZM286.47 154.774V152.171H296.243V154.774H286.47ZM301.697 160.92V145.982H304.194L312.858 157.655L312.389 157.74C312.332 157.342 312.282 156.936 312.239 156.524C312.197 156.097 312.154 155.656 312.111 155.201C312.083 154.746 312.054 154.269 312.026 153.771C312.012 153.273 311.998 152.754 311.983 152.213C311.969 151.658 311.962 151.075 311.962 150.463V145.982H314.715V160.92H312.175L303.469 149.418L304.023 149.268C304.095 150.065 304.152 150.748 304.194 151.317C304.251 151.872 304.294 152.355 304.322 152.768C304.351 153.166 304.372 153.501 304.386 153.771C304.415 154.041 304.429 154.29 304.429 154.518C304.443 154.731 304.45 154.938 304.45 155.137V160.92H301.697ZM322.693 160.92V153.472L322.842 154.518L316.803 145.982H320.047L324.656 152.597L323.653 152.533L327.814 145.982H330.93L325.147 154.753L325.467 153.302V160.92H322.693ZM339.293 160.92V145.982H341.789L350.453 157.655L349.984 157.74C349.927 157.342 349.877 156.936 349.834 156.524C349.792 156.097 349.749 155.656 349.706 155.201C349.678 154.746 349.65 154.269 349.621 153.771C349.607 153.273 349.593 152.754 349.578 152.213C349.564 151.658 349.557 151.075 349.557 150.463V145.982H352.31V160.92H349.77L341.064 149.418L341.619 149.268C341.69 150.065 341.747 150.748 341.789 151.317C341.846 151.872 341.889 152.355 341.917 152.768C341.946 153.166 341.967 153.501 341.981 153.771C342.01 154.041 342.024 154.29 342.024 154.518C342.038 154.731 342.045 154.938 342.045 155.137V160.92H339.293ZM360.992 161.133C359.868 161.133 358.865 160.884 357.983 160.386C357.101 159.874 356.404 159.177 355.892 158.295C355.38 157.413 355.124 156.41 355.124 155.286C355.124 154.162 355.38 153.159 355.892 152.277C356.404 151.395 357.101 150.705 357.983 150.207C358.865 149.695 359.868 149.439 360.992 149.439C362.102 149.439 363.098 149.695 363.98 150.207C364.862 150.705 365.552 151.395 366.05 152.277C366.562 153.159 366.818 154.162 366.818 155.286C366.818 156.41 366.562 157.413 366.05 158.295C365.552 159.177 364.862 159.874 363.98 160.386C363.098 160.884 362.102 161.133 360.992 161.133ZM360.992 158.807C361.604 158.807 362.144 158.651 362.614 158.338C363.098 158.025 363.475 157.605 363.745 157.079C364.03 156.552 364.165 155.955 364.15 155.286C364.165 154.603 364.03 153.999 363.745 153.472C363.475 152.946 363.098 152.533 362.614 152.235C362.144 151.922 361.604 151.765 360.992 151.765C360.38 151.765 359.826 151.922 359.328 152.235C358.844 152.533 358.467 152.953 358.197 153.494C357.926 154.02 357.791 154.618 357.791 155.286C357.791 155.955 357.926 156.552 358.197 157.079C358.467 157.605 358.844 158.025 359.328 158.338C359.826 158.651 360.38 158.807 360.992 158.807ZM371.395 160.92L367.618 149.674L370.307 149.652L372.825 157.676L372.355 157.634L375.087 151.36H376.666L379.462 157.634L378.907 157.698L381.446 149.674H384.135L380.337 160.92H378.459L375.578 154.176L375.983 154.219L373.252 160.92H371.395Z" fill="white"/>
</svg>
