<svg width="600" height="80" viewBox="0 0 600 80" fill="none" xmlns="http://www.w3.org/2000/svg">
<path d="M165.566 43.8403C163.945 41.5766 162.356 39.3565 160.72 37.0678C164.584 34.2865 168.412 31.5301 172.323 28.7144C168.15 25.7242 164.054 22.7869 159.875 19.7936C161.486 17.533 163.076 15.3004 164.706 13.0117C172.008 18.2408 179.255 23.4324 186.61 28.702C179.569 33.7689 172.6 38.7828 165.569 43.8434L165.566 43.8403Z" fill="#1D2638"/>
<path d="M207.586 21.0102C208.982 21.0102 210.329 20.9946 211.675 21.0164C212.95 21.0351 214.234 20.8917 215.499 21.1723C218.728 21.8926 220.879 24.5056 221.028 27.8856C221.078 29.0486 220.981 30.193 220.611 31.303C219.666 34.1342 217.154 35.9864 214.171 36.0176C212.146 36.0394 210.12 36.0269 208.097 36.0269C207.941 36.0269 207.785 36.0051 207.589 35.9895V21.0102H207.586ZM210.902 33.071C212.052 33.0491 213.131 33.1552 214.206 33.0024C215.967 32.7529 217.126 31.699 217.528 30.0059C217.693 29.3074 217.728 28.5965 217.659 27.8887C217.509 26.3047 216.88 24.9982 215.343 24.3341C213.922 23.7198 212.42 24.0316 210.902 23.9786V33.0741V33.071Z" fill="#1D2638"/>
<path d="M315.187 36.0194C314.171 34.2203 313.186 32.4741 312.192 30.7124H309.945V35.9851H306.766V21.0962C306.974 20.959 307.193 21.012 307.398 21.012C309.387 21.0089 311.378 21.0058 313.367 21.012C315.701 21.0151 317.602 22.3809 318.191 24.47C318.802 26.6464 317.942 28.7698 315.947 30.014C315.86 30.067 315.779 30.1324 315.657 30.2229C316.761 32.1343 317.858 34.0332 319.005 36.0194H315.19H315.187ZM309.973 27.9591C311.082 27.9591 312.142 27.9654 313.202 27.9591C314.155 27.9498 314.825 27.4166 315.015 26.5466C315.252 25.4522 314.9 24.5199 314.015 24.1457C312.706 23.5969 311.335 23.9462 309.973 23.862V27.9623V27.9591Z" fill="#1D2638"/>
<path d="M188.641 26.8849C186.394 25.2666 184.194 23.6795 181.891 22.0206C186.086 19.0023 190.215 16.0308 194.426 13C196.04 15.2575 197.636 17.4838 199.272 19.7725C195.71 22.1547 192.201 24.5026 188.641 26.8849Z" fill="#1D2638"/>
<path d="M188.64 30.5332C191.947 32.7845 195.228 35.0201 198.573 37.2964C196.964 39.5632 195.387 41.7833 193.751 44.0876C189.812 41.275 185.906 38.4906 181.898 35.6313C184.177 33.907 186.386 32.2357 188.637 30.5332H188.64Z" fill="#1D2638"/>
<path d="M232.588 33.1054H239.604C239.679 34.1063 239.676 35.0355 239.61 35.9958H229.344V21.0664H239.426V23.9226H232.582V26.9097H238.42C238.513 27.9013 238.485 28.793 238.441 29.7815H232.585V33.1022L232.588 33.1054Z" fill="#1D2638"/>
<path d="M287.667 21.041H297.759V23.8941H290.924V26.9186H296.752V29.7904H290.909V33.0924H297.93C297.999 34.1121 298.002 35.0381 297.93 35.9923H287.664V21.041H287.667Z" fill="#1D2638"/>
<path d="M250.404 36.0001H246.57C248.394 33.3934 250.154 30.8771 251.931 28.3358C250.195 25.9193 248.478 23.5308 246.698 21.0582H250.747C251.806 22.6079 252.903 24.2106 254.06 25.8975C255.166 24.2137 256.213 22.6172 257.245 21.0488H261.075C259.327 23.6057 257.638 26.0752 255.927 28.5759C257.7 31.0205 259.458 33.4495 261.281 35.9658H257.236C256.142 34.388 255.004 32.7417 253.817 31.0267C252.657 32.7167 251.538 34.3506 250.407 36.0001H250.404Z" fill="#1D2638"/>
<path d="M271.863 23.9697H267.531V21.0605H279.593V23.9635H275.183V35.99H271.863V23.9728V23.9697Z" fill="#1D2638"/>
<path d="M25.2837 36.7673C24.2147 36.7673 23.2329 36.6301 22.3384 36.3588C21.4439 36.0875 20.6367 35.6791 19.9199 35.1365C19.1999 34.594 18.561 33.9361 18 33.1628L20.2347 30.6371C21.0949 31.8313 21.9364 32.6545 22.7592 33.1098C23.582 33.565 24.5107 33.7926 25.5486 33.7926C26.1439 33.7926 26.6893 33.6991 27.1786 33.5151C27.6679 33.3311 28.0544 33.0755 28.3349 32.7512C28.6154 32.4269 28.7557 32.0527 28.7557 31.6318C28.7557 31.3325 28.6996 31.0581 28.5843 30.8024C28.4689 30.5467 28.2975 30.3191 28.07 30.1195C27.8425 29.9168 27.562 29.7298 27.2285 29.5551C26.895 29.3805 26.5179 29.2309 26.0971 29.1061C25.6764 28.9845 25.212 28.8692 24.704 28.7631C23.7409 28.5698 22.8963 28.311 22.1795 27.9867C21.4595 27.6625 20.8549 27.2602 20.3656 26.7769C19.8731 26.2936 19.5147 25.7511 19.2872 25.1462C19.0597 24.5412 18.9444 23.8521 18.9444 23.082C18.9444 22.3118 19.1158 21.6009 19.4586 20.9492C19.8014 20.3006 20.2689 19.7394 20.8674 19.2654C21.4626 18.7915 22.1577 18.4235 22.9462 18.1616C23.7347 17.8997 24.5855 17.7656 25.4987 17.7656C26.5335 17.7656 27.4591 17.8872 28.2726 18.1336C29.0892 18.3799 29.806 18.7447 30.4293 19.2249C31.0527 19.7082 31.5638 20.2913 31.969 20.9741L29.7063 23.2098C29.3541 22.6673 28.9614 22.2151 28.5219 21.8534C28.0825 21.4949 27.6087 21.2205 27.1007 21.0365C26.5927 20.8525 26.0566 20.759 25.4956 20.759C24.8629 20.759 24.3144 20.8463 23.85 21.0209C23.3856 21.1955 23.021 21.445 22.7592 21.7724C22.4974 22.0967 22.3634 22.4864 22.3634 22.9448C22.3634 23.2971 22.4413 23.6058 22.6002 23.8802C22.7592 24.1515 22.9805 24.3947 23.2703 24.6036C23.5602 24.8125 23.931 24.9996 24.3892 25.1555C24.8442 25.3145 25.3616 25.4548 25.9413 25.5765C26.9044 25.7698 27.7739 26.0286 28.5468 26.3529C29.3198 26.6771 29.9743 27.0638 30.5197 27.5097C31.062 27.9556 31.4765 28.4669 31.757 29.0344C32.0375 29.605 32.1778 30.2411 32.1778 30.9427C32.1778 32.1525 31.891 33.194 31.3238 34.0608C30.7535 34.9307 29.9525 35.5949 28.9177 36.0626C27.883 36.5272 26.6737 36.7611 25.2868 36.7611L25.2837 36.7673Z" fill="#1D2638"/>
<path d="M34.1328 25.6355V22.6359H43.1275V25.6355H34.1328ZM36.8693 36.5052V19.1094H40.1044V36.5052H36.8693Z" fill="#1D2638"/>
<path d="M50.6882 36.7669C49.5475 36.7669 48.5127 36.452 47.584 35.819C46.6552 35.186 45.9103 34.3285 45.3493 33.2403C44.7883 32.1521 44.5078 30.9142 44.5078 29.5298C44.5078 28.1454 44.7883 26.9075 45.3493 25.8193C45.9103 24.731 46.6739 23.8798 47.637 23.2655C48.6 22.6513 49.6877 22.3457 50.9001 22.3457C51.6014 22.3457 52.2403 22.4455 52.82 22.6482C53.3997 22.8508 53.9077 23.1346 54.3441 23.5025C54.7835 23.8704 55.145 24.2914 55.4349 24.7653C55.7247 25.2393 55.9211 25.7475 56.0271 26.2932L55.3165 26.1092V22.6357H58.5796V36.505H55.2915V33.1904L56.0551 33.0595C55.9336 33.5334 55.7092 33.9949 55.385 34.4408C55.0609 34.8898 54.6588 35.2827 54.1757 35.6257C53.6927 35.9687 53.1597 36.243 52.5707 36.4551C51.9816 36.664 51.3551 36.77 50.6882 36.77V36.7669ZM51.5827 33.8982C52.3369 33.8982 53.0039 33.7143 53.5805 33.3463C54.1571 32.9784 54.609 32.4639 54.9362 31.806C55.2603 31.1481 55.4224 30.3904 55.4224 29.5298C55.4224 28.6692 55.2603 27.9427 54.9362 27.2941C54.6121 26.6456 54.1602 26.1373 53.5805 25.7663C53.0008 25.3952 52.3338 25.2143 51.5827 25.2143C50.8315 25.2143 50.1677 25.3983 49.5973 25.7663C49.027 26.1342 48.5844 26.6424 48.2696 27.2941C47.9548 27.9427 47.7959 28.6879 47.7959 29.5298C47.7959 30.3717 47.9548 31.1481 48.2696 31.806C48.5844 32.4639 49.027 32.9784 49.5973 33.3463C50.1677 33.7143 50.8284 33.8982 51.5827 33.8982Z" fill="#1D2638"/>
<path d="M62.3359 36.5069V17.0312H65.5711V36.5069H62.3359ZM65.3622 32.2694L64.7295 29.2417L71.3058 22.6376H75.6192L65.3591 32.2694H65.3622ZM71.7016 36.5069L66.5996 30.3237L68.8872 28.3749L75.7003 36.5069H71.7016Z" fill="#1D2638"/>
<path d="M83.7631 36.7676C82.3076 36.7676 81.0235 36.462 79.9077 35.8478C78.7951 35.2335 77.9255 34.3947 77.3022 33.3346C76.6789 32.2744 76.3672 31.0584 76.3672 29.6895C76.3672 28.6013 76.5417 27.6098 76.8939 26.7149C77.243 25.82 77.7323 25.0436 78.3525 24.3857C78.9758 23.7277 79.7207 23.2195 80.5872 22.8578C81.4567 22.4992 82.4073 22.3184 83.442 22.3184C84.3521 22.3184 85.203 22.493 85.9946 22.8453C86.7831 23.1977 87.4688 23.6747 88.0454 24.2796C88.622 24.8845 89.0677 25.6048 89.3731 26.4374C89.6785 27.2699 89.825 28.1773 89.8063 29.1626L89.7814 30.2944H78.5489L77.9442 28.0837H87.073L86.6522 28.5296V27.9496C86.5992 27.4071 86.4247 26.9269 86.1255 26.5153C85.8263 26.1037 85.4461 25.7794 84.9817 25.5425C84.5173 25.3055 84.003 25.187 83.442 25.187C82.5818 25.187 81.8588 25.3554 81.2728 25.6859C80.6838 26.0195 80.2412 26.4966 79.9451 27.1202C79.6459 27.7438 79.4994 28.5202 79.4994 29.4494C79.4994 30.3786 79.6864 31.1239 80.0636 31.7911C80.4407 32.4584 80.9736 32.9698 81.6686 33.3315C82.3605 33.69 83.1709 33.8709 84.1028 33.8709C84.751 33.8709 85.3463 33.7649 85.8918 33.556C86.4341 33.3471 87.0231 32.9698 87.6558 32.4241L89.2609 34.6598C88.7872 35.0994 88.248 35.4705 87.6433 35.7792C87.0387 36.0879 86.4029 36.328 85.7359 36.5026C85.069 36.6772 84.4113 36.7645 83.7631 36.7645V36.7676Z" fill="#1D2638"/>
<path d="M103.672 36.5056L99.0156 22.6363L102.329 22.6113L105.433 32.505L104.853 32.452L108.219 24.716H110.167L113.614 32.452L112.932 32.53L116.061 22.6363H119.374L114.693 36.5056H112.377L108.827 28.1896L109.326 28.2426L105.96 36.5056H103.672Z" fill="#1D2638"/>
<path d="M123.707 19.6854C123.059 19.6854 122.554 19.5233 122.195 19.199C121.837 18.8747 121.656 18.4132 121.656 17.8177C121.656 17.2564 121.84 16.8012 122.208 16.4488C122.576 16.0996 123.077 15.9219 123.707 15.9219C124.374 15.9219 124.885 16.084 125.247 16.4083C125.605 16.7326 125.786 17.2034 125.786 17.8177C125.786 18.3602 125.602 18.8092 125.234 19.1585C124.866 19.5108 124.358 19.6854 123.707 19.6854ZM122.127 36.5044V22.6351H125.362V36.5044H122.127Z" fill="#1D2638"/>
<path d="M128.242 25.6355V22.6359H137.237V25.6355H128.242ZM130.979 36.5052V19.1094H134.214V36.5052H130.979Z" fill="#1D2638"/>
<path d="M139.711 36.5069V17.0312H142.921V25.4782L142.316 25.7931C142.491 25.1601 142.834 24.5864 143.342 24.0688C143.85 23.5512 144.455 23.1334 145.156 22.8184C145.857 22.5035 146.577 22.3445 147.313 22.3445C148.366 22.3445 149.245 22.5534 149.955 22.9775C150.666 23.3984 151.202 24.0314 151.561 24.8733C151.919 25.7151 152.1 26.7691 152.1 28.0319V36.5069H148.865V28.2689C148.865 27.5673 148.768 26.9842 148.575 26.5196C148.382 26.055 148.082 25.712 147.68 25.4938C147.278 25.2755 146.786 25.1726 146.206 25.1913C145.732 25.1913 145.299 25.2661 144.903 25.4158C144.508 25.5655 144.168 25.7744 143.878 26.0488C143.588 26.3201 143.361 26.6319 143.195 26.9842C143.027 27.3365 142.946 27.7201 142.946 28.141V36.51H139.711V36.5069Z" fill="#1D2638"/>
<path d="M29.6362 62.9999C28.7858 62.9999 28.0085 62.7642 27.3074 62.2899C26.6064 61.8155 26.0455 61.1729 25.6279 60.3558C25.2103 59.5387 25 58.6206 25 57.5924C25 56.5641 25.2134 55.6307 25.6371 54.8197C26.0638 54.0118 26.6399 53.3753 27.3654 52.9163C28.0908 52.4572 28.9077 52.2246 29.813 52.2246C30.3495 52.2246 30.8402 52.3042 31.2853 52.4603C31.7303 52.6194 32.1205 52.8397 32.4558 53.1213C32.7911 53.4028 33.0654 53.7303 33.2818 54.0975C33.4982 54.4648 33.6323 54.8595 33.6841 55.2818L33.233 55.1227V52.4388H35.2753V62.7948H33.233V60.3282L33.7055 60.1905C33.6262 60.5455 33.4677 60.8913 33.2239 61.2249C32.98 61.5615 32.6752 61.8584 32.3003 62.1216C31.9284 62.3847 31.5139 62.5959 31.0628 62.752C30.6116 62.9081 30.1361 62.9876 29.6393 62.9876L29.6362 62.9999ZM30.1666 61.1239C30.7823 61.1239 31.3249 60.974 31.7973 60.671C32.2698 60.368 32.6386 59.9518 32.9069 59.4193C33.1751 58.8868 33.3092 58.2779 33.3092 57.5954C33.3092 56.913 33.1751 56.3254 32.9069 55.799C32.6386 55.2727 32.2698 54.8595 31.7973 54.5566C31.3249 54.2536 30.7823 54.1036 30.1666 54.1036C29.5509 54.1036 29.0296 54.2536 28.5663 54.5566C28.1 54.8595 27.7342 55.2727 27.4659 55.799C27.1977 56.3254 27.0636 56.9222 27.0636 57.5954C27.0636 58.2687 27.1977 58.8868 27.4659 59.4193C27.7342 59.9518 28.1 60.3711 28.5663 60.671C29.0296 60.974 29.5661 61.1239 30.1666 61.1239Z" fill="#1D2638"/>
<path d="M38.1016 62.7998V52.4439H40.1255V54.5738L39.7719 54.8095C39.903 54.3504 40.1591 53.925 40.537 53.5364C40.918 53.1477 41.3692 52.8325 41.8934 52.5908C42.4177 52.349 42.9542 52.2266 43.5059 52.2266C44.2923 52.2266 44.9477 52.3827 45.472 52.6887C45.9962 52.9978 46.3895 53.4691 46.6516 54.0995C46.9137 54.7299 47.0448 55.5256 47.0448 56.4865V62.7998H45.0208V56.6242C45.0208 56.0336 44.9416 55.5439 44.7861 55.1553C44.6307 54.7666 44.3868 54.4851 44.0607 54.3076C43.7345 54.1301 43.3261 54.0536 42.8414 54.0811C42.4482 54.0811 42.0885 54.1423 41.7593 54.2678C41.4332 54.3933 41.1467 54.5677 40.9059 54.7911C40.662 55.0145 40.473 55.2746 40.3359 55.5715C40.1987 55.8683 40.1286 56.1866 40.1286 56.5293V62.8029H38.1046L38.1016 62.7998Z" fill="#1D2638"/>
<path d="M54.1038 62.9996C53.1619 62.9996 52.3176 62.767 51.5799 62.2988C50.8392 61.8305 50.254 61.194 49.8211 60.3861C49.3883 59.5782 49.1719 58.654 49.1719 57.6135C49.1719 56.573 49.3853 55.6519 49.812 54.8409C50.2387 54.033 50.8179 53.3934 51.5494 52.9282C52.284 52.4631 53.1162 52.2274 54.0459 52.2274C54.558 52.2274 55.0518 52.31 55.5303 52.4753C56.0089 52.6405 56.4386 52.8639 56.8166 53.1455C57.1976 53.4301 57.4933 53.7361 57.7097 54.0728C57.9261 54.4094 58.0328 54.746 58.0328 55.0888L57.4445 55.1286V48.2031H59.4685V62.8007H57.4445V60.3341H57.8377C57.8377 60.6493 57.7341 60.9614 57.5238 61.2705C57.3135 61.5796 57.0361 61.8642 56.6886 62.1274C56.3411 62.3906 55.9418 62.6017 55.4907 62.7578C55.0396 62.9139 54.5762 62.9935 54.1068 62.9935L54.1038 62.9996ZM54.3781 61.243C54.9938 61.243 55.5364 61.0838 56.0089 60.7686C56.4813 60.4534 56.8501 60.0219 57.1184 59.4772C57.3866 58.9325 57.5207 58.3112 57.5207 57.6135C57.5207 56.9157 57.3866 56.2945 57.1184 55.7498C56.8501 55.2051 56.4783 54.7736 56.0089 54.4583C55.5364 54.1431 54.9938 53.984 54.3781 53.984C53.7624 53.984 53.2198 54.1431 52.7474 54.4583C52.2749 54.7736 51.9061 55.2051 51.6378 55.7498C51.3696 56.2945 51.2355 56.9157 51.2355 57.6135C51.2355 58.3112 51.3696 58.9325 51.6378 59.4772C51.9061 60.0219 52.2749 60.4534 52.7474 60.7686C53.2198 61.0838 53.7624 61.243 54.3781 61.243Z" fill="#1D2638"/>
<path d="M71.3729 62.9974C70.6383 62.9974 70.0012 62.826 69.4587 62.4832C68.9161 62.1404 68.4954 61.6631 68.1998 61.0419C67.9041 60.4237 67.7578 59.6862 67.7578 58.8324V52.4395H69.7818V58.2785C69.7818 58.8843 69.8763 59.4077 70.0683 59.8453C70.2573 60.286 70.5316 60.6257 70.8943 60.8613C71.254 61.097 71.6899 61.2163 72.202 61.2163C72.583 61.2163 72.9305 61.1551 73.2445 61.0297C73.5584 60.9042 73.8297 60.7298 74.0614 60.5064C74.29 60.283 74.4698 60.0137 74.6009 59.6984C74.7319 59.3832 74.799 59.0405 74.799 58.6733V52.4395H76.823V62.7954H74.799V60.6257L75.1526 60.3901C74.9971 60.8766 74.7289 61.3173 74.357 61.7121C73.9852 62.1069 73.5432 62.419 73.0311 62.6485C72.519 62.8781 71.9703 62.9944 71.379 62.9944L71.3729 62.9974Z" fill="#1D2638"/>
<path d="M79.6406 62.7998V52.4439H81.6646V54.5738L81.311 54.8095C81.4421 54.3504 81.6981 53.925 82.0761 53.5364C82.4571 53.1477 82.9082 52.8325 83.4325 52.5908C83.9568 52.349 84.4933 52.2266 85.045 52.2266C85.8314 52.2266 86.4867 52.3827 87.011 52.6887C87.5353 52.9978 87.9285 53.4691 88.1907 54.0995C88.4528 54.7299 88.5839 55.5256 88.5839 56.4865V62.7998H86.5599V56.6242C86.5599 56.0336 86.4806 55.5439 86.3252 55.1553C86.1697 54.7666 85.9259 54.4851 85.5997 54.3076C85.2736 54.1301 84.8651 54.0536 84.3805 54.0811C83.9873 54.0811 83.6276 54.1423 83.2984 54.2678C82.9722 54.3933 82.6857 54.5677 82.4449 54.7911C82.201 55.0145 82.0121 55.2746 81.8749 55.5715C81.7377 55.8683 81.6676 56.1866 81.6676 56.5293V62.8029H79.6437L79.6406 62.7998Z" fill="#1D2638"/>
<path d="M91.375 62.8007V48.2031H93.399V62.8007H91.375Z" fill="#1D2638"/>
<path d="M100.705 62.9988C99.696 62.9988 98.7966 62.7662 98.004 62.298C97.2115 61.8297 96.5867 61.1932 96.1264 60.3853C95.6692 59.5774 95.4375 58.6532 95.4375 57.6127C95.4375 56.5722 95.6661 55.651 96.1264 54.8401C96.5836 54.0321 97.2115 53.3926 98.004 52.9274C98.7966 52.4622 99.696 52.2266 100.705 52.2266C101.714 52.2266 102.595 52.4592 103.387 52.9274C104.18 53.3956 104.804 54.0321 105.265 54.8401C105.722 55.648 105.954 56.5722 105.954 57.6127C105.954 58.6532 105.725 59.5743 105.265 60.3853C104.804 61.1932 104.18 61.8328 103.387 62.298C102.595 62.7662 101.701 62.9988 100.705 62.9988ZM100.705 61.1442C101.32 61.1442 101.869 60.9912 102.354 60.6821C102.838 60.373 103.219 59.9538 103.494 59.4182C103.768 58.8827 103.899 58.2829 103.887 57.6127C103.899 56.9302 103.768 56.3212 103.494 55.7887C103.219 55.2563 102.838 54.8401 102.354 54.5371C101.869 54.2341 101.317 54.0842 100.705 54.0842C100.092 54.0842 99.534 54.2402 99.043 54.5463C98.5527 54.8554 98.1686 55.2746 97.8943 55.8102C97.62 56.3457 97.4889 56.9455 97.5011 57.6157C97.4889 58.2859 97.62 58.8888 97.8943 59.4213C98.1686 59.9538 98.5527 60.3761 99.043 60.6852C99.534 60.9943 100.089 61.1473 100.705 61.1473V61.1442Z" fill="#1D2638"/>
<path d="M112.542 62.9988C111.585 62.9988 110.732 62.7631 109.979 62.2888C109.226 61.8144 108.629 61.1718 108.19 60.3547C107.751 59.5406 107.531 58.6256 107.531 57.6127C107.531 56.5997 107.751 55.6847 108.19 54.8707C108.629 54.0566 109.223 53.4109 109.979 52.9366C110.732 52.4622 111.588 52.2266 112.542 52.2266C113.496 52.2266 114.295 52.4133 115.048 52.7897C115.801 53.163 116.374 53.6741 116.767 54.3198L115.648 55.7C115.438 55.397 115.17 55.1216 114.844 54.8707C114.518 54.6197 114.17 54.4239 113.801 54.28C113.432 54.1362 113.082 54.0627 112.741 54.0627C112.113 54.0627 111.552 54.2188 111.061 54.5249C110.57 54.8309 110.18 55.2593 109.891 55.7979C109.601 56.3365 109.458 56.9425 109.458 57.6127C109.458 58.2829 109.607 58.8857 109.909 59.4182C110.211 59.9507 110.61 60.3761 111.107 60.6913C111.604 61.0065 112.155 61.1656 112.756 61.1656C113.109 61.1656 113.454 61.1075 113.786 60.9882C114.118 60.8688 114.444 60.6913 114.758 60.4557C115.072 60.22 115.368 59.9293 115.642 59.5866L116.761 60.9667C116.34 61.5574 115.743 62.044 114.963 62.4265C114.182 62.809 113.375 62.9988 112.536 62.9988H112.542Z" fill="#1D2638"/>
<path d="M118.672 62.8007V48.2031H120.696V62.8007H118.672ZM120.519 59.5659L120.422 57.3564L125.353 52.4447H128.085L120.519 59.5659ZM125.628 62.8007L121.738 58.2439L123.174 56.9219L128.225 62.8007H125.631H125.628Z" fill="#1D2638"/>
<path d="M139.167 62.9767C138.289 62.9767 137.506 62.7441 136.82 62.2759C136.131 61.8107 135.585 61.165 135.18 60.3418C134.775 59.5186 134.57 58.5883 134.57 57.5508C134.57 56.5134 134.775 55.5463 135.18 54.7293C135.585 53.9152 136.143 53.2726 136.85 52.8043C137.557 52.3392 138.362 52.1035 139.267 52.1035C139.764 52.1035 140.222 52.177 140.633 52.3208C141.045 52.4647 141.41 52.6666 141.724 52.9237C142.038 53.1808 142.306 53.4776 142.529 53.8112C142.752 54.1478 142.916 54.5059 143.02 54.8853L142.37 54.8058V52.3208H145.495V62.7961H142.313V60.2714L143.02 60.2531C142.916 60.6203 142.745 60.9692 142.508 61.2997C142.273 61.6271 141.983 61.9178 141.642 62.1688C141.301 62.4197 140.923 62.6156 140.502 62.7594C140.081 62.9033 139.636 62.9767 139.167 62.9767ZM140.03 60.3143C140.514 60.3143 140.935 60.2041 141.288 59.9776C141.642 59.7542 141.916 59.436 142.114 59.0198C142.313 58.6066 142.41 58.117 142.41 57.5508C142.41 56.9847 142.313 56.495 142.114 56.0819C141.919 55.6688 141.642 55.3444 141.288 55.1148C140.935 54.8853 140.514 54.769 140.03 54.769C139.545 54.769 139.149 54.8853 138.801 55.1148C138.454 55.3444 138.182 55.6657 137.987 56.0819C137.789 56.495 137.692 56.9877 137.692 57.5508C137.692 58.1139 137.789 58.6066 137.987 59.0198C138.182 59.4329 138.457 59.7542 138.801 59.9776C139.149 60.201 139.557 60.3143 140.03 60.3143Z" fill="#1D2638"/>
<path d="M148.242 62.7993V52.3239H151.229L151.327 54.2182L150.915 54.2366C151.074 53.8939 151.272 53.5909 151.516 53.3277C151.757 53.0645 152.034 52.8442 152.342 52.6667C152.65 52.4892 152.97 52.3545 153.305 52.2627C153.64 52.1709 153.976 52.125 154.317 52.125C154.829 52.125 155.293 52.2046 155.713 52.3607C156.134 52.5198 156.5 52.7707 156.814 53.1196C157.128 53.4685 157.377 53.9367 157.56 54.5304L157.07 54.4906L157.228 54.1754C157.399 53.8602 157.618 53.5725 157.887 53.3185C158.155 53.0615 158.453 52.8442 158.78 52.6667C159.106 52.4892 159.447 52.3545 159.801 52.2627C160.154 52.1709 160.496 52.125 160.822 52.125C161.648 52.125 162.334 52.2872 162.885 52.6085C163.434 52.9299 163.852 53.4134 164.132 54.0591C164.413 54.7048 164.556 55.4852 164.556 56.4063V62.7993H161.392V56.6634C161.392 56.2441 161.334 55.8953 161.215 55.6168C161.096 55.3383 160.922 55.1333 160.694 54.9956C160.465 54.8578 160.179 54.7875 159.84 54.7875C159.566 54.7875 159.313 54.8334 159.084 54.9252C158.856 55.017 158.658 55.1425 158.496 55.2985C158.332 55.4577 158.204 55.6413 158.112 55.8494C158.021 56.0605 157.975 56.2962 157.975 56.5594V62.7931H154.811V56.6389C154.811 56.2442 154.753 55.9106 154.634 55.6321C154.515 55.3567 154.338 55.1455 154.104 55.0017C153.869 54.8578 153.592 54.7844 153.278 54.7844C153.003 54.7844 152.75 54.8303 152.522 54.9221C152.293 55.0139 152.095 55.1394 151.933 55.2955C151.769 55.4546 151.641 55.6382 151.549 55.8463C151.458 56.0575 151.412 56.287 151.412 56.5379V62.7931H148.248L148.242 62.7993Z" fill="#1D2638"/>
<path d="M171.018 62.9767C170.141 62.9767 169.357 62.7441 168.671 62.2759C167.983 61.8107 167.437 61.165 167.032 60.3418C166.626 59.5186 166.422 58.5883 166.422 57.5508C166.422 56.5134 166.626 55.5463 167.032 54.7293C167.437 53.9152 167.995 53.2726 168.702 52.8043C169.409 52.3392 170.214 52.1035 171.119 52.1035C171.616 52.1035 172.073 52.177 172.485 52.3208C172.896 52.4647 173.262 52.6666 173.576 52.9237C173.89 53.1808 174.158 53.4776 174.381 53.8112C174.603 54.1478 174.768 54.5059 174.871 54.8853L174.222 54.8058V52.3208H177.346V62.7961H174.164V60.2714L174.871 60.2531C174.768 60.6203 174.597 60.9692 174.359 61.2997C174.125 61.6271 173.835 61.9178 173.494 62.1688C173.152 62.4197 172.774 62.6156 172.354 62.7594C171.933 62.9033 171.488 62.9767 171.018 62.9767ZM171.881 60.3143C172.366 60.3143 172.786 60.2041 173.14 59.9776C173.494 59.7542 173.768 59.436 173.966 59.0198C174.164 58.6066 174.262 58.117 174.262 57.5508C174.262 56.9847 174.164 56.495 173.966 56.0819C173.771 55.6688 173.494 55.3444 173.14 55.1148C172.786 54.8853 172.366 54.769 171.881 54.769C171.396 54.769 171 54.8853 170.653 55.1148C170.305 55.3444 170.034 55.6657 169.839 56.0819C169.641 56.495 169.543 56.9877 169.543 57.5508C169.543 58.1139 169.641 58.6066 169.839 59.0198C170.034 59.4329 170.308 59.7542 170.653 59.9776C171 60.201 171.409 60.3143 171.881 60.3143Z" fill="#1D2638"/>
<path d="M179.703 62.8015V60.9868L185.245 53.8441V54.8907H179.703V52.3262H188.351V54.2205L183.105 61.1459L183.026 60.237H188.527V62.8015H179.706H179.703Z" fill="#1D2638"/>
<path d="M192.673 50.2531C192.085 50.2531 191.621 50.1123 191.289 49.8277C190.954 49.5462 190.789 49.1392 190.789 48.6158C190.789 48.1415 190.96 47.7559 191.301 47.4529C191.643 47.15 192.1 47 192.676 47C193.252 47 193.724 47.1408 194.051 47.4254C194.377 47.7069 194.541 48.1048 194.541 48.6189C194.541 49.133 194.374 49.5003 194.041 49.8032C193.709 50.1062 193.252 50.2562 192.676 50.2562L192.673 50.2531ZM191.1 62.8002V52.3249H194.243V62.8002H191.1Z" fill="#1D2638"/>
<path d="M197.188 62.8V52.3247H200.174L200.271 54.4547L199.643 54.6903C199.787 54.216 200.046 53.7875 200.421 53.3989C200.792 53.0102 201.244 52.6981 201.768 52.4624C202.292 52.2268 202.841 52.1074 203.417 52.1074C204.203 52.1074 204.865 52.2696 205.401 52.591C205.938 52.9123 206.343 53.3928 206.62 54.0324C206.895 54.6689 207.033 55.4493 207.033 56.3704V62.8031H203.868V56.6275C203.868 56.2082 203.81 55.8593 203.691 55.5809C203.572 55.3024 203.392 55.0973 203.152 54.9596C202.908 54.8219 202.612 54.7576 202.259 54.7729C201.984 54.7729 201.728 54.8158 201.49 54.9015C201.256 54.9872 201.053 55.1126 200.882 55.2748C200.711 55.4401 200.577 55.6268 200.479 55.8379C200.382 56.0491 200.332 56.2786 200.332 56.5295V62.8031H197.19L197.188 62.8Z" fill="#1D2638"/>
<path d="M214.438 67.3393C213.588 67.3393 212.738 67.2138 211.893 66.9659C211.049 66.715 210.363 66.3937 209.839 65.9989L210.939 63.7894C211.213 63.973 211.518 64.1352 211.854 64.2729C212.189 64.4106 212.54 64.5208 212.906 64.5973C213.272 64.6768 213.646 64.7166 214.024 64.7166C214.691 64.7166 215.235 64.6187 215.656 64.4198C216.076 64.2209 216.389 63.924 216.596 63.5231C216.807 63.1222 216.91 62.6203 216.91 62.0144V60.2578L217.52 60.3557C217.429 60.7903 217.203 61.1851 216.843 61.5401C216.484 61.895 216.043 62.1797 215.518 62.3969C214.994 62.6142 214.436 62.7213 213.848 62.7213C212.906 62.7213 212.062 62.501 211.324 62.0603C210.584 61.6196 210 61.0076 209.574 60.2272C209.147 59.4468 208.938 58.541 208.938 57.5158C208.938 56.4906 209.147 55.5327 209.564 54.7248C209.982 53.9169 210.562 53.2773 211.294 52.8122C212.028 52.347 212.85 52.1113 213.768 52.1113C214.161 52.1113 214.536 52.1573 214.899 52.2491C215.258 52.3409 215.594 52.4633 215.902 52.6132C216.209 52.7632 216.485 52.9407 216.729 53.1457C216.969 53.3508 217.166 53.5711 217.316 53.8067C217.465 54.0424 217.569 54.2872 217.621 54.5351L216.971 54.6942L217.09 52.3256H220.077V61.9532C220.077 62.807 219.949 63.569 219.693 64.2331C219.437 64.8972 219.066 65.4633 218.576 65.9285C218.085 66.3937 217.49 66.7456 216.798 66.9843C216.103 67.2199 215.316 67.3393 214.438 67.3393ZM214.518 60.2762C215.03 60.2762 215.472 60.1599 215.844 59.9304C216.215 59.7008 216.506 59.3826 216.71 58.9725C216.914 58.5655 217.014 58.085 217.014 57.5311C217.014 56.9772 216.914 56.4967 216.71 56.0805C216.506 55.6674 216.219 55.343 215.844 55.1135C215.472 54.884 215.03 54.7677 214.518 54.7677C214.006 54.7677 213.589 54.884 213.223 55.1135C212.857 55.343 212.57 55.6643 212.369 56.0805C212.164 56.4937 212.064 56.9772 212.064 57.5311C212.064 58.085 212.164 58.5624 212.369 58.9725C212.573 59.3795 212.857 59.7008 213.223 59.9304C213.589 60.1599 214.021 60.2762 214.518 60.2762Z" fill="#1D2638"/>
<path d="M229.102 62.8001V52.3247H232.089L232.226 55.7369L231.638 55.0851C231.796 54.5189 232.052 54.014 232.415 53.5672C232.775 53.1204 233.198 52.7654 233.683 52.5022C234.168 52.239 234.686 52.1074 235.234 52.1074C235.469 52.1074 235.689 52.1258 235.893 52.1656C236.097 52.2054 236.283 52.2513 236.454 52.3033L235.588 55.7951C235.445 55.7033 235.25 55.6268 235.009 55.5686C234.768 55.5105 234.515 55.4799 234.253 55.4799C233.963 55.4799 233.695 55.5288 233.448 55.6268C233.201 55.7247 232.991 55.8655 232.82 56.0521C232.65 56.2358 232.515 56.453 232.418 56.704C232.32 56.9549 232.272 57.2365 232.272 57.5517V62.8001H229.108H229.102Z" fill="#1D2638"/>
<path d="M242.58 62.9998C241.428 62.9998 240.425 62.7672 239.574 62.299C238.724 61.8308 238.062 61.1942 237.59 60.3863C237.118 59.5784 236.883 58.6542 236.883 57.6137C236.883 56.8119 237.014 56.0744 237.276 55.4042C237.538 54.734 237.904 54.1526 238.376 53.6598C238.849 53.1671 239.407 52.7846 240.056 52.5153C240.705 52.246 241.415 52.1113 242.187 52.1113C242.921 52.1113 243.592 52.2429 244.201 52.5061C244.811 52.7693 245.338 53.1365 245.783 53.6109C246.228 54.0852 246.57 54.6422 246.805 55.2879C247.039 55.9336 247.146 56.6375 247.118 57.3995L247.1 58.2472H238.788L238.337 56.4722H244.546L244.211 56.8456V56.4508C244.183 56.1234 244.083 55.8296 243.906 55.5725C243.729 55.3155 243.497 55.1165 243.208 54.9696C242.918 54.8258 242.592 54.7524 242.226 54.7524C241.714 54.7524 241.278 54.8534 240.919 55.0584C240.559 55.2634 240.288 55.5572 240.102 55.9459C239.916 56.3345 239.827 56.8119 239.827 57.375C239.827 57.9381 239.949 58.4584 240.19 58.8837C240.434 59.3122 240.787 59.6427 241.251 59.8814C241.714 60.117 242.269 60.2364 242.912 60.2364C243.357 60.2364 243.753 60.1721 244.101 60.0405C244.448 59.9089 244.823 59.6855 245.232 59.3703L246.704 61.4605C246.299 61.8155 245.866 62.1062 245.408 62.3296C244.948 62.553 244.482 62.7213 244.003 62.8315C243.525 62.9417 243.049 62.9998 242.58 62.9998Z" fill="#1D2638"/>
<path d="M251.204 62.7987L247.766 52.3234H251.085L253.011 59.1294L252.6 59.0499L254.761 53.7617H256.608L258.888 59.0682L258.437 59.108L260.364 52.3203H263.683L260.126 62.7957H257.806L255.548 57.1739L255.782 57.2137L253.524 62.7957H251.204V62.7987Z" fill="#1D2638"/>
<path d="M268.878 62.9767C268 62.9767 267.217 62.7441 266.531 62.2759C265.842 61.8107 265.296 61.165 264.891 60.3418C264.485 59.5186 264.281 58.5883 264.281 57.5508C264.281 56.5134 264.485 55.5463 264.891 54.7293C265.296 53.9152 265.854 53.2726 266.561 52.8043C267.268 52.3392 268.073 52.1035 268.978 52.1035C269.475 52.1035 269.933 52.177 270.344 52.3208C270.756 52.4647 271.121 52.6666 271.435 52.9237C271.749 53.1808 272.017 53.4776 272.24 53.8112C272.462 54.1478 272.627 54.5059 272.731 54.8853L272.081 54.8058V52.3208H275.206V62.7961H272.024V60.2714L272.731 60.2531C272.627 60.6203 272.456 60.9692 272.219 61.2997C271.984 61.6271 271.694 61.9178 271.353 62.1688C271.012 62.4197 270.634 62.6156 270.213 62.7594C269.792 62.9033 269.347 62.9767 268.878 62.9767ZM269.744 60.3143C270.228 60.3143 270.649 60.2041 271.002 59.9776C271.356 59.7542 271.63 59.436 271.828 59.0198C272.027 58.6066 272.124 58.117 272.124 57.5508C272.124 56.9847 272.027 56.495 271.828 56.0819C271.633 55.6688 271.356 55.3444 271.002 55.1148C270.649 54.8853 270.228 54.769 269.744 54.769C269.259 54.769 268.863 54.8853 268.515 55.1148C268.168 55.3444 267.896 55.6657 267.701 56.0819C267.503 56.495 267.406 56.9877 267.406 57.5508C267.406 58.1139 267.503 58.6066 267.701 59.0198C267.896 59.4329 268.171 59.7542 268.515 59.9776C268.863 60.201 269.271 60.3143 269.744 60.3143Z" fill="#1D2638"/>
<path d="M277.969 62.8001V52.3247H280.956L281.093 55.7369L280.505 55.0851C280.663 54.5189 280.919 54.014 281.282 53.5672C281.642 53.1204 282.065 52.7654 282.55 52.5022C283.035 52.239 283.553 52.1074 284.102 52.1074C284.336 52.1074 284.556 52.1258 284.76 52.1656C284.964 52.2054 285.15 52.2513 285.321 52.3033L284.455 55.7951C284.312 55.7033 284.117 55.6268 283.876 55.5686C283.635 55.5105 283.382 55.4799 283.12 55.4799C282.831 55.4799 282.562 55.5288 282.315 55.6268C282.069 55.7247 281.858 55.8655 281.687 56.0521C281.517 56.2358 281.383 56.453 281.285 56.704C281.188 56.9549 281.139 57.2365 281.139 57.5517V62.8001H277.975H277.969Z" fill="#1D2638"/>
<path d="M290.429 63.0162C289.524 63.0162 288.722 62.7837 288.021 62.3154C287.32 61.8472 286.765 61.2046 286.36 60.3813C285.954 59.5581 285.75 58.6217 285.75 57.569C285.75 56.5162 285.954 55.5798 286.36 54.7566C286.765 53.9334 287.323 53.2876 288.03 52.8133C288.737 52.339 289.551 52.1033 290.466 52.1033C290.938 52.1033 291.389 52.1768 291.822 52.3206C292.255 52.4644 292.648 52.6633 293.002 52.9112C293.355 53.1622 293.645 53.4468 293.867 53.7681C294.09 54.0894 294.221 54.423 294.26 54.7657L293.514 54.9432V48.1953H296.678V62.7928H293.748L293.572 60.4058L294.199 60.5038C294.16 60.8312 294.032 61.1495 293.815 61.4494C293.599 61.7493 293.322 62.0186 292.98 62.2481C292.639 62.4776 292.249 62.6613 291.81 62.799C291.371 62.9367 290.907 63.0071 290.426 63.0071L290.429 63.0162ZM291.234 60.3936C291.718 60.3936 292.136 60.2742 292.493 60.0386C292.846 59.803 293.117 59.4724 293.306 59.0532C293.495 58.6309 293.593 58.1382 293.593 57.5751C293.593 57.012 293.498 56.4979 293.306 56.0755C293.117 55.6563 292.846 55.3258 292.493 55.0901C292.139 54.8545 291.718 54.7351 291.234 54.7351C290.749 54.7351 290.331 54.8545 289.987 55.0901C289.639 55.3258 289.368 55.6563 289.173 56.0755C288.975 56.4979 288.877 56.9967 288.877 57.5751C288.877 58.1535 288.975 58.6339 289.173 59.0532C289.371 59.4755 289.642 59.803 289.987 60.0386C290.334 60.2742 290.749 60.3936 291.234 60.3936Z" fill="#1D2638"/>
<path d="M302.846 62.999C301.825 62.999 300.923 62.8337 300.145 62.5063C299.365 62.1788 298.746 61.7381 298.289 61.1842L300.194 59.5256C300.6 59.9326 301.06 60.2325 301.569 60.4222C302.081 60.6119 302.566 60.7099 303.023 60.7099C303.206 60.7099 303.37 60.6915 303.514 60.6517C303.657 60.6119 303.779 60.5569 303.876 60.4834C303.974 60.41 304.05 60.3273 304.102 60.2264C304.154 60.1284 304.181 60.0121 304.181 59.8805C304.181 59.6174 304.062 59.4123 303.828 59.2685C303.709 59.2042 303.514 59.1247 303.239 59.0329C302.965 58.941 302.611 58.837 302.178 58.7176C301.563 58.5585 301.029 58.3718 300.578 58.1545C300.127 57.9373 299.755 57.6833 299.469 57.3956C299.207 57.1202 299.002 56.8141 298.859 56.4775C298.716 56.1409 298.643 55.7645 298.643 55.3422C298.643 54.8556 298.758 54.4149 298.987 54.0201C299.216 53.6253 299.524 53.2826 299.911 52.9949C300.298 52.7073 300.743 52.4839 301.246 52.3339C301.749 52.184 302.27 52.1074 302.806 52.1074C303.383 52.1074 303.934 52.1748 304.458 52.3064C304.983 52.438 305.47 52.6216 305.922 52.8572C306.373 53.0929 306.775 53.3775 307.129 53.7049L305.477 55.5594C305.242 55.336 304.977 55.1341 304.681 54.9566C304.385 54.7791 304.081 54.6383 303.767 54.5312C303.453 54.4271 303.163 54.3721 302.901 54.3721C302.706 54.3721 302.532 54.3874 302.38 54.421C302.23 54.4547 302.102 54.5067 301.996 54.5801C301.892 54.6536 301.813 54.7393 301.761 54.8372C301.709 54.9351 301.682 55.0514 301.682 55.183C301.682 55.3146 301.718 55.4401 301.788 55.5564C301.858 55.6727 301.962 55.7737 302.093 55.8532C302.224 55.9328 302.435 56.0215 302.721 56.1195C303.008 56.2174 303.401 56.3398 303.901 56.4836C304.516 56.655 305.047 56.8447 305.492 57.0559C305.937 57.2671 306.29 57.518 306.553 57.8057C306.763 58.0291 306.918 58.2892 307.025 58.586C307.129 58.8829 307.184 59.2012 307.184 59.5439C307.184 60.2141 306.998 60.8109 306.623 61.3281C306.248 61.8452 305.736 62.2553 305.08 62.5522C304.425 62.849 303.678 62.9959 302.84 62.9959L302.846 62.999Z" fill="#1D2638"/>
<path d="M310.687 63.0171C310.15 63.0171 309.729 62.8671 309.428 62.5642C309.126 62.2612 308.977 61.8266 308.977 61.2635C308.977 60.7372 309.135 60.3087 309.449 59.9813C309.763 59.6538 310.174 59.4886 310.687 59.4886C311.223 59.4886 311.641 59.6447 311.933 59.9507C312.229 60.2598 312.375 60.6974 312.375 61.2635C312.375 61.7777 312.22 62.1969 311.903 62.5274C311.586 62.858 311.183 63.0202 310.684 63.0202L310.687 63.0171ZM309.705 57.7687C309.601 56.9669 309.495 56.1376 309.391 55.2838C309.287 54.43 309.202 53.5792 309.135 52.7376C309.068 51.896 309.038 51.0881 309.038 50.3108V48.7715H312.357V50.3108C312.357 51.1004 312.323 51.9236 312.259 52.7774C312.192 53.6312 312.11 54.485 312.003 55.3327C311.9 56.1804 311.787 56.9945 311.668 57.7687H309.702H309.705Z" fill="#1D2638"/>
<rect x="336" y="22" width="248" height="36" rx="18" fill="#1B1B1B"/>
<path d="M359.588 46.8767C358.927 46.8767 358.316 46.7911 357.755 46.6159C357.191 46.4407 356.685 46.1798 356.226 45.8255C355.767 45.4712 355.358 45.0351 355 44.5134L356.284 43.0339C356.852 43.8437 357.397 44.4083 357.919 44.7198C358.44 45.0312 359.059 45.1909 359.779 45.1909C360.219 45.1909 360.62 45.1208 360.978 44.9806C361.336 44.8405 361.62 44.6497 361.83 44.4083C362.04 44.1669 362.141 43.8866 362.141 43.5751C362.141 43.3649 362.106 43.1702 362.036 42.9833C361.966 42.7964 361.861 42.629 361.713 42.4811C361.569 42.3292 361.382 42.1929 361.157 42.0645C360.931 41.936 360.666 41.8231 360.367 41.7257C360.063 41.6284 359.717 41.5427 359.324 41.4727C358.697 41.3442 358.152 41.1768 357.689 40.9704C357.226 40.7602 356.837 40.4993 356.526 40.1878C356.214 39.8764 355.981 39.5182 355.829 39.1171C355.677 38.7161 355.603 38.2684 355.603 37.77C355.603 37.2717 355.712 36.8317 355.926 36.4151C356.14 35.9985 356.436 35.6364 356.814 35.3288C357.191 35.0213 357.635 34.7838 358.144 34.6164C358.654 34.4489 359.203 34.3633 359.794 34.3633C360.421 34.3633 360.993 34.445 361.515 34.6047C362.036 34.7643 362.499 35.0096 362.904 35.325C363.309 35.6442 363.647 36.0336 363.912 36.4969L362.593 37.8012C362.359 37.4196 362.098 37.0965 361.81 36.8356C361.519 36.5747 361.203 36.3762 360.853 36.2438C360.507 36.1114 360.133 36.0452 359.74 36.0452C359.289 36.0452 358.896 36.1153 358.557 36.2555C358.222 36.3956 357.958 36.5903 357.767 36.8395C357.576 37.0887 357.479 37.3807 357.479 37.7155C357.479 37.9608 357.526 38.1827 357.619 38.3852C357.712 38.5876 357.853 38.7667 358.043 38.9225C358.234 39.0782 358.491 39.2184 358.818 39.3391C359.141 39.4598 359.53 39.5688 359.981 39.6622C360.62 39.8024 361.188 39.9776 361.686 40.1917C362.184 40.4059 362.608 40.6589 362.955 40.947C363.301 41.2352 363.566 41.5622 363.745 41.9204C363.924 42.2786 364.013 42.6679 364.013 43.0845C364.013 43.8632 363.834 44.5329 363.476 45.1013C363.118 45.6698 362.608 46.1058 361.947 46.4134C361.285 46.721 360.499 46.8728 359.584 46.8728L359.588 46.8767Z" fill="#E6E6E6"/>
<path d="M365.469 39.3108V37.5704H371.275V39.3108H365.469ZM367.364 46.7005V35.2422H369.154V46.7005H367.364Z" fill="#E6E6E6"/>
<path d="M376.328 46.8789C375.573 46.8789 374.888 46.6686 374.27 46.252C373.651 45.8354 373.153 45.267 372.783 44.5467C372.413 43.8264 372.227 43.0166 372.227 42.1133C372.227 41.21 372.413 40.3846 372.791 39.6682C373.168 38.9558 373.678 38.3951 374.32 37.9902C374.962 37.5853 375.686 37.3828 376.484 37.3828C376.959 37.3828 377.395 37.4529 377.788 37.5931C378.181 37.7332 378.527 37.9279 378.823 38.1771C379.119 38.4262 379.36 38.7144 379.555 39.0375C379.745 39.3607 379.866 39.7111 379.913 40.0809L379.512 39.9408V37.5775H381.317V46.7075H379.512V44.535L379.928 44.4143C379.858 44.7258 379.718 45.0334 379.504 45.3254C379.29 45.6213 379.017 45.886 378.687 46.1157C378.356 46.3455 377.99 46.5323 377.593 46.6725C377.192 46.8127 376.772 46.8827 376.332 46.8827L376.328 46.8789ZM376.799 45.228C377.344 45.228 377.823 45.0957 378.243 44.827C378.663 44.5584 378.986 44.1924 379.224 43.7213C379.461 43.2502 379.582 42.7168 379.582 42.1133C379.582 41.5098 379.461 40.9959 379.224 40.5326C378.986 40.0693 378.659 39.7033 378.243 39.4385C377.827 39.1738 377.344 39.0375 376.799 39.0375C376.254 39.0375 375.795 39.1699 375.383 39.4385C374.97 39.7072 374.647 40.0693 374.41 40.5326C374.172 40.9959 374.052 41.5254 374.052 42.1133C374.052 42.7012 374.168 43.2541 374.41 43.7213C374.647 44.1924 374.97 44.5584 375.383 44.827C375.795 45.0918 376.266 45.228 376.799 45.228Z" fill="#E6E6E6"/>
<path d="M383.82 46.6998V33.832H385.611V46.6998H383.82ZM385.455 43.8498L385.369 41.9031L389.732 37.5736H392.148L385.455 43.8498ZM389.973 46.6998L386.533 42.6818L387.802 41.5176L392.269 46.6998H389.973Z" fill="#E6E6E6"/>
<path d="M397.568 46.8729C396.63 46.8729 395.797 46.6744 395.073 46.2734C394.349 45.8723 393.781 45.3273 393.369 44.6303C392.956 43.9334 392.75 43.1353 392.75 42.232C392.75 41.5117 392.867 40.8576 393.096 40.2658C393.326 39.674 393.649 39.1601 394.061 38.7279C394.474 38.2919 394.964 37.957 395.54 37.7195C396.112 37.482 396.735 37.3613 397.408 37.3613C398 37.3613 398.549 37.4742 399.058 37.7001C399.568 37.9259 400.012 38.2374 400.389 38.6306C400.767 39.0238 401.055 39.491 401.257 40.0322C401.46 40.5734 401.557 41.1613 401.545 41.7959L401.53 42.559H394.073L393.672 41.134H399.981L399.72 41.4299V41.0134C399.685 40.6318 399.556 40.2892 399.339 39.9894C399.117 39.6896 398.84 39.4521 398.506 39.2769C398.171 39.1017 397.805 39.016 397.412 39.016C396.786 39.016 396.26 39.1367 395.832 39.3742C395.404 39.6117 395.077 39.9582 394.859 40.4177C394.637 40.8771 394.528 41.4416 394.528 42.1113C394.528 42.7498 394.661 43.3027 394.929 43.7738C395.194 44.2449 395.571 44.607 396.058 44.8601C396.544 45.117 397.105 45.2416 397.743 45.2416C398.194 45.2416 398.615 45.1676 399.004 45.0158C399.393 44.8639 399.813 44.5914 400.265 44.1982L401.168 45.4674C400.891 45.7439 400.549 45.9891 400.152 46.1994C399.755 46.4096 399.331 46.5732 398.883 46.6938C398.436 46.8145 398 46.8768 397.572 46.8768L397.568 46.8729Z" fill="#E6E6E6"/>
<path d="M407.082 46.7021L411.721 40.0755L414.103 41.4499L410.503 46.7021H407.078H407.082ZM415.776 46.7021L412.005 41.2435L407.172 34.5312H410.771L414.457 39.9236L419.376 46.706H415.776V46.7021ZM414.733 41.0527L412.371 39.7329L415.776 34.5351H419.201L414.733 41.0566V41.0527Z" fill="#E6E6E6"/>
<path d="M420.898 46.7021V34.5312H426.374C427.148 34.5312 427.853 34.6987 428.487 35.0335C429.118 35.3683 429.616 35.8316 429.974 36.4157C430.332 36.9997 430.511 37.6654 430.511 38.4052C430.511 39.1449 430.332 39.8574 429.974 40.4648C429.616 41.0722 429.122 41.5511 428.495 41.8976C427.868 42.2441 427.164 42.4193 426.374 42.4193H423.716V46.6982H420.898V46.7021ZM423.712 40.165H426.109C426.409 40.165 426.674 40.0988 426.899 39.9665C427.125 39.8341 427.3 39.6433 427.421 39.4019C427.541 39.1566 427.604 38.8802 427.604 38.5687C427.604 38.2572 427.534 37.9808 427.394 37.7433C427.254 37.5058 427.055 37.3228 426.794 37.1943C426.534 37.0659 426.218 37.0036 425.849 37.0036H423.712V40.1689V40.165ZM427.643 46.7021L424.549 41.2085L427.573 40.7724L431.013 46.7021H427.643Z" fill="#E6E6E6"/>
<path d="M433.094 46.7021V34.5312H438.188C439.079 34.5312 439.896 34.6792 440.64 34.9751C441.383 35.271 442.021 35.6915 442.562 36.2366C443.103 36.7816 443.516 37.4241 443.804 38.1677C444.092 38.9113 444.239 39.7251 444.239 40.6206C444.239 41.516 444.095 42.3337 443.804 43.0812C443.516 43.8287 443.099 44.4711 442.562 45.0123C442.025 45.5535 441.383 45.9701 440.64 46.266C439.896 46.5619 439.083 46.7099 438.188 46.7099H433.094V46.7021ZM436.048 44.6853L435.647 44.0935H438.098C438.585 44.0935 439.021 44.0078 439.402 43.8404C439.783 43.673 440.11 43.4394 440.383 43.1357C440.655 42.8359 440.865 42.4699 441.017 42.0417C441.169 41.6134 441.243 41.1384 441.243 40.6167C441.243 40.0949 441.169 39.6199 441.017 39.1917C440.865 38.7634 440.655 38.3974 440.383 38.0976C440.11 37.7978 439.783 37.5603 439.402 37.3929C439.021 37.2255 438.585 37.1398 438.098 37.1398H435.596L436.048 36.5831V44.6853Z" fill="#E6E6E6"/>
<path d="M455.591 46.8729C454.653 46.8729 453.821 46.6744 453.097 46.2734C452.373 45.8723 451.805 45.3273 451.392 44.6303C450.98 43.9334 450.773 43.1353 450.773 42.232C450.773 41.5117 450.89 40.8576 451.12 40.2658C451.349 39.674 451.672 39.1601 452.085 38.7279C452.497 38.2919 452.988 37.957 453.564 37.7195C454.136 37.482 454.758 37.3613 455.432 37.3613C456.023 37.3613 456.572 37.4742 457.082 37.7001C457.592 37.9259 458.035 38.2374 458.413 38.6306C458.79 39.0238 459.078 39.491 459.281 40.0322C459.483 40.5734 459.58 41.1613 459.569 41.7959L459.553 42.559H452.097L451.696 41.134H458.004L457.743 41.4299V41.0134C457.708 40.6318 457.58 40.2892 457.362 39.9894C457.14 39.6896 456.864 39.4521 456.529 39.2769C456.194 39.1017 455.829 39.016 455.436 39.016C454.809 39.016 454.284 39.1367 453.856 39.3742C453.428 39.6117 453.101 39.9582 452.883 40.4177C452.661 40.8771 452.552 41.4416 452.552 42.1113C452.552 42.7498 452.684 43.3027 452.953 43.7738C453.217 44.2449 453.595 44.607 454.081 44.8601C454.568 45.117 455.128 45.2416 455.766 45.2416C456.218 45.2416 456.638 45.1676 457.027 45.0158C457.416 44.8639 457.837 44.5914 458.288 44.1982L459.191 45.4674C458.915 45.7439 458.572 45.9891 458.175 46.1994C457.778 46.4096 457.354 46.5732 456.907 46.6938C456.459 46.8145 456.023 46.8768 455.595 46.8768L455.591 46.8729Z" fill="#E6E6E6"/>
<path d="M465.024 46.8789C464.269 46.8789 463.584 46.6686 462.965 46.252C462.346 45.8354 461.848 45.267 461.478 44.5467C461.109 43.8264 460.922 43.0166 460.922 42.1133C460.922 41.21 461.109 40.3846 461.486 39.6682C461.864 38.9558 462.373 38.3951 463.016 37.9902C463.658 37.5853 464.382 37.3828 465.179 37.3828C465.654 37.3828 466.09 37.4529 466.483 37.5931C466.876 37.7332 467.222 37.9279 467.518 38.1771C467.814 38.4262 468.055 38.7144 468.25 39.0375C468.441 39.3607 468.561 39.7111 468.608 40.0809L468.207 39.9408V37.5775H470.013V46.7075H468.207V44.535L468.623 44.4143C468.553 44.7258 468.413 45.0334 468.199 45.3254C467.985 45.6213 467.713 45.886 467.382 46.1157C467.051 46.3455 466.685 46.5323 466.288 46.6725C465.888 46.8127 465.467 46.8827 465.028 46.8827L465.024 46.8789ZM465.495 45.228C466.039 45.228 466.518 45.0957 466.938 44.827C467.359 44.5584 467.682 44.1924 467.919 43.7213C468.156 43.2502 468.277 42.7168 468.277 42.1133C468.277 41.5098 468.156 40.9959 467.919 40.5326C467.682 40.0693 467.355 39.7033 466.938 39.4385C466.522 39.1738 466.039 39.0375 465.495 39.0375C464.95 39.0375 464.491 39.1699 464.078 39.4385C463.665 39.7072 463.342 40.0693 463.105 40.5326C462.868 40.9959 462.747 41.5254 462.747 42.1133C462.747 42.7012 462.864 43.2541 463.105 43.7213C463.342 44.1924 463.665 44.5584 464.078 44.827C464.491 45.0918 464.961 45.228 465.495 45.228Z" fill="#E6E6E6"/>
<path d="M472.508 46.7036V37.5736H474.313V40.443L474.138 39.7461C474.267 39.3062 474.485 38.9051 474.788 38.5469C475.096 38.1887 475.45 37.9045 475.847 37.6943C476.248 37.484 476.66 37.3828 477.088 37.3828C477.287 37.3828 477.474 37.3984 477.653 37.4334C477.832 37.4685 477.976 37.5074 478.077 37.5541L477.606 39.5008C477.466 39.4424 477.314 39.3918 477.147 39.3529C476.979 39.3139 476.812 39.2906 476.652 39.2906C476.341 39.2906 476.041 39.3529 475.757 39.4736C475.473 39.5943 475.224 39.7656 475.01 39.9797C474.796 40.1939 474.625 40.443 474.496 40.7273C474.368 41.0115 474.306 41.3229 474.306 41.6578V46.6998H472.5L472.508 46.7036Z" fill="#E6E6E6"/>
<path d="M479.523 46.7036V37.5736H481.314V39.4502L481.002 39.6605C481.119 39.2555 481.345 38.8818 481.679 38.5392C482.014 38.1965 482.415 37.9201 482.878 37.706C483.341 37.4918 483.816 37.3828 484.302 37.3828C484.999 37.3828 485.575 37.5191 486.042 37.7916C486.505 38.0642 486.851 38.4769 487.085 39.0336C487.318 39.5904 487.431 40.2912 487.431 41.1361V46.6998H485.641V41.2568C485.641 40.735 485.571 40.3029 485.431 39.9603C485.291 39.6176 485.077 39.3685 484.789 39.2127C484.501 39.057 484.139 38.9908 483.711 39.0141C483.365 39.0141 483.045 39.0687 482.754 39.1777C482.462 39.2867 482.213 39.4424 481.999 39.6371C481.785 39.8357 481.617 40.0615 481.497 40.3223C481.376 40.5832 481.314 40.8635 481.314 41.1672V46.6959H479.523V46.7036Z" fill="#E6E6E6"/>
<path d="M499.036 46.8761C497.899 46.8761 496.919 46.7009 496.09 46.3466C495.261 45.9923 494.552 45.4823 493.961 44.8087L495.35 42.5467C496 43.2202 496.631 43.6952 497.245 43.9716C497.86 44.2481 498.502 44.3882 499.176 44.3882C499.487 44.3882 499.771 44.3493 500.028 44.2675C500.281 44.1858 500.479 44.069 500.62 43.9093C500.76 43.7536 500.83 43.5589 500.83 43.3253C500.83 43.1501 500.787 42.9944 500.701 42.8542C500.616 42.7141 500.495 42.5934 500.343 42.4883C500.191 42.3831 500.012 42.2897 499.806 42.2001C499.596 42.1145 499.378 42.0366 499.145 41.9743C498.911 41.912 498.674 41.8575 498.432 41.8108C497.53 41.6122 496.782 41.3475 496.199 41.0127C495.615 40.6778 495.175 40.2573 494.887 39.7512C494.599 39.245 494.451 38.6532 494.451 37.968C494.451 37.4229 494.576 36.9207 494.825 36.4651C495.074 36.0057 495.409 35.6125 495.833 35.2815C496.257 34.9506 496.743 34.6975 497.3 34.5184C497.856 34.3393 498.436 34.2498 499.04 34.2498C500.024 34.2498 500.904 34.4016 501.682 34.7014C502.456 35.0012 503.153 35.4723 503.768 36.1108L502.515 38.1627C502.052 37.6877 501.53 37.3334 500.95 37.1037C500.37 36.8701 499.763 36.7571 499.125 36.7571C498.779 36.7571 498.479 36.8 498.23 36.8856C497.981 36.9713 497.786 37.0959 497.646 37.2516C497.506 37.4073 497.436 37.5981 497.436 37.8162C497.436 38.0147 497.495 38.1821 497.611 38.3184C497.728 38.4586 497.884 38.5832 498.082 38.6922C498.281 38.8012 498.506 38.8946 498.759 38.9686C499.016 39.0426 499.281 39.1049 499.557 39.1516C500.195 39.2801 500.771 39.4475 501.285 39.6577C501.799 39.868 502.246 40.1211 502.624 40.4209C503.001 40.7206 503.289 41.0788 503.492 41.4915C503.694 41.9042 503.795 42.3831 503.795 42.9243C503.795 43.7692 503.589 44.4856 503.18 45.0735C502.768 45.6575 502.207 46.1052 501.495 46.4128C500.783 46.7204 499.962 46.8722 499.036 46.8722V46.8761ZM497.997 48.2856L498.187 40.1989L499.596 40.7713L499.787 48.2817H497.997V48.2856ZM500.028 40.7907L498.619 40.2184L498.429 33H500.219L500.028 40.7907Z" fill="#E6E6E6"/>
<path d="M506.039 46.7021V34.5312H511.133C512.024 34.5312 512.842 34.6792 513.585 34.9751C514.328 35.271 514.966 35.6915 515.507 36.2366C516.048 36.7816 516.461 37.4241 516.749 38.1677C517.037 38.9113 517.185 39.7251 517.185 40.6206C517.185 41.516 517.041 42.3337 516.749 43.0812C516.461 43.8287 516.044 44.4711 515.507 45.0123C514.97 45.5535 514.328 45.9701 513.585 46.266C512.842 46.5619 512.028 46.7099 511.133 46.7099H506.039V46.7021ZM508.993 44.6853L508.592 44.0935H511.044C511.53 44.0935 511.966 44.0078 512.347 43.8404C512.729 43.673 513.056 43.4394 513.328 43.1357C513.601 42.8359 513.811 42.4699 513.962 42.0417C514.114 41.6134 514.188 41.1384 514.188 40.6167C514.188 40.0949 514.114 39.6199 513.962 39.1917C513.811 38.7634 513.601 38.3974 513.328 38.0976C513.056 37.7978 512.729 37.5603 512.347 37.3929C511.966 37.2255 511.53 37.1398 511.044 37.1398H508.541L508.993 36.5831V44.6853Z" fill="#E6E6E6"/>
<path d="M519.449 46.7021V34.5312H527.929V37.0542H522.313V44.183H528.1V46.706H519.445L519.449 46.7021ZM520.839 41.7146V39.3163H527.147V41.7146H520.839Z" fill="#E6E6E6"/>
<path d="M529.113 46.7021L533.752 40.0755L536.134 41.4499L532.534 46.7021H529.109H529.113ZM537.803 46.7021L534.032 41.2435L529.199 34.5312H532.799L536.484 39.9236L541.403 46.706H537.803V46.7021ZM536.76 41.0527L534.398 39.7329L537.803 34.5351H541.228L536.76 41.0566V41.0527Z" fill="#E6E6E6"/>
<path d="M545.561 46.7021V37.1398H541.945V34.5312H552.219V37.1398H548.518V46.7021H545.565H545.561Z" fill="#E6E6E6"/>
<path d="M554.289 46.7021V34.5312H559.765C560.539 34.5312 561.243 34.6987 561.878 35.0335C562.508 35.3683 563.006 35.8316 563.364 36.4157C563.722 36.9997 563.901 37.6654 563.901 38.4052C563.901 39.1449 563.722 39.8574 563.364 40.4648C563.006 41.0722 562.512 41.5511 561.886 41.8976C561.259 42.2441 560.555 42.4193 559.765 42.4193H557.107V46.6982H554.289V46.7021ZM557.103 40.165H559.5C559.8 40.165 560.064 40.0988 560.29 39.9665C560.516 39.8341 560.691 39.6433 560.811 39.4019C560.932 39.1566 560.994 38.8802 560.994 38.5687C560.994 38.2572 560.924 37.9808 560.784 37.7433C560.644 37.5058 560.446 37.3228 560.185 37.1943C559.924 37.0659 559.609 37.0036 559.239 37.0036H557.103V40.1689V40.165ZM561.033 46.7021L557.939 41.2085L560.963 40.7724L564.403 46.7021H561.033Z" fill="#E6E6E6"/>
</svg>
