<svg width="600" height="200" viewBox="0 0 600 200" fill="none" xmlns="http://www.w3.org/2000/svg">
<rect x="123" y="130" width="354" height="43.8843" rx="21.9421" fill="#1B1B1B"/>
<path d="M153.118 160.537C152.15 160.537 151.256 160.412 150.437 160.156C149.611 159.899 148.871 159.518 148.199 158.999C147.528 158.481 146.93 157.843 146.406 157.08L148.285 154.916C149.116 156.101 149.913 156.926 150.676 157.382C151.439 157.838 152.344 158.071 153.397 158.071C154.04 158.071 154.627 157.969 155.15 157.764C155.674 157.559 156.09 157.279 156.397 156.926C156.704 156.573 156.852 156.163 156.852 155.708C156.852 155.4 156.801 155.115 156.699 154.842C156.596 154.569 156.443 154.324 156.226 154.107C156.016 153.885 155.742 153.686 155.412 153.498C155.082 153.31 154.695 153.145 154.257 153.002C153.813 152.86 153.306 152.735 152.731 152.632C151.814 152.444 151.017 152.199 150.34 151.897C149.663 151.59 149.093 151.208 148.638 150.753C148.182 150.297 147.841 149.773 147.619 149.186C147.397 148.6 147.289 147.945 147.289 147.216C147.289 146.487 147.448 145.843 147.761 145.234C148.074 144.624 148.507 144.095 149.059 143.645C149.611 143.195 150.26 142.848 151.006 142.603C151.752 142.358 152.554 142.232 153.42 142.232C154.336 142.232 155.173 142.352 155.936 142.586C156.699 142.819 157.376 143.178 157.968 143.639C158.56 144.106 159.056 144.676 159.443 145.353L157.513 147.261C157.171 146.703 156.79 146.231 156.369 145.849C155.942 145.467 155.481 145.177 154.968 144.983C154.462 144.79 153.915 144.693 153.34 144.693C152.68 144.693 152.105 144.795 151.609 145C151.12 145.205 150.733 145.49 150.454 145.855C150.175 146.219 150.033 146.646 150.033 147.136C150.033 147.495 150.101 147.82 150.237 148.116C150.374 148.412 150.579 148.674 150.858 148.902C151.137 149.129 151.513 149.334 151.991 149.511C152.463 149.688 153.033 149.847 153.693 149.984C154.627 150.189 155.458 150.445 156.186 150.758C156.915 151.072 157.536 151.442 158.042 151.863C158.549 152.285 158.936 152.763 159.198 153.287C159.46 153.811 159.591 154.381 159.591 154.99C159.591 156.129 159.329 157.109 158.805 157.94C158.281 158.772 157.536 159.41 156.568 159.859C155.6 160.309 154.45 160.532 153.112 160.532L153.118 160.537Z" fill="#E6E6E6"/>
<path d="M161.727 149.471V146.925H170.22V149.471H161.727ZM164.499 160.281V143.52H167.118V160.281H164.499Z" fill="#E6E6E6"/>
<path d="M177.602 160.541C176.497 160.541 175.495 160.234 174.59 159.624C173.685 159.015 172.956 158.183 172.416 157.13C171.875 156.076 171.602 154.892 171.602 153.57C171.602 152.249 171.875 151.041 172.427 149.994C172.979 148.951 173.725 148.131 174.664 147.539C175.604 146.947 176.662 146.65 177.829 146.65C178.524 146.65 179.161 146.753 179.736 146.958C180.311 147.163 180.818 147.448 181.251 147.812C181.683 148.177 182.036 148.598 182.321 149.071C182.6 149.544 182.776 150.056 182.845 150.597L182.258 150.392V146.935H184.9V160.291H182.258V157.113L182.867 156.936C182.765 157.392 182.56 157.842 182.247 158.269C181.934 158.702 181.535 159.089 181.052 159.425C180.568 159.761 180.032 160.034 179.452 160.239C178.865 160.444 178.251 160.547 177.607 160.547L177.602 160.541ZM178.291 158.126C179.088 158.126 179.788 157.933 180.403 157.54C181.017 157.147 181.49 156.612 181.837 155.922C182.184 155.233 182.361 154.453 182.361 153.57C182.361 152.687 182.184 151.936 181.837 151.258C181.49 150.58 181.012 150.045 180.403 149.658C179.793 149.27 179.088 149.071 178.291 149.071C177.494 149.071 176.822 149.265 176.218 149.658C175.615 150.051 175.142 150.58 174.795 151.258C174.448 151.936 174.271 152.71 174.271 153.57C174.271 154.43 174.442 155.239 174.795 155.922C175.142 156.612 175.615 157.147 176.218 157.54C176.822 157.927 177.511 158.126 178.291 158.126Z" fill="#E6E6E6"/>
<path d="M188.57 160.278V141.455H191.189V160.278H188.57ZM190.961 156.109L190.836 153.261L197.218 146.928H200.753L190.961 156.109ZM197.571 160.278L192.538 154.401L194.394 152.698L200.929 160.278H197.571Z" fill="#E6E6E6"/>
<path d="M208.68 160.531C207.308 160.531 206.09 160.24 205.031 159.654C203.973 159.067 203.141 158.27 202.538 157.25C201.935 156.231 201.633 155.063 201.633 153.742C201.633 152.688 201.804 151.732 202.139 150.866C202.475 150 202.948 149.248 203.551 148.616C204.155 147.978 204.872 147.489 205.715 147.141C206.551 146.794 207.462 146.617 208.447 146.617C209.312 146.617 210.115 146.782 210.861 147.113C211.606 147.443 212.255 147.899 212.808 148.474C213.36 149.049 213.781 149.733 214.077 150.524C214.373 151.316 214.515 152.176 214.498 153.104L214.476 154.22H203.568L202.982 152.136H212.21L211.829 152.569V151.959C211.777 151.401 211.589 150.9 211.271 150.462C210.946 150.023 210.542 149.676 210.052 149.419C209.563 149.163 209.028 149.038 208.453 149.038C207.536 149.038 206.768 149.214 206.141 149.562C205.515 149.909 205.037 150.416 204.718 151.088C204.394 151.76 204.234 152.586 204.234 153.565C204.234 154.5 204.428 155.308 204.821 155.997C205.208 156.687 205.76 157.216 206.472 157.586C207.183 157.962 208.003 158.145 208.937 158.145C209.597 158.145 210.212 158.036 210.781 157.814C211.35 157.592 211.965 157.193 212.625 156.618L213.946 158.475C213.542 158.879 213.041 159.238 212.46 159.546C211.88 159.853 211.259 160.092 210.605 160.269C209.95 160.445 209.312 160.537 208.686 160.537L208.68 160.531Z" fill="#E6E6E6"/>
<path d="M222.592 160.282L229.377 150.589L232.861 152.599L227.596 160.282H222.586H222.592ZM235.309 160.282L229.793 152.297L222.723 142.479H227.988L233.379 150.367L240.575 160.288H235.309V160.282ZM233.784 152.018L230.328 150.087L235.309 142.484H240.319L233.784 152.024V152.018Z" fill="#E6E6E6"/>
<path d="M242.805 160.282V142.479H250.814C251.947 142.479 252.978 142.723 253.906 143.213C254.828 143.703 255.556 144.381 256.08 145.235C256.604 146.089 256.866 147.063 256.866 148.145C256.866 149.227 256.604 150.27 256.08 151.158C255.556 152.047 254.833 152.747 253.917 153.254C253 153.761 251.97 154.017 250.814 154.017H246.926V160.276H242.805V160.282ZM246.921 150.72H250.427C250.866 150.72 251.253 150.623 251.583 150.429C251.913 150.236 252.169 149.956 252.346 149.603C252.522 149.245 252.613 148.84 252.613 148.385C252.613 147.929 252.511 147.525 252.306 147.177C252.101 146.83 251.811 146.562 251.429 146.374C251.048 146.186 250.587 146.095 250.046 146.095H246.921V150.725V150.72ZM252.67 160.282L248.144 152.246L252.568 151.608L257.6 160.282H252.67Z" fill="#E6E6E6"/>
<path d="M260.641 160.282V142.479H268.092C269.396 142.479 270.591 142.695 271.679 143.128C272.766 143.561 273.7 144.176 274.491 144.973C275.282 145.77 275.886 146.71 276.307 147.798C276.728 148.886 276.945 150.076 276.945 151.386C276.945 152.696 276.734 153.892 276.307 154.985C275.886 156.079 275.277 157.019 274.491 157.81C273.705 158.602 272.766 159.211 271.679 159.644C270.591 160.077 269.402 160.294 268.092 160.294H260.641V160.282ZM264.961 157.332L264.375 156.466H267.961C268.673 156.466 269.311 156.341 269.869 156.096C270.426 155.851 270.905 155.509 271.303 155.065C271.702 154.627 272.009 154.091 272.231 153.465C272.453 152.838 272.561 152.143 272.561 151.38C272.561 150.617 272.453 149.922 272.231 149.296C272.009 148.669 271.702 148.134 271.303 147.695C270.905 147.257 270.426 146.909 269.869 146.665C269.311 146.42 268.673 146.294 267.961 146.294H264.301L264.961 145.48V157.332Z" fill="#E6E6E6"/>
<path d="M293.548 160.531C292.176 160.531 290.957 160.24 289.899 159.654C288.84 159.067 288.009 158.27 287.405 157.25C286.802 156.231 286.5 155.063 286.5 153.742C286.5 152.688 286.671 151.732 287.007 150.866C287.342 150 287.815 149.248 288.418 148.616C289.022 147.978 289.739 147.489 290.582 147.141C291.418 146.794 292.329 146.617 293.314 146.617C294.18 146.617 294.982 146.782 295.728 147.113C296.474 147.443 297.123 147.899 297.675 148.474C298.227 149.049 298.648 149.733 298.944 150.524C299.24 151.316 299.383 152.176 299.366 153.104L299.343 154.22H288.435L287.849 152.136H297.077L296.696 152.569V151.959C296.644 151.401 296.457 150.9 296.138 150.462C295.813 150.023 295.409 149.676 294.92 149.419C294.43 149.163 293.895 149.038 293.32 149.038C292.403 149.038 291.635 149.214 291.009 149.562C290.382 149.909 289.904 150.416 289.585 151.088C289.261 151.76 289.102 152.586 289.102 153.565C289.102 154.5 289.295 155.308 289.688 155.997C290.075 156.687 290.627 157.216 291.339 157.586C292.05 157.962 292.87 158.145 293.804 158.145C294.464 158.145 295.079 158.036 295.648 157.814C296.217 157.592 296.832 157.193 297.493 156.618L298.813 158.475C298.409 158.879 297.908 159.238 297.328 159.546C296.747 159.853 296.126 160.092 295.472 160.269C294.817 160.445 294.179 160.537 293.553 160.537L293.548 160.531Z" fill="#E6E6E6"/>
<path d="M307.344 160.541C306.239 160.541 305.238 160.234 304.332 159.624C303.427 159.015 302.699 158.183 302.158 157.13C301.617 156.076 301.344 154.892 301.344 153.57C301.344 152.249 301.617 151.041 302.169 149.994C302.721 148.951 303.467 148.131 304.406 147.539C305.346 146.947 306.405 146.65 307.572 146.65C308.266 146.65 308.904 146.753 309.479 146.958C310.054 147.163 310.56 147.448 310.993 147.812C311.426 148.177 311.779 148.598 312.063 149.071C312.342 149.544 312.519 150.056 312.587 150.597L312.001 150.392V146.935H314.642V160.291H312.001V157.113L312.61 156.936C312.507 157.392 312.302 157.842 311.989 158.269C311.676 158.702 311.278 159.089 310.794 159.425C310.31 159.761 309.775 160.034 309.194 160.239C308.608 160.444 307.993 160.547 307.35 160.547L307.344 160.541ZM308.033 158.126C308.83 158.126 309.53 157.933 310.145 157.54C310.76 157.147 311.232 156.612 311.579 155.922C311.927 155.233 312.103 154.453 312.103 153.57C312.103 152.687 311.927 151.936 311.579 151.258C311.232 150.58 310.754 150.045 310.145 149.658C309.536 149.27 308.83 149.071 308.033 149.071C307.236 149.071 306.564 149.265 305.961 149.658C305.357 150.051 304.885 150.58 304.537 151.258C304.19 151.936 304.014 152.71 304.014 153.57C304.014 154.43 304.184 155.239 304.537 155.922C304.885 156.612 305.357 157.147 305.961 157.54C306.564 157.927 307.253 158.126 308.033 158.126Z" fill="#E6E6E6"/>
<path d="M318.293 160.285V146.929H320.934V151.127L320.678 150.107C320.866 149.464 321.185 148.877 321.629 148.353C322.078 147.829 322.596 147.414 323.177 147.106C323.763 146.798 324.367 146.65 324.993 146.65C325.283 146.65 325.557 146.673 325.818 146.724C326.08 146.776 326.291 146.833 326.439 146.901L325.75 149.749C325.545 149.663 325.323 149.589 325.078 149.532C324.834 149.475 324.589 149.441 324.355 149.441C323.9 149.441 323.462 149.532 323.046 149.709C322.631 149.885 322.266 150.136 321.953 150.449C321.64 150.762 321.389 151.127 321.202 151.543C321.014 151.958 320.923 152.414 320.923 152.904V160.279H318.281L318.293 160.285Z" fill="#E6E6E6"/>
<path d="M328.562 160.285V146.929H331.181V149.675L330.726 149.982C330.897 149.39 331.227 148.843 331.716 148.342C332.206 147.841 332.792 147.436 333.47 147.123C334.147 146.81 334.842 146.65 335.553 146.65C336.572 146.65 337.415 146.85 338.098 147.248C338.775 147.647 339.282 148.251 339.624 149.065C339.965 149.88 340.13 150.905 340.13 152.141V160.279H337.512V152.317C337.512 151.554 337.409 150.922 337.204 150.421C336.999 149.92 336.686 149.555 336.265 149.327C335.844 149.099 335.314 149.003 334.688 149.037C334.181 149.037 333.714 149.116 333.288 149.276C332.861 149.435 332.496 149.663 332.183 149.948C331.87 150.238 331.625 150.569 331.449 150.95C331.272 151.332 331.181 151.742 331.181 152.186V160.274H328.562V160.285Z" fill="#E6E6E6"/>
<path d="M357.103 160.536C355.441 160.536 354.006 160.28 352.794 159.762C351.581 159.244 350.545 158.498 349.68 157.512L351.712 154.203C352.663 155.189 353.585 155.883 354.484 156.288C355.384 156.692 356.323 156.897 357.308 156.897C357.763 156.897 358.179 156.84 358.555 156.721C358.925 156.601 359.215 156.43 359.42 156.197C359.625 155.969 359.727 155.684 359.727 155.342C359.727 155.086 359.665 154.858 359.539 154.653C359.414 154.448 359.238 154.272 359.016 154.118C358.794 153.964 358.532 153.827 358.23 153.696C357.923 153.571 357.604 153.457 357.262 153.366C356.921 153.275 356.574 153.195 356.221 153.127C354.9 152.836 353.807 152.449 352.953 151.959C352.099 151.469 351.456 150.854 351.035 150.114C350.613 149.374 350.397 148.508 350.397 147.506C350.397 146.708 350.579 145.973 350.943 145.307C351.308 144.635 351.797 144.06 352.418 143.576C353.038 143.092 353.75 142.721 354.564 142.459C355.378 142.197 356.226 142.066 357.109 142.066C358.549 142.066 359.836 142.289 360.974 142.727C362.107 143.166 363.126 143.855 364.025 144.789L362.192 147.79C361.515 147.095 360.752 146.577 359.904 146.241C359.056 145.899 358.168 145.734 357.234 145.734C356.727 145.734 356.289 145.797 355.925 145.922C355.56 146.048 355.276 146.23 355.071 146.458C354.866 146.685 354.763 146.964 354.763 147.283C354.763 147.574 354.849 147.819 355.019 148.018C355.19 148.223 355.418 148.405 355.708 148.565C355.999 148.724 356.329 148.861 356.699 148.969C357.075 149.077 357.462 149.169 357.866 149.237C358.799 149.425 359.642 149.67 360.393 149.977C361.145 150.285 361.8 150.655 362.352 151.094C362.904 151.532 363.325 152.056 363.621 152.66C363.917 153.263 364.065 153.964 364.065 154.756C364.065 155.992 363.764 157.039 363.166 157.899C362.562 158.754 361.743 159.409 360.701 159.859C359.659 160.309 358.458 160.531 357.103 160.531V160.536ZM355.583 162.598L355.862 150.769L357.923 151.606L358.202 162.592H355.583V162.598ZM358.555 151.635L356.494 150.797L356.215 140.238H358.834L358.555 151.635Z" fill="#E6E6E6"/>
<path d="M367.344 160.282V142.479H374.795C376.099 142.479 377.295 142.695 378.382 143.128C379.469 143.561 380.403 144.176 381.194 144.973C381.985 145.77 382.589 146.71 383.01 147.798C383.431 148.886 383.648 150.076 383.648 151.386C383.648 152.696 383.437 153.892 383.01 154.985C382.589 156.079 381.98 157.019 381.194 157.81C380.409 158.602 379.469 159.211 378.382 159.644C377.295 160.077 376.105 160.294 374.795 160.294H367.344V160.282ZM371.664 157.332L371.078 156.466H374.665C375.376 156.466 376.014 156.341 376.572 156.096C377.13 155.851 377.608 155.509 378.006 155.065C378.405 154.627 378.712 154.091 378.934 153.465C379.156 152.838 379.264 152.143 379.264 151.38C379.264 150.617 379.156 149.922 378.934 149.296C378.712 148.669 378.405 148.134 378.006 147.695C377.608 147.257 377.13 146.909 376.572 146.665C376.014 146.42 375.376 146.294 374.665 146.294H371.004L371.664 145.48V157.332Z" fill="#E6E6E6"/>
<path d="M386.959 160.282V142.479H399.363V146.169H391.149V156.597H399.614V160.288H386.953L386.959 160.282ZM388.991 152.986V149.478H398.219V152.986H388.991Z" fill="#E6E6E6"/>
<path d="M401.099 160.282L407.885 150.589L411.369 152.599L406.103 160.282H401.094H401.099ZM413.811 160.282L408.295 152.297L401.225 142.479H406.49L411.881 150.367L419.077 160.288H413.811V160.282ZM412.286 152.018L408.83 150.087L413.811 142.484H418.821L412.286 152.024V152.018Z" fill="#E6E6E6"/>
<path d="M425.156 160.282V146.294H419.867V142.479H434.896V146.294H429.482V160.282H425.161H425.156Z" fill="#E6E6E6"/>
<path d="M437.93 160.282V142.479H445.939C447.072 142.479 448.103 142.723 449.031 143.213C449.953 143.703 450.681 144.381 451.205 145.235C451.729 146.089 451.991 147.063 451.991 148.145C451.991 149.227 451.729 150.27 451.205 151.158C450.681 152.047 449.958 152.747 449.042 153.254C448.125 153.761 447.095 154.017 445.939 154.017H442.051V160.276H437.93V160.282ZM442.046 150.72H445.552C445.991 150.72 446.378 150.623 446.708 150.429C447.038 150.236 447.294 149.956 447.471 149.603C447.647 149.245 447.738 148.84 447.738 148.385C447.738 147.929 447.636 147.525 447.431 147.177C447.226 146.83 446.936 146.562 446.554 146.374C446.173 146.186 445.712 146.095 445.171 146.095H442.046V150.725V150.72ZM447.795 160.282L443.269 152.246L447.693 151.608L452.725 160.282H447.795Z" fill="#E6E6E6"/>
<path d="M295.824 75.241C293.289 71.7 290.803 68.2272 288.243 64.6472C294.288 60.2965 300.275 55.9848 306.394 51.5805C299.866 46.903 293.46 42.3084 286.922 37.6261C289.442 34.0899 291.929 30.5976 294.479 27.0176C305.901 35.1971 317.236 43.3181 328.742 51.561C317.729 59.4868 306.828 67.3298 295.829 75.2459L295.824 75.241Z" fill="#1D2638"/>
<path d="M361.555 39.5298C363.739 39.5298 365.845 39.5055 367.951 39.5396C369.945 39.5689 371.954 39.3445 373.933 39.7835C378.984 40.9102 382.348 44.9975 382.582 50.2847C382.66 52.1039 382.508 53.894 381.928 55.6304C380.451 60.0591 376.522 62.9563 371.856 63.0051C368.687 63.0392 365.518 63.0197 362.354 63.0197C362.11 63.0197 361.867 62.9856 361.56 62.9612V39.5298H361.555ZM366.742 58.3959C368.541 58.3617 370.228 58.5276 371.91 58.2886C374.664 57.8984 376.478 56.2498 377.107 53.6013C377.365 52.5088 377.419 51.3967 377.311 50.2895C377.077 47.8118 376.093 45.7681 373.689 44.7292C371.466 43.7684 369.116 44.2561 366.742 44.1732V58.4007V58.3959Z" fill="#1D2638"/>
<path d="M529.868 63.0086C528.279 60.1943 526.738 57.4629 525.183 54.7071H521.668V62.9549H516.695V39.665C517.022 39.4504 517.363 39.5333 517.685 39.5333C520.795 39.5285 523.911 39.5236 527.021 39.5333C530.673 39.5382 533.647 41.6745 534.568 44.9424C535.523 48.3469 534.178 51.6685 531.058 53.6146C530.921 53.6975 530.794 53.7999 530.604 53.9414C532.33 56.9312 534.046 59.9016 535.84 63.0086H529.873H529.868ZM521.712 50.4003C523.447 50.4003 525.105 50.4101 526.763 50.4003C528.254 50.3857 529.303 49.5516 529.6 48.1908C529.971 46.4788 529.42 45.0205 528.035 44.4352C525.987 43.5768 523.842 44.123 521.712 43.9913V50.4052V50.4003Z" fill="#1D2638"/>
<path d="M331.919 48.7193C328.404 46.1879 324.962 43.7053 321.359 41.1105C327.921 36.3891 334.381 31.7409 340.968 27C343.493 30.5313 345.989 34.0138 348.549 37.5938C342.976 41.3202 337.487 44.993 331.919 48.7193Z" fill="#1D2638"/>
<path d="M331.92 54.4258C337.093 57.9473 342.226 61.4445 347.458 65.005C344.942 68.5509 342.475 72.0237 339.916 75.6281C333.753 71.2286 327.645 66.8731 321.375 62.4004C324.939 59.7032 328.395 57.0889 331.915 54.4258H331.92Z" fill="#1D2638"/>
<path d="M400.661 58.4491H411.635C411.752 60.0147 411.747 61.4682 411.645 62.9705H395.586V39.6172H411.357V44.0849H400.651V48.7575H409.783C409.929 50.3086 409.885 51.7035 409.817 53.2497H400.656V58.4442L400.661 58.4491Z" fill="#1D2638"/>
<path d="M486.817 39.5781H502.603V44.041H491.912V48.7721H501.029V53.2643H491.888V58.4295H502.872C502.979 60.0244 502.984 61.473 502.872 62.9655H486.812V39.5781H486.817Z" fill="#1D2638"/>
<path d="M428.528 62.9773H422.531C425.383 58.8997 428.138 54.9636 430.917 50.9885C428.201 47.2084 425.515 43.4723 422.731 39.6045H429.064C430.722 42.0286 432.438 44.5356 434.246 47.1743C435.977 44.5405 437.615 42.0432 439.229 39.5898H445.221C442.486 43.5894 439.843 47.4523 437.167 51.364C439.941 55.188 442.69 58.9875 445.542 62.9236H439.214C437.503 60.4556 435.724 57.8803 433.866 55.1977C432.053 57.8413 430.302 60.3971 428.533 62.9773H428.528Z" fill="#1D2638"/>
<path d="M462.097 44.16H455.32V39.6094H474.188V44.1503H467.289V62.9627H462.097V44.1649V44.16Z" fill="#1D2638"/>
<path d="M76.3935 64.1783C74.7213 64.1783 73.1856 63.9637 71.7864 63.5394C70.3872 63.115 69.1245 62.4761 68.0032 61.6274C66.877 60.7787 65.8775 59.7496 65 58.54L68.4956 54.5892C69.8411 56.4573 71.1575 57.745 72.4445 58.4571C73.7316 59.1692 75.1844 59.5252 76.8079 59.5252C77.739 59.5252 78.5922 59.3789 79.3576 59.0911C80.123 58.8034 80.7276 58.4034 81.1663 57.8962C81.6051 57.3889 81.8245 56.8036 81.8245 56.1451C81.8245 55.6769 81.7367 55.2477 81.5564 54.8477C81.376 54.4478 81.1078 54.0917 80.7519 53.7796C80.396 53.4625 79.9573 53.1699 79.4356 52.8968C78.914 52.6236 78.3241 52.3895 77.6659 52.1944C77.0077 52.0042 76.2813 51.8237 75.4867 51.6579C73.9802 51.3555 72.659 50.9507 71.5377 50.4434C70.4115 49.9361 69.4657 49.3069 68.7003 48.5509C67.93 47.7949 67.3694 46.9463 67.0135 46C66.6576 45.0538 66.4772 43.9759 66.4772 42.7712C66.4772 41.5664 66.7454 40.4544 67.2816 39.435C67.8179 38.4205 68.5492 37.5425 69.4852 36.8011C70.4164 36.0598 71.5036 35.4842 72.737 35.0745C73.9705 34.6648 75.3014 34.4551 76.7299 34.4551C78.3484 34.4551 79.7964 34.6453 81.0688 35.0306C82.3462 35.4159 83.4675 35.9866 84.4425 36.7377C85.4176 37.4937 86.2171 38.4058 86.8509 39.474L83.3114 42.9711C82.7605 42.1225 82.1463 41.4152 81.4589 40.8494C80.7714 40.2885 80.0304 39.8593 79.2357 39.5715C78.4411 39.2838 77.6025 39.1374 76.725 39.1374C75.7353 39.1374 74.8773 39.274 74.1509 39.5471C73.4244 39.8203 72.854 40.2105 72.4445 40.7226C72.035 41.2299 71.8254 41.8396 71.8254 42.5565C71.8254 43.1077 71.9472 43.5906 72.1959 44.0198C72.4445 44.4441 72.7907 44.8246 73.2441 45.1513C73.6974 45.4781 74.2776 45.7708 74.9943 46.0147C75.7061 46.2634 76.5153 46.4829 77.4221 46.6731C78.9286 46.9755 80.2888 47.3803 81.4978 47.8876C82.7069 48.3949 83.7307 48.9997 84.5839 49.6971C85.4322 50.3946 86.0806 51.1945 86.5194 52.0822C86.9581 52.9748 87.1775 53.9698 87.1775 55.0672C87.1775 56.9597 86.729 58.5888 85.8417 59.9447C84.9495 61.3055 83.6966 62.3444 82.078 63.076C80.4594 63.8028 78.5678 64.1686 76.3983 64.1686L76.3935 64.1783Z" fill="#1D2638"/>
<path d="M90.2344 46.7652V42.073H104.304V46.7652H90.2344ZM94.5148 63.768V36.5566H99.5753V63.768H94.5148Z" fill="#1D2638"/>
<path d="M116.129 64.1774C114.344 64.1774 112.726 63.6848 111.273 62.6946C109.82 61.7045 108.655 60.3632 107.777 58.661C106.9 56.9588 106.461 55.0224 106.461 52.8568C106.461 50.6912 106.9 48.7549 107.777 47.0526C108.655 45.3504 109.849 44.0189 111.356 43.058C112.862 42.0971 114.564 41.6191 116.46 41.6191C117.557 41.6191 118.556 41.7752 119.463 42.0923C120.37 42.4093 121.165 42.8531 121.847 43.4287C122.535 44.0042 123.1 44.6627 123.554 45.404C124.007 46.1454 124.314 46.9405 124.48 47.794L123.368 47.5062V42.0727H128.473V63.7677H123.329V58.583L124.524 58.3781C124.334 59.1195 123.983 59.8413 123.476 60.5388C122.969 61.2412 122.34 61.8557 121.584 62.3922C120.828 62.9288 119.995 63.358 119.073 63.6897C118.152 64.0164 117.172 64.1823 116.129 64.1823V64.1774ZM117.528 59.6901C118.708 59.6901 119.751 59.4024 120.653 58.8268C121.555 58.2513 122.262 57.4465 122.774 56.4174C123.281 55.3882 123.534 54.203 123.534 52.8568C123.534 51.5106 123.281 50.3742 122.774 49.3597C122.266 48.3452 121.56 47.5501 120.653 46.9697C119.746 46.3893 118.703 46.1064 117.528 46.1064C116.353 46.1064 115.314 46.3942 114.422 46.9697C113.53 47.5453 112.838 48.3403 112.345 49.3597C111.853 50.3742 111.604 51.5399 111.604 52.8568C111.604 54.1737 111.853 55.3882 112.345 56.4174C112.838 57.4465 113.53 58.2513 114.422 58.8268C115.314 59.4024 116.348 59.6901 117.528 59.6901Z" fill="#1D2638"/>
<path d="M134.352 63.7713V33.3066H139.412V63.7713H134.352ZM139.085 57.1428L138.096 52.4068L148.383 42.0763H155.13L139.081 57.1428H139.085ZM149.002 63.7713L141.021 54.0993L144.599 51.0508L155.257 63.7713H149.002Z" fill="#1D2638"/>
<path d="M167.866 64.1783C165.589 64.1783 163.58 63.7003 161.835 62.7395C160.095 61.7786 158.735 60.4666 157.759 58.8082C156.784 57.1499 156.297 55.2477 156.297 53.1065C156.297 51.4043 156.57 49.8532 157.121 48.4534C157.667 47.0536 158.432 45.8391 159.402 44.8099C160.377 43.7808 161.543 42.9858 162.898 42.42C164.258 41.8591 165.745 41.5762 167.364 41.5762C168.787 41.5762 170.118 41.8493 171.357 42.4005C172.59 42.9516 173.663 43.6979 174.564 44.6441C175.466 45.5903 176.164 46.717 176.641 48.0193C177.119 49.3216 177.348 50.7409 177.319 52.2822L177.28 54.0527H159.71L158.764 50.5946H173.043L172.385 51.2921V50.3849C172.302 49.5362 172.029 48.7851 171.561 48.1412C171.093 47.4974 170.498 46.9902 169.772 46.6195C169.046 46.2488 168.241 46.0634 167.364 46.0634C166.018 46.0634 164.887 46.3268 163.971 46.8438C163.049 47.3657 162.357 48.112 161.894 49.0875C161.426 50.063 161.196 51.2774 161.196 52.7309C161.196 54.1844 161.489 55.3501 162.079 56.3939C162.669 57.4377 163.502 58.2376 164.59 58.8034C165.672 59.3643 166.94 59.6472 168.397 59.6472C169.411 59.6472 170.342 59.4813 171.196 59.1545C172.044 58.8278 172.965 58.2376 173.955 57.384L176.466 60.8812C175.725 61.5689 174.881 62.1493 173.936 62.6322C172.99 63.115 171.995 63.4906 170.952 63.7637C169.909 64.0369 168.88 64.1734 167.866 64.1734V64.1783Z" fill="#1D2638"/>
<path d="M199.01 63.7691L191.727 42.0742L196.909 42.0352L201.765 57.5113L200.858 57.4284L206.123 45.3274H209.17L214.562 57.4284L213.495 57.5504L218.389 42.0742H223.572L216.249 63.7691H212.627L207.074 50.7609L207.854 50.8439L202.589 63.7691H199.01Z" fill="#1D2638"/>
<path d="M230.349 37.4574C229.334 37.4574 228.545 37.2038 227.984 36.6965C227.423 36.1893 227.141 35.4674 227.141 34.5358C227.141 33.6579 227.428 32.9458 228.004 32.3946C228.579 31.8483 229.364 31.5703 230.349 31.5703C231.392 31.5703 232.191 31.8239 232.757 32.3312C233.318 32.8385 233.6 33.575 233.6 34.5358C233.6 35.3845 233.313 36.0868 232.737 36.6331C232.162 37.1843 231.367 37.4574 230.349 37.4574ZM227.877 63.7664V42.0715H232.937V63.7664H227.877Z" fill="#1D2638"/>
<path d="M237.445 46.7652V42.073H251.515V46.7652H237.445ZM241.726 63.768V36.5566H246.786V63.768H241.726Z" fill="#1D2638"/>
<path d="M255.383 63.7713V33.3066H260.404V46.5197L259.459 47.0123C259.732 46.0222 260.268 45.1247 261.062 44.3151C261.857 43.5054 262.803 42.8518 263.9 42.3592C264.997 41.8666 266.123 41.6178 267.274 41.6178C268.921 41.6178 270.296 41.9446 271.408 42.608C272.519 43.2664 273.358 44.2565 273.918 45.5735C274.479 46.8904 274.762 48.539 274.762 50.5143V63.7713H269.701V50.885C269.701 49.7876 269.55 48.8755 269.248 48.1488C268.946 47.422 268.478 46.8855 267.849 46.5441C267.22 46.2026 266.45 46.0417 265.543 46.071C264.802 46.071 264.124 46.188 263.505 46.4221C262.886 46.6563 262.354 46.983 261.901 47.4123C261.448 47.8366 261.092 48.3243 260.833 48.8755C260.57 49.4266 260.443 50.0266 260.443 50.685V63.7761H255.383V63.7713Z" fill="#1D2638"/>
<path d="M83.2053 105.211C81.875 105.211 80.6592 104.842 79.5625 104.1C78.4659 103.358 77.5885 102.353 76.9353 101.075C76.2821 99.7965 75.9531 98.3604 75.9531 96.752C75.9531 95.1435 76.2869 93.6834 76.9497 92.4148C77.6172 91.1511 78.5183 90.1554 79.6532 89.4375C80.7879 88.7193 82.0657 88.3555 83.4818 88.3555C84.3211 88.3555 85.0886 88.48 85.7849 88.7242C86.481 88.973 87.0913 89.3176 87.6158 89.7581C88.1403 90.1985 88.5694 90.7107 88.9079 91.2851C89.2464 91.8597 89.4562 92.4771 89.5372 93.1377L88.8316 92.8888V88.6905H92.0262V104.89H88.8316V101.031L89.5707 100.816C89.4466 101.371 89.1987 101.912 88.8173 102.434C88.4358 102.961 87.959 103.425 87.3726 103.837C86.7908 104.248 86.1425 104.579 85.4368 104.823C84.731 105.067 83.9872 105.191 83.2101 105.191L83.2053 105.211ZM84.0349 102.276C84.9981 102.276 85.8468 102.042 86.5858 101.568C87.3249 101.094 87.9018 100.443 88.3214 99.6097C88.741 98.7768 88.9507 97.8243 88.9507 96.7567C88.9507 95.6893 88.741 94.7701 88.3214 93.9467C87.9018 93.1234 87.3249 92.4771 86.5858 92.0033C85.8468 91.5293 84.9981 91.2947 84.0349 91.2947C83.0718 91.2947 82.2564 91.5293 81.5317 92.0033C80.8023 92.4771 80.2301 93.1234 79.8104 93.9467C79.3909 94.7701 79.1811 95.7037 79.1811 96.7567C79.1811 97.8099 79.3909 98.7768 79.8104 99.6097C80.2301 100.443 80.8023 101.099 81.5317 101.568C82.2564 102.042 83.0956 102.276 84.0349 102.276Z" fill="#1D2638"/>
<path d="M96.4453 104.898V88.6993H99.6112V92.031L99.0581 92.3997C99.2631 91.6815 99.6637 91.0161 100.255 90.4082C100.851 89.8002 101.557 89.3072 102.377 88.9291C103.197 88.5508 104.036 88.3594 104.899 88.3594C106.129 88.3594 107.154 88.6036 107.974 89.0822C108.794 89.5657 109.41 90.303 109.82 91.2891C110.23 92.2752 110.435 93.5198 110.435 95.0229V104.898H107.269V95.2383C107.269 94.3145 107.145 93.5484 106.902 92.9406C106.658 92.3326 106.277 91.8922 105.767 91.6146C105.257 91.3369 104.618 91.2172 103.86 91.2603C103.244 91.2603 102.682 91.356 102.167 91.5523C101.657 91.7486 101.209 92.0214 100.832 92.3709C100.45 92.7203 100.155 93.1272 99.9403 93.5916C99.7257 94.0559 99.616 94.5538 99.616 95.0899V104.903H96.45L96.4453 104.898Z" fill="#1D2638"/>
<path d="M121.48 105.212C120.007 105.212 118.686 104.848 117.532 104.116C116.374 103.383 115.458 102.387 114.781 101.124C114.104 99.8598 113.766 98.4142 113.766 96.7866C113.766 95.159 114.099 93.7181 114.767 92.4495C115.434 91.1858 116.34 90.1853 117.485 89.4576C118.634 88.7301 119.935 88.3614 121.39 88.3614C122.191 88.3614 122.963 88.4906 123.712 88.7492C124.46 89.0076 125.133 89.357 125.724 89.7975C126.32 90.2427 126.782 90.7214 127.121 91.248C127.459 91.7746 127.626 92.3011 127.626 92.8373L126.706 92.8996V82.0664H129.872V104.901H126.706V101.042H127.321C127.321 101.535 127.159 102.024 126.83 102.507C126.501 102.991 126.067 103.436 125.524 103.847C124.98 104.259 124.355 104.589 123.65 104.834C122.944 105.078 122.219 105.202 121.485 105.202L121.48 105.212ZM121.909 102.464C122.873 102.464 123.721 102.215 124.46 101.722C125.199 101.229 125.776 100.554 126.196 99.7019C126.615 98.8498 126.825 97.8779 126.825 96.7866C126.825 95.695 126.615 94.7233 126.196 93.8713C125.776 93.0192 125.195 92.3443 124.46 91.8511C123.721 91.358 122.873 91.1091 121.909 91.1091C120.946 91.1091 120.098 91.358 119.359 91.8511C118.619 92.3443 118.043 93.0192 117.623 93.8713C117.203 94.7233 116.994 95.695 116.994 96.7866C116.994 97.8779 117.203 98.8498 117.623 99.7019C118.043 100.554 118.619 101.229 119.359 101.722C120.098 102.215 120.946 102.464 121.909 102.464Z" fill="#1D2638"/>
<path d="M148.491 105.207C147.342 105.207 146.345 104.939 145.497 104.402C144.648 103.866 143.99 103.119 143.527 102.148C143.065 101.181 142.836 100.027 142.836 98.6915V88.6914H146.002V97.825C146.002 98.7728 146.15 99.5914 146.45 100.276C146.746 100.965 147.175 101.497 147.742 101.865C148.305 102.234 148.987 102.42 149.788 102.42C150.384 102.42 150.927 102.325 151.418 102.129C151.909 101.932 152.334 101.659 152.696 101.31C153.054 100.961 153.335 100.539 153.54 100.046C153.745 99.5531 153.85 99.017 153.85 98.4426V88.6914H157.016V104.891H153.85V101.497L154.403 101.128C154.16 101.889 153.74 102.578 153.159 103.196C152.577 103.814 151.886 104.302 151.085 104.661C150.284 105.02 149.425 105.202 148.5 105.202L148.491 105.207Z" fill="#1D2638"/>
<path d="M161.422 104.898V88.6993H164.588V92.031L164.035 92.3997C164.24 91.6815 164.64 91.0161 165.232 90.4082C165.828 89.8002 166.533 89.3072 167.353 88.9291C168.173 88.5508 169.013 88.3594 169.876 88.3594C171.106 88.3594 172.131 88.6036 172.951 89.0822C173.771 89.5657 174.386 90.303 174.796 91.2891C175.206 92.2752 175.411 93.5198 175.411 95.0229V104.898H172.245V95.2383C172.245 94.3145 172.121 93.5484 171.878 92.9406C171.635 92.3326 171.254 91.8922 170.743 91.6146C170.233 91.3369 169.594 91.2172 168.836 91.2603C168.221 91.2603 167.659 91.356 167.144 91.5523C166.633 91.7486 166.185 92.0214 165.808 92.3709C165.427 92.7203 165.131 93.1272 164.917 93.5916C164.702 94.0559 164.593 94.5538 164.593 95.0899V104.903H161.427L161.422 104.898Z" fill="#1D2638"/>
<path d="M179.781 104.901V82.0664H182.947V104.901H179.781Z" fill="#1D2638"/>
<path d="M194.372 105.21C192.794 105.21 191.387 104.846 190.147 104.114C188.908 103.381 187.93 102.385 187.21 101.122C186.495 99.8578 186.133 98.4122 186.133 96.7846C186.133 95.157 186.49 93.716 187.21 92.4475C187.926 91.1836 188.908 90.1833 190.147 89.4556C191.387 88.7279 192.794 88.3594 194.372 88.3594C195.951 88.3594 197.329 88.7232 198.568 89.4556C199.808 90.188 200.784 91.1836 201.505 92.4475C202.22 93.7113 202.583 95.157 202.583 96.7846C202.583 98.4122 202.225 99.853 201.505 101.122C200.784 102.385 199.808 103.386 198.568 104.114C197.329 104.846 195.93 105.21 194.372 105.21ZM194.372 102.309C195.334 102.309 196.193 102.069 196.952 101.586C197.709 101.102 198.305 100.447 198.735 99.6088C199.164 98.7711 199.369 97.8329 199.35 96.7846C199.369 95.717 199.164 94.7643 198.735 93.9314C198.305 93.0986 197.709 92.4475 196.952 91.9736C196.193 91.4996 195.33 91.2651 194.372 91.2651C193.414 91.2651 192.541 91.5091 191.773 91.988C191.006 92.4715 190.405 93.1272 189.976 93.965C189.547 94.8027 189.342 95.7409 189.361 96.7892C189.342 97.8376 189.547 98.7807 189.976 99.6136C190.405 100.447 191.006 101.107 191.773 101.591C192.541 102.074 193.409 102.314 194.372 102.314V102.309Z" fill="#1D2638"/>
<path d="M212.893 105.21C211.396 105.21 210.062 104.841 208.884 104.099C207.706 103.357 206.772 102.352 206.086 101.074C205.399 99.8003 205.055 98.369 205.055 96.7846C205.055 95.2 205.399 93.7687 206.086 92.4954C206.772 91.2219 207.701 90.2119 208.884 89.47C210.062 88.7279 211.401 88.3594 212.893 88.3594C214.385 88.3594 215.635 88.6514 216.813 89.2402C217.991 89.8241 218.887 90.6236 219.502 91.6337L217.752 93.7926C217.423 93.3187 217.004 92.8879 216.494 92.4954C215.984 92.1028 215.44 91.7965 214.863 91.5714C214.285 91.3465 213.738 91.2315 213.204 91.2315C212.222 91.2315 211.345 91.4757 210.576 91.9545C209.808 92.4331 209.198 93.1033 208.746 93.9458C208.293 94.7883 208.069 95.7362 208.069 96.7846C208.069 97.8329 208.302 98.7758 208.774 99.6088C209.247 100.442 209.871 101.107 210.648 101.6C211.426 102.093 212.288 102.342 213.228 102.342C213.78 102.342 214.32 102.251 214.839 102.065C215.358 101.878 215.868 101.6 216.359 101.232C216.851 100.863 217.314 100.408 217.742 99.8722L219.493 102.031C218.834 102.955 217.9 103.716 216.68 104.315C215.458 104.913 214.196 105.21 212.884 105.21H212.893Z" fill="#1D2638"/>
<path d="M222.477 104.901V82.0664H225.643V104.901H222.477ZM225.366 99.8406L225.214 96.3844L232.927 88.7013H237.201L225.366 99.8406ZM233.357 104.901L227.273 97.7727L229.519 95.7047L237.42 104.901H233.362H233.357Z" fill="#1D2638"/>
<path d="M254.542 105.174C253.169 105.174 251.944 104.811 250.871 104.078C249.793 103.35 248.939 102.34 248.306 101.053C247.672 99.765 247.352 98.3098 247.352 96.6869C247.352 95.0642 247.672 93.5514 248.306 92.2734C248.939 91 249.812 89.9948 250.918 89.2622C252.024 88.5347 253.283 88.166 254.699 88.166C255.476 88.166 256.193 88.281 256.836 88.5059C257.48 88.731 258.051 89.0468 258.542 89.449C259.033 89.8512 259.453 90.3154 259.801 90.8373C260.15 91.3638 260.407 91.924 260.569 92.5174L259.553 92.3931V88.5059H264.441V104.892H259.464V100.943L260.569 100.914C260.407 101.488 260.139 102.034 259.769 102.551C259.401 103.063 258.947 103.518 258.414 103.911C257.88 104.303 257.289 104.61 256.631 104.834C255.972 105.06 255.276 105.174 254.542 105.174ZM255.892 101.01C256.649 101.01 257.308 100.837 257.86 100.483C258.414 100.134 258.842 99.6358 259.152 98.9848C259.463 98.3385 259.615 97.5726 259.615 96.6869C259.615 95.8014 259.463 95.0354 259.152 94.3892C258.847 93.743 258.414 93.2356 257.86 92.8764C257.308 92.5174 256.649 92.3355 255.892 92.3355C255.134 92.3355 254.514 92.5174 253.97 92.8764C253.427 93.2356 253.002 93.7382 252.697 94.3892C252.387 95.0354 252.235 95.8061 252.235 96.6869C252.235 97.5678 252.387 98.3385 252.697 98.9848C253.002 99.631 253.432 100.134 253.97 100.483C254.514 100.832 255.152 101.01 255.892 101.01Z" fill="#1D2638"/>
<path d="M268.734 104.898V88.5123H273.407L273.56 91.4754L272.916 91.5042C273.164 90.9682 273.474 90.4942 273.856 90.0825C274.233 89.6708 274.666 89.3262 275.148 89.0485C275.63 88.7709 276.13 88.5602 276.654 88.4166C277.178 88.273 277.704 88.2012 278.237 88.2012C279.038 88.2012 279.764 88.3257 280.421 88.5699C281.079 88.8187 281.652 89.2112 282.143 89.757C282.634 90.3027 283.024 91.0351 283.31 91.9638L282.544 91.9015L282.791 91.4085C283.058 90.9154 283.401 90.4654 283.821 90.0681C284.241 89.6661 284.707 89.3262 285.218 89.0485C285.728 88.7709 286.262 88.5602 286.815 88.4166C287.368 88.273 287.903 88.2012 288.413 88.2012C289.705 88.2012 290.778 88.4549 291.64 88.9575C292.498 89.4602 293.152 90.2165 293.59 91.2266C294.03 92.2366 294.253 93.4573 294.253 94.8982V104.898H289.304V95.3003C289.304 94.6445 289.213 94.0988 289.027 93.6632C288.841 93.2276 288.569 92.9069 288.212 92.6915C287.854 92.4759 287.407 92.366 286.876 92.366C286.448 92.366 286.052 92.4378 285.694 92.5814C285.337 92.725 285.028 92.9213 284.774 93.1653C284.518 93.4143 284.317 93.7015 284.173 94.027C284.031 94.3573 283.959 94.726 283.959 95.1377V104.889H279.01V95.262C279.01 94.6446 278.919 94.1228 278.733 93.6871C278.547 93.2563 278.27 92.926 277.904 92.701C277.536 92.4759 277.103 92.3611 276.612 92.3611C276.182 92.3611 275.786 92.4329 275.429 92.5765C275.071 92.7201 274.761 92.9164 274.508 93.1606C274.251 93.4095 274.051 93.6967 273.907 94.0222C273.765 94.3526 273.693 94.7116 273.693 95.104V104.889H268.744L268.734 104.898Z" fill="#1D2638"/>
<path d="M304.361 105.174C302.989 105.174 301.763 104.811 300.69 104.078C299.614 103.35 298.76 102.34 298.126 101.053C297.491 99.765 297.172 98.3098 297.172 96.6869C297.172 95.0642 297.491 93.5514 298.126 92.2734C298.76 91 299.632 89.9948 300.738 89.2622C301.844 88.5347 303.103 88.166 304.519 88.166C305.297 88.166 306.011 88.281 306.656 88.5059C307.299 88.731 307.871 89.0468 308.362 89.449C308.854 89.8512 309.273 90.3154 309.622 90.8373C309.969 91.3638 310.227 91.924 310.388 92.5174L309.373 92.3931V88.5059H314.26V104.892H309.282V100.943L310.388 100.914C310.227 101.488 309.96 102.034 309.587 102.551C309.221 103.063 308.768 103.518 308.234 103.911C307.699 104.303 307.108 104.61 306.451 104.834C305.792 105.06 305.096 105.174 304.361 105.174ZM305.711 101.01C306.47 101.01 307.127 100.837 307.68 100.483C308.234 100.134 308.663 99.6358 308.973 98.9848C309.282 98.3385 309.436 97.5726 309.436 96.6869C309.436 95.8014 309.282 95.0354 308.973 94.3892C308.668 93.743 308.234 93.2356 307.68 92.8764C307.127 92.5174 306.47 92.3355 305.711 92.3355C304.952 92.3355 304.333 92.5174 303.79 92.8764C303.246 93.2356 302.822 93.7382 302.517 94.3892C302.207 95.0354 302.054 95.8061 302.054 96.6869C302.054 97.5678 302.207 98.3385 302.517 98.9848C302.822 99.631 303.251 100.134 303.79 100.483C304.333 100.832 304.973 101.01 305.711 101.01Z" fill="#1D2638"/>
<path d="M317.945 104.902V102.063L326.614 90.89V92.5271H317.945V88.5156H331.473V91.4788L323.267 102.312L323.143 100.89H331.748V104.902H317.95H317.945Z" fill="#1D2638"/>
<path d="M338.236 85.2722C337.316 85.2722 336.591 85.052 336.071 84.6068C335.547 84.1665 335.289 83.5298 335.289 82.7111C335.289 81.9692 335.557 81.366 336.09 80.892C336.625 80.4182 337.34 80.1836 338.241 80.1836C339.142 80.1836 339.88 80.4038 340.392 80.849C340.902 81.2894 341.158 81.9118 341.158 82.7159C341.158 83.5201 340.897 84.0947 340.376 84.5685C339.857 85.0425 339.142 85.2771 338.241 85.2771L338.236 85.2722ZM335.776 104.899V88.513H340.692V104.899H335.776Z" fill="#1D2638"/>
<path d="M345.297 104.898V88.5118H349.969L350.121 91.8436L349.139 92.2122C349.364 91.4702 349.769 90.8 350.356 90.1921C350.936 89.5841 351.643 89.0959 352.463 88.7272C353.282 88.3586 354.141 88.1719 355.042 88.1719C356.272 88.1719 357.307 88.4256 358.146 88.9283C358.986 89.4309 359.619 90.1826 360.052 91.183C360.483 92.1787 360.697 93.3994 360.697 94.8402V104.903H355.748V95.2424C355.748 94.5865 355.657 94.0408 355.471 93.6053C355.285 93.1696 355.003 92.8488 354.628 92.6334C354.246 92.418 353.783 92.3174 353.231 92.3414C352.801 92.3414 352.4 92.4085 352.028 92.5425C351.662 92.6766 351.343 92.8727 351.075 93.1265C350.808 93.385 350.598 93.6771 350.445 94.0073C350.293 94.3377 350.216 94.6967 350.216 95.0891V104.903H345.302L345.297 104.898Z" fill="#1D2638"/>
<path d="M372.285 112C370.955 112 369.625 111.804 368.304 111.416C366.983 111.023 365.91 110.521 365.091 109.903L366.811 106.447C367.24 106.734 367.717 106.988 368.243 107.203C368.767 107.419 369.314 107.591 369.887 107.711C370.459 107.835 371.046 107.897 371.637 107.897C372.68 107.897 373.53 107.744 374.188 107.433C374.845 107.122 375.336 106.658 375.66 106.031C375.99 105.403 376.151 104.618 376.151 103.671V100.923L377.106 101.076C376.963 101.756 376.61 102.373 376.047 102.929C375.485 103.484 374.794 103.929 373.972 104.269C373.153 104.609 372.28 104.776 371.36 104.776C369.887 104.776 368.566 104.432 367.412 103.742C366.254 103.053 365.342 102.096 364.676 100.875C364.008 99.6542 363.68 98.2373 363.68 96.6336C363.68 95.03 364.008 93.5316 364.66 92.2678C365.314 91.0041 366.22 90.0036 367.365 89.2761C368.513 88.5484 369.801 88.1797 371.237 88.1797C371.851 88.1797 372.438 88.2516 373.006 88.3952C373.567 88.5388 374.093 88.7303 374.575 88.9648C375.055 89.1994 375.485 89.4771 375.867 89.7977C376.242 90.1186 376.552 90.4632 376.786 90.8317C377.02 91.2004 377.182 91.5833 377.264 91.9711L376.247 92.22L376.433 88.5149H381.105V103.575C381.105 104.91 380.905 106.102 380.505 107.141C380.104 108.18 379.522 109.065 378.756 109.793C377.988 110.521 377.059 111.071 375.976 111.445C374.889 111.813 373.658 112 372.285 112ZM372.41 100.952C373.211 100.952 373.902 100.77 374.484 100.411C375.064 100.052 375.518 99.5538 375.837 98.9123C376.156 98.2756 376.314 97.524 376.314 96.6576C376.314 95.7911 376.156 95.0395 375.837 94.3885C375.518 93.7423 375.071 93.2349 374.484 92.8759C373.902 92.5169 373.211 92.3349 372.41 92.3349C371.609 92.3349 370.955 92.5169 370.382 92.8759C369.81 93.2349 369.363 93.7374 369.048 94.3885C368.727 95.0348 368.571 95.7911 368.571 96.6576C368.571 97.524 368.727 98.2708 369.048 98.9123C369.367 99.5489 369.81 100.052 370.382 100.411C370.955 100.77 371.632 100.952 372.41 100.952Z" fill="#1D2638"/>
<path d="M395.219 104.898V88.5118H399.891L400.105 93.8493L399.186 92.8297C399.433 91.944 399.833 91.1543 400.401 90.4554C400.964 89.7564 401.626 89.2011 402.385 88.7894C403.143 88.3777 403.953 88.1719 404.811 88.1719C405.178 88.1719 405.522 88.2007 405.842 88.2629C406.161 88.3252 406.452 88.397 406.719 88.4783L405.364 93.9403C405.141 93.7967 404.836 93.6771 404.459 93.586C404.082 93.4952 403.686 93.4473 403.276 93.4473C402.823 93.4473 402.403 93.5238 402.017 93.6771C401.631 93.8302 401.302 94.0505 401.035 94.3423C400.769 94.6297 400.558 94.9695 400.406 95.3621C400.252 95.7546 400.177 96.195 400.177 96.6881V104.898H395.228H395.219Z" fill="#1D2638"/>
<path d="M416.302 105.212C414.5 105.212 412.931 104.848 411.6 104.116C410.27 103.383 409.235 102.388 408.497 101.124C407.758 99.8601 407.391 98.4144 407.391 96.7868C407.391 95.5326 407.596 94.3789 408.005 93.3306C408.415 92.2822 408.988 91.3728 409.726 90.6019C410.466 89.8312 411.339 89.2329 412.354 88.8116C413.369 88.3904 414.48 88.1797 415.687 88.1797C416.836 88.1797 417.885 88.3855 418.838 88.7972C419.792 89.209 420.616 89.7834 421.312 90.5254C422.009 91.2673 422.543 92.1386 422.911 93.1487C423.277 94.1587 423.444 95.2598 423.401 96.4517L423.373 97.7777H410.371L409.665 95.0012H419.377L418.853 95.5853V94.9677C418.81 94.4556 418.653 93.996 418.376 93.5939C418.099 93.1918 417.737 92.8806 417.284 92.6508C416.831 92.4258 416.321 92.311 415.748 92.311C414.947 92.311 414.265 92.469 413.704 92.7897C413.141 93.1103 412.717 93.5699 412.426 94.1779C412.135 94.7858 411.996 95.5326 411.996 96.4134C411.996 97.2942 412.187 98.1081 412.564 98.7734C412.945 99.4437 413.497 99.9606 414.223 100.334C414.948 100.703 415.816 100.889 416.821 100.889C417.518 100.889 418.137 100.789 418.681 100.583C419.224 100.377 419.811 100.028 420.451 99.5345L422.753 102.804C422.12 103.359 421.442 103.814 420.726 104.164C420.006 104.513 419.277 104.776 418.528 104.949C417.78 105.121 417.036 105.212 416.302 105.212Z" fill="#1D2638"/>
<path d="M429.792 104.897L424.414 88.5107H429.606L432.619 99.157L431.976 99.0326L435.356 90.7606H438.245L441.812 99.0612L441.106 99.1235L444.12 88.5059H449.312L443.748 104.892H440.119L436.587 96.0981L436.953 96.1603L433.421 104.892H429.792V104.897Z" fill="#1D2638"/>
<path d="M457.441 105.174C456.067 105.174 454.843 104.811 453.77 104.078C452.692 103.35 451.838 102.34 451.204 101.053C450.569 99.765 450.25 98.3098 450.25 96.6869C450.25 95.0642 450.569 93.5514 451.204 92.2734C451.838 91 452.711 89.9948 453.816 89.2622C454.922 88.5347 456.182 88.166 457.597 88.166C458.375 88.166 459.091 88.281 459.734 88.5059C460.378 88.731 460.949 89.0468 461.441 89.449C461.932 89.8512 462.351 90.3154 462.7 90.8373C463.047 91.3638 463.305 91.924 463.468 92.5174L462.451 92.3931V88.5059H467.339V104.892H462.362V100.943L463.468 100.914C463.305 101.488 463.038 102.034 462.667 102.551C462.299 103.063 461.846 103.518 461.312 103.911C460.779 104.303 460.188 104.61 459.529 104.834C458.871 105.06 458.174 105.174 457.441 105.174ZM458.795 101.01C459.553 101.01 460.211 100.837 460.763 100.483C461.317 100.134 461.746 99.6358 462.055 98.9848C462.367 98.3385 462.518 97.5726 462.518 96.6869C462.518 95.8014 462.367 95.0354 462.055 94.3892C461.75 93.743 461.317 93.2356 460.763 92.8764C460.211 92.5174 459.553 92.3355 458.795 92.3355C458.037 92.3355 457.417 92.5174 456.873 92.8764C456.33 93.2356 455.905 93.7382 455.6 94.3892C455.29 95.0354 455.138 95.8061 455.138 96.6869C455.138 97.5678 455.29 98.3385 455.6 98.9848C455.905 99.631 456.335 100.134 456.873 100.483C457.417 100.832 458.056 101.01 458.795 101.01Z" fill="#1D2638"/>
<path d="M471.656 104.898V88.5118H476.329L476.543 93.8493L475.623 92.8297C475.87 91.944 476.271 91.1543 476.839 90.4554C477.402 89.7564 478.063 89.2011 478.822 88.7894C479.581 88.3777 480.391 88.1719 481.25 88.1719C481.616 88.1719 481.96 88.2007 482.279 88.2629C482.598 88.3252 482.889 88.397 483.157 88.4783L481.802 93.9403C481.578 93.7967 481.273 93.6771 480.896 93.586C480.519 93.4952 480.124 93.4473 479.714 93.4473C479.262 93.4473 478.841 93.5238 478.454 93.6771C478.07 93.8302 477.74 94.0505 477.472 94.3423C477.206 94.6297 476.997 94.9695 476.843 95.3621C476.692 95.7546 476.615 96.195 476.615 96.6881V104.898H471.666H471.656Z" fill="#1D2638"/>
<path d="M491.147 105.236C489.732 105.236 488.477 104.873 487.381 104.14C486.284 103.408 485.416 102.402 484.782 101.115C484.147 99.8269 483.828 98.3622 483.828 96.7155C483.828 95.0687 484.147 93.6039 484.782 92.3162C485.416 91.0285 486.289 90.0183 487.395 89.2764C488.501 88.5345 489.774 88.1658 491.205 88.1658C491.943 88.1658 492.649 88.2808 493.326 88.5057C494.004 88.7307 494.618 89.0418 495.172 89.4296C495.724 89.8222 496.178 90.2674 496.525 90.77C496.874 91.2725 497.079 91.7944 497.14 92.3304L495.973 92.6081V82.0527H500.922V104.887H496.339L496.064 101.153L497.044 101.306C496.983 101.818 496.783 102.316 496.444 102.785C496.106 103.255 495.673 103.676 495.138 104.035C494.604 104.394 493.994 104.681 493.307 104.896C492.621 105.112 491.895 105.222 491.143 105.222L491.147 105.236ZM492.406 101.134C493.164 101.134 493.817 100.947 494.376 100.579C494.928 100.21 495.352 99.6929 495.648 99.0371C495.943 98.3766 496.096 97.6059 496.096 96.725C496.096 95.8442 495.948 95.04 495.648 94.3793C495.352 93.7236 494.928 93.2066 494.376 92.8379C493.822 92.4693 493.164 92.2826 492.406 92.2826C491.648 92.2826 490.994 92.4693 490.456 92.8379C489.911 93.2066 489.488 93.7236 489.183 94.3793C488.873 95.04 488.72 95.8203 488.72 96.725C488.72 97.6298 488.873 98.3813 489.183 99.0371C489.492 99.6977 489.916 100.21 490.456 100.579C490.999 100.947 491.648 101.134 492.406 101.134Z" fill="#1D2638"/>
<path d="M510.574 105.209C508.976 105.209 507.566 104.95 506.349 104.438C505.128 103.926 504.16 103.237 503.445 102.37L506.425 99.7758C507.06 100.412 507.78 100.882 508.576 101.178C509.377 101.475 510.136 101.628 510.85 101.628C511.137 101.628 511.393 101.6 511.619 101.537C511.842 101.475 512.033 101.389 512.185 101.274C512.338 101.159 512.457 101.03 512.538 100.872C512.62 100.719 512.662 100.537 512.662 100.331C512.662 99.9193 512.476 99.5985 512.11 99.3736C511.924 99.273 511.619 99.1486 511.188 99.005C510.76 98.8613 510.206 98.6986 509.529 98.5118C508.567 98.263 507.731 97.9709 507.026 97.631C506.32 97.2913 505.738 96.8939 505.291 96.4439C504.881 96.0131 504.561 95.5343 504.337 95.0078C504.113 94.4813 503.999 93.8925 503.999 93.2319C503.999 92.4707 504.179 91.7814 504.537 91.1638C504.895 90.5462 505.377 90.0102 505.983 89.5601C506.588 89.1103 507.284 88.7608 508.071 88.5262C508.858 88.2917 509.673 88.1719 510.511 88.1719C511.414 88.1719 512.275 88.2773 513.095 88.4832C513.916 88.689 514.678 88.9762 515.385 89.3447C516.091 89.7134 516.719 90.1586 517.273 90.6708L514.689 93.5716C514.321 93.2222 513.907 92.9064 513.444 92.6287C512.981 92.3511 512.505 92.1308 512.014 91.9633C511.523 91.8004 511.069 91.7144 510.66 91.7144C510.355 91.7144 510.082 91.7384 509.845 91.7909C509.61 91.8436 509.41 91.925 509.244 92.0398C509.081 92.1548 508.958 92.2888 508.876 92.4419C508.795 92.5951 508.753 92.777 508.753 92.9829C508.753 93.1887 508.809 93.385 508.919 93.567C509.028 93.7489 509.191 93.9069 509.396 94.0312C509.601 94.1557 509.931 94.2945 510.378 94.4478C510.827 94.6009 511.442 94.7924 512.224 95.0173C513.186 95.2854 514.016 95.5822 514.713 95.9125C515.409 96.2429 515.961 96.6354 516.372 97.0854C516.701 97.4349 516.943 97.8417 517.111 98.306C517.273 98.7704 517.359 99.2683 517.359 99.8044C517.359 100.853 517.068 101.786 516.482 102.595C515.895 103.404 515.094 104.046 514.068 104.51C513.043 104.974 511.875 105.204 510.564 105.204L510.574 105.209Z" fill="#1D2638"/>
<path d="M522.839 105.239C521.999 105.239 521.34 105.004 520.87 104.53C520.397 104.056 520.164 103.376 520.164 102.496C520.164 101.672 520.411 101.002 520.902 100.49C521.394 99.9777 522.036 99.7192 522.839 99.7192C523.677 99.7192 524.331 99.9634 524.788 100.442C525.251 100.926 525.479 101.61 525.479 102.496C525.479 103.3 525.237 103.956 524.741 104.473C524.245 104.99 523.615 105.244 522.834 105.244L522.839 105.239ZM521.303 97.0289C521.14 95.7747 520.974 94.4775 520.812 93.1419C520.649 91.8064 520.516 90.4755 520.411 89.159C520.306 87.8426 520.259 86.5788 520.259 85.3629V82.9551H525.451V85.3629C525.451 86.5981 525.398 87.8857 525.298 89.2213C525.193 90.5568 525.065 91.8924 524.897 93.2184C524.736 94.5444 524.56 95.8179 524.373 97.0289H521.298H521.303Z" fill="#1D2638"/>
</svg>
