<svg width="600" height="80" viewBox="0 0 600 80" fill="none" xmlns="http://www.w3.org/2000/svg">
<path d="M568.689 43.876H354.484C351.46 43.876 349 41.4064 349 38.3706V21.5054C349 18.4696 351.46 16 354.484 16H568.689C571.712 16 574.172 18.4696 574.172 21.5054V38.3706C574.172 41.4064 571.712 43.876 568.689 43.876ZM354.484 16.4468C351.707 16.4468 349.448 18.7145 349.448 21.5024V38.3675C349.448 41.1555 351.707 43.4231 354.484 43.4231H568.689C571.466 43.4231 573.724 41.1555 573.724 38.3675V21.5024C573.724 18.7145 571.466 16.4468 568.689 16.4468H354.484Z" fill="#2F3D58"/>
<path d="M167.667 42.6619C166.116 40.486 164.592 38.35 163.022 36.1466C166.725 33.4719 170.392 30.8217 174.141 28.1133C170.142 25.2367 166.216 22.412 162.211 19.5323C163.753 17.3565 165.277 15.2112 166.841 13.0078C173.84 18.0389 180.783 23.0302 187.834 28.098C181.085 32.97 174.407 37.793 167.667 42.6588V42.6619Z" fill="#2F3D58"/>
<path d="M207.93 20.7036C209.268 20.7036 210.557 20.6883 211.85 20.7098C213.072 20.7281 214.303 20.5873 215.513 20.8597C218.61 21.5513 220.671 24.0669 220.811 27.3138C220.86 28.4339 220.765 29.5325 220.412 30.6006C219.507 33.3242 217.098 35.1053 214.242 35.1359C212.301 35.1573 210.359 35.1451 208.42 35.1451C208.271 35.1451 208.122 35.1237 207.933 35.1084V20.7036H207.93ZM211.109 32.3021C212.212 32.2807 213.246 32.3816 214.276 32.2348C215.965 31.9961 217.074 30.9831 217.458 29.352C217.617 28.6787 217.647 27.9963 217.583 27.3138C217.44 25.7898 216.836 24.5351 215.361 23.8955C213.999 23.3049 212.56 23.6048 211.106 23.5528V32.3021H211.109Z" fill="#2F3D58"/>
<path d="M311.071 35.1402C310.099 33.4081 309.154 31.728 308.203 30.0357H306.048V35.1096H303V20.7875C303.198 20.6559 303.408 20.708 303.607 20.7049C305.515 20.7018 307.42 20.6988 309.328 20.7049C311.565 20.708 313.388 22.0239 313.952 24.0314C314.537 26.1246 313.711 28.1689 311.8 29.3655C311.718 29.4175 311.638 29.4818 311.523 29.5675C312.58 31.4067 313.629 33.2306 314.729 35.1433H311.071V35.1402ZM306.073 27.3855C307.136 27.3855 308.151 27.3916 309.169 27.3855C310.084 27.3763 310.727 26.8652 310.907 26.0267C311.132 24.974 310.797 24.0773 309.947 23.7193C308.694 23.1898 307.38 23.5295 306.073 23.4438V27.3885V27.3855Z" fill="#2F3D58"/>
<path d="M189.773 26.355C187.618 24.7974 185.508 23.2703 183.305 21.6759C187.325 18.7717 191.282 15.9164 195.317 13C196.866 15.1728 198.393 17.3119 199.963 19.5123C196.549 21.8044 193.187 24.0629 189.773 26.352V26.355Z" fill="#2F3D58"/>
<path d="M189.775 29.8624C192.945 32.0291 196.09 34.1774 199.294 36.3686C197.752 38.5475 196.24 40.6866 194.673 42.8992C190.896 40.1939 187.153 37.5162 183.312 34.765C185.495 33.1063 187.613 31.4997 189.771 29.8594L189.775 29.8624Z" fill="#2F3D58"/>
<path d="M231.898 32.334H238.622C238.695 33.298 238.689 34.1885 238.628 35.1127H228.789V20.7539H238.452V23.502H231.892V26.3756H237.488C237.58 27.3274 237.549 28.1873 237.51 29.1391H231.895V32.334H231.898Z" fill="#2F3D58"/>
<path d="M284.695 20.7324H294.367V23.4775H287.817V26.3878H293.404V29.1512H287.804V32.3278H294.535C294.599 33.3102 294.605 34.2007 294.535 35.1157H284.695V20.7355V20.7324Z" fill="#2F3D58"/>
<path d="M248.965 35.1216H245.289C247.039 32.6121 248.724 30.1915 250.428 27.7494C248.764 25.4266 247.118 23.1284 245.414 20.7475H249.294C250.309 22.2378 251.364 23.7802 252.47 25.4021C253.531 23.7833 254.534 22.247 255.525 20.7383H259.195C257.518 23.1987 255.9 25.5735 254.26 27.9789C255.958 30.3322 257.643 32.6642 259.393 35.0879H255.516C254.467 33.57 253.376 31.9879 252.239 30.3384C251.129 31.9634 250.053 33.5333 248.968 35.1216H248.965Z" fill="#2F3D58"/>
<path d="M269.55 23.5462H265.398V20.7461H276.957V23.5371H272.732V35.1018H269.55V23.5432V23.5462Z" fill="#2F3D58"/>
<path d="M33.2255 36.103C32.2013 36.103 31.2594 35.9714 30.4029 35.7113C29.5464 35.4511 28.7721 35.0564 28.0833 34.5331C27.3944 34.0098 26.7817 33.3763 26.2422 32.6357L28.385 30.2058C29.208 31.3534 30.0158 32.146 30.8053 32.5837C31.5947 33.0213 32.4848 33.2416 33.4785 33.2416C34.0485 33.2416 34.5697 33.1529 35.0422 32.9754C35.5116 32.7979 35.8835 32.5531 36.1517 32.2409C36.4199 31.9288 36.554 31.5707 36.554 31.1637C36.554 30.876 36.4992 30.6128 36.3894 30.368C36.2797 30.1232 36.1151 29.9029 35.8987 29.7101C35.6792 29.5173 35.411 29.3337 35.0909 29.1653C34.7709 28.997 34.4112 28.8532 34.0058 28.7338C33.6034 28.6175 33.1554 28.5074 32.6707 28.4064C31.7471 28.2197 30.9394 27.9718 30.2505 27.6597C29.5616 27.3475 28.9825 26.9589 28.51 26.4968C28.0406 26.0316 27.6962 25.5083 27.4767 24.9269C27.2572 24.3454 27.1505 23.6813 27.1505 22.9407C27.1505 22.2002 27.3151 21.5147 27.6413 20.8904C27.9705 20.2661 28.4186 19.7274 28.9916 19.2715C29.5616 18.8155 30.2261 18.4605 30.9821 18.2096C31.738 17.9555 32.5518 17.8301 33.4267 17.8301C34.4173 17.8301 35.3043 17.9494 36.0877 18.1851C36.868 18.4207 37.5569 18.7726 38.1543 19.2347C38.7518 19.6999 39.2425 20.2599 39.6296 20.9179L37.4624 23.0693C37.1271 22.546 36.7491 22.1114 36.3285 21.7656C35.9078 21.4198 35.4537 21.1597 34.966 20.9822C34.4783 20.8047 33.9662 20.7159 33.4267 20.7159C32.8231 20.7159 32.2958 20.8016 31.8508 20.9699C31.4057 21.1382 31.0582 21.38 30.8053 21.6921C30.5523 22.0043 30.4273 22.3807 30.4273 22.8183C30.4273 23.155 30.5035 23.4549 30.6528 23.718C30.8053 23.9812 31.0186 24.2108 31.296 24.4127C31.5734 24.6147 31.93 24.7922 32.369 24.9452C32.8048 25.0982 33.3017 25.2329 33.8564 25.3492C34.78 25.5359 35.6122 25.7837 36.3529 26.0959C37.0936 26.408 37.7215 26.7783 38.2427 27.2098C38.764 27.6413 39.1602 28.131 39.4285 28.6788C39.6967 29.2265 39.8308 29.8386 39.8308 30.5149C39.8308 31.6809 39.5565 32.6785 39.0108 33.514C38.4652 34.3494 37.6941 34.9921 36.7034 35.4389C35.7128 35.8857 34.5514 36.1091 33.2255 36.1091V36.103Z" fill="#2F3D58"/>
<path d="M41.7031 25.3958V22.5099H50.3263V25.3958H41.7031ZM44.3245 35.8497V19.1191H47.4245V35.8497H44.3245Z" fill="#2F3D58"/>
<path d="M57.5818 36.1035C56.4906 36.1035 55.4969 35.8006 54.6068 35.1916C53.7168 34.5826 53.0005 33.7563 52.464 32.7097C51.9245 31.6631 51.6562 30.4726 51.6562 29.1414C51.6562 27.8102 51.9245 26.6197 52.464 25.5731C53.0005 24.5265 53.732 23.7094 54.6587 23.1188C55.5822 22.5282 56.6247 22.2344 57.7861 22.2344C58.4566 22.2344 59.0724 22.3323 59.6271 22.5251C60.1819 22.7179 60.6696 22.9933 61.0902 23.3483C61.5109 23.7033 61.8584 24.1073 62.1358 24.5632C62.4131 25.0192 62.6021 25.5089 62.7027 26.0322L62.023 25.8547V22.5129H65.1504V35.8526H61.9986V32.6638L62.7301 32.5383C62.6113 32.9943 62.3979 33.438 62.087 33.8665C61.7761 34.298 61.389 34.6775 60.9287 35.0049C60.4654 35.3324 59.9533 35.5986 59.3894 35.8006C58.8255 36.0025 58.225 36.1035 57.5879 36.1035H57.5818ZM58.4384 33.3432C59.1608 33.3432 59.8009 33.1657 60.3556 32.8107C60.9104 32.4557 61.3432 31.963 61.6541 31.3295C61.9651 30.696 62.1205 29.9677 62.1205 29.1414C62.1205 28.3151 61.9651 27.6143 61.6541 26.99C61.3432 26.3657 60.9104 25.8761 60.3556 25.5211C59.8009 25.1661 59.1608 24.9886 58.4384 24.9886C57.716 24.9886 57.0819 25.1661 56.5363 25.5211C55.9907 25.8761 55.567 26.3657 55.2622 26.99C54.9604 27.6143 54.808 28.3304 54.808 29.1414C54.808 29.9524 54.9604 30.6991 55.2622 31.3295C55.564 31.963 55.9877 32.4557 56.5363 32.8107C57.0819 33.1657 57.716 33.3432 58.4384 33.3432Z" fill="#2F3D58"/>
<path d="M68.7422 35.8491V17.1172H71.8422V35.8491H68.7422ZM71.641 31.7728L71.0344 28.8625L77.3379 22.5094H81.4712L71.6379 31.7728H71.641ZM77.719 35.8491L72.8267 29.9L75.0214 28.0271L81.5505 35.8491H77.719Z" fill="#2F3D58"/>
<path d="M89.2744 36.1018C87.8784 36.1018 86.6469 35.808 85.5801 35.2174C84.5132 34.6267 83.6811 33.8219 83.0837 32.7998C82.4862 31.7776 82.1875 30.6117 82.1875 29.2927C82.1875 28.2461 82.3552 27.2943 82.6905 26.4313C83.0257 25.5714 83.4921 24.8247 84.0895 24.1912C84.687 23.5577 85.4002 23.0681 86.2324 22.7223C87.0645 22.3765 87.9759 22.2051 88.9666 22.2051C89.8414 22.2051 90.6552 22.3734 91.4112 22.71C92.1671 23.0467 92.8225 23.5057 93.3772 24.0902C93.932 24.6747 94.3557 25.3633 94.6513 26.1651C94.944 26.9669 95.0842 27.839 95.0659 28.7847L95.0415 29.8741H84.2755L83.6963 27.7472H92.4445L92.0421 28.1787V27.6218C91.9934 27.0985 91.8227 26.6394 91.5392 26.2416C91.2527 25.8468 90.8869 25.5316 90.4419 25.3051C89.9968 25.0787 89.5061 24.9624 88.9666 24.9624C88.1436 24.9624 87.4486 25.1215 86.8877 25.4428C86.3238 25.7642 85.9001 26.2232 85.6136 26.823C85.3271 27.4229 85.1838 28.1696 85.1838 29.0632C85.1838 29.9568 85.3637 30.6759 85.7264 31.3155C86.0861 31.9582 86.6012 32.4509 87.2657 32.7967C87.9302 33.1425 88.7075 33.3139 89.5975 33.3139C90.2193 33.3139 90.7893 33.2129 91.3106 33.0109C91.8318 32.8089 92.3957 32.4448 92.9993 31.9215L94.5355 34.0728C94.0813 34.4951 93.5662 34.8532 92.984 35.15C92.4049 35.4469 91.7952 35.6764 91.1551 35.8447C90.515 36.013 89.8871 36.0987 89.2653 36.0987L89.2744 36.1018Z" fill="#2F3D58"/>
<path d="M108.353 35.8505L103.891 22.5108L107.067 22.4863L110.042 32.0038L109.487 31.9518L112.715 24.5092H114.58L117.885 31.9518L117.229 32.0283L120.229 22.5108H123.405L118.918 35.8505H116.699L113.294 27.851L113.773 27.903L110.545 35.8505H108.35H108.353Z" fill="#2F3D58"/>
<path d="M127.571 19.6758C126.949 19.6758 126.464 19.5198 126.12 19.2076C125.775 18.8955 125.602 18.4517 125.602 17.8795C125.602 17.3409 125.778 16.9002 126.132 16.5635C126.486 16.2269 126.964 16.0586 127.568 16.0586C128.205 16.0586 128.698 16.2147 129.043 16.5268C129.387 16.839 129.561 17.2919 129.561 17.8825C129.561 18.4058 129.384 18.8373 129.031 19.174C128.677 19.5106 128.189 19.6789 127.568 19.6789L127.571 19.6758ZM126.056 35.8494V22.5097H129.156V35.8494H126.056Z" fill="#2F3D58"/>
<path d="M131.906 25.3958V22.5099H140.529V25.3958H131.906ZM134.528 35.8497V19.1191H137.628V35.8497H134.528Z" fill="#2F3D58"/>
<path d="M142.891 35.8491V17.1172H145.966V25.2422L145.387 25.5452C145.555 24.9393 145.884 24.3853 146.372 23.8865C146.859 23.3877 147.438 22.9868 148.112 22.6838C148.783 22.3809 149.475 22.2278 150.179 22.2278C151.188 22.2278 152.032 22.4298 152.712 22.8338C153.391 23.2377 153.907 23.8467 154.251 24.6577C154.595 25.4687 154.769 26.4786 154.769 27.6966V35.8461H151.669V27.923C151.669 27.2498 151.578 26.6867 151.392 26.2399C151.206 25.7931 150.922 25.4626 150.535 25.2514C150.148 25.0402 149.679 24.9423 149.124 24.9607C148.67 24.9607 148.255 25.0341 147.877 25.1749C147.499 25.3187 147.17 25.5207 146.893 25.7808C146.615 26.044 146.396 26.3409 146.237 26.6805C146.079 27.0172 145.997 27.3905 145.997 27.7945V35.843H142.897L142.891 35.8491Z" fill="#2F3D58"/>
<path d="M30.6362 62.1698C29.7858 62.1698 29.0085 61.9341 28.3074 61.4598C27.6064 60.9854 27.0455 60.3428 26.6279 59.5257C26.2103 58.7086 26 57.7905 26 56.7623C26 55.734 26.2134 54.8006 26.6371 53.9896C27.0638 53.1817 27.6399 52.5452 28.3654 52.0862C29.0908 51.6271 29.9077 51.3945 30.813 51.3945C31.3495 51.3945 31.8402 51.4741 32.2853 51.6302C32.7303 51.7893 33.1205 52.0096 33.4558 52.2912C33.7911 52.5727 34.0654 52.9002 34.2818 53.2674C34.4982 53.6347 34.6323 54.0294 34.6841 54.4517L34.233 54.2926V51.6087H36.2753V61.9647H34.233V59.4981L34.7055 59.3604C34.6262 59.7154 34.4677 60.0612 34.2239 60.3948C33.98 60.7314 33.6752 61.0283 33.3003 61.2915C32.9284 61.5546 32.5139 61.7658 32.0628 61.9219C31.6116 62.078 31.1361 62.1575 30.6393 62.1575L30.6362 62.1698ZM31.1666 60.2938C31.7823 60.2938 32.3249 60.1439 32.7973 59.8409C33.2698 59.5379 33.6386 59.1217 33.9069 58.5892C34.1751 58.0567 34.3092 57.4478 34.3092 56.7653C34.3092 56.0829 34.1751 55.4953 33.9069 54.9689C33.6386 54.4426 33.2698 54.0294 32.7973 53.7265C32.3249 53.4235 31.7823 53.2735 31.1666 53.2735C30.5509 53.2735 30.0296 53.4235 29.5663 53.7265C29.1 54.0294 28.7342 54.4426 28.4659 54.9689C28.1977 55.4953 28.0636 56.0921 28.0636 56.7653C28.0636 57.4386 28.1977 58.0567 28.4659 58.5892C28.7342 59.1217 29.1 59.541 29.5663 59.8409C30.0296 60.1439 30.5661 60.2938 31.1666 60.2938Z" fill="#2F3D58"/>
<path d="M39.1016 61.9697V51.6138H41.1255V53.7437L40.7719 53.9794C40.903 53.5203 41.1591 53.0949 41.537 52.7063C41.918 52.3176 42.3692 52.0024 42.8934 51.7607C43.4177 51.5189 43.9542 51.3965 44.5059 51.3965C45.2923 51.3965 45.9477 51.5526 46.472 51.8586C46.9962 52.1677 47.3895 52.639 47.6516 53.2694C47.9137 53.8998 48.0448 54.6955 48.0448 55.6564V61.9697H46.0208V55.7941C46.0208 55.2035 45.9416 54.7138 45.7861 54.3252C45.6307 53.9365 45.3868 53.655 45.0607 53.4775C44.7345 53.3 44.3261 53.2235 43.8414 53.251C43.4482 53.251 43.0885 53.3122 42.7593 53.4377C42.4332 53.5632 42.1467 53.7376 41.9059 53.961C41.662 54.1844 41.473 54.4445 41.3359 54.7414C41.1987 55.0382 41.1286 55.3565 41.1286 55.6992V61.9728H39.1046L39.1016 61.9697Z" fill="#2F3D58"/>
<path d="M55.1038 62.1695C54.1619 62.1695 53.3176 61.9369 52.5799 61.4687C51.8392 61.0004 51.254 60.3639 50.8211 59.556C50.3883 58.7481 50.1719 57.8239 50.1719 56.7834C50.1719 55.7429 50.3853 54.8218 50.812 54.0108C51.2387 53.2029 51.8179 52.5633 52.5494 52.0981C53.284 51.633 54.1162 51.3973 55.0459 51.3973C55.558 51.3973 56.0518 51.4799 56.5303 51.6452C57.0089 51.8104 57.4386 52.0338 57.8166 52.3154C58.1976 52.6 58.4933 52.906 58.7097 53.2427C58.9261 53.5793 59.0328 53.9159 59.0328 54.2587L58.4445 54.2985V47.373H60.4685V61.9706H58.4445V59.504H58.8377C58.8377 59.8192 58.7341 60.1313 58.5238 60.4404C58.3135 60.7495 58.0361 61.0341 57.6886 61.2973C57.3411 61.5605 56.9418 61.7716 56.4907 61.9277C56.0396 62.0838 55.5762 62.1634 55.1068 62.1634L55.1038 62.1695ZM55.3781 60.4129C55.9938 60.4129 56.5364 60.2537 57.0089 59.9385C57.4813 59.6233 57.8501 59.1918 58.1184 58.6471C58.3866 58.1024 58.5207 57.4811 58.5207 56.7834C58.5207 56.0856 58.3866 55.4644 58.1184 54.9197C57.8501 54.375 57.4783 53.9435 57.0089 53.6282C56.5364 53.313 55.9938 53.1539 55.3781 53.1539C54.7624 53.1539 54.2198 53.313 53.7474 53.6282C53.2749 53.9435 52.9061 54.375 52.6378 54.9197C52.3696 55.4644 52.2355 56.0856 52.2355 56.7834C52.2355 57.4811 52.3696 58.1024 52.6378 58.6471C52.9061 59.1918 53.2749 59.6233 53.7474 59.9385C54.2198 60.2537 54.7624 60.4129 55.3781 60.4129Z" fill="#2F3D58"/>
<path d="M72.3729 62.1673C71.6383 62.1673 71.0012 61.996 70.4587 61.6532C69.9161 61.3104 69.4954 60.833 69.1998 60.2118C68.9041 59.5936 68.7578 58.8561 68.7578 58.0023V51.6094H70.7818V57.4484C70.7818 58.0543 70.8763 58.5776 71.0683 59.0152C71.2573 59.4559 71.5316 59.7956 71.8943 60.0312C72.254 60.2669 72.6899 60.3862 73.202 60.3862C73.583 60.3862 73.9305 60.325 74.2445 60.1996C74.5584 60.0741 74.8297 59.8997 75.0614 59.6763C75.29 59.4529 75.4698 59.1836 75.6009 58.8683C75.7319 58.5531 75.799 58.2104 75.799 57.8432V51.6094H77.823V61.9653H75.799V59.7956L76.1526 59.56C75.9971 60.0465 75.7289 60.4872 75.357 60.882C74.9852 61.2768 74.5432 61.5889 74.0311 61.8184C73.519 62.048 72.9703 62.1643 72.379 62.1643L72.3729 62.1673Z" fill="#2F3D58"/>
<path d="M80.6406 61.9697V51.6138H82.6646V53.7437L82.311 53.9794C82.4421 53.5203 82.6981 53.0949 83.0761 52.7063C83.4571 52.3176 83.9082 52.0024 84.4325 51.7607C84.9568 51.5189 85.4933 51.3965 86.045 51.3965C86.8314 51.3965 87.4867 51.5526 88.011 51.8586C88.5353 52.1677 88.9285 52.639 89.1907 53.2694C89.4528 53.8998 89.5839 54.6955 89.5839 55.6564V61.9697H87.5599V55.7941C87.5599 55.2035 87.4806 54.7138 87.3252 54.3252C87.1697 53.9365 86.9259 53.655 86.5997 53.4775C86.2736 53.3 85.8651 53.2235 85.3805 53.251C84.9873 53.251 84.6276 53.3122 84.2984 53.4377C83.9722 53.5632 83.6857 53.7376 83.4449 53.961C83.201 54.1844 83.0121 54.4445 82.8749 54.7414C82.7377 55.0382 82.6676 55.3565 82.6676 55.6992V61.9728H80.6437L80.6406 61.9697Z" fill="#2F3D58"/>
<path d="M92.375 61.9706V47.373H94.399V61.9706H92.375Z" fill="#2F3D58"/>
<path d="M101.705 62.1687C100.696 62.1687 99.7966 61.9361 99.004 61.4679C98.2115 60.9996 97.5867 60.3631 97.1264 59.5552C96.6692 58.7473 96.4375 57.8231 96.4375 56.7826C96.4375 55.7421 96.6661 54.8209 97.1264 54.01C97.5836 53.202 98.2115 52.5625 99.004 52.0973C99.7966 51.6321 100.696 51.3965 101.705 51.3965C102.714 51.3965 103.595 51.6291 104.387 52.0973C105.18 52.5655 105.804 53.202 106.265 54.01C106.722 54.8179 106.954 55.7421 106.954 56.7826C106.954 57.8231 106.725 58.7442 106.265 59.5552C105.804 60.3631 105.18 61.0027 104.387 61.4679C103.595 61.9361 102.701 62.1687 101.705 62.1687ZM101.705 60.3141C102.32 60.3141 102.869 60.1611 103.354 59.852C103.838 59.5429 104.219 59.1237 104.494 58.5881C104.768 58.0526 104.899 57.4528 104.887 56.7826C104.899 56.1001 104.768 55.4911 104.494 54.9586C104.219 54.4262 103.838 54.01 103.354 53.707C102.869 53.404 102.317 53.2541 101.705 53.2541C101.092 53.2541 100.534 53.4101 100.043 53.7162C99.5527 54.0253 99.1686 54.4445 98.8943 54.9801C98.62 55.5156 98.4889 56.1154 98.5011 56.7856C98.4889 57.4558 98.62 58.0587 98.8943 58.5912C99.1686 59.1237 99.5527 59.546 100.043 59.8551C100.534 60.1642 101.089 60.3172 101.705 60.3172V60.3141Z" fill="#2F3D58"/>
<path d="M113.542 62.1687C112.585 62.1687 111.732 61.933 110.979 61.4587C110.226 60.9843 109.629 60.3417 109.19 59.5246C108.751 58.7105 108.531 57.7955 108.531 56.7826C108.531 55.7696 108.751 54.8546 109.19 54.0406C109.629 53.2265 110.223 52.5808 110.979 52.1065C111.732 51.6321 112.588 51.3965 113.542 51.3965C114.496 51.3965 115.295 51.5832 116.048 51.9596C116.801 52.3329 117.374 52.844 117.767 53.4897L116.648 54.8699C116.438 54.5669 116.17 54.2915 115.844 54.0406C115.518 53.7896 115.17 53.5938 114.801 53.4499C114.432 53.3061 114.082 53.2326 113.741 53.2326C113.113 53.2326 112.552 53.3887 112.061 53.6948C111.57 54.0008 111.18 54.4292 110.891 54.9678C110.601 55.5064 110.458 56.1124 110.458 56.7826C110.458 57.4528 110.607 58.0556 110.909 58.5881C111.211 59.1206 111.61 59.546 112.107 59.8612C112.604 60.1764 113.155 60.3355 113.756 60.3355C114.109 60.3355 114.454 60.2774 114.786 60.1581C115.118 60.0387 115.444 59.8612 115.758 59.6256C116.072 59.3899 116.368 59.0992 116.642 58.7565L117.761 60.1366C117.34 60.7273 116.743 61.2139 115.963 61.5964C115.182 61.9789 114.375 62.1687 113.536 62.1687H113.542Z" fill="#2F3D58"/>
<path d="M119.672 61.9706V47.373H121.696V61.9706H119.672ZM121.519 58.7358L121.422 56.5263L126.353 51.6146H129.085L121.519 58.7358ZM126.628 61.9706L122.738 57.4138L124.174 56.0918L129.225 61.9706H126.631H126.628Z" fill="#2F3D58"/>
<path d="M140.167 62.1466C139.289 62.1466 138.506 61.914 137.82 61.4458C137.131 60.9806 136.585 60.3349 136.18 59.5117C135.775 58.6885 135.57 57.7582 135.57 56.7207C135.57 55.6833 135.775 54.7162 136.18 53.8992C136.585 53.0851 137.143 52.4425 137.85 51.9742C138.557 51.5091 139.362 51.2734 140.267 51.2734C140.764 51.2734 141.222 51.3469 141.633 51.4907C142.045 51.6346 142.41 51.8365 142.724 52.0936C143.038 52.3507 143.306 52.6475 143.529 52.9811C143.752 53.3177 143.916 53.6758 144.02 54.0552L143.37 53.9757V51.4907H146.495V61.966H143.313V59.4413L144.02 59.423C143.916 59.7902 143.745 60.1391 143.508 60.4696C143.273 60.797 142.983 61.0877 142.642 61.3387C142.301 61.5896 141.923 61.7855 141.502 61.9293C141.081 62.0732 140.636 62.1466 140.167 62.1466ZM141.03 59.4842C141.514 59.4842 141.935 59.374 142.288 59.1475C142.642 58.9241 142.916 58.6059 143.114 58.1897C143.313 57.7765 143.41 57.2869 143.41 56.7207C143.41 56.1546 143.313 55.6649 143.114 55.2518C142.919 54.8387 142.642 54.5143 142.288 54.2847C141.935 54.0552 141.514 53.9389 141.03 53.9389C140.545 53.9389 140.149 54.0552 139.801 54.2847C139.454 54.5143 139.182 54.8356 138.987 55.2518C138.789 55.6649 138.692 56.1576 138.692 56.7207C138.692 57.2838 138.789 57.7765 138.987 58.1897C139.182 58.6028 139.457 58.9241 139.801 59.1475C140.149 59.3709 140.557 59.4842 141.03 59.4842Z" fill="#2F3D58"/>
<path d="M149.242 61.9692V51.4938H152.229L152.327 53.3881L151.915 53.4065C152.074 53.0638 152.272 52.7608 152.516 52.4976C152.757 52.2344 153.034 52.0141 153.342 51.8366C153.65 51.6591 153.97 51.5244 154.305 51.4326C154.64 51.3408 154.976 51.2949 155.317 51.2949C155.829 51.2949 156.293 51.3745 156.713 51.5306C157.134 51.6897 157.5 51.9406 157.814 52.2895C158.128 52.6384 158.377 53.1066 158.56 53.7003L158.07 53.6605L158.228 53.3453C158.399 53.0301 158.618 52.7424 158.887 52.4884C159.155 52.2314 159.453 52.0141 159.78 51.8366C160.106 51.6591 160.447 51.5244 160.801 51.4326C161.154 51.3408 161.496 51.2949 161.822 51.2949C162.648 51.2949 163.334 51.4571 163.885 51.7784C164.434 52.0998 164.852 52.5833 165.132 53.229C165.413 53.8747 165.556 54.6551 165.556 55.5762V61.9692H162.392V55.8333C162.392 55.414 162.334 55.0652 162.215 54.7867C162.096 54.5082 161.922 54.3032 161.694 54.1655C161.465 54.0277 161.179 53.9574 160.84 53.9574C160.566 53.9574 160.313 54.0033 160.084 54.0951C159.856 54.1869 159.658 54.3124 159.496 54.4684C159.332 54.6276 159.204 54.8112 159.112 55.0193C159.021 55.2304 158.975 55.4661 158.975 55.7293V61.963H155.811V55.8088C155.811 55.4141 155.753 55.0805 155.634 54.802C155.515 54.5266 155.338 54.3154 155.104 54.1716C154.869 54.0277 154.592 53.9543 154.278 53.9543C154.003 53.9543 153.75 54.0002 153.522 54.092C153.293 54.1838 153.095 54.3093 152.933 54.4654C152.769 54.6245 152.641 54.8081 152.549 55.0162C152.458 55.2274 152.412 55.4569 152.412 55.7078V61.963H149.248L149.242 61.9692Z" fill="#2F3D58"/>
<path d="M172.018 62.1466C171.141 62.1466 170.357 61.914 169.671 61.4458C168.983 60.9806 168.437 60.3349 168.032 59.5117C167.626 58.6885 167.422 57.7582 167.422 56.7207C167.422 55.6833 167.626 54.7162 168.032 53.8992C168.437 53.0851 168.995 52.4425 169.702 51.9742C170.409 51.5091 171.214 51.2734 172.119 51.2734C172.616 51.2734 173.073 51.3469 173.485 51.4907C173.896 51.6346 174.262 51.8365 174.576 52.0936C174.89 52.3507 175.158 52.6475 175.381 52.9811C175.603 53.3177 175.768 53.6758 175.871 54.0552L175.222 53.9757V51.4907H178.346V61.966H175.164V59.4413L175.871 59.423C175.768 59.7902 175.597 60.1391 175.359 60.4696C175.125 60.797 174.835 61.0877 174.494 61.3387C174.152 61.5896 173.774 61.7855 173.354 61.9293C172.933 62.0732 172.488 62.1466 172.018 62.1466ZM172.881 59.4842C173.366 59.4842 173.786 59.374 174.14 59.1475C174.494 58.9241 174.768 58.6059 174.966 58.1897C175.164 57.7765 175.262 57.2869 175.262 56.7207C175.262 56.1546 175.164 55.6649 174.966 55.2518C174.771 54.8387 174.494 54.5143 174.14 54.2847C173.786 54.0552 173.366 53.9389 172.881 53.9389C172.396 53.9389 172 54.0552 171.653 54.2847C171.305 54.5143 171.034 54.8356 170.839 55.2518C170.641 55.6649 170.543 56.1576 170.543 56.7207C170.543 57.2838 170.641 57.7765 170.839 58.1897C171.034 58.6028 171.308 58.9241 171.653 59.1475C172 59.3709 172.409 59.4842 172.881 59.4842Z" fill="#2F3D58"/>
<path d="M180.703 61.9714V60.1567L186.245 53.014V54.0606H180.703V51.4961H189.351V53.3904L184.105 60.3158L184.026 59.4069H189.527V61.9714H180.706H180.703Z" fill="#2F3D58"/>
<path d="M193.673 49.423C193.085 49.423 192.621 49.2822 192.289 48.9976C191.954 48.7161 191.789 48.3091 191.789 47.7857C191.789 47.3114 191.96 46.9258 192.301 46.6228C192.643 46.3199 193.1 46.1699 193.676 46.1699C194.252 46.1699 194.724 46.3107 195.051 46.5953C195.377 46.8768 195.541 47.2747 195.541 47.7888C195.541 48.3029 195.374 48.6702 195.041 48.9731C194.709 49.2761 194.252 49.4261 193.676 49.4261L193.673 49.423ZM192.1 61.9701V51.4948H195.243V61.9701H192.1Z" fill="#2F3D58"/>
<path d="M198.188 61.9699V51.4946H201.175L201.272 53.6246L200.644 53.8602C200.788 53.3859 201.047 52.9574 201.422 52.5688C201.793 52.1801 202.245 51.868 202.769 51.6323C203.293 51.3967 203.842 51.2773 204.418 51.2773C205.204 51.2773 205.866 51.4395 206.402 51.7609C206.939 52.0822 207.344 52.5627 207.621 53.2023C207.896 53.8388 208.033 54.6192 208.033 55.5403V61.973H204.869V55.7974C204.869 55.3781 204.811 55.0292 204.692 54.7508C204.573 54.4723 204.393 54.2672 204.153 54.1295C203.909 53.9918 203.613 53.9275 203.26 53.9428C202.985 53.9428 202.729 53.9857 202.491 54.0714C202.257 54.1571 202.053 54.2825 201.882 54.4447C201.711 54.61 201.577 54.7967 201.479 55.0078C201.382 55.219 201.333 55.4485 201.333 55.6994V61.973H198.191L198.188 61.9699Z" fill="#2F3D58"/>
<path d="M215.439 66.5092C214.589 66.5092 213.739 66.3837 212.894 66.1358C212.05 65.8849 211.364 65.5636 210.84 65.1688L211.94 62.9593C212.214 63.1429 212.519 63.3051 212.855 63.4428C213.19 63.5805 213.54 63.6907 213.906 63.7672C214.272 63.8467 214.647 63.8865 215.025 63.8865C215.692 63.8865 216.235 63.7886 216.656 63.5897C217.076 63.3908 217.39 63.0939 217.597 62.693C217.808 62.2921 217.911 61.7902 217.911 61.1843V59.4277L218.521 59.5256C218.43 59.9602 218.204 60.355 217.844 60.71C217.485 61.0649 217.043 61.3496 216.518 61.5668C215.994 61.7841 215.436 61.8912 214.848 61.8912C213.906 61.8912 213.062 61.6709 212.324 61.2302C211.584 60.7895 211.001 60.1775 210.575 59.3971C210.148 58.6167 209.938 57.7109 209.938 56.6857C209.938 55.6605 210.148 54.7026 210.565 53.8947C210.983 53.0868 211.562 52.4472 212.294 51.9821C213.028 51.5169 213.851 51.2812 214.769 51.2812C215.162 51.2812 215.537 51.3272 215.9 51.419C216.259 51.5108 216.595 51.6332 216.903 51.7831C217.21 51.9331 217.485 52.1106 217.729 52.3156C217.969 52.5207 218.167 52.741 218.317 52.9766C218.466 53.2123 218.57 53.4571 218.622 53.705L217.972 53.8641L218.091 51.4955H221.078V61.1231C221.078 61.9769 220.95 62.7389 220.694 63.403C220.438 64.0671 220.066 64.6332 219.576 65.0984C219.085 65.5636 218.491 65.9155 217.799 66.1542C217.104 66.3898 216.317 66.5092 215.439 66.5092ZM215.519 59.4461C216.031 59.4461 216.473 59.3298 216.845 59.1003C217.216 58.8707 217.506 58.5525 217.71 58.1424C217.914 57.7354 218.015 57.2549 218.015 56.701C218.015 56.1471 217.914 55.6666 217.71 55.2504C217.506 54.8373 217.22 54.5129 216.845 54.2834C216.473 54.0539 216.031 53.9376 215.519 53.9376C215.007 53.9376 214.589 54.0539 214.223 54.2834C213.857 54.5129 213.571 54.8342 213.37 55.2504C213.165 55.6636 213.065 56.1471 213.065 56.701C213.065 57.2549 213.165 57.7323 213.37 58.1424C213.574 58.5494 213.857 58.8707 214.223 59.1003C214.589 59.3298 215.022 59.4461 215.519 59.4461Z" fill="#2F3D58"/>
<path d="M230.102 61.97V51.4946H233.089L233.226 54.9068L232.638 54.255C232.796 53.6888 233.052 53.1839 233.415 52.7371C233.775 52.2903 234.198 51.9353 234.683 51.6721C235.168 51.4089 235.686 51.2773 236.234 51.2773C236.469 51.2773 236.689 51.2957 236.893 51.3355C237.097 51.3753 237.283 51.4212 237.454 51.4732L236.588 54.965C236.445 54.8732 236.25 54.7967 236.009 54.7385C235.768 54.6804 235.515 54.6498 235.253 54.6498C234.963 54.6498 234.695 54.6987 234.448 54.7967C234.201 54.8946 233.991 55.0354 233.82 55.222C233.65 55.4057 233.515 55.6229 233.418 55.8739C233.32 56.1248 233.272 56.4064 233.272 56.7216V61.97H230.108H230.102Z" fill="#2F3D58"/>
<path d="M243.58 62.1697C242.428 62.1697 241.425 61.9371 240.574 61.4689C239.724 61.0007 239.062 60.3641 238.59 59.5562C238.118 58.7483 237.883 57.8241 237.883 56.7836C237.883 55.9818 238.014 55.2443 238.276 54.5741C238.538 53.9039 238.904 53.3225 239.376 52.8297C239.849 52.337 240.407 51.9545 241.056 51.6852C241.705 51.4159 242.415 51.2812 243.187 51.2812C243.921 51.2812 244.592 51.4128 245.201 51.676C245.811 51.9392 246.338 52.3064 246.783 52.7808C247.228 53.2551 247.57 53.8121 247.805 54.4578C248.039 55.1035 248.146 55.8074 248.118 56.5694L248.1 57.4171H239.788L239.337 55.6421H245.546L245.211 56.0155V55.6207C245.183 55.2933 245.083 54.9995 244.906 54.7424C244.729 54.4854 244.497 54.2864 244.208 54.1395C243.918 53.9957 243.592 53.9223 243.226 53.9223C242.714 53.9223 242.278 54.0233 241.919 54.2283C241.559 54.4333 241.288 54.7271 241.102 55.1158C240.916 55.5044 240.827 55.9818 240.827 56.5449C240.827 57.108 240.949 57.6283 241.19 58.0536C241.434 58.4821 241.787 58.8126 242.251 59.0513C242.714 59.2869 243.269 59.4063 243.912 59.4063C244.357 59.4063 244.753 59.342 245.101 59.2104C245.448 59.0788 245.823 58.8554 246.232 58.5402L247.704 60.6304C247.299 60.9854 246.866 61.2761 246.408 61.4995C245.948 61.7229 245.482 61.8912 245.003 62.0014C244.525 62.1116 244.049 62.1697 243.58 62.1697Z" fill="#2F3D58"/>
<path d="M252.204 61.9686L248.766 51.4933H252.085L254.011 58.2993L253.6 58.2198L255.761 52.9316H257.608L259.888 58.2381L259.437 58.2779L261.364 51.4902H264.683L261.126 61.9656H258.806L256.548 56.3438L256.782 56.3836L254.524 61.9656H252.204V61.9686Z" fill="#2F3D58"/>
<path d="M269.878 62.1466C269 62.1466 268.217 61.914 267.531 61.4458C266.842 60.9806 266.296 60.3349 265.891 59.5117C265.485 58.6885 265.281 57.7582 265.281 56.7207C265.281 55.6833 265.485 54.7162 265.891 53.8992C266.296 53.0851 266.854 52.4425 267.561 51.9742C268.268 51.5091 269.073 51.2734 269.978 51.2734C270.475 51.2734 270.933 51.3469 271.344 51.4907C271.756 51.6346 272.121 51.8365 272.435 52.0936C272.749 52.3507 273.017 52.6475 273.24 52.9811C273.462 53.3177 273.627 53.6758 273.731 54.0552L273.081 53.9757V51.4907H276.206V61.966H273.024V59.4413L273.731 59.423C273.627 59.7902 273.456 60.1391 273.219 60.4696C272.984 60.797 272.694 61.0877 272.353 61.3387C272.012 61.5896 271.634 61.7855 271.213 61.9293C270.792 62.0732 270.347 62.1466 269.878 62.1466ZM270.744 59.4842C271.228 59.4842 271.649 59.374 272.002 59.1475C272.356 58.9241 272.63 58.6059 272.828 58.1897C273.027 57.7765 273.124 57.2869 273.124 56.7207C273.124 56.1546 273.027 55.6649 272.828 55.2518C272.633 54.8387 272.356 54.5143 272.002 54.2847C271.649 54.0552 271.228 53.9389 270.744 53.9389C270.259 53.9389 269.863 54.0552 269.515 54.2847C269.168 54.5143 268.896 54.8356 268.701 55.2518C268.503 55.6649 268.406 56.1576 268.406 56.7207C268.406 57.2838 268.503 57.7765 268.701 58.1897C268.896 58.6028 269.171 58.9241 269.515 59.1475C269.863 59.3709 270.271 59.4842 270.744 59.4842Z" fill="#2F3D58"/>
<path d="M278.969 61.97V51.4946H281.956L282.093 54.9068L281.505 54.255C281.663 53.6888 281.919 53.1839 282.282 52.7371C282.642 52.2903 283.065 51.9353 283.55 51.6721C284.035 51.4089 284.553 51.2773 285.102 51.2773C285.336 51.2773 285.556 51.2957 285.76 51.3355C285.964 51.3753 286.15 51.4212 286.321 51.4732L285.455 54.965C285.312 54.8732 285.117 54.7967 284.876 54.7385C284.635 54.6804 284.382 54.6498 284.12 54.6498C283.831 54.6498 283.562 54.6987 283.315 54.7967C283.069 54.8946 282.858 55.0354 282.687 55.222C282.517 55.4057 282.383 55.6229 282.285 55.8739C282.188 56.1248 282.139 56.4064 282.139 56.7216V61.97H278.975H278.969Z" fill="#2F3D58"/>
<path d="M291.429 62.1861C290.524 62.1861 289.722 61.9536 289.021 61.4853C288.32 61.0171 287.765 60.3745 287.36 59.5512C286.954 58.728 286.75 57.7916 286.75 56.7389C286.75 55.6861 286.954 54.7497 287.36 53.9265C287.765 53.1033 288.323 52.4575 289.03 51.9832C289.737 51.5089 290.551 51.2732 291.466 51.2732C291.938 51.2732 292.389 51.3467 292.822 51.4905C293.255 51.6343 293.648 51.8332 294.002 52.0811C294.355 52.3321 294.645 52.6167 294.867 52.938C295.09 53.2593 295.221 53.5929 295.26 53.9356L294.514 54.1131V47.3652H297.678V61.9627H294.748L294.572 59.5757L295.199 59.6737C295.16 60.0011 295.032 60.3194 294.815 60.6193C294.599 60.9192 294.322 61.1885 293.98 61.418C293.639 61.6475 293.249 61.8312 292.81 61.9689C292.371 62.1066 291.907 62.177 291.426 62.177L291.429 62.1861ZM292.234 59.5635C292.718 59.5635 293.136 59.4441 293.493 59.2085C293.846 58.9729 294.117 58.6423 294.306 58.2231C294.495 57.8008 294.593 57.3081 294.593 56.745C294.593 56.1819 294.498 55.6678 294.306 55.2454C294.117 54.8262 293.846 54.4957 293.493 54.26C293.139 54.0244 292.718 53.905 292.234 53.905C291.749 53.905 291.331 54.0244 290.987 54.26C290.639 54.4957 290.368 54.8262 290.173 55.2454C289.975 55.6678 289.877 56.1666 289.877 56.745C289.877 57.3234 289.975 57.8038 290.173 58.2231C290.371 58.6454 290.642 58.9729 290.987 59.2085C291.334 59.4441 291.749 59.5635 292.234 59.5635Z" fill="#2F3D58"/>
<path d="M303.846 62.1689C302.825 62.1689 301.923 62.0036 301.145 61.6762C300.365 61.3487 299.746 60.908 299.289 60.3541L301.194 58.6955C301.6 59.1025 302.06 59.4024 302.569 59.5921C303.081 59.7818 303.566 59.8798 304.023 59.8798C304.206 59.8798 304.37 59.8614 304.514 59.8216C304.657 59.7818 304.779 59.7268 304.876 59.6533C304.974 59.5799 305.05 59.4972 305.102 59.3963C305.154 59.2983 305.181 59.182 305.181 59.0504C305.181 58.7873 305.062 58.5822 304.828 58.4384C304.709 58.3741 304.514 58.2946 304.239 58.2028C303.965 58.1109 303.611 58.0069 303.178 57.8875C302.563 57.7284 302.029 57.5417 301.578 57.3244C301.127 57.1072 300.755 56.8532 300.469 56.5655C300.207 56.2901 300.002 55.984 299.859 55.6474C299.716 55.3108 299.643 54.9344 299.643 54.5121C299.643 54.0255 299.758 53.5848 299.987 53.19C300.216 52.7952 300.524 52.4525 300.911 52.1648C301.298 51.8772 301.743 51.6538 302.246 51.5038C302.749 51.3539 303.27 51.2773 303.806 51.2773C304.383 51.2773 304.934 51.3447 305.458 51.4763C305.983 51.6079 306.47 51.7915 306.922 52.0271C307.373 52.2628 307.775 52.5474 308.129 52.8748L306.477 54.7293C306.242 54.5059 305.977 54.304 305.681 54.1265C305.385 53.949 305.081 53.8082 304.767 53.7011C304.453 53.597 304.163 53.542 303.901 53.542C303.706 53.542 303.532 53.5573 303.38 53.5909C303.23 53.6246 303.102 53.6766 302.996 53.75C302.892 53.8235 302.813 53.9092 302.761 54.0071C302.709 54.105 302.682 54.2213 302.682 54.3529C302.682 54.4845 302.718 54.61 302.788 54.7263C302.858 54.8426 302.962 54.9436 303.093 55.0231C303.224 55.1027 303.435 55.1914 303.721 55.2894C304.008 55.3873 304.401 55.5097 304.901 55.6535C305.516 55.8249 306.047 56.0146 306.492 56.2258C306.937 56.437 307.29 56.6879 307.553 56.9756C307.763 57.199 307.918 57.4591 308.025 57.7559C308.129 58.0528 308.184 58.3711 308.184 58.7138C308.184 59.384 307.998 59.9808 307.623 60.498C307.248 61.0151 306.736 61.4252 306.08 61.7221C305.425 62.0189 304.678 62.1658 303.84 62.1658L303.846 62.1689Z" fill="#2F3D58"/>
<path d="M311.687 62.187C311.15 62.187 310.729 62.037 310.428 61.7341C310.126 61.4311 309.977 60.9965 309.977 60.4334C309.977 59.9071 310.135 59.4786 310.449 59.1512C310.763 58.8237 311.174 58.6585 311.687 58.6585C312.223 58.6585 312.641 58.8146 312.933 59.1206C313.229 59.4297 313.375 59.8673 313.375 60.4334C313.375 60.9476 313.22 61.3668 312.903 61.6973C312.586 62.0279 312.183 62.1901 311.684 62.1901L311.687 62.187ZM310.705 56.9386C310.601 56.1368 310.495 55.3075 310.391 54.4537C310.287 53.5999 310.202 52.7491 310.135 51.9075C310.068 51.0659 310.038 50.258 310.038 49.4807V47.9414H313.357V49.4807C313.357 50.2703 313.323 51.0935 313.259 51.9473C313.192 52.8011 313.11 53.6549 313.003 54.5026C312.9 55.3503 312.787 56.1644 312.668 56.9386H310.702H310.705Z" fill="#2F3D58"/>
<path d="M359.922 34.7927V25.416H361.364V33.4003H365.741V34.7927H359.925H359.922Z" fill="#2F3D58"/>
<path d="M370.569 34.927C369.85 34.927 369.21 34.774 368.655 34.4649C368.1 34.1558 367.664 33.7335 367.347 33.198C367.03 32.6624 366.875 32.0473 366.875 31.3496C366.875 30.7956 366.963 30.2907 367.143 29.8347C367.323 29.3787 367.567 28.984 367.884 28.6504C368.201 28.3168 368.579 28.0567 369.018 27.8731C369.457 27.6895 369.935 27.5977 370.45 27.5977C370.905 27.5977 371.325 27.6833 371.718 27.8578C372.109 28.0322 372.45 28.2709 372.74 28.5739C373.029 28.8768 373.252 29.238 373.407 29.6511C373.563 30.0642 373.636 30.5202 373.627 31.0099L373.614 31.6005H367.89L367.582 30.5019H372.426L372.224 30.7283V30.407C372.197 30.1132 372.1 29.85 371.932 29.6174C371.761 29.3849 371.548 29.2012 371.292 29.0666C371.033 28.9319 370.752 28.8646 370.45 28.8646C369.969 28.8646 369.567 28.9564 369.237 29.14C368.908 29.3236 368.658 29.5899 368.49 29.9449C368.323 30.2968 368.238 30.7344 368.238 31.2516C368.238 31.7413 368.338 32.1697 368.545 32.5308C368.75 32.8919 369.039 33.1704 369.414 33.3693C369.786 33.5652 370.219 33.6631 370.71 33.6631C371.057 33.6631 371.38 33.605 371.676 33.4887C371.975 33.3724 372.298 33.1612 372.642 32.8583L373.337 33.8376C373.124 34.0518 372.865 34.2385 372.557 34.4006C372.249 34.5628 371.926 34.6883 371.584 34.7832C371.243 34.878 370.905 34.924 370.578 34.924L370.569 34.927Z" fill="#2F3D58"/>
<path d="M377.805 34.9273C377.226 34.9273 376.699 34.7682 376.223 34.4438C375.747 34.1225 375.366 33.6849 375.083 33.131C374.8 32.5771 374.656 31.9528 374.656 31.255C374.656 30.5573 374.8 29.9238 375.089 29.3729C375.379 28.8252 375.769 28.3937 376.263 28.0815C376.756 27.7694 377.311 27.6133 377.924 27.6133C378.29 27.6133 378.622 27.6684 378.924 27.7755C379.225 27.8826 379.491 28.0325 379.716 28.2253C379.942 28.4181 380.131 28.6385 380.277 28.8894C380.423 29.1404 380.515 29.4066 380.551 29.6943L380.244 29.5872V27.7663H381.63V34.7988H380.244V33.1248L380.564 33.03C380.509 33.2717 380.402 33.5043 380.237 33.7338C380.073 33.9603 379.862 34.1653 379.609 34.3428C379.356 34.5203 379.076 34.6642 378.768 34.7713C378.46 34.8784 378.14 34.9304 377.802 34.9304L377.805 34.9273ZM378.168 33.6543C378.585 33.6543 378.954 33.5502 379.274 33.3452C379.594 33.1401 379.844 32.8555 380.027 32.4944C380.21 32.1333 380.301 31.7202 380.301 31.255C380.301 30.7898 380.21 30.392 380.027 30.037C379.844 29.679 379.594 29.3974 379.274 29.1924C378.954 28.9873 378.585 28.8833 378.168 28.8833C377.75 28.8833 377.397 28.9873 377.08 29.1924C376.763 29.3974 376.516 29.679 376.333 30.037C376.15 30.3951 376.058 30.799 376.058 31.255C376.058 31.711 376.15 32.1333 376.333 32.4944C376.516 32.8555 376.763 33.1401 377.08 33.3452C377.397 33.5502 377.756 33.6543 378.168 33.6543Z" fill="#2F3D58"/>
<path d="M383.562 34.7927V27.7602H384.949V29.9697L384.815 29.4341C384.913 29.0945 385.08 28.7854 385.315 28.5099C385.55 28.2345 385.821 28.0142 386.129 27.855C386.437 27.6929 386.754 27.6133 387.083 27.6133C387.235 27.6133 387.379 27.6255 387.516 27.6531C387.653 27.6806 387.763 27.7112 387.842 27.7479L387.482 29.2475C387.376 29.2016 387.257 29.1648 387.129 29.1342C387.001 29.1036 386.873 29.0883 386.748 29.0883C386.507 29.0883 386.278 29.1342 386.062 29.2291C385.846 29.324 385.654 29.4525 385.489 29.6178C385.324 29.783 385.193 29.9758 385.096 30.1931C384.998 30.4134 384.949 30.6521 384.949 30.9092V34.7927H383.562Z" fill="#2F3D58"/>
<path d="M388.945 34.7935V27.761H390.32V29.2085L390.079 29.3707C390.168 29.0586 390.341 28.7709 390.6 28.5077C390.86 28.2445 391.164 28.0303 391.521 27.8651C391.878 27.6998 392.24 27.6172 392.615 27.6172C393.149 27.6172 393.594 27.7212 393.95 27.9324C394.307 28.1436 394.572 28.4618 394.752 28.8903C394.929 29.3187 395.02 29.8604 395.02 30.5122V34.7997H393.646V30.6071C393.646 30.2062 393.591 29.8726 393.487 29.6094C393.38 29.3462 393.216 29.1534 392.993 29.0341C392.771 28.9147 392.496 28.8627 392.167 28.8811C391.899 28.8811 391.655 28.9239 391.433 29.0096C391.21 29.0953 391.018 29.2116 390.853 29.3646C390.689 29.5176 390.561 29.6921 390.466 29.894C390.372 30.096 390.326 30.3102 390.326 30.5428V34.8027H388.951L388.945 34.7935Z" fill="#2F3D58"/>
<path d="M400.586 34.7936V27.7611H401.973V29.2606L401.72 29.4198C401.79 29.1872 401.903 28.9638 402.061 28.7496C402.217 28.5353 402.409 28.3456 402.634 28.1803C402.86 28.0151 403.107 27.8835 403.369 27.7856C403.631 27.6876 403.899 27.6387 404.177 27.6387C404.576 27.6387 404.93 27.706 405.231 27.8407C405.533 27.9753 405.783 28.1742 405.978 28.4435C406.173 28.7128 406.316 29.0464 406.405 29.4473L406.191 29.3922L406.286 29.1658C406.383 28.9607 406.521 28.7649 406.694 28.5843C406.868 28.4007 407.066 28.2385 407.289 28.0947C407.511 27.9508 407.746 27.8407 407.996 27.7611C408.246 27.6815 408.49 27.6417 408.731 27.6417C409.255 27.6417 409.688 27.7488 410.032 27.9631C410.374 28.1773 410.633 28.5047 410.806 28.9424C410.98 29.38 411.065 29.9247 411.065 30.5765V34.7967H409.679V30.6592C409.679 30.2583 409.627 29.9308 409.526 29.6738C409.422 29.4198 409.27 29.23 409.066 29.1045C408.862 28.9791 408.599 28.9179 408.279 28.9179C408.029 28.9179 407.798 28.9607 407.578 29.0464C407.362 29.1321 407.17 29.2484 407.011 29.4014C406.85 29.5544 406.728 29.7288 406.636 29.9308C406.545 30.1328 406.502 30.3531 406.502 30.5949V34.7997H405.115V30.6347C405.115 30.2675 405.061 29.9584 404.957 29.7044C404.85 29.4504 404.695 29.2545 404.491 29.1229C404.286 28.9883 404.036 28.9209 403.744 28.9209C403.494 28.9209 403.262 28.9638 403.049 29.0495C402.835 29.1351 402.65 29.2514 402.488 29.3983C402.326 29.5452 402.205 29.7197 402.113 29.9216C402.022 30.1236 401.979 30.3378 401.979 30.5704V34.8028H400.592L400.586 34.7936Z" fill="#2F3D58"/>
<path d="M416.052 34.9273C415.366 34.9273 414.757 34.7682 414.217 34.453C413.678 34.1347 413.254 33.7032 412.943 33.1524C412.632 32.6015 412.477 31.9772 412.477 31.2703C412.477 30.5634 412.632 29.936 412.943 29.3882C413.254 28.8405 413.678 28.4059 414.217 28.0876C414.754 27.7694 415.366 27.6133 416.052 27.6133C416.738 27.6133 417.335 27.7724 417.872 28.0876C418.408 28.4059 418.835 28.8374 419.146 29.3882C419.457 29.936 419.612 30.5665 419.612 31.2703C419.612 31.9742 419.457 32.6015 419.146 33.1524C418.835 33.7002 418.408 34.1347 417.872 34.453C417.332 34.7713 416.726 34.9273 416.052 34.9273ZM416.052 33.6665C416.47 33.6665 416.845 33.5625 417.174 33.3513C417.503 33.1401 417.762 32.8555 417.948 32.4944C418.134 32.1333 418.222 31.7232 418.216 31.2673C418.225 30.8021 418.137 30.389 417.948 30.0278C417.762 29.6667 417.503 29.3821 417.174 29.1771C416.845 28.972 416.47 28.868 416.052 28.868C415.634 28.868 415.26 28.972 414.924 29.1832C414.592 29.3944 414.33 29.679 414.144 30.0401C413.958 30.4012 413.87 30.8113 413.876 31.2673C413.867 31.7232 413.955 32.1303 414.144 32.4944C414.33 32.8555 414.592 33.1432 414.924 33.3513C415.256 33.5625 415.634 33.6665 416.052 33.6665Z" fill="#2F3D58"/>
<path d="M421.102 34.7927V27.7602H422.488V29.9697L422.354 29.4341C422.452 29.0945 422.62 28.7854 422.854 28.5099C423.089 28.2345 423.36 28.0142 423.668 27.855C423.976 27.6929 424.293 27.6133 424.622 27.6133C424.775 27.6133 424.918 27.6255 425.055 27.6531C425.192 27.6806 425.302 27.7112 425.381 27.7479L425.021 29.2475C424.915 29.2016 424.796 29.1648 424.668 29.1342C424.54 29.1036 424.412 29.0883 424.287 29.0883C424.046 29.0883 423.817 29.1342 423.601 29.2291C423.385 29.324 423.193 29.4525 423.028 29.6178C422.863 29.783 422.732 29.9758 422.635 30.1931C422.537 30.4134 422.488 30.6521 422.488 30.9092V34.7927H421.102Z" fill="#2F3D58"/>
<path d="M429.452 34.927C428.733 34.927 428.093 34.774 427.538 34.4649C426.983 34.1558 426.547 33.7335 426.23 33.198C425.913 32.6624 425.758 32.0473 425.758 31.3496C425.758 30.7956 425.846 30.2907 426.026 29.8347C426.206 29.3787 426.45 28.984 426.767 28.6504C427.084 28.3168 427.462 28.0567 427.901 27.8731C428.34 27.6895 428.818 27.5977 429.333 27.5977C429.787 27.5977 430.208 27.6833 430.601 27.8578C430.991 28.0322 431.333 28.2709 431.622 28.5739C431.912 28.8768 432.135 29.238 432.29 29.6511C432.445 30.0642 432.519 30.5202 432.509 31.0099L432.497 31.6005H426.773L426.465 30.5019H431.308L431.107 30.7283V30.407C431.08 30.1132 430.982 29.85 430.815 29.6174C430.644 29.3849 430.431 29.2012 430.175 29.0666C429.915 28.9319 429.635 28.8646 429.333 28.8646C428.852 28.8646 428.449 28.9564 428.12 29.14C427.791 29.3236 427.541 29.5899 427.373 29.9449C427.206 30.2968 427.12 30.7344 427.12 31.2516C427.12 31.7413 427.221 32.1697 427.428 32.5308C427.632 32.8919 427.922 33.1704 428.297 33.3693C428.669 33.5652 429.102 33.6631 429.592 33.6631C429.94 33.6631 430.263 33.605 430.559 33.4887C430.857 33.3724 431.18 33.1612 431.525 32.8583L432.22 33.8376C432.006 34.0518 431.747 34.2385 431.44 34.4006C431.132 34.5628 430.809 34.6883 430.467 34.7832C430.126 34.878 429.787 34.924 429.461 34.924L429.452 34.927Z" fill="#2F3D58"/>
<path d="M440.438 34.9273C439.859 34.9273 439.331 34.7682 438.856 34.4438C438.38 34.1225 437.999 33.6849 437.716 33.131C437.432 32.5771 437.289 31.9528 437.289 31.255C437.289 30.5573 437.432 29.9238 437.722 29.3729C438.011 28.8252 438.402 28.3937 438.895 28.0815C439.389 27.7694 439.944 27.6133 440.557 27.6133C440.922 27.6133 441.255 27.6684 441.556 27.7755C441.858 27.8826 442.123 28.0325 442.349 28.2253C442.575 28.4181 442.764 28.6385 442.91 28.8894C443.056 29.1404 443.148 29.4066 443.184 29.6943L442.876 29.5872V27.7663H444.263V34.7988H442.876V33.1248L443.196 33.03C443.141 33.2717 443.035 33.5043 442.87 33.7338C442.706 33.9603 442.495 34.1653 442.242 34.3428C441.989 34.5203 441.709 34.6642 441.401 34.7713C441.093 34.8784 440.773 34.9304 440.435 34.9304L440.438 34.9273ZM440.8 33.6543C441.218 33.6543 441.587 33.5502 441.907 33.3452C442.227 33.1401 442.477 32.8555 442.66 32.4944C442.843 32.1333 442.934 31.7202 442.934 31.255C442.934 30.7898 442.843 30.392 442.66 30.037C442.477 29.679 442.227 29.3974 441.907 29.1924C441.587 28.9873 441.218 28.8833 440.8 28.8833C440.383 28.8833 440.029 28.9873 439.712 29.1924C439.395 29.3974 439.148 29.679 438.966 30.037C438.783 30.3951 438.691 30.799 438.691 31.255C438.691 31.711 438.783 32.1333 438.966 32.4944C439.148 32.8555 439.395 33.1401 439.712 33.3452C440.029 33.5502 440.389 33.6543 440.8 33.6543Z" fill="#2F3D58"/>
<path d="M449.874 34.9286C449.573 34.9286 449.271 34.8796 448.975 34.7817C448.676 34.6838 448.405 34.5522 448.161 34.3869C447.917 34.2217 447.713 34.0381 447.549 33.8391C447.384 33.6372 447.274 33.4352 447.223 33.2301L447.57 33.0435V34.7572H446.195V24.8848H447.57V29.3711L447.357 29.2518C447.402 29.0467 447.5 28.8478 447.649 28.655C447.802 28.4622 447.994 28.2878 448.228 28.1317C448.463 27.9756 448.719 27.8502 448.997 27.7584C449.271 27.6635 449.551 27.6176 449.838 27.6176C450.469 27.6176 451.03 27.7737 451.52 28.0858C452.008 28.398 452.395 28.8295 452.682 29.3773C452.965 29.9281 453.108 30.5555 453.108 31.2593C453.108 31.9632 452.968 32.5936 452.688 33.1475C452.407 33.7014 452.023 34.136 451.533 34.4542C451.042 34.7725 450.493 34.9286 449.877 34.9286H449.874ZM449.646 33.6678C450.054 33.6678 450.42 33.5637 450.74 33.3525C451.06 33.1414 451.313 32.8568 451.499 32.4957C451.685 32.1346 451.779 31.7214 451.779 31.2563C451.779 30.7911 451.688 30.3933 451.505 30.0291C451.322 29.668 451.072 29.3834 450.752 29.1783C450.432 28.9733 450.063 28.8692 449.646 28.8692C449.228 28.8692 448.859 28.9733 448.539 29.1783C448.219 29.3834 447.966 29.668 447.78 30.0291C447.594 30.3902 447.5 30.8003 447.5 31.2563C447.5 31.7122 447.594 32.1346 447.78 32.4957C447.966 32.8568 448.222 33.1444 448.539 33.3525C448.859 33.5637 449.228 33.6678 449.646 33.6678Z" fill="#2F3D58"/>
<path d="M457.74 34.9273C457.054 34.9273 456.444 34.7682 455.905 34.453C455.365 34.1347 454.941 33.7032 454.63 33.1524C454.319 32.6015 454.164 31.9772 454.164 31.2703C454.164 30.5634 454.319 29.936 454.63 29.3882C454.941 28.8405 455.365 28.4059 455.905 28.0876C456.441 27.7694 457.054 27.6133 457.74 27.6133C458.425 27.6133 459.023 27.7724 459.559 28.0876C460.096 28.4059 460.522 28.8374 460.833 29.3882C461.144 29.936 461.3 30.5665 461.3 31.2703C461.3 31.9742 461.144 32.6015 460.833 33.1524C460.522 33.7002 460.096 34.1347 459.559 34.453C459.02 34.7713 458.413 34.9273 457.74 34.9273ZM457.74 33.6665C458.157 33.6665 458.532 33.5625 458.861 33.3513C459.19 33.1401 459.45 32.8555 459.635 32.4944C459.821 32.1333 459.91 31.7232 459.904 31.2673C459.913 30.8021 459.824 30.389 459.635 30.0278C459.45 29.6667 459.19 29.3821 458.861 29.1771C458.532 28.972 458.157 28.868 457.74 28.868C457.322 28.868 456.947 28.972 456.612 29.1832C456.279 29.3944 456.017 29.679 455.831 30.0401C455.645 30.4012 455.557 30.8113 455.563 31.2673C455.554 31.7232 455.642 32.1303 455.831 32.4944C456.017 32.8555 456.279 33.1432 456.612 33.3513C456.944 33.5625 457.322 33.6665 457.74 33.6665Z" fill="#2F3D58"/>
<path d="M465.251 34.9278C464.754 34.9278 464.318 34.8115 463.949 34.5789C463.58 34.3463 463.297 34.0219 463.096 33.6027C462.894 33.1834 462.797 32.6815 462.797 32.1031V27.7637H464.172V31.7298C464.172 32.1399 464.236 32.4949 464.364 32.7948C464.492 33.0947 464.681 33.3242 464.924 33.4833C465.168 33.6455 465.464 33.7251 465.811 33.7251C466.071 33.7251 466.305 33.6822 466.519 33.5966C466.732 33.5109 466.918 33.3946 467.073 33.2416C467.229 33.0885 467.351 32.908 467.439 32.6938C467.528 32.4796 467.573 32.247 467.573 31.996V27.7637H468.948V34.7962H467.573V33.3242L467.814 33.162C467.707 33.4925 467.528 33.7924 467.275 34.0587C467.022 34.3249 466.72 34.5391 466.375 34.6952C466.031 34.8513 465.656 34.9308 465.254 34.9308L465.251 34.9278Z" fill="#2F3D58"/>
<path d="M470.281 29.1005V27.7601H474.738V29.1005H470.281ZM471.738 34.7926V25.9668H473.113V34.7926H471.738Z" fill="#2F3D58"/>
<path d="M479.711 34.7931V24.8809H481.805V29.1255L481.378 29.2877C481.476 28.9663 481.653 28.6725 481.906 28.4094C482.159 28.1462 482.463 27.935 482.82 27.7728C483.177 27.6106 483.549 27.5311 483.942 27.5311C484.475 27.5311 484.923 27.6412 485.289 27.8585C485.655 28.0788 485.929 28.4032 486.115 28.8378C486.301 29.2724 486.396 29.7987 486.396 30.4261V34.7931H484.247V30.6005C484.247 30.3159 484.207 30.0772 484.128 29.8905C484.048 29.7039 483.927 29.5631 483.762 29.4682C483.597 29.3733 483.396 29.3305 483.155 29.3397C482.969 29.3397 482.796 29.3672 482.634 29.4254C482.473 29.4835 482.335 29.5692 482.22 29.6794C482.104 29.7926 482.012 29.9181 481.945 30.0619C481.878 30.2057 481.845 30.3618 481.845 30.5301V34.79H479.711V34.7931Z" fill="#2F3D58"/>
<path d="M491.524 34.9279C490.786 34.9279 490.131 34.7688 489.555 34.4444C488.979 34.12 488.527 33.6855 488.195 33.1316C487.863 32.5776 487.695 31.9442 487.695 31.2311C487.695 30.5181 487.863 29.8815 488.195 29.3276C488.527 28.7737 488.982 28.3361 489.555 28.0148C490.128 27.6934 490.783 27.5312 491.524 27.5312C492.264 27.5312 492.917 27.6934 493.493 28.0148C494.066 28.3361 494.517 28.7737 494.846 29.3276C495.175 29.8815 495.34 30.515 495.34 31.2311C495.34 31.9472 495.175 32.5807 494.846 33.1316C494.517 33.6855 494.066 34.1231 493.493 34.4444C492.92 34.7657 492.264 34.9279 491.524 34.9279ZM491.524 33.0795C491.844 33.0795 492.127 33 492.377 32.8378C492.627 32.6756 492.822 32.4583 492.966 32.1829C493.109 31.9074 493.176 31.5892 493.167 31.2311C493.176 30.8731 493.109 30.5548 492.966 30.2733C492.822 29.9917 492.627 29.7714 492.377 29.6092C492.127 29.447 491.844 29.3674 491.524 29.3674C491.204 29.3674 490.917 29.447 490.664 29.6092C490.411 29.7714 490.213 29.9917 490.07 30.2733C489.927 30.5548 489.859 30.8731 489.869 31.2311C489.859 31.5892 489.927 31.9044 490.07 32.1829C490.213 32.4583 490.411 32.6786 490.664 32.8378C490.917 32.9969 491.204 33.0795 491.524 33.0795Z" fill="#2F3D58"/>
<path d="M498.015 34.7948L495.68 27.6827H497.935L499.243 32.3038L498.963 32.2487L500.429 28.659H501.681L503.23 32.2609L502.922 32.2885L504.23 27.6797H506.485L504.071 34.7918H502.495L500.962 30.9756L501.121 31.0031L499.587 34.7948H498.012H498.015Z" fill="#2F3D58"/>
<path d="M511.203 29.554V27.6781H515.967V29.554H511.203ZM512.459 34.7932V25.8848H514.593V34.7932H512.459Z" fill="#2F3D58"/>
<path d="M520.446 34.9279C519.708 34.9279 519.053 34.7688 518.477 34.4444C517.9 34.12 517.449 33.6855 517.117 33.1316C516.785 32.5776 516.617 31.9442 516.617 31.2311C516.617 30.5181 516.785 29.8815 517.117 29.3276C517.449 28.7737 517.903 28.3361 518.477 28.0148C519.05 27.6934 519.705 27.5312 520.446 27.5312C521.186 27.5312 521.839 27.6934 522.415 28.0148C522.988 28.3361 523.439 28.7737 523.768 29.3276C524.097 29.8815 524.262 30.515 524.262 31.2311C524.262 31.9472 524.097 32.5807 523.768 33.1316C523.439 33.6855 522.988 34.1231 522.415 34.4444C521.842 34.7657 521.186 34.9279 520.446 34.9279ZM520.446 33.0795C520.766 33.0795 521.049 33 521.299 32.8378C521.549 32.6756 521.744 32.4583 521.887 32.1829C522.031 31.9074 522.098 31.5892 522.089 31.2311C522.098 30.8731 522.031 30.5548 521.887 30.2733C521.744 29.9917 521.549 29.7714 521.299 29.6092C521.049 29.447 520.766 29.3674 520.446 29.3674C520.126 29.3674 519.839 29.447 519.586 29.6092C519.333 29.7714 519.135 29.9917 518.992 30.2733C518.848 30.5548 518.781 30.8731 518.79 31.2311C518.781 31.5892 518.848 31.9044 518.992 32.1829C519.135 32.4583 519.333 32.6786 519.586 32.8378C519.839 32.9969 520.126 33.0795 520.446 33.0795Z" fill="#2F3D58"/>
<path d="M532.316 34.9262C531.621 34.9262 531.011 34.8161 530.481 34.5927C529.95 34.3693 529.53 34.0694 529.219 33.696L530.514 32.5698C530.789 32.8483 531.103 33.0503 531.447 33.1788C531.791 33.3074 532.124 33.3716 532.435 33.3716C532.56 33.3716 532.669 33.3594 532.767 33.3318C532.864 33.3043 532.947 33.2676 533.014 33.2186C533.081 33.1696 533.133 33.1115 533.166 33.0442C533.203 32.9768 533.221 32.9003 533.221 32.8085C533.221 32.631 533.142 32.4903 532.98 32.3923C532.901 32.3464 532.767 32.2944 532.581 32.2301C532.395 32.1689 532.154 32.0955 531.862 32.0159C531.444 31.9088 531.081 31.7803 530.773 31.6334C530.465 31.4865 530.216 31.3151 530.02 31.1162C529.844 30.9295 529.703 30.7214 529.606 30.4919C529.508 30.2654 529.46 30.0084 529.46 29.7207C529.46 29.3902 529.539 29.0903 529.694 28.8241C529.85 28.5548 530.06 28.3252 530.322 28.1263C530.584 27.9305 530.886 27.7805 531.231 27.6765C531.572 27.5755 531.926 27.5234 532.291 27.5234C532.681 27.5234 533.056 27.5693 533.413 27.6581C533.77 27.7468 534.099 27.8723 534.407 28.0345C534.715 28.1967 534.986 28.3864 535.227 28.6098L534.105 29.8676C533.943 29.7146 533.764 29.5799 533.565 29.4606C533.364 29.3412 533.157 29.2433 532.944 29.1729C532.73 29.1025 532.535 29.0658 532.355 29.0658C532.221 29.0658 532.105 29.0781 532.002 29.0995C531.898 29.1209 531.813 29.1576 531.743 29.2066C531.673 29.2556 531.618 29.3137 531.581 29.381C531.544 29.4484 531.526 29.5249 531.526 29.6167C531.526 29.7085 531.551 29.7911 531.599 29.8707C531.648 29.9502 531.718 30.0176 531.807 30.0726C531.895 30.1277 532.038 30.1859 532.233 30.2532C532.428 30.3205 532.697 30.4032 533.035 30.5011C533.453 30.6174 533.812 30.7459 534.117 30.8897C534.419 31.0336 534.66 31.2019 534.837 31.3977C534.98 31.5508 535.086 31.7252 535.157 31.9272C535.227 32.1292 535.263 32.3434 535.263 32.5759C535.263 33.0319 535.135 33.4359 534.882 33.7878C534.629 34.1398 534.279 34.4182 533.834 34.6172C533.389 34.8161 532.883 34.9171 532.313 34.9171L532.316 34.9262Z" fill="#2F3D58"/>
<path d="M535.867 29.554V27.6781H540.631V29.554H535.867ZM537.12 34.7932V25.8848H539.254V34.7932H537.12Z" fill="#2F3D58"/>
<path d="M544.395 34.9135C543.797 34.9135 543.267 34.7543 542.801 34.4391C542.334 34.1209 541.962 33.6833 541.688 33.1263C541.414 32.5693 541.273 31.9358 541.273 31.232C541.273 30.5281 541.411 29.8701 541.688 29.3162C541.965 28.7623 542.34 28.3278 542.822 28.0095C543.304 27.6912 543.849 27.5352 544.462 27.5352C544.8 27.5352 545.108 27.5841 545.388 27.682C545.669 27.78 545.916 27.9177 546.129 28.0921C546.343 28.2666 546.525 28.4655 546.675 28.695C546.827 28.9215 546.937 29.1663 547.007 29.4233L546.568 29.3713V27.682H548.69V34.7941H546.528V33.0804L547.01 33.0681C546.94 33.3191 546.824 33.5547 546.663 33.7781C546.501 34.0015 546.306 34.1974 546.074 34.3688C545.843 34.5401 545.583 34.6717 545.3 34.7696C545.017 34.8676 544.712 34.9165 544.392 34.9165L544.395 34.9135ZM544.98 33.1049C545.309 33.1049 545.593 33.0284 545.833 32.8784C546.074 32.7254 546.26 32.5112 546.394 32.2296C546.528 31.9481 546.595 31.6145 546.595 31.232C546.595 30.8494 546.528 30.5159 546.394 30.2343C546.26 29.9528 546.074 29.7355 545.833 29.5794C545.593 29.4233 545.309 29.3438 544.98 29.3438C544.651 29.3438 544.383 29.4233 544.145 29.5794C543.91 29.7355 543.724 29.9558 543.59 30.2343C543.456 30.5159 543.389 30.8494 543.389 31.232C543.389 31.6145 543.456 31.9481 543.59 32.2296C543.724 32.5112 543.907 32.7284 544.145 32.8784C544.38 33.0314 544.66 33.1049 544.98 33.1049Z" fill="#2F3D58"/>
<path d="M550.57 34.7931V24.8809H552.704V34.7931H550.57ZM552.625 32.7029L551.838 31.0963L555.146 27.681H557.962L552.625 32.7029ZM555.374 34.7931L552.878 31.5523L554.387 30.3741L557.895 34.7931H555.374Z" fill="#2F3D58"/>
<path d="M561.996 34.9288C561.213 34.9288 560.533 34.7696 559.954 34.4544C559.375 34.1362 558.927 33.7047 558.607 33.1538C558.287 32.603 558.125 31.9787 558.125 31.2718C558.125 30.727 558.213 30.2282 558.393 29.7722C558.57 29.3162 558.82 28.9215 559.14 28.5879C559.46 28.2543 559.841 27.9942 560.28 27.8106C560.719 27.627 561.204 27.5352 561.728 27.5352C562.252 27.5352 562.682 27.6239 563.097 27.8045C563.511 27.985 563.868 28.2329 564.169 28.5542C564.471 28.8756 564.703 29.255 564.864 29.6927C565.026 30.1303 565.096 30.6077 565.078 31.1249L565.066 31.7002H559.424L559.116 30.4944H563.331L563.106 30.7484V30.4822C563.087 30.2588 563.02 30.0599 562.898 29.8854C562.779 29.711 562.621 29.5764 562.426 29.4754C562.231 29.3774 562.008 29.3285 561.758 29.3285C561.411 29.3285 561.115 29.3989 560.871 29.5366C560.628 29.6743 560.442 29.8763 560.317 30.1394C560.192 30.4026 560.131 30.727 560.131 31.1096C560.131 31.4921 560.213 31.844 560.378 32.1347C560.542 32.4255 560.783 32.6489 561.097 32.8111C561.414 32.9733 561.789 33.0528 562.225 33.0528C562.526 33.0528 562.795 33.0069 563.033 32.9182C563.267 32.8294 563.523 32.6764 563.801 32.4622L564.8 33.8822C564.526 34.1239 564.23 34.3198 563.92 34.4728C563.609 34.6258 563.289 34.739 562.965 34.8156C562.639 34.8921 562.319 34.9288 561.999 34.9288H561.996Z" fill="#2F3D58"/>
<path d="M361.723 56.3495L361.814 55.0427H361.872L360.705 55.8384L360.287 55.1009L361.555 54.4858L361.534 54.5439L360.266 53.9288L360.695 53.2005L361.872 53.9961L361.814 53.9747L361.723 52.668H362.573L362.472 54.1124L362.381 54.0206L363.548 53.2249L363.966 53.9625L362.686 54.5868V54.4613L363.954 55.0856L363.536 55.8139L362.36 55.0183L362.485 55.0397L362.576 56.3464H361.726L361.723 56.3495Z" fill="#2F3D58"/>
<path d="M365.414 60.6208V52.6641H366.636V60.6208H365.414ZM365.957 53.8453V52.6641H370.553V53.8453H365.957ZM365.957 57.2331V56.0518H370.044V57.2331H365.957Z" fill="#2F3D58"/>
<path d="M372.694 53.3336C372.444 53.3336 372.252 53.2693 372.118 53.1408C371.981 53.0123 371.914 52.8286 371.914 52.5961C371.914 52.3757 371.984 52.1982 372.124 52.0605C372.265 51.9228 372.454 51.8555 372.697 51.8555C372.941 51.8555 373.139 51.9197 373.274 52.0483C373.408 52.1768 373.478 52.3604 373.478 52.593C373.478 52.8133 373.408 52.9908 373.267 53.1285C373.127 53.2663 372.938 53.3336 372.694 53.3336ZM372.131 60.6201V54.6526H373.298V60.6201H372.131Z" fill="#2F3D58"/>
<path d="M375.078 60.6223V54.6548H376.255V56.5307L376.142 56.0747C376.224 55.7871 376.367 55.5239 376.566 55.2913C376.767 55.0557 376.995 54.872 377.258 54.7343C377.517 54.5966 377.788 54.5293 378.068 54.5293C378.196 54.5293 378.318 54.5415 378.437 54.563C378.553 54.5844 378.648 54.6119 378.715 54.6425L378.41 55.9156C378.318 55.8789 378.218 55.8452 378.111 55.8177C378.001 55.7901 377.895 55.7779 377.788 55.7779C377.584 55.7779 377.389 55.8177 377.206 55.8972C377.02 55.9768 376.858 56.087 376.718 56.2277C376.578 56.3685 376.468 56.5307 376.383 56.7174C376.3 56.9041 376.258 57.106 376.258 57.3264V60.6223H375.081H375.078Z" fill="#2F3D58"/>
<path d="M381.625 60.7375C381.128 60.7375 380.677 60.6487 380.278 60.4774C379.879 60.3029 379.546 60.0459 379.281 59.7031L380.074 59.0207C380.299 59.2869 380.546 59.4767 380.814 59.596C381.083 59.7123 381.388 59.7735 381.726 59.7735C381.863 59.7735 381.988 59.7551 382.104 59.7215C382.22 59.6878 382.323 59.6358 382.409 59.5685C382.494 59.5011 382.561 59.4185 382.607 59.3236C382.653 59.2288 382.674 59.1247 382.674 59.0115C382.674 58.8156 382.601 58.6565 382.457 58.5341C382.381 58.4821 382.262 58.4209 382.101 58.3566C381.939 58.2923 381.729 58.225 381.473 58.1577C381.034 58.0444 380.677 57.9159 380.397 57.7721C380.116 57.6282 379.903 57.4661 379.751 57.2824C379.638 57.1386 379.556 56.9825 379.501 56.8112C379.449 56.6398 379.421 56.4531 379.421 56.2481C379.421 55.9971 379.476 55.7676 379.586 55.5595C379.696 55.3514 379.845 55.1678 380.04 55.0148C380.232 54.8587 380.458 54.7393 380.72 54.6567C380.979 54.5741 381.256 54.5312 381.552 54.5312C381.833 54.5312 382.11 54.568 382.384 54.6445C382.659 54.721 382.915 54.8312 383.149 54.975C383.384 55.1188 383.579 55.2902 383.738 55.4861L383.07 56.2236C382.927 56.0797 382.771 55.9512 382.601 55.8441C382.43 55.737 382.259 55.6483 382.086 55.587C381.912 55.5258 381.753 55.4952 381.61 55.4952C381.452 55.4952 381.308 55.5105 381.18 55.5411C381.052 55.5717 380.946 55.6176 380.857 55.6789C380.772 55.7401 380.705 55.8166 380.659 55.9053C380.613 55.9971 380.592 56.0981 380.592 56.2113C380.598 56.3093 380.625 56.4011 380.665 56.4898C380.705 56.5786 380.766 56.652 380.842 56.7102C380.924 56.7714 381.049 56.8356 381.217 56.903C381.384 56.9703 381.595 57.0346 381.851 57.0958C382.229 57.1937 382.54 57.3008 382.784 57.4202C383.027 57.5364 383.223 57.6711 383.366 57.8241C383.515 57.9679 383.622 58.1363 383.683 58.3229C383.744 58.5127 383.774 58.7238 383.774 58.9595C383.774 59.2992 383.68 59.6052 383.485 59.8745C383.293 60.1438 383.034 60.355 382.71 60.5049C382.384 60.6549 382.025 60.7314 381.622 60.7314L381.625 60.7375Z" fill="#2F3D58"/>
<path d="M384.57 55.7913V54.656H388.353V55.7913H384.57ZM385.805 60.6205V53.1289H386.972V60.6205H385.805Z" fill="#2F3D58"/>
<path d="M394.571 60.7375C394.074 60.7375 393.623 60.6487 393.223 60.4774C392.824 60.3029 392.492 60.0459 392.227 59.7031L393.019 59.0207C393.245 59.2869 393.492 59.4767 393.76 59.596C394.028 59.7123 394.333 59.7735 394.671 59.7735C394.808 59.7735 394.933 59.7551 395.049 59.7215C395.165 59.6878 395.269 59.6358 395.354 59.5685C395.439 59.5011 395.506 59.4185 395.552 59.3236C395.598 59.2288 395.619 59.1247 395.619 59.0115C395.619 58.8156 395.546 58.6565 395.403 58.5341C395.327 58.4821 395.208 58.4209 395.046 58.3566C394.885 58.2923 394.674 58.225 394.418 58.1577C393.979 58.0444 393.623 57.9159 393.342 57.7721C393.062 57.6282 392.848 57.4661 392.696 57.2824C392.583 57.1386 392.501 56.9825 392.446 56.8112C392.394 56.6398 392.367 56.4531 392.367 56.2481C392.367 55.9971 392.422 55.7676 392.531 55.5595C392.641 55.3514 392.79 55.1678 392.986 55.0148C393.178 54.8587 393.403 54.7393 393.665 54.6567C393.924 54.5741 394.202 54.5312 394.497 54.5312C394.778 54.5312 395.055 54.568 395.33 54.6445C395.604 54.721 395.86 54.8312 396.095 54.975C396.329 55.1188 396.524 55.2902 396.683 55.4861L396.015 56.2236C395.872 56.0797 395.717 55.9512 395.546 55.8441C395.375 55.737 395.205 55.6483 395.031 55.587C394.857 55.5258 394.699 55.4952 394.555 55.4952C394.397 55.4952 394.254 55.5105 394.126 55.5411C393.998 55.5717 393.891 55.6176 393.802 55.6789C393.717 55.7401 393.65 55.8166 393.604 55.9053C393.559 55.9971 393.537 56.0981 393.537 56.2113C393.543 56.3093 393.571 56.4011 393.61 56.4898C393.65 56.5786 393.711 56.652 393.787 56.7102C393.87 56.7714 393.994 56.8356 394.162 56.903C394.33 56.9703 394.54 57.0346 394.796 57.0958C395.174 57.1937 395.485 57.3008 395.729 57.4202C395.973 57.5364 396.168 57.6711 396.311 57.8241C396.46 57.9679 396.567 58.1363 396.628 58.3229C396.689 58.5127 396.72 58.7238 396.72 58.9595C396.72 59.2992 396.625 59.6052 396.43 59.8745C396.238 60.1438 395.979 60.355 395.656 60.5049C395.33 60.6549 394.97 60.7314 394.568 60.7314L394.571 60.7375Z" fill="#2F3D58"/>
<path d="M398.008 60.6223V54.6548H399.175V55.8819L398.971 56.0196C399.047 55.7534 399.194 55.5086 399.413 55.2852C399.633 55.0618 399.892 54.8812 400.193 54.7405C400.495 54.5997 400.806 54.5293 401.123 54.5293C401.577 54.5293 401.952 54.618 402.257 54.7955C402.559 54.973 402.784 55.2454 402.937 55.6096C403.086 55.9737 403.162 56.4328 403.162 56.9867V60.6254H401.995V57.0663C401.995 56.7266 401.949 56.442 401.858 56.2186C401.766 55.9952 401.626 55.833 401.44 55.7289C401.251 55.6279 401.016 55.582 400.739 55.5973C400.513 55.5973 400.306 55.6341 400.117 55.7044C399.928 55.7779 399.764 55.8758 399.623 56.0043C399.483 56.1329 399.373 56.2828 399.294 56.4542C399.215 56.6256 399.175 56.8092 399.175 57.0051V60.6192H398.008V60.6223Z" fill="#2F3D58"/>
<path d="M407.033 60.7375C406.542 60.7375 406.094 60.5998 405.691 60.3274C405.286 60.055 404.966 59.6848 404.722 59.2135C404.481 58.7422 404.359 58.2128 404.359 57.6221C404.359 57.0315 404.481 56.4898 404.728 56.0247C404.972 55.5595 405.304 55.1923 405.725 54.9291C406.143 54.6628 406.615 54.5312 407.136 54.5312C407.447 54.5312 407.728 54.5772 407.987 54.669C408.243 54.7608 408.468 54.8862 408.66 55.0484C408.852 55.2106 409.011 55.4004 409.136 55.6115C409.261 55.8227 409.337 56.0522 409.367 56.294L409.108 56.2022V54.6567H410.285V60.6243H409.108V59.2043L409.38 59.1247C409.334 59.3298 409.242 59.5287 409.102 59.7215C408.962 59.9143 408.785 60.0887 408.569 60.2387C408.352 60.3917 408.115 60.511 407.856 60.6028C407.596 60.6946 407.322 60.7406 407.036 60.7406L407.033 60.7375ZM407.337 59.6572C407.691 59.6572 408.005 59.5685 408.276 59.3971C408.548 59.2227 408.761 58.9809 408.916 58.6749C409.072 58.3688 409.148 58.0169 409.148 57.6221C409.148 57.2274 409.072 56.8907 408.916 56.5878C408.761 56.2848 408.548 56.0461 408.276 55.8717C408.005 55.6972 407.691 55.6115 407.337 55.6115C406.984 55.6115 406.682 55.7003 406.414 55.8717C406.146 56.0461 405.935 56.2848 405.78 56.5878C405.624 56.8907 405.548 57.2365 405.548 57.6221C405.548 58.0077 405.624 58.3658 405.78 58.6749C405.935 58.984 406.146 59.2227 406.414 59.3971C406.682 59.5715 406.99 59.6572 407.337 59.6572Z" fill="#2F3D58"/>
<path d="M411.917 63.1235V54.6557H413.094V56.0206L412.914 55.9196C412.96 55.6931 413.088 55.4758 413.298 55.2647C413.508 55.0566 413.767 54.8852 414.072 54.7536C414.377 54.622 414.694 54.5547 415.017 54.5547C415.554 54.5547 416.029 54.6863 416.444 54.9525C416.858 55.2188 417.187 55.5829 417.428 56.045C417.669 56.5071 417.791 57.0396 417.791 57.6364C417.791 58.2331 417.672 58.7564 417.434 59.2216C417.196 59.6868 416.87 60.054 416.456 60.3233C416.041 60.5926 415.572 60.7273 415.051 60.7273C414.703 60.7273 414.368 60.6569 414.042 60.5161C413.716 60.3753 413.441 60.1948 413.216 59.9775C412.99 59.7572 412.85 59.5307 412.795 59.2951L413.091 59.1359V63.1265H411.914L411.917 63.1235ZM414.862 59.6439C415.209 59.6439 415.517 59.5582 415.791 59.3838C416.063 59.2094 416.279 58.9707 416.437 58.6677C416.596 58.3647 416.675 58.0189 416.675 57.6333C416.675 57.2477 416.599 56.905 416.444 56.6051C416.288 56.3052 416.075 56.0695 415.803 55.8951C415.532 55.7207 415.218 55.635 414.865 55.635C414.511 55.635 414.197 55.7207 413.926 55.892C413.655 56.0634 413.438 56.299 413.28 56.602C413.121 56.905 413.042 57.2508 413.042 57.6364C413.042 58.022 413.121 58.3678 413.28 58.6708C413.438 58.9737 413.655 59.2124 413.926 59.3869C414.197 59.5613 414.511 59.647 414.865 59.647L414.862 59.6439Z" fill="#2F3D58"/>
<path d="M421.039 60.7375C420.543 60.7375 420.091 60.6487 419.692 60.4774C419.293 60.3029 418.961 60.0459 418.695 59.7031L419.488 59.0207C419.713 59.2869 419.96 59.4767 420.229 59.596C420.497 59.7123 420.802 59.7735 421.14 59.7735C421.277 59.7735 421.402 59.7551 421.518 59.7215C421.634 59.6878 421.737 59.6358 421.823 59.5685C421.908 59.5011 421.975 59.4185 422.021 59.3236C422.067 59.2288 422.088 59.1247 422.088 59.0115C422.088 58.8156 422.015 58.6565 421.871 58.5341C421.795 58.4821 421.676 58.4209 421.515 58.3566C421.353 58.2923 421.143 58.225 420.887 58.1577C420.448 58.0444 420.091 57.9159 419.811 57.7721C419.531 57.6282 419.317 57.4661 419.165 57.2824C419.052 57.1386 418.97 56.9825 418.915 56.8112C418.863 56.6398 418.836 56.4531 418.836 56.2481C418.836 55.9971 418.89 55.7676 419 55.5595C419.11 55.3514 419.259 55.1678 419.454 55.0148C419.646 54.8587 419.872 54.7393 420.134 54.6567C420.393 54.5741 420.671 54.5312 420.966 54.5312C421.247 54.5312 421.524 54.568 421.798 54.6445C422.073 54.721 422.329 54.8312 422.563 54.975C422.798 55.1188 422.993 55.2902 423.152 55.4861L422.484 56.2236C422.341 56.0797 422.185 55.9512 422.015 55.8441C421.844 55.737 421.673 55.6483 421.5 55.587C421.326 55.5258 421.167 55.4952 421.024 55.4952C420.866 55.4952 420.722 55.5105 420.594 55.5411C420.466 55.5717 420.36 55.6176 420.271 55.6789C420.186 55.7401 420.119 55.8166 420.073 55.9053C420.027 55.9971 420.006 56.0981 420.006 56.2113C420.012 56.3093 420.04 56.4011 420.079 56.4898C420.119 56.5786 420.18 56.652 420.256 56.7102C420.338 56.7714 420.463 56.8356 420.631 56.903C420.799 56.9703 421.009 57.0346 421.265 57.0958C421.643 57.1937 421.954 57.3008 422.198 57.4202C422.442 57.5364 422.637 57.6711 422.78 57.8241C422.929 57.9679 423.036 58.1363 423.097 58.3229C423.158 58.5127 423.188 58.7238 423.188 58.9595C423.188 59.2992 423.094 59.6052 422.899 59.8745C422.707 60.1438 422.448 60.355 422.124 60.5049C421.798 60.6549 421.439 60.7314 421.036 60.7314L421.039 60.7375Z" fill="#2F3D58"/>
<path d="M424.484 60.6197V52.207H425.652V55.8794L425.448 56.0171C425.524 55.7508 425.67 55.506 425.89 55.2826C426.109 55.0592 426.368 54.8787 426.67 54.7379C426.972 54.5971 427.283 54.5267 427.6 54.5267C428.054 54.5267 428.429 54.6155 428.733 54.793C429.035 54.9705 429.261 55.2428 429.413 55.607C429.563 55.9712 429.639 56.4302 429.639 56.9841V60.6228H428.471V57.0637C428.471 56.724 428.426 56.4394 428.334 56.216C428.243 55.9926 428.103 55.8304 427.917 55.7263C427.728 55.6254 427.493 55.5795 427.215 55.5948C426.99 55.5948 426.783 55.6315 426.594 55.7019C426.405 55.7753 426.24 55.8732 426.1 56.0018C425.96 56.1303 425.85 56.2803 425.771 56.4516C425.691 56.623 425.652 56.8066 425.652 57.0025V60.6167H424.484V60.6197Z" fill="#2F3D58"/>
<path d="M433.895 60.7375C433.313 60.7375 432.795 60.6028 432.338 60.3335C431.881 60.0642 431.521 59.697 431.256 59.2318C430.99 58.7667 430.859 58.2342 430.859 57.6344C430.859 57.0346 430.99 56.5021 431.256 56.0369C431.521 55.5717 431.881 55.2045 432.338 54.9352C432.795 54.6659 433.313 54.5312 433.895 54.5312C434.478 54.5312 434.984 54.6659 435.441 54.9352C435.898 55.2045 436.258 55.5717 436.523 56.0369C436.788 56.5021 436.919 57.0346 436.919 57.6344C436.919 58.2342 436.788 58.7667 436.523 59.2318C436.258 59.697 435.898 60.0642 435.441 60.3335C434.984 60.6028 434.468 60.7375 433.895 60.7375ZM433.895 59.6664C434.249 59.6664 434.566 59.5776 434.846 59.4001C435.127 59.2227 435.343 58.9809 435.502 58.6718C435.66 58.3627 435.736 58.0169 435.727 57.6313C435.733 57.2365 435.66 56.8877 435.502 56.5786C435.343 56.2695 435.124 56.0308 434.846 55.8564C434.566 55.6819 434.249 55.5962 433.895 55.5962C433.542 55.5962 433.222 55.685 432.938 55.8625C432.655 56.04 432.435 56.2817 432.277 56.5908C432.118 56.8968 432.042 57.2457 432.051 57.6313C432.045 58.0169 432.118 58.3658 432.277 58.6718C432.435 58.9778 432.655 59.2227 432.938 59.4001C433.222 59.5776 433.542 59.6664 433.895 59.6664Z" fill="#2F3D58"/>
<path d="M437.688 55.7913V54.656H441.47V55.7913H437.688ZM438.922 60.6205V53.1289H440.089V60.6205H438.922Z" fill="#2F3D58"/>
<path d="M448.372 60.7375C447.79 60.7375 447.271 60.6028 446.814 60.3335C446.357 60.0642 445.997 59.697 445.732 59.2318C445.467 58.7667 445.336 58.2342 445.336 57.6344C445.336 57.0346 445.467 56.5021 445.732 56.0369C445.997 55.5717 446.357 55.2045 446.814 54.9352C447.271 54.6659 447.79 54.5312 448.372 54.5312C448.954 54.5312 449.46 54.6659 449.917 54.9352C450.375 55.2045 450.734 55.5717 450.999 56.0369C451.265 56.5021 451.396 57.0346 451.396 57.6344C451.396 58.2342 451.265 58.7667 450.999 59.2318C450.734 59.697 450.375 60.0642 449.917 60.3335C449.46 60.6028 448.945 60.7375 448.372 60.7375ZM448.372 59.6664C448.725 59.6664 449.042 59.5776 449.323 59.4001C449.603 59.2227 449.82 58.9809 449.978 58.6718C450.137 58.3627 450.213 58.0169 450.204 57.6313C450.21 57.2365 450.137 56.8877 449.978 56.5786C449.82 56.2695 449.6 56.0308 449.323 55.8564C449.042 55.6819 448.725 55.5962 448.372 55.5962C448.018 55.5962 447.698 55.685 447.415 55.8625C447.131 56.04 446.912 56.2817 446.753 56.5908C446.595 56.8968 446.519 57.2457 446.528 57.6313C446.522 58.0169 446.595 58.3658 446.753 58.6718C446.912 58.9778 447.131 59.2227 447.415 59.4001C447.698 59.5776 448.018 59.6664 448.372 59.6664Z" fill="#2F3D58"/>
<path d="M452.672 60.6223V54.6548H453.839V55.8819L453.635 56.0196C453.711 55.7534 453.858 55.5086 454.077 55.2852C454.297 55.0618 454.556 54.8812 454.857 54.7405C455.159 54.5997 455.47 54.5293 455.787 54.5293C456.241 54.5293 456.616 54.618 456.921 54.7955C457.223 54.973 457.448 55.2454 457.601 55.6096C457.75 55.9737 457.826 56.4328 457.826 56.9867V60.6254H456.659V57.0663C456.659 56.7266 456.613 56.442 456.522 56.2186C456.43 55.9952 456.29 55.833 456.104 55.7289C455.915 55.6279 455.68 55.582 455.403 55.5973C455.177 55.5973 454.97 55.6341 454.781 55.7044C454.592 55.7779 454.428 55.8758 454.287 56.0043C454.147 56.1329 454.037 56.2828 453.958 56.4542C453.879 56.6256 453.839 56.8092 453.839 57.0051V60.6192H452.672V60.6223Z" fill="#2F3D58"/>
<path d="M464.148 60.0657V53.6085L464.566 54.5756L462.868 55.3835L462.539 53.6544L464.792 52.5527H466.038V60.0657H464.148ZM462.701 60.6227V58.9181H467.523V60.6227H462.701Z" fill="#2F3D58"/>
<path d="M469.066 60.6209L472.236 53.368L472.778 54.2769H468.633V52.5938H473.796L473.979 53.5149L470.989 60.6209H469.066Z" fill="#2F3D58"/>
<path d="M474.617 56.1779V54.5865H478.659V56.1779H474.617ZM475.681 60.6214V53.0625H477.492V60.6214H475.681Z" fill="#2F3D58"/>
<path d="M479.688 60.6197V52.207H481.465V55.812L481.102 55.9498C481.184 55.6774 481.333 55.4295 481.55 55.2061C481.766 54.9827 482.022 54.8021 482.324 54.6675C482.626 54.5298 482.943 54.4625 483.275 54.4625C483.729 54.4625 484.11 54.5543 484.418 54.7409C484.726 54.9276 484.961 55.203 485.119 55.5703C485.278 55.9375 485.357 56.3874 485.357 56.9168V60.6228H483.534V57.0637C483.534 56.8219 483.501 56.6199 483.434 56.4608C483.367 56.3017 483.263 56.1823 483.123 56.1028C482.983 56.0232 482.812 55.9865 482.608 55.9957C482.449 55.9957 482.303 56.0201 482.166 56.0691C482.028 56.1181 481.913 56.1915 481.815 56.2864C481.718 56.3813 481.638 56.4884 481.583 56.6108C481.526 56.7332 481.498 56.8648 481.498 57.0086V60.6228H479.688V60.6197Z" fill="#2F3D58"/>
<path d="M489.688 60.6208L492.824 52.6641H494.455L497.57 60.6208H495.622L494.129 56.5843C494.068 56.4251 494.007 56.2538 493.949 56.0732C493.888 55.8927 493.827 55.7029 493.769 55.5101C493.708 55.3173 493.65 55.1276 493.592 54.9409C493.534 54.7542 493.489 54.5829 493.452 54.4237L493.79 54.4115C493.745 54.6012 493.696 54.7879 493.638 54.9685C493.58 55.149 493.525 55.3296 493.467 55.5071C493.409 55.6846 493.348 55.862 493.281 56.0426C493.214 56.2232 493.15 56.4037 493.089 56.5935L491.596 60.6177H489.694L489.688 60.6208ZM491.181 59.0998L491.782 57.6431H495.427L496.015 59.0998H491.181Z" fill="#2F3D58"/>
<path d="M498.359 63.1241V54.5859H500.082L500.149 55.9385L499.81 55.8375C499.862 55.5866 499.99 55.3601 500.194 55.1551C500.399 54.9501 500.658 54.7848 500.969 54.6593C501.283 54.5339 501.612 54.4727 501.959 54.4727C502.471 54.4727 502.929 54.6073 503.331 54.8766C503.73 55.1459 504.047 55.5132 504.276 55.9783C504.507 56.4435 504.62 56.9851 504.62 57.5972C504.62 58.2093 504.504 58.7417 504.276 59.213C504.044 59.6843 503.727 60.0515 503.325 60.3208C502.919 60.5902 502.459 60.7248 501.938 60.7248C501.6 60.7248 501.273 60.6605 500.966 60.532C500.655 60.4035 500.396 60.229 500.185 60.0087C499.975 59.7884 499.835 59.5497 499.768 59.2926L500.185 59.1335V63.1241H498.362H498.359ZM501.496 59.1885C501.767 59.1885 502.005 59.1212 502.209 58.9896C502.413 58.858 502.572 58.6744 502.685 58.4388C502.797 58.2031 502.855 57.9247 502.855 57.5972C502.855 57.2698 502.797 57.0004 502.685 56.7617C502.572 56.523 502.413 56.3364 502.215 56.2048C502.014 56.0732 501.776 56.0059 501.496 56.0059C501.215 56.0059 500.975 56.0701 500.77 56.1987C500.566 56.3272 500.408 56.5139 500.295 56.7556C500.182 56.9974 500.124 57.2789 500.124 57.5972C500.124 57.9155 500.182 58.2031 500.295 58.4388C500.408 58.6744 500.566 58.858 500.77 58.9896C500.975 59.1212 501.215 59.1885 501.496 59.1885Z" fill="#2F3D58"/>
<path d="M505.812 60.6204V54.5825H507.535L507.614 56.5503L507.276 56.1738C507.367 55.8495 507.516 55.5557 507.724 55.2986C507.931 55.0415 508.175 54.8365 508.455 54.6835C508.736 54.5335 509.031 54.457 509.348 54.457C509.486 54.457 509.611 54.4693 509.729 54.4907C509.845 54.5121 509.955 54.5397 510.053 54.5703L509.556 56.5809C509.473 56.5288 509.361 56.4829 509.22 56.4493C509.08 56.4156 508.934 56.3972 508.784 56.3972C508.617 56.3972 508.464 56.4248 508.321 56.4829C508.178 56.5411 508.056 56.6206 507.958 56.7278C507.861 56.8349 507.782 56.9603 507.727 57.1042C507.669 57.248 507.641 57.4102 507.641 57.5938V60.6174H505.819L505.812 60.6204Z" fill="#2F3D58"/>
<path d="M511.979 53.3924C511.64 53.3924 511.372 53.3098 511.18 53.1476C510.988 52.9854 510.891 52.7528 510.891 52.4499C510.891 52.1775 510.988 51.9541 511.186 51.7797C511.381 51.6052 511.647 51.5195 511.979 51.5195C512.311 51.5195 512.582 51.6022 512.771 51.7644C512.96 51.9265 513.055 52.1561 513.055 52.4529C513.055 52.7345 512.957 52.9609 512.765 53.1354C512.573 53.3098 512.311 53.3955 511.979 53.3955V53.3924ZM511.074 60.6208V54.5829H512.884V60.6208H511.074Z" fill="#2F3D58"/>
<path d="M514.594 60.6197V52.207H516.404V60.6197H514.594Z" fill="#2F3D58"/>
</svg>
