<svg width="600" height="80" viewBox="0 0 600 80" fill="none" xmlns="http://www.w3.org/2000/svg">
<path d="M182.362 54.08C180.886 52.0188 179.439 49.9974 177.949 47.9135C181.468 45.381 184.952 42.8712 188.514 40.3075C184.714 37.5848 180.985 34.9104 177.18 32.1848C178.647 30.1265 180.094 28.0937 181.578 26.0098C188.227 30.771 194.825 35.4981 201.523 40.2962C195.112 44.9097 188.767 49.475 182.364 54.0829L182.362 54.08Z" fill="#2F3D58"/>
<path d="M220.617 33.2941C221.889 33.2941 223.114 33.2799 224.34 33.2998C225.501 33.3168 226.67 33.1862 227.822 33.4417C230.762 34.0975 232.721 36.4767 232.857 39.5543C232.902 40.6133 232.814 41.6553 232.476 42.666C231.617 45.2439 229.329 46.9303 226.614 46.9587C224.769 46.9786 222.924 46.9672 221.083 46.9672C220.941 46.9672 220.799 46.9474 220.62 46.9332V33.2941H220.617ZM223.637 44.2758C224.684 44.2559 225.666 44.3524 226.645 44.2133C228.248 43.9862 229.304 43.0265 229.67 41.4849C229.82 40.8489 229.851 40.2016 229.789 39.5572C229.653 38.1149 229.08 36.9253 227.68 36.3206C226.386 35.7613 225.019 36.0452 223.637 35.9969V44.2786V44.2758Z" fill="#2F3D58"/>
<path d="M318.597 46.9609C317.672 45.3227 316.776 43.7328 315.87 42.1288H313.824V46.9297H310.93V33.3729C311.12 33.248 311.318 33.2963 311.506 33.2963C313.316 33.2934 315.13 33.2906 316.94 33.2963C319.066 33.2991 320.797 34.5426 321.333 36.4449C321.889 38.4266 321.106 40.36 319.29 41.4928C319.21 41.5411 319.137 41.6007 319.026 41.683C320.031 43.4234 321.029 45.1524 322.074 46.9609H318.6H318.597ZM313.85 39.6218C314.86 39.6218 315.825 39.6275 316.79 39.6218C317.658 39.6133 318.268 39.1278 318.441 38.3357C318.657 37.3392 318.336 36.4903 317.53 36.1496C316.339 35.6499 315.09 35.9679 313.85 35.8912V39.6247V39.6218Z" fill="#2F3D58"/>
<path d="M203.373 38.6426C201.327 37.1691 199.324 35.7239 197.227 34.2135C201.046 31.4653 204.806 28.7596 208.64 26C210.11 28.0555 211.563 30.0826 213.053 32.1665C209.809 34.3356 206.614 36.4735 203.373 38.6426Z" fill="#2F3D58"/>
<path d="M203.373 41.9629C206.384 44.0127 209.372 46.0484 212.417 48.1209C210.952 50.185 209.516 52.2064 208.027 54.3045C204.44 51.7436 200.884 49.2083 197.234 46.6048C199.309 45.0348 201.321 43.513 203.37 41.9629H203.373Z" fill="#2F3D58"/>
<path d="M243.384 44.3075H249.772C249.84 45.2189 249.837 46.0649 249.777 46.9394H240.43V33.3457H249.61V35.9463H243.378V38.6662H248.693C248.779 39.569 248.753 40.381 248.713 41.281H243.381V44.3047L243.384 44.3075Z" fill="#2F3D58"/>
<path d="M293.542 33.3223H302.731V35.92H296.507V38.674H301.814V41.2888H296.493V44.2954H302.887C302.949 45.2238 302.952 46.067 302.887 46.9358H293.539V33.3223H293.542Z" fill="#2F3D58"/>
<path d="M259.608 46.9436H256.117C257.777 44.5701 259.381 42.279 260.998 39.9651C259.418 37.7648 257.854 35.59 256.234 33.3386H259.92C260.885 34.7496 261.884 36.2089 262.936 37.7449C263.944 36.2118 264.897 34.7582 265.837 33.3301H269.324C267.732 35.6581 266.194 37.9067 264.636 40.1837C266.251 42.4096 267.852 44.6212 269.512 46.9124H265.828C264.832 45.4758 263.796 43.9767 262.715 42.4152C261.659 43.954 260.641 45.4417 259.611 46.9436H259.608Z" fill="#2F3D58"/>
<path d="M279.155 35.9868H275.211V33.3379H286.193V35.9811H282.178V46.9315H279.155V35.9896V35.9868Z" fill="#2F3D58"/>
<path d="M54.632 47.6414C53.6586 47.6414 52.7647 47.5165 51.9503 47.2695C51.1358 47.0225 50.4008 46.6505 49.7481 46.1565C49.0926 45.6625 48.5108 45.0635 48 44.3594L50.0347 42.0597C50.818 43.1471 51.5842 43.8966 52.3334 44.3111C53.0825 44.7256 53.9282 44.9329 54.8732 44.9329C55.4152 44.9329 55.9119 44.8477 56.3574 44.6802C56.8029 44.5127 57.1548 44.2799 57.4102 43.9846C57.6656 43.6893 57.7933 43.3486 57.7933 42.9654C57.7933 42.6928 57.7423 42.443 57.6373 42.2102C57.5323 41.9774 57.3762 41.7701 57.169 41.5884C56.9618 41.4039 56.7064 41.2335 56.4028 41.0745C56.0992 40.9155 55.7558 40.7792 55.3727 40.6657C54.9896 40.555 54.5667 40.4499 54.1042 40.3534C53.2273 40.1774 52.4582 39.9417 51.8055 39.6464C51.15 39.3512 50.5994 38.9849 50.1539 38.5449C49.7055 38.1048 49.3792 37.6108 49.172 37.06C48.9649 36.5092 48.8599 35.8818 48.8599 35.1805C48.8599 34.4793 49.0159 33.832 49.3281 33.2386C49.6403 32.648 50.0659 32.137 50.6108 31.7055C51.1528 31.2739 51.7857 30.9389 52.5036 30.7004C53.2216 30.4619 53.9963 30.3398 54.8278 30.3398C55.77 30.3398 56.6128 30.4506 57.3535 30.6749C58.097 30.8991 58.7497 31.2313 59.3172 31.6685C59.8848 32.1086 60.3502 32.6395 60.7191 33.2613L58.6589 35.2969C58.3382 34.8029 57.9806 34.3913 57.5805 34.0619C57.1804 33.7354 56.749 33.4856 56.2864 33.3181C55.8239 33.1506 55.3358 33.0654 54.825 33.0654C54.2489 33.0654 53.7494 33.1449 53.3266 33.3039C52.9038 33.4629 52.5717 33.69 52.3334 33.9881C52.095 34.2834 51.973 34.6383 51.973 35.0556C51.973 35.3764 52.0439 35.6575 52.1886 35.9073C52.3334 36.1543 52.5348 36.3758 52.7988 36.566C53.0627 36.7562 53.4004 36.9266 53.8175 37.0685C54.2319 37.2133 54.7029 37.3411 55.2308 37.4518C56.1077 37.6278 56.8994 37.8635 57.6032 38.1588C58.307 38.454 58.9029 38.8061 59.3995 39.2121C59.8933 39.6181 60.2708 40.0837 60.5262 40.6004C60.7816 41.1199 60.9093 41.6991 60.9093 42.3379C60.9093 43.4395 60.6482 44.3878 60.1317 45.177C59.6124 45.9691 58.8831 46.5739 57.9409 46.9997C56.9987 47.4228 55.8977 47.6357 54.6348 47.6357L54.632 47.6414Z" fill="#2F3D58"/>
<path d="M62.6875 37.5067V34.7755H70.8775V37.5067H62.6875ZM65.1791 47.4038V31.5645H68.1248V47.4038H65.1791Z" fill="#2F3D58"/>
<path d="M77.768 47.6426C76.7294 47.6426 75.7872 47.3558 74.9416 46.7795C74.0959 46.2032 73.4176 45.4224 72.9068 44.4316C72.396 43.4407 72.1406 42.3136 72.1406 41.053C72.1406 39.7925 72.396 38.6653 72.9068 37.6745C73.4176 36.6836 74.1129 35.9086 74.9898 35.3493C75.8667 34.79 76.8571 34.5117 77.961 34.5117C78.5995 34.5117 79.1813 34.6026 79.7091 34.7871C80.2369 34.9717 80.6995 35.23 81.0968 35.565C81.4969 35.9 81.8261 36.2833 82.09 36.7149C82.3539 37.1464 82.5327 37.6092 82.6292 38.106L81.9822 37.9385V34.7758H84.9534V47.4041H81.9595V44.3861L82.6548 44.2669C82.5441 44.6984 82.3398 45.1186 82.0446 45.5246C81.7495 45.9335 81.3834 46.2912 80.9435 46.6035C80.5037 46.9158 80.0184 47.1656 79.4821 47.3587C78.9457 47.5489 78.3753 47.6454 77.768 47.6454V47.6426ZM78.5825 45.0306C79.2692 45.0306 79.8765 44.8631 80.4015 44.5281C80.9265 44.1931 81.338 43.7246 81.636 43.1256C81.9311 42.5265 82.0787 41.8366 82.0787 41.053C82.0787 40.2694 81.9311 39.6079 81.636 39.0174C81.3408 38.4268 80.9294 37.9641 80.4015 37.6262C79.8737 37.2884 79.2664 37.1237 78.5825 37.1237C77.8986 37.1237 77.2941 37.2912 76.7748 37.6262C76.2555 37.9612 75.8525 38.424 75.5659 39.0174C75.2792 39.6079 75.1345 40.2865 75.1345 41.053C75.1345 41.8196 75.2792 42.5265 75.5659 43.1256C75.8525 43.7246 76.2555 44.1931 76.7748 44.5281C77.2941 44.8631 77.8957 45.0306 78.5825 45.0306Z" fill="#2F3D58"/>
<path d="M88.375 47.403V29.6699H91.3207V47.403H88.375ZM91.1305 43.5447L90.5544 40.7879L96.5423 34.7746H100.47L91.1277 43.5447H91.1305ZM96.9027 47.403L92.2571 41.773L94.3401 39.9986L100.544 47.403H96.9027Z" fill="#2F3D58"/>
<path d="M107.883 47.6428C106.557 47.6428 105.388 47.3645 104.372 46.8052C103.359 46.2459 102.567 45.4822 102 44.5169C101.432 43.5516 101.148 42.4444 101.148 41.198C101.148 40.2071 101.307 39.3043 101.628 38.4895C101.946 37.6746 102.391 36.9677 102.956 36.3687C103.524 35.7696 104.202 35.3068 104.991 34.9775C105.783 34.651 106.648 34.4863 107.59 34.4863C108.419 34.4863 109.194 34.6453 109.914 34.9661C110.632 35.287 111.257 35.7213 111.782 36.2721C112.307 36.8229 112.713 37.4787 112.991 38.2368C113.269 38.9948 113.402 39.821 113.385 40.7182L113.362 41.7488H103.135L102.584 39.7358H110.896L110.513 40.1418V39.6138C110.465 39.1198 110.306 38.6825 110.034 38.3078C109.761 37.933 109.415 37.6377 108.992 37.422C108.569 37.2062 108.101 37.0983 107.59 37.0983C106.807 37.0983 106.149 37.2516 105.615 37.5526C105.079 37.8563 104.676 38.2907 104.406 38.8586C104.134 39.4264 104 40.1333 104 40.9794C104 41.8254 104.171 42.504 104.514 43.1115C104.857 43.7191 105.343 44.1847 105.976 44.5141C106.606 44.8406 107.343 45.0052 108.192 45.0052C108.782 45.0052 109.324 44.9087 109.821 44.7185C110.315 44.5283 110.851 44.1847 111.427 43.6879L112.889 45.7235C112.457 46.1238 111.966 46.4617 111.416 46.7428C110.865 47.0238 110.286 47.2424 109.679 47.4014C109.072 47.5604 108.473 47.6399 107.883 47.6399V47.6428Z" fill="#2F3D58"/>
<path d="M126.005 47.403L121.766 34.7747L124.782 34.752L127.609 43.7605L127.081 43.7122L130.146 36.6684H131.919L135.058 43.7122L134.436 43.7832L137.286 34.7747H140.302L136.04 47.403H133.931L130.699 39.8311L131.153 39.8794L128.088 47.403H126.005Z" fill="#2F3D58"/>
<path d="M144.258 32.0889C143.668 32.0889 143.208 31.9413 142.882 31.646C142.555 31.3507 142.391 30.9306 142.391 30.3883C142.391 29.8772 142.558 29.4627 142.893 29.1419C143.228 28.8239 143.685 28.6621 144.258 28.6621C144.865 28.6621 145.331 28.8097 145.66 29.105C145.986 29.4003 146.151 29.829 146.151 30.3883C146.151 30.8823 145.983 31.2911 145.648 31.6091C145.314 31.9299 144.851 32.0889 144.258 32.0889ZM142.819 47.4031V34.7747H145.765V47.4031H142.819Z" fill="#2F3D58"/>
<path d="M148.375 37.5067V34.7755H156.565V37.5067H148.375ZM150.867 47.4038V31.5645H153.812V47.4038H150.867Z" fill="#2F3D58"/>
<path d="M158.82 47.403V29.6699H161.743V37.3611L161.193 37.6478C161.352 37.0715 161.664 36.5491 162.126 36.0778C162.589 35.6065 163.139 35.2261 163.778 34.9393C164.416 34.6526 165.072 34.5078 165.742 34.5078C166.701 34.5078 167.501 34.698 168.148 35.0841C168.795 35.4674 169.283 36.0437 169.61 36.8103C169.936 37.5768 170.101 38.5365 170.101 39.6863V47.403H167.155V39.9021C167.155 39.2633 167.067 38.7324 166.891 38.3093C166.715 37.8863 166.443 37.574 166.077 37.3753C165.711 37.1765 165.262 37.0828 164.734 37.0999C164.303 37.0999 163.909 37.168 163.548 37.3043C163.188 37.4406 162.878 37.6308 162.614 37.8806C162.351 38.1276 162.143 38.4115 161.993 38.7324C161.84 39.0532 161.766 39.4024 161.766 39.7857V47.4058H158.82V47.403Z" fill="#2F3D58"/>
<path d="M545.854 53.3494H359.562C356.69 53.3494 354.352 51.01 354.352 48.1368V32.1696C354.352 29.2965 356.69 26.957 359.562 26.957H545.854C548.725 26.957 551.064 29.2965 551.064 32.1696V48.1368C551.064 51.01 548.725 53.3494 545.854 53.3494ZM359.562 27.3857C356.923 27.3857 354.777 29.5321 354.777 32.1725V48.1396C354.777 50.78 356.923 52.9264 359.562 52.9264H545.854C548.493 52.9264 550.638 50.78 550.638 48.1396V32.1725C550.638 29.5321 548.493 27.3857 545.854 27.3857H359.562Z" fill="#2F3D58"/>
<path d="M367.721 44.6854C367.238 44.6854 366.793 44.623 366.384 44.4952C365.973 44.3675 365.604 44.1772 365.269 43.9189C364.934 43.6605 364.636 43.3425 364.375 42.9621L365.311 41.8832C365.726 42.4738 366.123 42.8854 366.503 43.1126C366.884 43.3397 367.335 43.4561 367.86 43.4561C368.181 43.4561 368.473 43.405 368.734 43.3028C368.995 43.2006 369.202 43.0615 369.355 42.8854C369.509 42.7094 369.582 42.505 369.582 42.2779C369.582 42.1246 369.557 41.9826 369.506 41.8463C369.455 41.7101 369.378 41.588 369.27 41.4801C369.165 41.3694 369.029 41.27 368.864 41.1763C368.7 41.0826 368.507 41.0003 368.288 40.9293C368.067 40.8583 367.814 40.7959 367.528 40.7448C367.071 40.6511 366.674 40.529 366.336 40.3785C365.998 40.2252 365.714 40.035 365.487 39.8079C365.26 39.5807 365.09 39.3195 364.979 39.0271C364.869 38.7347 364.815 38.4082 364.815 38.0448C364.815 37.6814 364.894 37.3605 365.05 37.0568C365.206 36.753 365.422 36.4889 365.697 36.2646C365.973 36.0404 366.296 35.8672 366.668 35.7451C367.04 35.623 367.44 35.5605 367.871 35.5605C368.328 35.5605 368.745 35.6202 369.126 35.7366C369.506 35.853 369.843 36.0318 370.139 36.2618C370.434 36.4946 370.681 36.7785 370.874 37.1164L369.912 38.0675C369.741 37.7892 369.551 37.5536 369.341 37.3634C369.128 37.1732 368.899 37.0284 368.643 36.9318C368.391 36.8353 368.118 36.787 367.831 36.787C367.502 36.787 367.216 36.8381 366.969 36.9404C366.725 37.0426 366.532 37.1845 366.393 37.3662C366.254 37.5479 366.183 37.7609 366.183 38.005C366.183 38.1839 366.217 38.3457 366.285 38.4933C366.353 38.641 366.455 38.7716 366.594 38.8851C366.733 38.9987 366.921 39.1009 367.159 39.1889C367.394 39.2769 367.678 39.3564 368.007 39.4246C368.473 39.5268 368.887 39.6545 369.25 39.8107C369.614 39.9668 369.923 40.1514 370.175 40.3615C370.428 40.5716 370.621 40.8101 370.752 41.0713C370.882 41.3325 370.947 41.6164 370.947 41.9202C370.947 42.488 370.817 42.9763 370.556 43.3908C370.295 43.8053 369.923 44.1233 369.441 44.3476C368.958 44.5719 368.385 44.6826 367.718 44.6826L367.721 44.6854Z" fill="#2F3D58"/>
<path d="M372.008 39.168V37.899H376.242V39.168H372.008ZM373.39 44.5567V36.2012H374.695V44.5567H373.39Z" fill="#2F3D58"/>
<path d="M379.929 44.6863C379.378 44.6863 378.879 44.533 378.427 44.2292C377.976 43.9254 377.613 43.5109 377.343 42.9857C377.074 42.4604 376.938 41.8699 376.938 41.2112C376.938 40.5526 377.074 39.9507 377.349 39.4283C377.624 38.9087 377.996 38.4999 378.464 38.2046C378.932 37.9094 379.46 37.7617 380.042 37.7617C380.388 37.7617 380.706 37.8128 380.993 37.915C381.279 38.0172 381.532 38.1592 381.748 38.3409C381.963 38.5226 382.139 38.7327 382.281 38.9683C382.42 39.204 382.508 39.4595 382.542 39.7292L382.25 39.627V37.9037H383.567V44.5614H382.25V42.9772L382.554 42.8892C382.502 43.1163 382.4 43.3406 382.244 43.5535C382.088 43.7693 381.889 43.9623 381.648 44.1298C381.407 44.2973 381.14 44.4336 380.851 44.5358C380.559 44.638 380.252 44.6891 379.931 44.6891L379.929 44.6863ZM380.272 43.4825C380.669 43.4825 381.018 43.386 381.325 43.1901C381.631 42.9942 381.867 42.7273 382.04 42.3838C382.213 42.0403 382.301 41.6513 382.301 41.2112C382.301 40.7712 382.213 40.3964 382.04 40.0586C381.867 39.7207 381.628 39.4538 381.325 39.2608C381.021 39.0677 380.669 38.9683 380.272 38.9683C379.875 38.9683 379.54 39.0649 379.239 39.2608C378.938 39.4567 378.703 39.7207 378.53 40.0586C378.356 40.3964 378.268 40.7825 378.268 41.2112C378.268 41.6399 378.354 42.0431 378.53 42.3838C378.703 42.7273 378.938 42.9942 379.239 43.1901C379.54 43.3832 379.883 43.4825 380.272 43.4825Z" fill="#2F3D58"/>
<path d="M385.391 44.5571V35.1738H386.696V44.5571H385.391ZM386.583 42.4789L386.52 41.0593L389.701 37.9022H391.464L386.583 42.4789ZM389.877 44.5571L387.369 41.6271L388.294 40.7782L391.552 44.5571H389.877Z" fill="#2F3D58"/>
<path d="M395.412 44.684C394.728 44.684 394.12 44.5392 393.593 44.2468C393.065 43.9543 392.65 43.5569 392.35 43.0487C392.049 42.5405 391.898 41.9584 391.898 41.2998C391.898 40.7745 391.984 40.2976 392.151 39.866C392.318 39.4345 392.554 39.0597 392.855 38.7446C393.156 38.4266 393.513 38.1824 393.933 38.0092C394.35 37.8361 394.804 37.748 395.295 37.748C395.727 37.748 396.127 37.8304 396.499 37.9951C396.87 38.1597 397.194 38.3868 397.469 38.6736C397.744 38.9603 397.954 39.301 398.102 39.6957C398.249 40.0903 398.32 40.519 398.312 40.9818L398.301 41.5383H392.863L392.571 40.4991H397.171L396.981 40.7149V40.4111C396.955 40.1329 396.862 39.8831 396.703 39.6644C396.541 39.4458 396.34 39.2726 396.096 39.1449C395.852 39.0171 395.585 38.9547 395.298 38.9547C394.841 38.9547 394.458 39.0427 394.146 39.2159C393.834 39.3891 393.595 39.6417 393.437 39.9767C393.275 40.3118 393.195 40.7234 393.195 41.2118C393.195 41.6774 393.292 42.0805 393.488 42.4241C393.681 42.7676 393.956 43.0316 394.311 43.2162C394.665 43.4036 395.074 43.4944 395.539 43.4944C395.869 43.4944 396.175 43.4405 396.459 43.3297C396.743 43.219 397.049 43.0203 397.378 42.7335L398.037 43.6591C397.835 43.8607 397.585 44.0395 397.296 44.1928C397.007 44.3461 396.697 44.4654 396.371 44.5534C396.044 44.6414 395.727 44.6868 395.415 44.6868L395.412 44.684Z" fill="#2F3D58"/>
<path d="M402.354 44.5586L405.737 39.7265L407.474 40.7287L404.849 44.5586H402.352H402.354ZM408.694 44.5586L405.944 40.5782L402.42 35.6836H405.045L407.732 39.6158L411.319 44.5615H408.694V44.5586ZM407.934 40.4391L406.211 39.4766L408.694 35.6864H411.191L407.934 40.4419V40.4391Z" fill="#2F3D58"/>
<path d="M412.43 44.5586V35.6836H416.423C416.987 35.6836 417.501 35.8057 417.963 36.0498C418.423 36.294 418.786 36.6319 419.048 37.0577C419.309 37.4836 419.439 37.9691 419.439 38.5085C419.439 39.0479 419.309 39.5675 419.048 40.0104C418.786 40.4533 418.426 40.8025 417.969 41.0552C417.512 41.3079 416.999 41.4356 416.423 41.4356H414.484V44.5558H412.43V44.5586ZM414.481 39.7918H416.23C416.448 39.7918 416.641 39.7435 416.806 39.647C416.97 39.5505 417.098 39.4113 417.186 39.2353C417.274 39.0565 417.319 38.8549 417.319 38.6277C417.319 38.4006 417.268 38.199 417.166 38.0259C417.064 37.8527 416.919 37.7192 416.729 37.6255C416.539 37.5319 416.309 37.4864 416.039 37.4864H414.481V39.7946V39.7918ZM417.348 44.5586L415.092 40.5527L417.297 40.2347L419.805 44.5586H417.348Z" fill="#2F3D58"/>
<path d="M421.32 44.5586V35.6836H425.035C425.685 35.6836 426.281 35.7915 426.823 36.0073C427.365 36.223 427.83 36.5296 428.225 36.9271C428.619 37.3246 428.92 37.7931 429.13 38.3353C429.34 38.8776 429.448 39.471 429.448 40.124C429.448 40.777 429.343 41.3732 429.13 41.9183C428.92 42.4634 428.616 42.9318 428.225 43.3265C427.833 43.7211 427.365 44.0249 426.823 44.2407C426.281 44.4564 425.688 44.5643 425.035 44.5643H421.32V44.5586ZM423.474 43.088L423.182 42.6564H424.97C425.324 42.6564 425.642 42.594 425.92 42.4719C426.199 42.3498 426.437 42.1795 426.636 41.958C426.834 41.7394 426.987 41.4725 427.098 41.1602C427.209 40.8479 427.263 40.5016 427.263 40.1211C427.263 39.7407 427.209 39.3943 427.098 39.082C426.987 38.7697 426.834 38.5028 426.636 38.2842C426.437 38.0656 426.199 37.8924 425.92 37.7703C425.642 37.6483 425.324 37.5858 424.97 37.5858H423.145L423.474 37.1798V43.088Z" fill="#2F3D58"/>
<path d="M437.007 44.6863C436.456 44.6863 435.957 44.533 435.505 44.2292C435.054 43.9254 434.691 43.5109 434.421 42.9857C434.152 42.4604 434.016 41.8699 434.016 41.2112C434.016 40.5526 434.152 39.9507 434.427 39.4283C434.702 38.9087 435.074 38.4999 435.542 38.2046C436.011 37.9094 436.538 37.7617 437.12 37.7617C437.466 37.7617 437.784 37.8128 438.071 37.915C438.357 38.0172 438.61 38.1592 438.826 38.3409C439.041 38.5226 439.217 38.7327 439.359 38.9683C439.498 39.204 439.586 39.4595 439.62 39.7292L439.328 39.627V37.9037H440.645V44.5614H439.328V42.9772L439.632 42.8892C439.581 43.1163 439.478 43.3406 439.322 43.5535C439.166 43.7693 438.968 43.9623 438.726 44.1298C438.485 44.2973 438.218 44.4336 437.929 44.5358C437.637 44.638 437.33 44.6891 437.01 44.6891L437.007 44.6863ZM437.35 43.4825C437.747 43.4825 438.096 43.386 438.403 43.1901C438.709 42.9942 438.945 42.7273 439.118 42.3838C439.291 42.0403 439.379 41.6513 439.379 41.2112C439.379 40.7712 439.291 40.3964 439.118 40.0586C438.945 39.7207 438.707 39.4538 438.403 39.2608C438.099 39.0677 437.747 38.9683 437.35 38.9683C436.953 38.9683 436.618 39.0649 436.317 39.2608C436.016 39.4567 435.781 39.7207 435.608 40.0586C435.435 40.3964 435.347 40.7825 435.347 41.2112C435.347 41.6399 435.432 42.0431 435.608 42.3838C435.781 42.7273 436.016 42.9942 436.317 43.1901C436.618 43.3832 436.961 43.4825 437.35 43.4825Z" fill="#2F3D58"/>
<path d="M442.477 44.5585V37.9008H443.782V39.2693L443.555 39.4226C443.64 39.1273 443.805 38.8548 444.049 38.6049C444.293 38.3551 444.585 38.1535 444.923 37.9974C445.26 37.8412 445.607 37.7617 445.961 37.7617C446.469 37.7617 446.889 37.8611 447.23 38.0598C447.568 38.2586 447.82 38.5595 447.99 38.9655C448.161 39.3715 448.243 39.8825 448.243 40.4986V44.5557H446.938V40.5866C446.938 40.2062 446.887 39.891 446.784 39.6412C446.682 39.3914 446.526 39.2097 446.316 39.0961C446.106 38.9825 445.842 38.9343 445.53 38.9513C445.277 38.9513 445.045 38.9911 444.832 39.0705C444.619 39.15 444.437 39.2636 444.281 39.4056C444.125 39.5504 444.003 39.715 443.915 39.9052C443.827 40.0955 443.782 40.2999 443.782 40.5213V44.5529H442.477V44.5585Z" fill="#2F3D58"/>
<path d="M452.798 44.6848C452.191 44.6848 451.646 44.5344 451.169 44.2363C450.693 43.9353 450.315 43.5265 450.034 43.0069C449.756 42.4874 449.617 41.894 449.617 41.224C449.617 40.5539 449.753 39.9634 450.029 39.441C450.304 38.9215 450.676 38.5126 451.15 38.2117C451.624 37.9107 452.16 37.7603 452.759 37.7603C453.088 37.7603 453.406 37.8142 453.715 37.9192C454.024 38.0243 454.3 38.1691 454.546 38.3508C454.791 38.5325 454.984 38.7312 455.123 38.947C455.262 39.1628 455.333 39.3814 455.333 39.6L454.952 39.6256V35.1738H456.258V44.5571H454.952V42.9729H455.205C455.205 43.1744 455.137 43.376 455.003 43.5748C454.867 43.7735 454.688 43.958 454.464 44.1255C454.24 44.2959 453.982 44.4293 453.692 44.5315C453.4 44.6337 453.102 44.6848 452.798 44.6848ZM452.974 43.5577C453.372 43.5577 453.721 43.4555 454.027 43.2539C454.331 43.0524 454.569 42.7741 454.742 42.4249C454.915 42.0757 455.003 41.6754 455.003 41.2268C455.003 40.7782 454.915 40.3808 454.742 40.0287C454.569 39.6767 454.331 39.4013 454.027 39.1968C453.724 38.9953 453.372 38.8931 452.974 38.8931C452.577 38.8931 452.228 38.9953 451.921 39.1968C451.618 39.3984 451.379 39.6767 451.206 40.0287C451.033 40.3808 450.945 40.7782 450.945 41.2268C450.945 41.6754 451.033 42.0757 451.206 42.4249C451.379 42.7741 451.618 43.0524 451.921 43.2539C452.225 43.4555 452.577 43.5577 452.974 43.5577Z" fill="#2F3D58"/>
<path d="M464.709 44.684C464.025 44.684 463.417 44.5392 462.889 44.2468C462.362 43.9543 461.947 43.5569 461.647 43.0487C461.346 42.5405 461.195 41.9584 461.195 41.2998C461.195 40.7745 461.28 40.2976 461.448 39.866C461.615 39.4345 461.851 39.0597 462.152 38.7446C462.452 38.4266 462.81 38.1824 463.23 38.0092C463.647 37.8361 464.101 37.748 464.592 37.748C465.024 37.748 465.424 37.8304 465.795 37.9951C466.167 38.1597 466.491 38.3868 466.766 38.6736C467.041 38.9603 467.251 39.301 467.399 39.6957C467.546 40.0903 467.617 40.519 467.609 40.9818L467.597 41.5383H462.16L461.868 40.4991H466.468L466.278 40.7149V40.4111C466.252 40.1329 466.159 39.8831 466 39.6644C465.838 39.4458 465.636 39.2726 465.392 39.1449C465.148 39.0171 464.882 38.9547 464.595 38.9547C464.138 38.9547 463.755 39.0427 463.443 39.2159C463.131 39.3891 462.892 39.6417 462.733 39.9767C462.572 40.3118 462.492 40.7234 462.492 41.2118C462.492 41.6774 462.589 42.0805 462.784 42.4241C462.977 42.7676 463.253 43.0316 463.607 43.2162C463.962 43.4036 464.371 43.4944 464.836 43.4944C465.165 43.4944 465.472 43.4405 465.756 43.3297C466.039 43.219 466.346 43.0203 466.675 42.7335L467.333 43.6591C467.132 43.8607 466.882 44.0395 466.593 44.1928C466.303 44.3461 465.994 44.4654 465.668 44.5534C465.341 44.6414 465.024 44.6868 464.711 44.6868L464.709 44.684Z" fill="#2F3D58"/>
<path d="M471.585 44.6863C471.034 44.6863 470.535 44.533 470.084 44.2292C469.632 43.9254 469.269 43.5109 469 42.9857C468.73 42.4604 468.594 41.8699 468.594 41.2112C468.594 40.5526 468.73 39.9507 469.005 39.4283C469.28 38.9087 469.652 38.4999 470.121 38.2046C470.589 37.9094 471.117 37.7617 471.698 37.7617C472.045 37.7617 472.362 37.8128 472.649 37.915C472.936 38.0172 473.188 38.1592 473.404 38.3409C473.62 38.5226 473.795 38.7327 473.937 38.9683C474.076 39.204 474.164 39.4595 474.198 39.7292L473.906 39.627V37.9037H475.223V44.5614H473.906V42.9772L474.21 42.8892C474.159 43.1163 474.057 43.3406 473.9 43.5535C473.744 43.7693 473.546 43.9623 473.305 44.1298C473.063 44.2973 472.797 44.4336 472.507 44.5358C472.215 44.638 471.908 44.6891 471.588 44.6891L471.585 44.6863ZM471.928 43.4825C472.325 43.4825 472.675 43.386 472.981 43.1901C473.287 42.9942 473.523 42.7273 473.696 42.3838C473.869 42.0403 473.957 41.6513 473.957 41.2112C473.957 40.7712 473.869 40.3964 473.696 40.0586C473.523 39.7207 473.285 39.4538 472.981 39.2608C472.677 39.0677 472.325 38.9683 471.928 38.9683C471.531 38.9683 471.196 39.0649 470.895 39.2608C470.594 39.4567 470.359 39.7207 470.186 40.0586C470.013 40.3964 469.925 40.7825 469.925 41.2112C469.925 41.6399 470.01 42.0431 470.186 42.3838C470.359 42.7273 470.594 42.9942 470.895 43.1901C471.196 43.3832 471.539 43.4825 471.928 43.4825Z" fill="#2F3D58"/>
<path d="M477.053 44.5585V37.9008H478.369V39.9933L478.242 39.4851C478.335 39.1642 478.494 38.8718 478.716 38.6106C478.94 38.3494 479.198 38.1422 479.487 37.9888C479.78 37.8355 480.08 37.7617 480.393 37.7617C480.537 37.7617 480.674 37.7731 480.804 37.7986C480.935 37.8242 481.04 37.8526 481.113 37.8866L480.77 39.3062C480.668 39.2636 480.557 39.2267 480.435 39.1983C480.313 39.1699 480.191 39.1529 480.075 39.1529C479.848 39.1529 479.629 39.1983 479.422 39.2863C479.215 39.3743 479.033 39.4993 478.877 39.6554C478.721 39.8116 478.596 39.9933 478.503 40.2005C478.409 40.4078 478.364 40.6349 478.364 40.8791V44.5557H477.047L477.053 44.5585Z" fill="#2F3D58"/>
<path d="M482.164 44.5585V37.9008H483.469V39.2693L483.242 39.4226C483.328 39.1273 483.492 38.8548 483.736 38.6049C483.98 38.3551 484.273 38.1535 484.61 37.9974C484.948 37.8412 485.294 37.7617 485.649 37.7617C486.157 37.7617 486.577 37.8611 486.917 38.0598C487.255 38.2586 487.508 38.5595 487.678 38.9655C487.848 39.3715 487.931 39.8825 487.931 40.4986V44.5557H486.625V40.5866C486.625 40.2062 486.574 39.891 486.472 39.6412C486.37 39.3914 486.214 39.2097 486.004 39.0961C485.794 38.9825 485.53 38.9343 485.218 38.9513C484.965 38.9513 484.732 38.9911 484.519 39.0705C484.307 39.15 484.125 39.2636 483.969 39.4056C483.813 39.5504 483.691 39.715 483.603 39.9052C483.515 40.0955 483.469 40.2999 483.469 40.5213V44.5529H482.164V44.5585Z" fill="#2F3D58"/>
<path d="M496.388 44.685C495.559 44.685 494.844 44.5572 494.24 44.2989C493.635 44.0405 493.119 43.6686 492.688 43.1774L493.701 41.5279C494.175 42.0191 494.634 42.3654 495.083 42.567C495.531 42.7686 495.999 42.8708 496.49 42.8708C496.717 42.8708 496.924 42.8424 497.112 42.7828C497.296 42.7232 497.441 42.638 497.543 42.5216C497.645 42.408 497.696 42.2661 497.696 42.0957C497.696 41.968 497.665 41.8544 497.603 41.7522C497.54 41.65 497.452 41.562 497.342 41.4853C497.231 41.4087 497.1 41.3405 496.95 41.2752C496.797 41.2128 496.638 41.156 496.467 41.1106C496.297 41.0651 496.124 41.0254 495.948 40.9913C495.29 40.8465 494.745 40.6535 494.319 40.4093C493.894 40.1651 493.573 39.8585 493.363 39.4894C493.153 39.1203 493.045 38.6888 493.045 38.1891C493.045 37.7916 493.136 37.4254 493.317 37.0932C493.499 36.7582 493.743 36.4714 494.052 36.2301C494.362 35.9888 494.717 35.8043 495.122 35.6737C495.528 35.5431 495.951 35.4778 496.391 35.4778C497.109 35.4778 497.75 35.5885 498.318 35.8071C498.882 36.0257 499.39 36.3692 499.839 36.8349L498.925 38.3311C498.587 37.9847 498.207 37.7263 497.784 37.5588C497.361 37.3885 496.919 37.3061 496.453 37.3061C496.201 37.3061 495.982 37.3374 495.801 37.3998C495.619 37.4623 495.477 37.5531 495.375 37.6667C495.273 37.7803 495.222 37.9194 495.222 38.0784C495.222 38.2232 495.264 38.3453 495.349 38.4446C495.435 38.5468 495.548 38.6377 495.693 38.7172C495.837 38.7967 496.002 38.8648 496.187 38.9188C496.374 38.9727 496.567 39.0181 496.768 39.0522C497.234 39.1459 497.654 39.268 498.028 39.4213C498.403 39.5746 498.729 39.7591 499.004 39.9777C499.28 40.1964 499.49 40.4576 499.637 40.7585C499.785 41.0594 499.859 41.4087 499.859 41.8033C499.859 42.4194 499.708 42.9418 499.41 43.3705C499.109 43.7963 498.701 44.1228 498.182 44.3471C497.662 44.5714 497.063 44.6822 496.388 44.6822V44.685ZM495.63 45.7127L495.769 39.8159L496.797 40.2333L496.936 45.7099H495.63V45.7127ZM497.112 40.2475L496.084 39.8301L495.945 34.5664H497.251L497.112 40.2475Z" fill="#2F3D58"/>
<path d="M501.492 44.5586V35.6836H505.207C505.857 35.6836 506.453 35.7915 506.995 36.0073C507.537 36.223 508.002 36.5296 508.397 36.9271C508.791 37.3246 509.092 37.7931 509.302 38.3353C509.512 38.8776 509.62 39.471 509.62 40.124C509.62 40.777 509.515 41.3732 509.302 41.9183C509.092 42.4634 508.788 42.9318 508.397 43.3265C508.005 43.7211 507.537 44.0249 506.995 44.2407C506.453 44.4564 505.86 44.5643 505.207 44.5643H501.492V44.5586ZM503.646 43.088L503.354 42.6564H505.142C505.496 42.6564 505.814 42.594 506.092 42.4719C506.37 42.3498 506.609 42.1795 506.807 41.958C507.006 41.7394 507.159 41.4725 507.27 41.1602C507.381 40.8479 507.435 40.5016 507.435 40.1211C507.435 39.7407 507.381 39.3943 507.27 39.082C507.159 38.7697 507.006 38.5028 506.807 38.2842C506.609 38.0656 506.37 37.8924 506.092 37.7703C505.814 37.6483 505.496 37.5858 505.142 37.5858H503.317L503.646 37.1798V43.088Z" fill="#2F3D58"/>
<path d="M511.268 44.5586V35.6836H517.452V37.5233H513.357V42.7217H517.577V44.5615H511.266L511.268 44.5586ZM512.282 40.9218V39.1729H516.882V40.9218H512.282Z" fill="#2F3D58"/>
<path d="M518.323 44.5586L521.706 39.7265L523.443 40.7287L520.818 44.5586H518.32H518.323ZM524.66 44.5586L521.91 40.5782L518.386 35.6836H521.011L523.698 39.6158L527.285 44.5615H524.66V44.5586ZM523.899 40.4391L522.177 39.4766L524.66 35.6864H527.157L523.899 40.4419V40.4391Z" fill="#2F3D58"/>
<path d="M530.308 44.5586V37.5858H527.672V35.6836H535.164V37.5858H532.465V44.5586H530.311H530.308Z" fill="#2F3D58"/>
<path d="M536.68 44.5586V35.6836H540.672C541.237 35.6836 541.751 35.8057 542.213 36.0498C542.673 36.294 543.036 36.6319 543.297 37.0577C543.559 37.4836 543.689 37.9691 543.689 38.5085C543.689 39.0479 543.559 39.5675 543.297 40.0104C543.036 40.4533 542.676 40.8025 542.219 41.0552C541.762 41.3079 541.249 41.4356 540.672 41.4356H538.734V44.5558H536.68V44.5586ZM538.731 39.7918H540.48C540.698 39.7918 540.891 39.7435 541.056 39.647C541.22 39.5505 541.348 39.4113 541.436 39.2353C541.524 39.0565 541.569 38.8549 541.569 38.6277C541.569 38.4006 541.518 38.199 541.416 38.0259C541.314 37.8527 541.169 37.7192 540.979 37.6255C540.789 37.5319 540.559 37.4864 540.289 37.4864H538.731V39.7946V39.7918ZM541.598 44.5586L539.342 40.5527L541.547 40.2347L544.055 44.5586H541.598Z" fill="#2F3D58"/>
</svg>
