<svg width="600" height="200" viewBox="0 0 600 200" fill="none" xmlns="http://www.w3.org/2000/svg">
<path d="M461.035 153.375H139.026C134.481 153.375 130.781 149.674 130.781 145.13V119.875C130.781 115.331 134.481 111.631 139.026 111.631H461.035C465.58 111.631 469.28 115.331 469.28 119.875V145.13C469.28 149.674 465.58 153.375 461.035 153.375ZM139.026 112.309C134.85 112.309 131.455 115.704 131.455 119.88V145.135C131.455 149.311 134.85 152.706 139.026 152.706H461.035C465.212 152.706 468.606 149.311 468.606 145.135V119.88C468.606 115.704 465.212 112.309 461.035 112.309H139.026Z" fill="#2F3D58"/>
<path d="M295.965 62.4113C293.63 59.1512 291.34 55.954 288.983 52.6579C294.551 48.6524 300.065 44.6828 305.701 40.6279C299.688 36.3215 293.787 32.0914 287.766 27.7805C290.087 24.5249 292.377 21.3097 294.726 18.0137C305.247 25.5443 315.688 33.0209 326.285 40.6099C316.141 47.907 306.1 55.1277 295.97 62.4158L295.965 62.4113Z" fill="#2F3D58"/>
<path d="M356.492 29.5359C358.504 29.5359 360.444 29.5135 362.384 29.5449C364.22 29.5718 366.07 29.3653 367.894 29.7694C372.546 30.8067 375.644 34.5698 375.86 39.4375C375.932 41.1124 375.792 42.7605 375.258 44.3591C373.897 48.4365 370.278 51.1038 365.981 51.1487C363.062 51.1802 360.143 51.1622 357.229 51.1622C357.004 51.1622 356.78 51.1308 356.497 51.1083V29.5359H356.492ZM361.275 46.9007C362.932 46.8693 364.485 47.022 366.035 46.8019C368.572 46.4427 370.242 44.9249 370.821 42.4865C371.059 41.4807 371.109 40.4568 371.01 39.4375C370.794 37.1563 369.887 35.2748 367.674 34.3183C365.626 33.4337 363.461 33.8827 361.275 33.8064V46.9052V46.9007Z" fill="#2F3D58"/>
<path d="M511.54 51.1547C510.076 48.5636 508.657 46.0489 507.224 43.5118H503.987V51.1053H499.406V29.6631C499.707 29.4655 500.021 29.5419 500.318 29.5419C503.183 29.5374 506.052 29.5329 508.917 29.5419C512.281 29.5463 515.02 31.5132 515.868 34.5218C516.749 37.6562 515.509 40.7142 512.635 42.5059C512.51 42.5823 512.393 42.6766 512.218 42.8068C513.807 45.5595 515.388 48.2942 517.04 51.1547H511.544H511.54ZM504.027 39.5422C505.626 39.5422 507.152 39.5512 508.679 39.5422C510.053 39.5287 511.019 38.7609 511.293 37.508C511.634 35.9318 511.126 34.5892 509.851 34.0503C507.965 33.26 505.989 33.7629 504.027 33.6417V39.5467V39.5422Z" fill="#2F3D58"/>
<path d="M329.203 37.9962C325.965 35.6656 322.795 33.38 319.477 30.991C325.521 26.6442 331.471 22.3648 337.537 18C339.863 21.2511 342.163 24.4573 344.52 27.7534C339.387 31.1841 334.331 34.5655 329.203 37.9962Z" fill="#2F3D58"/>
<path d="M329.197 43.2461C333.962 46.4882 338.69 49.7079 343.509 52.986C341.191 56.2506 338.919 59.4478 336.562 62.7663C330.886 58.7159 325.259 54.7059 319.484 50.5881C322.767 48.1048 325.951 45.6979 329.193 43.2461H329.197Z" fill="#2F3D58"/>
<path d="M392.518 46.9492H402.626C402.734 48.3906 402.73 49.7288 402.635 51.1119H387.844V29.6113H402.371V33.7246H392.509V38.0265H400.92C401.055 39.4545 401.014 40.7388 400.952 42.1623H392.514V46.9447L392.518 46.9492Z" fill="#2F3D58"/>
<path d="M471.887 29.5801H486.428V33.6889H476.58V38.0447H484.977V42.1804H476.557V46.9359H486.675C486.773 48.4043 486.778 49.738 486.675 51.112H471.883V29.5801H471.887Z" fill="#2F3D58"/>
<path d="M418.187 51.1277H412.664C415.291 47.3736 417.828 43.7498 420.388 40.09C417.887 36.6099 415.412 33.1701 412.848 29.6092H418.681C420.208 31.841 421.789 34.1491 423.455 36.5784C425.049 34.1536 426.558 31.8544 428.044 29.5957H433.563C431.044 33.2779 428.61 36.8344 426.145 40.4358C428.7 43.9563 431.232 47.4544 433.859 51.0783H428.031C426.454 48.8061 424.815 46.4351 423.104 43.9653C421.434 46.3992 419.822 48.7522 418.192 51.1277H418.187Z" fill="#2F3D58"/>
<path d="M449.125 33.7892H442.883V29.5996H460.261V33.7803H453.907V51.1001H449.125V33.7937V33.7892Z" fill="#2F3D58"/>
<path d="M93.8381 52.5884C92.2978 52.5884 90.8833 52.3908 89.5945 52.0001C88.3058 51.6094 87.1427 51.0212 86.1099 50.2398C85.0726 49.4585 84.152 48.511 83.3438 47.3974L86.5634 43.76C87.8028 45.4799 89.0153 46.6654 90.2008 47.321C91.3862 47.9766 92.7244 48.3044 94.2198 48.3044C95.0774 48.3044 95.8633 48.1697 96.5683 47.9048C97.2733 47.6398 97.8301 47.2716 98.2343 46.8046C98.6384 46.3376 98.8405 45.7987 98.8405 45.1925C98.8405 44.7614 98.7597 44.3663 98.5935 43.998C98.4274 43.6343 98.1804 43.302 97.8526 43.0146C97.5248 42.7227 97.1206 42.4533 96.6401 42.2018C96.1597 41.9504 95.6163 41.7348 95.0101 41.5552C94.4039 41.3801 93.7348 41.2139 93.0028 41.0613C91.6153 40.7828 90.3983 40.4101 89.3655 39.9431C88.3282 39.4761 87.4571 38.8968 86.752 38.2008C86.0425 37.5048 85.5261 36.7234 85.1983 35.8523C84.8705 34.9811 84.7044 33.9887 84.7044 32.8751C84.7044 31.7614 84.9514 30.7421 85.4453 29.8036C85.9393 28.8695 86.6128 28.0612 87.475 27.3787C88.3327 26.6961 89.3341 26.1662 90.4702 25.789C91.6063 25.4118 92.8322 25.2188 94.1479 25.2188C95.6388 25.2188 96.9724 25.3939 98.1445 25.7486C99.321 26.1034 100.354 26.6288 101.252 27.3203C102.15 28.0163 102.886 28.856 103.47 29.8395L100.21 33.0592C99.7027 32.2778 99.1369 31.6267 98.5037 31.1058C97.8705 30.5894 97.188 30.1942 96.456 29.9293C95.7241 29.6643 94.9517 29.5296 94.1434 29.5296C93.2318 29.5296 92.4415 29.6554 91.7724 29.9068C91.1033 30.1583 90.578 30.5175 90.2008 30.989C89.8235 31.4561 89.6305 32.0174 89.6305 32.6775C89.6305 33.1849 89.7427 33.6295 89.9717 34.0246C90.2008 34.4153 90.5196 34.7656 90.9372 35.0664C91.3548 35.3673 91.8892 35.6367 92.5493 35.8612C93.2049 36.0903 93.9503 36.2923 94.7856 36.4675C96.1731 36.7459 97.426 37.1186 98.5396 37.5856C99.6533 38.0526 100.596 38.6094 101.382 39.2516C102.163 39.8937 102.761 40.6302 103.165 41.4519C103.569 42.2737 103.771 43.1897 103.771 44.2001C103.771 45.9424 103.358 47.4423 102.541 48.6906C101.719 49.9435 100.565 50.8999 99.074 51.569C97.5831 52.2381 95.8408 52.5749 93.8426 52.5749L93.8381 52.5884Z" fill="#2F3D58"/>
<path d="M106.57 36.5574V32.2375H119.53V36.5574H106.57ZM110.508 52.2068V27.1543H115.17V52.2068H110.508Z" fill="#2F3D58"/>
<path d="M130.444 52.5889C128.8 52.5889 127.309 52.1354 125.971 51.2238C124.633 50.3122 123.56 49.0773 122.751 47.5101C121.943 45.943 121.539 44.1602 121.539 42.1664C121.539 40.1727 121.943 38.3899 122.751 36.8227C123.56 35.2556 124.66 34.0296 126.048 33.145C127.435 32.2604 129.002 31.8203 130.749 31.8203C131.759 31.8203 132.68 31.964 133.515 32.2559C134.35 32.5478 135.082 32.9564 135.711 33.4863C136.344 34.0162 136.865 34.6224 137.283 35.3049C137.7 35.9875 137.983 36.7195 138.136 37.5053L137.112 37.2404V32.2379H141.814V52.2117H137.076V47.4383L138.176 47.2497C138.001 47.9323 137.678 48.5968 137.211 49.239C136.744 49.8856 136.165 50.4514 135.469 50.9454C134.773 51.4393 134.005 51.8345 133.156 52.1399C132.307 52.4452 131.405 52.5934 130.444 52.5934V52.5889ZM131.733 48.4576C132.819 48.4576 133.78 48.1927 134.611 47.6628C135.442 47.1329 136.093 46.392 136.564 45.4445C137.031 44.497 137.265 43.4058 137.265 42.1664C137.265 40.9271 137.031 39.8808 136.564 38.9467C136.097 38.0127 135.446 37.2808 134.611 36.7464C133.776 36.212 132.815 35.9516 131.733 35.9516C130.65 35.9516 129.694 36.2165 128.872 36.7464C128.05 37.2763 127.413 38.0082 126.959 38.9467C126.506 39.8808 126.277 40.954 126.277 42.1664C126.277 43.3789 126.506 44.497 126.959 45.4445C127.413 46.392 128.05 47.1329 128.872 47.6628C129.694 48.1927 130.646 48.4576 131.733 48.4576Z" fill="#2F3D58"/>
<path d="M147.234 52.2079V24.1602H151.896V52.2079H147.234ZM151.59 46.1098L150.679 41.7495L160.154 32.2386H166.368L151.586 46.1098H151.59ZM160.724 52.2079L153.373 43.3032L156.669 40.4966L166.485 52.2079H160.724Z" fill="#2F3D58"/>
<path d="M178.086 52.5883C175.989 52.5883 174.138 52.1482 172.531 51.2636C170.928 50.379 169.675 49.171 168.777 47.6442C167.879 46.1175 167.43 44.3662 167.43 42.3949C167.43 40.8277 167.681 39.3997 168.189 38.1109C168.692 36.8221 169.397 35.704 170.29 34.7565C171.188 33.809 172.261 33.0771 173.51 32.5562C174.763 32.0398 176.132 31.7793 177.623 31.7793C178.934 31.7793 180.16 32.0308 181.301 32.5382C182.437 33.0456 183.425 33.7327 184.256 34.6038C185.086 35.475 185.729 36.5123 186.169 37.7113C186.609 38.9102 186.82 40.217 186.793 41.636L186.757 43.266H170.573L169.702 40.0822H182.855L182.248 40.7244V39.8891C182.172 39.1078 181.921 38.4163 181.489 37.8235C181.058 37.2308 180.511 36.7638 179.841 36.4225C179.172 36.0812 178.431 35.9106 177.623 35.9106C176.384 35.9106 175.342 36.153 174.498 36.629C173.649 37.1095 173.011 37.7966 172.585 38.6947C172.154 39.5928 171.943 40.7109 171.943 42.0491C171.943 43.3873 172.212 44.4605 172.755 45.4215C173.299 46.3824 174.067 47.1189 175.068 47.6398C176.065 48.1562 177.232 48.4166 178.575 48.4166C179.509 48.4166 180.367 48.2639 181.153 47.9631C181.934 47.6577 182.783 47.1189 183.694 46.333L186.007 49.5527C185.324 50.1859 184.547 50.7203 183.676 51.1648C182.805 51.6049 181.889 51.9551 180.928 52.2066C179.967 52.4581 179.02 52.5838 178.086 52.5838V52.5883Z" fill="#2F3D58"/>
<path d="M206.779 52.207L200.07 32.2332L204.844 32.1973L209.316 46.4456L208.481 46.3693L213.331 35.2284H216.137L221.104 46.3693L220.12 46.4816L224.629 32.2332H229.402L222.658 52.207H219.321L214.206 40.2308L214.925 40.3071L210.075 52.207H206.779Z" fill="#2F3D58"/>
<path d="M235.658 27.9904C234.724 27.9904 233.996 27.7569 233.48 27.2898C232.964 26.8228 232.703 26.1582 232.703 25.3005C232.703 24.4923 232.968 23.8366 233.498 23.3292C234.028 22.8263 234.751 22.5703 235.658 22.5703C236.619 22.5703 237.355 22.8038 237.876 23.2708C238.393 23.7378 238.653 24.4159 238.653 25.3005C238.653 26.0819 238.388 26.7285 237.858 27.2315C237.328 27.7389 236.596 27.9904 235.658 27.9904ZM233.386 52.2077V32.2339H238.047V52.2077H233.386Z" fill="#2F3D58"/>
<path d="M242.172 36.5574V32.2375H255.131V36.5574H242.172ZM246.115 52.2068V27.1543H250.776V52.2068H246.115Z" fill="#2F3D58"/>
<path d="M258.703 52.2079V24.1602H263.328V36.3249L262.457 36.7785C262.709 35.8669 263.203 35.0407 263.935 34.2952C264.667 33.5498 265.538 32.9481 266.548 32.4945C267.558 32.041 268.596 31.812 269.655 31.812C271.173 31.812 272.44 32.1128 273.463 32.7236C274.487 33.3298 275.26 34.2413 275.776 35.4538C276.292 36.6662 276.553 38.184 276.553 40.0027V52.2079H271.892V40.3439C271.892 39.3336 271.753 38.4938 271.474 37.8248C271.196 37.1557 270.765 36.6617 270.185 36.3474C269.606 36.0331 268.897 35.8849 268.061 35.9118C267.379 35.9118 266.755 36.0196 266.184 36.2351C265.614 36.4507 265.125 36.7515 264.707 37.1467C264.289 37.5374 263.962 37.9864 263.724 38.4939C263.481 39.0013 263.364 39.5536 263.364 40.1598V52.2123H258.703V52.2079Z" fill="#2F3D58"/>
<path d="M89.9648 91.6221C88.685 91.6221 87.5174 91.2673 86.4667 90.5578C85.4114 89.8483 84.5717 88.8829 83.943 87.6615C83.3143 86.44 83 85.0615 83 83.5257C83 81.99 83.3188 80.5844 83.961 79.3765C84.5986 78.164 85.4653 77.2166 86.561 76.525C87.6522 75.838 88.8781 75.4922 90.2387 75.4922C91.047 75.4922 91.7834 75.6089 92.4525 75.8469C93.1216 76.0849 93.7099 76.4127 94.2083 76.8348C94.7112 77.257 95.1244 77.7464 95.4477 78.2988C95.771 78.8511 95.9731 79.4393 96.0539 80.0725L95.3758 79.8345V75.8155H98.4473V91.3257H95.3758V87.6345L96.0853 87.428C95.9686 87.9578 95.7261 88.4742 95.3624 88.9772C94.9986 89.4801 94.5361 89.9292 93.9748 90.3198C93.4135 90.715 92.7938 91.0293 92.1157 91.2673C91.4377 91.5053 90.7237 91.6221 89.9738 91.6221H89.9648ZM90.7641 88.8155C91.6891 88.8155 92.5064 88.591 93.2159 88.1375C93.9254 87.6839 94.4822 87.0597 94.8864 86.2604C95.2905 85.4611 95.4926 84.554 95.4926 83.5302C95.4926 82.5064 95.2905 81.6307 94.8864 80.8404C94.4822 80.0545 93.9254 79.4349 93.2159 78.9813C92.5064 78.5278 91.6891 78.3032 90.7641 78.3032C89.839 78.3032 89.0577 78.5278 88.3572 78.9813C87.6567 79.4349 87.1043 80.0545 86.7047 80.8404C86.3005 81.6262 86.0985 82.5243 86.0985 83.5302C86.0985 84.5361 86.3005 85.4656 86.7047 86.2604C87.1088 87.0597 87.6611 87.6839 88.3572 88.1375C89.0577 88.591 89.857 88.8155 90.7641 88.8155Z" fill="#2F3D58"/>
<path d="M102.695 91.3263V75.8161H105.74V79.0044L105.21 79.3591C105.408 78.6721 105.789 78.0344 106.364 77.4551C106.934 76.8758 107.612 76.3999 108.403 76.0361C109.189 75.6724 109.997 75.4883 110.823 75.4883C112.004 75.4883 112.988 75.7218 113.778 76.1843C114.564 76.6468 115.156 77.3518 115.552 78.2948C115.947 79.2379 116.144 80.4323 116.144 81.8693V91.3218H113.1V82.0759C113.1 81.1912 112.983 80.4548 112.745 79.8755C112.507 79.2962 112.143 78.8696 111.654 78.6047C111.16 78.3398 110.549 78.2275 109.822 78.2634C109.229 78.2634 108.69 78.3577 108.196 78.5418C107.702 78.7304 107.276 78.9909 106.912 79.3232C106.548 79.66 106.261 80.0462 106.054 80.4907C105.848 80.9353 105.744 81.4113 105.744 81.9232V91.3173H102.7L102.695 91.3263Z" fill="#2F3D58"/>
<path d="M126.742 91.6237C125.323 91.6237 124.057 91.2735 122.947 90.5774C121.834 89.8769 120.954 88.9249 120.303 87.7125C119.651 86.5001 119.328 85.117 119.328 83.5633C119.328 82.0096 119.647 80.6265 120.289 79.4141C120.927 78.2016 121.802 77.2496 122.903 76.5491C124.007 75.8486 125.256 75.5028 126.652 75.5028C127.42 75.5028 128.165 75.6241 128.884 75.871C129.602 76.118 130.249 76.4503 130.819 76.8769C131.39 77.299 131.839 77.7615 132.162 78.2645C132.485 78.7674 132.651 79.2748 132.651 79.7868L131.767 79.8451V69.4766H134.811V91.3363H131.767V87.6451H132.36C132.36 88.1166 132.202 88.5837 131.888 89.0462C131.574 89.5087 131.156 89.9353 130.631 90.3305C130.11 90.7256 129.508 91.04 128.83 91.278C128.152 91.516 127.456 91.6327 126.746 91.6327L126.742 91.6237ZM127.155 88.9923C128.08 88.9923 128.897 88.7543 129.607 88.2828C130.316 87.8113 130.873 87.1647 131.277 86.3474C131.682 85.5301 131.884 84.6006 131.884 83.5543C131.884 82.508 131.682 81.5785 131.277 80.7612C130.873 79.9439 130.316 79.2973 129.607 78.8258C128.897 78.3543 128.08 78.1163 127.155 78.1163C126.23 78.1163 125.413 78.3543 124.703 78.8258C123.994 79.2973 123.437 79.9439 123.033 80.7612C122.629 81.5785 122.427 82.508 122.427 83.5543C122.427 84.6006 122.629 85.5301 123.033 86.3474C123.437 87.1647 123.994 87.8113 124.703 88.2828C125.413 88.7543 126.23 88.9923 127.155 88.9923Z" fill="#2F3D58"/>
<path d="M152.707 91.6244C151.602 91.6244 150.646 91.3684 149.829 90.8565C149.011 90.3446 148.383 89.6261 147.938 88.701C147.493 87.776 147.273 86.6713 147.273 85.3915V75.8223H150.318V84.5653C150.318 85.4724 150.462 86.2537 150.745 86.9138C151.028 87.5739 151.445 88.0813 151.984 88.4361C152.527 88.7908 153.178 88.966 153.946 88.966C154.517 88.966 155.038 88.8717 155.514 88.6876C155.985 88.499 156.394 88.2385 156.739 87.9062C157.085 87.5694 157.355 87.1698 157.552 86.6938C157.75 86.2223 157.849 85.7104 157.849 85.158V75.8223H160.893V91.3325H157.849V88.0813L158.378 87.7266C158.14 88.4541 157.745 89.1142 157.184 89.7069C156.623 90.2997 155.958 90.7667 155.19 91.108C154.422 91.4537 153.596 91.6244 152.707 91.6244Z" fill="#2F3D58"/>
<path d="M165.148 91.3263V75.8161H168.193V79.0044L167.663 79.3591C167.861 78.6721 168.242 78.0344 168.817 77.4551C169.387 76.8758 170.066 76.3999 170.856 76.0361C171.642 75.6724 172.45 75.4883 173.276 75.4883C174.457 75.4883 175.441 75.7218 176.231 76.1843C177.017 76.6468 177.61 77.3518 178.005 78.2948C178.4 79.2379 178.597 80.4323 178.597 81.8693V91.3218H175.553V82.0759C175.553 81.1912 175.436 80.4548 175.198 79.8755C174.96 79.2962 174.596 78.8696 174.107 78.6047C173.613 78.3398 173.002 78.2275 172.275 78.2634C171.682 78.2634 171.143 78.3577 170.649 78.5418C170.155 78.7304 169.729 78.9909 169.365 79.3232C169.001 79.66 168.714 80.0462 168.507 80.4907C168.301 80.9353 168.197 81.4113 168.197 81.9232V91.3173H165.153L165.148 91.3263Z" fill="#2F3D58"/>
<path d="M182.781 91.3246V69.4648H185.826V91.3246H182.781Z" fill="#2F3D58"/>
<path d="M196.811 91.6209C195.293 91.6209 193.941 91.2706 192.751 90.5746C191.561 89.8741 190.618 88.9221 189.931 87.7097C189.24 86.4972 188.898 85.1142 188.898 83.5605C188.898 82.0067 189.244 80.6237 189.931 79.4112C190.618 78.1988 191.561 77.2468 192.751 76.5463C193.941 75.8458 195.297 75.5 196.811 75.5C198.324 75.5 199.653 75.8503 200.843 76.5463C202.033 77.2468 202.976 78.1988 203.663 79.4112C204.35 80.6237 204.696 82.0067 204.696 83.5605C204.696 85.1142 204.35 86.5017 203.663 87.7097C202.972 88.9221 202.033 89.8741 200.843 90.5746C199.653 91.2751 198.306 91.6209 196.811 91.6209ZM196.811 88.8413C197.736 88.8413 198.562 88.6123 199.294 88.1453C200.021 87.6827 200.592 87.0541 201.009 86.2548C201.422 85.4554 201.62 84.5573 201.602 83.5515C201.62 82.5276 201.427 81.6161 201.009 80.8212C200.596 80.0219 200.026 79.3978 199.294 78.9442C198.567 78.4907 197.74 78.2661 196.811 78.2661C195.881 78.2661 195.055 78.4997 194.314 78.9622C193.578 79.4247 192.998 80.0534 192.585 80.8527C192.172 81.652 191.974 82.5501 191.992 83.556C191.974 84.5618 192.168 85.4599 192.585 86.2592C192.998 87.0586 193.573 87.6872 194.314 88.1497C195.05 88.6123 195.886 88.8458 196.811 88.8458V88.8413Z" fill="#2F3D58"/>
<path d="M214.585 91.6221C213.148 91.6221 211.864 91.2673 210.732 90.5578C209.601 89.8483 208.703 88.8829 208.043 87.6615C207.382 86.44 207.055 85.0704 207.055 83.5571C207.055 82.0438 207.382 80.6742 208.043 79.4528C208.703 78.2314 209.596 77.2659 210.732 76.5564C211.864 75.8469 213.148 75.4922 214.585 75.4922C216.022 75.4922 217.221 75.7706 218.353 76.3319C219.484 76.8932 220.347 77.6566 220.939 78.6221L219.255 80.6877C218.941 80.2342 218.537 79.821 218.043 79.4483C217.549 79.0756 217.028 78.7792 216.476 78.5637C215.923 78.3481 215.394 78.2404 214.882 78.2404C213.934 78.2404 213.094 78.4739 212.358 78.9364C211.622 79.3989 211.033 80.0366 210.602 80.8404C210.167 81.6487 209.951 82.5557 209.951 83.5571C209.951 84.5585 210.176 85.4611 210.629 86.2604C211.083 87.0597 211.684 87.6929 212.43 88.1644C213.18 88.6359 214.006 88.8739 214.913 88.8739C215.443 88.8739 215.964 88.7841 216.462 88.609C216.965 88.4293 217.45 88.1644 217.926 87.8096C218.398 87.4549 218.842 87.0238 219.255 86.5119L220.939 88.5775C220.311 89.4622 219.408 90.1941 218.236 90.7644C217.064 91.3347 215.847 91.6221 214.59 91.6221H214.585Z" fill="#2F3D58"/>
<path d="M223.805 91.3246V69.4648H226.849V91.3246H223.805ZM226.58 86.4794L226.432 83.1699L233.845 75.8144H237.95L226.575 86.4794H226.58ZM234.259 91.3246L228.412 84.499L230.567 82.5187L238.161 91.3201H234.263L234.259 91.3246Z" fill="#2F3D58"/>
<path d="M254.614 91.5906C253.294 91.5906 252.117 91.2403 251.084 90.5443C250.052 89.8438 249.23 88.8783 248.619 87.6479C248.008 86.4175 247.703 85.0255 247.703 83.4673C247.703 81.9091 248.008 80.4631 248.619 79.2417C249.23 78.0203 250.065 77.0593 251.129 76.3633C252.194 75.6628 253.402 75.3125 254.762 75.3125C255.512 75.3125 256.195 75.4203 256.814 75.6358C257.434 75.8514 257.982 76.1522 258.453 76.5384C258.925 76.9246 259.329 77.3647 259.666 77.8676C260.003 78.3705 260.245 78.9049 260.402 79.4752L259.428 79.3585V75.6358H264.125V91.3212H259.338V87.5402L260.402 87.5087C260.245 88.061 259.989 88.5819 259.634 89.0759C259.28 89.5699 258.849 90.0009 258.337 90.3737C257.825 90.7464 257.254 91.0427 256.621 91.2583C255.993 91.4738 255.324 91.5816 254.614 91.5816V91.5906ZM255.912 87.603C256.639 87.603 257.272 87.4369 257.802 87.1001C258.332 86.7633 258.75 86.2873 259.042 85.6676C259.338 85.0479 259.486 84.316 259.486 83.4673C259.486 82.6186 259.338 81.8866 259.042 81.2669C258.745 80.6472 258.332 80.1623 257.802 79.821C257.272 79.4752 256.639 79.3046 255.912 79.3046C255.184 79.3046 254.587 79.4752 254.066 79.821C253.545 80.1667 253.137 80.6472 252.84 81.2669C252.544 81.8866 252.396 82.623 252.396 83.4673C252.396 84.3115 252.544 85.0479 252.84 85.6676C253.137 86.2873 253.545 86.7678 254.066 87.1001C254.587 87.4369 255.202 87.603 255.912 87.603Z" fill="#2F3D58"/>
<path d="M268.266 91.3249V75.6396H272.756L272.904 78.4775L272.285 78.509C272.523 77.9971 272.819 77.5435 273.187 77.1484C273.551 76.7532 273.964 76.4254 274.427 76.1604C274.889 75.8955 275.37 75.6934 275.873 75.5542C276.375 75.415 276.883 75.3477 277.395 75.3477C278.163 75.3477 278.863 75.4644 279.492 75.7024C280.121 75.9404 280.673 76.3176 281.144 76.8385C281.616 77.3594 281.993 78.0644 282.267 78.9491L281.531 78.8907L281.769 78.4192C282.025 77.9477 282.352 77.5166 282.756 77.1349C283.161 76.7487 283.61 76.4254 284.099 76.1604C284.593 75.8955 285.105 75.6934 285.635 75.5542C286.165 75.415 286.677 75.3477 287.171 75.3477C288.41 75.3477 289.447 75.5902 290.274 76.0706C291.1 76.5556 291.724 77.2786 292.151 78.2395C292.573 79.205 292.784 80.377 292.784 81.7556V91.3249H288.028V82.1373C288.028 81.5086 287.939 80.9832 287.763 80.5701C287.588 80.157 287.323 79.8471 286.982 79.6406C286.636 79.434 286.21 79.3307 285.698 79.3307C285.285 79.3307 284.903 79.3981 284.562 79.5373C284.216 79.6765 283.924 79.8606 283.677 80.0986C283.43 80.3366 283.237 80.6105 283.102 80.9249C282.963 81.2392 282.896 81.594 282.896 81.9891V91.3249H278.14V82.1104C278.14 81.5176 278.05 81.0192 277.875 80.606C277.7 80.1929 277.431 79.8786 277.076 79.663C276.721 79.4475 276.308 79.3397 275.837 79.3397C275.423 79.3397 275.042 79.4071 274.701 79.5463C274.355 79.6855 274.058 79.8696 273.816 80.1076C273.569 80.3456 273.376 80.6195 273.241 80.9338C273.102 81.2482 273.035 81.594 273.035 81.9667V91.3294H268.279L268.266 91.3249Z" fill="#2F3D58"/>
<path d="M302.497 91.5906C301.177 91.5906 300 91.2403 298.967 90.5443C297.934 89.8438 297.113 88.8783 296.502 87.6479C295.891 86.4175 295.586 85.0255 295.586 83.4673C295.586 81.9091 295.891 80.4631 296.502 79.2417C297.113 78.0203 297.948 77.0593 299.012 76.3633C300.076 75.6628 301.284 75.3125 302.645 75.3125C303.395 75.3125 304.077 75.4203 304.697 75.6358C305.317 75.8514 305.865 76.1522 306.336 76.5384C306.808 76.9246 307.212 77.3647 307.549 77.8676C307.885 78.3705 308.128 78.9049 308.285 79.4752L307.311 79.3585V75.6358H312.008V91.3212H307.221V87.5402L308.285 87.5087C308.128 88.061 307.872 88.5819 307.517 89.0759C307.162 89.5699 306.731 90.0009 306.219 90.3737C305.708 90.7464 305.137 91.0427 304.504 91.2583C303.875 91.4738 303.206 91.5816 302.497 91.5816V91.5906ZM303.795 87.603C304.522 87.603 305.155 87.4369 305.685 87.1001C306.215 86.7633 306.633 86.2873 306.924 85.6676C307.221 85.0479 307.369 84.316 307.369 83.4673C307.369 82.6186 307.221 81.8866 306.924 81.2669C306.628 80.6472 306.215 80.1623 305.685 79.821C305.155 79.4752 304.522 79.3046 303.795 79.3046C303.067 79.3046 302.47 79.4752 301.949 79.821C301.428 80.1667 301.019 80.6472 300.723 81.2669C300.427 81.8866 300.279 82.623 300.279 83.4673C300.279 84.3115 300.427 85.0479 300.723 85.6676C301.019 86.2873 301.428 86.7678 301.949 87.1001C302.47 87.4369 303.085 87.603 303.795 87.603Z" fill="#2F3D58"/>
<path d="M315.555 91.3254V88.6086L323.885 77.9167V79.4839H315.555V75.6445H328.55V78.4825L320.665 88.8511L320.548 87.4905H328.82V91.3299H315.555V91.3254Z" fill="#2F3D58"/>
<path d="M335.049 72.5382C334.164 72.5382 333.468 72.3272 332.965 71.9051C332.462 71.4829 332.211 70.8767 332.211 70.0864C332.211 69.3769 332.467 68.7976 332.979 68.3441C333.491 67.8905 334.178 67.666 335.049 67.666C335.92 67.666 336.625 67.8771 337.115 68.2992C337.609 68.7213 337.851 69.3185 337.851 70.0864C337.851 70.8543 337.6 71.4066 337.097 71.8601C336.594 72.3137 335.911 72.5382 335.044 72.5382H335.049ZM332.687 91.3265V75.6412H337.411V91.3265H332.687Z" fill="#2F3D58"/>
<path d="M341.852 91.327V75.6417H346.342L346.49 78.8299L345.547 79.1847C345.763 78.4752 346.153 77.833 346.715 77.2493C347.276 76.67 347.95 76.1985 348.74 75.8482C349.526 75.4935 350.352 75.3184 351.223 75.3184C352.404 75.3184 353.397 75.5608 354.205 76.0413C355.013 76.5263 355.624 77.2448 356.037 78.1968C356.45 79.1533 356.657 80.3208 356.657 81.6949V91.3225H351.901V82.0766C351.901 81.4479 351.811 80.9225 351.636 80.5094C351.461 80.0963 351.187 79.7864 350.824 79.5798C350.46 79.3733 350.011 79.279 349.481 79.3014C349.068 79.3014 348.682 79.3643 348.327 79.4945C347.972 79.6247 347.667 79.8089 347.411 80.0558C347.155 80.3028 346.953 80.5812 346.805 80.9001C346.656 81.2144 346.585 81.5602 346.585 81.9329V91.327H341.861H341.852Z" fill="#2F3D58"/>
<path d="M367.787 98.1206C366.507 98.1206 365.232 97.932 363.961 97.5593C362.69 97.1865 361.662 96.7016 360.876 96.1133L362.529 92.8038C362.942 93.0777 363.4 93.3202 363.903 93.5268C364.406 93.7333 364.931 93.895 365.484 94.0162C366.036 94.133 366.597 94.1914 367.167 94.1914C368.173 94.1914 368.991 94.0432 369.619 93.7468C370.248 93.4504 370.724 93.0014 371.038 92.4042C371.353 91.8024 371.51 91.0525 371.51 90.1454V87.5185L372.426 87.6667C372.287 88.3178 371.95 88.906 371.407 89.4404C370.863 89.9703 370.199 90.4014 369.413 90.7247C368.627 91.048 367.787 91.2142 366.903 91.2142C365.484 91.2142 364.217 90.8864 363.108 90.2263C361.994 89.5662 361.119 88.6501 360.477 87.4781C359.839 86.306 359.516 84.9544 359.516 83.4186C359.516 81.8829 359.83 80.4504 360.463 79.238C361.092 78.0256 361.958 77.0736 363.063 76.373C364.168 75.6725 365.407 75.3223 366.786 75.3223C367.379 75.3223 367.944 75.3896 368.483 75.5288C369.027 75.668 369.525 75.8477 369.987 76.0767C370.45 76.3012 370.863 76.5706 371.227 76.876C371.591 77.1813 371.887 77.5091 372.112 77.8639C372.336 78.2186 372.489 78.5824 372.57 78.9551L371.595 79.1931L371.77 75.6501H376.261V90.0646C376.261 91.3444 376.068 92.4805 375.686 93.4774C375.3 94.4698 374.738 95.3185 374.002 96.019C373.266 96.7195 372.372 97.2449 371.33 97.5997C370.288 97.9544 369.103 98.1296 367.787 98.1296V98.1206ZM367.904 87.5454C368.672 87.5454 369.336 87.3748 369.898 87.029C370.459 86.6832 370.89 86.2073 371.195 85.5965C371.501 84.9858 371.653 84.2674 371.653 83.4411C371.653 82.6149 371.501 81.8919 371.195 81.2722C370.89 80.6525 370.459 80.1675 369.898 79.8262C369.336 79.4805 368.672 79.3098 367.904 79.3098C367.136 79.3098 366.503 79.4805 365.955 79.8262C365.403 80.172 364.976 80.6525 364.671 81.2722C364.365 81.8919 364.213 82.6149 364.213 83.4411C364.213 84.2674 364.365 84.9858 364.671 85.5965C364.976 86.2073 365.403 86.6832 365.955 87.029C366.507 87.3748 367.154 87.5454 367.904 87.5454Z" fill="#2F3D58"/>
<path d="M389.82 91.327V75.6417H394.311L394.517 80.7519L393.633 79.7774C393.871 78.9332 394.257 78.1743 394.8 77.5052C395.344 76.8361 395.977 76.3063 396.704 75.9111C397.432 75.5159 398.209 75.3184 399.039 75.3184C399.394 75.3184 399.722 75.3498 400.027 75.4082C400.333 75.4665 400.611 75.5384 400.867 75.6147L399.569 80.8417C399.354 80.7025 399.062 80.5902 398.698 80.5004C398.334 80.4106 397.953 80.3657 397.562 80.3657C397.131 80.3657 396.727 80.4375 396.349 80.5857C395.972 80.7339 395.658 80.945 395.407 81.2189C395.151 81.4928 394.948 81.8206 394.8 82.1933C394.652 82.566 394.58 82.9926 394.58 83.4641V91.3225H389.825L389.82 91.327Z" fill="#2F3D58"/>
<path d="M410.087 91.6234C408.354 91.6234 406.849 91.2731 405.569 90.5771C404.29 89.8766 403.293 88.9246 402.588 87.7121C401.878 86.4997 401.523 85.1166 401.523 83.5629C401.523 82.364 401.721 81.2593 402.116 80.2534C402.511 79.2475 403.064 78.3764 403.769 77.6399C404.478 76.9035 405.318 76.3287 406.292 75.9246C407.267 75.5204 408.336 75.3184 409.499 75.3184C410.603 75.3184 411.609 75.5159 412.525 75.9111C413.441 76.3063 414.232 76.8541 414.901 77.5636C415.57 78.2731 416.082 79.1083 416.436 80.0738C416.791 81.0393 416.948 82.0945 416.908 83.2351L416.876 84.5059H404.379L403.701 81.8475H413.037L412.534 82.4089V81.8161C412.494 81.3222 412.341 80.8866 412.076 80.5004C411.811 80.1187 411.461 79.8178 411.025 79.5978C410.594 79.3823 410.1 79.2745 409.548 79.2745C408.78 79.2745 408.124 79.4272 407.586 79.7325C407.042 80.0379 406.634 80.4824 406.36 81.0617C406.086 81.641 405.947 82.355 405.947 83.2037C405.947 84.0524 406.131 84.8248 406.494 85.4624C406.858 86.1046 407.393 86.5985 408.089 86.9533C408.789 87.308 409.62 87.4831 410.585 87.4831C411.254 87.4831 411.852 87.3843 412.372 87.1868C412.893 86.9892 413.459 86.6569 414.07 86.1809L416.284 89.3108C415.673 89.8407 415.022 90.2762 414.335 90.6085C413.643 90.9453 412.943 91.1968 412.224 91.3629C411.506 91.5291 410.792 91.6144 410.082 91.6144L410.087 91.6234Z" fill="#2F3D58"/>
<path d="M423.044 91.326L417.875 75.6406H422.868L425.765 85.8296L425.145 85.7128L428.396 77.7961H431.171L434.598 85.7443L433.92 85.8026L436.816 75.6406H441.809L436.461 91.326H432.977L429.582 82.9063L429.936 82.9646L426.542 91.326H423.057H423.044Z" fill="#2F3D58"/>
<path d="M449.606 91.5906C448.286 91.5906 447.109 91.2403 446.077 90.5443C445.044 89.8438 444.222 88.8783 443.611 87.6479C443.001 86.4175 442.695 85.0255 442.695 83.4673C442.695 81.9091 443.001 80.4631 443.611 79.2417C444.222 78.0203 445.057 77.0593 446.122 76.3633C447.186 75.6628 448.394 75.3125 449.754 75.3125C450.504 75.3125 451.187 75.4203 451.807 75.6358C452.426 75.8514 452.974 76.1522 453.446 76.5384C453.917 76.9246 454.321 77.3647 454.658 77.8676C454.995 78.3705 455.237 78.9049 455.394 79.4752L454.42 79.3585V75.6358H459.117V91.3212H454.33V87.5402L455.394 87.5087C455.237 88.061 454.981 88.5819 454.627 89.0759C454.272 89.5699 453.841 90.0009 453.329 90.3737C452.817 90.7464 452.247 91.0427 451.613 91.2583C450.985 91.4738 450.316 91.5816 449.606 91.5816V91.5906ZM450.908 87.603C451.636 87.603 452.269 87.4369 452.799 87.1001C453.329 86.7633 453.746 86.2873 454.038 85.6676C454.335 85.0479 454.483 84.316 454.483 83.4673C454.483 82.6186 454.335 81.8866 454.038 81.2669C453.742 80.6472 453.329 80.1623 452.799 79.821C452.269 79.4752 451.636 79.3046 450.908 79.3046C450.181 79.3046 449.584 79.4752 449.063 79.821C448.542 80.1667 448.133 80.6472 447.837 81.2669C447.541 81.8866 447.392 82.623 447.392 83.4673C447.392 84.3115 447.541 85.0479 447.837 85.6676C448.133 86.2873 448.542 86.7678 449.063 87.1001C449.584 87.4369 450.199 87.603 450.908 87.603Z" fill="#2F3D58"/>
<path d="M463.281 91.327V75.6417H467.772L467.978 80.7519L467.094 79.7774C467.332 78.9332 467.718 78.1743 468.261 77.5052C468.805 76.8361 469.438 76.3063 470.165 75.9111C470.893 75.5159 471.67 75.3184 472.5 75.3184C472.855 75.3184 473.183 75.3498 473.488 75.4082C473.794 75.4665 474.072 75.5384 474.328 75.6147L473.03 80.8417C472.815 80.7025 472.523 80.5902 472.159 80.5004C471.795 80.4106 471.414 80.3657 471.023 80.3657C470.592 80.3657 470.188 80.4375 469.81 80.5857C469.433 80.7339 469.119 80.945 468.867 81.2189C468.611 81.4928 468.409 81.8206 468.261 82.1933C468.113 82.566 468.041 82.9926 468.041 83.4641V91.3225H463.286L463.281 91.327Z" fill="#2F3D58"/>
<path d="M482.009 91.6491C480.648 91.6491 479.445 91.2989 478.389 90.5983C477.334 89.8978 476.503 88.9324 475.893 87.702C475.282 86.4716 474.977 85.0705 474.977 83.4944C474.977 81.9182 475.282 80.5172 475.893 79.2868C476.503 78.0564 477.339 77.0864 478.403 76.3769C479.467 75.6674 480.689 75.3127 482.067 75.3127C482.777 75.3127 483.455 75.4204 484.106 75.636C484.757 75.8515 485.345 76.1479 485.88 76.5206C486.409 76.8933 486.845 77.3244 487.177 77.8049C487.514 78.2899 487.707 78.7838 487.77 79.2957L486.647 79.5607V69.457H491.403V91.3168H487.002L486.737 87.7424L487.68 87.8906C487.622 88.3845 487.429 88.856 487.105 89.3096C486.782 89.7631 486.36 90.1628 485.848 90.504C485.336 90.8498 484.748 91.1237 484.092 91.3303C483.432 91.5369 482.736 91.6401 482.009 91.6401V91.6491ZM483.221 87.7199C483.949 87.7199 484.582 87.5448 485.112 87.19C485.642 86.8353 486.05 86.3458 486.338 85.7127C486.625 85.084 486.764 84.3431 486.764 83.4989C486.764 82.6546 486.62 81.8823 486.338 81.2536C486.05 80.6249 485.642 80.131 485.112 79.7762C484.582 79.4215 483.949 79.2463 483.221 79.2463C482.494 79.2463 481.865 79.426 481.344 79.7762C480.823 80.131 480.415 80.6249 480.118 81.2536C479.822 81.8823 479.674 82.6322 479.674 83.4989C479.674 84.3655 479.822 85.084 480.118 85.7127C480.415 86.3413 480.823 86.8353 481.344 87.19C481.865 87.5448 482.489 87.7199 483.221 87.7199Z" fill="#2F3D58"/>
<path d="M500.681 91.622C499.145 91.622 497.789 91.375 496.621 90.8856C495.449 90.3916 494.52 89.7315 493.828 88.9053L496.693 86.422C497.304 87.0327 497.991 87.4818 498.763 87.7647C499.531 88.0521 500.259 88.1913 500.95 88.1913C501.224 88.1913 501.471 88.1598 501.687 88.1015C501.902 88.0431 502.086 87.9578 502.234 87.85C502.383 87.7422 502.495 87.612 502.576 87.4683C502.652 87.3201 502.692 87.1495 502.692 86.9519C502.692 86.5567 502.513 86.2514 502.163 86.0358C501.987 85.937 501.691 85.8203 501.278 85.6811C500.865 85.5419 500.335 85.3847 499.684 85.2096C498.759 84.9716 497.955 84.6932 497.277 84.3654C496.599 84.0376 496.042 83.6604 495.606 83.2293C495.211 82.8161 494.906 82.3581 494.69 81.8552C494.475 81.3522 494.367 80.7864 494.367 80.1578C494.367 79.4303 494.538 78.7702 494.883 78.1774C495.229 77.5847 495.692 77.0728 496.271 76.6417C496.85 76.2106 497.519 75.8783 498.278 75.6538C499.037 75.4293 499.818 75.3125 500.627 75.3125C501.493 75.3125 502.32 75.4113 503.11 75.6089C503.896 75.8065 504.632 76.0804 505.31 76.4351C505.988 76.7899 506.595 77.212 507.129 77.7059L504.646 80.4811C504.291 80.1443 503.891 79.8479 503.451 79.5785C503.007 79.3135 502.549 79.1025 502.077 78.9453C501.606 78.7881 501.17 78.7073 500.779 78.7073C500.483 78.7073 500.223 78.7343 499.998 78.7792C499.774 78.8286 499.581 78.9094 499.423 79.0172C499.266 79.1249 499.145 79.2552 499.069 79.3989C498.988 79.547 498.952 79.7177 498.952 79.9153C498.952 80.1129 499.006 80.297 499.113 80.4766C499.221 80.6517 499.374 80.7999 499.571 80.9211C499.769 81.0424 500.083 81.1726 500.519 81.3208C500.95 81.469 501.543 81.6486 502.293 81.8686C503.218 82.1246 504.017 82.412 504.686 82.7263C505.355 83.0407 505.885 83.4179 506.28 83.849C506.595 84.1857 506.833 84.5719 506.99 85.0165C507.147 85.461 507.228 85.937 507.228 86.4489C507.228 87.4548 506.949 88.3439 506.384 89.1208C505.822 89.8977 505.05 90.5084 504.067 90.9529C503.083 91.3975 501.96 91.6175 500.699 91.6175L500.681 91.622Z" fill="#2F3D58"/>
<path d="M512.459 91.6502C511.651 91.6502 511.022 91.4257 510.569 90.9721C510.115 90.5186 509.891 89.8675 509.891 89.0233C509.891 88.2374 510.129 87.5953 510.6 87.1013C511.072 86.6074 511.691 86.3649 512.459 86.3649C513.267 86.3649 513.892 86.5984 514.336 87.0609C514.781 87.5234 515.001 88.1791 515.001 89.0233C515.001 89.7911 514.763 90.4198 514.291 90.9138C513.82 91.4077 513.209 91.6502 512.459 91.6502ZM510.986 83.7918C510.829 82.5929 510.672 81.349 510.515 80.0692C510.358 78.7894 510.227 77.5186 510.129 76.2568C510.03 74.9949 509.98 73.787 509.98 72.6239V70.3203H514.974V72.6239C514.974 73.8049 514.924 75.0353 514.826 76.3151C514.727 77.5949 514.601 78.8702 514.444 80.141C514.287 81.4119 514.121 82.6288 513.941 83.7873H510.986V83.7918Z" fill="#2F3D58"/>
<path d="M147.203 139.778V125.74H149.368V137.694H155.946V139.778H147.203Z" fill="#2F3D58"/>
<path d="M163.208 139.976C162.125 139.976 161.165 139.747 160.329 139.285C159.494 138.822 158.838 138.193 158.362 137.39C157.886 136.586 157.648 135.665 157.648 134.623C157.648 133.793 157.783 133.038 158.048 132.356C158.313 131.673 158.686 131.08 159.162 130.582C159.638 130.079 160.204 129.693 160.868 129.419C161.528 129.145 162.247 129.006 163.024 129.006C163.706 129.006 164.339 129.136 164.928 129.397C165.516 129.657 166.028 130.016 166.463 130.47C166.899 130.923 167.231 131.462 167.465 132.086C167.698 132.711 167.81 133.389 167.797 134.121L167.779 135.001H159.175L158.713 133.357H165.992L165.691 133.698V133.218C165.651 132.778 165.502 132.383 165.251 132.037C164.995 131.691 164.676 131.417 164.29 131.215C163.904 131.013 163.482 130.914 163.028 130.914C162.305 130.914 161.699 131.054 161.205 131.327C160.711 131.601 160.334 132.001 160.082 132.531C159.826 133.061 159.701 133.712 159.701 134.484C159.701 135.221 159.853 135.858 160.163 136.402C160.468 136.945 160.904 137.363 161.465 137.655C162.027 137.951 162.673 138.095 163.41 138.095C163.931 138.095 164.416 138.009 164.865 137.834C165.314 137.659 165.799 137.345 166.32 136.891L167.361 138.355C167.043 138.674 166.647 138.957 166.189 139.199C165.731 139.442 165.242 139.63 164.725 139.77C164.209 139.909 163.706 139.981 163.212 139.981L163.208 139.976Z" fill="#2F3D58"/>
<path d="M174.1 139.976C173.229 139.976 172.439 139.733 171.725 139.253C171.011 138.772 170.436 138.117 170.009 137.286C169.583 136.455 169.367 135.521 169.367 134.479C169.367 133.438 169.583 132.486 170.018 131.659C170.454 130.838 171.042 130.191 171.783 129.724C172.524 129.257 173.359 129.023 174.28 129.023C174.828 129.023 175.331 129.104 175.784 129.266C176.238 129.428 176.637 129.652 176.979 129.939C177.32 130.227 177.598 130.559 177.823 130.932C178.043 131.305 178.182 131.709 178.236 132.135L177.773 131.974V129.248H179.857V139.778H177.773V137.272L178.254 137.133C178.173 137.493 178.011 137.847 177.764 138.184C177.517 138.525 177.203 138.831 176.821 139.096C176.44 139.361 176.018 139.576 175.56 139.738C175.097 139.899 174.612 139.98 174.105 139.98L174.1 139.976ZM174.644 138.072C175.272 138.072 175.825 137.919 176.31 137.609C176.794 137.299 177.167 136.877 177.441 136.334C177.715 135.791 177.854 135.175 177.854 134.479C177.854 133.783 177.715 133.191 177.441 132.656C177.167 132.122 176.79 131.7 176.31 131.394C175.829 131.089 175.272 130.932 174.644 130.932C174.015 130.932 173.485 131.085 173.009 131.394C172.533 131.704 172.16 132.122 171.886 132.656C171.612 133.191 171.473 133.801 171.473 134.479C171.473 135.157 171.608 135.795 171.886 136.334C172.16 136.877 172.533 137.299 173.009 137.609C173.485 137.915 174.028 138.072 174.644 138.072Z" fill="#2F3D58"/>
<path d="M182.743 139.778V129.247H184.827V132.557L184.625 131.753C184.773 131.246 185.025 130.783 185.375 130.37C185.73 129.957 186.138 129.629 186.596 129.387C187.059 129.144 187.535 129.027 188.029 129.027C188.258 129.027 188.473 129.045 188.68 129.086C188.886 129.126 189.053 129.171 189.169 129.225L188.626 131.47C188.464 131.403 188.289 131.344 188.096 131.3C187.903 131.255 187.71 131.228 187.526 131.228C187.166 131.228 186.821 131.3 186.493 131.439C186.165 131.578 185.878 131.776 185.631 132.023C185.384 132.269 185.186 132.557 185.038 132.885C184.89 133.212 184.818 133.572 184.818 133.958V139.773H182.734L182.743 139.778Z" fill="#2F3D58"/>
<path d="M190.82 139.778V129.247H192.886V131.412L192.527 131.654C192.661 131.187 192.922 130.756 193.308 130.361C193.694 129.966 194.157 129.647 194.691 129.4C195.225 129.153 195.773 129.027 196.335 129.027C197.138 129.027 197.803 129.185 198.342 129.499C198.876 129.813 199.276 130.289 199.545 130.931C199.815 131.573 199.945 132.382 199.945 133.356V139.773H197.879V133.495C197.879 132.894 197.799 132.395 197.637 132C197.475 131.605 197.228 131.317 196.896 131.138C196.564 130.958 196.146 130.882 195.652 130.909C195.252 130.909 194.884 130.972 194.547 131.097C194.211 131.223 193.923 131.403 193.676 131.627C193.429 131.856 193.236 132.117 193.097 132.418C192.958 132.719 192.886 133.042 192.886 133.392V139.769H190.82V139.778Z" fill="#2F3D58"/>
<path d="M208.336 139.778V129.248H210.424V131.493L210.042 131.736C210.15 131.39 210.321 131.053 210.554 130.734C210.788 130.416 211.075 130.128 211.416 129.881C211.758 129.634 212.126 129.437 212.521 129.288C212.916 129.14 213.32 129.068 213.734 129.068C214.335 129.068 214.865 129.167 215.319 129.369C215.772 129.571 216.149 129.872 216.441 130.272C216.733 130.671 216.949 131.174 217.083 131.776L216.765 131.695L216.904 131.354C217.052 131.049 217.254 130.757 217.515 130.483C217.775 130.209 218.071 129.966 218.408 129.751C218.745 129.535 219.095 129.369 219.472 129.248C219.845 129.127 220.213 129.068 220.577 129.068C221.367 129.068 222.019 129.23 222.535 129.549C223.051 129.868 223.438 130.357 223.698 131.013C223.958 131.668 224.089 132.486 224.089 133.46V139.778H222.005V133.581C222.005 132.98 221.929 132.49 221.776 132.108C221.623 131.727 221.39 131.444 221.084 131.255C220.775 131.067 220.384 130.977 219.899 130.977C219.526 130.977 219.172 131.04 218.848 131.165C218.52 131.291 218.238 131.471 217.995 131.695C217.753 131.924 217.568 132.185 217.434 132.486C217.299 132.786 217.232 133.119 217.232 133.478V139.774H215.144V133.536C215.144 132.989 215.063 132.522 214.901 132.144C214.739 131.763 214.506 131.471 214.201 131.273C213.891 131.071 213.518 130.972 213.078 130.972C212.705 130.972 212.355 131.035 212.036 131.161C211.717 131.287 211.434 131.462 211.192 131.682C210.949 131.902 210.765 132.162 210.631 132.463C210.496 132.764 210.429 133.087 210.429 133.438V139.774H208.34L208.336 139.778Z" fill="#2F3D58"/>
<path d="M231.57 139.976C230.542 139.976 229.622 139.738 228.813 139.266C228.005 138.79 227.367 138.144 226.896 137.322C226.429 136.5 226.195 135.562 226.195 134.502C226.195 133.442 226.429 132.508 226.896 131.682C227.363 130.86 228.001 130.213 228.813 129.737C229.622 129.261 230.542 129.023 231.57 129.023C232.599 129.023 233.497 129.261 234.31 129.737C235.118 130.213 235.756 130.86 236.227 131.682C236.694 132.504 236.928 133.442 236.928 134.502C236.928 135.562 236.694 136.496 236.227 137.322C235.76 138.144 235.122 138.795 234.31 139.266C233.501 139.742 232.59 139.976 231.57 139.976ZM231.57 138.094C232.199 138.094 232.76 137.937 233.254 137.623C233.748 137.308 234.135 136.882 234.417 136.338C234.7 135.795 234.831 135.184 234.817 134.502C234.831 133.806 234.696 133.186 234.417 132.647C234.139 132.104 233.748 131.682 233.254 131.372C232.76 131.067 232.199 130.909 231.57 130.909C230.942 130.909 230.376 131.067 229.878 131.381C229.375 131.695 228.984 132.122 228.706 132.665C228.427 133.209 228.292 133.819 228.306 134.502C228.292 135.184 228.427 135.795 228.706 136.338C228.984 136.882 229.379 137.308 229.878 137.623C230.38 137.937 230.942 138.094 231.57 138.094Z" fill="#2F3D58"/>
<path d="M239.173 139.778V129.247H241.257V132.557L241.055 131.753C241.203 131.246 241.454 130.783 241.804 130.37C242.159 129.957 242.568 129.629 243.026 129.387C243.488 129.144 243.964 129.027 244.458 129.027C244.687 129.027 244.903 129.045 245.109 129.086C245.316 129.126 245.482 129.171 245.599 129.225L245.056 131.47C244.894 131.403 244.719 131.344 244.526 131.3C244.333 131.255 244.14 131.228 243.955 131.228C243.596 131.228 243.25 131.3 242.923 131.439C242.595 131.578 242.307 131.776 242.06 132.023C241.813 132.269 241.616 132.557 241.468 132.885C241.32 133.212 241.248 133.572 241.248 133.958V139.773H239.164L239.173 139.778Z" fill="#2F3D58"/>
<path d="M251.739 139.976C250.657 139.976 249.696 139.747 248.861 139.285C248.025 138.822 247.37 138.193 246.894 137.39C246.418 136.586 246.18 135.665 246.18 134.623C246.18 133.793 246.314 133.038 246.579 132.356C246.844 131.673 247.217 131.08 247.693 130.582C248.169 130.079 248.735 129.693 249.399 129.419C250.059 129.145 250.778 129.006 251.555 129.006C252.237 129.006 252.871 129.136 253.459 129.397C254.047 129.657 254.559 130.016 254.995 130.47C255.43 130.923 255.762 131.462 255.996 132.086C256.229 132.711 256.342 133.389 256.328 134.121L256.31 135.001H247.706L247.244 133.357H254.523L254.222 133.698V133.218C254.182 132.778 254.034 132.383 253.782 132.037C253.526 131.691 253.207 131.417 252.821 131.215C252.435 131.013 252.013 130.914 251.559 130.914C250.836 130.914 250.23 131.054 249.736 131.327C249.242 131.601 248.865 132.001 248.614 132.531C248.358 133.061 248.232 133.712 248.232 134.484C248.232 135.221 248.385 135.858 248.694 136.402C249 136.945 249.435 137.363 249.997 137.655C250.558 137.951 251.205 138.095 251.941 138.095C252.462 138.095 252.947 138.009 253.396 137.834C253.845 137.659 254.33 137.345 254.851 136.891L255.893 138.355C255.574 138.674 255.179 138.957 254.721 139.199C254.263 139.442 253.773 139.63 253.257 139.77C252.74 139.909 252.237 139.981 251.743 139.981L251.739 139.976Z" fill="#2F3D58"/>
<path d="M268.233 139.976C267.362 139.976 266.572 139.733 265.858 139.253C265.144 138.772 264.569 138.117 264.142 137.286C263.716 136.455 263.5 135.521 263.5 134.479C263.5 133.438 263.716 132.486 264.151 131.659C264.587 130.838 265.175 130.191 265.916 129.724C266.657 129.257 267.492 129.023 268.413 129.023C268.96 129.023 269.463 129.104 269.917 129.266C270.37 129.428 270.77 129.652 271.111 129.939C271.453 130.227 271.731 130.559 271.956 130.932C272.176 131.305 272.315 131.709 272.369 132.135L271.906 131.974V129.248H273.99V139.778H271.906V137.272L272.387 137.133C272.306 137.493 272.144 137.847 271.897 138.184C271.65 138.525 271.336 138.831 270.954 139.096C270.573 139.361 270.15 139.576 269.692 139.738C269.23 139.899 268.745 139.98 268.237 139.98L268.233 139.976ZM268.772 138.072C269.401 138.072 269.953 137.919 270.438 137.609C270.923 137.299 271.296 136.877 271.569 136.334C271.843 135.791 271.983 135.175 271.983 134.479C271.983 133.783 271.843 133.191 271.569 132.656C271.296 132.122 270.918 131.7 270.438 131.394C269.957 131.089 269.401 130.932 268.772 130.932C268.143 130.932 267.613 131.085 267.137 131.394C266.661 131.704 266.289 132.122 266.015 132.656C265.741 133.191 265.602 133.801 265.602 134.479C265.602 135.157 265.736 135.795 266.015 136.334C266.289 136.877 266.661 137.299 267.137 137.609C267.613 137.915 268.157 138.072 268.772 138.072Z" fill="#2F3D58"/>
<path d="M282.418 139.976C281.965 139.976 281.511 139.904 281.067 139.756C280.618 139.608 280.209 139.41 279.845 139.163C279.477 138.916 279.172 138.643 278.925 138.342C278.678 138.041 278.512 137.735 278.435 137.43L278.956 137.152V139.72H276.891V124.938H278.956V131.655L278.637 131.476C278.705 131.17 278.853 130.869 279.077 130.582C279.307 130.295 279.594 130.034 279.949 129.801C280.303 129.567 280.69 129.379 281.103 129.239C281.516 129.1 281.938 129.028 282.365 129.028C283.312 129.028 284.156 129.262 284.893 129.729C285.629 130.196 286.208 130.843 286.64 131.664C287.066 132.486 287.282 133.425 287.282 134.484C287.282 135.544 287.071 136.483 286.648 137.313C286.226 138.144 285.647 138.795 284.915 139.267C284.179 139.743 283.352 139.976 282.427 139.976H282.418ZM282.077 138.095C282.692 138.095 283.24 137.938 283.721 137.623C284.201 137.309 284.583 136.882 284.866 136.339C285.144 135.796 285.288 135.18 285.288 134.484C285.288 133.788 285.149 133.191 284.875 132.648C284.601 132.104 284.224 131.682 283.743 131.372C283.263 131.067 282.706 130.91 282.077 130.91C281.448 130.91 280.896 131.063 280.411 131.372C279.931 131.682 279.549 132.104 279.266 132.648C278.988 133.191 278.844 133.802 278.844 134.484C278.844 135.167 278.983 135.8 279.266 136.339C279.549 136.882 279.926 137.309 280.411 137.623C280.892 137.938 281.448 138.095 282.077 138.095Z" fill="#2F3D58"/>
<path d="M294.25 139.976C293.222 139.976 292.301 139.738 291.493 139.266C290.685 138.79 290.047 138.144 289.576 137.322C289.109 136.5 288.875 135.562 288.875 134.502C288.875 133.442 289.109 132.508 289.576 131.682C290.043 130.86 290.68 130.213 291.493 129.737C292.301 129.261 293.222 129.023 294.25 129.023C295.278 129.023 296.177 129.261 296.989 129.737C297.798 130.213 298.435 130.86 298.907 131.682C299.374 132.504 299.607 133.442 299.607 134.502C299.607 135.562 299.374 136.496 298.907 137.322C298.44 138.144 297.802 138.795 296.989 139.266C296.181 139.742 295.269 139.976 294.25 139.976ZM294.25 138.094C294.879 138.094 295.44 137.937 295.934 137.623C296.428 137.308 296.814 136.882 297.097 136.338C297.38 135.795 297.51 135.184 297.497 134.502C297.51 133.806 297.376 133.186 297.097 132.647C296.819 132.104 296.428 131.682 295.934 131.372C295.44 131.067 294.879 130.909 294.25 130.909C293.621 130.909 293.056 131.067 292.557 131.381C292.054 131.695 291.664 132.122 291.385 132.665C291.107 133.209 290.972 133.819 290.986 134.502C290.972 135.184 291.107 135.795 291.385 136.338C291.664 136.882 292.059 137.308 292.557 137.623C293.06 137.937 293.621 138.094 294.25 138.094Z" fill="#2F3D58"/>
<path d="M305.538 139.976C304.788 139.976 304.137 139.801 303.585 139.455C303.028 139.109 302.601 138.62 302.301 137.991C302 137.362 301.852 136.612 301.852 135.746V129.248H303.917V135.184C303.917 135.8 304.011 136.33 304.209 136.779C304.402 137.228 304.685 137.569 305.053 137.811C305.422 138.054 305.866 138.171 306.387 138.171C306.773 138.171 307.128 138.108 307.451 137.982C307.775 137.856 308.048 137.677 308.282 137.452C308.515 137.223 308.7 136.949 308.834 136.63C308.969 136.312 309.036 135.961 309.036 135.589V129.253H311.102V139.783H309.036V137.578L309.396 137.335C309.234 137.829 308.965 138.278 308.583 138.678C308.201 139.078 307.752 139.397 307.231 139.63C306.71 139.864 306.149 139.98 305.547 139.98L305.538 139.976Z" fill="#2F3D58"/>
<path d="M313.102 131.255V129.248H319.801V131.255H313.102ZM315.284 139.778V126.562H317.35V139.778H315.284Z" fill="#2F3D58"/>
<path d="M327.289 139.779V124.938H330.437V131.296L329.795 131.539C329.943 131.058 330.208 130.618 330.585 130.227C330.967 129.832 331.425 129.513 331.959 129.275C332.494 129.033 333.055 128.916 333.643 128.916C334.447 128.916 335.121 129.082 335.668 129.406C336.216 129.733 336.629 130.223 336.912 130.869C337.191 131.516 337.334 132.311 337.334 133.245V139.783H334.106V133.505C334.106 133.079 334.047 132.724 333.926 132.441C333.805 132.163 333.621 131.952 333.374 131.808C333.127 131.669 332.821 131.606 332.462 131.619C332.179 131.619 331.919 131.664 331.681 131.75C331.438 131.835 331.232 131.965 331.061 132.131C330.886 132.297 330.751 132.491 330.648 132.702C330.549 132.917 330.5 133.151 330.5 133.402V139.779H327.289Z" fill="#2F3D58"/>
<path d="M345.03 139.976C343.921 139.976 342.933 139.733 342.071 139.253C341.209 138.772 340.526 138.117 340.023 137.286C339.52 136.455 339.273 135.508 339.273 134.439C339.273 133.37 339.525 132.418 340.023 131.592C340.526 130.761 341.204 130.11 342.071 129.625C342.933 129.145 343.921 128.902 345.03 128.902C346.139 128.902 347.127 129.145 347.99 129.625C348.852 130.106 349.53 130.761 350.024 131.592C350.518 132.423 350.765 133.37 350.765 134.439C350.765 135.508 350.518 136.46 350.024 137.286C349.53 138.117 348.852 138.768 347.99 139.253C347.127 139.733 346.139 139.976 345.03 139.976ZM345.03 137.21C345.511 137.21 345.937 137.089 346.315 136.851C346.687 136.608 346.984 136.28 347.195 135.867C347.41 135.454 347.509 134.978 347.496 134.444C347.509 133.909 347.41 133.429 347.195 133.011C346.979 132.589 346.687 132.261 346.315 132.019C345.942 131.776 345.511 131.66 345.03 131.66C344.55 131.66 344.119 131.781 343.737 132.019C343.355 132.257 343.059 132.589 342.843 133.011C342.628 133.433 342.529 133.909 342.543 134.444C342.529 134.978 342.628 135.454 342.843 135.867C343.059 136.28 343.355 136.608 343.737 136.851C344.119 137.093 344.55 137.21 345.03 137.21Z" fill="#2F3D58"/>
<path d="M354.793 139.778L351.281 129.127H354.672L356.638 136.047L356.216 135.966L358.421 130.591H360.307L362.633 135.984L362.171 136.024L364.138 129.127H367.528L363.9 139.778H361.533L359.225 134.062L359.467 134.102L357.159 139.778H354.793Z" fill="#2F3D58"/>
<path d="M374.617 131.938V129.131H381.78V131.938H374.617ZM376.499 139.778V126.441H379.709V139.778H376.499Z" fill="#2F3D58"/>
<path d="M388.515 139.976C387.405 139.976 386.418 139.733 385.555 139.253C384.693 138.772 384.011 138.117 383.508 137.286C383.005 136.455 382.758 135.508 382.758 134.439C382.758 133.37 383.009 132.418 383.508 131.592C384.011 130.761 384.689 130.11 385.555 129.625C386.418 129.145 387.405 128.902 388.515 128.902C389.624 128.902 390.612 129.145 391.474 129.625C392.336 130.106 393.014 130.761 393.508 131.592C394.002 132.423 394.249 133.37 394.249 134.439C394.249 135.508 394.002 136.46 393.508 137.286C393.014 138.117 392.336 138.768 391.474 139.253C390.612 139.733 389.624 139.976 388.515 139.976ZM388.515 137.21C388.995 137.21 389.422 137.089 389.799 136.851C390.172 136.608 390.468 136.28 390.679 135.867C390.895 135.454 390.993 134.978 390.98 134.444C390.993 133.909 390.895 133.429 390.679 133.011C390.464 132.589 390.172 132.261 389.799 132.019C389.426 131.776 388.995 131.66 388.515 131.66C388.034 131.66 387.603 131.781 387.221 132.019C386.84 132.257 386.543 132.589 386.328 133.011C386.112 133.433 386.013 133.909 386.027 134.444C386.013 134.978 386.112 135.454 386.328 135.867C386.543 136.28 386.84 136.608 387.221 136.851C387.603 137.093 388.034 137.21 388.515 137.21Z" fill="#2F3D58"/>
<path d="M406.363 139.977C405.321 139.977 404.401 139.811 403.606 139.474C402.811 139.137 402.178 138.692 401.711 138.131L403.655 136.447C404.068 136.86 404.54 137.166 405.061 137.359C405.582 137.552 406.076 137.651 406.543 137.651C406.731 137.651 406.897 137.633 407.046 137.592C407.194 137.552 407.315 137.493 407.418 137.422C407.517 137.35 407.594 137.26 407.647 137.161C407.701 137.062 407.728 136.946 407.728 136.811C407.728 136.546 407.607 136.335 407.369 136.191C407.248 136.124 407.05 136.043 406.767 135.949C406.489 135.854 406.125 135.747 405.685 135.63C405.056 135.468 404.513 135.28 404.051 135.06C403.588 134.84 403.211 134.584 402.919 134.287C402.649 134.004 402.443 133.694 402.299 133.353C402.151 133.012 402.079 132.63 402.079 132.199C402.079 131.705 402.196 131.256 402.429 130.856C402.663 130.457 402.977 130.107 403.372 129.815C403.768 129.523 404.221 129.298 404.738 129.141C405.254 128.988 405.784 128.912 406.332 128.912C406.92 128.912 407.481 128.979 408.016 129.114C408.55 129.249 409.048 129.433 409.511 129.676C409.973 129.918 410.382 130.205 410.746 130.538L409.062 132.424C408.819 132.195 408.55 131.993 408.249 131.813C407.948 131.633 407.638 131.49 407.315 131.382C406.996 131.274 406.7 131.22 406.435 131.22C406.233 131.22 406.058 131.238 405.905 131.27C405.752 131.301 405.622 131.355 405.514 131.431C405.407 131.508 405.326 131.593 405.272 131.692C405.218 131.791 405.191 131.907 405.191 132.042C405.191 132.177 405.227 132.302 405.303 132.424C405.375 132.545 405.478 132.644 405.613 132.725C405.748 132.805 405.959 132.895 406.255 132.994C406.547 133.093 406.951 133.218 407.459 133.367C408.087 133.542 408.631 133.735 409.084 133.946C409.538 134.161 409.902 134.413 410.167 134.709C410.382 134.938 410.539 135.199 410.647 135.5C410.755 135.801 410.809 136.124 410.809 136.474C410.809 137.157 410.62 137.763 410.238 138.288C409.857 138.818 409.331 139.231 408.662 139.532C407.993 139.833 407.23 139.981 406.377 139.981L406.363 139.977Z" fill="#2F3D58"/>
<path d="M411.695 131.938V129.131H418.858V131.938H411.695ZM413.577 139.778V126.441H416.788V139.778H413.577Z" fill="#2F3D58"/>
<path d="M424.513 139.958C423.615 139.958 422.82 139.72 422.115 139.244C421.414 138.768 420.853 138.112 420.44 137.277C420.027 136.442 419.82 135.494 419.82 134.439C419.82 133.384 420.027 132.4 420.44 131.57C420.853 130.739 421.423 130.088 422.146 129.616C422.869 129.14 423.691 128.902 424.612 128.902C425.119 128.902 425.586 128.974 426.004 129.122C426.426 129.271 426.794 129.473 427.117 129.733C427.436 129.994 427.71 130.294 427.939 130.636C428.168 130.977 428.334 131.341 428.442 131.727L427.782 131.646V129.118H430.97V139.769H427.719V137.201L428.442 137.183C428.334 137.556 428.164 137.91 427.921 138.247C427.679 138.584 427.387 138.876 427.041 139.127C426.691 139.383 426.305 139.581 425.878 139.729C425.451 139.877 424.998 139.949 424.513 139.949V139.958ZM425.393 137.25C425.887 137.25 426.314 137.138 426.677 136.909C427.037 136.68 427.319 136.357 427.522 135.934C427.724 135.512 427.822 135.014 427.822 134.439C427.822 133.864 427.724 133.366 427.522 132.944C427.319 132.522 427.041 132.194 426.677 131.96C426.318 131.727 425.887 131.61 425.393 131.61C424.899 131.61 424.495 131.727 424.14 131.96C423.785 132.194 423.507 132.522 423.309 132.944C423.107 133.366 423.009 133.864 423.009 134.439C423.009 135.014 423.107 135.512 423.309 135.934C423.512 136.357 423.785 136.68 424.14 136.909C424.495 137.138 424.913 137.25 425.393 137.25Z" fill="#2F3D58"/>
<path d="M433.797 139.779V124.938H437.008V139.779H433.797ZM436.886 136.649L435.705 134.242L440.681 129.127H444.911L436.886 136.649ZM441.018 139.779L437.268 134.924L439.536 133.16L444.812 139.779H441.022H441.018Z" fill="#2F3D58"/>
<path d="M450.979 139.977C449.803 139.977 448.779 139.739 447.912 139.268C447.041 138.792 446.368 138.145 445.887 137.323C445.407 136.502 445.164 135.563 445.164 134.503C445.164 133.686 445.299 132.941 445.564 132.258C445.829 131.576 446.206 130.983 446.686 130.484C447.167 129.981 447.737 129.595 448.402 129.321C449.066 129.047 449.789 128.908 450.58 128.908C451.37 128.908 452.012 129.043 452.636 129.308C453.26 129.573 453.795 129.95 454.253 130.43C454.706 130.911 455.057 131.481 455.295 132.137C455.537 132.792 455.64 133.506 455.613 134.283L455.595 135.146H447.113L446.65 133.34H452.987L452.645 133.722V133.322C452.618 132.99 452.515 132.689 452.335 132.429C452.156 132.168 451.918 131.966 451.621 131.818C451.325 131.67 450.993 131.598 450.62 131.598C450.099 131.598 449.655 131.701 449.286 131.908C448.918 132.114 448.64 132.415 448.456 132.81C448.267 133.206 448.177 133.691 448.177 134.265C448.177 134.84 448.303 135.366 448.55 135.801C448.797 136.237 449.156 136.573 449.632 136.811C450.108 137.054 450.669 137.171 451.325 137.171C451.779 137.171 452.183 137.103 452.537 136.969C452.892 136.834 453.278 136.609 453.692 136.286L455.196 138.41C454.783 138.769 454.338 139.066 453.871 139.29C453.404 139.519 452.924 139.69 452.439 139.802C451.949 139.914 451.464 139.973 450.984 139.973L450.979 139.977Z" fill="#2F3D58"/>
<path d="M181.133 172.051L181.268 170.093H181.353L179.602 171.283L178.973 170.178L180.882 169.258L180.846 169.343L178.938 168.422L179.584 167.331L181.353 168.521L181.268 168.485L181.133 166.527H182.409L182.256 168.687L182.121 168.553L183.873 167.363L184.501 168.467L182.579 169.401V169.213L184.488 170.147L183.859 171.238L182.09 170.048L182.278 170.084L182.413 172.042H181.138L181.133 172.051Z" fill="#2F3D58"/>
<path d="M186.688 178.45V166.537H188.524V178.45H186.688ZM187.505 168.306V166.537H194.416V168.306H187.505ZM187.505 173.376V171.607H193.648V173.376H187.505Z" fill="#2F3D58"/>
<path d="M197.625 167.537C197.252 167.537 196.961 167.443 196.758 167.25C196.552 167.057 196.453 166.783 196.453 166.433C196.453 166.105 196.556 165.836 196.767 165.633C196.979 165.431 197.266 165.328 197.625 165.328C197.984 165.328 198.29 165.422 198.492 165.616C198.694 165.809 198.797 166.083 198.797 166.433C198.797 166.761 198.694 167.03 198.483 167.232C198.272 167.439 197.984 167.537 197.621 167.537H197.625ZM196.776 178.449V169.513H198.528V178.449H196.776Z" fill="#2F3D58"/>
<path d="M201.219 178.45V169.513H202.988V172.32L202.817 171.637C202.943 171.206 203.154 170.816 203.455 170.461C203.756 170.111 204.102 169.832 204.492 169.626C204.883 169.424 205.287 169.32 205.709 169.32C205.902 169.32 206.086 169.338 206.262 169.37C206.437 169.406 206.576 169.446 206.679 169.491L206.221 171.399C206.086 171.341 205.934 171.296 205.772 171.256C205.606 171.215 205.444 171.197 205.287 171.197C204.982 171.197 204.69 171.256 204.411 171.377C204.133 171.498 203.891 171.66 203.68 171.871C203.468 172.082 203.302 172.324 203.177 172.603C203.051 172.881 202.988 173.182 202.988 173.514V178.45H201.219Z" fill="#2F3D58"/>
<path d="M211.052 178.622C210.302 178.622 209.628 178.492 209.027 178.232C208.425 177.971 207.926 177.585 207.531 177.073L208.721 176.054C209.063 176.449 209.431 176.736 209.835 176.911C210.239 177.087 210.693 177.176 211.204 177.176C211.411 177.176 211.6 177.149 211.775 177.1C211.95 177.051 212.103 176.974 212.233 176.871C212.363 176.768 212.462 176.646 212.529 176.507C212.597 176.364 212.632 176.211 212.632 176.04C212.632 175.744 212.525 175.506 212.309 175.326C212.197 175.245 212.017 175.16 211.775 175.061C211.532 174.967 211.213 174.864 210.832 174.765C210.172 174.594 209.633 174.401 209.215 174.186C208.798 173.97 208.47 173.728 208.245 173.454C208.075 173.238 207.949 173.005 207.873 172.749C207.792 172.493 207.751 172.214 207.751 171.905C207.751 171.532 207.832 171.186 207.998 170.876C208.164 170.566 208.389 170.292 208.681 170.059C208.968 169.825 209.309 169.646 209.7 169.525C210.091 169.399 210.508 169.336 210.953 169.336C211.371 169.336 211.788 169.394 212.206 169.507C212.619 169.619 213.001 169.785 213.355 170.001C213.706 170.216 214.002 170.472 214.24 170.768L213.234 171.873C213.019 171.658 212.785 171.469 212.529 171.303C212.273 171.137 212.017 171.011 211.757 170.921C211.496 170.831 211.258 170.786 211.043 170.786C210.805 170.786 210.589 170.809 210.396 170.854C210.203 170.899 210.041 170.966 209.911 171.06C209.781 171.15 209.682 171.267 209.615 171.402C209.547 171.536 209.512 171.689 209.512 171.86C209.525 172.008 209.561 172.147 209.624 172.277C209.687 172.407 209.772 172.52 209.889 172.61C210.014 172.699 210.203 172.798 210.45 172.897C210.697 172.996 211.016 173.094 211.402 173.184C211.968 173.332 212.439 173.494 212.808 173.669C213.176 173.844 213.468 174.046 213.683 174.275C213.908 174.491 214.069 174.743 214.159 175.025C214.249 175.308 214.294 175.627 214.294 175.977C214.294 176.489 214.15 176.943 213.858 177.347C213.571 177.751 213.18 178.065 212.691 178.29C212.201 178.515 211.658 178.631 211.056 178.631L211.052 178.622Z" fill="#2F3D58"/>
<path d="M215.484 171.215V169.514H221.169V171.215H215.484ZM217.339 178.45V167.232H219.09V178.45H217.339Z" fill="#2F3D58"/>
<path d="M230.521 178.622C229.771 178.622 229.097 178.492 228.495 178.232C227.894 177.971 227.395 177.585 227 177.073L228.19 176.054C228.531 176.449 228.899 176.736 229.304 176.911C229.708 177.087 230.161 177.176 230.673 177.176C230.88 177.176 231.068 177.149 231.244 177.1C231.419 177.051 231.571 176.974 231.702 176.871C231.832 176.768 231.931 176.646 231.998 176.507C232.065 176.364 232.101 176.211 232.101 176.04C232.101 175.744 231.993 175.506 231.778 175.326C231.666 175.245 231.486 175.16 231.244 175.061C231.001 174.967 230.682 174.864 230.301 174.765C229.64 174.594 229.102 174.401 228.684 174.186C228.266 173.97 227.939 173.728 227.714 173.454C227.543 173.238 227.418 173.005 227.341 172.749C227.26 172.493 227.22 172.214 227.22 171.905C227.22 171.532 227.301 171.186 227.467 170.876C227.633 170.566 227.858 170.292 228.15 170.059C228.437 169.825 228.778 169.646 229.169 169.525C229.56 169.399 229.977 169.336 230.422 169.336C230.839 169.336 231.257 169.394 231.675 169.507C232.088 169.619 232.469 169.785 232.824 170.001C233.174 170.216 233.471 170.472 233.709 170.768L232.703 171.873C232.487 171.658 232.254 171.469 231.998 171.303C231.742 171.137 231.486 171.011 231.226 170.921C230.965 170.831 230.727 170.786 230.512 170.786C230.274 170.786 230.058 170.809 229.865 170.854C229.672 170.899 229.51 170.966 229.38 171.06C229.25 171.15 229.151 171.267 229.084 171.402C229.016 171.536 228.98 171.689 228.98 171.86C228.994 172.008 229.03 172.147 229.093 172.277C229.155 172.407 229.241 172.52 229.358 172.61C229.483 172.699 229.672 172.798 229.919 172.897C230.166 172.996 230.485 173.094 230.871 173.184C231.437 173.332 231.908 173.494 232.276 173.669C232.645 173.844 232.936 174.046 233.152 174.275C233.377 174.491 233.538 174.743 233.628 175.025C233.718 175.308 233.763 175.627 233.763 175.977C233.763 176.489 233.619 176.943 233.327 177.347C233.04 177.751 232.649 178.065 232.16 178.29C231.67 178.515 231.127 178.631 230.525 178.631L230.521 178.622Z" fill="#2F3D58"/>
<path d="M235.695 178.449V169.513H237.447V171.349L237.141 171.556C237.254 171.161 237.478 170.793 237.806 170.456C238.134 170.119 238.524 169.85 238.982 169.639C239.44 169.428 239.903 169.324 240.379 169.324C241.061 169.324 241.627 169.459 242.081 169.724C242.534 169.989 242.876 170.397 243.1 170.941C243.325 171.484 243.441 172.171 243.441 173.002V178.449H241.69V173.123C241.69 172.611 241.623 172.189 241.484 171.857C241.349 171.52 241.138 171.278 240.855 171.125C240.572 170.972 240.217 170.905 239.8 170.927C239.458 170.927 239.149 170.981 238.866 171.089C238.583 171.197 238.336 171.349 238.125 171.538C237.914 171.731 237.752 171.956 237.631 172.212C237.514 172.468 237.451 172.741 237.451 173.038V178.449H235.7H235.695Z" fill="#2F3D58"/>
<path d="M249.249 178.62C248.512 178.62 247.839 178.413 247.233 178.009C246.626 177.6 246.141 177.043 245.778 176.343C245.414 175.638 245.234 174.843 245.234 173.958C245.234 173.074 245.418 172.265 245.787 171.565C246.155 170.869 246.653 170.321 247.282 169.921C247.911 169.526 248.62 169.324 249.402 169.324C249.869 169.324 250.291 169.392 250.677 169.531C251.063 169.665 251.4 169.859 251.692 170.101C251.979 170.344 252.217 170.626 252.406 170.945C252.594 171.264 252.711 171.605 252.756 171.965L252.365 171.83V169.513H254.135V178.449H252.365V176.32L252.774 176.199C252.707 176.505 252.567 176.805 252.356 177.093C252.145 177.38 251.88 177.641 251.557 177.865C251.234 178.094 250.874 178.274 250.484 178.409C250.093 178.543 249.68 178.615 249.249 178.615V178.62ZM249.711 177.003C250.246 177.003 250.717 176.873 251.126 176.612C251.535 176.352 251.853 175.993 252.087 175.53C252.32 175.068 252.437 174.547 252.437 173.954C252.437 173.361 252.32 172.858 252.087 172.405C251.853 171.951 251.535 171.592 251.126 171.331C250.717 171.071 250.246 170.941 249.711 170.941C249.177 170.941 248.728 171.071 248.324 171.331C247.92 171.592 247.601 171.951 247.372 172.405C247.138 172.858 247.022 173.375 247.022 173.954C247.022 174.533 247.138 175.068 247.372 175.53C247.605 175.993 247.924 176.352 248.324 176.612C248.728 176.873 249.191 177.003 249.711 177.003Z" fill="#2F3D58"/>
<path d="M256.586 182.195V169.514H258.355V171.557L258.081 171.405C258.149 171.063 258.342 170.74 258.661 170.426C258.979 170.116 259.366 169.86 259.828 169.658C260.291 169.456 260.762 169.361 261.252 169.361C262.055 169.361 262.774 169.559 263.398 169.959C264.022 170.358 264.516 170.902 264.88 171.593C265.244 172.285 265.423 173.079 265.423 173.978C265.423 174.876 265.244 175.653 264.889 176.353C264.53 177.049 264.04 177.601 263.416 178.006C262.792 178.41 262.087 178.612 261.305 178.612C260.785 178.612 260.277 178.508 259.792 178.297C259.303 178.086 258.89 177.817 258.548 177.489C258.207 177.161 257.996 176.82 257.92 176.47L258.364 176.232V182.204H256.595L256.586 182.195ZM261.014 176.986C261.534 176.986 262.001 176.856 262.41 176.596C262.819 176.335 263.142 175.976 263.38 175.522C263.618 175.069 263.739 174.552 263.739 173.973C263.739 173.394 263.623 172.882 263.389 172.433C263.156 171.984 262.837 171.629 262.428 171.369C262.019 171.108 261.548 170.978 261.014 170.978C260.479 170.978 260.008 171.104 259.599 171.36C259.19 171.616 258.867 171.97 258.629 172.424C258.391 172.877 258.27 173.394 258.27 173.973C258.27 174.552 258.391 175.069 258.629 175.522C258.867 175.976 259.19 176.335 259.599 176.596C260.008 176.856 260.479 176.986 261.014 176.986Z" fill="#2F3D58"/>
<path d="M270.31 178.622C269.56 178.622 268.886 178.492 268.284 178.232C267.683 177.971 267.184 177.585 266.789 177.073L267.979 176.054C268.32 176.449 268.689 176.736 269.093 176.911C269.497 177.087 269.95 177.176 270.462 177.176C270.669 177.176 270.857 177.149 271.033 177.1C271.208 177.051 271.36 176.974 271.491 176.871C271.621 176.768 271.72 176.646 271.787 176.507C271.854 176.364 271.89 176.211 271.89 176.04C271.89 175.744 271.783 175.506 271.567 175.326C271.455 175.245 271.275 175.16 271.033 175.061C270.79 174.967 270.471 174.864 270.09 174.765C269.429 174.594 268.891 174.401 268.473 174.186C268.055 173.97 267.728 173.728 267.503 173.454C267.332 173.238 267.207 173.005 267.13 172.749C267.05 172.493 267.009 172.214 267.009 171.905C267.009 171.532 267.09 171.186 267.256 170.876C267.422 170.566 267.647 170.292 267.939 170.059C268.226 169.825 268.567 169.646 268.958 169.525C269.349 169.399 269.766 169.336 270.211 169.336C270.628 169.336 271.046 169.394 271.464 169.507C271.877 169.619 272.259 169.785 272.613 170.001C272.964 170.216 273.26 170.472 273.498 170.768L272.492 171.873C272.276 171.658 272.043 171.469 271.787 171.303C271.531 171.137 271.275 171.011 271.015 170.921C270.754 170.831 270.516 170.786 270.301 170.786C270.063 170.786 269.847 170.809 269.654 170.854C269.461 170.899 269.299 170.966 269.169 171.06C269.039 171.15 268.94 171.267 268.873 171.402C268.805 171.536 268.769 171.689 268.769 171.86C268.783 172.008 268.819 172.147 268.882 172.277C268.945 172.407 269.03 172.52 269.147 172.61C269.272 172.699 269.461 172.798 269.708 172.897C269.955 172.996 270.274 173.094 270.66 173.184C271.226 173.332 271.697 173.494 272.065 173.669C272.434 173.844 272.726 174.046 272.941 174.275C273.166 174.491 273.327 174.743 273.417 175.025C273.507 175.308 273.552 175.627 273.552 175.977C273.552 176.489 273.408 176.943 273.116 177.347C272.829 177.751 272.438 178.065 271.949 178.29C271.459 178.515 270.916 178.631 270.314 178.631L270.31 178.622Z" fill="#2F3D58"/>
<path d="M275.492 178.449V165.854H277.243V171.35L276.938 171.556C277.05 171.161 277.275 170.793 277.603 170.456C277.931 170.119 278.321 169.85 278.779 169.639C279.237 169.428 279.7 169.325 280.176 169.325C280.858 169.325 281.424 169.459 281.878 169.724C282.331 169.989 282.673 170.398 282.897 170.941C283.122 171.485 283.238 172.172 283.238 173.002V178.449H281.487V173.124C281.487 172.612 281.42 172.19 281.28 171.857C281.146 171.521 280.935 171.278 280.652 171.125C280.369 170.973 280.014 170.905 279.597 170.928C279.255 170.928 278.945 170.982 278.662 171.089C278.38 171.197 278.133 171.35 277.922 171.539C277.711 171.732 277.549 171.956 277.428 172.212C277.311 172.468 277.248 172.742 277.248 173.038V178.449H275.497H275.492Z" fill="#2F3D58"/>
<path d="M289.633 178.621C288.757 178.621 287.98 178.419 287.293 178.015C286.606 177.61 286.063 177.063 285.668 176.362C285.272 175.666 285.07 174.867 285.07 173.969C285.07 173.07 285.268 172.276 285.668 171.575C286.063 170.879 286.606 170.327 287.293 169.923C287.98 169.518 288.761 169.316 289.633 169.316C290.504 169.316 291.272 169.518 291.954 169.923C292.641 170.327 293.18 170.875 293.58 171.575C293.975 172.271 294.177 173.07 294.177 173.969C294.177 174.867 293.979 175.661 293.58 176.362C293.185 177.058 292.641 177.61 291.954 178.015C291.267 178.419 290.495 178.621 289.633 178.621ZM289.633 177.018C290.167 177.018 290.643 176.883 291.061 176.618C291.478 176.353 291.811 175.989 292.049 175.527C292.287 175.064 292.399 174.548 292.39 173.969C292.403 173.38 292.287 172.855 292.049 172.392C291.811 171.93 291.483 171.571 291.061 171.31C290.639 171.05 290.163 170.92 289.633 170.92C289.103 170.92 288.622 171.054 288.196 171.319C287.769 171.584 287.437 171.948 287.199 172.41C286.961 172.868 286.849 173.389 286.858 173.969C286.844 174.548 286.961 175.069 287.199 175.527C287.437 175.985 287.769 176.349 288.196 176.618C288.622 176.883 289.103 177.018 289.633 177.018Z" fill="#2F3D58"/>
<path d="M295.336 171.215V169.514H301.021V171.215H295.336ZM297.191 178.45V167.232H298.942V178.45H297.191Z" fill="#2F3D58"/>
<path d="M311.398 178.621C310.523 178.621 309.746 178.419 309.059 178.015C308.372 177.61 307.828 177.063 307.433 176.362C307.038 175.666 306.836 174.867 306.836 173.969C306.836 173.07 307.034 172.276 307.433 171.575C307.828 170.879 308.372 170.327 309.059 169.923C309.746 169.518 310.527 169.316 311.398 169.316C312.269 169.316 313.037 169.518 313.72 169.923C314.407 170.327 314.946 170.875 315.345 171.575C315.741 172.271 315.943 173.07 315.943 173.969C315.943 174.867 315.745 175.661 315.345 176.362C314.95 177.058 314.407 177.61 313.72 178.015C313.033 178.419 312.26 178.621 311.398 178.621ZM311.398 177.018C311.933 177.018 312.409 176.883 312.826 176.618C313.244 176.353 313.576 175.989 313.814 175.527C314.052 175.064 314.164 174.548 314.155 173.969C314.169 173.38 314.052 172.855 313.814 172.392C313.576 171.93 313.248 171.571 312.826 171.31C312.404 171.05 311.928 170.92 311.398 170.92C310.868 170.92 310.388 171.054 309.961 171.319C309.535 171.584 309.202 171.948 308.964 172.41C308.726 172.868 308.614 173.389 308.623 173.969C308.61 174.548 308.726 175.069 308.964 175.527C309.202 175.985 309.535 176.349 309.961 176.618C310.388 176.883 310.868 177.018 311.398 177.018Z" fill="#2F3D58"/>
<path d="M317.859 178.449V169.513H319.611V171.349L319.305 171.556C319.418 171.161 319.642 170.793 319.97 170.456C320.298 170.119 320.688 169.85 321.146 169.639C321.604 169.428 322.067 169.324 322.543 169.324C323.226 169.324 323.791 169.459 324.245 169.724C324.698 169.989 325.04 170.397 325.264 170.941C325.489 171.484 325.605 172.171 325.605 173.002V178.449H323.854V173.123C323.854 172.611 323.787 172.189 323.648 171.857C323.513 171.52 323.302 171.278 323.019 171.125C322.736 170.972 322.381 170.905 321.964 170.927C321.622 170.927 321.313 170.981 321.03 171.089C320.747 171.197 320.5 171.349 320.289 171.538C320.078 171.731 319.916 171.956 319.795 172.212C319.678 172.468 319.615 172.741 319.615 173.038V178.449H317.864H317.859Z" fill="#2F3D58"/>
<path d="M335.116 177.615V167.946L335.744 169.392L333.189 170.6L332.695 168.014L336.081 166.361H337.954V177.615H335.111H335.116ZM332.938 178.45V175.895H340.19V178.45H332.938Z" fill="#2F3D58"/>
<path d="M342.506 178.45L347.27 167.592L348.088 168.953H341.859V166.434H349.619L349.893 167.812L345.398 178.45H342.506Z" fill="#2F3D58"/>
<path d="M350.844 171.797V169.412H356.919V171.797H350.844ZM352.442 178.451V167.131H355.164V178.451H352.442Z" fill="#2F3D58"/>
<path d="M358.469 178.449V165.854H361.141V171.251L360.597 171.458C360.723 171.049 360.948 170.676 361.271 170.344C361.594 170.007 361.985 169.738 362.438 169.536C362.892 169.329 363.368 169.23 363.866 169.23C364.549 169.23 365.119 169.37 365.586 169.648C366.053 169.926 366.403 170.34 366.641 170.892C366.879 171.444 367.001 172.113 367.001 172.908V178.458H364.261V173.133C364.261 172.769 364.212 172.468 364.109 172.23C364.006 171.992 363.848 171.812 363.642 171.696C363.431 171.574 363.175 171.525 362.869 171.534C362.631 171.534 362.411 171.57 362.205 171.646C361.998 171.723 361.823 171.83 361.675 171.97C361.527 172.113 361.41 172.275 361.325 172.455C361.239 172.634 361.194 172.836 361.194 173.052V178.463H358.473L358.469 178.449Z" fill="#2F3D58"/>
<path d="M373.5 178.45L378.215 166.537H380.667L385.346 178.45H382.418L380.173 172.406C380.083 172.168 379.993 171.912 379.899 171.638C379.809 171.364 379.719 171.086 379.625 170.794C379.535 170.507 379.445 170.219 379.36 169.945C379.275 169.671 379.203 169.411 379.149 169.169L379.661 169.151C379.594 169.433 379.517 169.712 379.432 169.986C379.347 170.26 379.261 170.529 379.176 170.794C379.091 171.059 378.996 171.328 378.898 171.593C378.799 171.858 378.7 172.137 378.61 172.42L376.365 178.446H373.504L373.5 178.45ZM375.745 176.169L376.648 173.991H382.131L383.015 176.169H375.745Z" fill="#2F3D58"/>
<path d="M386.539 182.195V169.41H389.126L389.229 171.436L388.717 171.283C388.798 170.91 388.991 170.569 389.296 170.263C389.602 169.958 389.992 169.711 390.464 169.523C390.935 169.334 391.429 169.244 391.955 169.244C392.727 169.244 393.414 169.446 394.016 169.85C394.617 170.254 395.089 170.802 395.439 171.503C395.785 172.199 395.96 173.007 395.96 173.928C395.96 174.848 395.785 175.643 395.439 176.344C395.093 177.049 394.617 177.601 394.011 178.005C393.405 178.409 392.709 178.611 391.928 178.611C391.416 178.611 390.931 178.517 390.464 178.324C389.997 178.131 389.606 177.87 389.287 177.543C388.968 177.215 388.762 176.856 388.659 176.469L389.287 176.231V182.204H386.548L386.539 182.195ZM391.254 176.303C391.663 176.303 392.022 176.204 392.327 176.007C392.633 175.809 392.871 175.535 393.041 175.181C393.212 174.83 393.297 174.408 393.297 173.923C393.297 173.438 393.212 173.03 393.041 172.67C392.871 172.311 392.637 172.033 392.336 171.835C392.035 171.638 391.676 171.539 391.254 171.539C390.832 171.539 390.473 171.633 390.163 171.826C389.858 172.019 389.62 172.298 389.449 172.661C389.278 173.025 389.193 173.443 389.193 173.919C389.193 174.395 389.278 174.826 389.449 175.176C389.62 175.526 389.858 175.805 390.163 176.002C390.468 176.2 390.832 176.299 391.254 176.299V176.303Z" fill="#2F3D58"/>
<path d="M397.758 178.451V169.411H400.344L400.466 172.357L399.954 171.796C400.088 171.306 400.313 170.871 400.627 170.484C400.942 170.098 401.305 169.793 401.727 169.564C402.145 169.339 402.594 169.223 403.07 169.223C403.277 169.223 403.465 169.241 403.64 169.272C403.815 169.308 403.977 169.348 404.125 169.393L403.375 172.406C403.25 172.326 403.084 172.263 402.873 172.209C402.661 172.155 402.446 172.133 402.217 172.133C401.965 172.133 401.732 172.173 401.521 172.258C401.305 172.344 401.126 172.465 400.977 172.626C400.829 172.784 400.713 172.972 400.627 173.188C400.542 173.403 400.502 173.646 400.502 173.92V178.446H397.762L397.758 178.451Z" fill="#2F3D58"/>
<path d="M407.017 167.623C406.505 167.623 406.106 167.502 405.818 167.259C405.531 167.017 405.383 166.667 405.383 166.213C405.383 165.804 405.531 165.468 405.827 165.207C406.124 164.947 406.519 164.816 407.017 164.816C407.516 164.816 407.924 164.938 408.207 165.18C408.49 165.423 408.634 165.768 408.634 166.208C408.634 166.626 408.49 166.967 408.198 167.228C407.911 167.488 407.516 167.619 407.017 167.619V167.623ZM405.652 178.45V169.41H408.378V178.45H405.652Z" fill="#2F3D58"/>
<path d="M410.945 178.449V165.854H413.667V178.449H410.945Z" fill="#2F3D58"/>
</svg>
