<svg width="600" height="200" viewBox="0 0 600 200" fill="none" xmlns="http://www.w3.org/2000/svg">
<path d="M294.937 85.0294C292.412 81.5039 289.936 78.0464 287.386 74.482C293.408 70.1504 299.371 65.8577 305.465 61.4726C298.963 56.8157 292.582 52.2413 286.07 47.5795C288.581 44.0589 291.057 40.5819 293.597 37.0176C304.975 45.1612 316.265 53.2465 327.726 61.4532C316.756 69.3443 305.898 77.1528 294.942 85.0342L294.937 85.0294Z" fill="#2F3D58"/>
<path d="M360.391 49.4751C362.566 49.4751 364.664 49.4508 366.762 49.4848C368.748 49.5139 370.749 49.2905 372.72 49.7276C377.751 50.8493 381.102 54.9187 381.335 60.1827C381.412 61.994 381.262 63.7761 380.684 65.5049C379.213 69.9142 375.299 72.7987 370.651 72.8472C367.495 72.8812 364.339 72.8618 361.187 72.8618C360.944 72.8618 360.701 72.8278 360.395 72.8035V49.4751H360.391ZM365.557 68.2583C367.349 68.2243 369.03 68.3894 370.705 68.1514C373.449 67.763 375.255 66.1216 375.881 63.4848C376.139 62.397 376.192 61.2898 376.085 60.1875C375.852 57.7206 374.871 55.686 372.477 54.6516C370.263 53.695 367.922 54.1806 365.557 54.098V68.2631V68.2583Z" fill="#2F3D58"/>
<path d="M528.059 72.8527C526.475 70.0508 524.941 67.3314 523.392 64.5877H519.891V72.7993H514.938V49.6116C515.263 49.398 515.603 49.4805 515.923 49.4805C519.021 49.4757 522.124 49.4708 525.223 49.4805C528.86 49.4854 531.822 51.6123 532.74 54.8659C533.692 58.2554 532.351 61.5624 529.243 63.4999C529.107 63.5825 528.981 63.6845 528.792 63.8253C530.511 66.8021 532.22 69.7594 534.007 72.8527H528.063H528.059ZM519.934 60.2998C521.663 60.2998 523.314 60.3095 524.965 60.2998C526.451 60.2852 527.495 59.4549 527.792 58.1C528.161 56.3955 527.612 54.9436 526.233 54.3609C524.193 53.5062 522.056 54.0501 519.934 53.919V60.3047V60.2998Z" fill="#2F3D58"/>
<path d="M330.878 58.624C327.376 56.1037 323.948 53.632 320.359 51.0486C326.896 46.3479 333.33 41.7201 339.89 37C342.406 40.5158 344.892 43.983 347.442 47.5473C341.891 51.2574 336.423 54.914 330.878 58.624Z" fill="#2F3D58"/>
<path d="M330.886 64.3066C336.039 67.8127 341.152 71.2945 346.363 74.8394C343.857 78.3698 341.4 81.8273 338.85 85.4159C332.712 81.0357 326.628 76.6993 320.383 72.2463C323.933 69.5609 327.376 66.958 330.882 64.3066H330.886Z" fill="#2F3D58"/>
<path d="M399.352 68.3117H410.283C410.4 69.8705 410.395 71.3176 410.293 72.8133H394.297V49.5625H410.006V54.0106H399.342V58.6627H408.438C408.583 60.207 408.54 61.5958 408.472 63.1352H399.347V68.3069L399.352 68.3117Z" fill="#2F3D58"/>
<path d="M485.185 49.5234H500.908V53.9667H490.259V58.6771H499.34V63.1495H490.235V68.2921H501.176C501.282 69.88 501.287 71.3222 501.176 72.8082H485.18V49.5234H485.185Z" fill="#2F3D58"/>
<path d="M427.106 72.8219H421.133C423.974 68.7622 426.717 64.8434 429.485 60.8857C426.78 57.1223 424.105 53.4025 421.332 49.5517H427.64C429.291 51.9651 431 54.4611 432.802 57.0883C434.526 54.466 436.157 51.9797 437.765 49.5371H443.733C441.009 53.5191 438.377 57.3651 435.711 61.2596C438.474 65.0668 441.213 68.8496 444.053 72.7685H437.75C436.046 70.3113 434.273 67.7473 432.423 65.0765C430.617 67.7085 428.873 70.253 427.111 72.8219H427.106Z" fill="#2F3D58"/>
<path d="M460.562 54.0776H453.812V49.5469H472.605V54.0679H465.734V72.7976H460.562V54.0824V54.0776Z" fill="#2F3D58"/>
<path d="M76.3486 74.0195C74.683 74.0195 73.1533 73.8058 71.7596 73.3834C70.3659 72.9609 69.1082 72.3247 67.9913 71.4798C66.8696 70.6348 65.8741 69.6102 65 68.4059L68.4818 64.4725C69.8221 66.3324 71.1332 67.6144 72.4152 68.3234C73.6972 69.0323 75.1443 69.3868 76.7614 69.3868C77.6889 69.3868 78.5387 69.2411 79.3011 68.9546C80.0635 68.6681 80.6656 68.2699 81.1027 67.7649C81.5397 67.2599 81.7582 66.6772 81.7582 66.0216C81.7582 65.5554 81.6708 65.1281 81.4911 64.7299C81.3115 64.3365 81.0444 63.9772 80.6899 63.6664C80.3354 63.3508 79.8984 63.0594 79.3788 62.7875C78.8592 62.5155 78.2716 62.2824 77.616 62.0882C76.9605 61.8988 76.2369 61.7191 75.4454 61.554C73.9448 61.2529 72.6289 60.8499 71.512 60.3449C70.3902 59.8398 69.4481 59.2134 68.6857 58.4607C67.9185 57.708 67.36 56.8631 67.0055 55.921C66.6511 54.9789 66.4714 53.9058 66.4714 52.7015C66.4714 51.4972 66.7385 50.3948 67.2726 49.3799C67.8068 48.3698 68.5352 47.4958 69.4676 46.7576C70.3951 46.0195 71.478 45.4465 72.7066 45.0386C73.9351 44.6307 75.2608 44.4219 76.6837 44.4219C78.2959 44.4219 79.7381 44.6113 81.0055 44.9949C82.2778 45.3785 83.3947 45.9467 84.3659 46.6945C85.3371 47.4472 86.1335 48.3553 86.7648 49.4188L83.2393 52.9005C82.6906 52.0556 82.0787 51.3515 81.394 50.7882C80.7093 50.2297 79.9712 49.8024 79.1797 49.5159C78.3881 49.2294 77.5529 49.0837 76.6788 49.0837C75.693 49.0837 74.8384 49.2197 74.1148 49.4916C73.3913 49.7635 72.8231 50.152 72.4152 50.6619C72.0073 51.1669 71.7985 51.7739 71.7985 52.4878C71.7985 53.0365 71.9199 53.5173 72.1675 53.9446C72.4152 54.3671 72.76 54.7458 73.2116 55.0712C73.6632 55.3965 74.2411 55.6879 74.9549 55.9307C75.6639 56.1784 76.47 56.3969 77.3732 56.5863C78.8737 56.8874 80.2286 57.2904 81.4329 57.7954C82.6372 58.3005 83.6569 58.9026 84.5068 59.597C85.3517 60.2915 85.9976 61.0878 86.4346 61.9765C86.8717 62.8652 87.0902 63.8558 87.0902 64.9484C87.0902 66.8325 86.6434 68.4545 85.7596 69.8044C84.871 71.1593 83.623 72.1936 82.0107 72.9172C80.3985 73.6407 78.5144 74.0049 76.3534 74.0049L76.3486 74.0195Z" fill="#2F3D58"/>
<path d="M90.1172 56.6822V52.0107H104.132V56.6822H90.1172ZM94.3808 73.6056V46.5137H99.4214V73.6056H94.3808Z" fill="#2F3D58"/>
<path d="M115.942 74.0198C114.165 74.0198 112.553 73.5293 111.105 72.5435C109.658 71.5578 108.498 70.2224 107.624 68.5276C106.75 66.8328 106.312 64.905 106.312 62.7489C106.312 60.5928 106.75 58.6649 107.624 56.9702C108.498 55.2754 109.687 53.9497 111.188 52.9931C112.688 52.0364 114.383 51.5605 116.272 51.5605C117.365 51.5605 118.36 51.7159 119.264 52.0316C120.167 52.3472 120.958 52.7891 121.638 53.3621C122.323 53.9352 122.886 54.5907 123.338 55.3288C123.789 56.067 124.095 56.8585 124.26 57.7083L123.153 57.4218V52.0122H128.238V73.6119H123.114V68.4499L124.304 68.2459C124.115 68.9841 123.765 69.7027 123.26 70.3972C122.755 71.0964 122.129 71.7083 121.376 72.2425C120.623 72.7766 119.793 73.204 118.875 73.5342C117.957 73.8644 116.981 74.0246 115.942 74.0246V74.0198ZM117.336 69.5522C118.511 69.5522 119.55 69.2657 120.448 68.6927C121.347 68.1197 122.051 67.3184 122.561 66.2938C123.066 65.2692 123.318 64.0891 123.318 62.7489C123.318 61.4086 123.066 60.2772 122.561 59.2671C122.056 58.257 121.352 57.4655 120.448 56.8876C119.545 56.3098 118.506 56.0281 117.336 56.0281C116.165 56.0281 115.131 56.3146 114.242 56.8876C113.354 57.4606 112.664 58.2522 112.174 59.2671C111.683 60.2772 111.436 61.4377 111.436 62.7489C111.436 64.06 111.683 65.2692 112.174 66.2938C112.664 67.3184 113.354 68.1197 114.242 68.6927C115.131 69.2657 116.161 69.5522 117.336 69.5522Z" fill="#2F3D58"/>
<path d="M134.094 73.6063V43.2754H139.134V73.6063H134.094ZM138.809 67.0118L137.823 62.2965L148.069 52.0114H154.79L138.804 67.0118H138.809ZM148.686 73.6063L140.737 63.9767L144.301 60.9417L154.916 73.6063H148.686Z" fill="#2F3D58"/>
<path d="M167.461 74.0186C165.193 74.0186 163.192 73.5427 161.454 72.586C159.72 71.6294 158.366 70.3231 157.394 68.672C156.423 67.021 155.938 65.1271 155.938 62.9953C155.938 61.3006 156.209 59.7563 156.758 58.3626C157.302 56.969 158.064 55.7598 159.031 54.7352C160.002 53.7105 161.163 52.919 162.513 52.3557C163.867 51.7973 165.349 51.5156 166.961 51.5156C168.379 51.5156 169.704 51.7876 170.938 52.3363C172.166 52.885 173.235 53.628 174.133 54.5701C175.031 55.5121 175.726 56.6339 176.202 57.9305C176.678 59.227 176.906 60.6401 176.877 62.1746L176.838 63.9374H159.337L158.395 60.4945H172.618L171.962 61.1889V60.2857C171.88 59.4407 171.608 58.6929 171.142 58.0519C170.676 57.4109 170.083 56.9058 169.36 56.5368C168.636 56.1677 167.835 55.9832 166.961 55.9832C165.62 55.9832 164.494 56.2454 163.581 56.7602C162.663 57.2798 161.974 58.0227 161.512 58.9939C161.046 59.9652 160.818 61.1743 160.818 62.6214C160.818 64.0685 161.109 65.2291 161.697 66.2683C162.284 67.3075 163.115 68.1039 164.198 68.6672C165.276 69.2256 166.538 69.5073 167.99 69.5073C169 69.5073 169.928 69.3422 170.778 69.0168C171.623 68.6866 172.54 68.1039 173.526 67.2541L176.027 70.7359C175.289 71.4206 174.449 71.9984 173.507 72.4792C172.565 72.9551 171.574 73.3339 170.535 73.6058C169.496 73.8777 168.471 74.0137 167.461 74.0137V74.0186Z" fill="#2F3D58"/>
<path d="M198.482 73.6054L191.227 52.0056L196.389 51.9668L201.225 67.375L200.322 67.2925L205.566 55.2446H208.602L213.972 67.2925L212.909 67.4139L217.784 52.0056H222.946L215.652 73.6054H212.044L206.513 60.6543L207.29 60.7368L202.046 73.6054H198.482Z" fill="#2F3D58"/>
<path d="M229.719 47.4179C228.709 47.4179 227.922 47.1654 227.364 46.6604C226.805 46.1553 226.523 45.4366 226.523 44.5091C226.523 43.635 226.81 42.926 227.383 42.3773C227.956 41.8334 228.738 41.5566 229.719 41.5566C230.758 41.5566 231.554 41.8092 232.118 42.3142C232.676 42.8192 232.958 43.5525 232.958 44.5091C232.958 45.3541 232.671 46.0533 232.098 46.5972C231.525 47.146 230.734 47.4179 229.719 47.4179ZM227.257 73.6066V52.0069H232.297V73.6066H227.257Z" fill="#2F3D58"/>
<path d="M236.766 56.6822V52.0107H250.78V56.6822H236.766ZM241.024 73.6056V46.5137H246.065V73.6056H241.024Z" fill="#2F3D58"/>
<path d="M254.633 73.6063V43.2754H259.635V56.4304L258.692 56.9209C258.964 55.9351 259.499 55.0416 260.29 54.2355C261.082 53.4294 262.024 52.7787 263.116 52.2882C264.209 51.7978 265.331 51.5501 266.477 51.5501C268.118 51.5501 269.487 51.8754 270.595 52.5359C271.702 53.1914 272.537 54.1772 273.096 55.4884C273.654 56.7995 273.936 58.4408 273.936 60.4075V73.6063H268.895V60.7766C268.895 59.684 268.744 58.7759 268.443 58.0523C268.142 57.3288 267.676 56.7946 267.05 56.4547C266.423 56.1148 265.656 55.9545 264.753 55.9837C264.015 55.9837 263.34 56.1002 262.723 56.3333C262.106 56.5664 261.577 56.8917 261.125 57.3191C260.674 57.7416 260.319 58.2272 260.062 58.7759C259.8 59.3246 259.673 59.9219 259.673 60.5775V73.6111H254.633V73.6063Z" fill="#2F3D58"/>
<path d="M458.087 162.443H139.306C134.392 162.443 130.391 158.441 130.391 153.527V126.217C130.391 121.302 134.392 117.301 139.306 117.301H458.087C463.001 117.301 467.002 121.302 467.002 126.217V153.527C467.002 158.441 463.001 162.443 458.087 162.443ZM139.306 118.029C134.79 118.029 131.119 121.7 131.119 126.217V153.527C131.119 158.043 134.79 161.714 139.306 161.714H458.087C462.603 161.714 466.274 158.043 466.274 153.527V126.217C466.274 121.7 462.603 118.029 458.087 118.029H139.306Z" fill="#2F3D58"/>
<path d="M153.296 146.65C152.47 146.65 151.708 146.543 151.008 146.325C150.304 146.106 149.673 145.781 149.1 145.339C148.527 144.897 148.017 144.353 147.57 143.703L149.173 141.857C149.882 142.867 150.562 143.572 151.212 143.96C151.863 144.349 152.635 144.548 153.534 144.548C154.082 144.548 154.582 144.46 155.029 144.285C155.476 144.111 155.83 143.873 156.093 143.572C156.355 143.271 156.481 142.921 156.481 142.532C156.481 142.27 156.437 142.027 156.35 141.794C156.263 141.561 156.132 141.352 155.947 141.168C155.767 140.978 155.534 140.809 155.253 140.648C154.971 140.488 154.641 140.347 154.267 140.226C153.888 140.104 153.456 139.998 152.965 139.91C152.184 139.75 151.504 139.541 150.926 139.284C150.348 139.021 149.862 138.696 149.474 138.308C149.085 137.919 148.794 137.472 148.605 136.972C148.415 136.472 148.323 135.914 148.323 135.292C148.323 134.67 148.459 134.122 148.726 133.602C148.993 133.083 149.362 132.631 149.833 132.247C150.304 131.864 150.858 131.567 151.494 131.359C152.13 131.15 152.815 131.043 153.553 131.043C154.335 131.043 155.049 131.145 155.699 131.344C156.35 131.543 156.928 131.849 157.433 132.242C157.938 132.641 158.36 133.126 158.691 133.704L157.044 135.331C156.753 134.855 156.428 134.452 156.068 134.127C155.704 133.801 155.311 133.554 154.874 133.388C154.442 133.223 153.975 133.141 153.485 133.141C152.922 133.141 152.431 133.228 152.009 133.403C151.591 133.578 151.261 133.821 151.023 134.131C150.785 134.442 150.664 134.806 150.664 135.224C150.664 135.53 150.722 135.807 150.838 136.059C150.955 136.312 151.13 136.535 151.368 136.729C151.606 136.924 151.926 137.098 152.334 137.249C152.737 137.4 153.223 137.536 153.786 137.652C154.582 137.827 155.291 138.045 155.913 138.312C156.535 138.58 157.064 138.895 157.496 139.255C157.928 139.614 158.258 140.022 158.482 140.469C158.705 140.915 158.817 141.401 158.817 141.921C158.817 142.892 158.594 143.727 158.147 144.436C157.7 145.145 157.064 145.689 156.238 146.072C155.413 146.456 154.432 146.645 153.291 146.645L153.296 146.65Z" fill="#2F3D58"/>
<path d="M160.633 137.215V135.045H167.878V137.215H160.633ZM162.998 146.432V132.141H165.231V146.432H162.998Z" fill="#2F3D58"/>
<path d="M174.181 146.651C173.239 146.651 172.384 146.388 171.612 145.869C170.84 145.349 170.218 144.64 169.757 143.742C169.296 142.843 169.062 141.833 169.062 140.707C169.062 139.58 169.296 138.551 169.767 137.657C170.238 136.769 170.874 136.069 171.675 135.564C172.476 135.059 173.38 134.807 174.375 134.807C174.967 134.807 175.511 134.894 176.002 135.069C176.492 135.244 176.924 135.487 177.294 135.797C177.663 136.108 177.964 136.467 178.206 136.87C178.444 137.274 178.595 137.711 178.653 138.172L178.153 137.997V135.049H180.406V146.437H178.153V143.727L178.673 143.577C178.585 143.965 178.41 144.349 178.143 144.713C177.876 145.082 177.536 145.412 177.124 145.699C176.711 145.985 176.254 146.218 175.759 146.393C175.259 146.568 174.734 146.655 174.186 146.655L174.181 146.651ZM174.768 144.587C175.448 144.587 176.046 144.422 176.57 144.087C177.094 143.752 177.497 143.295 177.794 142.707C178.09 142.12 178.24 141.455 178.24 140.702C178.24 139.949 178.09 139.308 177.794 138.73C177.497 138.152 177.09 137.696 176.57 137.366C176.05 137.036 175.448 136.866 174.768 136.866C174.089 136.866 173.516 137.031 173.001 137.366C172.486 137.701 172.083 138.152 171.787 138.73C171.491 139.308 171.34 139.969 171.34 140.702C171.34 141.435 171.486 142.125 171.787 142.707C172.083 143.295 172.486 143.752 173.001 144.087C173.516 144.417 174.103 144.587 174.768 144.587Z" fill="#2F3D58"/>
<path d="M183.531 146.432V130.383H185.765V146.432H183.531ZM185.571 142.877L185.464 140.449L190.908 135.049H193.923L185.571 142.877ZM191.209 146.432L186.916 141.421L188.499 139.969L194.074 146.432H191.209Z" fill="#2F3D58"/>
<path d="M200.684 146.65C199.513 146.65 198.474 146.403 197.571 145.903C196.668 145.402 195.959 144.723 195.444 143.853C194.929 142.984 194.672 141.989 194.672 140.862C194.672 139.964 194.818 139.148 195.104 138.41C195.391 137.672 195.794 137.031 196.308 136.492C196.823 135.948 197.435 135.53 198.154 135.234C198.867 134.938 199.644 134.787 200.485 134.787C201.223 134.787 201.907 134.928 202.544 135.21C203.18 135.491 203.733 135.88 204.204 136.37C204.675 136.861 205.035 137.443 205.287 138.118C205.54 138.793 205.661 139.527 205.647 140.318L205.627 141.27H196.323L195.823 139.493H203.694L203.369 139.862V139.342C203.325 138.866 203.165 138.439 202.893 138.065C202.616 137.691 202.272 137.395 201.854 137.176C201.436 136.958 200.98 136.851 200.489 136.851C199.708 136.851 199.052 137.001 198.518 137.298C197.984 137.594 197.576 138.026 197.304 138.599C197.027 139.172 196.891 139.876 196.891 140.711C196.891 141.508 197.056 142.197 197.391 142.785C197.721 143.373 198.193 143.824 198.8 144.14C199.407 144.46 200.106 144.616 200.902 144.616C201.465 144.616 201.99 144.524 202.476 144.334C202.961 144.145 203.486 143.805 204.049 143.314L205.176 144.897C204.831 145.242 204.403 145.548 203.908 145.81C203.413 146.073 202.883 146.277 202.325 146.427C201.767 146.578 201.223 146.655 200.689 146.655L200.684 146.65Z" fill="#2F3D58"/>
<path d="M212.567 146.432L218.356 138.167L221.328 139.881L216.836 146.432H212.562H212.567ZM223.416 146.432L218.71 139.624L212.679 131.252H217.171L221.77 137.978L227.908 146.437H223.416V146.432ZM222.114 139.381L219.167 137.735L223.416 131.252H227.689L222.114 139.386V139.381Z" fill="#2F3D58"/>
<path d="M229.797 146.432V131.252H236.629C237.596 131.252 238.475 131.461 239.266 131.878C240.053 132.296 240.674 132.874 241.121 133.602C241.568 134.331 241.791 135.161 241.791 136.084C241.791 137.006 241.568 137.895 241.121 138.653C240.674 139.41 240.058 140.007 239.276 140.44C238.494 140.872 237.615 141.09 236.629 141.09H233.313V146.427H229.797V146.432ZM233.308 138.279H236.299C236.673 138.279 237.003 138.196 237.285 138.031C237.567 137.866 237.785 137.628 237.936 137.327C238.086 137.021 238.164 136.676 238.164 136.288C238.164 135.899 238.076 135.554 237.902 135.258C237.727 134.962 237.479 134.734 237.154 134.573C236.828 134.413 236.435 134.336 235.974 134.336H233.308V138.284V138.279ZM238.212 146.432L234.352 139.58L238.125 139.036L242.418 146.432H238.212Z" fill="#2F3D58"/>
<path d="M245.016 146.432V131.252H251.372C252.484 131.252 253.504 131.436 254.432 131.806C255.359 132.175 256.155 132.699 256.83 133.379C257.505 134.059 258.02 134.86 258.379 135.787C258.739 136.715 258.923 137.73 258.923 138.847C258.923 139.964 258.744 140.983 258.379 141.916C258.02 142.848 257.501 143.649 256.83 144.324C256.16 144.999 255.359 145.519 254.432 145.888C253.504 146.257 252.489 146.442 251.372 146.442H245.016V146.432ZM248.701 143.917L248.201 143.178H251.26C251.868 143.178 252.411 143.072 252.887 142.863C253.363 142.654 253.771 142.363 254.111 141.984C254.451 141.61 254.713 141.153 254.903 140.619C255.092 140.085 255.184 139.493 255.184 138.842C255.184 138.191 255.092 137.599 254.903 137.065C254.713 136.53 254.451 136.074 254.111 135.7C253.771 135.326 253.363 135.03 252.887 134.821C252.411 134.612 251.868 134.505 251.26 134.505H248.138L248.701 133.811V143.917Z" fill="#2F3D58"/>
<path d="M271.868 146.651C270.926 146.651 270.072 146.388 269.299 145.869C268.527 145.349 267.906 144.64 267.444 143.742C266.983 142.843 266.75 141.833 266.75 140.707C266.75 139.58 266.983 138.551 267.454 137.657C267.925 136.769 268.561 136.069 269.363 135.564C270.164 135.059 271.067 134.807 272.063 134.807C272.655 134.807 273.199 134.894 273.689 135.069C274.18 135.244 274.612 135.487 274.981 135.797C275.35 136.108 275.651 136.467 275.894 136.87C276.132 137.274 276.282 137.711 276.341 138.172L275.841 137.997V135.049H278.094V146.437H275.841V143.727L276.36 143.577C276.273 143.965 276.098 144.349 275.831 144.713C275.564 145.082 275.224 145.412 274.811 145.699C274.398 145.985 273.942 146.218 273.447 146.393C272.946 146.568 272.422 146.655 271.873 146.655L271.868 146.651ZM272.456 144.587C273.136 144.587 273.733 144.422 274.257 144.087C274.782 143.752 275.185 143.295 275.481 142.707C275.777 142.12 275.928 141.455 275.928 140.702C275.928 139.949 275.777 139.308 275.481 138.73C275.185 138.152 274.777 137.696 274.257 137.366C273.738 137.036 273.136 136.866 272.456 136.866C271.776 136.866 271.203 137.031 270.688 137.366C270.174 137.701 269.77 138.152 269.474 138.73C269.178 139.308 269.027 139.969 269.027 140.702C269.027 141.435 269.173 142.125 269.474 142.707C269.77 143.295 270.174 143.752 270.688 144.087C271.203 144.417 271.791 144.587 272.456 144.587Z" fill="#2F3D58"/>
<path d="M281.211 146.432V135.045H283.445V137.385L283.056 137.647C283.202 137.142 283.484 136.676 283.901 136.249C284.319 135.822 284.819 135.477 285.397 135.21C285.975 134.943 286.567 134.807 287.174 134.807C288.043 134.807 288.762 134.977 289.345 135.317C289.923 135.656 290.355 136.171 290.646 136.866C290.938 137.56 291.078 138.434 291.078 139.488V146.427H288.845V139.638C288.845 138.988 288.757 138.449 288.582 138.021C288.408 137.594 288.141 137.283 287.781 137.089C287.422 136.895 286.97 136.812 286.436 136.841C286.004 136.841 285.606 136.909 285.241 137.045C284.877 137.181 284.566 137.376 284.299 137.618C284.032 137.866 283.823 138.148 283.673 138.473C283.522 138.798 283.445 139.148 283.445 139.527V146.422H281.211V146.432Z" fill="#2F3D58"/>
<path d="M298.873 146.651C297.834 146.651 296.902 146.393 296.086 145.883C295.27 145.369 294.624 144.669 294.144 143.781C293.668 142.892 293.43 141.877 293.43 140.731C293.43 139.585 293.663 138.575 294.134 137.681C294.605 136.793 295.241 136.094 296.052 135.579C296.863 135.064 297.781 134.807 298.805 134.807C299.369 134.807 299.913 134.899 300.442 135.079C300.971 135.258 301.442 135.506 301.865 135.817C302.282 136.128 302.612 136.467 302.85 136.837C303.088 137.206 303.21 137.579 303.21 137.953L302.559 137.997V130.383H304.793V146.432H302.559V143.722H302.991C302.991 144.067 302.875 144.412 302.646 144.752C302.413 145.092 302.107 145.407 301.724 145.694C301.34 145.985 300.898 146.214 300.403 146.388C299.903 146.563 299.393 146.651 298.873 146.651ZM299.174 144.718C299.854 144.718 300.452 144.543 300.976 144.198C301.496 143.854 301.903 143.378 302.2 142.78C302.496 142.183 302.646 141.498 302.646 140.731C302.646 139.964 302.496 139.284 302.2 138.682C301.903 138.08 301.496 137.609 300.976 137.259C300.456 136.914 299.854 136.739 299.174 136.739C298.495 136.739 297.897 136.914 297.373 137.259C296.853 137.604 296.445 138.08 296.149 138.682C295.853 139.284 295.702 139.964 295.702 140.731C295.702 141.498 295.853 142.183 296.149 142.78C296.445 143.378 296.853 143.854 297.373 144.198C297.892 144.543 298.495 144.718 299.174 144.718Z" fill="#2F3D58"/>
<path d="M319.254 146.65C318.084 146.65 317.044 146.403 316.141 145.903C315.238 145.402 314.529 144.723 314.014 143.853C313.5 142.984 313.242 141.989 313.242 140.862C313.242 139.964 313.388 139.148 313.674 138.41C313.961 137.672 314.364 137.031 314.879 136.492C315.393 135.948 316.005 135.53 316.724 135.234C317.438 134.938 318.215 134.787 319.055 134.787C319.793 134.787 320.478 134.928 321.114 135.21C321.75 135.491 322.304 135.88 322.775 136.37C323.246 136.861 323.605 137.443 323.858 138.118C324.11 138.793 324.231 139.527 324.217 140.318L324.197 141.27H314.893L314.393 139.493H322.265L321.939 139.862V139.342C321.896 138.866 321.735 138.439 321.463 138.065C321.187 137.691 320.842 137.395 320.424 137.176C320.007 136.958 319.55 136.851 319.06 136.851C318.278 136.851 317.622 137.001 317.088 137.298C316.554 137.594 316.146 138.026 315.874 138.599C315.597 139.172 315.461 139.876 315.461 140.711C315.461 141.508 315.627 142.197 315.962 142.785C316.292 143.373 316.763 143.824 317.37 144.14C317.977 144.46 318.676 144.616 319.473 144.616C320.036 144.616 320.56 144.524 321.046 144.334C321.531 144.145 322.056 143.805 322.619 143.314L323.746 144.897C323.401 145.242 322.974 145.548 322.478 145.81C321.983 146.073 321.454 146.277 320.895 146.427C320.337 146.578 319.793 146.655 319.259 146.655L319.254 146.65Z" fill="#2F3D58"/>
<path d="M331.032 146.651C330.09 146.651 329.236 146.388 328.463 145.869C327.691 145.349 327.07 144.64 326.608 143.742C326.147 142.843 325.914 141.833 325.914 140.707C325.914 139.58 326.147 138.551 326.618 137.657C327.089 136.769 327.725 136.069 328.527 135.564C329.328 135.059 330.231 134.807 331.227 134.807C331.819 134.807 332.363 134.894 332.853 135.069C333.344 135.244 333.776 135.487 334.145 135.797C334.514 136.108 334.815 136.467 335.058 136.87C335.296 137.274 335.446 137.711 335.505 138.172L335.005 137.997V135.049H337.258V146.437H335.005V143.727L335.524 143.577C335.437 143.965 335.262 144.349 334.995 144.713C334.728 145.082 334.388 145.412 333.975 145.699C333.562 145.985 333.106 146.218 332.611 146.393C332.11 146.568 331.586 146.655 331.037 146.655L331.032 146.651ZM331.62 144.587C332.3 144.587 332.897 144.422 333.421 144.087C333.946 143.752 334.349 143.295 334.645 142.707C334.941 142.12 335.092 141.455 335.092 140.702C335.092 139.949 334.941 139.308 334.645 138.73C334.349 138.152 333.941 137.696 333.421 137.366C332.902 137.036 332.3 136.866 331.62 136.866C330.94 136.866 330.367 137.031 329.852 137.366C329.338 137.701 328.935 138.152 328.638 138.73C328.342 139.308 328.192 139.969 328.192 140.702C328.192 141.435 328.337 142.125 328.638 142.707C328.935 143.295 329.338 143.752 329.852 144.087C330.367 144.417 330.955 144.587 331.62 144.587Z" fill="#2F3D58"/>
<path d="M340.377 146.432V135.045H342.63V138.624L342.412 137.754C342.572 137.206 342.844 136.705 343.223 136.259C343.606 135.812 344.048 135.457 344.543 135.195C345.044 134.933 345.558 134.807 346.092 134.807C346.34 134.807 346.573 134.826 346.797 134.87C347.02 134.913 347.2 134.962 347.326 135.02L346.738 137.448C346.564 137.375 346.374 137.312 346.165 137.264C345.957 137.215 345.748 137.186 345.549 137.186C345.16 137.186 344.786 137.264 344.432 137.414C344.077 137.565 343.766 137.779 343.499 138.046C343.232 138.313 343.019 138.624 342.858 138.978C342.698 139.332 342.62 139.721 342.62 140.139V146.427H340.367L340.377 146.432Z" fill="#2F3D58"/>
<path d="M349.117 146.432V135.045H351.351V137.385L350.962 137.647C351.108 137.142 351.39 136.676 351.807 136.249C352.225 135.822 352.725 135.477 353.303 135.21C353.881 134.943 354.473 134.807 355.08 134.807C355.95 134.807 356.668 134.977 357.251 135.317C357.829 135.656 358.261 136.171 358.552 136.866C358.844 137.56 358.985 138.434 358.985 139.488V146.427H356.751V139.638C356.751 138.988 356.663 138.449 356.489 138.021C356.314 137.594 356.047 137.283 355.687 137.089C355.328 136.895 354.876 136.812 354.342 136.841C353.91 136.841 353.512 136.909 353.148 137.045C352.783 137.181 352.473 137.376 352.206 137.618C351.939 137.866 351.73 138.148 351.579 138.473C351.429 138.798 351.351 139.148 351.351 139.527V146.422H349.117V146.432Z" fill="#2F3D58"/>
<path d="M373.481 146.652C372.063 146.652 370.839 146.433 369.805 145.991C368.77 145.549 367.887 144.913 367.148 144.073L368.882 141.252C369.693 142.092 370.48 142.684 371.247 143.029C372.014 143.374 372.815 143.549 373.656 143.549C374.044 143.549 374.399 143.5 374.719 143.398C375.035 143.296 375.282 143.15 375.457 142.951C375.632 142.757 375.719 142.514 375.719 142.223C375.719 142.004 375.666 141.81 375.559 141.635C375.452 141.461 375.302 141.31 375.112 141.179C374.923 141.048 374.7 140.931 374.442 140.82C374.18 140.713 373.908 140.616 373.617 140.538C373.325 140.46 373.029 140.392 372.728 140.334C371.601 140.086 370.669 139.756 369.941 139.338C369.212 138.921 368.664 138.396 368.304 137.765C367.945 137.134 367.76 136.396 367.76 135.541C367.76 134.861 367.916 134.235 368.226 133.667C368.537 133.094 368.955 132.603 369.484 132.19C370.014 131.778 370.621 131.462 371.315 131.239C372.009 131.015 372.733 130.903 373.486 130.903C374.714 130.903 375.812 131.093 376.783 131.467C377.749 131.841 378.618 132.428 379.386 133.225L377.822 135.784C377.244 135.191 376.593 134.749 375.87 134.463C375.146 134.172 374.389 134.031 373.592 134.031C373.16 134.031 372.786 134.084 372.476 134.191C372.165 134.298 371.922 134.453 371.747 134.648C371.572 134.842 371.485 135.08 371.485 135.352C371.485 135.599 371.558 135.808 371.703 135.978C371.849 136.153 372.043 136.308 372.291 136.444C372.539 136.58 372.82 136.697 373.136 136.789C373.456 136.881 373.787 136.959 374.131 137.017C374.928 137.178 375.647 137.386 376.288 137.649C376.929 137.911 377.487 138.226 377.958 138.6C378.429 138.974 378.788 139.421 379.041 139.936C379.293 140.45 379.42 141.048 379.42 141.723C379.42 142.777 379.162 143.67 378.652 144.403C378.138 145.132 377.438 145.69 376.55 146.074C375.661 146.457 374.636 146.647 373.481 146.647V146.652ZM372.179 148.405L372.417 138.319L374.175 139.033L374.413 148.4H372.179V148.405ZM374.714 139.057L372.956 138.343L372.718 129.34H374.952L374.714 139.057Z" fill="#2F3D58"/>
<path d="M382.203 146.432V131.252H388.56C389.672 131.252 390.692 131.436 391.619 131.806C392.547 132.175 393.343 132.699 394.018 133.379C394.693 134.059 395.208 134.86 395.567 135.787C395.926 136.715 396.111 137.73 396.111 138.847C396.111 139.964 395.931 140.983 395.567 141.916C395.208 142.848 394.688 143.649 394.018 144.324C393.348 144.999 392.547 145.519 391.619 145.888C390.692 146.257 389.677 146.442 388.56 146.442H382.203V146.432ZM385.889 143.917L385.389 143.178H388.448C389.055 143.178 389.599 143.072 390.075 142.863C390.551 142.654 390.959 142.363 391.299 141.984C391.638 141.61 391.901 141.153 392.09 140.619C392.279 140.085 392.372 139.493 392.372 138.842C392.372 138.191 392.279 137.599 392.09 137.065C391.901 136.53 391.638 136.074 391.299 135.7C390.959 135.326 390.551 135.03 390.075 134.821C389.599 134.612 389.055 134.505 388.448 134.505H385.326L385.889 133.811V143.917Z" fill="#2F3D58"/>
<path d="M398.942 146.432V131.252H409.524V134.399H402.516V143.29H409.737V146.437H398.938L398.942 146.432ZM400.676 140.207V137.215H408.548V140.207H400.676Z" fill="#2F3D58"/>
<path d="M410.997 146.432L416.785 138.167L419.757 139.881L415.266 146.432H410.992H410.997ZM421.841 146.432L417.135 139.624L411.104 131.252H415.596L420.194 137.978L426.332 146.437H421.841V146.432ZM420.539 139.381L417.592 137.735L421.841 131.252H426.114L420.539 139.386V139.381Z" fill="#2F3D58"/>
<path d="M431.511 146.432V134.505H427V131.252H439.82V134.505H435.202V146.432H431.516H431.511Z" fill="#2F3D58"/>
<path d="M442.422 146.432V131.252H449.254C450.221 131.252 451.1 131.461 451.891 131.878C452.678 132.296 453.299 132.874 453.746 133.602C454.193 134.331 454.416 135.161 454.416 136.084C454.416 137.006 454.193 137.895 453.746 138.653C453.299 139.41 452.683 140.007 451.901 140.44C451.119 140.872 450.24 141.09 449.254 141.09H445.938V146.427H442.422V146.432ZM445.933 138.279H448.924C449.298 138.279 449.628 138.196 449.91 138.031C450.192 137.866 450.41 137.628 450.561 137.327C450.711 137.021 450.789 136.676 450.789 136.288C450.789 135.899 450.701 135.554 450.527 135.258C450.352 134.962 450.104 134.734 449.779 134.573C449.453 134.413 449.06 134.336 448.599 134.336H445.933V138.284V138.279ZM450.837 146.432L446.977 139.58L450.75 139.036L455.043 146.432H450.837Z" fill="#2F3D58"/>
</svg>
