<svg width="223" height="40" viewBox="0 0 223 40" fill="none" xmlns="http://www.w3.org/2000/svg">
<path fill-rule="evenodd" clip-rule="evenodd" d="M13.411 20.173L0.615356 11.0962L5.54785 4.24001L27.988 20.1581L6.4301 35.5168L1.48347 28.6706L13.411 20.173Z" fill="#CBFC42"/>
<path fill-rule="evenodd" clip-rule="evenodd" d="M41 11.0771L30.1162 18.2817L23.23 13.3668L36.0533 4.23096L41 11.0771Z" fill="#CBFC42"/>
<path fill-rule="evenodd" clip-rule="evenodd" d="M30.1162 22.0527L40.2792 28.905L35.3583 35.7694L23.2389 27.2028L30.1162 22.0527Z" fill="#CBFC42"/>
<path d="M55.6916 11.6547H61.8447C63.6416 11.6547 65.2023 11.848 66.5267 12.2346C67.8511 12.6212 68.9464 13.176 69.8127 13.8991C70.6861 14.615 71.3339 15.4884 71.7563 16.5193C72.1859 17.543 72.4006 18.6956 72.4006 19.977C72.4006 21.1941 72.1894 22.3216 71.7671 23.3597C71.3447 24.3906 70.7004 25.2854 69.8341 26.0443C68.9679 26.796 67.8726 27.3866 66.5482 27.8161C65.2237 28.2385 63.6631 28.4497 61.8662 28.4497L55.6916 28.439V11.6547ZM62.6823 25.4966C63.6989 25.4966 64.5902 25.3678 65.3562 25.11C66.1222 24.8452 66.7593 24.4729 67.2676 23.9932C67.7831 23.5136 68.1697 22.9337 68.4274 22.2536C68.6851 21.5735 68.814 20.8146 68.814 19.977C68.814 19.1538 68.6851 18.4128 68.4274 17.7542C68.1697 17.0884 67.7831 16.5264 67.2676 16.0682C66.7593 15.6029 66.1222 15.245 65.3562 14.9944C64.5902 14.7438 63.6989 14.6185 62.6823 14.6185H59.0957V25.4966H62.6823ZM87.0316 11.6547H101.325V14.64H90.4357V17.9904H100.079V20.7932H90.4357V25.4644H101.55V28.439H87.0316V11.6547ZM121.314 19.9126L114.86 11.6547H119.027L123.483 17.432L127.961 11.6547H132.063L125.491 19.8804L132.289 28.439H128.111L123.333 22.4039L118.447 28.439H114.334L121.314 19.9126ZM151.118 14.64H144.922V11.6547H160.719V14.64H154.522V28.439H151.118V14.64ZM175.575 11.6547H189.868V14.64H178.979V17.9904H188.622V20.7932H178.979V25.4644H190.093V28.439H175.575V11.6547ZM205.09 11.6547H213.627C214.915 11.6547 216.032 11.7907 216.977 12.0628C217.922 12.3277 218.706 12.7143 219.329 13.2225C219.952 13.7308 220.413 14.3501 220.714 15.0803C221.022 15.8105 221.176 16.6374 221.176 17.5609C221.176 18.1837 221.101 18.7779 220.95 19.3435C220.8 19.9019 220.567 20.4173 220.252 20.8898C219.944 21.3623 219.554 21.7847 219.082 22.157C218.609 22.5221 218.054 22.8263 217.417 23.0697L221.068 28.439H216.902L213.745 23.6711H213.648L208.494 23.6603V28.439H205.09V11.6547ZM213.713 20.718C214.357 20.718 214.919 20.6428 215.398 20.4925C215.885 20.3422 216.29 20.131 216.612 19.8589C216.941 19.5869 217.185 19.2576 217.342 18.871C217.507 18.4772 217.589 18.0405 217.589 17.5609C217.589 16.6231 217.267 15.9 216.623 15.3917C215.978 14.8763 215.008 14.6185 213.713 14.6185H208.494V20.718H213.713Z" fill="#F6F6F7"/>
</svg>
